<?xml version="1.0" encoding="UTF-8" standalone="no"?>
<!DOCTYPE svg PUBLIC "-//W3C//DTD SVG 1.1//EN"
 "http://www.w3.org/Graphics/SVG/1.1/DTD/svg11.dtd">
<!-- Generated by graphviz version 8.1.0 (20230707.0739)
 -->
<!-- Title: Lista::inserirInicio Pages: 1 -->
<svg width="484pt" height="104pt"
 viewBox="0.00 0.00 483.75 104.00" xmlns="http://www.w3.org/2000/svg" xmlns:xlink="http://www.w3.org/1999/xlink">

<svg id="main" version="1.1" xmlns="http://www.w3.org/2000/svg" xmlns:xlink="http://www.w3.org/1999/xlink" xml:space="preserve" onload="init(evt)">
<style type="text/css"><![CDATA[
.node, .edge {opacity: 0.7;}
.node.selected, .edge.selected {opacity: 1;}
.edge:hover path { stroke: red; }
.edge:hover polygon { stroke: red; fill: red; }
]]></style>
<script type="application/ecmascript" xlink:href="../../svg.min.js"/>
<svg id="graph" class="graph">
<g id="graph0" class="graph" transform="scale(1 1) rotate(0) translate(4 100)">
<title>Lista::inserirInicio</title>
<!-- Node1 -->
<g id="Node000001" class="node">
<title>Node1</title>
<g id="a_Node000001"><a xlink:title="Insere uma coluna no início da lista.">
<polygon fill="#999999" stroke="#666666" points="475.75,-58 384,-58 384,-38 475.75,-38 475.75,-58"/>
<text text-anchor="middle" x="429.88" y="-44.5" font-family="Helvetica,sans-Serif" font-size="10.00">Lista::inserirInicio</text>
</a>
</g>
</g>
<!-- Node2 -->
<g id="Node000002" class="node">
<title>Node2</title>
<g id="a_Node000002"><a xlink:href="../../d1/d13/class_quadro.html#ae21d17fb833175bd68b00970c772fcd3" target="_top" xlink:title="Adiciona uma coluna ao quadro.">
<polygon fill="white" stroke="#666666" points="348,-58 225.5,-58 225.5,-38 348,-38 348,-58"/>
<text text-anchor="middle" x="286.75" y="-44.5" font-family="Helvetica,sans-Serif" font-size="10.00">Quadro::adicionarColuna</text>
</a>
</g>
</g>
<!-- Node1&#45;&gt;Node2 -->
<g id="edge1_Node000001_Node000002" class="edge">
<title>Node1&#45;&gt;Node2</title>
<g id="a_edge1_Node000001_Node000002"><a xlink:title=" ">
<path fill="none" stroke="#63b8ff" d="M372.99,-48C364.89,-48 356.52,-48 348.33,-48"/>
<polygon fill="#63b8ff" stroke="#63b8ff" points="372.83,-51.5 382.83,-48 372.83,-44.5 372.83,-51.5"/>
</a>
</g>
</g>
<!-- Node3 -->
<g id="Node000003" class="node">
<title>Node3</title>
<g id="a_Node000003"><a xlink:href="../../df/d0a/main_8cpp.html#adeb70abb0e6d3cf5e724363a38ce80ca" target="_top" xlink:title="Adiciona uma nova coluna do tipo &quot;arquivo&quot; ao quadro KanBan.">
<polygon fill="white" stroke="#666666" points="189.5,-96 73,-96 73,-76 189.5,-76 189.5,-96"/>
<text text-anchor="middle" x="131.25" y="-82.5" font-family="Helvetica,sans-Serif" font-size="10.00">adicionarColunaArquivo</text>
</a>
</g>
</g>
<!-- Node2&#45;&gt;Node3 -->
<g id="edge2_Node000002_Node000003" class="edge">
<title>Node2&#45;&gt;Node3</title>
<g id="a_edge2_Node000002_Node000003"><a xlink:title=" ">
<path fill="none" stroke="#63b8ff" d="M232.77,-61.12C213.71,-65.83 192.48,-71.09 174.46,-75.55"/>
<polygon fill="#63b8ff" stroke="#63b8ff" points="233.53,-64.28 242.4,-58.48 231.85,-57.49 233.53,-64.28"/>
</a>
</g>
</g>
<!-- Node5 -->
<g id="Node000005" class="node">
<title>Node5</title>
<g id="a_Node000005"><a xlink:href="../../df/d0a/main_8cpp.html#ac19c0f76269ed6195cad2776a32e04f1" target="_top" xlink:title="Carrega um quadro KanBan a partir de um arquivo.">
<polygon fill="white" stroke="#666666" points="172.62,-58 89.88,-58 89.88,-38 172.62,-38 172.62,-58"/>
<text text-anchor="middle" x="131.25" y="-44.5" font-family="Helvetica,sans-Serif" font-size="10.00">carregarQuadro</text>
</a>
</g>
</g>
<!-- Node2&#45;&gt;Node5 -->
<g id="edge4_Node000002_Node000005" class="edge">
<title>Node2&#45;&gt;Node5</title>
<g id="a_edge4_Node000002_Node000005"><a xlink:title=" ">
<path fill="none" stroke="#63b8ff" d="M214.25,-48C199.97,-48 185.45,-48 172.67,-48"/>
<polygon fill="#63b8ff" stroke="#63b8ff" points="214.08,-51.5 224.08,-48 214.08,-44.5 214.08,-51.5"/>
</a>
</g>
</g>
<!-- Node6 -->
<g id="Node000006" class="node">
<title>Node6</title>
<g id="a_Node000006"><a xlink:href="../../df/d0a/main_8cpp.html#a48e1cbf9de98941d548837997b582870" target="_top" xlink:title="Cria e adiciona uma nova coluna ao quadro KanBan.">
<polygon fill="white" stroke="#666666" points="163.62,-20 98.88,-20 98.88,0 163.62,0 163.62,-20"/>
<text text-anchor="middle" x="131.25" y="-6.5" font-family="Helvetica,sans-Serif" font-size="10.00">criarColuna</text>
</a>
</g>
</g>
<!-- Node2&#45;&gt;Node6 -->
<g id="edge6_Node000002_Node000006" class="edge">
<title>Node2&#45;&gt;Node6</title>
<g id="a_edge6_Node000002_Node000006"><a xlink:title=" ">
<path fill="none" stroke="#63b8ff" d="M232.75,-34.88C209.76,-29.19 183.61,-22.71 163.75,-17.8"/>
<polygon fill="#63b8ff" stroke="#63b8ff" points="231.85,-38.51 242.4,-37.52 233.53,-31.72 231.85,-38.51"/>
</a>
</g>
</g>
<!-- Node4 -->
<g id="Node000004" class="node">
<title>Node4</title>
<g id="a_Node000004"><a xlink:href="../../df/d0a/main_8cpp.html#ae66f6b31b5ad750f1fe042a706a4e3d4" target="_top" xlink:title=" ">
<polygon fill="white" stroke="#666666" points="37,-58 0,-58 0,-38 37,-38 37,-58"/>
<text text-anchor="middle" x="18.5" y="-44.5" font-family="Helvetica,sans-Serif" font-size="10.00">main</text>
</a>
</g>
</g>
<!-- Node3&#45;&gt;Node4 -->
<g id="edge3_Node000003_Node000004" class="edge">
<title>Node3&#45;&gt;Node4</title>
<g id="a_edge3_Node000003_Node000004"><a xlink:title=" ">
<path fill="none" stroke="#63b8ff" d="M88.1,-72.12C83,-70.41 77.88,-68.68 73,-67 61.07,-62.9 47.69,-58.15 37.3,-54.43"/>
<polygon fill="#63b8ff" stroke="#63b8ff" points="86.82,-75.72 97.41,-75.56 89.04,-69.08 86.82,-75.72"/>
</a>
</g>
</g>
<!-- Node5&#45;&gt;Node4 -->
<g id="edge5_Node000005_Node000004" class="edge">
<title>Node5&#45;&gt;Node4</title>
<g id="a_edge5_Node000005_Node000004"><a xlink:title=" ">
<path fill="none" stroke="#63b8ff" d="M78.88,-48C63.93,-48 48.58,-48 37.24,-48"/>
<polygon fill="#63b8ff" stroke="#63b8ff" points="78.64,-51.5 88.64,-48 78.64,-44.5 78.64,-51.5"/>
</a>
</g>
</g>
<!-- Node6&#45;&gt;Node4 -->
<g id="edge7_Node000006_Node000004" class="edge">
<title>Node6&#45;&gt;Node4</title>
<g id="a_edge7_Node000006_Node000004"><a xlink:title=" ">
<path fill="none" stroke="#63b8ff" d="M88.1,-23.88C83,-25.59 77.88,-27.32 73,-29 61.07,-33.1 47.69,-37.85 37.3,-41.57"/>
<polygon fill="#63b8ff" stroke="#63b8ff" points="89.04,-26.92 97.41,-20.44 86.82,-20.28 89.04,-26.92"/>
</a>
</g>
</g>
</g>
</svg>
</svg>

<style type='text/css'>
<![CDATA[
[data-mouse-over-selected='false'] { opacity: 0.7; }
[data-mouse-over-selected='true']  { opacity: 1.0; }
]]>
</style>
<script type="application/ecmascript"><![CDATA[
document.addEventListener('DOMContentLoaded', (event) => {
  highlightEdges();
  highlightAdjacentNodes();
});
]]></script>
</svg>
