<?xml version="1.0" encoding="UTF-8" standalone="no"?>
<!DOCTYPE svg PUBLIC "-//W3C//DTD SVG 1.1//EN"
 "http://www.w3.org/Graphics/SVG/1.1/DTD/svg11.dtd">
<!-- Generated by graphviz version 8.1.0 (20230707.0739)
 -->
<!-- Title: Lista::vazia Pages: 1 -->
<svg width="703pt" height="104pt"
 viewBox="0.00 0.00 703.25 104.00" xmlns="http://www.w3.org/2000/svg" xmlns:xlink="http://www.w3.org/1999/xlink">
<g id="graph0" class="graph" transform="scale(1 1) rotate(0) translate(4 100)">
<title>Lista::vazia</title>
<!-- Node1 -->
<g id="Node000001" class="node">
<title>Node1</title>
<g id="a_Node000001"><a xlink:title="Verifica se a lista está vazia.">
<polygon fill="#999999" stroke="#666666" points="695.25,-39 630.5,-39 630.5,-19 695.25,-19 695.25,-39"/>
<text text-anchor="middle" x="662.88" y="-25.5" font-family="Helvetica,sans-Serif" font-size="10.00">Lista::vazia</text>
</a>
</g>
</g>
<!-- Node2 -->
<g id="Node000002" class="node">
<title>Node2</title>
<g id="a_Node000002"><a xlink:href="../../db/dba/class_lista.html#a70571e70c4b7945cc9907e89431624c9" target="_top" xlink:title="Remove todos os nós da lista e libera a memória.">
<polygon fill="white" stroke="#666666" points="435.25,-58 366,-58 366,-38 435.25,-38 435.25,-58"/>
<text text-anchor="middle" x="400.62" y="-44.5" font-family="Helvetica,sans-Serif" font-size="10.00">Lista::limpar</text>
</a>
</g>
</g>
<!-- Node1&#45;&gt;Node2 -->
<g id="edge1_Node000001_Node000002" class="edge">
<title>Node1&#45;&gt;Node2</title>
<g id="a_edge1_Node000001_Node000002"><a xlink:title=" ">
<path fill="none" stroke="#63b8ff" d="M619.5,-32.09C568.17,-35.84 482.71,-42.08 435.53,-45.53"/>
<polygon fill="#63b8ff" stroke="#63b8ff" points="619.5,-35.53 629.22,-31.31 619,-28.55 619.5,-35.53"/>
</a>
</g>
</g>
<!-- Node5 -->
<g id="Node000005" class="node">
<title>Node5</title>
<g id="a_Node000005"><a xlink:href="../../db/dba/class_lista.html#a2ab09a2fd57a3adeec30cea8fd9e770d" target="_top" xlink:title="Remove a coluna do início da lista.">
<polygon fill="white" stroke="#666666" points="594.5,-20 495.25,-20 495.25,0 594.5,0 594.5,-20"/>
<text text-anchor="middle" x="544.88" y="-6.5" font-family="Helvetica,sans-Serif" font-size="10.00">Lista::removerInicio</text>
</a>
</g>
</g>
<!-- Node1&#45;&gt;Node5 -->
<g id="edge4_Node000001_Node000005" class="edge">
<title>Node1&#45;&gt;Node5</title>
<g id="a_edge4_Node000001_Node000005"><a xlink:title=" ">
<path fill="none" stroke="#63b8ff" d="M619.6,-22.07C611.59,-20.76 603.16,-19.38 594.96,-18.04"/>
<polygon fill="#63b8ff" stroke="#63b8ff" points="618.74,-25.65 629.18,-23.81 619.87,-18.74 618.74,-25.65"/>
</a>
</g>
</g>
<!-- Node3 -->
<g id="Node000003" class="node">
<title>Node3</title>
<g id="a_Node000003"><a xlink:href="../../db/dba/class_lista.html#a4d7394b2728a00ad8404965b2e15d096" target="_top" xlink:title="Destrutor da classe Lista.">
<polygon fill="white" stroke="#666666" points="282.38,-96 212.38,-96 212.38,-76 282.38,-76 282.38,-96"/>
<text text-anchor="middle" x="247.38" y="-82.5" font-family="Helvetica,sans-Serif" font-size="10.00">Lista::~Lista</text>
</a>
</g>
</g>
<!-- Node2&#45;&gt;Node3 -->
<g id="edge2_Node000002_Node000003" class="edge">
<title>Node2&#45;&gt;Node3</title>
<g id="a_edge2_Node000002_Node000003"><a xlink:title=" ">
<path fill="none" stroke="#63b8ff" d="M355.09,-59.19C331.98,-65 304.16,-71.98 282.73,-77.37"/>
<polygon fill="#63b8ff" stroke="#63b8ff" points="355.84,-62.36 364.68,-56.53 354.13,-55.57 355.84,-62.36"/>
</a>
</g>
</g>
<!-- Node4 -->
<g id="Node000004" class="node">
<title>Node4</title>
<g id="a_Node000004"><a xlink:href="../../d1/d13/class_quadro.html#af569ac1f73c8e6859effde0e2aa115d4" target="_top" xlink:title="Destrutor da classe Quadro.">
<polygon fill="white" stroke="#666666" points="292.88,-58 201.88,-58 201.88,-38 292.88,-38 292.88,-58"/>
<text text-anchor="middle" x="247.38" y="-44.5" font-family="Helvetica,sans-Serif" font-size="10.00">Quadro::~Quadro</text>
</a>
</g>
</g>
<!-- Node2&#45;&gt;Node4 -->
<g id="edge3_Node000002_Node000004" class="edge">
<title>Node2&#45;&gt;Node4</title>
<g id="a_edge3_Node000002_Node000004"><a xlink:title=" ">
<path fill="none" stroke="#63b8ff" d="M354.93,-48C335.43,-48 312.62,-48 293.11,-48"/>
<polygon fill="#63b8ff" stroke="#63b8ff" points="354.68,-51.5 364.68,-48 354.68,-44.5 354.68,-51.5"/>
</a>
</g>
</g>
<!-- Node5&#45;&gt;Node2 -->
<g id="edge5_Node000005_Node000002" class="edge">
<title>Node5&#45;&gt;Node2</title>
<g id="a_edge5_Node000005_Node000002"><a xlink:title=" ">
<path fill="none" stroke="#63b8ff" d="M494.13,-23.29C474.72,-28.47 452.96,-34.29 435.43,-38.97"/>
<polygon fill="#63b8ff" stroke="#63b8ff" points="494.87,-26.45 503.63,-20.48 493.06,-19.68 494.87,-26.45"/>
</a>
</g>
</g>
<!-- Node6 -->
<g id="Node000006" class="node">
<title>Node6</title>
<g id="a_Node000006"><a xlink:href="../../db/dba/class_lista.html#ad71c31e64374c31c878455e451386d1e" target="_top" xlink:title="Remove a coluna da lista pelo índice.">
<polygon fill="white" stroke="#666666" points="459.25,-20 342,-20 342,0 459.25,0 459.25,-20"/>
<text text-anchor="middle" x="400.62" y="-6.5" font-family="Helvetica,sans-Serif" font-size="10.00">Lista::removerPorIndice</text>
</a>
</g>
</g>
<!-- Node5&#45;&gt;Node6 -->
<g id="edge6_Node000005_Node000006" class="edge">
<title>Node5&#45;&gt;Node6</title>
<g id="a_edge6_Node000005_Node000006"><a xlink:title=" ">
<path fill="none" stroke="#63b8ff" d="M484.02,-10C475.9,-10 467.58,-10 459.49,-10"/>
<polygon fill="#63b8ff" stroke="#63b8ff" points="483.92,-13.5 493.92,-10 483.92,-6.5 483.92,-13.5"/>
</a>
</g>
</g>
<!-- Node7 -->
<g id="Node000007" class="node">
<title>Node7</title>
<g id="a_Node000007"><a xlink:href="../../d1/d13/class_quadro.html#a977fc54d38236a3a70a20e65101f51c4" target="_top" xlink:title="Remove uma coluna do quadro.">
<polygon fill="white" stroke="#666666" points="306,-20 188.75,-20 188.75,0 306,0 306,-20"/>
<text text-anchor="middle" x="247.38" y="-6.5" font-family="Helvetica,sans-Serif" font-size="10.00">Quadro::removerColuna</text>
</a>
</g>
</g>
<!-- Node6&#45;&gt;Node7 -->
<g id="edge7_Node000006_Node000007" class="edge">
<title>Node6&#45;&gt;Node7</title>
<g id="a_edge7_Node000006_Node000007"><a xlink:title=" ">
<path fill="none" stroke="#63b8ff" d="M330.79,-10C322.51,-10 314.11,-10 306.01,-10"/>
<polygon fill="#63b8ff" stroke="#63b8ff" points="330.58,-13.5 340.58,-10 330.58,-6.5 330.58,-13.5"/>
</a>
</g>
</g>
<!-- Node8 -->
<g id="Node000008" class="node">
<title>Node8</title>
<g id="a_Node000008"><a xlink:href="../../df/d0a/main_8cpp.html#aaa15a96063fb4377e5ac1d46a68321c0" target="_top" xlink:title="Remove uma coluna do quadro KanBan.">
<polygon fill="white" stroke="#666666" points="152.75,-20 73,-20 73,0 152.75,0 152.75,-20"/>
<text text-anchor="middle" x="112.88" y="-6.5" font-family="Helvetica,sans-Serif" font-size="10.00">removerColuna</text>
</a>
</g>
</g>
<!-- Node7&#45;&gt;Node8 -->
<g id="edge8_Node000007_Node000008" class="edge">
<title>Node7&#45;&gt;Node8</title>
<g id="a_edge8_Node000007_Node000008"><a xlink:title=" ">
<path fill="none" stroke="#63b8ff" d="M177.27,-10C168.91,-10 160.6,-10 152.89,-10"/>
<polygon fill="#63b8ff" stroke="#63b8ff" points="177.26,-13.5 187.26,-10 177.26,-6.5 177.26,-13.5"/>
</a>
</g>
</g>
<!-- Node9 -->
<g id="Node000009" class="node">
<title>Node9</title>
<g id="a_Node000009"><a xlink:href="../../df/d0a/main_8cpp.html#ae66f6b31b5ad750f1fe042a706a4e3d4" target="_top" xlink:title=" ">
<polygon fill="white" stroke="#666666" points="37,-20 0,-20 0,0 37,0 37,-20"/>
<text text-anchor="middle" x="18.5" y="-6.5" font-family="Helvetica,sans-Serif" font-size="10.00">main</text>
</a>
</g>
</g>
<!-- Node8&#45;&gt;Node9 -->
<g id="edge9_Node000008_Node000009" class="edge">
<title>Node8&#45;&gt;Node9</title>
<g id="a_edge9_Node000008_Node000009"><a xlink:title=" ">
<path fill="none" stroke="#63b8ff" d="M61.87,-10C53,-10 44.31,-10 37.14,-10"/>
<polygon fill="#63b8ff" stroke="#63b8ff" points="61.7,-13.5 71.7,-10 61.7,-6.5 61.7,-13.5"/>
</a>
</g>
</g>
</g>
</svg>
