<?xml version="1.0" encoding="UTF-8" standalone="no"?>
<!DOCTYPE svg PUBLIC "-//W3C//DTD SVG 1.1//EN"
 "http://www.w3.org/Graphics/SVG/1.1/DTD/svg11.dtd">
<!-- Generated by graphviz version 8.1.0 (20230707.0739)
 -->
<!-- Title: Lista::removerPorIndice Pages: 1 -->
<svg width="467pt" height="28pt"
 viewBox="0.00 0.00 467.25 28.00" xmlns="http://www.w3.org/2000/svg" xmlns:xlink="http://www.w3.org/1999/xlink">
<g id="graph0" class="graph" transform="scale(1 1) rotate(0) translate(4 24)">
<title>Lista::removerPorIndice</title>
<!-- Node1 -->
<g id="Node000001" class="node">
<title>Node1</title>
<g id="a_Node000001"><a xlink:title="Remove a coluna da lista pelo índice.">
<polygon fill="#999999" stroke="#666666" points="459.25,-20 342,-20 342,0 459.25,0 459.25,-20"/>
<text text-anchor="middle" x="400.62" y="-6.5" font-family="Helvetica,sans-Serif" font-size="10.00">Lista::removerPorIndice</text>
</a>
</g>
</g>
<!-- Node2 -->
<g id="Node000002" class="node">
<title>Node2</title>
<g id="a_Node000002"><a xlink:href="../../d1/d13/class_quadro.html#a977fc54d38236a3a70a20e65101f51c4" target="_top" xlink:title="Remove uma coluna do quadro.">
<polygon fill="white" stroke="#666666" points="306,-20 188.75,-20 188.75,0 306,0 306,-20"/>
<text text-anchor="middle" x="247.38" y="-6.5" font-family="Helvetica,sans-Serif" font-size="10.00">Quadro::removerColuna</text>
</a>
</g>
</g>
<!-- Node1&#45;&gt;Node2 -->
<g id="edge1_Node000001_Node000002" class="edge">
<title>Node1&#45;&gt;Node2</title>
<g id="a_edge1_Node000001_Node000002"><a xlink:title=" ">
<path fill="none" stroke="#63b8ff" d="M330.79,-10C322.51,-10 314.11,-10 306.01,-10"/>
<polygon fill="#63b8ff" stroke="#63b8ff" points="330.58,-13.5 340.58,-10 330.58,-6.5 330.58,-13.5"/>
</a>
</g>
</g>
<!-- Node3 -->
<g id="Node000003" class="node">
<title>Node3</title>
<g id="a_Node000003"><a xlink:href="../../df/d0a/main_8cpp.html#aaa15a96063fb4377e5ac1d46a68321c0" target="_top" xlink:title="Remove uma coluna do quadro KanBan.">
<polygon fill="white" stroke="#666666" points="152.75,-20 73,-20 73,0 152.75,0 152.75,-20"/>
<text text-anchor="middle" x="112.88" y="-6.5" font-family="Helvetica,sans-Serif" font-size="10.00">removerColuna</text>
</a>
</g>
</g>
<!-- Node2&#45;&gt;Node3 -->
<g id="edge2_Node000002_Node000003" class="edge">
<title>Node2&#45;&gt;Node3</title>
<g id="a_edge2_Node000002_Node000003"><a xlink:title=" ">
<path fill="none" stroke="#63b8ff" d="M177.27,-10C168.91,-10 160.6,-10 152.89,-10"/>
<polygon fill="#63b8ff" stroke="#63b8ff" points="177.26,-13.5 187.26,-10 177.26,-6.5 177.26,-13.5"/>
</a>
</g>
</g>
<!-- Node4 -->
<g id="Node000004" class="node">
<title>Node4</title>
<g id="a_Node000004"><a xlink:href="../../df/d0a/main_8cpp.html#ae66f6b31b5ad750f1fe042a706a4e3d4" target="_top" xlink:title=" ">
<polygon fill="white" stroke="#666666" points="37,-20 0,-20 0,0 37,0 37,-20"/>
<text text-anchor="middle" x="18.5" y="-6.5" font-family="Helvetica,sans-Serif" font-size="10.00">main</text>
</a>
</g>
</g>
<!-- Node3&#45;&gt;Node4 -->
<g id="edge3_Node000003_Node000004" class="edge">
<title>Node3&#45;&gt;Node4</title>
<g id="a_edge3_Node000003_Node000004"><a xlink:title=" ">
<path fill="none" stroke="#63b8ff" d="M61.87,-10C53,-10 44.31,-10 37.14,-10"/>
<polygon fill="#63b8ff" stroke="#63b8ff" points="61.7,-13.5 71.7,-10 61.7,-6.5 61.7,-13.5"/>
</a>
</g>
</g>
</g>
</svg>
