<?xml version="1.0" encoding="UTF-8" standalone="no"?>
<!DOCTYPE svg PUBLIC "-//W3C//DTD SVG 1.1//EN"
 "http://www.w3.org/Graphics/SVG/1.1/DTD/svg11.dtd">
<!-- Generated by graphviz version 8.1.0 (20230707.0739)
 -->
<!-- Title: Lista::obterPorIndice Pages: 1 -->
<!--zoomable 363 -->

<svg id="main" version="1.1" xmlns="http://www.w3.org/2000/svg" xmlns:xlink="http://www.w3.org/1999/xlink" xml:space="preserve" onload="init(evt)">
<style type="text/css"><![CDATA[
.node, .edge {opacity: 0.7;}
.node.selected, .edge.selected {opacity: 1;}
.edge:hover path { stroke: red; }
.edge:hover polygon { stroke: red; fill: red; }
]]></style>

<defs>
  <circle id="rim" cx="0" cy="0" r="7"/>
  <circle id="rim2" cx="0" cy="0" r="3.5"/>
  <g id="zoomPlus">
    <use xlink:href="#rim" fill="#404040"><set attributeName="fill" to="#808080" begin="zoomplus.mouseover" end="zoomplus.mouseout"/></use>
    <path d="M-4,0h8M0,-4v8" fill="none" stroke="white" stroke-width="1.5" pointer-events="none"/>
  </g>
  <g id="zoomMin">
    <use xlink:href="#rim" fill="#404040"><set attributeName="fill" to="#808080" begin="zoomminus.mouseover" end="zoomminus.mouseout"/></use>
    <path d="M-4,0h8" fill="none" stroke="white" stroke-width="1.5" pointer-events="none"/>
  </g>
  <g id="arrowUp" transform="translate(30 24)">
    <use xlink:href="#rim"/>
    <path pointer-events="none" fill="none" stroke="white" stroke-width="1.5" d="M0,-3.0v7 M-2.5,-0.5L0,-3.0L2.5,-0.5"/>
  </g>
  <g id="arrowRight" transform="rotate(90) translate(36 -43)">
    <use xlink:href="#rim"/>
    <path pointer-events="none" fill="none" stroke="white" stroke-width="1.5" d="M0,-3.0v7 M-2.5,-0.5L0,-3.0L2.5,-0.5"/>
  </g>
  <g id="arrowDown" transform="rotate(180) translate(-30 -48)">
    <use xlink:href="#rim"/>
    <path pointer-events="none" fill="none" stroke="white" stroke-width="1.5" d="M0,-3.0v7 M-2.5,-0.5L0,-3.0L2.5,-0.5"/>
  </g>
  <g id="arrowLeft" transform="rotate(270) translate(-36 17)">
    <use xlink:href="#rim"/>
    <path pointer-events="none" fill="none" stroke="white" stroke-width="1.5" d="M0,-3.0v7 M-2.5,-0.5L0,-3.0L2.5,-0.5"/>
  </g>
  <g id="resetDef">
    <use xlink:href="#rim2" fill="#404040"><set attributeName="fill" to="#808080" begin="reset.mouseover" end="reset.mouseout"/></use>
  </g>
</defs>
<script type="application/ecmascript">
var viewWidth = 569;
var viewHeight = 363;
var sectionId = 'dynsection-7';
</script>
<script type="application/ecmascript" xlink:href="../../svg.min.js"/>
<svg id="graph" class="graph">
<g id="viewport">
<title>Lista::obterPorIndice</title>
<!-- Node1 -->
<g id="Node000001" class="node">
<title>Node1</title>
<g id="a_Node000001"><a xlink:title="Obtém a coluna da lista pelo índice.">
<polygon fill="#999999" stroke="#666666" points="560.75,-169.29 455.5,-169.29 455.5,-149.29 560.75,-149.29 560.75,-169.29"/>
<text text-anchor="middle" x="508.12" y="-155.79" font-family="Helvetica,sans-Serif" font-size="10.00">Lista::obterPorIndice</text>
</a>
</g>
</g>
<!-- Node2 -->
<g id="Node000002" class="node">
<title>Node2</title>
<g id="a_Node000002"><a xlink:href="../../d1/d13/class_quadro.html#acdcb5194cb4b20e50f6211df473b59f2" target="_top" xlink:title="Obtém uma coluna do quadro pelo índice.">
<polygon fill="white" stroke="#666666" points="419.5,-169.29 314.25,-169.29 314.25,-149.29 419.5,-149.29 419.5,-169.29"/>
<text text-anchor="middle" x="366.88" y="-155.79" font-family="Helvetica,sans-Serif" font-size="10.00">Quadro::obterColuna</text>
</a>
</g>
</g>
<!-- Node1&#45;&gt;Node2 -->
<g id="edge1_Node000001_Node000002" class="edge">
<title>Node1&#45;&gt;Node2</title>
<g id="a_edge1_Node000001_Node000002"><a xlink:title=" ">
<path fill="none" stroke="#63b8ff" d="M444.51,-159.29C436.24,-159.29 427.84,-159.29 419.77,-159.29"/>
<polygon fill="#63b8ff" stroke="#63b8ff" points="444.27,-162.79 454.27,-159.29 444.27,-155.79 444.27,-162.79"/>
</a>
</g>
</g>
<!-- Node3 -->
<g id="Node000003" class="node">
<title>Node3</title>
<g id="a_Node000003"><a xlink:href="../../df/d0a/main_8cpp.html#a0d931717ab3053bc49784e26575b01d6" target="_top" xlink:title="Adiciona uma nova tarefa a uma coluna no quadro KanBan.">
<polygon fill="white" stroke="#666666" points="154.25,-355.29 73,-355.29 73,-335.29 154.25,-335.29 154.25,-355.29"/>
<text text-anchor="middle" x="113.62" y="-341.79" font-family="Helvetica,sans-Serif" font-size="10.00">adicionarTarefa</text>
</a>
</g>
</g>
<!-- Node2&#45;&gt;Node3 -->
<g id="edge2_Node000002_Node000003" class="edge">
<title>Node2&#45;&gt;Node3</title>
<g id="a_edge2_Node000002_Node000003"><a xlink:title=" ">
<path fill="none" stroke="#63b8ff" d="M354.99,-178.96C340.38,-203.83 312.28,-246.61 278.25,-273.29 239.91,-303.36 187.05,-323.63 151.91,-334.81"/>
<polygon fill="#63b8ff" stroke="#63b8ff" points="358.48,-180.92 360.41,-170.5 352.4,-177.44 358.48,-180.92"/>
</a>
</g>
</g>
<!-- Node5 -->
<g id="Node000005" class="node">
<title>Node5</title>
<g id="a_Node000005"><a xlink:href="../../df/d0a/main_8cpp.html#a512a56ef22516c5454d0f925b16adcd6" target="_top" xlink:title="Edita uma coluna existente no quadro KanBan.">
<polygon fill="white" stroke="#666666" points="148.62,-317.29 78.62,-317.29 78.62,-297.29 148.62,-297.29 148.62,-317.29"/>
<text text-anchor="middle" x="113.62" y="-303.79" font-family="Helvetica,sans-Serif" font-size="10.00">editarColuna</text>
</a>
</g>
</g>
<!-- Node2&#45;&gt;Node5 -->
<g id="edge4_Node000002_Node000005" class="edge">
<title>Node2&#45;&gt;Node5</title>
<g id="a_edge4_Node000002_Node000005"><a xlink:title=" ">
<path fill="none" stroke="#63b8ff" d="M349.23,-177.49C332.58,-194.87 305.58,-220.92 278.25,-238.29 236.36,-264.93 182.45,-285.35 148.2,-296.84"/>
<polygon fill="#63b8ff" stroke="#63b8ff" points="351.22,-180.41 355.53,-170.73 346.13,-175.61 351.22,-180.41"/>
</a>
</g>
</g>
<!-- Node6 -->
<g id="Node000006" class="node">
<title>Node6</title>
<g id="a_Node000006"><a xlink:href="../../df/d0a/main_8cpp.html#ac8773e0e3b3c75454e680ff43c6fcd7f" target="_top" xlink:title="Edita uma tarefa existente no quadro KanBan.">
<polygon fill="white" stroke="#666666" points="146.75,-279.29 80.5,-279.29 80.5,-259.29 146.75,-259.29 146.75,-279.29"/>
<text text-anchor="middle" x="113.62" y="-265.79" font-family="Helvetica,sans-Serif" font-size="10.00">editarTarefa</text>
</a>
</g>
</g>
<!-- Node2&#45;&gt;Node6 -->
<g id="edge6_Node000002_Node000006" class="edge">
<title>Node2&#45;&gt;Node6</title>
<g id="a_edge6_Node000002_Node000006"><a xlink:title=" ">
<path fill="none" stroke="#63b8ff" d="M339.11,-175.22C322.01,-185.08 299.19,-197.65 278.25,-207.29 233.28,-228.01 179.24,-247.48 145.91,-258.89"/>
<polygon fill="#63b8ff" stroke="#63b8ff" points="340.58,-177.83 347.46,-169.78 337.05,-171.79 340.58,-177.83"/>
</a>
</g>
</g>
<!-- Node7 -->
<g id="Node000007" class="node">
<title>Node7</title>
<g id="a_Node000007"><a xlink:href="../../d1/d13/class_quadro.html#a1d27dcd2c84b1742c7ebd4cb0f82a704" target="_top" xlink:title="Imprime as informações do quadro.">
<polygon fill="white" stroke="#666666" points="278.25,-198.29 190.25,-198.29 190.25,-178.29 278.25,-178.29 278.25,-198.29"/>
<text text-anchor="middle" x="234.25" y="-184.79" font-family="Helvetica,sans-Serif" font-size="10.00">Quadro::imprimir</text>
</a>
</g>
</g>
<!-- Node2&#45;&gt;Node7 -->
<g id="edge8_Node000002_Node000007" class="edge">
<title>Node2&#45;&gt;Node7</title>
<g id="a_edge8_Node000002_Node000007"><a xlink:title=" ">
<path fill="none" stroke="#63b8ff" d="M308.05,-172.13C298.1,-174.34 287.91,-176.6 278.43,-178.71"/>
<polygon fill="#63b8ff" stroke="#63b8ff" points="308.71,-175.35 317.72,-169.76 307.2,-168.51 308.71,-175.35"/>
</a>
</g>
</g>
<!-- Node9 -->
<g id="Node000009" class="node">
<title>Node9</title>
<g id="a_Node000009"><a xlink:href="../../df/d0a/main_8cpp.html#a2eddfb0aac0ba265acd5268ce3d8e919" target="_top" xlink:title="Move uma tarefa de uma coluna para outra no quadro KanBan.">
<polygon fill="white" stroke="#666666" points="150.12,-127.29 77.12,-127.29 77.12,-107.29 150.12,-107.29 150.12,-127.29"/>
<text text-anchor="middle" x="113.62" y="-113.79" font-family="Helvetica,sans-Serif" font-size="10.00">moverTarefas</text>
</a>
</g>
</g>
<!-- Node2&#45;&gt;Node9 -->
<g id="edge23_Node000002_Node000009" class="edge">
<title>Node2&#45;&gt;Node9</title>
<g id="a_edge23_Node000002_Node000009"><a xlink:title=" ">
<path fill="none" stroke="#63b8ff" d="M303.19,-148.81C254.99,-140.76 190.14,-129.92 150.41,-123.28"/>
<polygon fill="#63b8ff" stroke="#63b8ff" points="302.38,-152.4 312.82,-150.59 303.53,-145.49 302.38,-152.4"/>
</a>
</g>
</g>
<!-- Node10 -->
<g id="Node000010" class="node">
<title>Node10</title>
<g id="a_Node000010"><a xlink:href="../../df/d0a/main_8cpp.html#ac91dd762f55fe21f3a2226d59abff942" target="_top" xlink:title="Ordena as tarefas por prioridade usando o algoritmo Bubble Sort.">
<polygon fill="white" stroke="#666666" points="152.75,-89.29 74.5,-89.29 74.5,-69.29 152.75,-69.29 152.75,-89.29"/>
<text text-anchor="middle" x="113.62" y="-75.79" font-family="Helvetica,sans-Serif" font-size="10.00">ordenarColuna</text>
</a>
</g>
</g>
<!-- Node2&#45;&gt;Node10 -->
<g id="edge24_Node000002_Node000010" class="edge">
<title>Node2&#45;&gt;Node10</title>
<g id="a_edge24_Node000002_Node000010"><a xlink:title=" ">
<path fill="none" stroke="#63b8ff" d="M330.11,-145.08C314.32,-139 295.46,-132 278.25,-126.29 235.89,-112.26 186.57,-98.43 153.24,-89.44"/>
<polygon fill="#63b8ff" stroke="#63b8ff" points="328.41,-148.56 339,-148.92 330.94,-142.04 328.41,-148.56"/>
</a>
</g>
</g>
<!-- Node12 -->
<g id="Node000012" class="node">
<title>Node12</title>
<g id="a_Node000012"><a xlink:href="../../df/d0a/main_8cpp.html#aee02b44e62983f07d64c57db154c0467" target="_top" xlink:title="Remove uma tarefa de uma coluna no quadro KanBan.">
<polygon fill="white" stroke="#666666" points="151.62,-51.29 75.62,-51.29 75.62,-31.29 151.62,-31.29 151.62,-51.29"/>
<text text-anchor="middle" x="113.62" y="-37.79" font-family="Helvetica,sans-Serif" font-size="10.00">removerTarefa</text>
</a>
</g>
</g>
<!-- Node2&#45;&gt;Node12 -->
<g id="edge25_Node000002_Node000012" class="edge">
<title>Node2&#45;&gt;Node12</title>
<g id="a_edge25_Node000002_Node000012"><a xlink:title=" ">
<path fill="none" stroke="#63b8ff" d="M345.78,-142.16C328.71,-128.29 303.1,-109.03 278.25,-96.29 237.05,-75.17 185.98,-59.51 151.96,-50.41"/>
<polygon fill="#63b8ff" stroke="#63b8ff" points="342.94,-145.18 352.87,-148.86 347.4,-139.79 342.94,-145.18"/>
</a>
</g>
</g>
<!-- Node13 -->
<g id="Node000013" class="node">
<title>Node13</title>
<g id="a_Node000013"><a xlink:href="../../df/d0a/main_8cpp.html#a3a0d238b444da51e7f04f65f8d390fd0" target="_top" xlink:title="Salva o quadro KanBan em um arquivo.">
<polygon fill="white" stroke="#666666" points="270.38,-22.29 198.12,-22.29 198.12,-2.29 270.38,-2.29 270.38,-22.29"/>
<text text-anchor="middle" x="234.25" y="-8.79" font-family="Helvetica,sans-Serif" font-size="10.00">salvarQuadro</text>
</a>
</g>
</g>
<!-- Node2&#45;&gt;Node13 -->
<g id="edge26_Node000002_Node000013" class="edge">
<title>Node2&#45;&gt;Node13</title>
<g id="a_edge26_Node000002_Node000013"><a xlink:title=" ">
<path fill="none" stroke="#63b8ff" d="M355.35,-139.3C340.79,-113.09 312.41,-66.89 278.25,-36.29 272.39,-31.05 265.19,-26.47 258.37,-22.76"/>
<polygon fill="#63b8ff" stroke="#63b8ff" points="352.71,-140.77 360.56,-147.89 358.86,-137.43 352.71,-140.77"/>
</a>
</g>
</g>
<!-- Node4 -->
<g id="Node000004" class="node">
<title>Node4</title>
<g id="a_Node000004"><a xlink:href="../../df/d0a/main_8cpp.html#ae66f6b31b5ad750f1fe042a706a4e3d4" target="_top" xlink:title=" ">
<polygon fill="white" stroke="#666666" points="37,-184.29 0,-184.29 0,-164.29 37,-164.29 37,-184.29"/>
<text text-anchor="middle" x="18.5" y="-170.79" font-family="Helvetica,sans-Serif" font-size="10.00">main</text>
</a>
</g>
</g>
<!-- Node3&#45;&gt;Node4 -->
<g id="edge3_Node000003_Node000004" class="edge">
<title>Node3&#45;&gt;Node4</title>
<g id="a_edge3_Node000003_Node000004"><a xlink:title=" ">
<path fill="none" stroke="#63b8ff" d="M75.11,-328.45C74.37,-327.76 73.67,-327.04 73,-326.29 34.52,-283.39 23.33,-211.11 20.42,-184.51"/>
<polygon fill="#63b8ff" stroke="#63b8ff" points="72.76,-331.81 82.88,-334.93 76.92,-326.17 72.76,-331.81"/>
</a>
</g>
</g>
<!-- Node5&#45;&gt;Node4 -->
<g id="edge5_Node000005_Node000004" class="edge">
<title>Node5&#45;&gt;Node4</title>
<g id="a_edge5_Node000005_Node000004"><a xlink:title=" ">
<path fill="none" stroke="#63b8ff" d="M75.62,-290.72C74.71,-289.94 73.83,-289.13 73,-288.29 42.52,-257.56 27.18,-206.17 21.8,-184.46"/>
<polygon fill="#63b8ff" stroke="#63b8ff" points="73.36,-294.1 83.59,-296.88 77.33,-288.33 73.36,-294.1"/>
</a>
</g>
</g>
<!-- Node6&#45;&gt;Node4 -->
<g id="edge7_Node000006_Node000004" class="edge">
<title>Node6&#45;&gt;Node4</title>
<g id="a_edge7_Node000006_Node000004"><a xlink:title=" ">
<path fill="none" stroke="#63b8ff" d="M83.26,-253.27C79.65,-250.8 76.13,-248.13 73,-245.29 52.39,-226.67 34.31,-199.13 25.4,-184.43"/>
<polygon fill="#63b8ff" stroke="#63b8ff" points="80.93,-256.58 91.25,-258.95 84.66,-250.66 80.93,-256.58"/>
</a>
</g>
</g>
<!-- Node7&#45;&gt;Node3 -->
<g id="edge9_Node000007_Node000003" class="edge">
<title>Node7&#45;&gt;Node3</title>
<g id="a_edge9_Node000007_Node000003"><a xlink:title=" ">
<path fill="none" stroke="#63b8ff" d="M225.97,-209C214.7,-238.46 190.48,-292.61 154.25,-326.29 150.67,-329.62 146.41,-332.47 142.02,-334.87"/>
<polygon fill="#63b8ff" stroke="#63b8ff" points="229.6,-210.28 229.77,-199.68 223.03,-207.86 229.6,-210.28"/>
</a>
</g>
</g>
<!-- Node7&#45;&gt;Node4 -->
<g id="edge12_Node000007_Node000004" class="edge">
<title>Node7&#45;&gt;Node4</title>
<g id="a_edge12_Node000007_Node000004"><a xlink:title=" ">
<path fill="none" stroke="#63b8ff" d="M198.49,-202.4C165.53,-213.72 114.96,-225.68 73,-212.29 56.07,-206.89 39.91,-193.96 29.86,-184.69"/>
<polygon fill="#63b8ff" stroke="#63b8ff" points="199.31,-205.47 207.54,-198.79 196.94,-198.88 199.31,-205.47"/>
</a>
</g>
</g>
<!-- Node7&#45;&gt;Node5 -->
<g id="edge10_Node000007_Node000005" class="edge">
<title>Node7&#45;&gt;Node5</title>
<g id="a_edge10_Node000007_Node000005"><a xlink:title=" ">
<path fill="none" stroke="#63b8ff" d="M221.61,-207.93C207.82,-229.86 183.04,-265.27 154.25,-288.29 150.2,-291.53 145.5,-294.39 140.79,-296.85"/>
<polygon fill="#63b8ff" stroke="#63b8ff" points="225.07,-209.99 227.31,-199.64 219.1,-206.33 225.07,-209.99"/>
</a>
</g>
</g>
<!-- Node7&#45;&gt;Node6 -->
<g id="edge11_Node000007_Node000006" class="edge">
<title>Node7&#45;&gt;Node6</title>
<g id="a_edge11_Node000007_Node000006"><a xlink:title=" ">
<path fill="none" stroke="#63b8ff" d="M211.03,-205.06C195.38,-216.68 173.82,-232.34 154.25,-245.29 147.28,-249.91 139.43,-254.74 132.57,-258.84"/>
<polygon fill="#63b8ff" stroke="#63b8ff" points="212.59,-207.52 218.5,-198.73 208.4,-201.91 212.59,-207.52"/>
</a>
</g>
</g>
<!-- Node8 -->
<g id="Node000008" class="node">
<title>Node8</title>
<g id="a_Node000008"><a xlink:href="../../df/d0a/main_8cpp.html#a23877ef139dcc4300c8f74067c517d27" target="_top" xlink:title="Move uma coluna de uma posição para outra no quadro KanBan.">
<polygon fill="white" stroke="#666666" points="149.38,-203.29 77.88,-203.29 77.88,-183.29 149.38,-183.29 149.38,-203.29"/>
<text text-anchor="middle" x="113.62" y="-189.79" font-family="Helvetica,sans-Serif" font-size="10.00">moverColuna</text>
</a>
</g>
</g>
<!-- Node7&#45;&gt;Node8 -->
<g id="edge13_Node000007_Node000008" class="edge">
<title>Node7&#45;&gt;Node8</title>
<g id="a_edge13_Node000007_Node000008"><a xlink:title=" ">
<path fill="none" stroke="#63b8ff" d="M179.03,-190.58C169.03,-191 158.83,-191.43 149.58,-191.82"/>
<polygon fill="#63b8ff" stroke="#63b8ff" points="178.91,-194.05 188.75,-190.13 178.61,-187.05 178.91,-194.05"/>
</a>
</g>
</g>
<!-- Node7&#45;&gt;Node9 -->
<g id="edge15_Node000007_Node000009" class="edge">
<title>Node7&#45;&gt;Node9</title>
<g id="a_edge15_Node000007_Node000009"><a xlink:title=" ">
<path fill="none" stroke="#63b8ff" d="M209.91,-171.73C194.45,-161.07 173.54,-147.2 154.25,-136.29 148.94,-133.29 143.08,-130.31 137.53,-127.63"/>
<polygon fill="#63b8ff" stroke="#63b8ff" points="207.57,-175.06 217.77,-177.91 211.57,-169.32 207.57,-175.06"/>
</a>
</g>
</g>
<!-- Node7&#45;&gt;Node10 -->
<g id="edge17_Node000007_Node000010" class="edge">
<title>Node7&#45;&gt;Node10</title>
<g id="a_edge17_Node000007_Node000010"><a xlink:title=" ">
<path fill="none" stroke="#63b8ff" d="M220.09,-169.19C205.72,-149.44 181.16,-118.7 154.25,-98.29 149.99,-95.07 145.1,-92.18 140.24,-89.7"/>
<polygon fill="#63b8ff" stroke="#63b8ff" points="217.64,-170.78 226.28,-176.91 223.34,-166.73 217.64,-170.78"/>
</a>
</g>
</g>
<!-- Node11 -->
<g id="Node000011" class="node">
<title>Node11</title>
<g id="a_Node000011"><a xlink:href="../../df/d0a/main_8cpp.html#aaa15a96063fb4377e5ac1d46a68321c0" target="_top" xlink:title="Remove uma coluna do quadro KanBan.">
<polygon fill="white" stroke="#666666" points="153.5,-165.29 73.75,-165.29 73.75,-145.29 153.5,-145.29 153.5,-165.29"/>
<text text-anchor="middle" x="113.62" y="-151.79" font-family="Helvetica,sans-Serif" font-size="10.00">removerColuna</text>
</a>
</g>
</g>
<!-- Node7&#45;&gt;Node11 -->
<g id="edge19_Node000007_Node000011" class="edge">
<title>Node7&#45;&gt;Node11</title>
<g id="a_edge19_Node000007_Node000011"><a xlink:title=" ">
<path fill="none" stroke="#63b8ff" d="M185.38,-174.98C174.38,-171.92 162.83,-168.7 152.32,-165.78"/>
<polygon fill="#63b8ff" stroke="#63b8ff" points="184.14,-178.54 194.72,-177.85 186.02,-171.8 184.14,-178.54"/>
</a>
</g>
</g>
<!-- Node7&#45;&gt;Node12 -->
<g id="edge21_Node000007_Node000012" class="edge">
<title>Node7&#45;&gt;Node12</title>
<g id="a_edge21_Node000007_Node000012"><a xlink:title=" ">
<path fill="none" stroke="#63b8ff" d="M225.07,-167.92C213.13,-140.37 188.55,-91.14 154.25,-60.29 150.51,-56.93 146.06,-54.03 141.52,-51.59"/>
<polygon fill="#63b8ff" stroke="#63b8ff" points="222.19,-169.1 229.28,-176.97 228.65,-166.39 222.19,-169.1"/>
</a>
</g>
</g>
<!-- Node8&#45;&gt;Node4 -->
<g id="edge14_Node000008_Node000004" class="edge">
<title>Node8&#45;&gt;Node4</title>
<g id="a_edge14_Node000008_Node000004"><a xlink:title=" ">
<path fill="none" stroke="#63b8ff" d="M66.96,-183.98C56.4,-181.82 45.78,-179.66 37.27,-177.92"/>
<polygon fill="#63b8ff" stroke="#63b8ff" points="65.92,-187.54 76.42,-186.11 67.32,-180.68 65.92,-187.54"/>
</a>
</g>
</g>
<!-- Node9&#45;&gt;Node4 -->
<g id="edge16_Node000009_Node000004" class="edge">
<title>Node9&#45;&gt;Node4</title>
<g id="a_edge16_Node000009_Node000004"><a xlink:title=" ">
<path fill="none" stroke="#63b8ff" d="M79.47,-132.67C77.26,-133.85 75.08,-135.07 73,-136.29 58.67,-144.74 43.28,-155.91 32.71,-163.95"/>
<polygon fill="#63b8ff" stroke="#63b8ff" points="80.91,-135.35 88.23,-127.7 77.73,-129.11 80.91,-135.35"/>
</a>
</g>
</g>
<!-- Node10&#45;&gt;Node4 -->
<g id="edge18_Node000010_Node000004" class="edge">
<title>Node10&#45;&gt;Node4</title>
<g id="a_edge18_Node000010_Node000004"><a xlink:title=" ">
<path fill="none" stroke="#63b8ff" d="M76.78,-95.37C75.47,-96.3 74.2,-97.28 73,-98.29 50.46,-117.37 32.81,-148.01 24.57,-163.93"/>
<polygon fill="#63b8ff" stroke="#63b8ff" points="78.2,-97.99 84.9,-89.78 74.54,-92.02 78.2,-97.99"/>
</a>
</g>
</g>
<!-- Node11&#45;&gt;Node4 -->
<g id="edge20_Node000011_Node000004" class="edge">
<title>Node11&#45;&gt;Node4</title>
<g id="a_edge20_Node000011_Node000004"><a xlink:title=" ">
<path fill="none" stroke="#63b8ff" d="M62.74,-165.47C53.66,-167.32 44.74,-169.14 37.39,-170.64"/>
<polygon fill="#63b8ff" stroke="#63b8ff" points="63.3,-168.73 72.4,-163.3 61.9,-161.87 63.3,-168.73"/>
</a>
</g>
</g>
<!-- Node12&#45;&gt;Node4 -->
<g id="edge22_Node000012_Node000004" class="edge">
<title>Node12&#45;&gt;Node4</title>
<g id="a_edge22_Node000012_Node000004"><a xlink:title=" ">
<path fill="none" stroke="#63b8ff" d="M75.62,-57.87C74.71,-58.65 73.83,-59.45 73,-60.29 42.52,-91.03 27.18,-142.42 21.8,-164.12"/>
<polygon fill="#63b8ff" stroke="#63b8ff" points="77.33,-60.26 83.59,-51.7 73.36,-54.49 77.33,-60.26"/>
</a>
</g>
</g>
<!-- Node13&#45;&gt;Node4 -->
<g id="edge27_Node000013_Node000004" class="edge">
<title>Node13&#45;&gt;Node4</title>
<g id="a_edge27_Node000013_Node000004"><a xlink:title=" ">
<path fill="none" stroke="#63b8ff" d="M187.05,-2.54C152.26,2.05 105.2,2.05 73,-22.29 26.58,-57.39 20.28,-135.8 19.54,-163.97"/>
<polygon fill="#63b8ff" stroke="#63b8ff" points="186.48,-6.14 196.89,-4.17 187.52,0.78 186.48,-6.14"/>
</a>
</g>
</g>
</g>
</svg>

<g id="navigator" transform="translate(0 0)" fill="#404254">
  <rect fill="#f2f5e9" fill-opacity="0.5" stroke="#606060" stroke-width=".5" x="0" y="0" width="60" height="60"/>
  <use id="zoomplus" xlink:href="#zoomPlus" x="17" y="9" onmousedown="handleZoom(evt,'in')"/>
  <use id="zoomminus" xlink:href="#zoomMin" x="42" y="9" onmousedown="handleZoom(evt,'out')"/>
  <use id="reset" xlink:href="#resetDef" x="30" y="36" onmousedown="handleReset()"/>
   <use id="arrowup" xlink:href="#arrowUp" x="0" y="0" onmousedown="handlePan(0,-1)"/>
  <use id="arrowright" xlink:href="#arrowRight" x="0" y="0" onmousedown="handlePan(1,0)"/>
  <use id="arrowdown" xlink:href="#arrowDown" x="0" y="0" onmousedown="handlePan(0,1)"/>
  <use id="arrowleft" xlink:href="#arrowLeft" x="0" y="0" onmousedown="handlePan(-1,0)"/>
</g>
<svg viewBox="0 0 15 15" width="100%" height="30px" preserveAspectRatio="xMaxYMin meet">
 <g id="arrow_out" transform="scale(0.3 0.3)">
  <a xlink:href="class_lista_adb2dfb16eaf99f99fc1b39bf847af9bd_icgraph_org.svg" target="_base">
   <rect id="button" ry="5" rx="5" y="6" x="6" height="38" width="38"
        fill="#f2f5e9" fill-opacity="0.5" stroke="#606060" stroke-width="1.0"/>
   <path id="arrow"
     d="M 11.500037,31.436501 C 11.940474,20.09759 22.043105,11.32322 32.158766,21.979434 L 37.068811,17.246167 C 37.068811,17.246167 37.088388,32 37.088388,32 L 22.160133,31.978069 C 22.160133,31.978069 26.997745,27.140456 26.997745,27.140456 C 18.528582,18.264221 13.291696,25.230495 11.500037,31.436501 z"
     style="fill:#404040;"/>
  </a>
 </g>
</svg>

<style type='text/css'>
<![CDATA[
[data-mouse-over-selected='false'] { opacity: 0.7; }
[data-mouse-over-selected='true']  { opacity: 1.0; }
]]>
</style>
<script type="application/ecmascript"><![CDATA[
document.addEventListener('DOMContentLoaded', (event) => {
  highlightEdges();
  highlightAdjacentNodes();
});
]]></script>
</svg>
