<?xml version="1.0" encoding="UTF-8" standalone="no"?>
<!DOCTYPE svg PUBLIC "-//W3C//DTD SVG 1.1//EN"
 "http://www.w3.org/Graphics/SVG/1.1/DTD/svg11.dtd">
<!-- Generated by graphviz version 8.1.0 (20230707.0739)
 -->
<!-- Title: Lista::~Lista Pages: 1 -->
<svg width="419pt" height="47pt"
 viewBox="0.00 0.00 419.25 47.00" xmlns="http://www.w3.org/2000/svg" xmlns:xlink="http://www.w3.org/1999/xlink">
<g id="graph0" class="graph" transform="scale(1 1) rotate(0) translate(4 43)">
<title>Lista::~Lista</title>
<!-- Node1 -->
<g id="Node000001" class="node">
<title>Node1</title>
<g id="a_Node000001"><a xlink:title="Destrutor da classe Lista.">
<polygon fill="#999999" stroke="#666666" points="70,-20 0,-20 0,0 70,0 70,-20"/>
<text text-anchor="middle" x="35" y="-6.5" font-family="Helvetica,sans-Serif" font-size="10.00">Lista::~Lista</text>
</a>
</g>
</g>
<!-- Node2 -->
<g id="Node000002" class="node">
<title>Node2</title>
<g id="a_Node000002"><a xlink:href="../../db/dba/class_lista.html#a70571e70c4b7945cc9907e89431624c9" target="_top" xlink:title="Remove todos os nós da lista e libera a memória.">
<polygon fill="white" stroke="#666666" points="175.25,-20 106,-20 106,0 175.25,0 175.25,-20"/>
<text text-anchor="middle" x="140.62" y="-6.5" font-family="Helvetica,sans-Serif" font-size="10.00">Lista::limpar</text>
</a>
</g>
</g>
<!-- Node1&#45;&gt;Node2 -->
<g id="edge1_Node000001_Node000002" class="edge">
<title>Node1&#45;&gt;Node2</title>
<g id="a_edge1_Node000001_Node000002"><a xlink:title=" ">
<path fill="none" stroke="#63b8ff" d="M70.22,-10C78.17,-10 86.75,-10 95.07,-10"/>
<polygon fill="#63b8ff" stroke="#63b8ff" points="94.8,-13.5 104.8,-10 94.8,-6.5 94.8,-13.5"/>
</a>
</g>
</g>
<!-- Node3 -->
<g id="Node000003" class="node">
<title>Node3</title>
<g id="a_Node000003"><a xlink:href="../../db/dba/class_lista.html#a2ab09a2fd57a3adeec30cea8fd9e770d" target="_top" xlink:title="Remove a coluna do início da lista.">
<polygon fill="white" stroke="#666666" points="310.5,-39 211.25,-39 211.25,-19 310.5,-19 310.5,-39"/>
<text text-anchor="middle" x="260.88" y="-25.5" font-family="Helvetica,sans-Serif" font-size="10.00">Lista::removerInicio</text>
</a>
</g>
</g>
<!-- Node2&#45;&gt;Node3 -->
<g id="edge2_Node000002_Node000003" class="edge">
<title>Node2&#45;&gt;Node3</title>
<g id="a_edge2_Node000002_Node000003"><a xlink:title=" ">
<path fill="none" stroke="#63b8ff" d="M175.51,-15.44C183.28,-16.69 191.77,-18.06 200.28,-19.42"/>
<polygon fill="#63b8ff" stroke="#63b8ff" points="199.57,-23.02 210,-21.15 200.69,-16.11 199.57,-23.02"/>
</a>
</g>
</g>
<!-- Node4 -->
<g id="Node000004" class="node">
<title>Node4</title>
<g id="a_Node000004"><a xlink:href="../../db/dba/class_lista.html#a9a8529d0ea4e79cd6b7cd600e556d9f8" target="_top" xlink:title="Verifica se a lista está vazia.">
<polygon fill="white" stroke="#666666" points="411.25,-20 346.5,-20 346.5,0 411.25,0 411.25,-20"/>
<text text-anchor="middle" x="378.88" y="-6.5" font-family="Helvetica,sans-Serif" font-size="10.00">Lista::vazia</text>
</a>
</g>
</g>
<!-- Node2&#45;&gt;Node4 -->
<g id="edge4_Node000002_Node000004" class="edge">
<title>Node2&#45;&gt;Node4</title>
<g id="a_edge4_Node000002_Node000004"><a xlink:title=" ">
<path fill="none" stroke="#63b8ff" d="M175.73,-10C217.87,-10 289.6,-10 335.31,-10"/>
<polygon fill="#63b8ff" stroke="#63b8ff" points="335.06,-13.5 345.05,-10 335.05,-6.5 335.06,-13.5"/>
</a>
</g>
</g>
<!-- Node3&#45;&gt;Node4 -->
<g id="edge3_Node000003_Node000004" class="edge">
<title>Node3&#45;&gt;Node4</title>
<g id="a_edge3_Node000003_Node000004"><a xlink:title=" ">
<path fill="none" stroke="#63b8ff" d="M310.73,-21C318.99,-19.64 327.5,-18.25 335.58,-16.93"/>
<polygon fill="#63b8ff" stroke="#63b8ff" points="335.95,-20.25 345.25,-15.18 334.81,-13.34 335.95,-20.25"/>
</a>
</g>
</g>
</g>
</svg>
