<?xml version="1.0" encoding="UTF-8" standalone="no"?>
<!DOCTYPE svg PUBLIC "-//W3C//DTD SVG 1.1//EN"
 "http://www.w3.org/Graphics/SVG/1.1/DTD/svg11.dtd">
<!-- Generated by graphviz version 8.1.0 (20230707.0739)
 -->
<!-- Title: Lista::removerPorIndice Pages: 1 -->
<svg width="361pt" height="28pt"
 viewBox="0.00 0.00 361.25 28.00" xmlns="http://www.w3.org/2000/svg" xmlns:xlink="http://www.w3.org/1999/xlink">
<g id="graph0" class="graph" transform="scale(1 1) rotate(0) translate(4 24)">
<title>Lista::removerPorIndice</title>
<!-- Node1 -->
<g id="Node000001" class="node">
<title>Node1</title>
<g id="a_Node000001"><a xlink:title="Remove a coluna da lista pelo índice.">
<polygon fill="#999999" stroke="#666666" points="117.25,-20 0,-20 0,0 117.25,0 117.25,-20"/>
<text text-anchor="middle" x="58.62" y="-6.5" font-family="Helvetica,sans-Serif" font-size="10.00">Lista::removerPorIndice</text>
</a>
</g>
</g>
<!-- Node2 -->
<g id="Node000002" class="node">
<title>Node2</title>
<g id="a_Node000002"><a xlink:href="../../db/dba/class_lista.html#a2ab09a2fd57a3adeec30cea8fd9e770d" target="_top" xlink:title="Remove a coluna do início da lista.">
<polygon fill="white" stroke="#666666" points="252.5,-20 153.25,-20 153.25,0 252.5,0 252.5,-20"/>
<text text-anchor="middle" x="202.88" y="-6.5" font-family="Helvetica,sans-Serif" font-size="10.00">Lista::removerInicio</text>
</a>
</g>
</g>
<!-- Node1&#45;&gt;Node2 -->
<g id="edge1_Node000001_Node000002" class="edge">
<title>Node1&#45;&gt;Node2</title>
<g id="a_edge1_Node000001_Node000002"><a xlink:title=" ">
<path fill="none" stroke="#63b8ff" d="M117.48,-10C125.63,-10 134.01,-10 142.19,-10"/>
<polygon fill="#63b8ff" stroke="#63b8ff" points="142.17,-13.5 152.17,-10 142.17,-6.5 142.17,-13.5"/>
</a>
</g>
</g>
<!-- Node3 -->
<g id="Node000003" class="node">
<title>Node3</title>
<g id="a_Node000003"><a xlink:href="../../db/dba/class_lista.html#a9a8529d0ea4e79cd6b7cd600e556d9f8" target="_top" xlink:title="Verifica se a lista está vazia.">
<polygon fill="white" stroke="#666666" points="353.25,-20 288.5,-20 288.5,0 353.25,0 353.25,-20"/>
<text text-anchor="middle" x="320.88" y="-6.5" font-family="Helvetica,sans-Serif" font-size="10.00">Lista::vazia</text>
</a>
</g>
</g>
<!-- Node2&#45;&gt;Node3 -->
<g id="edge2_Node000002_Node000003" class="edge">
<title>Node2&#45;&gt;Node3</title>
<g id="a_edge2_Node000002_Node000003"><a xlink:title=" ">
<path fill="none" stroke="#63b8ff" d="M252.73,-10C260.9,-10 269.31,-10 277.3,-10"/>
<polygon fill="#63b8ff" stroke="#63b8ff" points="277.25,-13.5 287.25,-10 277.25,-6.5 277.25,-13.5"/>
</a>
</g>
</g>
</g>
</svg>
