<?xml version="1.0" encoding="UTF-8" standalone="no"?>
<!DOCTYPE svg PUBLIC "-//W3C//DTD SVG 1.1//EN"
 "http://www.w3.org/Graphics/SVG/1.1/DTD/svg11.dtd">
<!-- Generated by graphviz version 8.1.0 (20230707.0739)
 -->
<!-- Title: include/pessoa.hpp Pages: 1 -->
<svg width="246pt" height="376pt"
 viewBox="0.00 0.00 246.38 376.00" xmlns="http://www.w3.org/2000/svg" xmlns:xlink="http://www.w3.org/1999/xlink">
<g id="graph0" class="graph" transform="scale(1 1) rotate(0) translate(4 372)">
<title>include/pessoa.hpp</title>
<!-- Node1 -->
<g id="Node000001" class="node">
<title>Node1</title>
<g id="a_Node000001"><a xlink:title="Definição das classes Pessoa e Colaborador.">
<polygon fill="#999999" stroke="#666666" points="194.88,-368 94.88,-368 94.88,-348 194.88,-348 194.88,-368"/>
<text text-anchor="middle" x="144.88" y="-354.5" font-family="Helvetica,sans-Serif" font-size="10.00">include/pessoa.hpp</text>
</a>
</g>
</g>
<!-- Node2 -->
<g id="Node000002" class="node">
<title>Node2</title>
<g id="a_Node000002"><a xlink:href="../../d1/d1b/tarefa_8hpp.html" target="_top" xlink:title="Definição da classe Tarefa.">
<polygon fill="white" stroke="#666666" points="191.12,-312 98.62,-312 98.62,-292 191.12,-292 191.12,-312"/>
<text text-anchor="middle" x="144.88" y="-298.5" font-family="Helvetica,sans-Serif" font-size="10.00">include/tarefa.hpp</text>
</a>
</g>
</g>
<!-- Node1&#45;&gt;Node2 -->
<g id="edge1_Node000001_Node000002" class="edge">
<title>Node1&#45;&gt;Node2</title>
<g id="a_edge1_Node000001_Node000002"><a xlink:title=" ">
<path fill="none" stroke="#63b8ff" d="M144.88,-336.71C144.88,-328.32 144.88,-319.01 144.88,-312.3"/>
<polygon fill="#63b8ff" stroke="#63b8ff" points="141.38,-336.59 144.88,-346.59 148.38,-336.59 141.38,-336.59"/>
</a>
</g>
</g>
<!-- Node3 -->
<g id="Node000003" class="node">
<title>Node3</title>
<g id="a_Node000003"><a xlink:href="../../d1/d7b/lista_duplamente_encadeada_8hpp.html" target="_top" xlink:title="Define a classe ListaDupla e a classe No para implementar uma lista duplamente encadeada de tarefas d...">
<polygon fill="white" stroke="#666666" points="238.38,-256 51.38,-256 51.38,-236 238.38,-236 238.38,-256"/>
<text text-anchor="middle" x="144.88" y="-242.5" font-family="Helvetica,sans-Serif" font-size="10.00">include/listaDuplamenteEncadeada.hpp</text>
</a>
</g>
</g>
<!-- Node2&#45;&gt;Node3 -->
<g id="edge2_Node000002_Node000003" class="edge">
<title>Node2&#45;&gt;Node3</title>
<g id="a_edge2_Node000002_Node000003"><a xlink:title=" ">
<path fill="none" stroke="#63b8ff" d="M144.88,-280.71C144.88,-272.32 144.88,-263.01 144.88,-256.3"/>
<polygon fill="#63b8ff" stroke="#63b8ff" points="141.38,-280.59 144.88,-290.59 148.38,-280.59 141.38,-280.59"/>
</a>
</g>
</g>
<!-- Node4 -->
<g id="Node000004" class="node">
<title>Node4</title>
<g id="a_Node000004"><a xlink:href="../../da/d7b/colunas_8hpp.html" target="_top" xlink:title="Definição das classes Coluna, ColunaNomeada e ColunaArquivo.">
<polygon fill="white" stroke="#666666" points="150,-200 47.75,-200 47.75,-180 150,-180 150,-200"/>
<text text-anchor="middle" x="98.88" y="-186.5" font-family="Helvetica,sans-Serif" font-size="10.00">include/colunas.hpp</text>
</a>
</g>
</g>
<!-- Node3&#45;&gt;Node4 -->
<g id="edge3_Node000003_Node000004" class="edge">
<title>Node3&#45;&gt;Node4</title>
<g id="a_edge3_Node000003_Node000004"><a xlink:title=" ">
<path fill="none" stroke="#63b8ff" d="M129.79,-227.29C122.11,-218.28 113.1,-207.7 106.8,-200.3"/>
<polygon fill="#63b8ff" stroke="#63b8ff" points="127.71,-229.25 136.86,-234.59 133.04,-224.71 127.71,-229.25"/>
</a>
</g>
</g>
<!-- Node7 -->
<g id="Node000007" class="node">
<title>Node7</title>
<g id="a_Node000007"><a xlink:href="../../df/d0a/main_8cpp.html" target="_top" xlink:title="Sistema de Gerenciamento de Tarefas.">
<polygon fill="white" stroke="#666666" points="162,-20 89.75,-20 89.75,0 162,0 162,-20"/>
<text text-anchor="middle" x="125.88" y="-6.5" font-family="Helvetica,sans-Serif" font-size="10.00">src/main.cpp</text>
</a>
</g>
</g>
<!-- Node3&#45;&gt;Node7 -->
<g id="edge9_Node000003_Node000007" class="edge">
<title>Node3&#45;&gt;Node7</title>
<g id="a_edge9_Node000003_Node000007"><a xlink:title=" ">
<path fill="none" stroke="#63b8ff" d="M154.17,-225.63C165.42,-199.71 181.8,-152.34 172.88,-112 164.89,-75.93 142.66,-37.46 131.88,-20.25"/>
<polygon fill="#63b8ff" stroke="#63b8ff" points="150.58,-224.08 149.62,-234.63 156.95,-226.98 150.58,-224.08"/>
</a>
</g>
</g>
<!-- Node5 -->
<g id="Node000005" class="node">
<title>Node5</title>
<g id="a_Node000005"><a xlink:href="../../db/d5f/lista_simplesmente_encadeada_8hpp.html" target="_top" xlink:title="Define a classe Lista e a classe NoSimples para implementar uma lista simplesmente encadeada de colun...">
<polygon fill="white" stroke="#666666" points="163.88,-144 33.88,-144 33.88,-112 163.88,-112 163.88,-144"/>
<text text-anchor="start" x="41.88" y="-130.5" font-family="Helvetica,sans-Serif" font-size="10.00">include/listaSimplesmente</text>
<text text-anchor="middle" x="98.88" y="-118.5" font-family="Helvetica,sans-Serif" font-size="10.00">Encadeada.hpp</text>
</a>
</g>
</g>
<!-- Node4&#45;&gt;Node5 -->
<g id="edge4_Node000004_Node000005" class="edge">
<title>Node4&#45;&gt;Node5</title>
<g id="a_edge4_Node000004_Node000005"><a xlink:title=" ">
<path fill="none" stroke="#63b8ff" d="M98.88,-168.87C98.88,-160.79 98.88,-151.64 98.88,-144.14"/>
<polygon fill="#63b8ff" stroke="#63b8ff" points="95.38,-168.62 98.88,-178.62 102.38,-168.63 95.38,-168.62"/>
</a>
</g>
</g>
<!-- Node6 -->
<g id="Node000006" class="node">
<title>Node6</title>
<g id="a_Node000006"><a xlink:href="../../de/d9e/quadro_8hpp.html" target="_top" xlink:title="Define a classe Quadro para representar um quadro de tarefas.">
<polygon fill="white" stroke="#666666" points="97.75,-76 0,-76 0,-56 97.75,-56 97.75,-76"/>
<text text-anchor="middle" x="48.88" y="-62.5" font-family="Helvetica,sans-Serif" font-size="10.00">include/quadro.hpp</text>
</a>
</g>
</g>
<!-- Node4&#45;&gt;Node6 -->
<g id="edge8_Node000004_Node000006" class="edge">
<title>Node4&#45;&gt;Node6</title>
<g id="a_edge8_Node000004_Node000006"><a xlink:title=" ">
<path fill="none" stroke="#63b8ff" d="M60.25,-174.95C46.56,-167.88 32.64,-157.82 24.88,-144 12.11,-121.3 30.56,-90.94 41.61,-76.03"/>
<polygon fill="#63b8ff" stroke="#63b8ff" points="58.54,-178.48 69.08,-179.57 61.52,-172.15 58.54,-178.48"/>
</a>
</g>
</g>
<!-- Node5&#45;&gt;Node6 -->
<g id="edge5_Node000005_Node000006" class="edge">
<title>Node5&#45;&gt;Node6</title>
<g id="a_edge5_Node000005_Node000006"><a xlink:title=" ">
<path fill="none" stroke="#63b8ff" d="M79.1,-103.27C71.27,-93.87 62.72,-83.61 56.71,-76.41"/>
<polygon fill="#63b8ff" stroke="#63b8ff" points="76.91,-105.11 86,-110.55 82.29,-100.63 76.91,-105.11"/>
</a>
</g>
</g>
<!-- Node5&#45;&gt;Node7 -->
<g id="edge7_Node000005_Node000007" class="edge">
<title>Node5&#45;&gt;Node7</title>
<g id="a_edge7_Node000005_Node000007"><a xlink:title=" ">
<path fill="none" stroke="#63b8ff" d="M104.83,-101.41C110.78,-75.84 119.61,-37.91 123.68,-20.44"/>
<polygon fill="#63b8ff" stroke="#63b8ff" points="101.26,-100.3 102.4,-110.84 108.08,-101.89 101.26,-100.3"/>
</a>
</g>
</g>
<!-- Node6&#45;&gt;Node7 -->
<g id="edge6_Node000006_Node000007" class="edge">
<title>Node6&#45;&gt;Node7</title>
<g id="a_edge6_Node000006_Node000007"><a xlink:title=" ">
<path fill="none" stroke="#63b8ff" d="M70.92,-49.54C84.28,-40.17 100.91,-28.51 112.36,-20.48"/>
<polygon fill="#63b8ff" stroke="#63b8ff" points="69.47,-46.99 63.29,-55.59 73.48,-52.72 69.47,-46.99"/>
</a>
</g>
</g>
</g>
</svg>
