<?xml version="1.0" encoding="UTF-8" standalone="no"?>
<!DOCTYPE svg PUBLIC "-//W3C//DTD SVG 1.1//EN"
 "http://www.w3.org/Graphics/SVG/1.1/DTD/svg11.dtd">
<!-- Generated by graphviz version 8.1.0 (20230707.0739)
 -->
<!-- Title: ColunaArquivo Pages: 1 -->
<!--zoomable 700 -->

<svg id="main" version="1.1" xmlns="http://www.w3.org/2000/svg" xmlns:xlink="http://www.w3.org/1999/xlink" xml:space="preserve" onload="init(evt)">
<style type="text/css"><![CDATA[
.node, .edge {opacity: 0.7;}
.node.selected, .edge.selected {opacity: 1;}
.edge:hover path { stroke: red; }
.edge:hover polygon { stroke: red; fill: red; }
]]></style>

<defs>
  <circle id="rim" cx="0" cy="0" r="7"/>
  <circle id="rim2" cx="0" cy="0" r="3.5"/>
  <g id="zoomPlus">
    <use xlink:href="#rim" fill="#404040"><set attributeName="fill" to="#808080" begin="zoomplus.mouseover" end="zoomplus.mouseout"/></use>
    <path d="M-4,0h8M0,-4v8" fill="none" stroke="white" stroke-width="1.5" pointer-events="none"/>
  </g>
  <g id="zoomMin">
    <use xlink:href="#rim" fill="#404040"><set attributeName="fill" to="#808080" begin="zoomminus.mouseover" end="zoomminus.mouseout"/></use>
    <path d="M-4,0h8" fill="none" stroke="white" stroke-width="1.5" pointer-events="none"/>
  </g>
  <g id="arrowUp" transform="translate(30 24)">
    <use xlink:href="#rim"/>
    <path pointer-events="none" fill="none" stroke="white" stroke-width="1.5" d="M0,-3.0v7 M-2.5,-0.5L0,-3.0L2.5,-0.5"/>
  </g>
  <g id="arrowRight" transform="rotate(90) translate(36 -43)">
    <use xlink:href="#rim"/>
    <path pointer-events="none" fill="none" stroke="white" stroke-width="1.5" d="M0,-3.0v7 M-2.5,-0.5L0,-3.0L2.5,-0.5"/>
  </g>
  <g id="arrowDown" transform="rotate(180) translate(-30 -48)">
    <use xlink:href="#rim"/>
    <path pointer-events="none" fill="none" stroke="white" stroke-width="1.5" d="M0,-3.0v7 M-2.5,-0.5L0,-3.0L2.5,-0.5"/>
  </g>
  <g id="arrowLeft" transform="rotate(270) translate(-36 17)">
    <use xlink:href="#rim"/>
    <path pointer-events="none" fill="none" stroke="white" stroke-width="1.5" d="M0,-3.0v7 M-2.5,-0.5L0,-3.0L2.5,-0.5"/>
  </g>
  <g id="resetDef">
    <use xlink:href="#rim2" fill="#404040"><set attributeName="fill" to="#808080" begin="reset.mouseover" end="reset.mouseout"/></use>
  </g>
</defs>
<script type="application/ecmascript">
var viewWidth = 186;
var viewHeight = 700;
var sectionId = 'dynsection-0';
</script>
<script type="application/ecmascript" xlink:href="../../svg.min.js"/>
<svg id="graph" class="graph">
<g id="viewport">
<title>ColunaArquivo</title>
<!-- Node1 -->
<g id="Node000001" class="node">
<title>Node1</title>
<g id="a_Node000001"><a xlink:title="Classe que representa uma coluna de um quadro de tarefas do tipo &quot;Arquivo&quot;.">
<polygon fill="#999999" stroke="none" points="165.5,-344 12.5,-344 12.5,0 165.5,0 165.5,-344"/>
<text text-anchor="start" x="58.25" y="-330.5" font-family="Helvetica,sans-Serif" font-size="10.00">ColunaArquivo</text>
<text text-anchor="start" x="87.5" y="-314.5" font-family="Helvetica,sans-Serif" font-size="10.00"> </text>
<text text-anchor="start" x="16.5" y="-298.5" font-family="Helvetica,sans-Serif" font-size="10.00">+</text>
<text text-anchor="start" x="26.5" y="-298.5" font-family="Helvetica,sans-Serif" font-size="10.00">ColunaArquivo()</text>
<text text-anchor="start" x="16.5" y="-282.5" font-family="Helvetica,sans-Serif" font-size="10.00">+</text>
<text text-anchor="start" x="26.5" y="-282.5" font-family="Helvetica,sans-Serif" font-size="10.00">ColunaArquivo(string</text>
<text text-anchor="start" x="26.5" y="-270.5" font-family="Helvetica,sans-Serif" font-size="10.00"> n, string d)</text>
<text text-anchor="start" x="16.5" y="-254.5" font-family="Helvetica,sans-Serif" font-size="10.00">+</text>
<text text-anchor="start" x="26.5" y="-254.5" font-family="Helvetica,sans-Serif" font-size="10.00">~ColunaArquivo()</text>
<text text-anchor="start" x="16.5" y="-238.5" font-family="Helvetica,sans-Serif" font-size="10.00">+</text>
<text text-anchor="start" x="26.5" y="-238.5" font-family="Helvetica,sans-Serif" font-size="10.00">void inserirTarefa</text>
<text text-anchor="start" x="26.5" y="-226.5" font-family="Helvetica,sans-Serif" font-size="10.00">(Tarefa *t) override</text>
<text text-anchor="start" x="16.5" y="-210.5" font-family="Helvetica,sans-Serif" font-size="10.00">+</text>
<text text-anchor="start" x="26.5" y="-210.5" font-family="Helvetica,sans-Serif" font-size="10.00">void removerTarefa</text>
<text text-anchor="start" x="26.5" y="-198.5" font-family="Helvetica,sans-Serif" font-size="10.00">(int indice) override</text>
<text text-anchor="start" x="16.5" y="-182.5" font-family="Helvetica,sans-Serif" font-size="10.00">+</text>
<text text-anchor="start" x="26.5" y="-182.5" font-family="Helvetica,sans-Serif" font-size="10.00">Tarefa * obterTarefa</text>
<text text-anchor="start" x="26.5" y="-170.5" font-family="Helvetica,sans-Serif" font-size="10.00">(int indice) override</text>
<text text-anchor="start" x="16.5" y="-154.5" font-family="Helvetica,sans-Serif" font-size="10.00">+</text>
<text text-anchor="start" x="26.5" y="-154.5" font-family="Helvetica,sans-Serif" font-size="10.00">void moverTarefa(int</text>
<text text-anchor="start" x="26.5" y="-142.5" font-family="Helvetica,sans-Serif" font-size="10.00"> indice, Coluna *colunaDestino)</text>
<text text-anchor="start" x="26.5" y="-130.5" font-family="Helvetica,sans-Serif" font-size="10.00"> override</text>
<text text-anchor="start" x="16.5" y="-114.5" font-family="Helvetica,sans-Serif" font-size="10.00">+</text>
<text text-anchor="start" x="26.5" y="-114.5" font-family="Helvetica,sans-Serif" font-size="10.00">string getNome() override</text>
<text text-anchor="start" x="16.5" y="-98.5" font-family="Helvetica,sans-Serif" font-size="10.00">+</text>
<text text-anchor="start" x="26.5" y="-98.5" font-family="Helvetica,sans-Serif" font-size="10.00">string getDescricao()</text>
<text text-anchor="start" x="16.5" y="-82.5" font-family="Helvetica,sans-Serif" font-size="10.00">+</text>
<text text-anchor="start" x="26.5" y="-82.5" font-family="Helvetica,sans-Serif" font-size="10.00">void setNome(string n)</text>
<text text-anchor="start" x="16.5" y="-66.5" font-family="Helvetica,sans-Serif" font-size="10.00">+</text>
<text text-anchor="start" x="26.5" y="-66.5" font-family="Helvetica,sans-Serif" font-size="10.00">void setDescricao(string d)</text>
<text text-anchor="start" x="16.5" y="-50.5" font-family="Helvetica,sans-Serif" font-size="10.00">+</text>
<text text-anchor="start" x="26.5" y="-50.5" font-family="Helvetica,sans-Serif" font-size="10.00">int getTamanho()</text>
<text text-anchor="start" x="16.5" y="-34.5" font-family="Helvetica,sans-Serif" font-size="10.00">+</text>
<text text-anchor="start" x="26.5" y="-34.5" font-family="Helvetica,sans-Serif" font-size="10.00">void imprimir() const</text>
<text text-anchor="start" x="26.5" y="-22.5" font-family="Helvetica,sans-Serif" font-size="10.00"> override</text>
<text text-anchor="start" x="16.5" y="-6.5" font-family="Helvetica,sans-Serif" font-size="10.00">+</text>
<text text-anchor="start" x="26.5" y="-6.5" font-family="Helvetica,sans-Serif" font-size="10.00">void ordenar()</text>
<polygon fill="#666666" stroke="#666666" points="12.5,-326 12.5,-326 165.5,-326 165.5,-326 12.5,-326"/>
<polygon fill="#666666" stroke="#666666" points="12.5,-310 12.5,-310 165.5,-310 165.5,-310 12.5,-310"/>
<polygon fill="none" stroke="#666666" points="12.5,0 12.5,-344 165.5,-344 165.5,0 12.5,0"/>
</a>
</g>
</g>
<!-- Node2 -->
<g id="Node000002" class="node">
<title>Node2</title>
<g id="a_Node000002"><a xlink:href="../../d3/d3c/class_coluna.html" target="_top" xlink:title="Classe abstrata que representa uma coluna de um quadro de tarefas.">
<polygon fill="white" stroke="none" points="178,-692 0,-692 0,-380 178,-380 178,-692"/>
<text text-anchor="start" x="74" y="-678.5" font-family="Helvetica,sans-Serif" font-size="10.00">Coluna</text>
<text text-anchor="start" x="4.38" y="-662.5" font-family="Helvetica,sans-Serif" font-size="10.00">#</text>
<text text-anchor="start" x="14" y="-662.5" font-family="Helvetica,sans-Serif" font-size="10.00">ListaDupla lista</text>
<text text-anchor="start" x="4" y="-646.5" font-family="Helvetica,sans-Serif" font-size="10.00">+</text>
<text text-anchor="start" x="14" y="-646.5" font-family="Helvetica,sans-Serif" font-size="10.00">virtual ~Coluna()</text>
<text text-anchor="start" x="4" y="-630.5" font-family="Helvetica,sans-Serif" font-size="10.00">+</text>
<text text-anchor="start" x="14" y="-630.5" font-family="Helvetica,sans-Serif" font-size="10.00">virtual void inserirTarefa</text>
<text text-anchor="start" x="14" y="-618.5" font-family="Helvetica,sans-Serif" font-size="10.00">(Tarefa *t)=0</text>
<text text-anchor="start" x="4" y="-602.5" font-family="Helvetica,sans-Serif" font-size="10.00">+</text>
<text text-anchor="start" x="14" y="-602.5" font-family="Helvetica,sans-Serif" font-size="10.00">virtual void removerTarefa</text>
<text text-anchor="start" x="14" y="-590.5" font-family="Helvetica,sans-Serif" font-size="10.00">(int indice)=0</text>
<text text-anchor="start" x="4" y="-574.5" font-family="Helvetica,sans-Serif" font-size="10.00">+</text>
<text text-anchor="start" x="14" y="-574.5" font-family="Helvetica,sans-Serif" font-size="10.00">virtual void imprimir</text>
<text text-anchor="start" x="14" y="-562.5" font-family="Helvetica,sans-Serif" font-size="10.00">() const =0</text>
<text text-anchor="start" x="4" y="-546.5" font-family="Helvetica,sans-Serif" font-size="10.00">+</text>
<text text-anchor="start" x="14" y="-546.5" font-family="Helvetica,sans-Serif" font-size="10.00">virtual void moverTarefa</text>
<text text-anchor="start" x="14" y="-534.5" font-family="Helvetica,sans-Serif" font-size="10.00">(int indice, Coluna *colunaDestino)=0</text>
<text text-anchor="start" x="4" y="-518.5" font-family="Helvetica,sans-Serif" font-size="10.00">+</text>
<text text-anchor="start" x="14" y="-518.5" font-family="Helvetica,sans-Serif" font-size="10.00">virtual Tarefa * obterTarefa</text>
<text text-anchor="start" x="14" y="-506.5" font-family="Helvetica,sans-Serif" font-size="10.00">(int indice)=0</text>
<text text-anchor="start" x="4" y="-490.5" font-family="Helvetica,sans-Serif" font-size="10.00">+</text>
<text text-anchor="start" x="14" y="-490.5" font-family="Helvetica,sans-Serif" font-size="10.00">virtual int getTamanho()=0</text>
<text text-anchor="start" x="4" y="-474.5" font-family="Helvetica,sans-Serif" font-size="10.00">+</text>
<text text-anchor="start" x="14" y="-474.5" font-family="Helvetica,sans-Serif" font-size="10.00">virtual string getNome()=0</text>
<text text-anchor="start" x="4" y="-458.5" font-family="Helvetica,sans-Serif" font-size="10.00">+</text>
<text text-anchor="start" x="14" y="-458.5" font-family="Helvetica,sans-Serif" font-size="10.00">virtual string getDescricao()=0</text>
<text text-anchor="start" x="4" y="-442.5" font-family="Helvetica,sans-Serif" font-size="10.00">+</text>
<text text-anchor="start" x="14" y="-442.5" font-family="Helvetica,sans-Serif" font-size="10.00">virtual void setNome</text>
<text text-anchor="start" x="14" y="-430.5" font-family="Helvetica,sans-Serif" font-size="10.00">(string n)=0</text>
<text text-anchor="start" x="4" y="-414.5" font-family="Helvetica,sans-Serif" font-size="10.00">+</text>
<text text-anchor="start" x="14" y="-414.5" font-family="Helvetica,sans-Serif" font-size="10.00">virtual void setDescricao</text>
<text text-anchor="start" x="14" y="-402.5" font-family="Helvetica,sans-Serif" font-size="10.00">(string d)=0</text>
<text text-anchor="start" x="4" y="-386.5" font-family="Helvetica,sans-Serif" font-size="10.00">+</text>
<text text-anchor="start" x="14" y="-386.5" font-family="Helvetica,sans-Serif" font-size="10.00">virtual void ordenar()=0</text>
<polygon fill="#666666" stroke="#666666" points="0,-674 0,-674 178,-674 178,-674 0,-674"/>
<polygon fill="#666666" stroke="#666666" points="0,-658 0,-658 12,-658 12,-658 0,-658"/>
<polygon fill="#666666" stroke="#666666" points="12,-658 12,-658 178,-658 178,-658 12,-658"/>
<polygon fill="none" stroke="#666666" points="0,-380 0,-692 178,-692 178,-380 0,-380"/>
</a>
</g>
</g>
<!-- Node2&#45;&gt;Node1 -->
<g id="edge1_Node000001_Node000002" class="edge">
<title>Node2&#45;&gt;Node1</title>
<g id="a_edge1_Node000001_Node000002"><a xlink:title=" ">
<path fill="none" stroke="#63b8ff" d="M89,-369.44C89,-360.95 89,-352.41 89,-343.91"/>
<polygon fill="none" stroke="#63b8ff" points="85.5,-369.17 89,-379.17 92.5,-369.17 85.5,-369.17"/>
</a>
</g>
</g>
</g>
</svg>

<g id="navigator" transform="translate(0 0)" fill="#404254">
  <rect fill="#f2f5e9" fill-opacity="0.5" stroke="#606060" stroke-width=".5" x="0" y="0" width="60" height="60"/>
  <use id="zoomplus" xlink:href="#zoomPlus" x="17" y="9" onmousedown="handleZoom(evt,'in')"/>
  <use id="zoomminus" xlink:href="#zoomMin" x="42" y="9" onmousedown="handleZoom(evt,'out')"/>
  <use id="reset" xlink:href="#resetDef" x="30" y="36" onmousedown="handleReset()"/>
   <use id="arrowup" xlink:href="#arrowUp" x="0" y="0" onmousedown="handlePan(0,-1)"/>
  <use id="arrowright" xlink:href="#arrowRight" x="0" y="0" onmousedown="handlePan(1,0)"/>
  <use id="arrowdown" xlink:href="#arrowDown" x="0" y="0" onmousedown="handlePan(0,1)"/>
  <use id="arrowleft" xlink:href="#arrowLeft" x="0" y="0" onmousedown="handlePan(-1,0)"/>
</g>
<svg viewBox="0 0 15 15" width="100%" height="30px" preserveAspectRatio="xMaxYMin meet">
 <g id="arrow_out" transform="scale(0.3 0.3)">
  <a xlink:href="class_coluna_arquivo__inherit__graph_org.svg" target="_base">
   <rect id="button" ry="5" rx="5" y="6" x="6" height="38" width="38"
        fill="#f2f5e9" fill-opacity="0.5" stroke="#606060" stroke-width="1.0"/>
   <path id="arrow"
     d="M 11.500037,31.436501 C 11.940474,20.09759 22.043105,11.32322 32.158766,21.979434 L 37.068811,17.246167 C 37.068811,17.246167 37.088388,32 37.088388,32 L 22.160133,31.978069 C 22.160133,31.978069 26.997745,27.140456 26.997745,27.140456 C 18.528582,18.264221 13.291696,25.230495 11.500037,31.436501 z"
     style="fill:#404040;"/>
  </a>
 </g>
</svg>

<style type='text/css'>
<![CDATA[
[data-mouse-over-selected='false'] { opacity: 0.7; }
[data-mouse-over-selected='true']  { opacity: 1.0; }
]]>
</style>
<script type="application/ecmascript"><![CDATA[
document.addEventListener('DOMContentLoaded', (event) => {
  highlightEdges();
  highlightAdjacentNodes();
});
]]></script>
</svg>
