<?xml version="1.0" encoding="UTF-8" standalone="no"?>
<!DOCTYPE svg PUBLIC "-//W3C//DTD SVG 1.1//EN"
 "http://www.w3.org/Graphics/SVG/1.1/DTD/svg11.dtd">
<!-- Generated by graphviz version 8.1.0 (20230707.0739)
 -->
<!-- Title: include/pessoa.hpp Pages: 1 -->
<svg width="120pt" height="84pt"
 viewBox="0.00 0.00 119.75 84.00" xmlns="http://www.w3.org/2000/svg" xmlns:xlink="http://www.w3.org/1999/xlink">
<g id="graph0" class="graph" transform="scale(1 1) rotate(0) translate(4 80)">
<title>include/pessoa.hpp</title>
<!-- Node1 -->
<g id="Node000001" class="node">
<title>Node1</title>
<g id="a_Node000001"><a xlink:title="Definição das classes Pessoa e Colaborador.">
<polygon fill="#999999" stroke="#666666" points="108.75,-76 8.75,-76 8.75,-56 108.75,-56 108.75,-76"/>
<text text-anchor="middle" x="58.75" y="-62.5" font-family="Helvetica,sans-Serif" font-size="10.00">include/pessoa.hpp</text>
</a>
</g>
</g>
<!-- Node2 -->
<g id="Node000002" class="node">
<title>Node2</title>
<g id="a_Node000002"><a xlink:title=" ">
<polygon fill="#e0e0e0" stroke="#999999" points="53.5,-20 0,-20 0,0 53.5,0 53.5,-20"/>
<text text-anchor="middle" x="26.75" y="-6.5" font-family="Helvetica,sans-Serif" font-size="10.00">iostream</text>
</a>
</g>
</g>
<!-- Node1&#45;&gt;Node2 -->
<g id="edge1_Node000001_Node000002" class="edge">
<title>Node1&#45;&gt;Node2</title>
<g id="a_edge1_Node000001_Node000002"><a xlink:title=" ">
<path fill="none" stroke="#63b8ff" d="M53.18,-55.59C48.95,-48.47 43.02,-38.45 37.84,-29.72"/>
<polygon fill="#63b8ff" stroke="#63b8ff" points="40.37,-28.12 32.26,-21.3 34.35,-31.69 40.37,-28.12"/>
</a>
</g>
</g>
<!-- Node3 -->
<g id="Node000003" class="node">
<title>Node3</title>
<g id="a_Node000003"><a xlink:title=" ">
<polygon fill="#e0e0e0" stroke="#999999" points="111.75,-20 71.75,-20 71.75,0 111.75,0 111.75,-20"/>
<text text-anchor="middle" x="91.75" y="-6.5" font-family="Helvetica,sans-Serif" font-size="10.00">string</text>
</a>
</g>
</g>
<!-- Node1&#45;&gt;Node3 -->
<g id="edge2_Node000001_Node000003" class="edge">
<title>Node1&#45;&gt;Node3</title>
<g id="a_edge2_Node000001_Node000003"><a xlink:title=" ">
<path fill="none" stroke="#63b8ff" d="M64.5,-55.59C68.9,-48.39 75.11,-38.23 80.49,-29.43"/>
<polygon fill="#63b8ff" stroke="#63b8ff" points="83.84,-31.66 86.07,-21.3 77.87,-28.01 83.84,-31.66"/>
</a>
</g>
</g>
</g>
</svg>
