<?xml version="1.0" encoding="UTF-8" standalone="no"?>
<!DOCTYPE svg PUBLIC "-//W3C//DTD SVG 1.1//EN"
 "http://www.w3.org/Graphics/SVG/1.1/DTD/svg11.dtd">
<!-- Generated by graphviz version 8.1.0 (20230707.0739)
 -->
<!-- Title: Colaborador::getID Pages: 1 -->
<svg width="328pt" height="66pt"
 viewBox="0.00 0.00 327.50 66.00" xmlns="http://www.w3.org/2000/svg" xmlns:xlink="http://www.w3.org/1999/xlink">
<g id="graph0" class="graph" transform="scale(1 1) rotate(0) translate(4 62)">
<title>Colaborador::getID</title>
<!-- Node1 -->
<g id="Node000001" class="node">
<title>Node1</title>
<g id="a_Node000001"><a xlink:title="Obtém o ID único do colaborador.">
<polygon fill="#999999" stroke="#666666" points="319.5,-39 223.25,-39 223.25,-19 319.5,-19 319.5,-39"/>
<text text-anchor="middle" x="271.38" y="-25.5" font-family="Helvetica,sans-Serif" font-size="10.00">Colaborador::getID</text>
</a>
</g>
</g>
<!-- Node2 -->
<g id="Node000002" class="node">
<title>Node2</title>
<g id="a_Node000002"><a xlink:href="../../dd/d5a/structcomparador.html#a0f1c3caa70f876d714be220cb699fe70" target="_top" xlink:title="Operador de comparação para ordenar os colaboradores por ID.">
<polygon fill="white" stroke="#666666" points="187.25,-58 73,-58 73,-38 187.25,-38 187.25,-58"/>
<text text-anchor="middle" x="130.12" y="-44.5" font-family="Helvetica,sans-Serif" font-size="10.00">comparador::operator()</text>
</a>
</g>
</g>
<!-- Node1&#45;&gt;Node2 -->
<g id="edge1_Node000001_Node000002" class="edge">
<title>Node1&#45;&gt;Node2</title>
<g id="a_edge1_Node000001_Node000002"><a xlink:title=" ">
<path fill="none" stroke="#63b8ff" d="M211.99,-36.97C203.91,-38.07 195.62,-39.2 187.58,-40.3"/>
<polygon fill="#63b8ff" stroke="#63b8ff" points="212.41,-40.31 221.84,-35.49 211.46,-33.37 212.41,-40.31"/>
</a>
</g>
</g>
<!-- Node3 -->
<g id="Node000003" class="node">
<title>Node3</title>
<g id="a_Node000003"><a xlink:href="../../df/d0a/main_8cpp.html#a3a0d238b444da51e7f04f65f8d390fd0" target="_top" xlink:title="Salva o quadro KanBan em um arquivo.">
<polygon fill="white" stroke="#666666" points="166.25,-20 94,-20 94,0 166.25,0 166.25,-20"/>
<text text-anchor="middle" x="130.12" y="-6.5" font-family="Helvetica,sans-Serif" font-size="10.00">salvarQuadro</text>
</a>
</g>
</g>
<!-- Node1&#45;&gt;Node3 -->
<g id="edge2_Node000001_Node000003" class="edge">
<title>Node1&#45;&gt;Node3</title>
<g id="a_edge2_Node000001_Node000003"><a xlink:title=" ">
<path fill="none" stroke="#63b8ff" d="M212.27,-21.07C196.76,-18.96 180.46,-16.73 166.57,-14.84"/>
<polygon fill="#63b8ff" stroke="#63b8ff" points="211.46,-24.63 221.84,-22.51 212.41,-17.69 211.46,-24.63"/>
</a>
</g>
</g>
<!-- Node4 -->
<g id="Node000004" class="node">
<title>Node4</title>
<g id="a_Node000004"><a xlink:href="../../df/d0a/main_8cpp.html#ae66f6b31b5ad750f1fe042a706a4e3d4" target="_top" xlink:title=" ">
<polygon fill="white" stroke="#666666" points="37,-20 0,-20 0,0 37,0 37,-20"/>
<text text-anchor="middle" x="18.5" y="-6.5" font-family="Helvetica,sans-Serif" font-size="10.00">main</text>
</a>
</g>
</g>
<!-- Node3&#45;&gt;Node4 -->
<g id="edge3_Node000003_Node000004" class="edge">
<title>Node3&#45;&gt;Node4</title>
<g id="a_edge3_Node000003_Node000004"><a xlink:title=" ">
<path fill="none" stroke="#63b8ff" d="M82.69,-10C66.7,-10 49.74,-10 37.42,-10"/>
<polygon fill="#63b8ff" stroke="#63b8ff" points="82.53,-13.5 92.53,-10 82.53,-6.5 82.53,-13.5"/>
</a>
</g>
</g>
</g>
</svg>
