<?xml version="1.0" encoding="UTF-8" standalone="no"?>
<!DOCTYPE svg PUBLIC "-//W3C//DTD SVG 1.1//EN"
 "http://www.w3.org/Graphics/SVG/1.1/DTD/svg11.dtd">
<!-- Generated by graphviz version 8.1.0 (20230707.0739)
 -->
<!-- Title: Colaborador Pages: 1 -->
<svg width="135pt" height="493pt"
 viewBox="0.00 0.00 135.00 493.00" xmlns="http://www.w3.org/2000/svg" xmlns:xlink="http://www.w3.org/1999/xlink">
<g id="graph0" class="graph" transform="scale(1 1) rotate(0) translate(4 489)">
<title>Colaborador</title>
<!-- Node1 -->
<g id="Node000001" class="node">
<title>Node1</title>
<g id="a_Node000001"><a xlink:title="Classe que representa um Colaborador, derivada da classe Pessoa.">
<polygon fill="#999999" stroke="none" points="126.5,-188 0.5,-188 0.5,0 126.5,0 126.5,-188"/>
<text text-anchor="start" x="37.62" y="-174.5" font-family="Helvetica,sans-Serif" font-size="10.00">Colaborador</text>
<text text-anchor="start" x="62" y="-158.5" font-family="Helvetica,sans-Serif" font-size="10.00"> </text>
<text text-anchor="start" x="4.5" y="-142.5" font-family="Helvetica,sans-Serif" font-size="10.00">+</text>
<text text-anchor="start" x="14.5" y="-142.5" font-family="Helvetica,sans-Serif" font-size="10.00">Colaborador()</text>
<text text-anchor="start" x="4.5" y="-126.5" font-family="Helvetica,sans-Serif" font-size="10.00">+</text>
<text text-anchor="start" x="14.5" y="-126.5" font-family="Helvetica,sans-Serif" font-size="10.00">Colaborador(string</text>
<text text-anchor="start" x="14.5" y="-114.5" font-family="Helvetica,sans-Serif" font-size="10.00"> n, string c, string f)</text>
<text text-anchor="start" x="4.5" y="-98.5" font-family="Helvetica,sans-Serif" font-size="10.00">+</text>
<text text-anchor="start" x="14.5" y="-98.5" font-family="Helvetica,sans-Serif" font-size="10.00">~Colaborador()</text>
<text text-anchor="start" x="4.5" y="-82.5" font-family="Helvetica,sans-Serif" font-size="10.00">+</text>
<text text-anchor="start" x="14.5" y="-82.5" font-family="Helvetica,sans-Serif" font-size="10.00">void setFuncao(string f)</text>
<text text-anchor="start" x="4.5" y="-66.5" font-family="Helvetica,sans-Serif" font-size="10.00">+</text>
<text text-anchor="start" x="14.5" y="-66.5" font-family="Helvetica,sans-Serif" font-size="10.00">void setTarefasAtribuidas</text>
<text text-anchor="start" x="14.5" y="-54.5" font-family="Helvetica,sans-Serif" font-size="10.00">(int t)</text>
<text text-anchor="start" x="4.5" y="-38.5" font-family="Helvetica,sans-Serif" font-size="10.00">+</text>
<text text-anchor="start" x="14.5" y="-38.5" font-family="Helvetica,sans-Serif" font-size="10.00">string getFuncao()</text>
<text text-anchor="start" x="4.5" y="-22.5" font-family="Helvetica,sans-Serif" font-size="10.00">+</text>
<text text-anchor="start" x="14.5" y="-22.5" font-family="Helvetica,sans-Serif" font-size="10.00">int getTarefasAtribuidas()</text>
<text text-anchor="start" x="4.5" y="-6.5" font-family="Helvetica,sans-Serif" font-size="10.00">+</text>
<text text-anchor="start" x="14.5" y="-6.5" font-family="Helvetica,sans-Serif" font-size="10.00">int getID()</text>
<polygon fill="#666666" stroke="#666666" points="0.5,-170 0.5,-170 126.5,-170 126.5,-170 0.5,-170"/>
<polygon fill="#666666" stroke="#666666" points="0.5,-154 0.5,-154 126.5,-154 126.5,-154 0.5,-154"/>
<polygon fill="none" stroke="#666666" points="0.5,0 0.5,-188 126.5,-188 126.5,0 0.5,0"/>
</a>
</g>
</g>
<!-- Node2 -->
<g id="Node000002" class="node">
<title>Node2</title>
<g id="a_Node000002"><a xlink:href="../../d5/d57/class_pessoa.html" target="_top" xlink:title="Classe base que representa uma Pessoa.">
<polygon fill="white" stroke="none" points="127,-373 0,-373 0,-225 127,-225 127,-373"/>
<text text-anchor="start" x="47" y="-359.5" font-family="Helvetica,sans-Serif" font-size="10.00">Pessoa</text>
<text text-anchor="start" x="62" y="-343.5" font-family="Helvetica,sans-Serif" font-size="10.00"> </text>
<text text-anchor="start" x="4" y="-327.5" font-family="Helvetica,sans-Serif" font-size="10.00">+</text>
<text text-anchor="start" x="14" y="-327.5" font-family="Helvetica,sans-Serif" font-size="10.00">Pessoa()</text>
<text text-anchor="start" x="4" y="-311.5" font-family="Helvetica,sans-Serif" font-size="10.00">+</text>
<text text-anchor="start" x="14" y="-311.5" font-family="Helvetica,sans-Serif" font-size="10.00">Pessoa(string n, string c)</text>
<text text-anchor="start" x="4" y="-295.5" font-family="Helvetica,sans-Serif" font-size="10.00">+</text>
<text text-anchor="start" x="14" y="-295.5" font-family="Helvetica,sans-Serif" font-size="10.00">~Pessoa()</text>
<text text-anchor="start" x="4" y="-279.5" font-family="Helvetica,sans-Serif" font-size="10.00">+</text>
<text text-anchor="start" x="14" y="-279.5" font-family="Helvetica,sans-Serif" font-size="10.00">void setNome(string n)</text>
<text text-anchor="start" x="4" y="-263.5" font-family="Helvetica,sans-Serif" font-size="10.00">+</text>
<text text-anchor="start" x="14" y="-263.5" font-family="Helvetica,sans-Serif" font-size="10.00">void setContato(string c)</text>
<text text-anchor="start" x="4" y="-247.5" font-family="Helvetica,sans-Serif" font-size="10.00">+</text>
<text text-anchor="start" x="14" y="-247.5" font-family="Helvetica,sans-Serif" font-size="10.00">string getNome()</text>
<text text-anchor="start" x="4" y="-231.5" font-family="Helvetica,sans-Serif" font-size="10.00">+</text>
<text text-anchor="start" x="14" y="-231.5" font-family="Helvetica,sans-Serif" font-size="10.00">string getContato()</text>
<polygon fill="#666666" stroke="#666666" points="0,-355 0,-355 127,-355 127,-355 0,-355"/>
<polygon fill="#666666" stroke="#666666" points="0,-339 0,-339 127,-339 127,-339 0,-339"/>
<polygon fill="none" stroke="#666666" points="0,-225 0,-373 127,-373 127,-225 0,-225"/>
</a>
</g>
</g>
<!-- Node2&#45;&gt;Node1 -->
<g id="edge1_Node000001_Node000002" class="edge">
<title>Node2&#45;&gt;Node1</title>
<g id="a_edge1_Node000001_Node000002"><a xlink:title=" ">
<path fill="none" stroke="#63b8ff" d="M63.5,-214.31C63.5,-205.54 63.5,-196.6 63.5,-187.74"/>
<polygon fill="none" stroke="#63b8ff" points="60,-214.29 63.5,-224.29 67,-214.29 60,-214.29"/>
</a>
</g>
</g>
<!-- Node3 -->
<g id="Node000003" class="node">
<title>Node3</title>
<g id="a_Node000003"><a xlink:title=" ">
<polygon fill="white" stroke="none" points="80.5,-485 46.5,-485 46.5,-433 80.5,-433 80.5,-485"/>
<text text-anchor="start" x="51.5" y="-471.5" font-family="Helvetica,sans-Serif" font-size="10.00">string</text>
<text text-anchor="start" x="62" y="-455.5" font-family="Helvetica,sans-Serif" font-size="10.00"> </text>
<text text-anchor="start" x="62" y="-439.5" font-family="Helvetica,sans-Serif" font-size="10.00"> </text>
<polygon fill="#666666" stroke="#666666" points="46.5,-467 46.5,-467 80.5,-467 80.5,-467 46.5,-467"/>
<polygon fill="#666666" stroke="#666666" points="46.5,-451 46.5,-451 80.5,-451 80.5,-451 46.5,-451"/>
<polygon fill="none" stroke="#666666" points="46.5,-433 46.5,-485 80.5,-485 80.5,-433 46.5,-433"/>
</a>
</g>
</g>
<!-- Node3&#45;&gt;Node2 -->
<g id="edge2_Node000002_Node000003" class="edge">
<title>Node3&#45;&gt;Node2</title>
<g id="a_edge2_Node000002_Node000003"><a xlink:title=" ">
<path fill="none" stroke="#63b8ff" d="M63.5,-433.31C63.5,-420.25 63.5,-403.34 63.5,-385.98"/>
<polygon fill="none" stroke="#63b8ff" points="63.5,-385.89 59.5,-379.89 63.5,-373.89 67.5,-379.89 63.5,-385.89"/>
</a>
</g>
<text text-anchor="middle" x="83.75" y="-405.5" font-family="Helvetica,sans-Serif" font-size="10.00" fill="grey"> #contato</text>
<text text-anchor="middle" x="83.75" y="-393.5" font-family="Helvetica,sans-Serif" font-size="10.00" fill="grey">#nome</text>
</g>
</g>
</svg>
