<?xml version="1.0" encoding="UTF-8" standalone="no"?>
<!DOCTYPE svg PUBLIC "-//W3C//DTD SVG 1.1//EN"
 "http://www.w3.org/Graphics/SVG/1.1/DTD/svg11.dtd">
<!-- Generated by graphviz version 8.1.0 (20230707.0739)
 -->
<!-- Title: No::setAnterior Pages: 1 -->
<svg width="655pt" height="337pt"
 viewBox="0.00 0.00 654.75 337.39" xmlns="http://www.w3.org/2000/svg" xmlns:xlink="http://www.w3.org/1999/xlink">
<g id="graph0" class="graph" transform="scale(1 1) rotate(0) translate(4 333.39)">
<title>No::setAnterior</title>
<!-- Node1 -->
<g id="Node000001" class="node">
<title>Node1</title>
<g id="a_Node000001"><a xlink:title="Define o nó anterior.">
<polygon fill="#999999" stroke="#666666" points="646.75,-172 565.5,-172 565.5,-152 646.75,-152 646.75,-172"/>
<text text-anchor="middle" x="606.12" y="-158.5" font-family="Helvetica,sans-Serif" font-size="10.00">No::setAnterior</text>
</a>
</g>
</g>
<!-- Node2 -->
<g id="Node000002" class="node">
<title>Node2</title>
<g id="a_Node000002"><a xlink:href="../../dd/d91/class_lista_dupla.html#a997a8daa9fb1ccea46c233558ade8b4b" target="_top" xlink:title="Insere uma tarefa no fim da lista.">
<polygon fill="white" stroke="#666666" points="505.5,-248 395,-248 395,-228 505.5,-228 505.5,-248"/>
<text text-anchor="middle" x="450.25" y="-234.5" font-family="Helvetica,sans-Serif" font-size="10.00">ListaDupla::inserirFim</text>
</a>
</g>
</g>
<!-- Node1&#45;&gt;Node2 -->
<g id="edge1_Node000001_Node000002" class="edge">
<title>Node1&#45;&gt;Node2</title>
<g id="a_edge1_Node000001_Node000002"><a xlink:title=" ">
<path fill="none" stroke="#63b8ff" d="M586.18,-179.78C571.69,-192.47 550.67,-208.98 529.5,-219 522.04,-222.53 513.87,-225.44 505.7,-227.83"/>
<polygon fill="#63b8ff" stroke="#63b8ff" points="588.21,-182.77 593.3,-173.48 583.52,-177.57 588.21,-182.77"/>
</a>
</g>
</g>
<!-- Node3 -->
<g id="Node000003" class="node">
<title>Node3</title>
<g id="a_Node000003"><a xlink:href="../../dd/d91/class_lista_dupla.html#a8c0235db1d94b2dcbd4d22fec5645ac3" target="_top" xlink:title="Insere uma tarefa na lista pelo índice.">
<polygon fill="white" stroke="#666666" points="329.38,-324 194.88,-324 194.88,-304 329.38,-304 329.38,-324"/>
<text text-anchor="middle" x="262.12" y="-310.5" font-family="Helvetica,sans-Serif" font-size="10.00">ListaDupla::inserirPorIndice</text>
</a>
</g>
</g>
<!-- Node1&#45;&gt;Node3 -->
<g id="edge7_Node000001_Node000003" class="edge">
<title>Node1&#45;&gt;Node3</title>
<g id="a_edge7_Node000001_Node000003"><a xlink:title=" ">
<path fill="none" stroke="#63b8ff" d="M600.04,-182.56C591.31,-213.01 570.34,-269.25 529.5,-295 466.16,-334.93 376.72,-332.04 319.33,-324.47"/>
<polygon fill="#63b8ff" stroke="#63b8ff" points="603.59,-183.84 602.8,-173.27 596.83,-182.03 603.59,-183.84"/>
</a>
</g>
</g>
<!-- Node6 -->
<g id="Node000006" class="node">
<title>Node6</title>
<g id="a_Node000006"><a xlink:href="../../dd/d91/class_lista_dupla.html#af02559c4c5c8265c8db861300cf598d8" target="_top" xlink:title="Insere uma tarefa no início da lista.">
<polygon fill="white" stroke="#666666" points="508.5,-286 392,-286 392,-266 508.5,-266 508.5,-286"/>
<text text-anchor="middle" x="450.25" y="-272.5" font-family="Helvetica,sans-Serif" font-size="10.00">ListaDupla::inserirInicio</text>
</a>
</g>
</g>
<!-- Node1&#45;&gt;Node6 -->
<g id="edge5_Node000001_Node000006" class="edge">
<title>Node1&#45;&gt;Node6</title>
<g id="a_edge5_Node000001_Node000006"><a xlink:title=" ">
<path fill="none" stroke="#63b8ff" d="M594.56,-182.04C582,-203.87 558.97,-238.18 529.5,-257 523.14,-261.06 515.98,-264.26 508.64,-266.77"/>
<polygon fill="#63b8ff" stroke="#63b8ff" points="598.09,-183.89 599.87,-173.45 591.96,-180.5 598.09,-183.89"/>
</a>
</g>
</g>
<!-- Node7 -->
<g id="Node000007" class="node">
<title>Node7</title>
<g id="a_Node000007"><a xlink:href="../../dd/d91/class_lista_dupla.html#a924380dcc218b78c4de0e0accc80e012" target="_top" xlink:title="Remove a tarefa da lista, mas mantém o nó na lista sem referência à tarefa.">
<polygon fill="white" stroke="#666666" points="507,-210 393.5,-210 393.5,-190 507,-190 507,-210"/>
<text text-anchor="middle" x="450.25" y="-196.5" font-family="Helvetica,sans-Serif" font-size="10.00">ListaDupla::lightDelete</text>
</a>
</g>
</g>
<!-- Node1&#45;&gt;Node7 -->
<g id="edge8_Node000001_Node000007" class="edge">
<title>Node1&#45;&gt;Node7</title>
<g id="a_edge8_Node000001_Node000007"><a xlink:title=" ">
<path fill="none" stroke="#63b8ff" d="M554.65,-174.74C546.25,-176.84 537.63,-178.99 529.5,-181 518.24,-183.78 506.05,-186.76 494.72,-189.51"/>
<polygon fill="#63b8ff" stroke="#63b8ff" points="555.26,-177.95 564.11,-172.12 553.56,-171.16 555.26,-177.95"/>
</a>
</g>
</g>
<!-- Node10 -->
<g id="Node000010" class="node">
<title>Node10</title>
<g id="a_Node000010"><a xlink:href="../../dd/d91/class_lista_dupla.html#a5c057b40433f1dda8d221809c13c2619" target="_top" xlink:title="Construtor padrão da classe ListaDupla.">
<polygon fill="white" stroke="#666666" points="507,-172 393.5,-172 393.5,-152 507,-152 507,-172"/>
<text text-anchor="middle" x="450.25" y="-158.5" font-family="Helvetica,sans-Serif" font-size="10.00">ListaDupla::ListaDupla</text>
</a>
</g>
</g>
<!-- Node1&#45;&gt;Node10 -->
<g id="edge11_Node000001_Node000010" class="edge">
<title>Node1&#45;&gt;Node10</title>
<g id="a_edge11_Node000001_Node000010"><a xlink:title=" ">
<path fill="none" stroke="#63b8ff" d="M554.42,-162C539.33,-162 522.71,-162 507.29,-162"/>
<polygon fill="#63b8ff" stroke="#63b8ff" points="554.1,-165.5 564.1,-162 554.1,-158.5 554.1,-165.5"/>
</a>
</g>
</g>
<!-- Node11 -->
<g id="Node000011" class="node">
<title>Node11</title>
<g id="a_Node000011"><a xlink:href="../../dd/d91/class_lista_dupla.html#a0da08b292785498fc7bb358a84bed282" target="_top" xlink:title="Ordena a lista de tarefas por prioridade.">
<polygon fill="white" stroke="#666666" points="529.5,-134 371,-134 371,-114 529.5,-114 529.5,-134"/>
<text text-anchor="middle" x="450.25" y="-120.5" font-family="Helvetica,sans-Serif" font-size="10.00">ListaDupla::ordenarPorPrioridade</text>
</a>
</g>
</g>
<!-- Node1&#45;&gt;Node11 -->
<g id="edge12_Node000001_Node000011" class="edge">
<title>Node1&#45;&gt;Node11</title>
<g id="a_edge12_Node000001_Node000011"><a xlink:title=" ">
<path fill="none" stroke="#63b8ff" d="M554.65,-149.26C546.25,-147.16 537.63,-145.01 529.5,-143 518.24,-140.22 506.05,-137.24 494.72,-134.49"/>
<polygon fill="#63b8ff" stroke="#63b8ff" points="553.56,-152.84 564.11,-151.88 555.26,-146.05 553.56,-152.84"/>
</a>
</g>
</g>
<!-- Node14 -->
<g id="Node000014" class="node">
<title>Node14</title>
<g id="a_Node000014"><a xlink:href="../../dd/d91/class_lista_dupla.html#a0ec55e77494913e1041f772fb5abf176" target="_top" xlink:title="Remove a tarefa do fim da lista.">
<polygon fill="white" stroke="#666666" points="509.25,-96 391.25,-96 391.25,-76 509.25,-76 509.25,-96"/>
<text text-anchor="middle" x="450.25" y="-82.5" font-family="Helvetica,sans-Serif" font-size="10.00">ListaDupla::removerFim</text>
</a>
</g>
</g>
<!-- Node1&#45;&gt;Node14 -->
<g id="edge15_Node000001_Node000014" class="edge">
<title>Node1&#45;&gt;Node14</title>
<g id="a_edge15_Node000001_Node000014"><a xlink:title=" ">
<path fill="none" stroke="#63b8ff" d="M586.18,-144.22C571.69,-131.53 550.67,-115.02 529.5,-105 522.3,-101.59 514.42,-98.76 506.53,-96.41"/>
<polygon fill="#63b8ff" stroke="#63b8ff" points="583.52,-146.43 593.3,-150.52 588.21,-141.23 583.52,-146.43"/>
</a>
</g>
</g>
<!-- Node15 -->
<g id="Node000015" class="node">
<title>Node15</title>
<g id="a_Node000015"><a xlink:href="../../dd/d91/class_lista_dupla.html#ab976735e9038a9bd590a764b2a832e45" target="_top" xlink:title="Remove a tarefa da lista pelo índice.">
<polygon fill="white" stroke="#666666" points="333.12,-58 191.12,-58 191.12,-38 333.12,-38 333.12,-58"/>
<text text-anchor="middle" x="262.12" y="-44.5" font-family="Helvetica,sans-Serif" font-size="10.00">ListaDupla::removerPorIndice</text>
</a>
</g>
</g>
<!-- Node1&#45;&gt;Node15 -->
<g id="edge23_Node000001_Node000015" class="edge">
<title>Node1&#45;&gt;Node15</title>
<g id="a_edge23_Node000001_Node000015"><a xlink:title=" ">
<path fill="none" stroke="#63b8ff" d="M595.64,-142.03C583.7,-119.41 560.9,-83.54 529.5,-67 469,-35.13 389.78,-33.68 333.51,-38.17"/>
<polygon fill="#63b8ff" stroke="#63b8ff" points="592.86,-143.29 600.48,-150.65 599.11,-140.15 592.86,-143.29"/>
</a>
</g>
</g>
<!-- Node18 -->
<g id="Node000018" class="node">
<title>Node18</title>
<g id="a_Node000018"><a xlink:href="../../dd/d91/class_lista_dupla.html#a6c0c785cb9c4a4a2fbe25beb370bd102" target="_top" xlink:title="Remove a tarefa do início da lista.">
<polygon fill="white" stroke="#666666" points="512.25,-20 388.25,-20 388.25,0 512.25,0 512.25,-20"/>
<text text-anchor="middle" x="450.25" y="-6.5" font-family="Helvetica,sans-Serif" font-size="10.00">ListaDupla::removerInicio</text>
</a>
</g>
</g>
<!-- Node1&#45;&gt;Node18 -->
<g id="edge19_Node000001_Node000018" class="edge">
<title>Node1&#45;&gt;Node18</title>
<g id="a_edge19_Node000001_Node000018"><a xlink:title=" ">
<path fill="none" stroke="#63b8ff" d="M598.31,-141.29C587.94,-112.95 565.49,-62.36 529.5,-34 522.13,-28.2 513.36,-23.79 504.41,-20.44"/>
<polygon fill="#63b8ff" stroke="#63b8ff" points="595.32,-142.34 601.92,-150.62 601.93,-140.03 595.32,-142.34"/>
</a>
</g>
</g>
<!-- Node2&#45;&gt;Node3 -->
<g id="edge2_Node000002_Node000003" class="edge">
<title>Node2&#45;&gt;Node3</title>
<g id="a_edge2_Node000002_Node000003"><a xlink:title=" ">
<path fill="none" stroke="#63b8ff" d="M384.33,-250.6C379.69,-252.45 375.2,-254.57 371,-257 350.87,-268.67 355.01,-283.13 335,-295 329.23,-298.42 322.83,-301.24 316.31,-303.56"/>
<polygon fill="#63b8ff" stroke="#63b8ff" points="385.37,-253.59 393.64,-246.96 383.05,-246.98 385.37,-253.59"/>
</a>
</g>
</g>
<!-- Node4 -->
<g id="Node000004" class="node">
<title>Node4</title>
<g id="a_Node000004"><a xlink:href="../../de/d1c/class_coluna_nomeada.html#a660583902ae4cacabf28e61edee5ccd4" target="_top" xlink:title="Insere uma tarefa na coluna.">
<polygon fill="white" stroke="#666666" points="335,-286 189.25,-286 189.25,-266 335,-266 335,-286"/>
<text text-anchor="middle" x="262.12" y="-272.5" font-family="Helvetica,sans-Serif" font-size="10.00">ColunaNomeada::inserirTarefa</text>
</a>
</g>
</g>
<!-- Node2&#45;&gt;Node4 -->
<g id="edge3_Node000002_Node000004" class="edge">
<title>Node2&#45;&gt;Node4</title>
<g id="a_edge3_Node000002_Node000004"><a xlink:title=" ">
<path fill="none" stroke="#63b8ff" d="M387.26,-250.66C363.58,-255.49 336.87,-260.94 314.31,-265.55"/>
<polygon fill="#63b8ff" stroke="#63b8ff" points="387.8,-253.91 396.9,-248.48 386.4,-247.06 387.8,-253.91"/>
</a>
</g>
</g>
<!-- Node5 -->
<g id="Node000005" class="node">
<title>Node5</title>
<g id="a_Node000005"><a xlink:href="../../d0/d4e/class_coluna_arquivo.html#aeb82024caaccd6083d0ea0447ec2ba7e" target="_top" xlink:title="Insere uma tarefa na coluna.">
<polygon fill="white" stroke="#666666" points="330.12,-248 194.12,-248 194.12,-228 330.12,-228 330.12,-248"/>
<text text-anchor="middle" x="262.12" y="-234.5" font-family="Helvetica,sans-Serif" font-size="10.00">ColunaArquivo::inserirTarefa</text>
</a>
</g>
</g>
<!-- Node2&#45;&gt;Node5 -->
<g id="edge4_Node000002_Node000005" class="edge">
<title>Node2&#45;&gt;Node5</title>
<g id="a_edge4_Node000002_Node000005"><a xlink:title=" ">
<path fill="none" stroke="#63b8ff" d="M384.09,-238C366.77,-238 348.03,-238 330.59,-238"/>
<polygon fill="#63b8ff" stroke="#63b8ff" points="383.66,-241.5 393.66,-238 383.66,-234.5 383.66,-241.5"/>
</a>
</g>
</g>
<!-- Node6&#45;&gt;Node3 -->
<g id="edge6_Node000006_Node000003" class="edge">
<title>Node6&#45;&gt;Node3</title>
<g id="a_edge6_Node000006_Node000003"><a xlink:title=" ">
<path fill="none" stroke="#63b8ff" d="M387.26,-288.66C363.58,-293.49 336.87,-298.94 314.31,-303.55"/>
<polygon fill="#63b8ff" stroke="#63b8ff" points="387.8,-291.91 396.9,-286.48 386.4,-285.06 387.8,-291.91"/>
</a>
</g>
</g>
<!-- Node8 -->
<g id="Node000008" class="node">
<title>Node8</title>
<g id="a_Node000008"><a xlink:href="../../de/d1c/class_coluna_nomeada.html#ab47ba7b160204e7001f88c06ec25a305" target="_top" xlink:title="Move uma tarefa de uma coluna para outra.">
<polygon fill="white" stroke="#666666" points="334.62,-210 189.62,-210 189.62,-190 334.62,-190 334.62,-210"/>
<text text-anchor="middle" x="262.12" y="-196.5" font-family="Helvetica,sans-Serif" font-size="10.00">ColunaNomeada::moverTarefa</text>
</a>
</g>
</g>
<!-- Node7&#45;&gt;Node8 -->
<g id="edge9_Node000007_Node000008" class="edge">
<title>Node7&#45;&gt;Node8</title>
<g id="a_edge9_Node000007_Node000008"><a xlink:title=" ">
<path fill="none" stroke="#63b8ff" d="M382.2,-200C366.86,-200 350.5,-200 334.97,-200"/>
<polygon fill="#63b8ff" stroke="#63b8ff" points="382.15,-203.5 392.15,-200 382.15,-196.5 382.15,-203.5"/>
</a>
</g>
</g>
<!-- Node9 -->
<g id="Node000009" class="node">
<title>Node9</title>
<g id="a_Node000009"><a xlink:href="../../d0/d4e/class_coluna_arquivo.html#ac4f7235fe2e8bbcdb959f5100d7c1bb7" target="_top" xlink:title="Move uma tarefa de uma coluna para outra.">
<polygon fill="white" stroke="#666666" points="329.75,-172 194.5,-172 194.5,-152 329.75,-152 329.75,-172"/>
<text text-anchor="middle" x="262.12" y="-158.5" font-family="Helvetica,sans-Serif" font-size="10.00">ColunaArquivo::moverTarefa</text>
</a>
</g>
</g>
<!-- Node7&#45;&gt;Node9 -->
<g id="edge10_Node000007_Node000009" class="edge">
<title>Node7&#45;&gt;Node9</title>
<g id="a_edge10_Node000007_Node000009"><a xlink:title=" ">
<path fill="none" stroke="#63b8ff" d="M387.26,-187.34C363.58,-182.51 336.87,-177.06 314.31,-172.45"/>
<polygon fill="#63b8ff" stroke="#63b8ff" points="386.4,-190.94 396.9,-189.52 387.8,-184.09 386.4,-190.94"/>
</a>
</g>
</g>
<!-- Node12 -->
<g id="Node000012" class="node">
<title>Node12</title>
<g id="a_Node000012"><a xlink:href="../../de/d1c/class_coluna_nomeada.html#a73e9583ff304eef0a61d772976dac074" target="_top" xlink:title="Ordena as tarefas da coluna por prioridade.">
<polygon fill="white" stroke="#666666" points="324.88,-134 199.38,-134 199.38,-114 324.88,-114 324.88,-134"/>
<text text-anchor="middle" x="262.12" y="-120.5" font-family="Helvetica,sans-Serif" font-size="10.00">ColunaNomeada::ordenar</text>
</a>
</g>
</g>
<!-- Node11&#45;&gt;Node12 -->
<g id="edge13_Node000011_Node000012" class="edge">
<title>Node11&#45;&gt;Node12</title>
<g id="a_edge13_Node000011_Node000012"><a xlink:title=" ">
<path fill="none" stroke="#63b8ff" d="M359.85,-124C348.11,-124 336.29,-124 325.14,-124"/>
<polygon fill="#63b8ff" stroke="#63b8ff" points="359.59,-127.5 369.59,-124 359.59,-120.5 359.59,-127.5"/>
</a>
</g>
</g>
<!-- Node13 -->
<g id="Node000013" class="node">
<title>Node13</title>
<g id="a_Node000013"><a xlink:href="../../d0/d4e/class_coluna_arquivo.html#af2122dc4d83288ec375515d4d16004a2" target="_top" xlink:title="Ordena as tarefas da coluna por prioridade.">
<polygon fill="white" stroke="#666666" points="320,-96 204.25,-96 204.25,-76 320,-76 320,-96"/>
<text text-anchor="middle" x="262.12" y="-82.5" font-family="Helvetica,sans-Serif" font-size="10.00">ColunaArquivo::ordenar</text>
</a>
</g>
</g>
<!-- Node11&#45;&gt;Node13 -->
<g id="edge14_Node000011_Node000013" class="edge">
<title>Node11&#45;&gt;Node13</title>
<g id="a_edge14_Node000011_Node000013"><a xlink:title=" ">
<path fill="none" stroke="#63b8ff" d="M387.26,-111.34C363.58,-106.51 336.87,-101.06 314.31,-96.45"/>
<polygon fill="#63b8ff" stroke="#63b8ff" points="386.4,-114.94 396.9,-113.52 387.8,-108.09 386.4,-114.94"/>
</a>
</g>
</g>
<!-- Node14&#45;&gt;Node15 -->
<g id="edge16_Node000014_Node000015" class="edge">
<title>Node14&#45;&gt;Node15</title>
<g id="a_edge16_Node000014_Node000015"><a xlink:title=" ">
<path fill="none" stroke="#63b8ff" d="M387.26,-73.34C363.58,-68.51 336.87,-63.06 314.31,-58.45"/>
<polygon fill="#63b8ff" stroke="#63b8ff" points="386.4,-76.94 396.9,-75.52 387.8,-70.09 386.4,-76.94"/>
</a>
</g>
</g>
<!-- Node16 -->
<g id="Node000016" class="node">
<title>Node16</title>
<g id="a_Node000016"><a xlink:href="../../de/d1c/class_coluna_nomeada.html#ad9f5dc15ca20616f353008e5a3aa27e3" target="_top" xlink:title="Remove uma tarefa da coluna.">
<polygon fill="white" stroke="#666666" points="153.25,-96 0,-96 0,-76 153.25,-76 153.25,-96"/>
<text text-anchor="middle" x="76.62" y="-82.5" font-family="Helvetica,sans-Serif" font-size="10.00">ColunaNomeada::removerTarefa</text>
</a>
</g>
</g>
<!-- Node15&#45;&gt;Node16 -->
<g id="edge17_Node000015_Node000016" class="edge">
<title>Node15&#45;&gt;Node16</title>
<g id="a_edge17_Node000015_Node000016"><a xlink:title=" ">
<path fill="none" stroke="#63b8ff" d="M200.01,-60.66C176.66,-65.49 150.33,-70.94 128.09,-75.55"/>
<polygon fill="#63b8ff" stroke="#63b8ff" points="200.41,-63.94 209.5,-58.48 199,-57.08 200.41,-63.94"/>
</a>
</g>
</g>
<!-- Node17 -->
<g id="Node000017" class="node">
<title>Node17</title>
<g id="a_Node000017"><a xlink:href="../../d0/d4e/class_coluna_arquivo.html#aae317988e21d9072edf5de1543085f14" target="_top" xlink:title="Remove uma tarefa da coluna.">
<polygon fill="white" stroke="#666666" points="148.38,-58 4.88,-58 4.88,-38 148.38,-38 148.38,-58"/>
<text text-anchor="middle" x="76.62" y="-44.5" font-family="Helvetica,sans-Serif" font-size="10.00">ColunaArquivo::removerTarefa</text>
</a>
</g>
</g>
<!-- Node15&#45;&gt;Node17 -->
<g id="edge18_Node000015_Node000017" class="edge">
<title>Node15&#45;&gt;Node17</title>
<g id="a_edge18_Node000015_Node000017"><a xlink:title=" ">
<path fill="none" stroke="#63b8ff" d="M179.96,-48C169.57,-48 158.99,-48 148.77,-48"/>
<polygon fill="#63b8ff" stroke="#63b8ff" points="179.7,-51.5 189.7,-48 179.7,-44.5 179.7,-51.5"/>
</a>
</g>
</g>
<!-- Node18&#45;&gt;Node15 -->
<g id="edge22_Node000018_Node000015" class="edge">
<title>Node18&#45;&gt;Node15</title>
<g id="a_edge22_Node000018_Node000015"><a xlink:title=" ">
<path fill="none" stroke="#63b8ff" d="M387.26,-22.66C363.58,-27.49 336.87,-32.94 314.31,-37.55"/>
<polygon fill="#63b8ff" stroke="#63b8ff" points="387.8,-25.91 396.9,-20.48 386.4,-19.06 387.8,-25.91"/>
</a>
</g>
</g>
<!-- Node19 -->
<g id="Node000019" class="node">
<title>Node19</title>
<g id="a_Node000019"><a xlink:href="../../dd/d91/class_lista_dupla.html#abfef1d092f78fb6862087097d809f1e7" target="_top" xlink:title="Remove todos os nós da lista e libera a memória.">
<polygon fill="white" stroke="#666666" points="309.12,-20 215.12,-20 215.12,0 309.12,0 309.12,-20"/>
<text text-anchor="middle" x="262.12" y="-6.5" font-family="Helvetica,sans-Serif" font-size="10.00">ListaDupla::limpar</text>
</a>
</g>
</g>
<!-- Node18&#45;&gt;Node19 -->
<g id="edge20_Node000018_Node000019" class="edge">
<title>Node18&#45;&gt;Node19</title>
<g id="a_edge20_Node000018_Node000019"><a xlink:title=" ">
<path fill="none" stroke="#63b8ff" d="M376.84,-10C354.19,-10 329.83,-10 309.48,-10"/>
<polygon fill="#63b8ff" stroke="#63b8ff" points="376.79,-13.5 386.79,-10 376.79,-6.5 376.79,-13.5"/>
</a>
</g>
</g>
<!-- Node20 -->
<g id="Node000020" class="node">
<title>Node20</title>
<g id="a_Node000020"><a xlink:href="../../dd/d91/class_lista_dupla.html#a63481f371df6767019c8705208067514" target="_top" xlink:title="Destrutor da classe ListaDupla.">
<polygon fill="white" stroke="#666666" points="136.38,-20 16.88,-20 16.88,0 136.38,0 136.38,-20"/>
<text text-anchor="middle" x="76.62" y="-6.5" font-family="Helvetica,sans-Serif" font-size="10.00">ListaDupla::~ListaDupla</text>
</a>
</g>
</g>
<!-- Node19&#45;&gt;Node20 -->
<g id="edge21_Node000019_Node000020" class="edge">
<title>Node19&#45;&gt;Node20</title>
<g id="a_edge21_Node000019_Node000020"><a xlink:title=" ">
<path fill="none" stroke="#63b8ff" d="M203.95,-10C182.59,-10 158.31,-10 136.78,-10"/>
<polygon fill="#63b8ff" stroke="#63b8ff" points="203.82,-13.5 213.82,-10 203.82,-6.5 203.82,-13.5"/>
</a>
</g>
</g>
</g>
</svg>
