<?xml version="1.0" encoding="UTF-8" standalone="no"?>
<!DOCTYPE svg PUBLIC "-//W3C//DTD SVG 1.1//EN"
 "http://www.w3.org/Graphics/SVG/1.1/DTD/svg11.dtd">
<!-- Generated by graphviz version 8.1.0 (20230707.0739)
 -->
<!-- Title: No::getTarefa Pages: 1 -->
<svg width="647pt" height="370pt"
 viewBox="0.00 0.00 646.50 370.00" xmlns="http://www.w3.org/2000/svg" xmlns:xlink="http://www.w3.org/1999/xlink">
<g id="graph0" class="graph" transform="scale(1 1) rotate(0) translate(4 366)">
<title>No::getTarefa</title>
<!-- Node1 -->
<g id="Node000001" class="node">
<title>Node1</title>
<g id="a_Node000001"><a xlink:title="Obtém a tarefa armazenada no nó.">
<polygon fill="#999999" stroke="#666666" points="638.5,-96 564.75,-96 564.75,-76 638.5,-76 638.5,-96"/>
<text text-anchor="middle" x="601.62" y="-82.5" font-family="Helvetica,sans-Serif" font-size="10.00">No::getTarefa</text>
</a>
</g>
</g>
<!-- Node2 -->
<g id="Node000002" class="node">
<title>Node2</title>
<g id="a_Node000002"><a xlink:href="../../dd/d91/class_lista_dupla.html#a837ec6a1d28dbddd64b2028372f846c3" target="_top" xlink:title="Obtém a tarefa da lista pelo índice.">
<polygon fill="white" stroke="#666666" points="514.5,-248 384.5,-248 384.5,-228 514.5,-228 514.5,-248"/>
<text text-anchor="middle" x="449.5" y="-234.5" font-family="Helvetica,sans-Serif" font-size="10.00">ListaDupla::obterPorIndice</text>
</a>
</g>
</g>
<!-- Node1&#45;&gt;Node2 -->
<g id="edge1_Node000001_Node000002" class="edge">
<title>Node1&#45;&gt;Node2</title>
<g id="a_edge1_Node000001_Node000002"><a xlink:title=" ">
<path fill="none" stroke="#63b8ff" d="M582.62,-104.23C550.75,-136.49 485.45,-202.62 460.5,-227.88"/>
<polygon fill="#63b8ff" stroke="#63b8ff" points="584.77,-107.02 589.31,-97.45 579.79,-102.1 584.77,-107.02"/>
</a>
</g>
</g>
<!-- Node9 -->
<g id="Node000009" class="node">
<title>Node9</title>
<g id="a_Node000009"><a xlink:href="../../dd/d91/class_lista_dupla.html#a0da08b292785498fc7bb358a84bed282" target="_top" xlink:title="Ordena a lista de tarefas por prioridade.">
<polygon fill="white" stroke="#666666" points="528.75,-134 370.25,-134 370.25,-114 528.75,-114 528.75,-134"/>
<text text-anchor="middle" x="449.5" y="-120.5" font-family="Helvetica,sans-Serif" font-size="10.00">ListaDupla::ordenarPorPrioridade</text>
</a>
</g>
</g>
<!-- Node1&#45;&gt;Node9 -->
<g id="edge8_Node000001_Node000009" class="edge">
<title>Node1&#45;&gt;Node9</title>
<g id="a_edge8_Node000001_Node000009"><a xlink:title=" ">
<path fill="none" stroke="#63b8ff" d="M554.03,-98.46C545.62,-100.67 536.93,-102.93 528.75,-105 517.64,-107.82 505.62,-110.78 494.41,-113.5"/>
<polygon fill="#63b8ff" stroke="#63b8ff" points="554.69,-101.65 563.47,-95.71 552.9,-94.88 554.69,-101.65"/>
</a>
</g>
</g>
<!-- Node12 -->
<g id="Node000012" class="node">
<title>Node12</title>
<g id="a_Node000012"><a xlink:href="../../dd/d91/class_lista_dupla.html#a0ec55e77494913e1041f772fb5abf176" target="_top" xlink:title="Remove a tarefa do fim da lista.">
<polygon fill="white" stroke="#666666" points="508.5,-96 390.5,-96 390.5,-76 508.5,-76 508.5,-96"/>
<text text-anchor="middle" x="449.5" y="-82.5" font-family="Helvetica,sans-Serif" font-size="10.00">ListaDupla::removerFim</text>
</a>
</g>
</g>
<!-- Node1&#45;&gt;Node12 -->
<g id="edge11_Node000001_Node000012" class="edge">
<title>Node1&#45;&gt;Node12</title>
<g id="a_edge11_Node000001_Node000012"><a xlink:title=" ">
<path fill="none" stroke="#63b8ff" d="M553.32,-86C539.18,-86 523.51,-86 508.76,-86"/>
<polygon fill="#63b8ff" stroke="#63b8ff" points="553.28,-89.5 563.28,-86 553.28,-82.5 553.28,-89.5"/>
</a>
</g>
</g>
<!-- Node13 -->
<g id="Node000013" class="node">
<title>Node13</title>
<g id="a_Node000013"><a xlink:href="../../dd/d91/class_lista_dupla.html#ab976735e9038a9bd590a764b2a832e45" target="_top" xlink:title="Remove a tarefa da lista pelo índice.">
<polygon fill="white" stroke="#666666" points="332.75,-58 190.75,-58 190.75,-38 332.75,-38 332.75,-58"/>
<text text-anchor="middle" x="261.75" y="-44.5" font-family="Helvetica,sans-Serif" font-size="10.00">ListaDupla::removerPorIndice</text>
</a>
</g>
</g>
<!-- Node1&#45;&gt;Node13 -->
<g id="edge19_Node000001_Node000013" class="edge">
<title>Node1&#45;&gt;Node13</title>
<g id="a_edge19_Node000001_Node000013"><a xlink:title=" ">
<path fill="none" stroke="#63b8ff" d="M555.92,-72.8C546.99,-70.56 537.62,-68.48 528.75,-67 462.98,-56.06 387.04,-51.41 333.18,-49.44"/>
<polygon fill="#63b8ff" stroke="#63b8ff" points="554.98,-76.44 565.54,-75.59 556.76,-69.67 554.98,-76.44"/>
</a>
</g>
</g>
<!-- Node16 -->
<g id="Node000016" class="node">
<title>Node16</title>
<g id="a_Node000016"><a xlink:href="../../dd/d91/class_lista_dupla.html#a6c0c785cb9c4a4a2fbe25beb370bd102" target="_top" xlink:title="Remove a tarefa do início da lista.">
<polygon fill="white" stroke="#666666" points="511.5,-20 387.5,-20 387.5,0 511.5,0 511.5,-20"/>
<text text-anchor="middle" x="449.5" y="-6.5" font-family="Helvetica,sans-Serif" font-size="10.00">ListaDupla::removerInicio</text>
</a>
</g>
</g>
<!-- Node1&#45;&gt;Node16 -->
<g id="edge15_Node000001_Node000016" class="edge">
<title>Node1&#45;&gt;Node16</title>
<g id="a_edge15_Node000001_Node000016"><a xlink:title=" ">
<path fill="none" stroke="#63b8ff" d="M580.96,-69.03C567.12,-57.8 547.75,-43.46 528.75,-34 517.81,-28.55 505.39,-24.06 493.72,-20.49"/>
<polygon fill="#63b8ff" stroke="#63b8ff" points="578.27,-72.18 588.2,-75.88 582.74,-66.79 578.27,-72.18"/>
</a>
</g>
</g>
<!-- Node3 -->
<g id="Node000003" class="node">
<title>Node3</title>
<g id="a_Node000003"><a xlink:href="../../de/d1c/class_coluna_nomeada.html#ad0566fe1cc3fef87feeff8e76b74dffd" target="_top" xlink:title="Imprime as informações da coluna.">
<polygon fill="white" stroke="#666666" points="325.62,-362 197.88,-362 197.88,-342 325.62,-342 325.62,-362"/>
<text text-anchor="middle" x="261.75" y="-348.5" font-family="Helvetica,sans-Serif" font-size="10.00">ColunaNomeada::imprimir</text>
</a>
</g>
</g>
<!-- Node2&#45;&gt;Node3 -->
<g id="edge2_Node000002_Node000003" class="edge">
<title>Node2&#45;&gt;Node3</title>
<g id="a_edge2_Node000002_Node000003"><a xlink:title=" ">
<path fill="none" stroke="#63b8ff" d="M431.81,-256C410.98,-277.43 373.3,-312.83 334.25,-333 327.63,-336.42 320.34,-339.26 313.02,-341.62"/>
<polygon fill="#63b8ff" stroke="#63b8ff" points="433.81,-258.93 438.19,-249.28 428.75,-254.1 433.81,-258.93"/>
</a>
</g>
</g>
<!-- Node4 -->
<g id="Node000004" class="node">
<title>Node4</title>
<g id="a_Node000004"><a xlink:href="../../d0/d4e/class_coluna_arquivo.html#af89c858cfeb225706983f3e91090792f" target="_top" xlink:title="Imprime as informações da coluna.">
<polygon fill="white" stroke="#666666" points="320.75,-324 202.75,-324 202.75,-304 320.75,-304 320.75,-324"/>
<text text-anchor="middle" x="261.75" y="-310.5" font-family="Helvetica,sans-Serif" font-size="10.00">ColunaArquivo::imprimir</text>
</a>
</g>
</g>
<!-- Node2&#45;&gt;Node4 -->
<g id="edge3_Node000002_Node000004" class="edge">
<title>Node2&#45;&gt;Node4</title>
<g id="a_edge3_Node000002_Node000004"><a xlink:title=" ">
<path fill="none" stroke="#63b8ff" d="M421.08,-253.66C398.37,-266.15 364.96,-283.4 334.25,-295 325.84,-298.18 316.68,-301.04 307.82,-303.52"/>
<polygon fill="#63b8ff" stroke="#63b8ff" points="422.38,-256.39 429.42,-248.47 418.98,-250.27 422.38,-256.39"/>
</a>
</g>
</g>
<!-- Node5 -->
<g id="Node000005" class="node">
<title>Node5</title>
<g id="a_Node000005"><a xlink:href="../../de/d1c/class_coluna_nomeada.html#ab47ba7b160204e7001f88c06ec25a305" target="_top" xlink:title="Move uma tarefa de uma coluna para outra.">
<polygon fill="white" stroke="#666666" points="334.25,-286 189.25,-286 189.25,-266 334.25,-266 334.25,-286"/>
<text text-anchor="middle" x="261.75" y="-272.5" font-family="Helvetica,sans-Serif" font-size="10.00">ColunaNomeada::moverTarefa</text>
</a>
</g>
</g>
<!-- Node2&#45;&gt;Node5 -->
<g id="edge4_Node000002_Node000005" class="edge">
<title>Node2&#45;&gt;Node5</title>
<g id="a_edge4_Node000002_Node000005"><a xlink:title=" ">
<path fill="none" stroke="#63b8ff" d="M386.63,-250.66C363,-255.49 336.35,-260.94 313.83,-265.55"/>
<polygon fill="#63b8ff" stroke="#63b8ff" points="387.16,-253.92 396.25,-248.48 385.75,-247.06 387.16,-253.92"/>
</a>
</g>
</g>
<!-- Node6 -->
<g id="Node000006" class="node">
<title>Node6</title>
<g id="a_Node000006"><a xlink:href="../../d0/d4e/class_coluna_arquivo.html#ac4f7235fe2e8bbcdb959f5100d7c1bb7" target="_top" xlink:title="Move uma tarefa de uma coluna para outra.">
<polygon fill="white" stroke="#666666" points="329.38,-248 194.12,-248 194.12,-228 329.38,-228 329.38,-248"/>
<text text-anchor="middle" x="261.75" y="-234.5" font-family="Helvetica,sans-Serif" font-size="10.00">ColunaArquivo::moverTarefa</text>
</a>
</g>
</g>
<!-- Node2&#45;&gt;Node6 -->
<g id="edge5_Node000002_Node000006" class="edge">
<title>Node2&#45;&gt;Node6</title>
<g id="a_edge5_Node000002_Node000006"><a xlink:title=" ">
<path fill="none" stroke="#63b8ff" d="M373.17,-238C358.74,-238 343.74,-238 329.6,-238"/>
<polygon fill="#63b8ff" stroke="#63b8ff" points="373.05,-241.5 383.05,-238 373.05,-234.5 373.05,-241.5"/>
</a>
</g>
</g>
<!-- Node7 -->
<g id="Node000007" class="node">
<title>Node7</title>
<g id="a_Node000007"><a xlink:href="../../de/d1c/class_coluna_nomeada.html#a3f8cdd94b330161896b219720b7bc8e2" target="_top" xlink:title="Obtém uma tarefa da coluna pelo seu índice.">
<polygon fill="white" stroke="#666666" points="332.38,-210 191.12,-210 191.12,-190 332.38,-190 332.38,-210"/>
<text text-anchor="middle" x="261.75" y="-196.5" font-family="Helvetica,sans-Serif" font-size="10.00">ColunaNomeada::obterTarefa</text>
</a>
</g>
</g>
<!-- Node2&#45;&gt;Node7 -->
<g id="edge6_Node000002_Node000007" class="edge">
<title>Node2&#45;&gt;Node7</title>
<g id="a_edge6_Node000002_Node000007"><a xlink:title=" ">
<path fill="none" stroke="#63b8ff" d="M386.63,-225.34C363,-220.51 336.35,-215.06 313.83,-210.45"/>
<polygon fill="#63b8ff" stroke="#63b8ff" points="385.75,-228.94 396.25,-227.52 387.16,-222.08 385.75,-228.94"/>
</a>
</g>
</g>
<!-- Node8 -->
<g id="Node000008" class="node">
<title>Node8</title>
<g id="a_Node000008"><a xlink:href="../../d0/d4e/class_coluna_arquivo.html#abb1d729c65cf4680de28dd85fe20c737" target="_top" xlink:title="Obtém uma tarefa da coluna pelo seu índice.">
<polygon fill="white" stroke="#666666" points="327.5,-172 196,-172 196,-152 327.5,-152 327.5,-172"/>
<text text-anchor="middle" x="261.75" y="-158.5" font-family="Helvetica,sans-Serif" font-size="10.00">ColunaArquivo::obterTarefa</text>
</a>
</g>
</g>
<!-- Node2&#45;&gt;Node8 -->
<g id="edge7_Node000002_Node000008" class="edge">
<title>Node2&#45;&gt;Node8</title>
<g id="a_edge7_Node000002_Node000008"><a xlink:title=" ">
<path fill="none" stroke="#63b8ff" d="M421.08,-222.34C398.37,-209.85 364.96,-192.6 334.25,-181 325.84,-177.82 316.68,-174.96 307.82,-172.48"/>
<polygon fill="#63b8ff" stroke="#63b8ff" points="418.98,-225.73 429.42,-227.53 422.38,-219.61 418.98,-225.73"/>
</a>
</g>
</g>
<!-- Node10 -->
<g id="Node000010" class="node">
<title>Node10</title>
<g id="a_Node000010"><a xlink:href="../../de/d1c/class_coluna_nomeada.html#a73e9583ff304eef0a61d772976dac074" target="_top" xlink:title="Ordena as tarefas da coluna por prioridade.">
<polygon fill="white" stroke="#666666" points="324.5,-134 199,-134 199,-114 324.5,-114 324.5,-134"/>
<text text-anchor="middle" x="261.75" y="-120.5" font-family="Helvetica,sans-Serif" font-size="10.00">ColunaNomeada::ordenar</text>
</a>
</g>
</g>
<!-- Node9&#45;&gt;Node10 -->
<g id="edge9_Node000009_Node000010" class="edge">
<title>Node9&#45;&gt;Node10</title>
<g id="a_edge9_Node000009_Node000010"><a xlink:title=" ">
<path fill="none" stroke="#63b8ff" d="M359.35,-124C347.71,-124 335.99,-124 324.93,-124"/>
<polygon fill="#63b8ff" stroke="#63b8ff" points="358.99,-127.5 368.99,-124 358.99,-120.5 358.99,-127.5"/>
</a>
</g>
</g>
<!-- Node11 -->
<g id="Node000011" class="node">
<title>Node11</title>
<g id="a_Node000011"><a xlink:href="../../d0/d4e/class_coluna_arquivo.html#af2122dc4d83288ec375515d4d16004a2" target="_top" xlink:title="Ordena as tarefas da coluna por prioridade.">
<polygon fill="white" stroke="#666666" points="319.62,-96 203.88,-96 203.88,-76 319.62,-76 319.62,-96"/>
<text text-anchor="middle" x="261.75" y="-82.5" font-family="Helvetica,sans-Serif" font-size="10.00">ColunaArquivo::ordenar</text>
</a>
</g>
</g>
<!-- Node9&#45;&gt;Node11 -->
<g id="edge10_Node000009_Node000011" class="edge">
<title>Node9&#45;&gt;Node11</title>
<g id="a_edge10_Node000009_Node000011"><a xlink:title=" ">
<path fill="none" stroke="#63b8ff" d="M386.63,-111.34C363,-106.51 336.35,-101.06 313.83,-96.45"/>
<polygon fill="#63b8ff" stroke="#63b8ff" points="385.75,-114.94 396.25,-113.52 387.16,-108.08 385.75,-114.94"/>
</a>
</g>
</g>
<!-- Node12&#45;&gt;Node13 -->
<g id="edge12_Node000012_Node000013" class="edge">
<title>Node12&#45;&gt;Node13</title>
<g id="a_edge12_Node000012_Node000013"><a xlink:title=" ">
<path fill="none" stroke="#63b8ff" d="M386.63,-73.34C363,-68.51 336.35,-63.06 313.83,-58.45"/>
<polygon fill="#63b8ff" stroke="#63b8ff" points="385.75,-76.94 396.25,-75.52 387.16,-70.08 385.75,-76.94"/>
</a>
</g>
</g>
<!-- Node14 -->
<g id="Node000014" class="node">
<title>Node14</title>
<g id="a_Node000014"><a xlink:href="../../de/d1c/class_coluna_nomeada.html#ad9f5dc15ca20616f353008e5a3aa27e3" target="_top" xlink:title="Remove uma tarefa da coluna.">
<polygon fill="white" stroke="#666666" points="153.25,-96 0,-96 0,-76 153.25,-76 153.25,-96"/>
<text text-anchor="middle" x="76.62" y="-82.5" font-family="Helvetica,sans-Serif" font-size="10.00">ColunaNomeada::removerTarefa</text>
</a>
</g>
</g>
<!-- Node13&#45;&gt;Node14 -->
<g id="edge13_Node000013_Node000014" class="edge">
<title>Node13&#45;&gt;Node14</title>
<g id="a_edge13_Node000013_Node000014"><a xlink:title=" ">
<path fill="none" stroke="#63b8ff" d="M199.76,-60.66C176.46,-65.49 150.18,-70.94 127.98,-75.55"/>
<polygon fill="#63b8ff" stroke="#63b8ff" points="200.15,-63.94 209.23,-58.48 198.72,-57.09 200.15,-63.94"/>
</a>
</g>
</g>
<!-- Node15 -->
<g id="Node000015" class="node">
<title>Node15</title>
<g id="a_Node000015"><a xlink:href="../../d0/d4e/class_coluna_arquivo.html#aae317988e21d9072edf5de1543085f14" target="_top" xlink:title="Remove uma tarefa da coluna.">
<polygon fill="white" stroke="#666666" points="148.38,-58 4.88,-58 4.88,-38 148.38,-38 148.38,-58"/>
<text text-anchor="middle" x="76.62" y="-44.5" font-family="Helvetica,sans-Serif" font-size="10.00">ColunaArquivo::removerTarefa</text>
</a>
</g>
</g>
<!-- Node13&#45;&gt;Node15 -->
<g id="edge14_Node000013_Node000015" class="edge">
<title>Node13&#45;&gt;Node15</title>
<g id="a_edge14_Node000013_Node000015"><a xlink:title=" ">
<path fill="none" stroke="#63b8ff" d="M179.75,-48C169.38,-48 158.82,-48 148.62,-48"/>
<polygon fill="#63b8ff" stroke="#63b8ff" points="179.47,-51.5 189.47,-48 179.47,-44.5 179.47,-51.5"/>
</a>
</g>
</g>
<!-- Node16&#45;&gt;Node13 -->
<g id="edge18_Node000016_Node000013" class="edge">
<title>Node16&#45;&gt;Node13</title>
<g id="a_edge18_Node000016_Node000013"><a xlink:title=" ">
<path fill="none" stroke="#63b8ff" d="M386.63,-22.66C363,-27.49 336.35,-32.94 313.83,-37.55"/>
<polygon fill="#63b8ff" stroke="#63b8ff" points="387.16,-25.92 396.25,-20.48 385.75,-19.06 387.16,-25.92"/>
</a>
</g>
</g>
<!-- Node17 -->
<g id="Node000017" class="node">
<title>Node17</title>
<g id="a_Node000017"><a xlink:href="../../dd/d91/class_lista_dupla.html#abfef1d092f78fb6862087097d809f1e7" target="_top" xlink:title="Remove todos os nós da lista e libera a memória.">
<polygon fill="white" stroke="#666666" points="308.75,-20 214.75,-20 214.75,0 308.75,0 308.75,-20"/>
<text text-anchor="middle" x="261.75" y="-6.5" font-family="Helvetica,sans-Serif" font-size="10.00">ListaDupla::limpar</text>
</a>
</g>
</g>
<!-- Node16&#45;&gt;Node17 -->
<g id="edge16_Node000016_Node000017" class="edge">
<title>Node16&#45;&gt;Node17</title>
<g id="a_edge16_Node000016_Node000017"><a xlink:title=" ">
<path fill="none" stroke="#63b8ff" d="M376.23,-10C353.63,-10 329.32,-10 309.01,-10"/>
<polygon fill="#63b8ff" stroke="#63b8ff" points="376.16,-13.5 386.16,-10 376.16,-6.5 376.16,-13.5"/>
</a>
</g>
</g>
<!-- Node18 -->
<g id="Node000018" class="node">
<title>Node18</title>
<g id="a_Node000018"><a xlink:href="../../dd/d91/class_lista_dupla.html#a63481f371df6767019c8705208067514" target="_top" xlink:title="Destrutor da classe ListaDupla.">
<polygon fill="white" stroke="#666666" points="136.38,-20 16.88,-20 16.88,0 136.38,0 136.38,-20"/>
<text text-anchor="middle" x="76.62" y="-6.5" font-family="Helvetica,sans-Serif" font-size="10.00">ListaDupla::~ListaDupla</text>
</a>
</g>
</g>
<!-- Node17&#45;&gt;Node18 -->
<g id="edge17_Node000017_Node000018" class="edge">
<title>Node17&#45;&gt;Node18</title>
<g id="a_edge17_Node000017_Node000018"><a xlink:title=" ">
<path fill="none" stroke="#63b8ff" d="M203.69,-10C182.38,-10 158.15,-10 136.66,-10"/>
<polygon fill="#63b8ff" stroke="#63b8ff" points="203.54,-13.5 213.54,-10 203.54,-6.5 203.54,-13.5"/>
</a>
</g>
</g>
</g>
</svg>
