<?xml version="1.0" encoding="UTF-8" standalone="no"?>
<!DOCTYPE svg PUBLIC "-//W3C//DTD SVG 1.1//EN"
 "http://www.w3.org/Graphics/SVG/1.1/DTD/svg11.dtd">
<!-- Generated by graphviz version 8.1.0 (20230707.0739)
 -->
<!-- Title: No::getProximo Pages: 1 -->
<!--zoomable 446 -->

<svg id="main" version="1.1" xmlns="http://www.w3.org/2000/svg" xmlns:xlink="http://www.w3.org/1999/xlink" xml:space="preserve" onload="init(evt)">
<style type="text/css"><![CDATA[
.node, .edge {opacity: 0.7;}
.node.selected, .edge.selected {opacity: 1;}
.edge:hover path { stroke: red; }
.edge:hover polygon { stroke: red; fill: red; }
]]></style>

<defs>
  <circle id="rim" cx="0" cy="0" r="7"/>
  <circle id="rim2" cx="0" cy="0" r="3.5"/>
  <g id="zoomPlus">
    <use xlink:href="#rim" fill="#404040"><set attributeName="fill" to="#808080" begin="zoomplus.mouseover" end="zoomplus.mouseout"/></use>
    <path d="M-4,0h8M0,-4v8" fill="none" stroke="white" stroke-width="1.5" pointer-events="none"/>
  </g>
  <g id="zoomMin">
    <use xlink:href="#rim" fill="#404040"><set attributeName="fill" to="#808080" begin="zoomminus.mouseover" end="zoomminus.mouseout"/></use>
    <path d="M-4,0h8" fill="none" stroke="white" stroke-width="1.5" pointer-events="none"/>
  </g>
  <g id="arrowUp" transform="translate(30 24)">
    <use xlink:href="#rim"/>
    <path pointer-events="none" fill="none" stroke="white" stroke-width="1.5" d="M0,-3.0v7 M-2.5,-0.5L0,-3.0L2.5,-0.5"/>
  </g>
  <g id="arrowRight" transform="rotate(90) translate(36 -43)">
    <use xlink:href="#rim"/>
    <path pointer-events="none" fill="none" stroke="white" stroke-width="1.5" d="M0,-3.0v7 M-2.5,-0.5L0,-3.0L2.5,-0.5"/>
  </g>
  <g id="arrowDown" transform="rotate(180) translate(-30 -48)">
    <use xlink:href="#rim"/>
    <path pointer-events="none" fill="none" stroke="white" stroke-width="1.5" d="M0,-3.0v7 M-2.5,-0.5L0,-3.0L2.5,-0.5"/>
  </g>
  <g id="arrowLeft" transform="rotate(270) translate(-36 17)">
    <use xlink:href="#rim"/>
    <path pointer-events="none" fill="none" stroke="white" stroke-width="1.5" d="M0,-3.0v7 M-2.5,-0.5L0,-3.0L2.5,-0.5"/>
  </g>
  <g id="resetDef">
    <use xlink:href="#rim2" fill="#404040"><set attributeName="fill" to="#808080" begin="reset.mouseover" end="reset.mouseout"/></use>
  </g>
</defs>
<script type="application/ecmascript">
var viewWidth = 656;
var viewHeight = 446;
var sectionId = 'dynsection-2';
</script>
<script type="application/ecmascript" xlink:href="../../svg.min.js"/>
<svg id="graph" class="graph">
<g id="viewport">
<title>No::getProximo</title>
<!-- Node1 -->
<g id="Node000001" class="node">
<title>Node1</title>
<g id="a_Node000001"><a xlink:title="Obtém o próximo nó.">
<polygon fill="#999999" stroke="#666666" points="648.25,-305 564.75,-305 564.75,-285 648.25,-285 648.25,-305"/>
<text text-anchor="middle" x="606.5" y="-291.5" font-family="Helvetica,sans-Serif" font-size="10.00">No::getProximo</text>
</a>
</g>
</g>
<!-- Node2 -->
<g id="Node000002" class="node">
<title>Node2</title>
<g id="a_Node000002"><a xlink:href="../../dd/d91/class_lista_dupla.html#af02559c4c5c8265c8db861300cf598d8" target="_top" xlink:title="Insere uma tarefa no início da lista.">
<polygon fill="white" stroke="#666666" points="507.75,-438 391.25,-438 391.25,-418 507.75,-418 507.75,-438"/>
<text text-anchor="middle" x="449.5" y="-424.5" font-family="Helvetica,sans-Serif" font-size="10.00">ListaDupla::inserirInicio</text>
</a>
</g>
</g>
<!-- Node1&#45;&gt;Node2 -->
<g id="edge1_Node000001_Node000002" class="edge">
<title>Node1&#45;&gt;Node2</title>
<g id="a_edge1_Node000001_Node000002"><a xlink:title=" ">
<path fill="none" stroke="#63b8ff" d="M596.46,-315.13C584.44,-339.65 560.9,-380.68 528.75,-404 520.81,-409.76 511.47,-414.15 502.06,-417.5"/>
<polygon fill="#63b8ff" stroke="#63b8ff" points="599.93,-316.97 601.03,-306.43 593.6,-313.99 599.93,-316.97"/>
</a>
</g>
</g>
<!-- Node3 -->
<g id="Node000003" class="node">
<title>Node3</title>
<g id="a_Node000003"><a xlink:href="../../dd/d91/class_lista_dupla.html#a8c0235db1d94b2dcbd4d22fec5645ac3" target="_top" xlink:title="Insere uma tarefa na lista pelo índice.">
<polygon fill="white" stroke="#666666" points="329,-438 194.5,-438 194.5,-418 329,-418 329,-438"/>
<text text-anchor="middle" x="261.75" y="-424.5" font-family="Helvetica,sans-Serif" font-size="10.00">ListaDupla::inserirPorIndice</text>
</a>
</g>
</g>
<!-- Node1&#45;&gt;Node3 -->
<g id="edge3_Node000001_Node000003" class="edge">
<title>Node1&#45;&gt;Node3</title>
<g id="a_edge3_Node000001_Node000003"><a xlink:title=" ">
<path fill="none" stroke="#63b8ff" d="M591.7,-313.84C577.8,-331.41 554.73,-356.95 528.75,-371 510.55,-380.84 392.61,-403.92 320.02,-417.5"/>
<polygon fill="#63b8ff" stroke="#63b8ff" points="594.8,-316.55 598.11,-306.49 589.25,-312.3 594.8,-316.55"/>
</a>
</g>
</g>
<!-- Node4 -->
<g id="Node000004" class="node">
<title>Node4</title>
<g id="a_Node000004"><a xlink:href="../../dd/d91/class_lista_dupla.html#a924380dcc218b78c4de0e0accc80e012" target="_top" xlink:title="Remove a tarefa da lista, mas mantém o nó na lista sem referência à tarefa.">
<polygon fill="white" stroke="#666666" points="506.25,-362 392.75,-362 392.75,-342 506.25,-342 506.25,-362"/>
<text text-anchor="middle" x="449.5" y="-348.5" font-family="Helvetica,sans-Serif" font-size="10.00">ListaDupla::lightDelete</text>
</a>
</g>
</g>
<!-- Node1&#45;&gt;Node4 -->
<g id="edge4_Node000001_Node000004" class="edge">
<title>Node1&#45;&gt;Node4</title>
<g id="a_edge4_Node000001_Node000004"><a xlink:title=" ">
<path fill="none" stroke="#63b8ff" d="M567.08,-309.13C539.8,-319.16 503.76,-332.41 479.01,-341.52"/>
<polygon fill="#63b8ff" stroke="#63b8ff" points="567.89,-312.19 576.07,-305.45 565.48,-305.62 567.89,-312.19"/>
</a>
</g>
</g>
<!-- Node7 -->
<g id="Node000007" class="node">
<title>Node7</title>
<g id="a_Node000007"><a xlink:href="../../dd/d91/class_lista_dupla.html#a837ec6a1d28dbddd64b2028372f846c3" target="_top" xlink:title="Obtém a tarefa da lista pelo índice.">
<polygon fill="white" stroke="#666666" points="514.5,-305 384.5,-305 384.5,-285 514.5,-285 514.5,-305"/>
<text text-anchor="middle" x="449.5" y="-291.5" font-family="Helvetica,sans-Serif" font-size="10.00">ListaDupla::obterPorIndice</text>
</a>
</g>
</g>
<!-- Node1&#45;&gt;Node7 -->
<g id="edge7_Node000001_Node000007" class="edge">
<title>Node1&#45;&gt;Node7</title>
<g id="a_edge7_Node000001_Node000007"><a xlink:title=" ">
<path fill="none" stroke="#63b8ff" d="M553.74,-295C541.3,-295 527.87,-295 514.93,-295"/>
<polygon fill="#63b8ff" stroke="#63b8ff" points="553.37,-298.5 563.37,-295 553.37,-291.5 553.37,-298.5"/>
</a>
</g>
</g>
<!-- Node12 -->
<g id="Node000012" class="node">
<title>Node12</title>
<g id="a_Node000012"><a xlink:href="../../dd/d91/class_lista_dupla.html#a0da08b292785498fc7bb358a84bed282" target="_top" xlink:title="Ordena a lista de tarefas por prioridade.">
<polygon fill="white" stroke="#666666" points="528.75,-172 370.25,-172 370.25,-152 528.75,-152 528.75,-172"/>
<text text-anchor="middle" x="449.5" y="-158.5" font-family="Helvetica,sans-Serif" font-size="10.00">ListaDupla::ordenarPorPrioridade</text>
</a>
</g>
</g>
<!-- Node1&#45;&gt;Node12 -->
<g id="edge14_Node000001_Node000012" class="edge">
<title>Node1&#45;&gt;Node12</title>
<g id="a_edge14_Node000001_Node000012"><a xlink:title=" ">
<path fill="none" stroke="#63b8ff" d="M585.37,-277.73C552.71,-249.7 489.15,-195.17 462.61,-172.39"/>
<polygon fill="#63b8ff" stroke="#63b8ff" points="582.47,-280.71 592.34,-284.56 587.03,-275.4 582.47,-280.71"/>
</a>
</g>
</g>
<!-- Node15 -->
<g id="Node000015" class="node">
<title>Node15</title>
<g id="a_Node000015"><a xlink:href="../../dd/d91/class_lista_dupla.html#a6c0c785cb9c4a4a2fbe25beb370bd102" target="_top" xlink:title="Remove a tarefa do início da lista.">
<polygon fill="white" stroke="#666666" points="511.5,-96 387.5,-96 387.5,-76 511.5,-76 511.5,-96"/>
<text text-anchor="middle" x="449.5" y="-82.5" font-family="Helvetica,sans-Serif" font-size="10.00">ListaDupla::removerInicio</text>
</a>
</g>
</g>
<!-- Node1&#45;&gt;Node15 -->
<g id="edge17_Node000001_Node000015" class="edge">
<title>Node1&#45;&gt;Node15</title>
<g id="a_edge17_Node000001_Node000015"><a xlink:title=" ">
<path fill="none" stroke="#63b8ff" d="M598.81,-274.81C587.84,-243.91 563.7,-184.13 528.75,-143 511.88,-123.15 486.75,-106.44 469.55,-96.35"/>
<polygon fill="#63b8ff" stroke="#63b8ff" points="595.68,-275.49 602.25,-283.8 602.3,-273.21 595.68,-275.49"/>
</a>
</g>
</g>
<!-- Node18 -->
<g id="Node000018" class="node">
<title>Node18</title>
<g id="a_Node000018"><a xlink:href="../../dd/d91/class_lista_dupla.html#ab976735e9038a9bd590a764b2a832e45" target="_top" xlink:title="Remove a tarefa da lista pelo índice.">
<polygon fill="white" stroke="#666666" points="332.75,-58 190.75,-58 190.75,-38 332.75,-38 332.75,-58"/>
<text text-anchor="middle" x="261.75" y="-44.5" font-family="Helvetica,sans-Serif" font-size="10.00">ListaDupla::removerPorIndice</text>
</a>
</g>
</g>
<!-- Node1&#45;&gt;Node18 -->
<g id="edge23_Node000001_Node000018" class="edge">
<title>Node1&#45;&gt;Node18</title>
<g id="a_edge23_Node000001_Node000018"><a xlink:title=" ">
<path fill="none" stroke="#63b8ff" d="M605.56,-273.83C604.42,-227.65 594.54,-117.92 528.75,-67 464.86,-17.55 364.48,-26.69 307.04,-37.52"/>
<polygon fill="#63b8ff" stroke="#63b8ff" points="602.07,-273.64 605.69,-283.6 609.07,-273.56 602.07,-273.64"/>
</a>
</g>
</g>
<!-- Node2&#45;&gt;Node3 -->
<g id="edge2_Node000002_Node000003" class="edge">
<title>Node2&#45;&gt;Node3</title>
<g id="a_edge2_Node000002_Node000003"><a xlink:title=" ">
<path fill="none" stroke="#63b8ff" d="M380.28,-428C363.67,-428 345.94,-428 329.41,-428"/>
<polygon fill="#63b8ff" stroke="#63b8ff" points="380,-431.5 390,-428 380,-424.5 380,-431.5"/>
</a>
</g>
</g>
<!-- Node5 -->
<g id="Node000005" class="node">
<title>Node5</title>
<g id="a_Node000005"><a xlink:href="../../de/d1c/class_coluna_nomeada.html#ab47ba7b160204e7001f88c06ec25a305" target="_top" xlink:title="Move uma tarefa de uma coluna para outra.">
<polygon fill="white" stroke="#666666" points="334.25,-362 189.25,-362 189.25,-342 334.25,-342 334.25,-362"/>
<text text-anchor="middle" x="261.75" y="-348.5" font-family="Helvetica,sans-Serif" font-size="10.00">ColunaNomeada::moverTarefa</text>
</a>
</g>
</g>
<!-- Node4&#45;&gt;Node5 -->
<g id="edge5_Node000004_Node000005" class="edge">
<title>Node4&#45;&gt;Node5</title>
<g id="a_edge5_Node000004_Node000005"><a xlink:title=" ">
<path fill="none" stroke="#63b8ff" d="M381.4,-352C366.2,-352 350,-352 334.61,-352"/>
<polygon fill="#63b8ff" stroke="#63b8ff" points="381.26,-355.5 391.26,-352 381.26,-348.5 381.26,-355.5"/>
</a>
</g>
</g>
<!-- Node6 -->
<g id="Node000006" class="node">
<title>Node6</title>
<g id="a_Node000006"><a xlink:href="../../d0/d4e/class_coluna_arquivo.html#ac4f7235fe2e8bbcdb959f5100d7c1bb7" target="_top" xlink:title="Move uma tarefa de uma coluna para outra.">
<polygon fill="white" stroke="#666666" points="329.38,-400 194.12,-400 194.12,-380 329.38,-380 329.38,-400"/>
<text text-anchor="middle" x="261.75" y="-386.5" font-family="Helvetica,sans-Serif" font-size="10.00">ColunaArquivo::moverTarefa</text>
</a>
</g>
</g>
<!-- Node4&#45;&gt;Node6 -->
<g id="edge6_Node000004_Node000006" class="edge">
<title>Node4&#45;&gt;Node6</title>
<g id="a_edge6_Node000004_Node000006"><a xlink:title=" ">
<path fill="none" stroke="#63b8ff" d="M386.63,-364.66C363,-369.49 336.35,-374.94 313.83,-379.55"/>
<polygon fill="#63b8ff" stroke="#63b8ff" points="387.16,-367.92 396.25,-362.48 385.75,-361.06 387.16,-367.92"/>
</a>
</g>
</g>
<!-- Node7&#45;&gt;Node5 -->
<g id="edge10_Node000007_Node000005" class="edge">
<title>Node7&#45;&gt;Node5</title>
<g id="a_edge10_Node000007_Node000005"><a xlink:title=" ">
<path fill="none" stroke="#63b8ff" d="M408.83,-308.86C386.94,-316.34 359.21,-325.54 334.25,-333 324.41,-335.94 313.73,-338.9 303.71,-341.58"/>
<polygon fill="#63b8ff" stroke="#63b8ff" points="409.75,-311.9 418.07,-305.34 407.47,-305.28 409.75,-311.9"/>
</a>
</g>
</g>
<!-- Node7&#45;&gt;Node6 -->
<g id="edge11_Node000007_Node000006" class="edge">
<title>Node7&#45;&gt;Node6</title>
<g id="a_edge11_Node000007_Node000006"><a xlink:title=" ">
<path fill="none" stroke="#63b8ff" d="M411.11,-309.83C397.62,-316.01 382.68,-323.9 370.25,-333 351.48,-346.75 354.25,-359.12 334.25,-371 328.51,-374.41 322.15,-377.22 315.66,-379.53"/>
<polygon fill="#63b8ff" stroke="#63b8ff" points="412.33,-312.67 420.07,-305.43 409.51,-306.27 412.33,-312.67"/>
</a>
</g>
</g>
<!-- Node8 -->
<g id="Node000008" class="node">
<title>Node8</title>
<g id="a_Node000008"><a xlink:href="../../de/d1c/class_coluna_nomeada.html#ad0566fe1cc3fef87feeff8e76b74dffd" target="_top" xlink:title="Imprime as informações da coluna.">
<polygon fill="white" stroke="#666666" points="325.62,-286 197.88,-286 197.88,-266 325.62,-266 325.62,-286"/>
<text text-anchor="middle" x="261.75" y="-272.5" font-family="Helvetica,sans-Serif" font-size="10.00">ColunaNomeada::imprimir</text>
</a>
</g>
</g>
<!-- Node7&#45;&gt;Node8 -->
<g id="edge8_Node000007_Node000008" class="edge">
<title>Node7&#45;&gt;Node8</title>
<g id="a_edge8_Node000007_Node000008"><a xlink:title=" ">
<path fill="none" stroke="#63b8ff" d="M373.29,-287.31C357.54,-285.7 341.08,-284.01 325.83,-282.45"/>
<polygon fill="#63b8ff" stroke="#63b8ff" points="372.75,-290.87 383.05,-288.41 373.46,-283.91 372.75,-290.87"/>
</a>
</g>
</g>
<!-- Node9 -->
<g id="Node000009" class="node">
<title>Node9</title>
<g id="a_Node000009"><a xlink:href="../../d0/d4e/class_coluna_arquivo.html#af89c858cfeb225706983f3e91090792f" target="_top" xlink:title="Imprime as informações da coluna.">
<polygon fill="white" stroke="#666666" points="320.75,-248 202.75,-248 202.75,-228 320.75,-228 320.75,-248"/>
<text text-anchor="middle" x="261.75" y="-234.5" font-family="Helvetica,sans-Serif" font-size="10.00">ColunaArquivo::imprimir</text>
</a>
</g>
</g>
<!-- Node7&#45;&gt;Node9 -->
<g id="edge9_Node000007_Node000009" class="edge">
<title>Node7&#45;&gt;Node9</title>
<g id="a_edge9_Node000007_Node000009"><a xlink:title=" ">
<path fill="none" stroke="#63b8ff" d="M408.83,-281.14C386.94,-273.66 359.21,-264.46 334.25,-257 324.41,-254.06 313.73,-251.1 303.71,-248.42"/>
<polygon fill="#63b8ff" stroke="#63b8ff" points="407.47,-284.72 418.07,-284.66 409.75,-278.1 407.47,-284.72"/>
</a>
</g>
</g>
<!-- Node10 -->
<g id="Node000010" class="node">
<title>Node10</title>
<g id="a_Node000010"><a xlink:href="../../de/d1c/class_coluna_nomeada.html#a3f8cdd94b330161896b219720b7bc8e2" target="_top" xlink:title="Obtém uma tarefa da coluna pelo seu índice.">
<polygon fill="white" stroke="#666666" points="332.38,-210 191.12,-210 191.12,-190 332.38,-190 332.38,-210"/>
<text text-anchor="middle" x="261.75" y="-196.5" font-family="Helvetica,sans-Serif" font-size="10.00">ColunaNomeada::obterTarefa</text>
</a>
</g>
</g>
<!-- Node7&#45;&gt;Node10 -->
<g id="edge12_Node000007_Node000010" class="edge">
<title>Node7&#45;&gt;Node10</title>
<g id="a_edge12_Node000007_Node000010"><a xlink:title=" ">
<path fill="none" stroke="#63b8ff" d="M427.42,-277.88C405.39,-260.75 369.22,-234.76 334.25,-219 326.87,-215.68 318.8,-212.84 310.81,-210.45"/>
<polygon fill="#63b8ff" stroke="#63b8ff" points="424.94,-281.17 434.96,-284.62 429.28,-275.67 424.94,-281.17"/>
</a>
</g>
</g>
<!-- Node11 -->
<g id="Node000011" class="node">
<title>Node11</title>
<g id="a_Node000011"><a xlink:href="../../d0/d4e/class_coluna_arquivo.html#abb1d729c65cf4680de28dd85fe20c737" target="_top" xlink:title="Obtém uma tarefa da coluna pelo seu índice.">
<polygon fill="white" stroke="#666666" points="327.5,-324 196,-324 196,-304 327.5,-304 327.5,-324"/>
<text text-anchor="middle" x="261.75" y="-310.5" font-family="Helvetica,sans-Serif" font-size="10.00">ColunaArquivo::obterTarefa</text>
</a>
</g>
</g>
<!-- Node7&#45;&gt;Node11 -->
<g id="edge13_Node000007_Node000011" class="edge">
<title>Node7&#45;&gt;Node11</title>
<g id="a_edge13_Node000007_Node000011"><a xlink:title=" ">
<path fill="none" stroke="#63b8ff" d="M373.21,-302.7C358.13,-304.24 342.41,-305.85 327.71,-307.36"/>
<polygon fill="#63b8ff" stroke="#63b8ff" points="373.46,-306.09 383.05,-301.59 372.75,-299.13 373.46,-306.09"/>
</a>
</g>
</g>
<!-- Node13 -->
<g id="Node000013" class="node">
<title>Node13</title>
<g id="a_Node000013"><a xlink:href="../../de/d1c/class_coluna_nomeada.html#a73e9583ff304eef0a61d772976dac074" target="_top" xlink:title="Ordena as tarefas da coluna por prioridade.">
<polygon fill="white" stroke="#666666" points="324.5,-134 199,-134 199,-114 324.5,-114 324.5,-134"/>
<text text-anchor="middle" x="261.75" y="-120.5" font-family="Helvetica,sans-Serif" font-size="10.00">ColunaNomeada::ordenar</text>
</a>
</g>
</g>
<!-- Node12&#45;&gt;Node13 -->
<g id="edge15_Node000012_Node000013" class="edge">
<title>Node12&#45;&gt;Node13</title>
<g id="a_edge15_Node000012_Node000013"><a xlink:title=" ">
<path fill="none" stroke="#63b8ff" d="M386.63,-149.34C363,-144.51 336.35,-139.06 313.83,-134.45"/>
<polygon fill="#63b8ff" stroke="#63b8ff" points="385.75,-152.94 396.25,-151.52 387.16,-146.08 385.75,-152.94"/>
</a>
</g>
</g>
<!-- Node14 -->
<g id="Node000014" class="node">
<title>Node14</title>
<g id="a_Node000014"><a xlink:href="../../d0/d4e/class_coluna_arquivo.html#af2122dc4d83288ec375515d4d16004a2" target="_top" xlink:title="Ordena as tarefas da coluna por prioridade.">
<polygon fill="white" stroke="#666666" points="319.62,-172 203.88,-172 203.88,-152 319.62,-152 319.62,-172"/>
<text text-anchor="middle" x="261.75" y="-158.5" font-family="Helvetica,sans-Serif" font-size="10.00">ColunaArquivo::ordenar</text>
</a>
</g>
</g>
<!-- Node12&#45;&gt;Node14 -->
<g id="edge16_Node000012_Node000014" class="edge">
<title>Node12&#45;&gt;Node14</title>
<g id="a_edge16_Node000012_Node000014"><a xlink:title=" ">
<path fill="none" stroke="#63b8ff" d="M359.28,-162C345.86,-162 332.34,-162 319.85,-162"/>
<polygon fill="#63b8ff" stroke="#63b8ff" points="358.99,-165.5 368.99,-162 358.99,-158.5 358.99,-165.5"/>
</a>
</g>
</g>
<!-- Node16 -->
<g id="Node000016" class="node">
<title>Node16</title>
<g id="a_Node000016"><a xlink:href="../../dd/d91/class_lista_dupla.html#abfef1d092f78fb6862087097d809f1e7" target="_top" xlink:title="Remove todos os nós da lista e libera a memória.">
<polygon fill="white" stroke="#666666" points="308.75,-96 214.75,-96 214.75,-76 308.75,-76 308.75,-96"/>
<text text-anchor="middle" x="261.75" y="-82.5" font-family="Helvetica,sans-Serif" font-size="10.00">ListaDupla::limpar</text>
</a>
</g>
</g>
<!-- Node15&#45;&gt;Node16 -->
<g id="edge18_Node000015_Node000016" class="edge">
<title>Node15&#45;&gt;Node16</title>
<g id="a_edge18_Node000015_Node000016"><a xlink:title=" ">
<path fill="none" stroke="#63b8ff" d="M376.23,-86C353.63,-86 329.32,-86 309.01,-86"/>
<polygon fill="#63b8ff" stroke="#63b8ff" points="376.16,-89.5 386.16,-86 376.16,-82.5 376.16,-89.5"/>
</a>
</g>
</g>
<!-- Node15&#45;&gt;Node18 -->
<g id="edge20_Node000015_Node000018" class="edge">
<title>Node15&#45;&gt;Node18</title>
<g id="a_edge20_Node000015_Node000018"><a xlink:title=" ">
<path fill="none" stroke="#63b8ff" d="M386.63,-73.34C363,-68.51 336.35,-63.06 313.83,-58.45"/>
<polygon fill="#63b8ff" stroke="#63b8ff" points="385.75,-76.94 396.25,-75.52 387.16,-70.08 385.75,-76.94"/>
</a>
</g>
</g>
<!-- Node17 -->
<g id="Node000017" class="node">
<title>Node17</title>
<g id="a_Node000017"><a xlink:href="../../dd/d91/class_lista_dupla.html#a63481f371df6767019c8705208067514" target="_top" xlink:title="Destrutor da classe ListaDupla.">
<polygon fill="white" stroke="#666666" points="136.38,-96 16.88,-96 16.88,-76 136.38,-76 136.38,-96"/>
<text text-anchor="middle" x="76.62" y="-82.5" font-family="Helvetica,sans-Serif" font-size="10.00">ListaDupla::~ListaDupla</text>
</a>
</g>
</g>
<!-- Node16&#45;&gt;Node17 -->
<g id="edge19_Node000016_Node000017" class="edge">
<title>Node16&#45;&gt;Node17</title>
<g id="a_edge19_Node000016_Node000017"><a xlink:title=" ">
<path fill="none" stroke="#63b8ff" d="M203.69,-86C182.38,-86 158.15,-86 136.66,-86"/>
<polygon fill="#63b8ff" stroke="#63b8ff" points="203.54,-89.5 213.54,-86 203.54,-82.5 203.54,-89.5"/>
</a>
</g>
</g>
<!-- Node19 -->
<g id="Node000019" class="node">
<title>Node19</title>
<g id="a_Node000019"><a xlink:href="../../de/d1c/class_coluna_nomeada.html#ad9f5dc15ca20616f353008e5a3aa27e3" target="_top" xlink:title="Remove uma tarefa da coluna.">
<polygon fill="white" stroke="#666666" points="153.25,-20 0,-20 0,0 153.25,0 153.25,-20"/>
<text text-anchor="middle" x="76.62" y="-6.5" font-family="Helvetica,sans-Serif" font-size="10.00">ColunaNomeada::removerTarefa</text>
</a>
</g>
</g>
<!-- Node18&#45;&gt;Node19 -->
<g id="edge21_Node000018_Node000019" class="edge">
<title>Node18&#45;&gt;Node19</title>
<g id="a_edge21_Node000018_Node000019"><a xlink:title=" ">
<path fill="none" stroke="#63b8ff" d="M199.76,-35.34C176.46,-30.51 150.18,-25.06 127.98,-20.45"/>
<polygon fill="#63b8ff" stroke="#63b8ff" points="198.72,-38.91 209.23,-37.52 200.15,-32.06 198.72,-38.91"/>
</a>
</g>
</g>
<!-- Node20 -->
<g id="Node000020" class="node">
<title>Node20</title>
<g id="a_Node000020"><a xlink:href="../../d0/d4e/class_coluna_arquivo.html#aae317988e21d9072edf5de1543085f14" target="_top" xlink:title="Remove uma tarefa da coluna.">
<polygon fill="white" stroke="#666666" points="148.38,-58 4.88,-58 4.88,-38 148.38,-38 148.38,-58"/>
<text text-anchor="middle" x="76.62" y="-44.5" font-family="Helvetica,sans-Serif" font-size="10.00">ColunaArquivo::removerTarefa</text>
</a>
</g>
</g>
<!-- Node18&#45;&gt;Node20 -->
<g id="edge22_Node000018_Node000020" class="edge">
<title>Node18&#45;&gt;Node20</title>
<g id="a_edge22_Node000018_Node000020"><a xlink:title=" ">
<path fill="none" stroke="#63b8ff" d="M179.75,-48C169.38,-48 158.82,-48 148.62,-48"/>
<polygon fill="#63b8ff" stroke="#63b8ff" points="179.47,-51.5 189.47,-48 179.47,-44.5 179.47,-51.5"/>
</a>
</g>
</g>
</g>
</svg>

<g id="navigator" transform="translate(0 0)" fill="#404254">
  <rect fill="#f2f5e9" fill-opacity="0.5" stroke="#606060" stroke-width=".5" x="0" y="0" width="60" height="60"/>
  <use id="zoomplus" xlink:href="#zoomPlus" x="17" y="9" onmousedown="handleZoom(evt,'in')"/>
  <use id="zoomminus" xlink:href="#zoomMin" x="42" y="9" onmousedown="handleZoom(evt,'out')"/>
  <use id="reset" xlink:href="#resetDef" x="30" y="36" onmousedown="handleReset()"/>
   <use id="arrowup" xlink:href="#arrowUp" x="0" y="0" onmousedown="handlePan(0,-1)"/>
  <use id="arrowright" xlink:href="#arrowRight" x="0" y="0" onmousedown="handlePan(1,0)"/>
  <use id="arrowdown" xlink:href="#arrowDown" x="0" y="0" onmousedown="handlePan(0,1)"/>
  <use id="arrowleft" xlink:href="#arrowLeft" x="0" y="0" onmousedown="handlePan(-1,0)"/>
</g>
<svg viewBox="0 0 15 15" width="100%" height="30px" preserveAspectRatio="xMaxYMin meet">
 <g id="arrow_out" transform="scale(0.3 0.3)">
  <a xlink:href="class_no_a42bd9dc9c7b24743c82e89b42a1581a2_icgraph_org.svg" target="_base">
   <rect id="button" ry="5" rx="5" y="6" x="6" height="38" width="38"
        fill="#f2f5e9" fill-opacity="0.5" stroke="#606060" stroke-width="1.0"/>
   <path id="arrow"
     d="M 11.500037,31.436501 C 11.940474,20.09759 22.043105,11.32322 32.158766,21.979434 L 37.068811,17.246167 C 37.068811,17.246167 37.088388,32 37.088388,32 L 22.160133,31.978069 C 22.160133,31.978069 26.997745,27.140456 26.997745,27.140456 C 18.528582,18.264221 13.291696,25.230495 11.500037,31.436501 z"
     style="fill:#404040;"/>
  </a>
 </g>
</svg>

<style type='text/css'>
<![CDATA[
[data-mouse-over-selected='false'] { opacity: 0.7; }
[data-mouse-over-selected='true']  { opacity: 1.0; }
]]>
</style>
<script type="application/ecmascript"><![CDATA[
document.addEventListener('DOMContentLoaded', (event) => {
  highlightEdges();
  highlightAdjacentNodes();
});
]]></script>
</svg>
