<?xml version="1.0" encoding="UTF-8" standalone="no"?>
<!DOCTYPE svg PUBLIC "-//W3C//DTD SVG 1.1//EN"
 "http://www.w3.org/Graphics/SVG/1.1/DTD/svg11.dtd">
<!-- Generated by graphviz version 8.1.0 (20230707.0739)
 -->
<!-- Title: No::getAnterior Pages: 1 -->
<!--zoomable 313 -->

<svg id="main" version="1.1" xmlns="http://www.w3.org/2000/svg" xmlns:xlink="http://www.w3.org/1999/xlink" xml:space="preserve" onload="init(evt)">
<style type="text/css"><![CDATA[
.node, .edge {opacity: 0.7;}
.node.selected, .edge.selected {opacity: 1;}
.edge:hover path { stroke: red; }
.edge:hover polygon { stroke: red; fill: red; }
]]></style>

<defs>
  <circle id="rim" cx="0" cy="0" r="7"/>
  <circle id="rim2" cx="0" cy="0" r="3.5"/>
  <g id="zoomPlus">
    <use xlink:href="#rim" fill="#404040"><set attributeName="fill" to="#808080" begin="zoomplus.mouseover" end="zoomplus.mouseout"/></use>
    <path d="M-4,0h8M0,-4v8" fill="none" stroke="white" stroke-width="1.5" pointer-events="none"/>
  </g>
  <g id="zoomMin">
    <use xlink:href="#rim" fill="#404040"><set attributeName="fill" to="#808080" begin="zoomminus.mouseover" end="zoomminus.mouseout"/></use>
    <path d="M-4,0h8" fill="none" stroke="white" stroke-width="1.5" pointer-events="none"/>
  </g>
  <g id="arrowUp" transform="translate(30 24)">
    <use xlink:href="#rim"/>
    <path pointer-events="none" fill="none" stroke="white" stroke-width="1.5" d="M0,-3.0v7 M-2.5,-0.5L0,-3.0L2.5,-0.5"/>
  </g>
  <g id="arrowRight" transform="rotate(90) translate(36 -43)">
    <use xlink:href="#rim"/>
    <path pointer-events="none" fill="none" stroke="white" stroke-width="1.5" d="M0,-3.0v7 M-2.5,-0.5L0,-3.0L2.5,-0.5"/>
  </g>
  <g id="arrowDown" transform="rotate(180) translate(-30 -48)">
    <use xlink:href="#rim"/>
    <path pointer-events="none" fill="none" stroke="white" stroke-width="1.5" d="M0,-3.0v7 M-2.5,-0.5L0,-3.0L2.5,-0.5"/>
  </g>
  <g id="arrowLeft" transform="rotate(270) translate(-36 17)">
    <use xlink:href="#rim"/>
    <path pointer-events="none" fill="none" stroke="white" stroke-width="1.5" d="M0,-3.0v7 M-2.5,-0.5L0,-3.0L2.5,-0.5"/>
  </g>
  <g id="resetDef">
    <use xlink:href="#rim2" fill="#404040"><set attributeName="fill" to="#808080" begin="reset.mouseover" end="reset.mouseout"/></use>
  </g>
</defs>
<script type="application/ecmascript">
var viewWidth = 655;
var viewHeight = 313;
var sectionId = 'dynsection-1';
</script>
<script type="application/ecmascript" xlink:href="../../svg.min.js"/>
<svg id="graph" class="graph">
<g id="viewport">
<title>No::getAnterior</title>
<!-- Node1 -->
<g id="Node000001" class="node">
<title>Node1</title>
<g id="a_Node000001"><a xlink:title="Obtém o nó anterior.">
<polygon fill="#999999" stroke="#666666" points="646.75,-134 565.5,-134 565.5,-114 646.75,-114 646.75,-134"/>
<text text-anchor="middle" x="606.12" y="-120.5" font-family="Helvetica,sans-Serif" font-size="10.00">No::getAnterior</text>
</a>
</g>
</g>
<!-- Node2 -->
<g id="Node000002" class="node">
<title>Node2</title>
<g id="a_Node000002"><a xlink:href="../../dd/d91/class_lista_dupla.html#a997a8daa9fb1ccea46c233558ade8b4b" target="_top" xlink:title="Insere uma tarefa no fim da lista.">
<polygon fill="white" stroke="#666666" points="505.5,-248 395,-248 395,-228 505.5,-228 505.5,-248"/>
<text text-anchor="middle" x="450.25" y="-234.5" font-family="Helvetica,sans-Serif" font-size="10.00">ListaDupla::inserirFim</text>
</a>
</g>
</g>
<!-- Node1&#45;&gt;Node2 -->
<g id="edge1_Node000001_Node000002" class="edge">
<title>Node1&#45;&gt;Node2</title>
<g id="a_edge1_Node000001_Node000002"><a xlink:title=" ">
<path fill="none" stroke="#63b8ff" d="M582.43,-140.82C550.05,-164.8 491.58,-208.12 465.03,-227.79"/>
<polygon fill="#63b8ff" stroke="#63b8ff" points="584.25,-143.08 590.2,-134.32 580.08,-137.46 584.25,-143.08"/>
</a>
</g>
</g>
<!-- Node3 -->
<g id="Node000003" class="node">
<title>Node3</title>
<g id="a_Node000003"><a xlink:href="../../dd/d91/class_lista_dupla.html#a8c0235db1d94b2dcbd4d22fec5645ac3" target="_top" xlink:title="Insere uma tarefa na lista pelo índice.">
<polygon fill="white" stroke="#666666" points="329.38,-305 194.88,-305 194.88,-285 329.38,-285 329.38,-305"/>
<text text-anchor="middle" x="262.12" y="-291.5" font-family="Helvetica,sans-Serif" font-size="10.00">ListaDupla::inserirPorIndice</text>
</a>
</g>
</g>
<!-- Node1&#45;&gt;Node3 -->
<g id="edge5_Node000001_Node000003" class="edge">
<title>Node1&#45;&gt;Node3</title>
<g id="a_edge5_Node000001_Node000003"><a xlink:title=" ">
<path fill="none" stroke="#63b8ff" d="M599.67,-144.65C590.56,-174.73 569.22,-229.96 529.5,-257 470.61,-297.09 387.36,-302.9 329.66,-301.05"/>
<polygon fill="#63b8ff" stroke="#63b8ff" points="603.2,-146.04 602.58,-135.46 596.47,-144.12 603.2,-146.04"/>
</a>
</g>
</g>
<!-- Node6 -->
<g id="Node000006" class="node">
<title>Node6</title>
<g id="a_Node000006"><a xlink:href="../../dd/d91/class_lista_dupla.html#a924380dcc218b78c4de0e0accc80e012" target="_top" xlink:title="Remove a tarefa da lista, mas mantém o nó na lista sem referência à tarefa.">
<polygon fill="white" stroke="#666666" points="507,-153 393.5,-153 393.5,-133 507,-133 507,-153"/>
<text text-anchor="middle" x="450.25" y="-139.5" font-family="Helvetica,sans-Serif" font-size="10.00">ListaDupla::lightDelete</text>
</a>
</g>
</g>
<!-- Node1&#45;&gt;Node6 -->
<g id="edge6_Node000001_Node000006" class="edge">
<title>Node1&#45;&gt;Node6</title>
<g id="a_edge6_Node000001_Node000006"><a xlink:title=" ">
<path fill="none" stroke="#63b8ff" d="M554.42,-130.26C539.33,-132.12 522.71,-134.18 507.29,-136.08"/>
<polygon fill="#63b8ff" stroke="#63b8ff" points="554.6,-133.64 564.1,-128.94 553.74,-126.69 554.6,-133.64"/>
</a>
</g>
</g>
<!-- Node9 -->
<g id="Node000009" class="node">
<title>Node9</title>
<g id="a_Node000009"><a xlink:href="../../dd/d91/class_lista_dupla.html#a0da08b292785498fc7bb358a84bed282" target="_top" xlink:title="Ordena a lista de tarefas por prioridade.">
<polygon fill="white" stroke="#666666" points="529.5,-115 371,-115 371,-95 529.5,-95 529.5,-115"/>
<text text-anchor="middle" x="450.25" y="-101.5" font-family="Helvetica,sans-Serif" font-size="10.00">ListaDupla::ordenarPorPrioridade</text>
</a>
</g>
</g>
<!-- Node1&#45;&gt;Node9 -->
<g id="edge9_Node000001_Node000009" class="edge">
<title>Node1&#45;&gt;Node9</title>
<g id="a_edge9_Node000001_Node000009"><a xlink:title=" ">
<path fill="none" stroke="#63b8ff" d="M554.3,-117.72C546.44,-116.75 538.17,-115.73 529.88,-114.71"/>
<polygon fill="#63b8ff" stroke="#63b8ff" points="553.74,-121.31 564.1,-119.06 554.6,-114.36 553.74,-121.31"/>
</a>
</g>
</g>
<!-- Node12 -->
<g id="Node000012" class="node">
<title>Node12</title>
<g id="a_Node000012"><a xlink:href="../../dd/d91/class_lista_dupla.html#a0ec55e77494913e1041f772fb5abf176" target="_top" xlink:title="Remove a tarefa do fim da lista.">
<polygon fill="white" stroke="#666666" points="509.25,-77 391.25,-77 391.25,-57 509.25,-57 509.25,-77"/>
<text text-anchor="middle" x="450.25" y="-63.5" font-family="Helvetica,sans-Serif" font-size="10.00">ListaDupla::removerFim</text>
</a>
</g>
</g>
<!-- Node1&#45;&gt;Node12 -->
<g id="edge12_Node000001_Node000012" class="edge">
<title>Node1&#45;&gt;Node12</title>
<g id="a_edge12_Node000001_Node000012"><a xlink:title=" ">
<path fill="none" stroke="#63b8ff" d="M577.75,-108.35C563.67,-100.79 546.04,-92.07 529.5,-86 520.71,-82.77 511.16,-79.93 501.85,-77.5"/>
<polygon fill="#63b8ff" stroke="#63b8ff" points="575.85,-111.85 586.31,-113.59 579.22,-105.71 575.85,-111.85"/>
</a>
</g>
</g>
<!-- Node13 -->
<g id="Node000013" class="node">
<title>Node13</title>
<g id="a_Node000013"><a xlink:href="../../dd/d91/class_lista_dupla.html#ab976735e9038a9bd590a764b2a832e45" target="_top" xlink:title="Remove a tarefa da lista pelo índice.">
<polygon fill="white" stroke="#666666" points="333.12,-39 191.12,-39 191.12,-19 333.12,-19 333.12,-39"/>
<text text-anchor="middle" x="262.12" y="-25.5" font-family="Helvetica,sans-Serif" font-size="10.00">ListaDupla::removerPorIndice</text>
</a>
</g>
</g>
<!-- Node1&#45;&gt;Node13 -->
<g id="edge16_Node000001_Node000013" class="edge">
<title>Node1&#45;&gt;Node13</title>
<g id="a_edge16_Node000001_Node000013"><a xlink:title=" ">
<path fill="none" stroke="#63b8ff" d="M592.43,-104.93C579.13,-86.74 556.45,-60.34 529.5,-48 467.64,-19.67 389.17,-17.57 333.46,-20.95"/>
<polygon fill="#63b8ff" stroke="#63b8ff" points="589.89,-106.4 598.5,-112.57 595.62,-102.38 589.89,-106.4"/>
</a>
</g>
</g>
<!-- Node2&#45;&gt;Node3 -->
<g id="edge2_Node000002_Node000003" class="edge">
<title>Node2&#45;&gt;Node3</title>
<g id="a_edge2_Node000002_Node000003"><a xlink:title=" ">
<path fill="none" stroke="#63b8ff" d="M409.58,-251.87C387.69,-259.36 359.96,-268.56 335,-276 325.1,-278.95 314.38,-281.91 304.3,-284.59"/>
<polygon fill="#63b8ff" stroke="#63b8ff" points="410.5,-254.91 418.82,-248.35 408.23,-248.29 410.5,-254.91"/>
</a>
</g>
</g>
<!-- Node4 -->
<g id="Node000004" class="node">
<title>Node4</title>
<g id="a_Node000004"><a xlink:href="../../de/d1c/class_coluna_nomeada.html#a660583902ae4cacabf28e61edee5ccd4" target="_top" xlink:title="Insere uma tarefa na coluna.">
<polygon fill="white" stroke="#666666" points="335,-267 189.25,-267 189.25,-247 335,-247 335,-267"/>
<text text-anchor="middle" x="262.12" y="-253.5" font-family="Helvetica,sans-Serif" font-size="10.00">ColunaNomeada::inserirTarefa</text>
</a>
</g>
</g>
<!-- Node2&#45;&gt;Node4 -->
<g id="edge3_Node000002_Node000004" class="edge">
<title>Node2&#45;&gt;Node4</title>
<g id="a_edge3_Node000002_Node000004"><a xlink:title=" ">
<path fill="none" stroke="#63b8ff" d="M383.99,-244.66C368.27,-246.27 351.38,-247.99 335.35,-249.63"/>
<polygon fill="#63b8ff" stroke="#63b8ff" points="384.07,-248.07 393.66,-243.57 383.36,-241.11 384.07,-248.07"/>
</a>
</g>
</g>
<!-- Node5 -->
<g id="Node000005" class="node">
<title>Node5</title>
<g id="a_Node000005"><a xlink:href="../../d0/d4e/class_coluna_arquivo.html#aeb82024caaccd6083d0ea0447ec2ba7e" target="_top" xlink:title="Insere uma tarefa na coluna.">
<polygon fill="white" stroke="#666666" points="330.12,-229 194.12,-229 194.12,-209 330.12,-209 330.12,-229"/>
<text text-anchor="middle" x="262.12" y="-215.5" font-family="Helvetica,sans-Serif" font-size="10.00">ColunaArquivo::inserirTarefa</text>
</a>
</g>
</g>
<!-- Node2&#45;&gt;Node5 -->
<g id="edge4_Node000002_Node000005" class="edge">
<title>Node2&#45;&gt;Node5</title>
<g id="a_edge4_Node000002_Node000005"><a xlink:title=" ">
<path fill="none" stroke="#63b8ff" d="M384.09,-231.35C366.77,-229.58 348.03,-227.67 330.59,-225.89"/>
<polygon fill="#63b8ff" stroke="#63b8ff" points="383.36,-234.89 393.66,-232.43 384.07,-227.93 383.36,-234.89"/>
</a>
</g>
</g>
<!-- Node7 -->
<g id="Node000007" class="node">
<title>Node7</title>
<g id="a_Node000007"><a xlink:href="../../de/d1c/class_coluna_nomeada.html#ab47ba7b160204e7001f88c06ec25a305" target="_top" xlink:title="Move uma tarefa de uma coluna para outra.">
<polygon fill="white" stroke="#666666" points="334.62,-191 189.62,-191 189.62,-171 334.62,-171 334.62,-191"/>
<text text-anchor="middle" x="262.12" y="-177.5" font-family="Helvetica,sans-Serif" font-size="10.00">ColunaNomeada::moverTarefa</text>
</a>
</g>
</g>
<!-- Node6&#45;&gt;Node7 -->
<g id="edge7_Node000006_Node000007" class="edge">
<title>Node6&#45;&gt;Node7</title>
<g id="a_edge7_Node000006_Node000007"><a xlink:title=" ">
<path fill="none" stroke="#63b8ff" d="M387.26,-155.66C363.58,-160.49 336.87,-165.94 314.31,-170.55"/>
<polygon fill="#63b8ff" stroke="#63b8ff" points="387.8,-158.91 396.9,-153.48 386.4,-152.06 387.8,-158.91"/>
</a>
</g>
</g>
<!-- Node8 -->
<g id="Node000008" class="node">
<title>Node8</title>
<g id="a_Node000008"><a xlink:href="../../d0/d4e/class_coluna_arquivo.html#ac4f7235fe2e8bbcdb959f5100d7c1bb7" target="_top" xlink:title="Move uma tarefa de uma coluna para outra.">
<polygon fill="white" stroke="#666666" points="329.75,-153 194.5,-153 194.5,-133 329.75,-133 329.75,-153"/>
<text text-anchor="middle" x="262.12" y="-139.5" font-family="Helvetica,sans-Serif" font-size="10.00">ColunaArquivo::moverTarefa</text>
</a>
</g>
</g>
<!-- Node6&#45;&gt;Node8 -->
<g id="edge8_Node000006_Node000008" class="edge">
<title>Node6&#45;&gt;Node8</title>
<g id="a_edge8_Node000006_Node000008"><a xlink:title=" ">
<path fill="none" stroke="#63b8ff" d="M382.19,-143C365.18,-143 346.92,-143 329.93,-143"/>
<polygon fill="#63b8ff" stroke="#63b8ff" points="382.15,-146.5 392.15,-143 382.15,-139.5 382.15,-146.5"/>
</a>
</g>
</g>
<!-- Node10 -->
<g id="Node000010" class="node">
<title>Node10</title>
<g id="a_Node000010"><a xlink:href="../../de/d1c/class_coluna_nomeada.html#a73e9583ff304eef0a61d772976dac074" target="_top" xlink:title="Ordena as tarefas da coluna por prioridade.">
<polygon fill="white" stroke="#666666" points="324.88,-115 199.38,-115 199.38,-95 324.88,-95 324.88,-115"/>
<text text-anchor="middle" x="262.12" y="-101.5" font-family="Helvetica,sans-Serif" font-size="10.00">ColunaNomeada::ordenar</text>
</a>
</g>
</g>
<!-- Node9&#45;&gt;Node10 -->
<g id="edge10_Node000009_Node000010" class="edge">
<title>Node9&#45;&gt;Node10</title>
<g id="a_edge10_Node000009_Node000010"><a xlink:title=" ">
<path fill="none" stroke="#63b8ff" d="M359.85,-105C348.11,-105 336.29,-105 325.14,-105"/>
<polygon fill="#63b8ff" stroke="#63b8ff" points="359.59,-108.5 369.59,-105 359.59,-101.5 359.59,-108.5"/>
</a>
</g>
</g>
<!-- Node11 -->
<g id="Node000011" class="node">
<title>Node11</title>
<g id="a_Node000011"><a xlink:href="../../d0/d4e/class_coluna_arquivo.html#af2122dc4d83288ec375515d4d16004a2" target="_top" xlink:title="Ordena as tarefas da coluna por prioridade.">
<polygon fill="white" stroke="#666666" points="320,-77 204.25,-77 204.25,-57 320,-57 320,-77"/>
<text text-anchor="middle" x="262.12" y="-63.5" font-family="Helvetica,sans-Serif" font-size="10.00">ColunaArquivo::ordenar</text>
</a>
</g>
</g>
<!-- Node9&#45;&gt;Node11 -->
<g id="edge11_Node000009_Node000011" class="edge">
<title>Node9&#45;&gt;Node11</title>
<g id="a_edge11_Node000009_Node000011"><a xlink:title=" ">
<path fill="none" stroke="#63b8ff" d="M387.26,-92.34C363.58,-87.51 336.87,-82.06 314.31,-77.45"/>
<polygon fill="#63b8ff" stroke="#63b8ff" points="386.4,-95.94 396.9,-94.52 387.8,-89.09 386.4,-95.94"/>
</a>
</g>
</g>
<!-- Node12&#45;&gt;Node13 -->
<g id="edge13_Node000012_Node000013" class="edge">
<title>Node12&#45;&gt;Node13</title>
<g id="a_edge13_Node000012_Node000013"><a xlink:title=" ">
<path fill="none" stroke="#63b8ff" d="M387.26,-54.34C363.58,-49.51 336.87,-44.06 314.31,-39.45"/>
<polygon fill="#63b8ff" stroke="#63b8ff" points="386.4,-57.94 396.9,-56.52 387.8,-51.09 386.4,-57.94"/>
</a>
</g>
</g>
<!-- Node14 -->
<g id="Node000014" class="node">
<title>Node14</title>
<g id="a_Node000014"><a xlink:href="../../de/d1c/class_coluna_nomeada.html#ad9f5dc15ca20616f353008e5a3aa27e3" target="_top" xlink:title="Remove uma tarefa da coluna.">
<polygon fill="white" stroke="#666666" points="153.25,-58 0,-58 0,-38 153.25,-38 153.25,-58"/>
<text text-anchor="middle" x="76.62" y="-44.5" font-family="Helvetica,sans-Serif" font-size="10.00">ColunaNomeada::removerTarefa</text>
</a>
</g>
</g>
<!-- Node13&#45;&gt;Node14 -->
<g id="edge14_Node000013_Node000014" class="edge">
<title>Node13&#45;&gt;Node14</title>
<g id="a_edge14_Node000013_Node000014"><a xlink:title=" ">
<path fill="none" stroke="#63b8ff" d="M179.79,-37.42C171.1,-38.32 162.28,-39.23 153.65,-40.13"/>
<polygon fill="#63b8ff" stroke="#63b8ff" points="180.12,-40.8 189.7,-36.29 179.4,-33.84 180.12,-40.8"/>
</a>
</g>
</g>
<!-- Node15 -->
<g id="Node000015" class="node">
<title>Node15</title>
<g id="a_Node000015"><a xlink:href="../../d0/d4e/class_coluna_arquivo.html#aae317988e21d9072edf5de1543085f14" target="_top" xlink:title="Remove uma tarefa da coluna.">
<polygon fill="white" stroke="#666666" points="148.38,-20 4.88,-20 4.88,0 148.38,0 148.38,-20"/>
<text text-anchor="middle" x="76.62" y="-6.5" font-family="Helvetica,sans-Serif" font-size="10.00">ColunaArquivo::removerTarefa</text>
</a>
</g>
</g>
<!-- Node13&#45;&gt;Node15 -->
<g id="edge15_Node000013_Node000015" class="edge">
<title>Node13&#45;&gt;Node15</title>
<g id="a_edge15_Node000013_Node000015"><a xlink:title=" ">
<path fill="none" stroke="#63b8ff" d="M179.96,-20.6C169.57,-19.52 158.99,-18.42 148.77,-17.37"/>
<polygon fill="#63b8ff" stroke="#63b8ff" points="179.4,-24.16 189.7,-21.71 180.12,-17.2 179.4,-24.16"/>
</a>
</g>
</g>
</g>
</svg>

<g id="navigator" transform="translate(0 0)" fill="#404254">
  <rect fill="#f2f5e9" fill-opacity="0.5" stroke="#606060" stroke-width=".5" x="0" y="0" width="60" height="60"/>
  <use id="zoomplus" xlink:href="#zoomPlus" x="17" y="9" onmousedown="handleZoom(evt,'in')"/>
  <use id="zoomminus" xlink:href="#zoomMin" x="42" y="9" onmousedown="handleZoom(evt,'out')"/>
  <use id="reset" xlink:href="#resetDef" x="30" y="36" onmousedown="handleReset()"/>
   <use id="arrowup" xlink:href="#arrowUp" x="0" y="0" onmousedown="handlePan(0,-1)"/>
  <use id="arrowright" xlink:href="#arrowRight" x="0" y="0" onmousedown="handlePan(1,0)"/>
  <use id="arrowdown" xlink:href="#arrowDown" x="0" y="0" onmousedown="handlePan(0,1)"/>
  <use id="arrowleft" xlink:href="#arrowLeft" x="0" y="0" onmousedown="handlePan(-1,0)"/>
</g>
<svg viewBox="0 0 15 15" width="100%" height="30px" preserveAspectRatio="xMaxYMin meet">
 <g id="arrow_out" transform="scale(0.3 0.3)">
  <a xlink:href="class_no_a18866d7db046e7987120e93bf1a839d3_icgraph_org.svg" target="_base">
   <rect id="button" ry="5" rx="5" y="6" x="6" height="38" width="38"
        fill="#f2f5e9" fill-opacity="0.5" stroke="#606060" stroke-width="1.0"/>
   <path id="arrow"
     d="M 11.500037,31.436501 C 11.940474,20.09759 22.043105,11.32322 32.158766,21.979434 L 37.068811,17.246167 C 37.068811,17.246167 37.088388,32 37.088388,32 L 22.160133,31.978069 C 22.160133,31.978069 26.997745,27.140456 26.997745,27.140456 C 18.528582,18.264221 13.291696,25.230495 11.500037,31.436501 z"
     style="fill:#404040;"/>
  </a>
 </g>
</svg>

<style type='text/css'>
<![CDATA[
[data-mouse-over-selected='false'] { opacity: 0.7; }
[data-mouse-over-selected='true']  { opacity: 1.0; }
]]>
</style>
<script type="application/ecmascript"><![CDATA[
document.addEventListener('DOMContentLoaded', (event) => {
  highlightEdges();
  highlightAdjacentNodes();
});
]]></script>
</svg>
