<?xml version="1.0" encoding="UTF-8" standalone="no"?>
<!DOCTYPE svg PUBLIC "-//W3C//DTD SVG 1.1//EN"
 "http://www.w3.org/Graphics/SVG/1.1/DTD/svg11.dtd">
<!-- Generated by graphviz version 8.1.0 (20230707.0739)
 -->
<!-- Title: No::setProximo Pages: 1 -->
<!--zoomable 337 -->

<svg id="main" version="1.1" xmlns="http://www.w3.org/2000/svg" xmlns:xlink="http://www.w3.org/1999/xlink" xml:space="preserve" onload="init(evt)">
<style type="text/css"><![CDATA[
.node, .edge {opacity: 0.7;}
.node.selected, .edge.selected {opacity: 1;}
.edge:hover path { stroke: red; }
.edge:hover polygon { stroke: red; fill: red; }
]]></style>

<defs>
  <circle id="rim" cx="0" cy="0" r="7"/>
  <circle id="rim2" cx="0" cy="0" r="3.5"/>
  <g id="zoomPlus">
    <use xlink:href="#rim" fill="#404040"><set attributeName="fill" to="#808080" begin="zoomplus.mouseover" end="zoomplus.mouseout"/></use>
    <path d="M-4,0h8M0,-4v8" fill="none" stroke="white" stroke-width="1.5" pointer-events="none"/>
  </g>
  <g id="zoomMin">
    <use xlink:href="#rim" fill="#404040"><set attributeName="fill" to="#808080" begin="zoomminus.mouseover" end="zoomminus.mouseout"/></use>
    <path d="M-4,0h8" fill="none" stroke="white" stroke-width="1.5" pointer-events="none"/>
  </g>
  <g id="arrowUp" transform="translate(30 24)">
    <use xlink:href="#rim"/>
    <path pointer-events="none" fill="none" stroke="white" stroke-width="1.5" d="M0,-3.0v7 M-2.5,-0.5L0,-3.0L2.5,-0.5"/>
  </g>
  <g id="arrowRight" transform="rotate(90) translate(36 -43)">
    <use xlink:href="#rim"/>
    <path pointer-events="none" fill="none" stroke="white" stroke-width="1.5" d="M0,-3.0v7 M-2.5,-0.5L0,-3.0L2.5,-0.5"/>
  </g>
  <g id="arrowDown" transform="rotate(180) translate(-30 -48)">
    <use xlink:href="#rim"/>
    <path pointer-events="none" fill="none" stroke="white" stroke-width="1.5" d="M0,-3.0v7 M-2.5,-0.5L0,-3.0L2.5,-0.5"/>
  </g>
  <g id="arrowLeft" transform="rotate(270) translate(-36 17)">
    <use xlink:href="#rim"/>
    <path pointer-events="none" fill="none" stroke="white" stroke-width="1.5" d="M0,-3.0v7 M-2.5,-0.5L0,-3.0L2.5,-0.5"/>
  </g>
  <g id="resetDef">
    <use xlink:href="#rim2" fill="#404040"><set attributeName="fill" to="#808080" begin="reset.mouseover" end="reset.mouseout"/></use>
  </g>
</defs>
<script type="application/ecmascript">
var viewWidth = 657;
var viewHeight = 337;
var sectionId = 'dynsection-5';
</script>
<script type="application/ecmascript" xlink:href="../../svg.min.js"/>
<svg id="graph" class="graph">
<g id="viewport">
<title>No::setProximo</title>
<!-- Node1 -->
<g id="Node000001" class="node">
<title>Node1</title>
<g id="a_Node000001"><a xlink:title="Define o próximo nó.">
<polygon fill="#999999" stroke="#666666" points="649,-172 565.5,-172 565.5,-152 649,-152 649,-172"/>
<text text-anchor="middle" x="607.25" y="-158.5" font-family="Helvetica,sans-Serif" font-size="10.00">No::setProximo</text>
</a>
</g>
</g>
<!-- Node2 -->
<g id="Node000002" class="node">
<title>Node2</title>
<g id="a_Node000002"><a xlink:href="../../dd/d91/class_lista_dupla.html#a997a8daa9fb1ccea46c233558ade8b4b" target="_top" xlink:title="Insere uma tarefa no fim da lista.">
<polygon fill="white" stroke="#666666" points="505.5,-248 395,-248 395,-228 505.5,-228 505.5,-248"/>
<text text-anchor="middle" x="450.25" y="-234.5" font-family="Helvetica,sans-Serif" font-size="10.00">ListaDupla::inserirFim</text>
</a>
</g>
</g>
<!-- Node1&#45;&gt;Node2 -->
<g id="edge1_Node000001_Node000002" class="edge">
<title>Node1&#45;&gt;Node2</title>
<g id="a_edge1_Node000001_Node000002"><a xlink:title=" ">
<path fill="none" stroke="#63b8ff" d="M587.39,-179.42C572.65,-192.14 551.11,-208.87 529.5,-219 522.03,-222.5 513.85,-225.4 505.68,-227.78"/>
<polygon fill="#63b8ff" stroke="#63b8ff" points="589.07,-182.72 594.23,-173.47 584.43,-177.48 589.07,-182.72"/>
</a>
</g>
</g>
<!-- Node3 -->
<g id="Node000003" class="node">
<title>Node3</title>
<g id="a_Node000003"><a xlink:href="../../dd/d91/class_lista_dupla.html#a8c0235db1d94b2dcbd4d22fec5645ac3" target="_top" xlink:title="Insere uma tarefa na lista pelo índice.">
<polygon fill="white" stroke="#666666" points="329.38,-324 194.88,-324 194.88,-304 329.38,-304 329.38,-324"/>
<text text-anchor="middle" x="262.12" y="-310.5" font-family="Helvetica,sans-Serif" font-size="10.00">ListaDupla::inserirPorIndice</text>
</a>
</g>
</g>
<!-- Node1&#45;&gt;Node3 -->
<g id="edge7_Node000001_Node000003" class="edge">
<title>Node1&#45;&gt;Node3</title>
<g id="a_edge7_Node000001_Node000003"><a xlink:title=" ">
<path fill="none" stroke="#63b8ff" d="M600.99,-182.57C592.02,-213.03 570.58,-269.29 529.5,-295 466.33,-334.54 377.46,-331.92 320.08,-324.49"/>
<polygon fill="#63b8ff" stroke="#63b8ff" points="604.55,-183.85 603.84,-173.28 597.8,-181.99 604.55,-183.85"/>
</a>
</g>
</g>
<!-- Node6 -->
<g id="Node000006" class="node">
<title>Node6</title>
<g id="a_Node000006"><a xlink:href="../../dd/d91/class_lista_dupla.html#af02559c4c5c8265c8db861300cf598d8" target="_top" xlink:title="Insere uma tarefa no início da lista.">
<polygon fill="white" stroke="#666666" points="508.5,-286 392,-286 392,-266 508.5,-266 508.5,-286"/>
<text text-anchor="middle" x="450.25" y="-272.5" font-family="Helvetica,sans-Serif" font-size="10.00">ListaDupla::inserirInicio</text>
</a>
</g>
</g>
<!-- Node1&#45;&gt;Node6 -->
<g id="edge5_Node000001_Node000006" class="edge">
<title>Node1&#45;&gt;Node6</title>
<g id="a_edge5_Node000001_Node000006"><a xlink:title=" ">
<path fill="none" stroke="#63b8ff" d="M595.63,-181.74C582.85,-203.56 559.34,-238.09 529.5,-257 523.12,-261.04 515.95,-264.22 508.61,-266.73"/>
<polygon fill="#63b8ff" stroke="#63b8ff" points="599.01,-183.88 600.87,-173.45 592.91,-180.44 599.01,-183.88"/>
</a>
</g>
</g>
<!-- Node7 -->
<g id="Node000007" class="node">
<title>Node7</title>
<g id="a_Node000007"><a xlink:href="../../dd/d91/class_lista_dupla.html#a924380dcc218b78c4de0e0accc80e012" target="_top" xlink:title="Remove a tarefa da lista, mas mantém o nó na lista sem referência à tarefa.">
<polygon fill="white" stroke="#666666" points="507,-210 393.5,-210 393.5,-190 507,-190 507,-210"/>
<text text-anchor="middle" x="450.25" y="-196.5" font-family="Helvetica,sans-Serif" font-size="10.00">ListaDupla::lightDelete</text>
</a>
</g>
</g>
<!-- Node1&#45;&gt;Node7 -->
<g id="edge8_Node000001_Node000007" class="edge">
<title>Node1&#45;&gt;Node7</title>
<g id="a_edge8_Node000001_Node000007"><a xlink:title=" ">
<path fill="none" stroke="#63b8ff" d="M554.72,-174.79C546.3,-176.87 537.66,-179 529.5,-181 518.09,-183.8 505.75,-186.8 494.31,-189.58"/>
<polygon fill="#63b8ff" stroke="#63b8ff" points="555.37,-177.99 564.23,-172.19 553.68,-171.19 555.37,-177.99"/>
</a>
</g>
</g>
<!-- Node10 -->
<g id="Node000010" class="node">
<title>Node10</title>
<g id="a_Node000010"><a xlink:href="../../dd/d91/class_lista_dupla.html#a5c057b40433f1dda8d221809c13c2619" target="_top" xlink:title="Construtor padrão da classe ListaDupla.">
<polygon fill="white" stroke="#666666" points="507,-172 393.5,-172 393.5,-152 507,-152 507,-172"/>
<text text-anchor="middle" x="450.25" y="-158.5" font-family="Helvetica,sans-Serif" font-size="10.00">ListaDupla::ListaDupla</text>
</a>
</g>
</g>
<!-- Node1&#45;&gt;Node10 -->
<g id="edge11_Node000001_Node000010" class="edge">
<title>Node1&#45;&gt;Node10</title>
<g id="a_edge11_Node000001_Node000010"><a xlink:title=" ">
<path fill="none" stroke="#63b8ff" d="M554.43,-162C539.35,-162 522.8,-162 507.46,-162"/>
<polygon fill="#63b8ff" stroke="#63b8ff" points="554.12,-165.5 564.12,-162 554.12,-158.5 554.12,-165.5"/>
</a>
</g>
</g>
<!-- Node11 -->
<g id="Node000011" class="node">
<title>Node11</title>
<g id="a_Node000011"><a xlink:href="../../dd/d91/class_lista_dupla.html#a0da08b292785498fc7bb358a84bed282" target="_top" xlink:title="Ordena a lista de tarefas por prioridade.">
<polygon fill="white" stroke="#666666" points="529.5,-134 371,-134 371,-114 529.5,-114 529.5,-134"/>
<text text-anchor="middle" x="450.25" y="-120.5" font-family="Helvetica,sans-Serif" font-size="10.00">ListaDupla::ordenarPorPrioridade</text>
</a>
</g>
</g>
<!-- Node1&#45;&gt;Node11 -->
<g id="edge12_Node000001_Node000011" class="edge">
<title>Node1&#45;&gt;Node11</title>
<g id="a_edge12_Node000001_Node000011"><a xlink:title=" ">
<path fill="none" stroke="#63b8ff" d="M554.72,-149.21C546.3,-147.13 537.66,-145 529.5,-143 518.09,-140.2 505.75,-137.2 494.31,-134.42"/>
<polygon fill="#63b8ff" stroke="#63b8ff" points="553.68,-152.81 564.23,-151.81 555.37,-146.01 553.68,-152.81"/>
</a>
</g>
</g>
<!-- Node14 -->
<g id="Node000014" class="node">
<title>Node14</title>
<g id="a_Node000014"><a xlink:href="../../dd/d91/class_lista_dupla.html#a0ec55e77494913e1041f772fb5abf176" target="_top" xlink:title="Remove a tarefa do fim da lista.">
<polygon fill="white" stroke="#666666" points="509.25,-96 391.25,-96 391.25,-76 509.25,-76 509.25,-96"/>
<text text-anchor="middle" x="450.25" y="-82.5" font-family="Helvetica,sans-Serif" font-size="10.00">ListaDupla::removerFim</text>
</a>
</g>
</g>
<!-- Node1&#45;&gt;Node14 -->
<g id="edge15_Node000001_Node000014" class="edge">
<title>Node1&#45;&gt;Node14</title>
<g id="a_edge15_Node000001_Node000014"><a xlink:title=" ">
<path fill="none" stroke="#63b8ff" d="M587.39,-144.58C572.65,-131.86 551.11,-115.13 529.5,-105 522.29,-101.62 514.4,-98.8 506.51,-96.46"/>
<polygon fill="#63b8ff" stroke="#63b8ff" points="584.43,-146.52 594.23,-150.53 589.07,-141.28 584.43,-146.52"/>
</a>
</g>
</g>
<!-- Node15 -->
<g id="Node000015" class="node">
<title>Node15</title>
<g id="a_Node000015"><a xlink:href="../../dd/d91/class_lista_dupla.html#ab976735e9038a9bd590a764b2a832e45" target="_top" xlink:title="Remove a tarefa da lista pelo índice.">
<polygon fill="white" stroke="#666666" points="333.12,-58 191.12,-58 191.12,-38 333.12,-38 333.12,-58"/>
<text text-anchor="middle" x="262.12" y="-44.5" font-family="Helvetica,sans-Serif" font-size="10.00">ListaDupla::removerPorIndice</text>
</a>
</g>
</g>
<!-- Node1&#45;&gt;Node15 -->
<g id="edge23_Node000001_Node000015" class="edge">
<title>Node1&#45;&gt;Node15</title>
<g id="a_edge23_Node000001_Node000015"><a xlink:title=" ">
<path fill="none" stroke="#63b8ff" d="M596.54,-142.02C584.36,-119.39 561.14,-83.52 529.5,-67 468.88,-35.35 389.69,-33.86 333.45,-38.29"/>
<polygon fill="#63b8ff" stroke="#63b8ff" points="593.81,-143.36 601.5,-150.65 600.03,-140.16 593.81,-143.36"/>
</a>
</g>
</g>
<!-- Node18 -->
<g id="Node000018" class="node">
<title>Node18</title>
<g id="a_Node000018"><a xlink:href="../../dd/d91/class_lista_dupla.html#a6c0c785cb9c4a4a2fbe25beb370bd102" target="_top" xlink:title="Remove a tarefa do início da lista.">
<polygon fill="white" stroke="#666666" points="512.25,-20 388.25,-20 388.25,0 512.25,0 512.25,-20"/>
<text text-anchor="middle" x="450.25" y="-6.5" font-family="Helvetica,sans-Serif" font-size="10.00">ListaDupla::removerInicio</text>
</a>
</g>
</g>
<!-- Node1&#45;&gt;Node18 -->
<g id="edge19_Node000001_Node000018" class="edge">
<title>Node1&#45;&gt;Node18</title>
<g id="a_edge19_Node000001_Node000018"><a xlink:title=" ">
<path fill="none" stroke="#63b8ff" d="M599.25,-141.29C588.62,-112.94 565.72,-62.35 529.5,-34 522.11,-28.22 513.34,-23.82 504.37,-20.48"/>
<polygon fill="#63b8ff" stroke="#63b8ff" points="596.28,-142.39 602.95,-150.62 602.87,-140.03 596.28,-142.39"/>
</a>
</g>
</g>
<!-- Node2&#45;&gt;Node3 -->
<g id="edge2_Node000002_Node000003" class="edge">
<title>Node2&#45;&gt;Node3</title>
<g id="a_edge2_Node000002_Node000003"><a xlink:title=" ">
<path fill="none" stroke="#63b8ff" d="M384.33,-250.6C379.69,-252.45 375.2,-254.57 371,-257 350.87,-268.67 355.01,-283.13 335,-295 329.23,-298.42 322.83,-301.24 316.31,-303.56"/>
<polygon fill="#63b8ff" stroke="#63b8ff" points="385.37,-253.59 393.64,-246.96 383.05,-246.98 385.37,-253.59"/>
</a>
</g>
</g>
<!-- Node4 -->
<g id="Node000004" class="node">
<title>Node4</title>
<g id="a_Node000004"><a xlink:href="../../de/d1c/class_coluna_nomeada.html#a660583902ae4cacabf28e61edee5ccd4" target="_top" xlink:title="Insere uma tarefa na coluna.">
<polygon fill="white" stroke="#666666" points="335,-286 189.25,-286 189.25,-266 335,-266 335,-286"/>
<text text-anchor="middle" x="262.12" y="-272.5" font-family="Helvetica,sans-Serif" font-size="10.00">ColunaNomeada::inserirTarefa</text>
</a>
</g>
</g>
<!-- Node2&#45;&gt;Node4 -->
<g id="edge3_Node000002_Node000004" class="edge">
<title>Node2&#45;&gt;Node4</title>
<g id="a_edge3_Node000002_Node000004"><a xlink:title=" ">
<path fill="none" stroke="#63b8ff" d="M387.26,-250.66C363.58,-255.49 336.87,-260.94 314.31,-265.55"/>
<polygon fill="#63b8ff" stroke="#63b8ff" points="387.8,-253.91 396.9,-248.48 386.4,-247.06 387.8,-253.91"/>
</a>
</g>
</g>
<!-- Node5 -->
<g id="Node000005" class="node">
<title>Node5</title>
<g id="a_Node000005"><a xlink:href="../../d0/d4e/class_coluna_arquivo.html#aeb82024caaccd6083d0ea0447ec2ba7e" target="_top" xlink:title="Insere uma tarefa na coluna.">
<polygon fill="white" stroke="#666666" points="330.12,-248 194.12,-248 194.12,-228 330.12,-228 330.12,-248"/>
<text text-anchor="middle" x="262.12" y="-234.5" font-family="Helvetica,sans-Serif" font-size="10.00">ColunaArquivo::inserirTarefa</text>
</a>
</g>
</g>
<!-- Node2&#45;&gt;Node5 -->
<g id="edge4_Node000002_Node000005" class="edge">
<title>Node2&#45;&gt;Node5</title>
<g id="a_edge4_Node000002_Node000005"><a xlink:title=" ">
<path fill="none" stroke="#63b8ff" d="M384.09,-238C366.77,-238 348.03,-238 330.59,-238"/>
<polygon fill="#63b8ff" stroke="#63b8ff" points="383.66,-241.5 393.66,-238 383.66,-234.5 383.66,-241.5"/>
</a>
</g>
</g>
<!-- Node6&#45;&gt;Node3 -->
<g id="edge6_Node000006_Node000003" class="edge">
<title>Node6&#45;&gt;Node3</title>
<g id="a_edge6_Node000006_Node000003"><a xlink:title=" ">
<path fill="none" stroke="#63b8ff" d="M387.26,-288.66C363.58,-293.49 336.87,-298.94 314.31,-303.55"/>
<polygon fill="#63b8ff" stroke="#63b8ff" points="387.8,-291.91 396.9,-286.48 386.4,-285.06 387.8,-291.91"/>
</a>
</g>
</g>
<!-- Node8 -->
<g id="Node000008" class="node">
<title>Node8</title>
<g id="a_Node000008"><a xlink:href="../../de/d1c/class_coluna_nomeada.html#ab47ba7b160204e7001f88c06ec25a305" target="_top" xlink:title="Move uma tarefa de uma coluna para outra.">
<polygon fill="white" stroke="#666666" points="334.62,-210 189.62,-210 189.62,-190 334.62,-190 334.62,-210"/>
<text text-anchor="middle" x="262.12" y="-196.5" font-family="Helvetica,sans-Serif" font-size="10.00">ColunaNomeada::moverTarefa</text>
</a>
</g>
</g>
<!-- Node7&#45;&gt;Node8 -->
<g id="edge9_Node000007_Node000008" class="edge">
<title>Node7&#45;&gt;Node8</title>
<g id="a_edge9_Node000007_Node000008"><a xlink:title=" ">
<path fill="none" stroke="#63b8ff" d="M382.2,-200C366.86,-200 350.5,-200 334.97,-200"/>
<polygon fill="#63b8ff" stroke="#63b8ff" points="382.15,-203.5 392.15,-200 382.15,-196.5 382.15,-203.5"/>
</a>
</g>
</g>
<!-- Node9 -->
<g id="Node000009" class="node">
<title>Node9</title>
<g id="a_Node000009"><a xlink:href="../../d0/d4e/class_coluna_arquivo.html#ac4f7235fe2e8bbcdb959f5100d7c1bb7" target="_top" xlink:title="Move uma tarefa de uma coluna para outra.">
<polygon fill="white" stroke="#666666" points="329.75,-172 194.5,-172 194.5,-152 329.75,-152 329.75,-172"/>
<text text-anchor="middle" x="262.12" y="-158.5" font-family="Helvetica,sans-Serif" font-size="10.00">ColunaArquivo::moverTarefa</text>
</a>
</g>
</g>
<!-- Node7&#45;&gt;Node9 -->
<g id="edge10_Node000007_Node000009" class="edge">
<title>Node7&#45;&gt;Node9</title>
<g id="a_edge10_Node000007_Node000009"><a xlink:title=" ">
<path fill="none" stroke="#63b8ff" d="M387.26,-187.34C363.58,-182.51 336.87,-177.06 314.31,-172.45"/>
<polygon fill="#63b8ff" stroke="#63b8ff" points="386.4,-190.94 396.9,-189.52 387.8,-184.09 386.4,-190.94"/>
</a>
</g>
</g>
<!-- Node12 -->
<g id="Node000012" class="node">
<title>Node12</title>
<g id="a_Node000012"><a xlink:href="../../de/d1c/class_coluna_nomeada.html#a73e9583ff304eef0a61d772976dac074" target="_top" xlink:title="Ordena as tarefas da coluna por prioridade.">
<polygon fill="white" stroke="#666666" points="324.88,-134 199.38,-134 199.38,-114 324.88,-114 324.88,-134"/>
<text text-anchor="middle" x="262.12" y="-120.5" font-family="Helvetica,sans-Serif" font-size="10.00">ColunaNomeada::ordenar</text>
</a>
</g>
</g>
<!-- Node11&#45;&gt;Node12 -->
<g id="edge13_Node000011_Node000012" class="edge">
<title>Node11&#45;&gt;Node12</title>
<g id="a_edge13_Node000011_Node000012"><a xlink:title=" ">
<path fill="none" stroke="#63b8ff" d="M359.85,-124C348.11,-124 336.29,-124 325.14,-124"/>
<polygon fill="#63b8ff" stroke="#63b8ff" points="359.59,-127.5 369.59,-124 359.59,-120.5 359.59,-127.5"/>
</a>
</g>
</g>
<!-- Node13 -->
<g id="Node000013" class="node">
<title>Node13</title>
<g id="a_Node000013"><a xlink:href="../../d0/d4e/class_coluna_arquivo.html#af2122dc4d83288ec375515d4d16004a2" target="_top" xlink:title="Ordena as tarefas da coluna por prioridade.">
<polygon fill="white" stroke="#666666" points="320,-96 204.25,-96 204.25,-76 320,-76 320,-96"/>
<text text-anchor="middle" x="262.12" y="-82.5" font-family="Helvetica,sans-Serif" font-size="10.00">ColunaArquivo::ordenar</text>
</a>
</g>
</g>
<!-- Node11&#45;&gt;Node13 -->
<g id="edge14_Node000011_Node000013" class="edge">
<title>Node11&#45;&gt;Node13</title>
<g id="a_edge14_Node000011_Node000013"><a xlink:title=" ">
<path fill="none" stroke="#63b8ff" d="M387.26,-111.34C363.58,-106.51 336.87,-101.06 314.31,-96.45"/>
<polygon fill="#63b8ff" stroke="#63b8ff" points="386.4,-114.94 396.9,-113.52 387.8,-108.09 386.4,-114.94"/>
</a>
</g>
</g>
<!-- Node14&#45;&gt;Node15 -->
<g id="edge16_Node000014_Node000015" class="edge">
<title>Node14&#45;&gt;Node15</title>
<g id="a_edge16_Node000014_Node000015"><a xlink:title=" ">
<path fill="none" stroke="#63b8ff" d="M387.26,-73.34C363.58,-68.51 336.87,-63.06 314.31,-58.45"/>
<polygon fill="#63b8ff" stroke="#63b8ff" points="386.4,-76.94 396.9,-75.52 387.8,-70.09 386.4,-76.94"/>
</a>
</g>
</g>
<!-- Node16 -->
<g id="Node000016" class="node">
<title>Node16</title>
<g id="a_Node000016"><a xlink:href="../../de/d1c/class_coluna_nomeada.html#ad9f5dc15ca20616f353008e5a3aa27e3" target="_top" xlink:title="Remove uma tarefa da coluna.">
<polygon fill="white" stroke="#666666" points="153.25,-96 0,-96 0,-76 153.25,-76 153.25,-96"/>
<text text-anchor="middle" x="76.62" y="-82.5" font-family="Helvetica,sans-Serif" font-size="10.00">ColunaNomeada::removerTarefa</text>
</a>
</g>
</g>
<!-- Node15&#45;&gt;Node16 -->
<g id="edge17_Node000015_Node000016" class="edge">
<title>Node15&#45;&gt;Node16</title>
<g id="a_edge17_Node000015_Node000016"><a xlink:title=" ">
<path fill="none" stroke="#63b8ff" d="M200.01,-60.66C176.66,-65.49 150.33,-70.94 128.09,-75.55"/>
<polygon fill="#63b8ff" stroke="#63b8ff" points="200.41,-63.94 209.5,-58.48 199,-57.08 200.41,-63.94"/>
</a>
</g>
</g>
<!-- Node17 -->
<g id="Node000017" class="node">
<title>Node17</title>
<g id="a_Node000017"><a xlink:href="../../d0/d4e/class_coluna_arquivo.html#aae317988e21d9072edf5de1543085f14" target="_top" xlink:title="Remove uma tarefa da coluna.">
<polygon fill="white" stroke="#666666" points="148.38,-58 4.88,-58 4.88,-38 148.38,-38 148.38,-58"/>
<text text-anchor="middle" x="76.62" y="-44.5" font-family="Helvetica,sans-Serif" font-size="10.00">ColunaArquivo::removerTarefa</text>
</a>
</g>
</g>
<!-- Node15&#45;&gt;Node17 -->
<g id="edge18_Node000015_Node000017" class="edge">
<title>Node15&#45;&gt;Node17</title>
<g id="a_edge18_Node000015_Node000017"><a xlink:title=" ">
<path fill="none" stroke="#63b8ff" d="M179.96,-48C169.57,-48 158.99,-48 148.77,-48"/>
<polygon fill="#63b8ff" stroke="#63b8ff" points="179.7,-51.5 189.7,-48 179.7,-44.5 179.7,-51.5"/>
</a>
</g>
</g>
<!-- Node18&#45;&gt;Node15 -->
<g id="edge22_Node000018_Node000015" class="edge">
<title>Node18&#45;&gt;Node15</title>
<g id="a_edge22_Node000018_Node000015"><a xlink:title=" ">
<path fill="none" stroke="#63b8ff" d="M387.26,-22.66C363.58,-27.49 336.87,-32.94 314.31,-37.55"/>
<polygon fill="#63b8ff" stroke="#63b8ff" points="387.8,-25.91 396.9,-20.48 386.4,-19.06 387.8,-25.91"/>
</a>
</g>
</g>
<!-- Node19 -->
<g id="Node000019" class="node">
<title>Node19</title>
<g id="a_Node000019"><a xlink:href="../../dd/d91/class_lista_dupla.html#abfef1d092f78fb6862087097d809f1e7" target="_top" xlink:title="Remove todos os nós da lista e libera a memória.">
<polygon fill="white" stroke="#666666" points="309.12,-20 215.12,-20 215.12,0 309.12,0 309.12,-20"/>
<text text-anchor="middle" x="262.12" y="-6.5" font-family="Helvetica,sans-Serif" font-size="10.00">ListaDupla::limpar</text>
</a>
</g>
</g>
<!-- Node18&#45;&gt;Node19 -->
<g id="edge20_Node000018_Node000019" class="edge">
<title>Node18&#45;&gt;Node19</title>
<g id="a_edge20_Node000018_Node000019"><a xlink:title=" ">
<path fill="none" stroke="#63b8ff" d="M376.84,-10C354.19,-10 329.83,-10 309.48,-10"/>
<polygon fill="#63b8ff" stroke="#63b8ff" points="376.79,-13.5 386.79,-10 376.79,-6.5 376.79,-13.5"/>
</a>
</g>
</g>
<!-- Node20 -->
<g id="Node000020" class="node">
<title>Node20</title>
<g id="a_Node000020"><a xlink:href="../../dd/d91/class_lista_dupla.html#a63481f371df6767019c8705208067514" target="_top" xlink:title="Destrutor da classe ListaDupla.">
<polygon fill="white" stroke="#666666" points="136.38,-20 16.88,-20 16.88,0 136.38,0 136.38,-20"/>
<text text-anchor="middle" x="76.62" y="-6.5" font-family="Helvetica,sans-Serif" font-size="10.00">ListaDupla::~ListaDupla</text>
</a>
</g>
</g>
<!-- Node19&#45;&gt;Node20 -->
<g id="edge21_Node000019_Node000020" class="edge">
<title>Node19&#45;&gt;Node20</title>
<g id="a_edge21_Node000019_Node000020"><a xlink:title=" ">
<path fill="none" stroke="#63b8ff" d="M203.95,-10C182.59,-10 158.31,-10 136.78,-10"/>
<polygon fill="#63b8ff" stroke="#63b8ff" points="203.82,-13.5 213.82,-10 203.82,-6.5 203.82,-13.5"/>
</a>
</g>
</g>
</g>
</svg>

<g id="navigator" transform="translate(0 0)" fill="#404254">
  <rect fill="#f2f5e9" fill-opacity="0.5" stroke="#606060" stroke-width=".5" x="0" y="0" width="60" height="60"/>
  <use id="zoomplus" xlink:href="#zoomPlus" x="17" y="9" onmousedown="handleZoom(evt,'in')"/>
  <use id="zoomminus" xlink:href="#zoomMin" x="42" y="9" onmousedown="handleZoom(evt,'out')"/>
  <use id="reset" xlink:href="#resetDef" x="30" y="36" onmousedown="handleReset()"/>
   <use id="arrowup" xlink:href="#arrowUp" x="0" y="0" onmousedown="handlePan(0,-1)"/>
  <use id="arrowright" xlink:href="#arrowRight" x="0" y="0" onmousedown="handlePan(1,0)"/>
  <use id="arrowdown" xlink:href="#arrowDown" x="0" y="0" onmousedown="handlePan(0,1)"/>
  <use id="arrowleft" xlink:href="#arrowLeft" x="0" y="0" onmousedown="handlePan(-1,0)"/>
</g>
<svg viewBox="0 0 15 15" width="100%" height="30px" preserveAspectRatio="xMaxYMin meet">
 <g id="arrow_out" transform="scale(0.3 0.3)">
  <a xlink:href="class_no_a1fd6922d7a6b246aa11251effaceeb7b_icgraph_org.svg" target="_base">
   <rect id="button" ry="5" rx="5" y="6" x="6" height="38" width="38"
        fill="#f2f5e9" fill-opacity="0.5" stroke="#606060" stroke-width="1.0"/>
   <path id="arrow"
     d="M 11.500037,31.436501 C 11.940474,20.09759 22.043105,11.32322 32.158766,21.979434 L 37.068811,17.246167 C 37.068811,17.246167 37.088388,32 37.088388,32 L 22.160133,31.978069 C 22.160133,31.978069 26.997745,27.140456 26.997745,27.140456 C 18.528582,18.264221 13.291696,25.230495 11.500037,31.436501 z"
     style="fill:#404040;"/>
  </a>
 </g>
</svg>

<style type='text/css'>
<![CDATA[
[data-mouse-over-selected='false'] { opacity: 0.7; }
[data-mouse-over-selected='true']  { opacity: 1.0; }
]]>
</style>
<script type="application/ecmascript"><![CDATA[
document.addEventListener('DOMContentLoaded', (event) => {
  highlightEdges();
  highlightAdjacentNodes();
});
]]></script>
</svg>
