<?xml version="1.0" encoding="UTF-8" standalone="no"?>
<!DOCTYPE svg PUBLIC "-//W3C//DTD SVG 1.1//EN"
 "http://www.w3.org/Graphics/SVG/1.1/DTD/svg11.dtd">
<!-- Generated by graphviz version 8.1.0 (20230707.0739)
 -->
<!-- Title: ColunaNomeada::removerTarefa Pages: 1 -->
<!--zoomable 237 -->

<svg id="main" version="1.1" xmlns="http://www.w3.org/2000/svg" xmlns:xlink="http://www.w3.org/1999/xlink" xml:space="preserve" onload="init(evt)">
<style type="text/css"><![CDATA[
.node, .edge {opacity: 0.7;}
.node.selected, .edge.selected {opacity: 1;}
.edge:hover path { stroke: red; }
.edge:hover polygon { stroke: red; fill: red; }
]]></style>

<defs>
  <circle id="rim" cx="0" cy="0" r="7"/>
  <circle id="rim2" cx="0" cy="0" r="3.5"/>
  <g id="zoomPlus">
    <use xlink:href="#rim" fill="#404040"><set attributeName="fill" to="#808080" begin="zoomplus.mouseover" end="zoomplus.mouseout"/></use>
    <path d="M-4,0h8M0,-4v8" fill="none" stroke="white" stroke-width="1.5" pointer-events="none"/>
  </g>
  <g id="zoomMin">
    <use xlink:href="#rim" fill="#404040"><set attributeName="fill" to="#808080" begin="zoomminus.mouseover" end="zoomminus.mouseout"/></use>
    <path d="M-4,0h8" fill="none" stroke="white" stroke-width="1.5" pointer-events="none"/>
  </g>
  <g id="arrowUp" transform="translate(30 24)">
    <use xlink:href="#rim"/>
    <path pointer-events="none" fill="none" stroke="white" stroke-width="1.5" d="M0,-3.0v7 M-2.5,-0.5L0,-3.0L2.5,-0.5"/>
  </g>
  <g id="arrowRight" transform="rotate(90) translate(36 -43)">
    <use xlink:href="#rim"/>
    <path pointer-events="none" fill="none" stroke="white" stroke-width="1.5" d="M0,-3.0v7 M-2.5,-0.5L0,-3.0L2.5,-0.5"/>
  </g>
  <g id="arrowDown" transform="rotate(180) translate(-30 -48)">
    <use xlink:href="#rim"/>
    <path pointer-events="none" fill="none" stroke="white" stroke-width="1.5" d="M0,-3.0v7 M-2.5,-0.5L0,-3.0L2.5,-0.5"/>
  </g>
  <g id="arrowLeft" transform="rotate(270) translate(-36 17)">
    <use xlink:href="#rim"/>
    <path pointer-events="none" fill="none" stroke="white" stroke-width="1.5" d="M0,-3.0v7 M-2.5,-0.5L0,-3.0L2.5,-0.5"/>
  </g>
  <g id="resetDef">
    <use xlink:href="#rim2" fill="#404040"><set attributeName="fill" to="#808080" begin="reset.mouseover" end="reset.mouseout"/></use>
  </g>
</defs>
<script type="application/ecmascript">
var viewWidth = 625;
var viewHeight = 237;
var sectionId = 'dynsection-8';
</script>
<script type="application/ecmascript" xlink:href="../../svg.min.js"/>
<svg id="graph" class="graph">
<g id="viewport">
<title>ColunaNomeada::removerTarefa</title>
<!-- Node1 -->
<g id="Node000001" class="node">
<title>Node1</title>
<g id="a_Node000001"><a xlink:title="Remove uma tarefa da coluna.">
<polygon fill="#999999" stroke="#666666" points="153.25,-134 0,-134 0,-114 153.25,-114 153.25,-134"/>
<text text-anchor="middle" x="76.62" y="-120.5" font-family="Helvetica,sans-Serif" font-size="10.00">ColunaNomeada::removerTarefa</text>
</a>
</g>
</g>
<!-- Node2 -->
<g id="Node000002" class="node">
<title>Node2</title>
<g id="a_Node000002"><a xlink:href="../../dd/d91/class_lista_dupla.html#ab976735e9038a9bd590a764b2a832e45" target="_top" xlink:title="Remove a tarefa da lista pelo índice.">
<polygon fill="white" stroke="#666666" points="331.25,-134 189.25,-134 189.25,-114 331.25,-114 331.25,-134"/>
<text text-anchor="middle" x="260.25" y="-120.5" font-family="Helvetica,sans-Serif" font-size="10.00">ListaDupla::removerPorIndice</text>
</a>
</g>
</g>
<!-- Node1&#45;&gt;Node2 -->
<g id="edge1_Node000001_Node000002" class="edge">
<title>Node1&#45;&gt;Node2</title>
<g id="a_edge1_Node000001_Node000002"><a xlink:title=" ">
<path fill="none" stroke="#63b8ff" d="M153.6,-124C161.62,-124 169.8,-124 177.87,-124"/>
<polygon fill="#63b8ff" stroke="#63b8ff" points="177.8,-127.5 187.8,-124 177.8,-120.5 177.8,-127.5"/>
</a>
</g>
</g>
<!-- Node3 -->
<g id="Node000003" class="node">
<title>Node3</title>
<g id="a_Node000003"><a xlink:href="../../d9/d55/class_no.html#a18866d7db046e7987120e93bf1a839d3" target="_top" xlink:title="Obtém o nó anterior.">
<polygon fill="white" stroke="#666666" points="612.62,-229 531.38,-229 531.38,-209 612.62,-209 612.62,-229"/>
<text text-anchor="middle" x="572" y="-215.5" font-family="Helvetica,sans-Serif" font-size="10.00">No::getAnterior</text>
</a>
</g>
</g>
<!-- Node2&#45;&gt;Node3 -->
<g id="edge2_Node000002_Node000003" class="edge">
<title>Node2&#45;&gt;Node3</title>
<g id="a_edge2_Node000002_Node000003"><a xlink:title=" ">
<path fill="none" stroke="#63b8ff" d="M279.04,-134.44C299.64,-146.11 334.89,-164.84 367.25,-176 418.08,-193.52 478.61,-205.2 520.42,-211.91"/>
<polygon fill="#63b8ff" stroke="#63b8ff" points="519.74,-215.5 530.16,-213.59 520.82,-208.58 519.74,-215.5"/>
</a>
</g>
</g>
<!-- Node4 -->
<g id="Node000004" class="node">
<title>Node4</title>
<g id="a_Node000004"><a xlink:href="../../d9/d55/class_no.html#a42bd9dc9c7b24743c82e89b42a1581a2" target="_top" xlink:title="Obtém o próximo nó.">
<polygon fill="white" stroke="#666666" points="613.75,-20 530.25,-20 530.25,0 613.75,0 613.75,-20"/>
<text text-anchor="middle" x="572" y="-6.5" font-family="Helvetica,sans-Serif" font-size="10.00">No::getProximo</text>
</a>
</g>
</g>
<!-- Node2&#45;&gt;Node4 -->
<g id="edge3_Node000002_Node000004" class="edge">
<title>Node2&#45;&gt;Node4</title>
<g id="a_edge3_Node000002_Node000004"><a xlink:title=" ">
<path fill="none" stroke="#63b8ff" d="M271.28,-113.69C288.93,-96.24 327.43,-61.12 367.25,-44 416.1,-23.01 476.7,-14.93 519.06,-11.84"/>
<polygon fill="#63b8ff" stroke="#63b8ff" points="519.21,-15.27 528.96,-11.13 518.75,-8.29 519.21,-15.27"/>
</a>
</g>
</g>
<!-- Node5 -->
<g id="Node000005" class="node">
<title>Node5</title>
<g id="a_Node000005"><a xlink:href="../../d9/d55/class_no.html#a3e8d735fc07c24ecaee4e283ac9a1f36" target="_top" xlink:title="Obtém a tarefa armazenada no nó.">
<polygon fill="white" stroke="#666666" points="608.88,-172 535.12,-172 535.12,-152 608.88,-152 608.88,-172"/>
<text text-anchor="middle" x="572" y="-158.5" font-family="Helvetica,sans-Serif" font-size="10.00">No::getTarefa</text>
</a>
</g>
</g>
<!-- Node2&#45;&gt;Node5 -->
<g id="edge4_Node000002_Node000005" class="edge">
<title>Node2&#45;&gt;Node5</title>
<g id="a_edge4_Node000002_Node000005"><a xlink:title=" ">
<path fill="none" stroke="#63b8ff" d="M285.55,-134.38C306.7,-142.84 338.39,-154.14 367.25,-159 420.3,-167.93 482.21,-167.31 523.74,-165.34"/>
<polygon fill="#63b8ff" stroke="#63b8ff" points="523.83,-168.78 533.63,-164.76 523.46,-161.79 523.83,-168.78"/>
</a>
</g>
</g>
<!-- Node6 -->
<g id="Node000006" class="node">
<title>Node6</title>
<g id="a_Node000006"><a xlink:href="../../dd/d91/class_lista_dupla.html#a0ec55e77494913e1041f772fb5abf176" target="_top" xlink:title="Remove a tarefa do fim da lista.">
<polygon fill="white" stroke="#666666" points="488.25,-134 370.25,-134 370.25,-114 488.25,-114 488.25,-134"/>
<text text-anchor="middle" x="429.25" y="-120.5" font-family="Helvetica,sans-Serif" font-size="10.00">ListaDupla::removerFim</text>
</a>
</g>
</g>
<!-- Node2&#45;&gt;Node6 -->
<g id="edge5_Node000002_Node000006" class="edge">
<title>Node2&#45;&gt;Node6</title>
<g id="a_edge5_Node000002_Node000006"><a xlink:title=" ">
<path fill="none" stroke="#63b8ff" d="M331.59,-124C340.65,-124 349.93,-124 358.97,-124"/>
<polygon fill="#63b8ff" stroke="#63b8ff" points="358.86,-127.5 368.86,-124 358.86,-120.5 358.86,-127.5"/>
</a>
</g>
</g>
<!-- Node7 -->
<g id="Node000007" class="node">
<title>Node7</title>
<g id="a_Node000007"><a xlink:href="../../d9/d55/class_no.html#a337f5ed0c85f3ac6646fd8295f2017a7" target="_top" xlink:title="Define o nó anterior.">
<polygon fill="white" stroke="#666666" points="612.62,-134 531.38,-134 531.38,-114 612.62,-114 612.62,-134"/>
<text text-anchor="middle" x="572" y="-120.5" font-family="Helvetica,sans-Serif" font-size="10.00">No::setAnterior</text>
</a>
</g>
</g>
<!-- Node2&#45;&gt;Node7 -->
<g id="edge17_Node000002_Node000007" class="edge">
<title>Node2&#45;&gt;Node7</title>
<g id="a_edge17_Node000002_Node000007"><a xlink:title=" ">
<path fill="none" stroke="#63b8ff" d="M309.29,-134.47C327.37,-137.92 348.16,-141.3 367.25,-143 422.14,-147.88 436.52,-149.43 491.25,-143 502.17,-141.72 513.76,-139.48 524.62,-136.98"/>
<polygon fill="#63b8ff" stroke="#63b8ff" points="525.3,-140.17 534.19,-134.41 523.65,-133.37 525.3,-140.17"/>
</a>
</g>
</g>
<!-- Node8 -->
<g id="Node000008" class="node">
<title>Node8</title>
<g id="a_Node000008"><a xlink:href="../../d9/d55/class_no.html#a1fd6922d7a6b246aa11251effaceeb7b" target="_top" xlink:title="Define o próximo nó.">
<polygon fill="white" stroke="#666666" points="613.75,-58 530.25,-58 530.25,-38 613.75,-38 613.75,-58"/>
<text text-anchor="middle" x="572" y="-44.5" font-family="Helvetica,sans-Serif" font-size="10.00">No::setProximo</text>
</a>
</g>
</g>
<!-- Node2&#45;&gt;Node8 -->
<g id="edge18_Node000002_Node000008" class="edge">
<title>Node2&#45;&gt;Node8</title>
<g id="a_edge18_Node000002_Node000008"><a xlink:title=" ">
<path fill="none" stroke="#63b8ff" d="M275.86,-113.67C295.56,-100.32 332.24,-77.57 367.25,-67 417.36,-51.87 477.28,-47.86 519.12,-47.19"/>
<polygon fill="#63b8ff" stroke="#63b8ff" points="518.92,-50.68 528.88,-47.08 518.85,-43.68 518.92,-50.68"/>
</a>
</g>
</g>
<!-- Node10 -->
<g id="Node000010" class="node">
<title>Node10</title>
<g id="a_Node000010"><a xlink:href="../../dd/d91/class_lista_dupla.html#a6c0c785cb9c4a4a2fbe25beb370bd102" target="_top" xlink:title="Remove a tarefa do início da lista.">
<polygon fill="white" stroke="#666666" points="491.25,-96 367.25,-96 367.25,-76 491.25,-76 491.25,-96"/>
<text text-anchor="middle" x="429.25" y="-82.5" font-family="Helvetica,sans-Serif" font-size="10.00">ListaDupla::removerInicio</text>
</a>
</g>
</g>
<!-- Node2&#45;&gt;Node10 -->
<g id="edge11_Node000002_Node000010" class="edge">
<title>Node2&#45;&gt;Node10</title>
<g id="a_edge11_Node000002_Node000010"><a xlink:title=" ">
<path fill="none" stroke="#63b8ff" d="M307.33,-113.52C327.22,-108.99 350.69,-103.65 371.64,-98.88"/>
<polygon fill="#63b8ff" stroke="#63b8ff" points="372.35,-102.08 381.32,-96.45 370.8,-95.26 372.35,-102.08"/>
</a>
</g>
</g>
<!-- Node6&#45;&gt;Node3 -->
<g id="edge6_Node000006_Node000003" class="edge">
<title>Node6&#45;&gt;Node3</title>
<g id="a_edge6_Node000006_Node000003"><a xlink:title=" ">
<path fill="none" stroke="#63b8ff" d="M445.58,-134.35C469.91,-150.77 517.56,-182.93 546.61,-202.54"/>
<polygon fill="#63b8ff" stroke="#63b8ff" points="544.44,-205.97 554.69,-208.67 548.36,-200.17 544.44,-205.97"/>
</a>
</g>
</g>
<!-- Node6&#45;&gt;Node5 -->
<g id="edge7_Node000006_Node000005" class="edge">
<title>Node6&#45;&gt;Node5</title>
<g id="a_edge7_Node000006_Node000005"><a xlink:title=" ">
<path fill="none" stroke="#63b8ff" d="M469.08,-134.48C486.14,-139.09 506.32,-144.54 524.21,-149.37"/>
<polygon fill="#63b8ff" stroke="#63b8ff" points="523.14,-152.97 533.71,-152.2 524.97,-146.22 523.14,-152.97"/>
</a>
</g>
</g>
<!-- Node6&#45;&gt;Node7 -->
<g id="edge8_Node000006_Node000007" class="edge">
<title>Node6&#45;&gt;Node7</title>
<g id="a_edge8_Node000006_Node000007"><a xlink:title=" ">
<path fill="none" stroke="#63b8ff" d="M488.72,-124C499.15,-124 509.93,-124 520.13,-124"/>
<polygon fill="#63b8ff" stroke="#63b8ff" points="519.91,-127.5 529.91,-124 519.91,-120.5 519.91,-127.5"/>
</a>
</g>
</g>
<!-- Node6&#45;&gt;Node8 -->
<g id="edge9_Node000006_Node000008" class="edge">
<title>Node6&#45;&gt;Node8</title>
<g id="a_edge9_Node000006_Node000008"><a xlink:title=" ">
<path fill="none" stroke="#63b8ff" d="M473.48,-113.59C479.67,-111.24 485.79,-108.4 491.25,-105 511,-92.7 508.2,-80.35 527.25,-67 528.98,-65.79 530.8,-64.63 532.67,-63.53"/>
<polygon fill="#63b8ff" stroke="#63b8ff" points="534.1,-66.21 541.33,-58.46 530.85,-60 534.1,-66.21"/>
</a>
</g>
</g>
<!-- Node9 -->
<g id="Node000009" class="node">
<title>Node9</title>
<g id="a_Node000009"><a xlink:href="../../dd/d91/class_lista_dupla.html#a66888490f518d19c2d5cb3d3a053b816" target="_top" xlink:title="Verifica se a lista está vazia.">
<polygon fill="white" stroke="#666666" points="616.75,-96 527.25,-96 527.25,-76 616.75,-76 616.75,-96"/>
<text text-anchor="middle" x="572" y="-82.5" font-family="Helvetica,sans-Serif" font-size="10.00">ListaDupla::vazia</text>
</a>
</g>
</g>
<!-- Node6&#45;&gt;Node9 -->
<g id="edge10_Node000006_Node000009" class="edge">
<title>Node6&#45;&gt;Node9</title>
<g id="a_edge10_Node000006_Node000009"><a xlink:title=" ">
<path fill="none" stroke="#63b8ff" d="M469.08,-113.52C485.39,-109.11 504.55,-103.94 521.82,-99.28"/>
<polygon fill="#63b8ff" stroke="#63b8ff" points="522.55,-102.44 531.29,-96.45 520.73,-95.68 522.55,-102.44"/>
</a>
</g>
</g>
<!-- Node10&#45;&gt;Node4 -->
<g id="edge12_Node000010_Node000004" class="edge">
<title>Node10&#45;&gt;Node4</title>
<g id="a_edge12_Node000010_Node000004"><a xlink:title=" ">
<path fill="none" stroke="#63b8ff" d="M446.39,-75.7C465.37,-63.77 498,-43.88 527.25,-29 530.02,-27.59 532.91,-26.19 535.84,-24.82"/>
<polygon fill="#63b8ff" stroke="#63b8ff" points="537.1,-27.64 544.77,-20.33 534.22,-21.26 537.1,-27.64"/>
</a>
</g>
</g>
<!-- Node10&#45;&gt;Node5 -->
<g id="edge13_Node000010_Node000005" class="edge">
<title>Node10&#45;&gt;Node5</title>
<g id="a_edge13_Node000010_Node000005"><a xlink:title=" ">
<path fill="none" stroke="#63b8ff" d="M473.48,-96.41C479.67,-98.76 485.79,-101.6 491.25,-105 511,-117.3 508.2,-129.65 527.25,-143 528.98,-144.21 530.8,-145.37 532.67,-146.47"/>
<polygon fill="#63b8ff" stroke="#63b8ff" points="530.85,-150 541.33,-151.54 534.1,-143.79 530.85,-150"/>
</a>
</g>
</g>
<!-- Node10&#45;&gt;Node7 -->
<g id="edge14_Node000010_Node000007" class="edge">
<title>Node10&#45;&gt;Node7</title>
<g id="a_edge14_Node000010_Node000007"><a xlink:title=" ">
<path fill="none" stroke="#63b8ff" d="M469.08,-96.48C485.39,-100.89 504.55,-106.06 521.82,-110.72"/>
<polygon fill="#63b8ff" stroke="#63b8ff" points="520.73,-114.32 531.29,-113.55 522.55,-107.56 520.73,-114.32"/>
</a>
</g>
</g>
<!-- Node10&#45;&gt;Node8 -->
<g id="edge15_Node000010_Node000008" class="edge">
<title>Node10&#45;&gt;Node8</title>
<g id="a_edge15_Node000010_Node000008"><a xlink:title=" ">
<path fill="none" stroke="#63b8ff" d="M469.08,-75.52C485.39,-71.11 504.55,-65.94 521.82,-61.28"/>
<polygon fill="#63b8ff" stroke="#63b8ff" points="522.55,-64.44 531.29,-58.45 520.73,-57.68 522.55,-64.44"/>
</a>
</g>
</g>
<!-- Node10&#45;&gt;Node9 -->
<g id="edge16_Node000010_Node000009" class="edge">
<title>Node10&#45;&gt;Node9</title>
<g id="a_edge16_Node000010_Node000009"><a xlink:title=" ">
<path fill="none" stroke="#63b8ff" d="M491.58,-86C499.72,-86 508.04,-86 516.07,-86"/>
<polygon fill="#63b8ff" stroke="#63b8ff" points="515.8,-89.5 525.8,-86 515.8,-82.5 515.8,-89.5"/>
</a>
</g>
</g>
</g>
</svg>

<g id="navigator" transform="translate(0 0)" fill="#404254">
  <rect fill="#f2f5e9" fill-opacity="0.5" stroke="#606060" stroke-width=".5" x="0" y="0" width="60" height="60"/>
  <use id="zoomplus" xlink:href="#zoomPlus" x="17" y="9" onmousedown="handleZoom(evt,'in')"/>
  <use id="zoomminus" xlink:href="#zoomMin" x="42" y="9" onmousedown="handleZoom(evt,'out')"/>
  <use id="reset" xlink:href="#resetDef" x="30" y="36" onmousedown="handleReset()"/>
   <use id="arrowup" xlink:href="#arrowUp" x="0" y="0" onmousedown="handlePan(0,-1)"/>
  <use id="arrowright" xlink:href="#arrowRight" x="0" y="0" onmousedown="handlePan(1,0)"/>
  <use id="arrowdown" xlink:href="#arrowDown" x="0" y="0" onmousedown="handlePan(0,1)"/>
  <use id="arrowleft" xlink:href="#arrowLeft" x="0" y="0" onmousedown="handlePan(-1,0)"/>
</g>
<svg viewBox="0 0 15 15" width="100%" height="30px" preserveAspectRatio="xMaxYMin meet">
 <g id="arrow_out" transform="scale(0.3 0.3)">
  <a xlink:href="class_coluna_nomeada_ad9f5dc15ca20616f353008e5a3aa27e3_cgraph_org.svg" target="_base">
   <rect id="button" ry="5" rx="5" y="6" x="6" height="38" width="38"
        fill="#f2f5e9" fill-opacity="0.5" stroke="#606060" stroke-width="1.0"/>
   <path id="arrow"
     d="M 11.500037,31.436501 C 11.940474,20.09759 22.043105,11.32322 32.158766,21.979434 L 37.068811,17.246167 C 37.068811,17.246167 37.088388,32 37.088388,32 L 22.160133,31.978069 C 22.160133,31.978069 26.997745,27.140456 26.997745,27.140456 C 18.528582,18.264221 13.291696,25.230495 11.500037,31.436501 z"
     style="fill:#404040;"/>
  </a>
 </g>
</svg>

<style type='text/css'>
<![CDATA[
[data-mouse-over-selected='false'] { opacity: 0.7; }
[data-mouse-over-selected='true']  { opacity: 1.0; }
]]>
</style>
<script type="application/ecmascript"><![CDATA[
document.addEventListener('DOMContentLoaded', (event) => {
  highlightEdges();
  highlightAdjacentNodes();
});
]]></script>
</svg>
