<?xml version="1.0" encoding="UTF-8" standalone="no"?>
<!DOCTYPE svg PUBLIC "-//W3C//DTD SVG 1.1//EN"
 "http://www.w3.org/Graphics/SVG/1.1/DTD/svg11.dtd">
<!-- Generated by graphviz version 8.1.0 (20230707.0739)
 -->
<!-- Title: ColunaNomeada::moverTarefa Pages: 1 -->
<svg width="439pt" height="180pt"
 viewBox="0.00 0.00 438.50 180.00" xmlns="http://www.w3.org/2000/svg" xmlns:xlink="http://www.w3.org/1999/xlink">
<g id="graph0" class="graph" transform="scale(1 1) rotate(0) translate(4 176)">
<title>ColunaNomeada::moverTarefa</title>
<!-- Node1 -->
<g id="Node000001" class="node">
<title>Node1</title>
<g id="a_Node000001"><a xlink:title="Move uma tarefa de uma coluna para outra.">
<polygon fill="#999999" stroke="#666666" points="145,-96 0,-96 0,-76 145,-76 145,-96"/>
<text text-anchor="middle" x="72.5" y="-82.5" font-family="Helvetica,sans-Serif" font-size="10.00">ColunaNomeada::moverTarefa</text>
</a>
</g>
</g>
<!-- Node2 -->
<g id="Node000002" class="node">
<title>Node2</title>
<g id="a_Node000002"><a xlink:href="../../d3/d3c/class_coluna.html#ac09fa33160badb14b7e4a095f15fb551" target="_top" xlink:title="Insere uma tarefa na coluna.">
<polygon fill="white" stroke="#666666" points="298.25,-134 193.75,-134 193.75,-114 298.25,-114 298.25,-134"/>
<text text-anchor="middle" x="246" y="-120.5" font-family="Helvetica,sans-Serif" font-size="10.00">Coluna::inserirTarefa</text>
</a>
</g>
</g>
<!-- Node1&#45;&gt;Node2 -->
<g id="edge1_Node000001_Node000002" class="edge">
<title>Node1&#45;&gt;Node2</title>
<g id="a_edge1_Node000001_Node000002"><a xlink:title=" ">
<path fill="none" stroke="#63b8ff" d="M120.82,-96.48C141.34,-101.03 165.57,-106.4 187.16,-111.18"/>
<polygon fill="#63b8ff" stroke="#63b8ff" points="186.32,-114.8 196.84,-113.55 187.83,-107.97 186.32,-114.8"/>
</a>
</g>
</g>
<!-- Node3 -->
<g id="Node000003" class="node">
<title>Node3</title>
<g id="a_Node000003"><a xlink:href="../../dd/d91/class_lista_dupla.html#a924380dcc218b78c4de0e0accc80e012" target="_top" xlink:title="Remove a tarefa da lista, mas mantém o nó na lista sem referência à tarefa.">
<polygon fill="white" stroke="#666666" points="302.75,-96 189.25,-96 189.25,-76 302.75,-76 302.75,-96"/>
<text text-anchor="middle" x="246" y="-82.5" font-family="Helvetica,sans-Serif" font-size="10.00">ListaDupla::lightDelete</text>
</a>
</g>
</g>
<!-- Node1&#45;&gt;Node3 -->
<g id="edge2_Node000001_Node000003" class="edge">
<title>Node1&#45;&gt;Node3</title>
<g id="a_edge2_Node000001_Node000003"><a xlink:title=" ">
<path fill="none" stroke="#63b8ff" d="M145.24,-86C156.18,-86 167.44,-86 178.27,-86"/>
<polygon fill="#63b8ff" stroke="#63b8ff" points="177.94,-89.5 187.94,-86 177.94,-82.5 177.94,-89.5"/>
</a>
</g>
</g>
<!-- Node8 -->
<g id="Node000008" class="node">
<title>Node8</title>
<g id="a_Node000008"><a xlink:href="../../dd/d91/class_lista_dupla.html#a837ec6a1d28dbddd64b2028372f846c3" target="_top" xlink:title="Obtém a tarefa da lista pelo índice.">
<polygon fill="white" stroke="#666666" points="311,-58 181,-58 181,-38 311,-38 311,-58"/>
<text text-anchor="middle" x="246" y="-44.5" font-family="Helvetica,sans-Serif" font-size="10.00">ListaDupla::obterPorIndice</text>
</a>
</g>
</g>
<!-- Node1&#45;&gt;Node8 -->
<g id="edge7_Node000001_Node000008" class="edge">
<title>Node1&#45;&gt;Node8</title>
<g id="a_edge7_Node000001_Node000008"><a xlink:title=" ">
<path fill="none" stroke="#63b8ff" d="M120.82,-75.52C141.34,-70.97 165.57,-65.6 187.16,-60.82"/>
<polygon fill="#63b8ff" stroke="#63b8ff" points="187.83,-64.03 196.84,-58.45 186.32,-57.2 187.83,-64.03"/>
</a>
</g>
</g>
<!-- Node4 -->
<g id="Node000004" class="node">
<title>Node4</title>
<g id="a_Node000004"><a xlink:href="../../d9/d55/class_no.html#a18866d7db046e7987120e93bf1a839d3" target="_top" xlink:title="Obtém o nó anterior.">
<polygon fill="white" stroke="#666666" points="429.38,-172 348.12,-172 348.12,-152 429.38,-152 429.38,-172"/>
<text text-anchor="middle" x="388.75" y="-158.5" font-family="Helvetica,sans-Serif" font-size="10.00">No::getAnterior</text>
</a>
</g>
</g>
<!-- Node3&#45;&gt;Node4 -->
<g id="edge3_Node000003_Node000004" class="edge">
<title>Node3&#45;&gt;Node4</title>
<g id="a_edge3_Node000003_Node000004"><a xlink:title=" ">
<path fill="none" stroke="#63b8ff" d="M293.02,-96.45C299.29,-98.79 305.47,-101.6 311,-105 330.83,-117.17 328.12,-129.4 347,-143 348.66,-144.2 350.41,-145.35 352.21,-146.45"/>
<polygon fill="#63b8ff" stroke="#63b8ff" points="350.04,-149.8 360.5,-151.54 353.41,-143.67 350.04,-149.8"/>
</a>
</g>
</g>
<!-- Node5 -->
<g id="Node000005" class="node">
<title>Node5</title>
<g id="a_Node000005"><a xlink:href="../../d9/d55/class_no.html#a42bd9dc9c7b24743c82e89b42a1581a2" target="_top" xlink:title="Obtém o próximo nó.">
<polygon fill="white" stroke="#666666" points="430.5,-58 347,-58 347,-38 430.5,-38 430.5,-58"/>
<text text-anchor="middle" x="388.75" y="-44.5" font-family="Helvetica,sans-Serif" font-size="10.00">No::getProximo</text>
</a>
</g>
</g>
<!-- Node3&#45;&gt;Node5 -->
<g id="edge4_Node000003_Node000005" class="edge">
<title>Node3&#45;&gt;Node5</title>
<g id="a_edge4_Node000003_Node000005"><a xlink:title=" ">
<path fill="none" stroke="#63b8ff" d="M285.83,-75.52C302.14,-71.11 321.3,-65.94 338.57,-61.28"/>
<polygon fill="#63b8ff" stroke="#63b8ff" points="339.3,-64.44 348.04,-58.45 337.48,-57.68 339.3,-64.44"/>
</a>
</g>
</g>
<!-- Node6 -->
<g id="Node000006" class="node">
<title>Node6</title>
<g id="a_Node000006"><a xlink:href="../../d9/d55/class_no.html#a337f5ed0c85f3ac6646fd8295f2017a7" target="_top" xlink:title="Define o nó anterior.">
<polygon fill="white" stroke="#666666" points="429.38,-134 348.12,-134 348.12,-114 429.38,-114 429.38,-134"/>
<text text-anchor="middle" x="388.75" y="-120.5" font-family="Helvetica,sans-Serif" font-size="10.00">No::setAnterior</text>
</a>
</g>
</g>
<!-- Node3&#45;&gt;Node6 -->
<g id="edge5_Node000003_Node000006" class="edge">
<title>Node3&#45;&gt;Node6</title>
<g id="a_edge5_Node000003_Node000006"><a xlink:title=" ">
<path fill="none" stroke="#63b8ff" d="M285.83,-96.48C302.14,-100.89 321.3,-106.06 338.57,-110.72"/>
<polygon fill="#63b8ff" stroke="#63b8ff" points="337.48,-114.32 348.04,-113.55 339.3,-107.56 337.48,-114.32"/>
</a>
</g>
</g>
<!-- Node7 -->
<g id="Node000007" class="node">
<title>Node7</title>
<g id="a_Node000007"><a xlink:href="../../d9/d55/class_no.html#a1fd6922d7a6b246aa11251effaceeb7b" target="_top" xlink:title="Define o próximo nó.">
<polygon fill="white" stroke="#666666" points="430.5,-96 347,-96 347,-76 430.5,-76 430.5,-96"/>
<text text-anchor="middle" x="388.75" y="-82.5" font-family="Helvetica,sans-Serif" font-size="10.00">No::setProximo</text>
</a>
</g>
</g>
<!-- Node3&#45;&gt;Node7 -->
<g id="edge6_Node000003_Node000007" class="edge">
<title>Node3&#45;&gt;Node7</title>
<g id="a_edge6_Node000003_Node000007"><a xlink:title=" ">
<path fill="none" stroke="#63b8ff" d="M303.03,-86C313.84,-86 325.13,-86 335.8,-86"/>
<polygon fill="#63b8ff" stroke="#63b8ff" points="335.66,-89.5 345.66,-86 335.66,-82.5 335.66,-89.5"/>
</a>
</g>
</g>
<!-- Node8&#45;&gt;Node5 -->
<g id="edge8_Node000008_Node000005" class="edge">
<title>Node8&#45;&gt;Node5</title>
<g id="a_edge8_Node000008_Node000005"><a xlink:title=" ">
<path fill="none" stroke="#63b8ff" d="M311.2,-48C319.38,-48 327.67,-48 335.63,-48"/>
<polygon fill="#63b8ff" stroke="#63b8ff" points="335.61,-51.5 345.61,-48 335.61,-44.5 335.61,-51.5"/>
</a>
</g>
</g>
<!-- Node9 -->
<g id="Node000009" class="node">
<title>Node9</title>
<g id="a_Node000009"><a xlink:href="../../d9/d55/class_no.html#a3e8d735fc07c24ecaee4e283ac9a1f36" target="_top" xlink:title="Obtém a tarefa armazenada no nó.">
<polygon fill="white" stroke="#666666" points="425.62,-20 351.88,-20 351.88,0 425.62,0 425.62,-20"/>
<text text-anchor="middle" x="388.75" y="-6.5" font-family="Helvetica,sans-Serif" font-size="10.00">No::getTarefa</text>
</a>
</g>
</g>
<!-- Node8&#45;&gt;Node9 -->
<g id="edge9_Node000008_Node000009" class="edge">
<title>Node8&#45;&gt;Node9</title>
<g id="a_edge9_Node000008_Node000009"><a xlink:title=" ">
<path fill="none" stroke="#63b8ff" d="M285.83,-37.52C302.89,-32.91 323.07,-27.46 340.96,-22.63"/>
<polygon fill="#63b8ff" stroke="#63b8ff" points="341.72,-25.78 350.46,-19.8 339.89,-19.03 341.72,-25.78"/>
</a>
</g>
</g>
</g>
</svg>
