<?xml version="1.0" encoding="UTF-8" standalone="no"?>
<!DOCTYPE svg PUBLIC "-//W3C//DTD SVG 1.1//EN"
 "http://www.w3.org/Graphics/SVG/1.1/DTD/svg11.dtd">
<!-- Generated by graphviz version 8.1.0 (20230707.0739)
 -->
<!-- Title: ColunaNomeada::ordenar Pages: 1 -->
<svg width="469pt" height="218pt"
 viewBox="0.00 0.00 469.25 218.00" xmlns="http://www.w3.org/2000/svg" xmlns:xlink="http://www.w3.org/1999/xlink">
<g id="graph0" class="graph" transform="scale(1 1) rotate(0) translate(4 214)">
<title>ColunaNomeada::ordenar</title>
<!-- Node1 -->
<g id="Node000001" class="node">
<title>Node1</title>
<g id="a_Node000001"><a xlink:title="Ordena as tarefas da coluna por prioridade.">
<polygon fill="#999999" stroke="#666666" points="125.5,-115 0,-115 0,-95 125.5,-95 125.5,-115"/>
<text text-anchor="middle" x="62.75" y="-101.5" font-family="Helvetica,sans-Serif" font-size="10.00">ColunaNomeada::ordenar</text>
</a>
</g>
</g>
<!-- Node2 -->
<g id="Node000002" class="node">
<title>Node2</title>
<g id="a_Node000002"><a xlink:href="../../dd/d91/class_lista_dupla.html#a0da08b292785498fc7bb358a84bed282" target="_top" xlink:title="Ordena a lista de tarefas por prioridade.">
<polygon fill="white" stroke="#666666" points="320,-115 161.5,-115 161.5,-95 320,-95 320,-115"/>
<text text-anchor="middle" x="240.75" y="-101.5" font-family="Helvetica,sans-Serif" font-size="10.00">ListaDupla::ordenarPorPrioridade</text>
</a>
</g>
</g>
<!-- Node1&#45;&gt;Node2 -->
<g id="edge1_Node000001_Node000002" class="edge">
<title>Node1&#45;&gt;Node2</title>
<g id="a_edge1_Node000001_Node000002"><a xlink:title=" ">
<path fill="none" stroke="#63b8ff" d="M125.8,-105C133.78,-105 142.08,-105 150.39,-105"/>
<polygon fill="#63b8ff" stroke="#63b8ff" points="150.3,-108.5 160.3,-105 150.3,-101.5 150.3,-108.5"/>
</a>
</g>
</g>
<!-- Node3 -->
<g id="Node000003" class="node">
<title>Node3</title>
<g id="a_Node000003"><a xlink:href="../../d9/d55/class_no.html#a18866d7db046e7987120e93bf1a839d3" target="_top" xlink:title="Obtém o nó anterior.">
<polygon fill="white" stroke="#666666" points="449.25,-210 368,-210 368,-190 449.25,-190 449.25,-210"/>
<text text-anchor="middle" x="408.62" y="-196.5" font-family="Helvetica,sans-Serif" font-size="10.00">No::getAnterior</text>
</a>
</g>
</g>
<!-- Node2&#45;&gt;Node3 -->
<g id="edge2_Node000002_Node000003" class="edge">
<title>Node2&#45;&gt;Node3</title>
<g id="a_edge2_Node000002_Node000003"><a xlink:title=" ">
<path fill="none" stroke="#63b8ff" d="M255.18,-115.46C275.9,-131.24 317.34,-161.37 356,-181 359.11,-182.58 362.38,-184.09 365.7,-185.53"/>
<polygon fill="#63b8ff" stroke="#63b8ff" points="364.15,-189.08 374.73,-189.59 366.78,-182.59 364.15,-189.08"/>
</a>
</g>
</g>
<!-- Node4 -->
<g id="Node000004" class="node">
<title>Node4</title>
<g id="a_Node000004"><a xlink:href="../../da/d23/class_tarefa.html#a7bf9fd90402ab301884f4dcbb36dcec8" target="_top" xlink:title="Obtém a prioridade da tarefa.">
<polygon fill="white" stroke="#666666" points="461.25,-172 356,-172 356,-152 461.25,-152 461.25,-172"/>
<text text-anchor="middle" x="408.62" y="-158.5" font-family="Helvetica,sans-Serif" font-size="10.00">Tarefa::getPrioridade</text>
</a>
</g>
</g>
<!-- Node2&#45;&gt;Node4 -->
<g id="edge3_Node000002_Node000004" class="edge">
<title>Node2&#45;&gt;Node4</title>
<g id="a_edge3_Node000002_Node000004"><a xlink:title=" ">
<path fill="none" stroke="#63b8ff" d="M272.17,-115.45C298.75,-124.59 337.54,-137.92 366.8,-147.97"/>
<polygon fill="#63b8ff" stroke="#63b8ff" points="365.52,-151.58 376.11,-151.52 367.79,-144.96 365.52,-151.58"/>
</a>
</g>
</g>
<!-- Node5 -->
<g id="Node000005" class="node">
<title>Node5</title>
<g id="a_Node000005"><a xlink:href="../../d9/d55/class_no.html#a42bd9dc9c7b24743c82e89b42a1581a2" target="_top" xlink:title="Obtém o próximo nó.">
<polygon fill="white" stroke="#666666" points="450.38,-134 366.88,-134 366.88,-114 450.38,-114 450.38,-134"/>
<text text-anchor="middle" x="408.62" y="-120.5" font-family="Helvetica,sans-Serif" font-size="10.00">No::getProximo</text>
</a>
</g>
</g>
<!-- Node2&#45;&gt;Node5 -->
<g id="edge4_Node000002_Node000005" class="edge">
<title>Node2&#45;&gt;Node5</title>
<g id="a_edge4_Node000002_Node000005"><a xlink:title=" ">
<path fill="none" stroke="#63b8ff" d="M320.32,-114C332.5,-115.39 344.81,-116.8 356.19,-118.11"/>
<polygon fill="#63b8ff" stroke="#63b8ff" points="355.45,-121.66 365.78,-119.32 356.25,-114.71 355.45,-121.66"/>
</a>
</g>
</g>
<!-- Node6 -->
<g id="Node000006" class="node">
<title>Node6</title>
<g id="a_Node000006"><a xlink:href="../../d9/d55/class_no.html#a3e8d735fc07c24ecaee4e283ac9a1f36" target="_top" xlink:title="Obtém a tarefa armazenada no nó.">
<polygon fill="white" stroke="#666666" points="445.5,-96 371.75,-96 371.75,-76 445.5,-76 445.5,-96"/>
<text text-anchor="middle" x="408.62" y="-82.5" font-family="Helvetica,sans-Serif" font-size="10.00">No::getTarefa</text>
</a>
</g>
</g>
<!-- Node2&#45;&gt;Node6 -->
<g id="edge5_Node000002_Node000006" class="edge">
<title>Node2&#45;&gt;Node6</title>
<g id="a_edge5_Node000002_Node000006"><a xlink:title=" ">
<path fill="none" stroke="#63b8ff" d="M320.32,-96C334.18,-94.41 348.2,-92.81 360.83,-91.36"/>
<polygon fill="#63b8ff" stroke="#63b8ff" points="361,-94.75 370.54,-90.13 360.2,-87.79 361,-94.75"/>
</a>
</g>
</g>
<!-- Node7 -->
<g id="Node000007" class="node">
<title>Node7</title>
<g id="a_Node000007"><a xlink:href="../../d9/d55/class_no.html#a337f5ed0c85f3ac6646fd8295f2017a7" target="_top" xlink:title="Define o nó anterior.">
<polygon fill="white" stroke="#666666" points="449.25,-58 368,-58 368,-38 449.25,-38 449.25,-58"/>
<text text-anchor="middle" x="408.62" y="-44.5" font-family="Helvetica,sans-Serif" font-size="10.00">No::setAnterior</text>
</a>
</g>
</g>
<!-- Node2&#45;&gt;Node7 -->
<g id="edge6_Node000002_Node000007" class="edge">
<title>Node2&#45;&gt;Node7</title>
<g id="a_edge6_Node000002_Node000007"><a xlink:title=" ">
<path fill="none" stroke="#63b8ff" d="M272.17,-94.55C298.75,-85.41 337.54,-72.08 366.8,-62.03"/>
<polygon fill="#63b8ff" stroke="#63b8ff" points="367.79,-65.04 376.11,-58.48 365.52,-58.42 367.79,-65.04"/>
</a>
</g>
</g>
<!-- Node8 -->
<g id="Node000008" class="node">
<title>Node8</title>
<g id="a_Node000008"><a xlink:href="../../d9/d55/class_no.html#a1fd6922d7a6b246aa11251effaceeb7b" target="_top" xlink:title="Define o próximo nó.">
<polygon fill="white" stroke="#666666" points="450.38,-20 366.88,-20 366.88,0 450.38,0 450.38,-20"/>
<text text-anchor="middle" x="408.62" y="-6.5" font-family="Helvetica,sans-Serif" font-size="10.00">No::setProximo</text>
</a>
</g>
</g>
<!-- Node2&#45;&gt;Node8 -->
<g id="edge7_Node000002_Node000008" class="edge">
<title>Node2&#45;&gt;Node8</title>
<g id="a_edge7_Node000002_Node000008"><a xlink:title=" ">
<path fill="none" stroke="#63b8ff" d="M255.18,-94.54C275.9,-78.76 317.34,-48.63 356,-29 359.11,-27.42 362.38,-25.91 365.7,-24.47"/>
<polygon fill="#63b8ff" stroke="#63b8ff" points="366.78,-27.41 374.73,-20.41 364.15,-20.92 366.78,-27.41"/>
</a>
</g>
</g>
</g>
</svg>
