<?xml version="1.0" encoding="UTF-8" standalone="no"?>
<!DOCTYPE svg PUBLIC "-//W3C//DTD SVG 1.1//EN"
 "http://www.w3.org/Graphics/SVG/1.1/DTD/svg11.dtd">
<!-- Generated by graphviz version 8.1.0 (20230707.0739)
 -->
<!-- Title: ColunaNomeada::imprimir Pages: 1 -->
<svg width="421pt" height="85pt"
 viewBox="0.00 0.00 421.25 85.00" xmlns="http://www.w3.org/2000/svg" xmlns:xlink="http://www.w3.org/1999/xlink">
<g id="graph0" class="graph" transform="scale(1 1) rotate(0) translate(4 81)">
<title>ColunaNomeada::imprimir</title>
<!-- Node1 -->
<g id="Node000001" class="node">
<title>Node1</title>
<g id="a_Node000001"><a xlink:title="Imprime as informações da coluna.">
<polygon fill="#999999" stroke="#666666" points="127.75,-58 0,-58 0,-38 127.75,-38 127.75,-58"/>
<text text-anchor="middle" x="63.88" y="-44.5" font-family="Helvetica,sans-Serif" font-size="10.00">ColunaNomeada::imprimir</text>
</a>
</g>
</g>
<!-- Node2 -->
<g id="Node000002" class="node">
<title>Node2</title>
<g id="a_Node000002"><a xlink:href="../../dd/d91/class_lista_dupla.html#a86f5652f339d3af5fd81c6b913c95a52" target="_top" xlink:title="Obtém o tamanho da lista.">
<polygon fill="white" stroke="#666666" points="289.25,-77 168.25,-77 168.25,-57 289.25,-57 289.25,-77"/>
<text text-anchor="middle" x="228.75" y="-63.5" font-family="Helvetica,sans-Serif" font-size="10.00">ListaDupla::getTamanho</text>
</a>
</g>
</g>
<!-- Node1&#45;&gt;Node2 -->
<g id="edge1_Node000001_Node000002" class="edge">
<title>Node1&#45;&gt;Node2</title>
<g id="a_edge1_Node000001_Node000002"><a xlink:title=" ">
<path fill="none" stroke="#63b8ff" d="M127.85,-55.35C137.41,-56.46 147.33,-57.62 157.04,-58.75"/>
<polygon fill="#63b8ff" stroke="#63b8ff" points="156.55,-62.33 166.89,-60.02 157.36,-55.38 156.55,-62.33"/>
</a>
</g>
</g>
<!-- Node3 -->
<g id="Node000003" class="node">
<title>Node3</title>
<g id="a_Node000003"><a xlink:href="../../dd/d91/class_lista_dupla.html#a837ec6a1d28dbddd64b2028372f846c3" target="_top" xlink:title="Obtém a tarefa da lista pelo índice.">
<polygon fill="white" stroke="#666666" points="293.75,-39 163.75,-39 163.75,-19 293.75,-19 293.75,-39"/>
<text text-anchor="middle" x="228.75" y="-25.5" font-family="Helvetica,sans-Serif" font-size="10.00">ListaDupla::obterPorIndice</text>
</a>
</g>
</g>
<!-- Node1&#45;&gt;Node3 -->
<g id="edge2_Node000001_Node000003" class="edge">
<title>Node1&#45;&gt;Node3</title>
<g id="a_edge2_Node000001_Node000003"><a xlink:title=" ">
<path fill="none" stroke="#63b8ff" d="M127.85,-40.65C135.94,-39.71 144.29,-38.74 152.55,-37.77"/>
<polygon fill="#63b8ff" stroke="#63b8ff" points="152.8,-41.15 162.33,-36.51 151.99,-34.2 152.8,-41.15"/>
</a>
</g>
</g>
<!-- Node4 -->
<g id="Node000004" class="node">
<title>Node4</title>
<g id="a_Node000004"><a xlink:href="../../d9/d55/class_no.html#a42bd9dc9c7b24743c82e89b42a1581a2" target="_top" xlink:title="Obtém o próximo nó.">
<polygon fill="white" stroke="#666666" points="413.25,-58 329.75,-58 329.75,-38 413.25,-38 413.25,-58"/>
<text text-anchor="middle" x="371.5" y="-44.5" font-family="Helvetica,sans-Serif" font-size="10.00">No::getProximo</text>
</a>
</g>
</g>
<!-- Node3&#45;&gt;Node4 -->
<g id="edge3_Node000003_Node000004" class="edge">
<title>Node3&#45;&gt;Node4</title>
<g id="a_edge3_Node000003_Node000004"><a xlink:title=" ">
<path fill="none" stroke="#63b8ff" d="M293.95,-37.67C302.22,-38.78 310.61,-39.92 318.65,-41"/>
<polygon fill="#63b8ff" stroke="#63b8ff" points="317.98,-44.58 328.36,-42.45 318.92,-37.64 317.98,-44.58"/>
</a>
</g>
</g>
<!-- Node5 -->
<g id="Node000005" class="node">
<title>Node5</title>
<g id="a_Node000005"><a xlink:href="../../d9/d55/class_no.html#a3e8d735fc07c24ecaee4e283ac9a1f36" target="_top" xlink:title="Obtém a tarefa armazenada no nó.">
<polygon fill="white" stroke="#666666" points="408.38,-20 334.62,-20 334.62,0 408.38,0 408.38,-20"/>
<text text-anchor="middle" x="371.5" y="-6.5" font-family="Helvetica,sans-Serif" font-size="10.00">No::getTarefa</text>
</a>
</g>
</g>
<!-- Node3&#45;&gt;Node5 -->
<g id="edge4_Node000003_Node000005" class="edge">
<title>Node3&#45;&gt;Node5</title>
<g id="a_edge4_Node000003_Node000005"><a xlink:title=" ">
<path fill="none" stroke="#63b8ff" d="M293.95,-20.33C303.95,-18.98 314.13,-17.61 323.65,-16.32"/>
<polygon fill="#63b8ff" stroke="#63b8ff" points="324.04,-19.67 333.48,-14.86 323.1,-12.73 324.04,-19.67"/>
</a>
</g>
</g>
</g>
</svg>
