<?xml version="1.0" encoding="UTF-8" standalone="no"?>
<!DOCTYPE svg PUBLIC "-//W3C//DTD SVG 1.1//EN"
 "http://www.w3.org/Graphics/SVG/1.1/DTD/svg11.dtd">
<!-- Generated by graphviz version 8.1.0 (20230707.0739)
 -->
<!-- Title: ColunaNomeada::inserirTarefa Pages: 1 -->
<svg width="420pt" height="104pt"
 viewBox="0.00 0.00 419.75 104.00" xmlns="http://www.w3.org/2000/svg" xmlns:xlink="http://www.w3.org/1999/xlink">
<g id="graph0" class="graph" transform="scale(1 1) rotate(0) translate(4 100)">
<title>ColunaNomeada::inserirTarefa</title>
<!-- Node1 -->
<g id="Node000001" class="node">
<title>Node1</title>
<g id="a_Node000001"><a xlink:title="Insere uma tarefa na coluna.">
<polygon fill="#999999" stroke="#666666" points="145.75,-58 0,-58 0,-38 145.75,-38 145.75,-58"/>
<text text-anchor="middle" x="72.88" y="-44.5" font-family="Helvetica,sans-Serif" font-size="10.00">ColunaNomeada::inserirTarefa</text>
</a>
</g>
</g>
<!-- Node2 -->
<g id="Node000002" class="node">
<title>Node2</title>
<g id="a_Node000002"><a xlink:href="../../dd/d91/class_lista_dupla.html#a997a8daa9fb1ccea46c233558ade8b4b" target="_top" xlink:title="Insere uma tarefa no fim da lista.">
<polygon fill="white" stroke="#666666" points="292.25,-58 181.75,-58 181.75,-38 292.25,-38 292.25,-58"/>
<text text-anchor="middle" x="237" y="-44.5" font-family="Helvetica,sans-Serif" font-size="10.00">ListaDupla::inserirFim</text>
</a>
</g>
</g>
<!-- Node1&#45;&gt;Node2 -->
<g id="edge1_Node000001_Node000002" class="edge">
<title>Node1&#45;&gt;Node2</title>
<g id="a_edge1_Node000001_Node000002"><a xlink:title=" ">
<path fill="none" stroke="#63b8ff" d="M145.93,-48C154.19,-48 162.57,-48 170.73,-48"/>
<polygon fill="#63b8ff" stroke="#63b8ff" points="170.69,-51.5 180.69,-48 170.69,-44.5 170.69,-51.5"/>
</a>
</g>
</g>
<!-- Node3 -->
<g id="Node000003" class="node">
<title>Node3</title>
<g id="a_Node000003"><a xlink:href="../../d9/d55/class_no.html#a18866d7db046e7987120e93bf1a839d3" target="_top" xlink:title="Obtém o nó anterior.">
<polygon fill="white" stroke="#666666" points="410.62,-96 329.38,-96 329.38,-76 410.62,-76 410.62,-96"/>
<text text-anchor="middle" x="370" y="-82.5" font-family="Helvetica,sans-Serif" font-size="10.00">No::getAnterior</text>
</a>
</g>
</g>
<!-- Node2&#45;&gt;Node3 -->
<g id="edge2_Node000002_Node000003" class="edge">
<title>Node2&#45;&gt;Node3</title>
<g id="a_edge2_Node000002_Node000003"><a xlink:title=" ">
<path fill="none" stroke="#63b8ff" d="M274.14,-58.48C289.18,-62.85 306.81,-67.96 322.77,-72.59"/>
<polygon fill="#63b8ff" stroke="#63b8ff" points="321.4,-76.13 331.97,-75.55 323.35,-69.4 321.4,-76.13"/>
</a>
</g>
</g>
<!-- Node4 -->
<g id="Node000004" class="node">
<title>Node4</title>
<g id="a_Node000004"><a xlink:href="../../d9/d55/class_no.html#a337f5ed0c85f3ac6646fd8295f2017a7" target="_top" xlink:title="Define o nó anterior.">
<polygon fill="white" stroke="#666666" points="410.62,-58 329.38,-58 329.38,-38 410.62,-38 410.62,-58"/>
<text text-anchor="middle" x="370" y="-44.5" font-family="Helvetica,sans-Serif" font-size="10.00">No::setAnterior</text>
</a>
</g>
</g>
<!-- Node2&#45;&gt;Node4 -->
<g id="edge3_Node000002_Node000004" class="edge">
<title>Node2&#45;&gt;Node4</title>
<g id="a_edge3_Node000002_Node000004"><a xlink:title=" ">
<path fill="none" stroke="#63b8ff" d="M292.42,-48C300.92,-48 309.68,-48 318.11,-48"/>
<polygon fill="#63b8ff" stroke="#63b8ff" points="317.93,-51.5 327.93,-48 317.93,-44.5 317.93,-51.5"/>
</a>
</g>
</g>
<!-- Node5 -->
<g id="Node000005" class="node">
<title>Node5</title>
<g id="a_Node000005"><a xlink:href="../../d9/d55/class_no.html#a1fd6922d7a6b246aa11251effaceeb7b" target="_top" xlink:title="Define o próximo nó.">
<polygon fill="white" stroke="#666666" points="411.75,-20 328.25,-20 328.25,0 411.75,0 411.75,-20"/>
<text text-anchor="middle" x="370" y="-6.5" font-family="Helvetica,sans-Serif" font-size="10.00">No::setProximo</text>
</a>
</g>
</g>
<!-- Node2&#45;&gt;Node5 -->
<g id="edge4_Node000002_Node000005" class="edge">
<title>Node2&#45;&gt;Node5</title>
<g id="a_edge4_Node000002_Node000005"><a xlink:title=" ">
<path fill="none" stroke="#63b8ff" d="M274.14,-37.52C289.18,-33.15 306.81,-28.04 322.77,-23.41"/>
<polygon fill="#63b8ff" stroke="#63b8ff" points="323.35,-26.6 331.97,-20.45 321.4,-19.87 323.35,-26.6"/>
</a>
</g>
</g>
</g>
</svg>
