<?xml version="1.0" encoding="UTF-8" standalone="no"?>
<!DOCTYPE svg PUBLIC "-//W3C//DTD SVG 1.1//EN"
 "http://www.w3.org/Graphics/SVG/1.1/DTD/svg11.dtd">
<!-- Generated by graphviz version 8.1.0 (20230707.0739)
 -->
<!-- Title: Quadro::~Quadro Pages: 1 -->
<svg width="440pt" height="47pt"
 viewBox="0.00 0.00 440.25 47.00" xmlns="http://www.w3.org/2000/svg" xmlns:xlink="http://www.w3.org/1999/xlink">

<svg id="main" version="1.1" xmlns="http://www.w3.org/2000/svg" xmlns:xlink="http://www.w3.org/1999/xlink" xml:space="preserve" onload="init(evt)">
<style type="text/css"><![CDATA[
.node, .edge {opacity: 0.7;}
.node.selected, .edge.selected {opacity: 1;}
.edge:hover path { stroke: red; }
.edge:hover polygon { stroke: red; fill: red; }
]]></style>
<script type="application/ecmascript" xlink:href="../../svg.min.js"/>
<svg id="graph" class="graph">
<g id="graph0" class="graph" transform="scale(1 1) rotate(0) translate(4 43)">
<title>Quadro::~Quadro</title>
<!-- Node1 -->
<g id="Node000001" class="node">
<title>Node1</title>
<g id="a_Node000001"><a xlink:title="Destrutor da classe Quadro.">
<polygon fill="#999999" stroke="#666666" points="91,-20 0,-20 0,0 91,0 91,-20"/>
<text text-anchor="middle" x="45.5" y="-6.5" font-family="Helvetica,sans-Serif" font-size="10.00">Quadro::~Quadro</text>
</a>
</g>
</g>
<!-- Node2 -->
<g id="Node000002" class="node">
<title>Node2</title>
<g id="a_Node000002"><a xlink:href="../../db/dba/class_lista.html#a70571e70c4b7945cc9907e89431624c9" target="_top" xlink:title="Remove todos os nós da lista e libera a memória.">
<polygon fill="white" stroke="#666666" points="196.25,-20 127,-20 127,0 196.25,0 196.25,-20"/>
<text text-anchor="middle" x="161.62" y="-6.5" font-family="Helvetica,sans-Serif" font-size="10.00">Lista::limpar</text>
</a>
</g>
</g>
<!-- Node1&#45;&gt;Node2 -->
<g id="edge1_Node000001_Node000002" class="edge">
<title>Node1&#45;&gt;Node2</title>
<g id="a_edge1_Node000001_Node000002"><a xlink:title=" ">
<path fill="none" stroke="#63b8ff" d="M91.28,-10C99.35,-10 107.76,-10 115.84,-10"/>
<polygon fill="#63b8ff" stroke="#63b8ff" points="115.56,-13.5 125.56,-10 115.56,-6.5 115.56,-13.5"/>
</a>
</g>
</g>
<!-- Node3 -->
<g id="Node000003" class="node">
<title>Node3</title>
<g id="a_Node000003"><a xlink:href="../../db/dba/class_lista.html#a2ab09a2fd57a3adeec30cea8fd9e770d" target="_top" xlink:title="Remove a coluna do início da lista.">
<polygon fill="white" stroke="#666666" points="331.5,-39 232.25,-39 232.25,-19 331.5,-19 331.5,-39"/>
<text text-anchor="middle" x="281.88" y="-25.5" font-family="Helvetica,sans-Serif" font-size="10.00">Lista::removerInicio</text>
</a>
</g>
</g>
<!-- Node2&#45;&gt;Node3 -->
<g id="edge2_Node000002_Node000003" class="edge">
<title>Node2&#45;&gt;Node3</title>
<g id="a_edge2_Node000002_Node000003"><a xlink:title=" ">
<path fill="none" stroke="#63b8ff" d="M196.51,-15.44C204.28,-16.69 212.77,-18.06 221.28,-19.42"/>
<polygon fill="#63b8ff" stroke="#63b8ff" points="220.57,-23.02 231,-21.15 221.69,-16.11 220.57,-23.02"/>
</a>
</g>
</g>
<!-- Node4 -->
<g id="Node000004" class="node">
<title>Node4</title>
<g id="a_Node000004"><a xlink:href="../../db/dba/class_lista.html#a9a8529d0ea4e79cd6b7cd600e556d9f8" target="_top" xlink:title="Verifica se a lista está vazia.">
<polygon fill="white" stroke="#666666" points="432.25,-20 367.5,-20 367.5,0 432.25,0 432.25,-20"/>
<text text-anchor="middle" x="399.88" y="-6.5" font-family="Helvetica,sans-Serif" font-size="10.00">Lista::vazia</text>
</a>
</g>
</g>
<!-- Node2&#45;&gt;Node4 -->
<g id="edge4_Node000002_Node000004" class="edge">
<title>Node2&#45;&gt;Node4</title>
<g id="a_edge4_Node000002_Node000004"><a xlink:title=" ">
<path fill="none" stroke="#63b8ff" d="M196.73,-10C238.87,-10 310.6,-10 356.31,-10"/>
<polygon fill="#63b8ff" stroke="#63b8ff" points="356.06,-13.5 366.05,-10 356.05,-6.5 356.06,-13.5"/>
</a>
</g>
</g>
<!-- Node3&#45;&gt;Node4 -->
<g id="edge3_Node000003_Node000004" class="edge">
<title>Node3&#45;&gt;Node4</title>
<g id="a_edge3_Node000003_Node000004"><a xlink:title=" ">
<path fill="none" stroke="#63b8ff" d="M331.73,-21C339.99,-19.64 348.5,-18.25 356.58,-16.93"/>
<polygon fill="#63b8ff" stroke="#63b8ff" points="356.95,-20.25 366.25,-15.18 355.81,-13.34 356.95,-20.25"/>
</a>
</g>
</g>
</g>
</svg>
</svg>

<style type='text/css'>
<![CDATA[
[data-mouse-over-selected='false'] { opacity: 0.7; }
[data-mouse-over-selected='true']  { opacity: 1.0; }
]]>
</style>
<script type="application/ecmascript"><![CDATA[
document.addEventListener('DOMContentLoaded', (event) => {
  highlightEdges();
  highlightAdjacentNodes();
});
]]></script>
</svg>
