<?xml version="1.0" encoding="UTF-8" standalone="no"?>
<!DOCTYPE svg PUBLIC "-//W3C//DTD SVG 1.1//EN"
 "http://www.w3.org/Graphics/SVG/1.1/DTD/svg11.dtd">
<!-- Generated by graphviz version 8.1.0 (20230707.0739)
 -->
<!-- Title: Quadro::imprimir Pages: 1 -->
<svg width="409pt" height="142pt"
 viewBox="0.00 0.00 409.25 142.00" xmlns="http://www.w3.org/2000/svg" xmlns:xlink="http://www.w3.org/1999/xlink">

<svg id="main" version="1.1" xmlns="http://www.w3.org/2000/svg" xmlns:xlink="http://www.w3.org/1999/xlink" xml:space="preserve" onload="init(evt)">
<style type="text/css"><![CDATA[
.node, .edge {opacity: 0.7;}
.node.selected, .edge.selected {opacity: 1;}
.edge:hover path { stroke: red; }
.edge:hover polygon { stroke: red; fill: red; }
]]></style>
<script type="application/ecmascript" xlink:href="../../svg.min.js"/>
<svg id="graph" class="graph">
<g id="graph0" class="graph" transform="scale(1 1) rotate(0) translate(4 138)">
<title>Quadro::imprimir</title>
<!-- Node1 -->
<g id="Node000001" class="node">
<title>Node1</title>
<g id="a_Node000001"><a xlink:title="Imprime as informações do quadro.">
<polygon fill="#999999" stroke="#666666" points="88,-77 0,-77 0,-57 88,-57 88,-77"/>
<text text-anchor="middle" x="44" y="-63.5" font-family="Helvetica,sans-Serif" font-size="10.00">Quadro::imprimir</text>
</a>
</g>
</g>
<!-- Node2 -->
<g id="Node000002" class="node">
<title>Node2</title>
<g id="a_Node000002"><a xlink:href="../../d3/d3c/class_coluna.html#a25ecf45ce1e1c7a03b9c92d4a5da0544" target="_top" xlink:title="Obtém o nome da coluna.">
<polygon fill="white" stroke="#666666" points="237.5,-134 146.5,-134 146.5,-114 237.5,-114 237.5,-134"/>
<text text-anchor="middle" x="192" y="-120.5" font-family="Helvetica,sans-Serif" font-size="10.00">Coluna::getNome</text>
</a>
</g>
</g>
<!-- Node1&#45;&gt;Node2 -->
<g id="edge1_Node000001_Node000002" class="edge">
<title>Node1&#45;&gt;Node2</title>
<g id="a_edge1_Node000001_Node000002"><a xlink:title=" ">
<path fill="none" stroke="#63b8ff" d="M64.39,-77.49C80.14,-85.72 103.08,-97.07 124,-105 129.03,-106.91 134.33,-108.72 139.67,-110.43"/>
<polygon fill="#63b8ff" stroke="#63b8ff" points="138.3,-113.97 148.89,-113.55 140.35,-107.28 138.3,-113.97"/>
</a>
</g>
</g>
<!-- Node3 -->
<g id="Node000003" class="node">
<title>Node3</title>
<g id="a_Node000003"><a xlink:href="../../d1/d13/class_quadro.html#aad88cee2be59e368c4c09166a7777fb9" target="_top" xlink:title="Obtém o número de colunas do quadro.">
<polygon fill="white" stroke="#666666" points="260,-96 124,-96 124,-76 260,-76 260,-96"/>
<text text-anchor="middle" x="192" y="-82.5" font-family="Helvetica,sans-Serif" font-size="10.00">Quadro::getNumeroColunas</text>
</a>
</g>
</g>
<!-- Node1&#45;&gt;Node3 -->
<g id="edge2_Node000001_Node000003" class="edge">
<title>Node1&#45;&gt;Node3</title>
<g id="a_edge2_Node000001_Node000003"><a xlink:title=" ">
<path fill="none" stroke="#63b8ff" d="M88.41,-72.65C96.21,-73.66 104.56,-74.75 112.99,-75.85"/>
<polygon fill="#63b8ff" stroke="#63b8ff" points="112.32,-79.42 122.69,-77.24 113.22,-72.48 112.32,-79.42"/>
</a>
</g>
</g>
<!-- Node5 -->
<g id="Node000005" class="node">
<title>Node5</title>
<g id="a_Node000005"><a xlink:href="../../d3/d3c/class_coluna.html#a48875a7414e5f4d15bfed749bb0a5586" target="_top" xlink:title="Imprime as informações da coluna.">
<polygon fill="white" stroke="#666666" points="235.25,-58 148.75,-58 148.75,-38 235.25,-38 235.25,-58"/>
<text text-anchor="middle" x="192" y="-44.5" font-family="Helvetica,sans-Serif" font-size="10.00">Coluna::imprimir</text>
</a>
</g>
</g>
<!-- Node1&#45;&gt;Node5 -->
<g id="edge4_Node000001_Node000005" class="edge">
<title>Node1&#45;&gt;Node5</title>
<g id="a_edge4_Node000001_Node000005"><a xlink:title=" ">
<path fill="none" stroke="#63b8ff" d="M88.41,-61.35C103.78,-59.35 121.25,-57.08 137.36,-54.98"/>
<polygon fill="#63b8ff" stroke="#63b8ff" points="137.8,-58.32 147.26,-53.56 136.89,-51.38 137.8,-58.32"/>
</a>
</g>
</g>
<!-- Node6 -->
<g id="Node000006" class="node">
<title>Node6</title>
<g id="a_Node000006"><a xlink:href="../../d1/d13/class_quadro.html#acdcb5194cb4b20e50f6211df473b59f2" target="_top" xlink:title="Obtém uma coluna do quadro pelo índice.">
<polygon fill="white" stroke="#666666" points="244.62,-20 139.38,-20 139.38,0 244.62,0 244.62,-20"/>
<text text-anchor="middle" x="192" y="-6.5" font-family="Helvetica,sans-Serif" font-size="10.00">Quadro::obterColuna</text>
</a>
</g>
</g>
<!-- Node1&#45;&gt;Node6 -->
<g id="edge5_Node000001_Node000006" class="edge">
<title>Node1&#45;&gt;Node6</title>
<g id="a_edge5_Node000001_Node000006"><a xlink:title=" ">
<path fill="none" stroke="#63b8ff" d="M64.39,-56.51C80.14,-48.28 103.08,-36.93 124,-29 129.03,-27.09 134.33,-25.28 139.67,-23.57"/>
<polygon fill="#63b8ff" stroke="#63b8ff" points="140.35,-26.72 148.89,-20.45 138.3,-20.03 140.35,-26.72"/>
</a>
</g>
</g>
<!-- Node4 -->
<g id="Node000004" class="node">
<title>Node4</title>
<g id="a_Node000004"><a xlink:href="../../db/dba/class_lista.html#a5cd63f61264afc88d0a6c290f7cb7320" target="_top" xlink:title="Obtém o tamanho da lista.">
<polygon fill="white" stroke="#666666" points="396.75,-96 300.5,-96 300.5,-76 396.75,-76 396.75,-96"/>
<text text-anchor="middle" x="348.62" y="-82.5" font-family="Helvetica,sans-Serif" font-size="10.00">Lista::getTamanho</text>
</a>
</g>
</g>
<!-- Node3&#45;&gt;Node4 -->
<g id="edge3_Node000003_Node000004" class="edge">
<title>Node3&#45;&gt;Node4</title>
<g id="a_edge3_Node000003_Node000004"><a xlink:title=" ">
<path fill="none" stroke="#63b8ff" d="M260.37,-86C270.08,-86 280,-86 289.51,-86"/>
<polygon fill="#63b8ff" stroke="#63b8ff" points="289.45,-89.5 299.45,-86 289.45,-82.5 289.45,-89.5"/>
</a>
</g>
</g>
<!-- Node7 -->
<g id="Node000007" class="node">
<title>Node7</title>
<g id="a_Node000007"><a xlink:href="../../db/dba/class_lista.html#adb2dfb16eaf99f99fc1b39bf847af9bd" target="_top" xlink:title="Obtém a coluna da lista pelo índice.">
<polygon fill="white" stroke="#666666" points="401.25,-20 296,-20 296,0 401.25,0 401.25,-20"/>
<text text-anchor="middle" x="348.62" y="-6.5" font-family="Helvetica,sans-Serif" font-size="10.00">Lista::obterPorIndice</text>
</a>
</g>
</g>
<!-- Node6&#45;&gt;Node7 -->
<g id="edge6_Node000006_Node000007" class="edge">
<title>Node6&#45;&gt;Node7</title>
<g id="a_edge6_Node000006_Node000007"><a xlink:title=" ">
<path fill="none" stroke="#63b8ff" d="M244.92,-10C257.67,-10 271.45,-10 284.66,-10"/>
<polygon fill="#63b8ff" stroke="#63b8ff" points="284.58,-13.5 294.58,-10 284.58,-6.5 284.58,-13.5"/>
</a>
</g>
</g>
</g>
</svg>
</svg>

<style type='text/css'>
<![CDATA[
[data-mouse-over-selected='false'] { opacity: 0.7; }
[data-mouse-over-selected='true']  { opacity: 1.0; }
]]>
</style>
<script type="application/ecmascript"><![CDATA[
document.addEventListener('DOMContentLoaded', (event) => {
  highlightEdges();
  highlightAdjacentNodes();
});
]]></script>
</svg>
