<?xml version="1.0" encoding="UTF-8" standalone="no"?>
<!DOCTYPE svg PUBLIC "-//W3C//DTD SVG 1.1//EN"
 "http://www.w3.org/Graphics/SVG/1.1/DTD/svg11.dtd">
<!-- Generated by graphviz version 8.1.0 (20230707.0739)
 -->
<!-- Title: Quadro::imprimir Pages: 1 -->
<svg width="286pt" height="332pt"
 viewBox="0.00 0.00 286.25 332.00" xmlns="http://www.w3.org/2000/svg" xmlns:xlink="http://www.w3.org/1999/xlink">

<svg id="main" version="1.1" xmlns="http://www.w3.org/2000/svg" xmlns:xlink="http://www.w3.org/1999/xlink" xml:space="preserve" onload="init(evt)">
<style type="text/css"><![CDATA[
.node, .edge {opacity: 0.7;}
.node.selected, .edge.selected {opacity: 1;}
.edge:hover path { stroke: red; }
.edge:hover polygon { stroke: red; fill: red; }
]]></style>
<script type="application/ecmascript" xlink:href="../../svg.min.js"/>
<svg id="graph" class="graph">
<g id="graph0" class="graph" transform="scale(1 1) rotate(0) translate(4 328)">
<title>Quadro::imprimir</title>
<!-- Node1 -->
<g id="Node000001" class="node">
<title>Node1</title>
<g id="a_Node000001"><a xlink:title="Imprime as informações do quadro.">
<polygon fill="#999999" stroke="#666666" points="278.25,-172 190.25,-172 190.25,-152 278.25,-152 278.25,-172"/>
<text text-anchor="middle" x="234.25" y="-158.5" font-family="Helvetica,sans-Serif" font-size="10.00">Quadro::imprimir</text>
</a>
</g>
</g>
<!-- Node2 -->
<g id="Node000002" class="node">
<title>Node2</title>
<g id="a_Node000002"><a xlink:href="../../df/d0a/main_8cpp.html#a0d931717ab3053bc49784e26575b01d6" target="_top" xlink:title="Adiciona uma nova tarefa a uma coluna no quadro KanBan.">
<polygon fill="white" stroke="#666666" points="154.25,-324 73,-324 73,-304 154.25,-304 154.25,-324"/>
<text text-anchor="middle" x="113.62" y="-310.5" font-family="Helvetica,sans-Serif" font-size="10.00">adicionarTarefa</text>
</a>
</g>
</g>
<!-- Node1&#45;&gt;Node2 -->
<g id="edge1_Node000001_Node000002" class="edge">
<title>Node1&#45;&gt;Node2</title>
<g id="a_edge1_Node000001_Node000002"><a xlink:title=" ">
<path fill="none" stroke="#63b8ff" d="M224.44,-182.31C211.92,-209.39 186.84,-257.68 154.25,-290 148.88,-295.32 142.11,-299.97 135.7,-303.73"/>
<polygon fill="#63b8ff" stroke="#63b8ff" points="227.98,-183.97 228.89,-173.42 221.6,-181.1 227.98,-183.97"/>
</a>
</g>
</g>
<!-- Node3 -->
<g id="Node000003" class="node">
<title>Node3</title>
<g id="a_Node000003"><a xlink:href="../../df/d0a/main_8cpp.html#ae66f6b31b5ad750f1fe042a706a4e3d4" target="_top" xlink:title=" ">
<polygon fill="white" stroke="#666666" points="37,-172 0,-172 0,-152 37,-152 37,-172"/>
<text text-anchor="middle" x="18.5" y="-158.5" font-family="Helvetica,sans-Serif" font-size="10.00">main</text>
</a>
</g>
</g>
<!-- Node1&#45;&gt;Node3 -->
<g id="edge7_Node000001_Node000003" class="edge">
<title>Node1&#45;&gt;Node3</title>
<g id="a_edge7_Node000001_Node000003"><a xlink:title=" ">
<path fill="none" stroke="#63b8ff" d="M223.5,-182.04C211.04,-205.05 187.11,-241.59 154.25,-257 121.56,-272.33 104.18,-275.22 73,-257 41.13,-238.37 26.77,-193 21.74,-172.44"/>
<polygon fill="#63b8ff" stroke="#63b8ff" points="227.06,-183.76 228.54,-173.27 220.84,-180.55 227.06,-183.76"/>
</a>
</g>
</g>
<!-- Node4 -->
<g id="Node000004" class="node">
<title>Node4</title>
<g id="a_Node000004"><a xlink:href="../../df/d0a/main_8cpp.html#a512a56ef22516c5454d0f925b16adcd6" target="_top" xlink:title="Edita uma coluna existente no quadro KanBan.">
<polygon fill="white" stroke="#666666" points="148.62,-248 78.62,-248 78.62,-228 148.62,-228 148.62,-248"/>
<text text-anchor="middle" x="113.62" y="-234.5" font-family="Helvetica,sans-Serif" font-size="10.00">editarColuna</text>
</a>
</g>
</g>
<!-- Node1&#45;&gt;Node4 -->
<g id="edge3_Node000001_Node000004" class="edge">
<title>Node1&#45;&gt;Node4</title>
<g id="a_edge3_Node000001_Node000004"><a xlink:title=" ">
<path fill="none" stroke="#63b8ff" d="M211.97,-178.94C196.46,-190.89 174.67,-206.87 154.25,-219 149.13,-222.04 143.46,-224.99 138.04,-227.63"/>
<polygon fill="#63b8ff" stroke="#63b8ff" points="213.59,-181.34 219.32,-172.43 209.28,-175.82 213.59,-181.34"/>
</a>
</g>
</g>
<!-- Node5 -->
<g id="Node000005" class="node">
<title>Node5</title>
<g id="a_Node000005"><a xlink:href="../../df/d0a/main_8cpp.html#ac8773e0e3b3c75454e680ff43c6fcd7f" target="_top" xlink:title="Edita uma tarefa existente no quadro KanBan.">
<polygon fill="white" stroke="#666666" points="146.75,-210 80.5,-210 80.5,-190 146.75,-190 146.75,-210"/>
<text text-anchor="middle" x="113.62" y="-196.5" font-family="Helvetica,sans-Serif" font-size="10.00">editarTarefa</text>
</a>
</g>
</g>
<!-- Node1&#45;&gt;Node5 -->
<g id="edge5_Node000001_Node000005" class="edge">
<title>Node1&#45;&gt;Node5</title>
<g id="a_edge5_Node000001_Node000005"><a xlink:title=" ">
<path fill="none" stroke="#63b8ff" d="M190.45,-175.71C176.21,-180.27 160.59,-185.28 147.25,-189.55"/>
<polygon fill="#63b8ff" stroke="#63b8ff" points="191.07,-178.87 199.52,-172.48 188.93,-172.2 191.07,-178.87"/>
</a>
</g>
</g>
<!-- Node6 -->
<g id="Node000006" class="node">
<title>Node6</title>
<g id="a_Node000006"><a xlink:href="../../df/d0a/main_8cpp.html#a23877ef139dcc4300c8f74067c517d27" target="_top" xlink:title="Move uma coluna de uma posição para outra no quadro KanBan.">
<polygon fill="white" stroke="#666666" points="149.38,-172 77.88,-172 77.88,-152 149.38,-152 149.38,-172"/>
<text text-anchor="middle" x="113.62" y="-158.5" font-family="Helvetica,sans-Serif" font-size="10.00">moverColuna</text>
</a>
</g>
</g>
<!-- Node1&#45;&gt;Node6 -->
<g id="edge8_Node000001_Node000006" class="edge">
<title>Node1&#45;&gt;Node6</title>
<g id="a_edge8_Node000001_Node000006"><a xlink:title=" ">
<path fill="none" stroke="#63b8ff" d="M179.03,-162C169.03,-162 158.83,-162 149.58,-162"/>
<polygon fill="#63b8ff" stroke="#63b8ff" points="178.75,-165.5 188.75,-162 178.75,-158.5 178.75,-165.5"/>
</a>
</g>
</g>
<!-- Node7 -->
<g id="Node000007" class="node">
<title>Node7</title>
<g id="a_Node000007"><a xlink:href="../../df/d0a/main_8cpp.html#a2eddfb0aac0ba265acd5268ce3d8e919" target="_top" xlink:title="Move uma tarefa de uma coluna para outra no quadro KanBan.">
<polygon fill="white" stroke="#666666" points="150.12,-134 77.12,-134 77.12,-114 150.12,-114 150.12,-134"/>
<text text-anchor="middle" x="113.62" y="-120.5" font-family="Helvetica,sans-Serif" font-size="10.00">moverTarefas</text>
</a>
</g>
</g>
<!-- Node1&#45;&gt;Node7 -->
<g id="edge10_Node000001_Node000007" class="edge">
<title>Node1&#45;&gt;Node7</title>
<g id="a_edge10_Node000001_Node000007"><a xlink:title=" ">
<path fill="none" stroke="#63b8ff" d="M190.45,-148.29C176.21,-143.73 160.59,-138.72 147.25,-134.45"/>
<polygon fill="#63b8ff" stroke="#63b8ff" points="188.93,-151.8 199.52,-151.52 191.07,-145.13 188.93,-151.8"/>
</a>
</g>
</g>
<!-- Node8 -->
<g id="Node000008" class="node">
<title>Node8</title>
<g id="a_Node000008"><a xlink:href="../../df/d0a/main_8cpp.html#ac91dd762f55fe21f3a2226d59abff942" target="_top" xlink:title="Ordena as tarefas por prioridade usando o algoritmo Bubble Sort.">
<polygon fill="white" stroke="#666666" points="152.75,-96 74.5,-96 74.5,-76 152.75,-76 152.75,-96"/>
<text text-anchor="middle" x="113.62" y="-82.5" font-family="Helvetica,sans-Serif" font-size="10.00">ordenarColuna</text>
</a>
</g>
</g>
<!-- Node1&#45;&gt;Node8 -->
<g id="edge12_Node000001_Node000008" class="edge">
<title>Node1&#45;&gt;Node8</title>
<g id="a_edge12_Node000001_Node000008"><a xlink:title=" ">
<path fill="none" stroke="#63b8ff" d="M211.97,-145.06C196.46,-133.11 174.67,-117.13 154.25,-105 149.13,-101.96 143.46,-99.01 138.04,-96.37"/>
<polygon fill="#63b8ff" stroke="#63b8ff" points="209.28,-148.18 219.32,-151.57 213.59,-142.66 209.28,-148.18"/>
</a>
</g>
</g>
<!-- Node9 -->
<g id="Node000009" class="node">
<title>Node9</title>
<g id="a_Node000009"><a xlink:href="../../df/d0a/main_8cpp.html#aaa15a96063fb4377e5ac1d46a68321c0" target="_top" xlink:title="Remove uma coluna do quadro KanBan.">
<polygon fill="white" stroke="#666666" points="153.5,-58 73.75,-58 73.75,-38 153.5,-38 153.5,-58"/>
<text text-anchor="middle" x="113.62" y="-44.5" font-family="Helvetica,sans-Serif" font-size="10.00">removerColuna</text>
</a>
</g>
</g>
<!-- Node1&#45;&gt;Node9 -->
<g id="edge14_Node000001_Node000009" class="edge">
<title>Node1&#45;&gt;Node9</title>
<g id="a_edge14_Node000001_Node000009"><a xlink:title=" ">
<path fill="none" stroke="#63b8ff" d="M220.76,-142.44C206.66,-121.59 182.02,-88.65 154.25,-67 150.04,-63.72 145.17,-60.81 140.31,-58.32"/>
<polygon fill="#63b8ff" stroke="#63b8ff" points="218.38,-144.19 226.81,-150.61 224.22,-140.33 218.38,-144.19"/>
</a>
</g>
</g>
<!-- Node10 -->
<g id="Node000010" class="node">
<title>Node10</title>
<g id="a_Node000010"><a xlink:href="../../df/d0a/main_8cpp.html#aee02b44e62983f07d64c57db154c0467" target="_top" xlink:title="Remove uma tarefa de uma coluna no quadro KanBan.">
<polygon fill="white" stroke="#666666" points="151.62,-20 75.62,-20 75.62,0 151.62,0 151.62,-20"/>
<text text-anchor="middle" x="113.62" y="-6.5" font-family="Helvetica,sans-Serif" font-size="10.00">removerTarefa</text>
</a>
</g>
</g>
<!-- Node1&#45;&gt;Node10 -->
<g id="edge16_Node000001_Node000010" class="edge">
<title>Node1&#45;&gt;Node10</title>
<g id="a_edge16_Node000001_Node000010"><a xlink:title=" ">
<path fill="none" stroke="#63b8ff" d="M225.6,-141.63C214.03,-113.15 189.59,-61.33 154.25,-29 150.65,-25.7 146.37,-22.87 141.98,-20.47"/>
<polygon fill="#63b8ff" stroke="#63b8ff" points="222.62,-142.6 229.53,-150.63 229.14,-140.04 222.62,-142.6"/>
</a>
</g>
</g>
<!-- Node2&#45;&gt;Node3 -->
<g id="edge2_Node000002_Node000003" class="edge">
<title>Node2&#45;&gt;Node3</title>
<g id="a_edge2_Node000002_Node000003"><a xlink:title=" ">
<path fill="none" stroke="#63b8ff" d="M81.33,-297.77C78.29,-295.42 75.44,-292.83 73,-290 41.56,-253.5 26.59,-195.91 21.55,-172.46"/>
<polygon fill="#63b8ff" stroke="#63b8ff" points="78.96,-301.06 89.21,-303.73 82.86,-295.25 78.96,-301.06"/>
</a>
</g>
</g>
<!-- Node4&#45;&gt;Node3 -->
<g id="edge4_Node000004_Node000003" class="edge">
<title>Node4&#45;&gt;Node3</title>
<g id="a_edge4_Node000004_Node000003"><a xlink:title=" ">
<path fill="none" stroke="#63b8ff" d="M78.22,-222.51C76.41,-221.39 74.66,-220.22 73,-219 54.39,-205.37 36.9,-184.71 27.25,-172.36"/>
<polygon fill="#63b8ff" stroke="#63b8ff" points="76.07,-225.88 86.51,-227.69 79.48,-219.76 76.07,-225.88"/>
</a>
</g>
</g>
<!-- Node5&#45;&gt;Node3 -->
<g id="edge6_Node000005_Node000003" class="edge">
<title>Node5&#45;&gt;Node3</title>
<g id="a_edge6_Node000005_Node000003"><a xlink:title=" ">
<path fill="none" stroke="#63b8ff" d="M77.1,-185.5C63.48,-179.94 48.51,-173.84 37.25,-169.24"/>
<polygon fill="#63b8ff" stroke="#63b8ff" points="75.6,-189.08 86.18,-189.62 78.24,-182.6 75.6,-189.08"/>
</a>
</g>
</g>
<!-- Node6&#45;&gt;Node3 -->
<g id="edge9_Node000006_Node000003" class="edge">
<title>Node6&#45;&gt;Node3</title>
<g id="a_edge9_Node000006_Node000003"><a xlink:title=" ">
<path fill="none" stroke="#63b8ff" d="M66.63,-162C56.18,-162 45.7,-162 37.27,-162"/>
<polygon fill="#63b8ff" stroke="#63b8ff" points="66.42,-165.5 76.42,-162 66.42,-158.5 66.42,-165.5"/>
</a>
</g>
</g>
<!-- Node7&#45;&gt;Node3 -->
<g id="edge11_Node000007_Node000003" class="edge">
<title>Node7&#45;&gt;Node3</title>
<g id="a_edge11_Node000007_Node000003"><a xlink:title=" ">
<path fill="none" stroke="#63b8ff" d="M77.1,-138.5C63.48,-144.06 48.51,-150.16 37.25,-154.76"/>
<polygon fill="#63b8ff" stroke="#63b8ff" points="78.24,-141.4 86.18,-134.38 75.6,-134.92 78.24,-141.4"/>
</a>
</g>
</g>
<!-- Node8&#45;&gt;Node3 -->
<g id="edge13_Node000008_Node000003" class="edge">
<title>Node8&#45;&gt;Node3</title>
<g id="a_edge13_Node000008_Node000003"><a xlink:title=" ">
<path fill="none" stroke="#63b8ff" d="M78.22,-101.49C76.41,-102.61 74.66,-103.78 73,-105 54.39,-118.63 36.9,-139.29 27.25,-151.64"/>
<polygon fill="#63b8ff" stroke="#63b8ff" points="79.48,-104.24 86.51,-96.31 76.07,-98.12 79.48,-104.24"/>
</a>
</g>
</g>
<!-- Node9&#45;&gt;Node3 -->
<g id="edge15_Node000009_Node000003" class="edge">
<title>Node9&#45;&gt;Node3</title>
<g id="a_edge15_Node000009_Node000003"><a xlink:title=" ">
<path fill="none" stroke="#63b8ff" d="M76.16,-64.3C75.06,-65.16 74,-66.06 73,-67 46.61,-91.71 29.82,-132.43 22.99,-151.52"/>
<polygon fill="#63b8ff" stroke="#63b8ff" points="77.74,-66.79 84.21,-58.4 73.92,-60.93 77.74,-66.79"/>
</a>
</g>
</g>
<!-- Node10&#45;&gt;Node3 -->
<g id="edge17_Node000010_Node000003" class="edge">
<title>Node10&#45;&gt;Node3</title>
<g id="a_edge17_Node000010_Node000003"><a xlink:title=" ">
<path fill="none" stroke="#63b8ff" d="M75.15,-26.88C74.4,-27.56 73.68,-28.27 73,-29 38.62,-65.68 25.19,-127.28 21.05,-151.64"/>
<polygon fill="#63b8ff" stroke="#63b8ff" points="76.95,-29.18 83.01,-20.48 72.86,-23.5 76.95,-29.18"/>
</a>
</g>
</g>
</g>
</svg>
</svg>

<style type='text/css'>
<![CDATA[
[data-mouse-over-selected='false'] { opacity: 0.7; }
[data-mouse-over-selected='true']  { opacity: 1.0; }
]]>
</style>
<script type="application/ecmascript"><![CDATA[
document.addEventListener('DOMContentLoaded', (event) => {
  highlightEdges();
  highlightAdjacentNodes();
});
]]></script>
</svg>
