<?xml version="1.0" encoding="UTF-8" standalone="no"?>
<!DOCTYPE svg PUBLIC "-//W3C//DTD SVG 1.1//EN"
 "http://www.w3.org/Graphics/SVG/1.1/DTD/svg11.dtd">
<!-- Generated by graphviz version 8.1.0 (20230707.0739)
 -->
<!-- Title: Quadro::exibirColaboradores Pages: 1 -->
<svg width="358pt" height="47pt"
 viewBox="0.00 0.00 357.50 47.00" xmlns="http://www.w3.org/2000/svg" xmlns:xlink="http://www.w3.org/1999/xlink">
<g id="graph0" class="graph" transform="scale(1 1) rotate(0) translate(4 43)">
<title>Quadro::exibirColaboradores</title>
<!-- Node1 -->
<g id="Node000001" class="node">
<title>Node1</title>
<g id="a_Node000001"><a xlink:title="Exibe os colaboradores da equipe do quadro.">
<polygon fill="#999999" stroke="#666666" points="349.5,-20 210.5,-20 210.5,0 349.5,0 349.5,-20"/>
<text text-anchor="middle" x="280" y="-6.5" font-family="Helvetica,sans-Serif" font-size="10.00">Quadro::exibirColaboradores</text>
</a>
</g>
</g>
<!-- Node2 -->
<g id="Node000002" class="node">
<title>Node2</title>
<g id="a_Node000002"><a xlink:href="../../df/d0a/main_8cpp.html#afbe7cc1d16fdd3689922aa9f97a05342" target="_top" xlink:title=" ">
<polygon fill="white" stroke="#666666" points="174.5,-39 73,-39 73,-19 174.5,-19 174.5,-39"/>
<text text-anchor="middle" x="123.75" y="-25.5" font-family="Helvetica,sans-Serif" font-size="10.00">exibirColaboradores</text>
</a>
</g>
</g>
<!-- Node1&#45;&gt;Node2 -->
<g id="edge1_Node000001_Node000002" class="edge">
<title>Node1&#45;&gt;Node2</title>
<g id="a_edge1_Node000001_Node000002"><a xlink:title=" ">
<path fill="none" stroke="#63b8ff" d="M199.65,-19.77C191.12,-20.82 182.63,-21.87 174.59,-22.86"/>
<polygon fill="#63b8ff" stroke="#63b8ff" points="199.95,-23.14 209.45,-18.44 199.09,-16.19 199.95,-23.14"/>
</a>
</g>
</g>
<!-- Node3 -->
<g id="Node000003" class="node">
<title>Node3</title>
<g id="a_Node000003"><a xlink:href="../../df/d0a/main_8cpp.html#ae66f6b31b5ad750f1fe042a706a4e3d4" target="_top" xlink:title=" ">
<polygon fill="white" stroke="#666666" points="37,-20 0,-20 0,0 37,0 37,-20"/>
<text text-anchor="middle" x="18.5" y="-6.5" font-family="Helvetica,sans-Serif" font-size="10.00">main</text>
</a>
</g>
</g>
<!-- Node1&#45;&gt;Node3 -->
<g id="edge3_Node000001_Node000003" class="edge">
<title>Node1&#45;&gt;Node3</title>
<g id="a_edge3_Node000001_Node000003"><a xlink:title=" ">
<path fill="none" stroke="#63b8ff" d="M199.34,-10C142.42,-10 70.32,-10 37.38,-10"/>
<polygon fill="#63b8ff" stroke="#63b8ff" points="199.14,-13.5 209.14,-10 199.14,-6.5 199.14,-13.5"/>
</a>
</g>
</g>
<!-- Node2&#45;&gt;Node3 -->
<g id="edge2_Node000002_Node000003" class="edge">
<title>Node2&#45;&gt;Node3</title>
<g id="a_edge2_Node000002_Node000003"><a xlink:title=" ">
<path fill="none" stroke="#63b8ff" d="M61.93,-17.81C52.89,-16.15 44.25,-14.55 37.15,-13.25"/>
<polygon fill="#63b8ff" stroke="#63b8ff" points="61.17,-21.41 71.64,-19.78 62.44,-14.53 61.17,-21.41"/>
</a>
</g>
</g>
</g>
</svg>
