<?xml version="1.0" encoding="UTF-8" standalone="no"?>
<!DOCTYPE svg PUBLIC "-//W3C//DTD SVG 1.1//EN"
 "http://www.w3.org/Graphics/SVG/1.1/DTD/svg11.dtd">
<!-- Generated by graphviz version 8.1.0 (20230707.0739)
 -->
<!-- Title: Quadro::getNumeroColunas Pages: 1 -->
<svg width="458pt" height="370pt"
 viewBox="0.00 0.00 458.25 370.00" xmlns="http://www.w3.org/2000/svg" xmlns:xlink="http://www.w3.org/1999/xlink">

<svg id="main" version="1.1" xmlns="http://www.w3.org/2000/svg" xmlns:xlink="http://www.w3.org/1999/xlink" xml:space="preserve" onload="init(evt)">
<style type="text/css"><![CDATA[
.node, .edge {opacity: 0.7;}
.node.selected, .edge.selected {opacity: 1;}
.edge:hover path { stroke: red; }
.edge:hover polygon { stroke: red; fill: red; }
]]></style>
<script type="application/ecmascript" xlink:href="../../svg.min.js"/>
<svg id="graph" class="graph">
<g id="graph0" class="graph" transform="scale(1 1) rotate(0) translate(4 366)">
<title>Quadro::getNumeroColunas</title>
<!-- Node1 -->
<g id="Node000001" class="node">
<title>Node1</title>
<g id="a_Node000001"><a xlink:title="Obtém o número de colunas do quadro.">
<polygon fill="#999999" stroke="#666666" points="450.25,-191 314.25,-191 314.25,-171 450.25,-171 450.25,-191"/>
<text text-anchor="middle" x="382.25" y="-177.5" font-family="Helvetica,sans-Serif" font-size="10.00">Quadro::getNumeroColunas</text>
</a>
</g>
</g>
<!-- Node2 -->
<g id="Node000002" class="node">
<title>Node2</title>
<g id="a_Node000002"><a xlink:href="../../df/d0a/main_8cpp.html#a0d931717ab3053bc49784e26575b01d6" target="_top" xlink:title="Adiciona uma nova tarefa a uma coluna no quadro KanBan.">
<polygon fill="white" stroke="#666666" points="154.25,-362 73,-362 73,-342 154.25,-342 154.25,-362"/>
<text text-anchor="middle" x="113.62" y="-348.5" font-family="Helvetica,sans-Serif" font-size="10.00">adicionarTarefa</text>
</a>
</g>
</g>
<!-- Node1&#45;&gt;Node2 -->
<g id="edge1_Node000001_Node000002" class="edge">
<title>Node1&#45;&gt;Node2</title>
<g id="a_edge1_Node000001_Node000002"><a xlink:title=" ">
<path fill="none" stroke="#63b8ff" d="M368.46,-200.36C350.92,-225.5 317.11,-269.23 278.25,-295 240.02,-320.36 189.27,-335.73 154.49,-344.02"/>
<polygon fill="#63b8ff" stroke="#63b8ff" points="371.82,-202.64 374.56,-192.41 366.04,-198.7 371.82,-202.64"/>
</a>
</g>
</g>
<!-- Node4 -->
<g id="Node000004" class="node">
<title>Node4</title>
<g id="a_Node000004"><a xlink:href="../../df/d0a/main_8cpp.html#a512a56ef22516c5454d0f925b16adcd6" target="_top" xlink:title="Edita uma coluna existente no quadro KanBan.">
<polygon fill="white" stroke="#666666" points="148.62,-324 78.62,-324 78.62,-304 148.62,-304 148.62,-324"/>
<text text-anchor="middle" x="113.62" y="-310.5" font-family="Helvetica,sans-Serif" font-size="10.00">editarColuna</text>
</a>
</g>
</g>
<!-- Node1&#45;&gt;Node4 -->
<g id="edge3_Node000001_Node000004" class="edge">
<title>Node1&#45;&gt;Node4</title>
<g id="a_edge3_Node000001_Node000004"><a xlink:title=" ">
<path fill="none" stroke="#63b8ff" d="M363.77,-198.96C344.46,-217.87 311.64,-247.3 278.25,-265 236.46,-287.16 183.23,-300.73 149.03,-307.81"/>
<polygon fill="#63b8ff" stroke="#63b8ff" points="365.82,-201.87 370.42,-192.33 360.87,-196.92 365.82,-201.87"/>
</a>
</g>
</g>
<!-- Node5 -->
<g id="Node000005" class="node">
<title>Node5</title>
<g id="a_Node000005"><a xlink:href="../../df/d0a/main_8cpp.html#ac8773e0e3b3c75454e680ff43c6fcd7f" target="_top" xlink:title="Edita uma tarefa existente no quadro KanBan.">
<polygon fill="white" stroke="#666666" points="146.75,-286 80.5,-286 80.5,-266 146.75,-266 146.75,-286"/>
<text text-anchor="middle" x="113.62" y="-272.5" font-family="Helvetica,sans-Serif" font-size="10.00">editarTarefa</text>
</a>
</g>
</g>
<!-- Node1&#45;&gt;Node5 -->
<g id="edge5_Node000001_Node000005" class="edge">
<title>Node1&#45;&gt;Node5</title>
<g id="a_edge5_Node000001_Node000005"><a xlink:title=" ">
<path fill="none" stroke="#63b8ff" d="M357.13,-197.25C336.86,-210.24 306.72,-228.03 278.25,-239 234.36,-255.9 180.72,-266.21 147.11,-271.51"/>
<polygon fill="#63b8ff" stroke="#63b8ff" points="358.77,-199.71 365.24,-191.31 354.95,-193.85 358.77,-199.71"/>
</a>
</g>
</g>
<!-- Node6 -->
<g id="Node000006" class="node">
<title>Node6</title>
<g id="a_Node000006"><a xlink:href="../../d1/d13/class_quadro.html#a1d27dcd2c84b1742c7ebd4cb0f82a704" target="_top" xlink:title="Imprime as informações do quadro.">
<polygon fill="white" stroke="#666666" points="278.25,-210 190.25,-210 190.25,-190 278.25,-190 278.25,-210"/>
<text text-anchor="middle" x="234.25" y="-196.5" font-family="Helvetica,sans-Serif" font-size="10.00">Quadro::imprimir</text>
</a>
</g>
</g>
<!-- Node1&#45;&gt;Node6 -->
<g id="edge7_Node000001_Node000006" class="edge">
<title>Node1&#45;&gt;Node6</title>
<g id="a_edge7_Node000001_Node000006"><a xlink:title=" ">
<path fill="none" stroke="#63b8ff" d="M303.14,-191.17C294.73,-192.26 286.41,-193.34 278.63,-194.35"/>
<polygon fill="#63b8ff" stroke="#63b8ff" points="303.34,-194.54 312.81,-189.78 302.44,-187.6 303.34,-194.54"/>
</a>
</g>
</g>
<!-- Node7 -->
<g id="Node000007" class="node">
<title>Node7</title>
<g id="a_Node000007"><a xlink:href="../../df/d0a/main_8cpp.html#a23877ef139dcc4300c8f74067c517d27" target="_top" xlink:title="Move uma coluna de uma posição para outra no quadro KanBan.">
<polygon fill="white" stroke="#666666" points="149.38,-248 77.88,-248 77.88,-228 149.38,-228 149.38,-248"/>
<text text-anchor="middle" x="113.62" y="-234.5" font-family="Helvetica,sans-Serif" font-size="10.00">moverColuna</text>
</a>
</g>
</g>
<!-- Node1&#45;&gt;Node7 -->
<g id="edge22_Node000001_Node000007" class="edge">
<title>Node1&#45;&gt;Node7</title>
<g id="a_edge22_Node000001_Node000007"><a xlink:title=" ">
<path fill="none" stroke="#63b8ff" d="M347.94,-195.59C328.07,-203.71 302.14,-213.29 278.25,-219 234.72,-229.4 183.26,-234.19 149.84,-236.33"/>
<polygon fill="#63b8ff" stroke="#63b8ff" points="349.13,-198.46 357.02,-191.39 346.44,-192 349.13,-198.46"/>
</a>
</g>
</g>
<!-- Node8 -->
<g id="Node000008" class="node">
<title>Node8</title>
<g id="a_Node000008"><a xlink:href="../../df/d0a/main_8cpp.html#a2eddfb0aac0ba265acd5268ce3d8e919" target="_top" xlink:title="Move uma tarefa de uma coluna para outra no quadro KanBan.">
<polygon fill="white" stroke="#666666" points="150.12,-172 77.12,-172 77.12,-152 150.12,-152 150.12,-172"/>
<text text-anchor="middle" x="113.62" y="-158.5" font-family="Helvetica,sans-Serif" font-size="10.00">moverTarefas</text>
</a>
</g>
</g>
<!-- Node1&#45;&gt;Node8 -->
<g id="edge23_Node000001_Node000008" class="edge">
<title>Node1&#45;&gt;Node8</title>
<g id="a_edge23_Node000001_Node000008"><a xlink:title=" ">
<path fill="none" stroke="#63b8ff" d="M303.07,-175.43C252.55,-171.83 189.22,-167.32 150.35,-164.55"/>
<polygon fill="#63b8ff" stroke="#63b8ff" points="302.75,-178.99 312.97,-176.21 303.24,-172 302.75,-178.99"/>
</a>
</g>
</g>
<!-- Node9 -->
<g id="Node000009" class="node">
<title>Node9</title>
<g id="a_Node000009"><a xlink:href="../../df/d0a/main_8cpp.html#ac91dd762f55fe21f3a2226d59abff942" target="_top" xlink:title="Ordena as tarefas por prioridade usando o algoritmo Bubble Sort.">
<polygon fill="white" stroke="#666666" points="152.75,-134 74.5,-134 74.5,-114 152.75,-114 152.75,-134"/>
<text text-anchor="middle" x="113.62" y="-120.5" font-family="Helvetica,sans-Serif" font-size="10.00">ordenarColuna</text>
</a>
</g>
</g>
<!-- Node1&#45;&gt;Node9 -->
<g id="edge24_Node000001_Node000009" class="edge">
<title>Node1&#45;&gt;Node9</title>
<g id="a_edge24_Node000001_Node000009"><a xlink:title=" ">
<path fill="none" stroke="#63b8ff" d="M321.68,-168.27C270.09,-157.23 196.99,-141.61 152.86,-132.17"/>
<polygon fill="#63b8ff" stroke="#63b8ff" points="320.84,-171.88 331.35,-170.55 322.3,-165.03 320.84,-171.88"/>
</a>
</g>
</g>
<!-- Node10 -->
<g id="Node000010" class="node">
<title>Node10</title>
<g id="a_Node000010"><a xlink:href="../../df/d0a/main_8cpp.html#aaa15a96063fb4377e5ac1d46a68321c0" target="_top" xlink:title="Remove uma coluna do quadro KanBan.">
<polygon fill="white" stroke="#666666" points="153.5,-96 73.75,-96 73.75,-76 153.5,-76 153.5,-96"/>
<text text-anchor="middle" x="113.62" y="-82.5" font-family="Helvetica,sans-Serif" font-size="10.00">removerColuna</text>
</a>
</g>
</g>
<!-- Node1&#45;&gt;Node10 -->
<g id="edge25_Node000001_Node000010" class="edge">
<title>Node1&#45;&gt;Node10</title>
<g id="a_edge25_Node000001_Node000010"><a xlink:title=" ">
<path fill="none" stroke="#63b8ff" d="M349.55,-166.02C329.38,-156.77 302.56,-144.99 278.25,-136 236.18,-120.44 186.81,-105.84 153.39,-96.48"/>
<polygon fill="#63b8ff" stroke="#63b8ff" points="347.9,-169.58 358.45,-170.6 350.84,-163.22 347.9,-169.58"/>
</a>
</g>
</g>
<!-- Node11 -->
<g id="Node000011" class="node">
<title>Node11</title>
<g id="a_Node000011"><a xlink:href="../../df/d0a/main_8cpp.html#aee02b44e62983f07d64c57db154c0467" target="_top" xlink:title="Remove uma tarefa de uma coluna no quadro KanBan.">
<polygon fill="white" stroke="#666666" points="151.62,-58 75.62,-58 75.62,-38 151.62,-38 151.62,-58"/>
<text text-anchor="middle" x="113.62" y="-44.5" font-family="Helvetica,sans-Serif" font-size="10.00">removerTarefa</text>
</a>
</g>
</g>
<!-- Node1&#45;&gt;Node11 -->
<g id="edge26_Node000001_Node000011" class="edge">
<title>Node1&#45;&gt;Node11</title>
<g id="a_edge26_Node000001_Node000011"><a xlink:title=" ">
<path fill="none" stroke="#63b8ff" d="M361.82,-163.53C342,-146.45 309.75,-120.64 278.25,-104 237.23,-82.34 186.12,-66.43 152.05,-57.21"/>
<polygon fill="#63b8ff" stroke="#63b8ff" points="359.18,-166.75 369.01,-170.71 363.8,-161.48 359.18,-166.75"/>
</a>
</g>
</g>
<!-- Node12 -->
<g id="Node000012" class="node">
<title>Node12</title>
<g id="a_Node000012"><a xlink:href="../../df/d0a/main_8cpp.html#a3a0d238b444da51e7f04f65f8d390fd0" target="_top" xlink:title="Salva o quadro KanBan em um arquivo.">
<polygon fill="white" stroke="#666666" points="270.38,-20 198.12,-20 198.12,0 270.38,0 270.38,-20"/>
<text text-anchor="middle" x="234.25" y="-6.5" font-family="Helvetica,sans-Serif" font-size="10.00">salvarQuadro</text>
</a>
</g>
</g>
<!-- Node1&#45;&gt;Node12 -->
<g id="edge27_Node000001_Node000012" class="edge">
<title>Node1&#45;&gt;Node12</title>
<g id="a_edge27_Node000001_Node000012"><a xlink:title=" ">
<path fill="none" stroke="#63b8ff" d="M371.09,-161.02C354.83,-130.58 320.46,-72.11 278.25,-34 272.41,-28.73 265.22,-24.15 258.39,-20.44"/>
<polygon fill="#63b8ff" stroke="#63b8ff" points="368.33,-162.3 376.07,-169.54 374.53,-159.06 368.33,-162.3"/>
</a>
</g>
</g>
<!-- Node3 -->
<g id="Node000003" class="node">
<title>Node3</title>
<g id="a_Node000003"><a xlink:href="../../df/d0a/main_8cpp.html#ae66f6b31b5ad750f1fe042a706a4e3d4" target="_top" xlink:title=" ">
<polygon fill="white" stroke="#666666" points="37,-191 0,-191 0,-171 37,-171 37,-191"/>
<text text-anchor="middle" x="18.5" y="-177.5" font-family="Helvetica,sans-Serif" font-size="10.00">main</text>
</a>
</g>
</g>
<!-- Node2&#45;&gt;Node3 -->
<g id="edge2_Node000002_Node000003" class="edge">
<title>Node2&#45;&gt;Node3</title>
<g id="a_edge2_Node000002_Node000003"><a xlink:title=" ">
<path fill="none" stroke="#63b8ff" d="M75.11,-335.16C74.37,-334.46 73.67,-333.75 73,-333 34.52,-290.1 23.33,-217.82 20.42,-191.22"/>
<polygon fill="#63b8ff" stroke="#63b8ff" points="72.76,-338.51 82.88,-341.63 76.92,-332.88 72.76,-338.51"/>
</a>
</g>
</g>
<!-- Node4&#45;&gt;Node3 -->
<g id="edge4_Node000004_Node000003" class="edge">
<title>Node4&#45;&gt;Node3</title>
<g id="a_edge4_Node000004_Node000003"><a xlink:title=" ">
<path fill="none" stroke="#63b8ff" d="M75.62,-297.42C74.71,-296.65 73.83,-295.84 73,-295 42.52,-264.26 27.18,-212.88 21.8,-191.17"/>
<polygon fill="#63b8ff" stroke="#63b8ff" points="73.36,-300.81 83.59,-303.59 77.33,-295.04 73.36,-300.81"/>
</a>
</g>
</g>
<!-- Node5&#45;&gt;Node3 -->
<g id="edge6_Node000005_Node000003" class="edge">
<title>Node5&#45;&gt;Node3</title>
<g id="a_edge6_Node000005_Node000003"><a xlink:title=" ">
<path fill="none" stroke="#63b8ff" d="M76.78,-259.93C75.47,-258.99 74.2,-258.02 73,-257 50.46,-237.93 32.81,-207.29 24.57,-191.36"/>
<polygon fill="#63b8ff" stroke="#63b8ff" points="74.54,-263.27 84.9,-265.51 78.2,-257.31 74.54,-263.27"/>
</a>
</g>
</g>
<!-- Node6&#45;&gt;Node2 -->
<g id="edge8_Node000006_Node000002" class="edge">
<title>Node6&#45;&gt;Node2</title>
<g id="a_edge8_Node000006_Node000002"><a xlink:title=" ">
<path fill="none" stroke="#63b8ff" d="M225.6,-220.37C214.03,-248.85 189.59,-300.67 154.25,-333 150.65,-336.3 146.37,-339.13 141.98,-341.53"/>
<polygon fill="#63b8ff" stroke="#63b8ff" points="229.14,-221.96 229.53,-211.37 222.62,-219.4 229.14,-221.96"/>
</a>
</g>
</g>
<!-- Node6&#45;&gt;Node3 -->
<g id="edge11_Node000006_Node000003" class="edge">
<title>Node6&#45;&gt;Node3</title>
<g id="a_edge11_Node000006_Node000003"><a xlink:title=" ">
<path fill="none" stroke="#63b8ff" d="M179.17,-195.19C132.61,-191.05 68.2,-185.33 37.36,-182.59"/>
<polygon fill="#63b8ff" stroke="#63b8ff" points="178.72,-198.76 188.99,-196.16 179.34,-191.78 178.72,-198.76"/>
</a>
</g>
</g>
<!-- Node6&#45;&gt;Node4 -->
<g id="edge9_Node000006_Node000004" class="edge">
<title>Node6&#45;&gt;Node4</title>
<g id="a_edge9_Node000006_Node000004"><a xlink:title=" ">
<path fill="none" stroke="#63b8ff" d="M220.76,-219.56C206.66,-240.41 182.02,-273.35 154.25,-295 150.04,-298.28 145.17,-301.19 140.31,-303.68"/>
<polygon fill="#63b8ff" stroke="#63b8ff" points="224.22,-221.67 226.81,-211.39 218.38,-217.81 224.22,-221.67"/>
</a>
</g>
</g>
<!-- Node6&#45;&gt;Node5 -->
<g id="edge10_Node000006_Node000005" class="edge">
<title>Node6&#45;&gt;Node5</title>
<g id="a_edge10_Node000006_Node000005"><a xlink:title=" ">
<path fill="none" stroke="#63b8ff" d="M211.97,-216.94C196.46,-228.89 174.67,-244.87 154.25,-257 149.13,-260.04 143.46,-262.99 138.04,-265.63"/>
<polygon fill="#63b8ff" stroke="#63b8ff" points="213.59,-219.34 219.32,-210.43 209.28,-213.82 213.59,-219.34"/>
</a>
</g>
</g>
<!-- Node6&#45;&gt;Node7 -->
<g id="edge12_Node000006_Node000007" class="edge">
<title>Node6&#45;&gt;Node7</title>
<g id="a_edge12_Node000006_Node000007"><a xlink:title=" ">
<path fill="none" stroke="#63b8ff" d="M190.45,-213.71C176.21,-218.27 160.59,-223.28 147.25,-227.55"/>
<polygon fill="#63b8ff" stroke="#63b8ff" points="191.07,-216.87 199.52,-210.48 188.93,-210.2 191.07,-216.87"/>
</a>
</g>
</g>
<!-- Node6&#45;&gt;Node8 -->
<g id="edge14_Node000006_Node000008" class="edge">
<title>Node6&#45;&gt;Node8</title>
<g id="a_edge14_Node000006_Node000008"><a xlink:title=" ">
<path fill="none" stroke="#63b8ff" d="M190.45,-186.29C176.21,-181.73 160.59,-176.72 147.25,-172.45"/>
<polygon fill="#63b8ff" stroke="#63b8ff" points="188.93,-189.8 199.52,-189.52 191.07,-183.13 188.93,-189.8"/>
</a>
</g>
</g>
<!-- Node6&#45;&gt;Node9 -->
<g id="edge16_Node000006_Node000009" class="edge">
<title>Node6&#45;&gt;Node9</title>
<g id="a_edge16_Node000006_Node000009"><a xlink:title=" ">
<path fill="none" stroke="#63b8ff" d="M211.97,-183.06C196.46,-171.11 174.67,-155.13 154.25,-143 149.13,-139.96 143.46,-137.01 138.04,-134.37"/>
<polygon fill="#63b8ff" stroke="#63b8ff" points="209.28,-186.18 219.32,-189.57 213.59,-180.66 209.28,-186.18"/>
</a>
</g>
</g>
<!-- Node6&#45;&gt;Node10 -->
<g id="edge18_Node000006_Node000010" class="edge">
<title>Node6&#45;&gt;Node10</title>
<g id="a_edge18_Node000006_Node000010"><a xlink:title=" ">
<path fill="none" stroke="#63b8ff" d="M220.76,-180.44C206.66,-159.59 182.02,-126.65 154.25,-105 150.04,-101.72 145.17,-98.81 140.31,-96.32"/>
<polygon fill="#63b8ff" stroke="#63b8ff" points="218.38,-182.19 226.81,-188.61 224.22,-178.33 218.38,-182.19"/>
</a>
</g>
</g>
<!-- Node6&#45;&gt;Node11 -->
<g id="edge20_Node000006_Node000011" class="edge">
<title>Node6&#45;&gt;Node11</title>
<g id="a_edge20_Node000006_Node000011"><a xlink:title=" ">
<path fill="none" stroke="#63b8ff" d="M225.6,-179.63C214.03,-151.15 189.59,-99.33 154.25,-67 150.65,-63.7 146.37,-60.87 141.98,-58.47"/>
<polygon fill="#63b8ff" stroke="#63b8ff" points="222.62,-180.6 229.53,-188.63 229.14,-178.04 222.62,-180.6"/>
</a>
</g>
</g>
<!-- Node7&#45;&gt;Node3 -->
<g id="edge13_Node000007_Node000003" class="edge">
<title>Node7&#45;&gt;Node3</title>
<g id="a_edge13_Node000007_Node000003"><a xlink:title=" ">
<path fill="none" stroke="#63b8ff" d="M86.02,-221.93C81.67,-219.29 77.21,-216.57 73,-214 60.71,-206.49 46.87,-197.95 36.35,-191.44"/>
<polygon fill="#63b8ff" stroke="#63b8ff" points="83.88,-225.33 94.25,-227.52 87.51,-219.34 83.88,-225.33"/>
</a>
</g>
</g>
<!-- Node8&#45;&gt;Node3 -->
<g id="edge15_Node000008_Node000003" class="edge">
<title>Node8&#45;&gt;Node3</title>
<g id="a_edge15_Node000008_Node000003"><a xlink:title=" ">
<path fill="none" stroke="#63b8ff" d="M66.24,-171.46C55.94,-173.57 45.63,-175.67 37.32,-177.36"/>
<polygon fill="#63b8ff" stroke="#63b8ff" points="66.79,-174.72 75.89,-169.29 65.39,-167.86 66.79,-174.72"/>
</a>
</g>
</g>
<!-- Node9&#45;&gt;Node3 -->
<g id="edge17_Node000009_Node000003" class="edge">
<title>Node9&#45;&gt;Node3</title>
<g id="a_edge17_Node000009_Node000003"><a xlink:title=" ">
<path fill="none" stroke="#63b8ff" d="M79.47,-139.37C77.26,-140.56 75.08,-141.77 73,-143 58.67,-151.44 43.28,-162.61 32.71,-170.66"/>
<polygon fill="#63b8ff" stroke="#63b8ff" points="80.91,-142.06 88.23,-134.4 77.73,-135.82 80.91,-142.06"/>
</a>
</g>
</g>
<!-- Node10&#45;&gt;Node3 -->
<g id="edge19_Node000010_Node000003" class="edge">
<title>Node10&#45;&gt;Node3</title>
<g id="a_edge19_Node000010_Node000003"><a xlink:title=" ">
<path fill="none" stroke="#63b8ff" d="M76.78,-102.07C75.47,-103.01 74.2,-103.98 73,-105 50.46,-124.07 32.81,-154.71 24.57,-170.64"/>
<polygon fill="#63b8ff" stroke="#63b8ff" points="78.2,-104.69 84.9,-96.49 74.54,-98.73 78.2,-104.69"/>
</a>
</g>
</g>
<!-- Node11&#45;&gt;Node3 -->
<g id="edge21_Node000011_Node000003" class="edge">
<title>Node11&#45;&gt;Node3</title>
<g id="a_edge21_Node000011_Node000003"><a xlink:title=" ">
<path fill="none" stroke="#63b8ff" d="M75.62,-64.58C74.71,-65.35 73.83,-66.16 73,-67 42.52,-97.74 27.18,-149.12 21.8,-170.83"/>
<polygon fill="#63b8ff" stroke="#63b8ff" points="77.33,-66.96 83.59,-58.41 73.36,-61.19 77.33,-66.96"/>
</a>
</g>
</g>
<!-- Node12&#45;&gt;Node3 -->
<g id="edge28_Node000012_Node000003" class="edge">
<title>Node12&#45;&gt;Node3</title>
<g id="a_edge28_Node000012_Node000003"><a xlink:title=" ">
<path fill="none" stroke="#63b8ff" d="M186.75,-3.29C151.8,-0.89 104.67,-3.64 73,-29 27.58,-65.37 20.65,-142.98 19.65,-170.81"/>
<polygon fill="#63b8ff" stroke="#63b8ff" points="186.38,-6.86 196.64,-4.23 186.98,0.12 186.38,-6.86"/>
</a>
</g>
</g>
</g>
</svg>
</svg>

<style type='text/css'>
<![CDATA[
[data-mouse-over-selected='false'] { opacity: 0.7; }
[data-mouse-over-selected='true']  { opacity: 1.0; }
]]>
</style>
<script type="application/ecmascript"><![CDATA[
document.addEventListener('DOMContentLoaded', (event) => {
  highlightEdges();
  highlightAdjacentNodes();
});
]]></script>
</svg>
