<?xml version="1.0" encoding="UTF-8" standalone="no"?>
<!DOCTYPE svg PUBLIC "-//W3C//DTD SVG 1.1//EN"
 "http://www.w3.org/Graphics/SVG/1.1/DTD/svg11.dtd">
<!-- Generated by graphviz version 8.1.0 (20230707.0739)
 -->
<!-- Title: Quadro::getEquipe Pages: 1 -->
<svg width="316pt" height="218pt"
 viewBox="0.00 0.00 315.50 218.00" xmlns="http://www.w3.org/2000/svg" xmlns:xlink="http://www.w3.org/1999/xlink">

<svg id="main" version="1.1" xmlns="http://www.w3.org/2000/svg" xmlns:xlink="http://www.w3.org/1999/xlink" xml:space="preserve" onload="init(evt)">
<style type="text/css"><![CDATA[
.node, .edge {opacity: 0.7;}
.node.selected, .edge.selected {opacity: 1;}
.edge:hover path { stroke: red; }
.edge:hover polygon { stroke: red; fill: red; }
]]></style>
<script type="application/ecmascript" xlink:href="../../svg.min.js"/>
<svg id="graph" class="graph">
<g id="graph0" class="graph" transform="scale(1 1) rotate(0) translate(4 214)">
<title>Quadro::getEquipe</title>
<!-- Node1 -->
<g id="Node000001" class="node">
<title>Node1</title>
<g id="a_Node000001"><a xlink:title="Obtém a equipe de colaboradores do quadro.">
<polygon fill="#999999" stroke="#666666" points="307.5,-115 210.5,-115 210.5,-95 307.5,-95 307.5,-115"/>
<text text-anchor="middle" x="259" y="-101.5" font-family="Helvetica,sans-Serif" font-size="10.00">Quadro::getEquipe</text>
</a>
</g>
</g>
<!-- Node2 -->
<g id="Node000002" class="node">
<title>Node2</title>
<g id="a_Node000002"><a xlink:href="../../df/d0a/main_8cpp.html#a0d931717ab3053bc49784e26575b01d6" target="_top" xlink:title="Adiciona uma nova tarefa a uma coluna no quadro KanBan.">
<polygon fill="white" stroke="#666666" points="164.38,-210 83.12,-210 83.12,-190 164.38,-190 164.38,-210"/>
<text text-anchor="middle" x="123.75" y="-196.5" font-family="Helvetica,sans-Serif" font-size="10.00">adicionarTarefa</text>
</a>
</g>
</g>
<!-- Node1&#45;&gt;Node2 -->
<g id="edge1_Node000001_Node000002" class="edge">
<title>Node1&#45;&gt;Node2</title>
<g id="a_edge1_Node000001_Node000002"><a xlink:title=" ">
<path fill="none" stroke="#63b8ff" d="M241.6,-123.45C225.8,-140.31 200.52,-164.99 174.5,-181 169.22,-184.25 163.3,-187.09 157.43,-189.53"/>
<polygon fill="#63b8ff" stroke="#63b8ff" points="243.78,-126.17 247.96,-116.43 238.62,-121.43 243.78,-126.17"/>
</a>
</g>
</g>
<!-- Node4 -->
<g id="Node000004" class="node">
<title>Node4</title>
<g id="a_Node000004"><a xlink:href="../../df/d0a/main_8cpp.html#a437489a63da65aff2f992d1273edacaa" target="_top" xlink:title="Busca um colaborador pelo ID no quadro KanBan e exibe suas informações.">
<polygon fill="white" stroke="#666666" points="172.25,-172 75.25,-172 75.25,-152 172.25,-152 172.25,-172"/>
<text text-anchor="middle" x="123.75" y="-158.5" font-family="Helvetica,sans-Serif" font-size="10.00">buscarColaborador</text>
</a>
</g>
</g>
<!-- Node1&#45;&gt;Node4 -->
<g id="edge3_Node000001_Node000004" class="edge">
<title>Node1&#45;&gt;Node4</title>
<g id="a_edge3_Node000001_Node000004"><a xlink:title=" ">
<path fill="none" stroke="#63b8ff" d="M226.53,-119.88C210.98,-127.09 191.86,-135.74 174.5,-143 167.59,-145.89 160.07,-148.85 153.02,-151.55"/>
<polygon fill="#63b8ff" stroke="#63b8ff" points="227.61,-122.78 235.19,-115.38 224.65,-116.43 227.61,-122.78"/>
</a>
</g>
</g>
<!-- Node5 -->
<g id="Node000005" class="node">
<title>Node5</title>
<g id="a_Node000005"><a xlink:href="../../df/d0a/main_8cpp.html#ac19c0f76269ed6195cad2776a32e04f1" target="_top" xlink:title="Carrega um quadro KanBan a partir de um arquivo.">
<polygon fill="white" stroke="#666666" points="165.12,-134 82.38,-134 82.38,-114 165.12,-114 165.12,-134"/>
<text text-anchor="middle" x="123.75" y="-120.5" font-family="Helvetica,sans-Serif" font-size="10.00">carregarQuadro</text>
</a>
</g>
</g>
<!-- Node1&#45;&gt;Node5 -->
<g id="edge5_Node000001_Node000005" class="edge">
<title>Node1&#45;&gt;Node5</title>
<g id="a_edge5_Node000001_Node000005"><a xlink:title=" ">
<path fill="none" stroke="#63b8ff" d="M199.45,-113.35C188.01,-114.98 176.25,-116.66 165.54,-118.18"/>
<polygon fill="#63b8ff" stroke="#63b8ff" points="199.86,-116.68 209.27,-111.81 198.88,-109.75 199.86,-116.68"/>
</a>
</g>
</g>
<!-- Node6 -->
<g id="Node000006" class="node">
<title>Node6</title>
<g id="a_Node000006"><a xlink:href="../../df/d0a/main_8cpp.html#ac8773e0e3b3c75454e680ff43c6fcd7f" target="_top" xlink:title="Edita uma tarefa existente no quadro KanBan.">
<polygon fill="white" stroke="#666666" points="156.88,-96 90.62,-96 90.62,-76 156.88,-76 156.88,-96"/>
<text text-anchor="middle" x="123.75" y="-82.5" font-family="Helvetica,sans-Serif" font-size="10.00">editarTarefa</text>
</a>
</g>
</g>
<!-- Node1&#45;&gt;Node6 -->
<g id="edge7_Node000001_Node000006" class="edge">
<title>Node1&#45;&gt;Node6</title>
<g id="a_edge7_Node000001_Node000006"><a xlink:title=" ">
<path fill="none" stroke="#63b8ff" d="M199.76,-96.7C185.15,-94.61 169.98,-92.45 157.15,-90.62"/>
<polygon fill="#63b8ff" stroke="#63b8ff" points="198.88,-100.25 209.27,-98.19 199.86,-93.32 198.88,-100.25"/>
</a>
</g>
</g>
<!-- Node7 -->
<g id="Node000007" class="node">
<title>Node7</title>
<g id="a_Node000007"><a xlink:href="../../df/d0a/main_8cpp.html#afbe7cc1d16fdd3689922aa9f97a05342" target="_top" xlink:title=" ">
<polygon fill="white" stroke="#666666" points="174.5,-58 73,-58 73,-38 174.5,-38 174.5,-58"/>
<text text-anchor="middle" x="123.75" y="-44.5" font-family="Helvetica,sans-Serif" font-size="10.00">exibirColaboradores</text>
</a>
</g>
</g>
<!-- Node1&#45;&gt;Node7 -->
<g id="edge9_Node000001_Node000007" class="edge">
<title>Node1&#45;&gt;Node7</title>
<g id="a_edge9_Node000001_Node000007"><a xlink:title=" ">
<path fill="none" stroke="#63b8ff" d="M226.53,-90.12C210.98,-82.91 191.86,-74.26 174.5,-67 167.59,-64.11 160.07,-61.15 153.02,-58.45"/>
<polygon fill="#63b8ff" stroke="#63b8ff" points="224.65,-93.57 235.19,-94.62 227.61,-87.22 224.65,-93.57"/>
</a>
</g>
</g>
<!-- Node8 -->
<g id="Node000008" class="node">
<title>Node8</title>
<g id="a_Node000008"><a xlink:href="../../df/d0a/main_8cpp.html#a3a0d238b444da51e7f04f65f8d390fd0" target="_top" xlink:title="Salva o quadro KanBan em um arquivo.">
<polygon fill="white" stroke="#666666" points="159.88,-20 87.62,-20 87.62,0 159.88,0 159.88,-20"/>
<text text-anchor="middle" x="123.75" y="-6.5" font-family="Helvetica,sans-Serif" font-size="10.00">salvarQuadro</text>
</a>
</g>
</g>
<!-- Node1&#45;&gt;Node8 -->
<g id="edge11_Node000001_Node000008" class="edge">
<title>Node1&#45;&gt;Node8</title>
<g id="a_edge11_Node000001_Node000008"><a xlink:title=" ">
<path fill="none" stroke="#63b8ff" d="M241.6,-86.55C225.8,-69.69 200.52,-45.01 174.5,-29 169.22,-25.75 163.3,-22.91 157.43,-20.47"/>
<polygon fill="#63b8ff" stroke="#63b8ff" points="238.62,-88.57 247.96,-93.57 243.78,-83.83 238.62,-88.57"/>
</a>
</g>
</g>
<!-- Node3 -->
<g id="Node000003" class="node">
<title>Node3</title>
<g id="a_Node000003"><a xlink:href="../../df/d0a/main_8cpp.html#ae66f6b31b5ad750f1fe042a706a4e3d4" target="_top" xlink:title=" ">
<polygon fill="white" stroke="#666666" points="37,-115 0,-115 0,-95 37,-95 37,-115"/>
<text text-anchor="middle" x="18.5" y="-101.5" font-family="Helvetica,sans-Serif" font-size="10.00">main</text>
</a>
</g>
</g>
<!-- Node2&#45;&gt;Node3 -->
<g id="edge2_Node000002_Node000003" class="edge">
<title>Node2&#45;&gt;Node3</title>
<g id="a_edge2_Node000002_Node000003"><a xlink:title=" ">
<path fill="none" stroke="#63b8ff" d="M78.09,-184.55C76.32,-183.44 74.61,-182.26 73,-181 49.57,-162.77 32.18,-131.48 24.25,-115.33"/>
<polygon fill="#63b8ff" stroke="#63b8ff" points="75.89,-187.87 86.36,-189.51 79.2,-181.7 75.89,-187.87"/>
</a>
</g>
</g>
<!-- Node4&#45;&gt;Node3 -->
<g id="edge4_Node000004_Node000003" class="edge">
<title>Node4&#45;&gt;Node3</title>
<g id="a_edge4_Node000004_Node000003"><a xlink:title=" ">
<path fill="none" stroke="#63b8ff" d="M81.59,-147.23C78.64,-145.89 75.75,-144.47 73,-143 58.13,-135.05 42.57,-123.59 32.09,-115.34"/>
<polygon fill="#63b8ff" stroke="#63b8ff" points="80.12,-150.84 90.69,-151.53 82.86,-144.39 80.12,-150.84"/>
</a>
</g>
</g>
<!-- Node5&#45;&gt;Node3 -->
<g id="edge6_Node000005_Node000003" class="edge">
<title>Node5&#45;&gt;Node3</title>
<g id="a_edge6_Node000005_Node000003"><a xlink:title=" ">
<path fill="none" stroke="#63b8ff" d="M71.31,-114.53C59.12,-112.29 46.92,-110.05 37.42,-108.3"/>
<polygon fill="#63b8ff" stroke="#63b8ff" points="70.47,-118.12 80.94,-116.49 71.74,-111.24 70.47,-118.12"/>
</a>
</g>
</g>
<!-- Node6&#45;&gt;Node3 -->
<g id="edge8_Node000006_Node000003" class="edge">
<title>Node6&#45;&gt;Node3</title>
<g id="a_edge8_Node000006_Node000003"><a xlink:title=" ">
<path fill="none" stroke="#63b8ff" d="M79.79,-93.91C64.92,-96.64 49.07,-99.56 37.35,-101.72"/>
<polygon fill="#63b8ff" stroke="#63b8ff" points="80.16,-97.21 89.36,-91.96 78.9,-90.33 80.16,-97.21"/>
</a>
</g>
</g>
<!-- Node7&#45;&gt;Node3 -->
<g id="edge10_Node000007_Node000003" class="edge">
<title>Node7&#45;&gt;Node3</title>
<g id="a_edge10_Node000007_Node000003"><a xlink:title=" ">
<path fill="none" stroke="#63b8ff" d="M81.59,-62.77C78.64,-64.11 75.75,-65.53 73,-67 58.13,-74.95 42.57,-86.41 32.09,-94.66"/>
<polygon fill="#63b8ff" stroke="#63b8ff" points="82.86,-65.61 90.69,-58.47 80.12,-59.16 82.86,-65.61"/>
</a>
</g>
</g>
<!-- Node8&#45;&gt;Node3 -->
<g id="edge12_Node000008_Node000003" class="edge">
<title>Node8&#45;&gt;Node3</title>
<g id="a_edge12_Node000008_Node000003"><a xlink:title=" ">
<path fill="none" stroke="#63b8ff" d="M78.09,-25.45C76.32,-26.56 74.61,-27.74 73,-29 49.57,-47.23 32.18,-78.52 24.25,-94.67"/>
<polygon fill="#63b8ff" stroke="#63b8ff" points="79.2,-28.3 86.36,-20.49 75.89,-22.13 79.2,-28.3"/>
</a>
</g>
</g>
</g>
</svg>
</svg>

<style type='text/css'>
<![CDATA[
[data-mouse-over-selected='false'] { opacity: 0.7; }
[data-mouse-over-selected='true']  { opacity: 1.0; }
]]>
</style>
<script type="application/ecmascript"><![CDATA[
document.addEventListener('DOMContentLoaded', (event) => {
  highlightEdges();
  highlightAdjacentNodes();
});
]]></script>
</svg>
