<?xml version="1.0" encoding="UTF-8" standalone="no"?>
<!DOCTYPE svg PUBLIC "-//W3C//DTD SVG 1.1//EN"
 "http://www.w3.org/Graphics/SVG/1.1/DTD/svg11.dtd">
<!-- Generated by graphviz version 8.1.0 (20230707.0739)
 -->
<!-- Title: Quadro::inserirColaborador Pages: 1 -->
<svg width="476pt" height="104pt"
 viewBox="0.00 0.00 475.50 104.00" xmlns="http://www.w3.org/2000/svg" xmlns:xlink="http://www.w3.org/1999/xlink">

<svg id="main" version="1.1" xmlns="http://www.w3.org/2000/svg" xmlns:xlink="http://www.w3.org/1999/xlink" xml:space="preserve" onload="init(evt)">
<style type="text/css"><![CDATA[
.node, .edge {opacity: 0.7;}
.node.selected, .edge.selected {opacity: 1;}
.edge:hover path { stroke: red; }
.edge:hover polygon { stroke: red; fill: red; }
]]></style>
<script type="application/ecmascript" xlink:href="../../svg.min.js"/>
<svg id="graph" class="graph">
<g id="graph0" class="graph" transform="scale(1 1) rotate(0) translate(4 100)">
<title>Quadro::inserirColaborador</title>
<!-- Node1 -->
<g id="Node000001" class="node">
<title>Node1</title>
<g id="a_Node000001"><a xlink:title="Insere um colaborador na equipe do quadro.">
<polygon fill="#999999" stroke="#666666" points="467.5,-39 336,-39 336,-19 467.5,-19 467.5,-39"/>
<text text-anchor="middle" x="401.75" y="-25.5" font-family="Helvetica,sans-Serif" font-size="10.00">Quadro::inserirColaborador</text>
</a>
</g>
</g>
<!-- Node2 -->
<g id="Node000002" class="node">
<title>Node2</title>
<g id="a_Node000002"><a xlink:href="../../df/d0a/main_8cpp.html#aed504424b48ab1ef3ce656ba1d439ae0" target="_top" xlink:title="Cria e cadastra um novo colaborador no quadro KanBan.">
<polygon fill="white" stroke="#666666" points="300,-58 191.75,-58 191.75,-38 300,-38 300,-58"/>
<text text-anchor="middle" x="245.88" y="-44.5" font-family="Helvetica,sans-Serif" font-size="10.00">cadastrarColaborador</text>
</a>
</g>
</g>
<!-- Node1&#45;&gt;Node2 -->
<g id="edge1_Node000001_Node000002" class="edge">
<title>Node1&#45;&gt;Node2</title>
<g id="a_edge1_Node000001_Node000002"><a xlink:title=" ">
<path fill="none" stroke="#63b8ff" d="M325.05,-38.35C316.74,-39.37 308.4,-40.4 300.44,-41.39"/>
<polygon fill="#63b8ff" stroke="#63b8ff" points="325.44,-41.7 334.94,-37 324.59,-34.75 325.44,-41.7"/>
</a>
</g>
</g>
<!-- Node5 -->
<g id="Node000005" class="node">
<title>Node5</title>
<g id="a_Node000005"><a xlink:href="../../df/d0a/main_8cpp.html#ac19c0f76269ed6195cad2776a32e04f1" target="_top" xlink:title="Carrega um quadro KanBan a partir de um arquivo.">
<polygon fill="white" stroke="#666666" points="155.75,-20 73,-20 73,0 155.75,0 155.75,-20"/>
<text text-anchor="middle" x="114.38" y="-6.5" font-family="Helvetica,sans-Serif" font-size="10.00">carregarQuadro</text>
</a>
</g>
</g>
<!-- Node1&#45;&gt;Node5 -->
<g id="edge5_Node000001_Node000005" class="edge">
<title>Node1&#45;&gt;Node5</title>
<g id="a_edge5_Node000001_Node000005"><a xlink:title=" ">
<path fill="none" stroke="#63b8ff" d="M324.69,-23.94C270.49,-20.33 199.76,-15.62 155.97,-12.7"/>
<polygon fill="#63b8ff" stroke="#63b8ff" points="324.43,-27.49 334.64,-24.66 324.89,-20.51 324.43,-27.49"/>
</a>
</g>
</g>
<!-- Node3 -->
<g id="Node000003" class="node">
<title>Node3</title>
<g id="a_Node000003"><a xlink:href="../../df/d0a/main_8cpp.html#a0d931717ab3053bc49784e26575b01d6" target="_top" xlink:title="Adiciona uma nova tarefa a uma coluna no quadro KanBan.">
<polygon fill="white" stroke="#666666" points="155,-96 73.75,-96 73.75,-76 155,-76 155,-96"/>
<text text-anchor="middle" x="114.38" y="-82.5" font-family="Helvetica,sans-Serif" font-size="10.00">adicionarTarefa</text>
</a>
</g>
</g>
<!-- Node2&#45;&gt;Node3 -->
<g id="edge2_Node000002_Node000003" class="edge">
<title>Node2&#45;&gt;Node3</title>
<g id="a_edge2_Node000002_Node000003"><a xlink:title=" ">
<path fill="none" stroke="#63b8ff" d="M198.6,-61.58C182.94,-66.18 165.69,-71.23 150.99,-75.55"/>
<polygon fill="#63b8ff" stroke="#63b8ff" points="199.54,-64.66 208.15,-58.48 197.56,-57.94 199.54,-64.66"/>
</a>
</g>
</g>
<!-- Node4 -->
<g id="Node000004" class="node">
<title>Node4</title>
<g id="a_Node000004"><a xlink:href="../../df/d0a/main_8cpp.html#ae66f6b31b5ad750f1fe042a706a4e3d4" target="_top" xlink:title=" ">
<polygon fill="white" stroke="#666666" points="37,-58 0,-58 0,-38 37,-38 37,-58"/>
<text text-anchor="middle" x="18.5" y="-44.5" font-family="Helvetica,sans-Serif" font-size="10.00">main</text>
</a>
</g>
</g>
<!-- Node2&#45;&gt;Node4 -->
<g id="edge4_Node000002_Node000004" class="edge">
<title>Node2&#45;&gt;Node4</title>
<g id="a_edge4_Node000002_Node000004"><a xlink:title=" ">
<path fill="none" stroke="#63b8ff" d="M180.65,-48C131.75,-48 67.8,-48 37.25,-48"/>
<polygon fill="#63b8ff" stroke="#63b8ff" points="180.46,-51.5 190.46,-48 180.46,-44.5 180.46,-51.5"/>
</a>
</g>
</g>
<!-- Node3&#45;&gt;Node4 -->
<g id="edge3_Node000003_Node000004" class="edge">
<title>Node3&#45;&gt;Node4</title>
<g id="a_edge3_Node000003_Node000004"><a xlink:title=" ">
<path fill="none" stroke="#63b8ff" d="M77.33,-71.41C63.62,-65.86 48.59,-59.78 37.3,-55.2"/>
<polygon fill="#63b8ff" stroke="#63b8ff" points="75.89,-75.01 86.47,-75.52 78.52,-68.52 75.89,-75.01"/>
</a>
</g>
</g>
<!-- Node5&#45;&gt;Node4 -->
<g id="edge6_Node000005_Node000004" class="edge">
<title>Node5&#45;&gt;Node4</title>
<g id="a_edge6_Node000005_Node000004"><a xlink:title=" ">
<path fill="none" stroke="#63b8ff" d="M77.33,-24.59C63.62,-30.14 48.59,-36.22 37.3,-40.8"/>
<polygon fill="#63b8ff" stroke="#63b8ff" points="78.52,-27.48 86.47,-20.48 75.89,-20.99 78.52,-27.48"/>
</a>
</g>
</g>
</g>
</svg>
</svg>

<style type='text/css'>
<![CDATA[
[data-mouse-over-selected='false'] { opacity: 0.7; }
[data-mouse-over-selected='true']  { opacity: 1.0; }
]]>
</style>
<script type="application/ecmascript"><![CDATA[
document.addEventListener('DOMContentLoaded', (event) => {
  highlightEdges();
  highlightAdjacentNodes();
});
]]></script>
</svg>
