<?xml version="1.0" encoding="UTF-8" standalone="no"?>
<!DOCTYPE svg PUBLIC "-//W3C//DTD SVG 1.1//EN"
 "http://www.w3.org/Graphics/SVG/1.1/DTD/svg11.dtd">
<!-- Generated by graphviz version 8.1.0 (20230707.0739)
 -->
<!-- Title: ListaDupla::vazia Pages: 1 -->
<svg width="625pt" height="113pt"
 viewBox="0.00 0.00 624.75 113.00" xmlns="http://www.w3.org/2000/svg" xmlns:xlink="http://www.w3.org/1999/xlink">
<g id="graph0" class="graph" transform="scale(1 1) rotate(0) translate(4 109)">
<title>ListaDupla::vazia</title>
<!-- Node1 -->
<g id="Node000001" class="node">
<title>Node1</title>
<g id="a_Node000001"><a xlink:title="Verifica se a lista está vazia.">
<polygon fill="#999999" stroke="#666666" points="616.75,-77 527.25,-77 527.25,-57 616.75,-57 616.75,-77"/>
<text text-anchor="middle" x="572" y="-63.5" font-family="Helvetica,sans-Serif" font-size="10.00">ListaDupla::vazia</text>
</a>
</g>
</g>
<!-- Node2 -->
<g id="Node000002" class="node">
<title>Node2</title>
<g id="a_Node000002"><a xlink:href="../../dd/d91/class_lista_dupla.html#abfef1d092f78fb6862087097d809f1e7" target="_top" xlink:title="Remove todos os nós da lista e libera a memória.">
<polygon fill="white" stroke="#666666" points="307.25,-105 213.25,-105 213.25,-85 307.25,-85 307.25,-105"/>
<text text-anchor="middle" x="260.25" y="-91.5" font-family="Helvetica,sans-Serif" font-size="10.00">ListaDupla::limpar</text>
</a>
</g>
</g>
<!-- Node1&#45;&gt;Node2 -->
<g id="edge1_Node000001_Node000002" class="edge">
<title>Node1&#45;&gt;Node2</title>
<g id="a_edge1_Node000001_Node000002"><a xlink:title=" ">
<path fill="none" stroke="#63b8ff" d="M523.3,-79.96C512.82,-82.36 501.72,-84.56 491.25,-86 428.1,-94.67 354.36,-96.03 307.74,-95.82"/>
<polygon fill="#63b8ff" stroke="#63b8ff" points="524.05,-83.14 532.96,-77.41 522.42,-76.33 524.05,-83.14"/>
</a>
</g>
</g>
<!-- Node4 -->
<g id="Node000004" class="node">
<title>Node4</title>
<g id="a_Node000004"><a xlink:href="../../dd/d91/class_lista_dupla.html#a0ec55e77494913e1041f772fb5abf176" target="_top" xlink:title="Remove a tarefa do fim da lista.">
<polygon fill="white" stroke="#666666" points="488.25,-39 370.25,-39 370.25,-19 488.25,-19 488.25,-39"/>
<text text-anchor="middle" x="429.25" y="-25.5" font-family="Helvetica,sans-Serif" font-size="10.00">ListaDupla::removerFim</text>
</a>
</g>
</g>
<!-- Node1&#45;&gt;Node4 -->
<g id="edge3_Node000001_Node000004" class="edge">
<title>Node1&#45;&gt;Node4</title>
<g id="a_edge3_Node000001_Node000004"><a xlink:title=" ">
<path fill="none" stroke="#63b8ff" d="M521.69,-53.69C504.4,-49.02 485.25,-43.85 468.96,-39.45"/>
<polygon fill="#63b8ff" stroke="#63b8ff" points="520.6,-57.29 531.17,-56.52 522.42,-50.53 520.6,-57.29"/>
</a>
</g>
</g>
<!-- Node8 -->
<g id="Node000008" class="node">
<title>Node8</title>
<g id="a_Node000008"><a xlink:href="../../dd/d91/class_lista_dupla.html#a6c0c785cb9c4a4a2fbe25beb370bd102" target="_top" xlink:title="Remove a tarefa do início da lista.">
<polygon fill="white" stroke="#666666" points="491.25,-77 367.25,-77 367.25,-57 491.25,-57 491.25,-77"/>
<text text-anchor="middle" x="429.25" y="-63.5" font-family="Helvetica,sans-Serif" font-size="10.00">ListaDupla::removerInicio</text>
</a>
</g>
</g>
<!-- Node1&#45;&gt;Node8 -->
<g id="edge7_Node000001_Node000008" class="edge">
<title>Node1&#45;&gt;Node8</title>
<g id="a_edge7_Node000001_Node000008"><a xlink:title=" ">
<path fill="none" stroke="#63b8ff" d="M516.09,-67C508.03,-67 499.69,-67 491.52,-67"/>
<polygon fill="#63b8ff" stroke="#63b8ff" points="515.85,-70.5 525.85,-67 515.85,-63.5 515.85,-70.5"/>
</a>
</g>
</g>
<!-- Node3 -->
<g id="Node000003" class="node">
<title>Node3</title>
<g id="a_Node000003"><a xlink:href="../../dd/d91/class_lista_dupla.html#a63481f371df6767019c8705208067514" target="_top" xlink:title="Destrutor da classe ListaDupla.">
<polygon fill="white" stroke="#666666" points="136.38,-105 16.88,-105 16.88,-85 136.38,-85 136.38,-105"/>
<text text-anchor="middle" x="76.62" y="-91.5" font-family="Helvetica,sans-Serif" font-size="10.00">ListaDupla::~ListaDupla</text>
</a>
</g>
</g>
<!-- Node2&#45;&gt;Node3 -->
<g id="edge2_Node000002_Node000003" class="edge">
<title>Node2&#45;&gt;Node3</title>
<g id="a_edge2_Node000002_Node000003"><a xlink:title=" ">
<path fill="none" stroke="#63b8ff" d="M202,-95C181.16,-95 157.56,-95 136.57,-95"/>
<polygon fill="#63b8ff" stroke="#63b8ff" points="201.95,-98.5 211.95,-95 201.95,-91.5 201.95,-98.5"/>
</a>
</g>
</g>
<!-- Node5 -->
<g id="Node000005" class="node">
<title>Node5</title>
<g id="a_Node000005"><a xlink:href="../../dd/d91/class_lista_dupla.html#ab976735e9038a9bd590a764b2a832e45" target="_top" xlink:title="Remove a tarefa da lista pelo índice.">
<polygon fill="white" stroke="#666666" points="331.25,-39 189.25,-39 189.25,-19 331.25,-19 331.25,-39"/>
<text text-anchor="middle" x="260.25" y="-25.5" font-family="Helvetica,sans-Serif" font-size="10.00">ListaDupla::removerPorIndice</text>
</a>
</g>
</g>
<!-- Node4&#45;&gt;Node5 -->
<g id="edge4_Node000004_Node000005" class="edge">
<title>Node4&#45;&gt;Node5</title>
<g id="a_edge4_Node000004_Node000005"><a xlink:title=" ">
<path fill="none" stroke="#63b8ff" d="M358.98,-29C349.97,-29 340.72,-29 331.68,-29"/>
<polygon fill="#63b8ff" stroke="#63b8ff" points="358.84,-32.5 368.84,-29 358.84,-25.5 358.84,-32.5"/>
</a>
</g>
</g>
<!-- Node6 -->
<g id="Node000006" class="node">
<title>Node6</title>
<g id="a_Node000006"><a xlink:href="../../de/d1c/class_coluna_nomeada.html#ad9f5dc15ca20616f353008e5a3aa27e3" target="_top" xlink:title="Remove uma tarefa da coluna.">
<polygon fill="white" stroke="#666666" points="153.25,-58 0,-58 0,-38 153.25,-38 153.25,-58"/>
<text text-anchor="middle" x="76.62" y="-44.5" font-family="Helvetica,sans-Serif" font-size="10.00">ColunaNomeada::removerTarefa</text>
</a>
</g>
</g>
<!-- Node5&#45;&gt;Node6 -->
<g id="edge5_Node000005_Node000006" class="edge">
<title>Node5&#45;&gt;Node6</title>
<g id="a_edge5_Node000005_Node000006"><a xlink:title=" ">
<path fill="none" stroke="#63b8ff" d="M178.09,-37.49C169.9,-38.35 161.61,-39.21 153.48,-40.06"/>
<polygon fill="#63b8ff" stroke="#63b8ff" points="178.19,-40.89 187.77,-36.37 177.46,-33.93 178.19,-40.89"/>
</a>
</g>
</g>
<!-- Node7 -->
<g id="Node000007" class="node">
<title>Node7</title>
<g id="a_Node000007"><a xlink:href="../../d0/d4e/class_coluna_arquivo.html#aae317988e21d9072edf5de1543085f14" target="_top" xlink:title="Remove uma tarefa da coluna.">
<polygon fill="white" stroke="#666666" points="148.38,-20 4.88,-20 4.88,0 148.38,0 148.38,-20"/>
<text text-anchor="middle" x="76.62" y="-6.5" font-family="Helvetica,sans-Serif" font-size="10.00">ColunaArquivo::removerTarefa</text>
</a>
</g>
</g>
<!-- Node5&#45;&gt;Node7 -->
<g id="edge6_Node000005_Node000007" class="edge">
<title>Node5&#45;&gt;Node7</title>
<g id="a_edge6_Node000005_Node000007"><a xlink:title=" ">
<path fill="none" stroke="#63b8ff" d="M177.86,-20.49C168.12,-19.47 158.24,-18.43 148.66,-17.43"/>
<polygon fill="#63b8ff" stroke="#63b8ff" points="177.46,-24.07 187.77,-21.63 178.19,-17.11 177.46,-24.07"/>
</a>
</g>
</g>
<!-- Node8&#45;&gt;Node2 -->
<g id="edge8_Node000008_Node000002" class="edge">
<title>Node8&#45;&gt;Node2</title>
<g id="a_edge8_Node000008_Node000002"><a xlink:title=" ">
<path fill="none" stroke="#63b8ff" d="M356.28,-79.07C339.77,-81.83 322.65,-84.71 307.57,-87.23"/>
<polygon fill="#63b8ff" stroke="#63b8ff" points="356.73,-82.37 366.01,-77.27 355.57,-75.47 356.73,-82.37"/>
</a>
</g>
</g>
<!-- Node8&#45;&gt;Node5 -->
<g id="edge9_Node000008_Node000005" class="edge">
<title>Node8&#45;&gt;Node5</title>
<g id="a_edge9_Node000008_Node000005"><a xlink:title=" ">
<path fill="none" stroke="#63b8ff" d="M371.48,-54.08C350.52,-49.31 327.05,-43.97 307.18,-39.45"/>
<polygon fill="#63b8ff" stroke="#63b8ff" points="370.65,-57.71 381.17,-56.52 372.2,-50.88 370.65,-57.71"/>
</a>
</g>
</g>
</g>
</svg>
