<?xml version="1.0" encoding="UTF-8" standalone="no"?>
<!DOCTYPE svg PUBLIC "-//W3C//DTD SVG 1.1//EN"
 "http://www.w3.org/Graphics/SVG/1.1/DTD/svg11.dtd">
<!-- Generated by graphviz version 8.1.0 (20230707.0739)
 -->
<!-- Title: ListaDupla::~ListaDupla Pages: 1 -->
<svg width="543pt" height="180pt"
 viewBox="0.00 0.00 543.00 180.00" xmlns="http://www.w3.org/2000/svg" xmlns:xlink="http://www.w3.org/1999/xlink">
<g id="graph0" class="graph" transform="scale(1 1) rotate(0) translate(4 176)">
<title>ListaDupla::~ListaDupla</title>
<!-- Node1 -->
<g id="Node000001" class="node">
<title>Node1</title>
<g id="a_Node000001"><a xlink:title="Destrutor da classe ListaDupla.">
<polygon fill="#999999" stroke="#666666" points="119.5,-58 0,-58 0,-38 119.5,-38 119.5,-58"/>
<text text-anchor="middle" x="59.75" y="-44.5" font-family="Helvetica,sans-Serif" font-size="10.00">ListaDupla::~ListaDupla</text>
</a>
</g>
</g>
<!-- Node2 -->
<g id="Node000002" class="node">
<title>Node2</title>
<g id="a_Node000002"><a xlink:href="../../dd/d91/class_lista_dupla.html#abfef1d092f78fb6862087097d809f1e7" target="_top" xlink:title="Remove todos os nós da lista e libera a memória.">
<polygon fill="white" stroke="#666666" points="249.5,-58 155.5,-58 155.5,-38 249.5,-38 249.5,-58"/>
<text text-anchor="middle" x="202.5" y="-44.5" font-family="Helvetica,sans-Serif" font-size="10.00">ListaDupla::limpar</text>
</a>
</g>
</g>
<!-- Node1&#45;&gt;Node2 -->
<g id="edge1_Node000001_Node000002" class="edge">
<title>Node1&#45;&gt;Node2</title>
<g id="a_edge1_Node000001_Node000002"><a xlink:title=" ">
<path fill="none" stroke="#63b8ff" d="M119.63,-48C127.81,-48 136.2,-48 144.35,-48"/>
<polygon fill="#63b8ff" stroke="#63b8ff" points="144.27,-51.5 154.27,-48 144.27,-44.5 144.27,-51.5"/>
</a>
</g>
</g>
<!-- Node3 -->
<g id="Node000003" class="node">
<title>Node3</title>
<g id="a_Node000003"><a xlink:href="../../dd/d91/class_lista_dupla.html#a6c0c785cb9c4a4a2fbe25beb370bd102" target="_top" xlink:title="Remove a tarefa do início da lista.">
<polygon fill="white" stroke="#666666" points="409.5,-86 285.5,-86 285.5,-66 409.5,-66 409.5,-86"/>
<text text-anchor="middle" x="347.5" y="-72.5" font-family="Helvetica,sans-Serif" font-size="10.00">ListaDupla::removerInicio</text>
</a>
</g>
</g>
<!-- Node2&#45;&gt;Node3 -->
<g id="edge2_Node000002_Node000003" class="edge">
<title>Node2&#45;&gt;Node3</title>
<g id="a_edge2_Node000002_Node000003"><a xlink:title=" ">
<path fill="none" stroke="#63b8ff" d="M249.93,-57.09C260.26,-59.11 271.4,-61.3 282.31,-63.43"/>
<polygon fill="#63b8ff" stroke="#63b8ff" points="281.62,-67.06 292.1,-65.54 282.96,-60.19 281.62,-67.06"/>
</a>
</g>
</g>
<!-- Node8 -->
<g id="Node000008" class="node">
<title>Node8</title>
<g id="a_Node000008"><a xlink:href="../../dd/d91/class_lista_dupla.html#a66888490f518d19c2d5cb3d3a053b816" target="_top" xlink:title="Verifica se a lista está vazia.">
<polygon fill="white" stroke="#666666" points="535,-20 445.5,-20 445.5,0 535,0 535,-20"/>
<text text-anchor="middle" x="490.25" y="-6.5" font-family="Helvetica,sans-Serif" font-size="10.00">ListaDupla::vazia</text>
</a>
</g>
</g>
<!-- Node2&#45;&gt;Node8 -->
<g id="edge8_Node000002_Node000008" class="edge">
<title>Node2&#45;&gt;Node8</title>
<g id="a_edge8_Node000002_Node000008"><a xlink:title=" ">
<path fill="none" stroke="#63b8ff" d="M249.73,-41.85C300.27,-35.13 381.18,-24.37 434.77,-17.25"/>
<polygon fill="#63b8ff" stroke="#63b8ff" points="434.98,-20.61 444.43,-15.83 434.06,-13.68 434.98,-20.61"/>
</a>
</g>
</g>
<!-- Node4 -->
<g id="Node000004" class="node">
<title>Node4</title>
<g id="a_Node000004"><a xlink:href="../../d9/d55/class_no.html#a42bd9dc9c7b24743c82e89b42a1581a2" target="_top" xlink:title="Obtém o próximo nó.">
<polygon fill="white" stroke="#666666" points="532,-172 448.5,-172 448.5,-152 532,-152 532,-172"/>
<text text-anchor="middle" x="490.25" y="-158.5" font-family="Helvetica,sans-Serif" font-size="10.00">No::getProximo</text>
</a>
</g>
</g>
<!-- Node3&#45;&gt;Node4 -->
<g id="edge3_Node000003_Node000004" class="edge">
<title>Node3&#45;&gt;Node4</title>
<g id="a_edge3_Node000003_Node000004"><a xlink:title=" ">
<path fill="none" stroke="#63b8ff" d="M361.77,-86.41C379.97,-100.4 414.01,-125.51 445.5,-143 447.91,-144.34 450.43,-145.65 452.99,-146.92"/>
<polygon fill="#63b8ff" stroke="#63b8ff" points="451.4,-150.5 461.94,-151.56 454.36,-144.16 451.4,-150.5"/>
</a>
</g>
</g>
<!-- Node5 -->
<g id="Node000005" class="node">
<title>Node5</title>
<g id="a_Node000005"><a xlink:href="../../d9/d55/class_no.html#a3e8d735fc07c24ecaee4e283ac9a1f36" target="_top" xlink:title="Obtém a tarefa armazenada no nó.">
<polygon fill="white" stroke="#666666" points="527.12,-134 453.38,-134 453.38,-114 527.12,-114 527.12,-134"/>
<text text-anchor="middle" x="490.25" y="-120.5" font-family="Helvetica,sans-Serif" font-size="10.00">No::getTarefa</text>
</a>
</g>
</g>
<!-- Node3&#45;&gt;Node5 -->
<g id="edge4_Node000003_Node000005" class="edge">
<title>Node3&#45;&gt;Node5</title>
<g id="a_edge4_Node000003_Node000005"><a xlink:title=" ">
<path fill="none" stroke="#63b8ff" d="M379.04,-86.42C399.42,-93.37 426.45,-102.58 448.64,-110.15"/>
<polygon fill="#63b8ff" stroke="#63b8ff" points="447.17,-113.69 457.77,-113.61 449.43,-107.06 447.17,-113.69"/>
</a>
</g>
</g>
<!-- Node6 -->
<g id="Node000006" class="node">
<title>Node6</title>
<g id="a_Node000006"><a xlink:href="../../d9/d55/class_no.html#a337f5ed0c85f3ac6646fd8295f2017a7" target="_top" xlink:title="Define o nó anterior.">
<polygon fill="white" stroke="#666666" points="530.88,-96 449.62,-96 449.62,-76 530.88,-76 530.88,-96"/>
<text text-anchor="middle" x="490.25" y="-82.5" font-family="Helvetica,sans-Serif" font-size="10.00">No::setAnterior</text>
</a>
</g>
</g>
<!-- Node3&#45;&gt;Node6 -->
<g id="edge5_Node000003_Node000006" class="edge">
<title>Node3&#45;&gt;Node6</title>
<g id="a_edge5_Node000003_Node000006"><a xlink:title=" ">
<path fill="none" stroke="#63b8ff" d="M409.83,-80.36C419.31,-81.03 429.01,-81.72 438.23,-82.38"/>
<polygon fill="#63b8ff" stroke="#63b8ff" points="437.97,-85.94 448.19,-83.15 438.47,-78.95 437.97,-85.94"/>
</a>
</g>
</g>
<!-- Node7 -->
<g id="Node000007" class="node">
<title>Node7</title>
<g id="a_Node000007"><a xlink:href="../../d9/d55/class_no.html#a1fd6922d7a6b246aa11251effaceeb7b" target="_top" xlink:title="Define o próximo nó.">
<polygon fill="white" stroke="#666666" points="532,-58 448.5,-58 448.5,-38 532,-38 532,-58"/>
<text text-anchor="middle" x="490.25" y="-44.5" font-family="Helvetica,sans-Serif" font-size="10.00">No::setProximo</text>
</a>
</g>
</g>
<!-- Node3&#45;&gt;Node7 -->
<g id="edge6_Node000003_Node000007" class="edge">
<title>Node3&#45;&gt;Node7</title>
<g id="a_edge6_Node000003_Node000007"><a xlink:title=" ">
<path fill="none" stroke="#63b8ff" d="M400.91,-65.57C412.88,-63.19 425.59,-60.66 437.53,-58.29"/>
<polygon fill="#63b8ff" stroke="#63b8ff" points="438.11,-61.54 447.23,-56.16 436.74,-54.68 438.11,-61.54"/>
</a>
</g>
</g>
<!-- Node3&#45;&gt;Node8 -->
<g id="edge7_Node000003_Node000008" class="edge">
<title>Node3&#45;&gt;Node8</title>
<g id="a_edge7_Node000003_Node000008"><a xlink:title=" ">
<path fill="none" stroke="#63b8ff" d="M369.2,-65.66C388.75,-55.97 418.97,-41.18 445.5,-29 448.49,-27.63 451.6,-26.22 454.73,-24.83"/>
<polygon fill="#63b8ff" stroke="#63b8ff" points="455.9,-27.7 463.64,-20.47 453.08,-21.29 455.9,-27.7"/>
</a>
</g>
</g>
</g>
</svg>
