<?xml version="1.0" encoding="UTF-8" standalone="no"?>
<!DOCTYPE svg PUBLIC "-//W3C//DTD SVG 1.1//EN"
 "http://www.w3.org/Graphics/SVG/1.1/DTD/svg11.dtd">
<!-- Generated by graphviz version 8.1.0 (20230707.0739)
 -->
<!-- Title: ListaDupla::removerInicio Pages: 1 -->
<svg width="258pt" height="180pt"
 viewBox="0.00 0.00 257.50 180.00" xmlns="http://www.w3.org/2000/svg" xmlns:xlink="http://www.w3.org/1999/xlink">

<svg id="main" version="1.1" xmlns="http://www.w3.org/2000/svg" xmlns:xlink="http://www.w3.org/1999/xlink" xml:space="preserve" onload="init(evt)">
<style type="text/css"><![CDATA[
.node, .edge {opacity: 0.7;}
.node.selected, .edge.selected {opacity: 1;}
.edge:hover path { stroke: red; }
.edge:hover polygon { stroke: red; fill: red; }
]]></style>
<script type="application/ecmascript" xlink:href="../../svg.min.js"/>
<svg id="graph" class="graph">
<g id="graph0" class="graph" transform="scale(1 1) rotate(0) translate(4 176)">
<title>ListaDupla::removerInicio</title>
<!-- Node1 -->
<g id="Node000001" class="node">
<title>Node1</title>
<g id="a_Node000001"><a xlink:title="Remove a tarefa do início da lista.">
<polygon fill="#999999" stroke="#666666" points="124,-96 0,-96 0,-76 124,-76 124,-96"/>
<text text-anchor="middle" x="62" y="-82.5" font-family="Helvetica,sans-Serif" font-size="10.00">ListaDupla::removerInicio</text>
</a>
</g>
</g>
<!-- Node2 -->
<g id="Node000002" class="node">
<title>Node2</title>
<g id="a_Node000002"><a xlink:href="../../d9/d55/class_no.html#a42bd9dc9c7b24743c82e89b42a1581a2" target="_top" xlink:title="Obtém o próximo nó.">
<polygon fill="white" stroke="#666666" points="246.5,-172 163,-172 163,-152 246.5,-152 246.5,-172"/>
<text text-anchor="middle" x="204.75" y="-158.5" font-family="Helvetica,sans-Serif" font-size="10.00">No::getProximo</text>
</a>
</g>
</g>
<!-- Node1&#45;&gt;Node2 -->
<g id="edge1_Node000001_Node000002" class="edge">
<title>Node1&#45;&gt;Node2</title>
<g id="a_edge1_Node000001_Node000002"><a xlink:title=" ">
<path fill="none" stroke="#63b8ff" d="M79.14,-96.3C98.12,-108.23 130.75,-128.12 160,-143 162.77,-144.41 165.66,-145.81 168.59,-147.18"/>
<polygon fill="#63b8ff" stroke="#63b8ff" points="166.97,-150.74 177.52,-151.67 169.85,-144.36 166.97,-150.74"/>
</a>
</g>
</g>
<!-- Node3 -->
<g id="Node000003" class="node">
<title>Node3</title>
<g id="a_Node000003"><a xlink:href="../../d9/d55/class_no.html#a3e8d735fc07c24ecaee4e283ac9a1f36" target="_top" xlink:title="Obtém a tarefa armazenada no nó.">
<polygon fill="white" stroke="#666666" points="241.62,-134 167.88,-134 167.88,-114 241.62,-114 241.62,-134"/>
<text text-anchor="middle" x="204.75" y="-120.5" font-family="Helvetica,sans-Serif" font-size="10.00">No::getTarefa</text>
</a>
</g>
</g>
<!-- Node1&#45;&gt;Node3 -->
<g id="edge2_Node000001_Node000003" class="edge">
<title>Node1&#45;&gt;Node3</title>
<g id="a_edge2_Node000001_Node000003"><a xlink:title=" ">
<path fill="none" stroke="#63b8ff" d="M101.83,-96.48C118.89,-101.09 139.07,-106.54 156.96,-111.37"/>
<polygon fill="#63b8ff" stroke="#63b8ff" points="155.89,-114.97 166.46,-114.2 157.72,-108.22 155.89,-114.97"/>
</a>
</g>
</g>
<!-- Node4 -->
<g id="Node000004" class="node">
<title>Node4</title>
<g id="a_Node000004"><a xlink:href="../../d9/d55/class_no.html#a337f5ed0c85f3ac6646fd8295f2017a7" target="_top" xlink:title="Define o nó anterior.">
<polygon fill="white" stroke="#666666" points="245.38,-96 164.12,-96 164.12,-76 245.38,-76 245.38,-96"/>
<text text-anchor="middle" x="204.75" y="-82.5" font-family="Helvetica,sans-Serif" font-size="10.00">No::setAnterior</text>
</a>
</g>
</g>
<!-- Node1&#45;&gt;Node4 -->
<g id="edge3_Node000001_Node000004" class="edge">
<title>Node1&#45;&gt;Node4</title>
<g id="a_edge3_Node000001_Node000004"><a xlink:title=" ">
<path fill="none" stroke="#63b8ff" d="M124.33,-86C133.81,-86 143.51,-86 152.73,-86"/>
<polygon fill="#63b8ff" stroke="#63b8ff" points="152.69,-89.5 162.69,-86 152.69,-82.5 152.69,-89.5"/>
</a>
</g>
</g>
<!-- Node5 -->
<g id="Node000005" class="node">
<title>Node5</title>
<g id="a_Node000005"><a xlink:href="../../d9/d55/class_no.html#a1fd6922d7a6b246aa11251effaceeb7b" target="_top" xlink:title="Define o próximo nó.">
<polygon fill="white" stroke="#666666" points="246.5,-58 163,-58 163,-38 246.5,-38 246.5,-58"/>
<text text-anchor="middle" x="204.75" y="-44.5" font-family="Helvetica,sans-Serif" font-size="10.00">No::setProximo</text>
</a>
</g>
</g>
<!-- Node1&#45;&gt;Node5 -->
<g id="edge4_Node000001_Node000005" class="edge">
<title>Node1&#45;&gt;Node5</title>
<g id="a_edge4_Node000001_Node000005"><a xlink:title=" ">
<path fill="none" stroke="#63b8ff" d="M101.83,-75.52C118.14,-71.11 137.3,-65.94 154.57,-61.28"/>
<polygon fill="#63b8ff" stroke="#63b8ff" points="155.3,-64.44 164.04,-58.45 153.48,-57.68 155.3,-64.44"/>
</a>
</g>
</g>
<!-- Node6 -->
<g id="Node000006" class="node">
<title>Node6</title>
<g id="a_Node000006"><a xlink:href="../../dd/d91/class_lista_dupla.html#a66888490f518d19c2d5cb3d3a053b816" target="_top" xlink:title="Verifica se a lista está vazia.">
<polygon fill="white" stroke="#666666" points="249.5,-20 160,-20 160,0 249.5,0 249.5,-20"/>
<text text-anchor="middle" x="204.75" y="-6.5" font-family="Helvetica,sans-Serif" font-size="10.00">ListaDupla::vazia</text>
</a>
</g>
</g>
<!-- Node1&#45;&gt;Node6 -->
<g id="edge5_Node000001_Node000006" class="edge">
<title>Node1&#45;&gt;Node6</title>
<g id="a_edge5_Node000001_Node000006"><a xlink:title=" ">
<path fill="none" stroke="#63b8ff" d="M79.14,-75.7C98.12,-63.77 130.75,-43.88 160,-29 162.77,-27.59 165.66,-26.19 168.59,-24.82"/>
<polygon fill="#63b8ff" stroke="#63b8ff" points="169.85,-27.64 177.52,-20.33 166.97,-21.26 169.85,-27.64"/>
</a>
</g>
</g>
</g>
</svg>
</svg>

<style type='text/css'>
<![CDATA[
[data-mouse-over-selected='false'] { opacity: 0.7; }
[data-mouse-over-selected='true']  { opacity: 1.0; }
]]>
</style>
<script type="application/ecmascript"><![CDATA[
document.addEventListener('DOMContentLoaded', (event) => {
  highlightEdges();
  highlightAdjacentNodes();
});
]]></script>
</svg>
