<?xml version="1.0" encoding="UTF-8" standalone="no"?>
<!DOCTYPE svg PUBLIC "-//W3C//DTD SVG 1.1//EN"
 "http://www.w3.org/Graphics/SVG/1.1/DTD/svg11.dtd">
<!-- Generated by graphviz version 8.1.0 (20230707.0739)
 -->
<!-- Title: ListaDupla::lightDelete Pages: 1 -->
<svg width="241pt" height="142pt"
 viewBox="0.00 0.00 241.00 142.00" xmlns="http://www.w3.org/2000/svg" xmlns:xlink="http://www.w3.org/1999/xlink">

<svg id="main" version="1.1" xmlns="http://www.w3.org/2000/svg" xmlns:xlink="http://www.w3.org/1999/xlink" xml:space="preserve" onload="init(evt)">
<style type="text/css"><![CDATA[
.node, .edge {opacity: 0.7;}
.node.selected, .edge.selected {opacity: 1;}
.edge:hover path { stroke: red; }
.edge:hover polygon { stroke: red; fill: red; }
]]></style>
<script type="application/ecmascript" xlink:href="../../svg.min.js"/>
<svg id="graph" class="graph">
<g id="graph0" class="graph" transform="scale(1 1) rotate(0) translate(4 138)">
<title>ListaDupla::lightDelete</title>
<!-- Node1 -->
<g id="Node000001" class="node">
<title>Node1</title>
<g id="a_Node000001"><a xlink:title="Remove a tarefa da lista, mas mantém o nó na lista sem referência à tarefa.">
<polygon fill="#999999" stroke="#666666" points="113.5,-77 0,-77 0,-57 113.5,-57 113.5,-77"/>
<text text-anchor="middle" x="56.75" y="-63.5" font-family="Helvetica,sans-Serif" font-size="10.00">ListaDupla::lightDelete</text>
</a>
</g>
</g>
<!-- Node2 -->
<g id="Node000002" class="node">
<title>Node2</title>
<g id="a_Node000002"><a xlink:href="../../d9/d55/class_no.html#a18866d7db046e7987120e93bf1a839d3" target="_top" xlink:title="Obtém o nó anterior.">
<polygon fill="white" stroke="#666666" points="231.88,-134 150.62,-134 150.62,-114 231.88,-114 231.88,-134"/>
<text text-anchor="middle" x="191.25" y="-120.5" font-family="Helvetica,sans-Serif" font-size="10.00">No::getAnterior</text>
</a>
</g>
</g>
<!-- Node1&#45;&gt;Node2 -->
<g id="edge1_Node000001_Node000002" class="edge">
<title>Node1&#45;&gt;Node2</title>
<g id="a_edge1_Node000001_Node000002"><a xlink:title=" ">
<path fill="none" stroke="#63b8ff" d="M82.05,-77.45C102.78,-86.37 132.83,-99.3 156,-109.26"/>
<polygon fill="#63b8ff" stroke="#63b8ff" points="154.53,-112.87 165.1,-113.61 157.3,-106.44 154.53,-112.87"/>
</a>
</g>
</g>
<!-- Node3 -->
<g id="Node000003" class="node">
<title>Node3</title>
<g id="a_Node000003"><a xlink:href="../../d9/d55/class_no.html#a42bd9dc9c7b24743c82e89b42a1581a2" target="_top" xlink:title="Obtém o próximo nó.">
<polygon fill="white" stroke="#666666" points="233,-96 149.5,-96 149.5,-76 233,-76 233,-96"/>
<text text-anchor="middle" x="191.25" y="-82.5" font-family="Helvetica,sans-Serif" font-size="10.00">No::getProximo</text>
</a>
</g>
</g>
<!-- Node1&#45;&gt;Node3 -->
<g id="edge2_Node000001_Node000003" class="edge">
<title>Node1&#45;&gt;Node3</title>
<g id="a_edge2_Node000001_Node000003"><a xlink:title=" ">
<path fill="none" stroke="#63b8ff" d="M113.94,-75.06C122.09,-76.23 130.44,-77.42 138.5,-78.58"/>
<polygon fill="#63b8ff" stroke="#63b8ff" points="137.85,-82.17 148.24,-80.12 138.84,-75.24 137.85,-82.17"/>
</a>
</g>
</g>
<!-- Node4 -->
<g id="Node000004" class="node">
<title>Node4</title>
<g id="a_Node000004"><a xlink:href="../../d9/d55/class_no.html#a337f5ed0c85f3ac6646fd8295f2017a7" target="_top" xlink:title="Define o nó anterior.">
<polygon fill="white" stroke="#666666" points="231.88,-58 150.62,-58 150.62,-38 231.88,-38 231.88,-58"/>
<text text-anchor="middle" x="191.25" y="-44.5" font-family="Helvetica,sans-Serif" font-size="10.00">No::setAnterior</text>
</a>
</g>
</g>
<!-- Node1&#45;&gt;Node4 -->
<g id="edge3_Node000001_Node000004" class="edge">
<title>Node1&#45;&gt;Node4</title>
<g id="a_edge3_Node000001_Node000004"><a xlink:title=" ">
<path fill="none" stroke="#63b8ff" d="M113.94,-58.94C122.48,-57.72 131.24,-56.46 139.64,-55.26"/>
<polygon fill="#63b8ff" stroke="#63b8ff" points="140.03,-58.59 149.44,-53.71 139.04,-51.66 140.03,-58.59"/>
</a>
</g>
</g>
<!-- Node5 -->
<g id="Node000005" class="node">
<title>Node5</title>
<g id="a_Node000005"><a xlink:href="../../d9/d55/class_no.html#a1fd6922d7a6b246aa11251effaceeb7b" target="_top" xlink:title="Define o próximo nó.">
<polygon fill="white" stroke="#666666" points="233,-20 149.5,-20 149.5,0 233,0 233,-20"/>
<text text-anchor="middle" x="191.25" y="-6.5" font-family="Helvetica,sans-Serif" font-size="10.00">No::setProximo</text>
</a>
</g>
</g>
<!-- Node1&#45;&gt;Node5 -->
<g id="edge4_Node000001_Node000005" class="edge">
<title>Node1&#45;&gt;Node5</title>
<g id="a_edge4_Node000001_Node000005"><a xlink:title=" ">
<path fill="none" stroke="#63b8ff" d="M82.05,-56.55C102.78,-47.63 132.83,-34.7 156,-24.74"/>
<polygon fill="#63b8ff" stroke="#63b8ff" points="157.3,-27.56 165.1,-20.39 154.53,-21.13 157.3,-27.56"/>
</a>
</g>
</g>
</g>
</svg>
</svg>

<style type='text/css'>
<![CDATA[
[data-mouse-over-selected='false'] { opacity: 0.7; }
[data-mouse-over-selected='true']  { opacity: 1.0; }
]]>
</style>
<script type="application/ecmascript"><![CDATA[
document.addEventListener('DOMContentLoaded', (event) => {
  highlightEdges();
  highlightAdjacentNodes();
});
]]></script>
</svg>
