<?xml version="1.0" encoding="UTF-8" standalone="no"?>
<!DOCTYPE svg PUBLIC "-//W3C//DTD SVG 1.1//EN"
 "http://www.w3.org/Graphics/SVG/1.1/DTD/svg11.dtd">
<!-- Generated by graphviz version 8.1.0 (20230707.0739)
 -->
<!-- Title: ListaDupla::removerInicio Pages: 1 -->
<svg width="499pt" height="104pt"
 viewBox="0.00 0.00 499.25 104.00" xmlns="http://www.w3.org/2000/svg" xmlns:xlink="http://www.w3.org/1999/xlink">

<svg id="main" version="1.1" xmlns="http://www.w3.org/2000/svg" xmlns:xlink="http://www.w3.org/1999/xlink" xml:space="preserve" onload="init(evt)">
<style type="text/css"><![CDATA[
.node, .edge {opacity: 0.7;}
.node.selected, .edge.selected {opacity: 1;}
.edge:hover path { stroke: red; }
.edge:hover polygon { stroke: red; fill: red; }
]]></style>
<script type="application/ecmascript" xlink:href="../../svg.min.js"/>
<svg id="graph" class="graph">
<g id="graph0" class="graph" transform="scale(1 1) rotate(0) translate(4 100)">
<title>ListaDupla::removerInicio</title>
<!-- Node1 -->
<g id="Node000001" class="node">
<title>Node1</title>
<g id="a_Node000001"><a xlink:title="Remove a tarefa do início da lista.">
<polygon fill="#999999" stroke="#666666" points="491.25,-77 367.25,-77 367.25,-57 491.25,-57 491.25,-77"/>
<text text-anchor="middle" x="429.25" y="-63.5" font-family="Helvetica,sans-Serif" font-size="10.00">ListaDupla::removerInicio</text>
</a>
</g>
</g>
<!-- Node2 -->
<g id="Node000002" class="node">
<title>Node2</title>
<g id="a_Node000002"><a xlink:href="../../dd/d91/class_lista_dupla.html#abfef1d092f78fb6862087097d809f1e7" target="_top" xlink:title="Remove todos os nós da lista e libera a memória.">
<polygon fill="white" stroke="#666666" points="307.25,-96 213.25,-96 213.25,-76 307.25,-76 307.25,-96"/>
<text text-anchor="middle" x="260.25" y="-82.5" font-family="Helvetica,sans-Serif" font-size="10.00">ListaDupla::limpar</text>
</a>
</g>
</g>
<!-- Node1&#45;&gt;Node2 -->
<g id="edge1_Node000001_Node000002" class="edge">
<title>Node1&#45;&gt;Node2</title>
<g id="a_edge1_Node000001_Node000002"><a xlink:title=" ">
<path fill="none" stroke="#63b8ff" d="M356.28,-75.19C339.77,-77.07 322.65,-79.01 307.57,-80.73"/>
<polygon fill="#63b8ff" stroke="#63b8ff" points="356.47,-78.58 366.01,-73.97 355.68,-71.62 356.47,-78.58"/>
</a>
</g>
</g>
<!-- Node4 -->
<g id="Node000004" class="node">
<title>Node4</title>
<g id="a_Node000004"><a xlink:href="../../dd/d91/class_lista_dupla.html#ab976735e9038a9bd590a764b2a832e45" target="_top" xlink:title="Remove a tarefa da lista pelo índice.">
<polygon fill="white" stroke="#666666" points="331.25,-58 189.25,-58 189.25,-38 331.25,-38 331.25,-58"/>
<text text-anchor="middle" x="260.25" y="-44.5" font-family="Helvetica,sans-Serif" font-size="10.00">ListaDupla::removerPorIndice</text>
</a>
</g>
</g>
<!-- Node1&#45;&gt;Node4 -->
<g id="edge3_Node000001_Node000004" class="edge">
<title>Node1&#45;&gt;Node4</title>
<g id="a_edge3_Node000001_Node000004"><a xlink:title=" ">
<path fill="none" stroke="#63b8ff" d="M356.32,-58.82C348.1,-57.88 339.72,-56.93 331.52,-55.99"/>
<polygon fill="#63b8ff" stroke="#63b8ff" points="355.68,-62.38 366.01,-60.03 356.47,-55.42 355.68,-62.38"/>
</a>
</g>
</g>
<!-- Node3 -->
<g id="Node000003" class="node">
<title>Node3</title>
<g id="a_Node000003"><a xlink:href="../../dd/d91/class_lista_dupla.html#a63481f371df6767019c8705208067514" target="_top" xlink:title="Destrutor da classe ListaDupla.">
<polygon fill="white" stroke="#666666" points="136.38,-96 16.88,-96 16.88,-76 136.38,-76 136.38,-96"/>
<text text-anchor="middle" x="76.62" y="-82.5" font-family="Helvetica,sans-Serif" font-size="10.00">ListaDupla::~ListaDupla</text>
</a>
</g>
</g>
<!-- Node2&#45;&gt;Node3 -->
<g id="edge2_Node000002_Node000003" class="edge">
<title>Node2&#45;&gt;Node3</title>
<g id="a_edge2_Node000002_Node000003"><a xlink:title=" ">
<path fill="none" stroke="#63b8ff" d="M202,-86C181.16,-86 157.56,-86 136.57,-86"/>
<polygon fill="#63b8ff" stroke="#63b8ff" points="201.95,-89.5 211.95,-86 201.95,-82.5 201.95,-89.5"/>
</a>
</g>
</g>
<!-- Node5 -->
<g id="Node000005" class="node">
<title>Node5</title>
<g id="a_Node000005"><a xlink:href="../../de/d1c/class_coluna_nomeada.html#ad9f5dc15ca20616f353008e5a3aa27e3" target="_top" xlink:title="Remove uma tarefa da coluna.">
<polygon fill="white" stroke="#666666" points="153.25,-58 0,-58 0,-38 153.25,-38 153.25,-58"/>
<text text-anchor="middle" x="76.62" y="-44.5" font-family="Helvetica,sans-Serif" font-size="10.00">ColunaNomeada::removerTarefa</text>
</a>
</g>
</g>
<!-- Node4&#45;&gt;Node5 -->
<g id="edge4_Node000004_Node000005" class="edge">
<title>Node4&#45;&gt;Node5</title>
<g id="a_edge4_Node000004_Node000005"><a xlink:title=" ">
<path fill="none" stroke="#63b8ff" d="M177.81,-48C169.72,-48 161.52,-48 153.48,-48"/>
<polygon fill="#63b8ff" stroke="#63b8ff" points="177.77,-51.5 187.77,-48 177.77,-44.5 177.77,-51.5"/>
</a>
</g>
</g>
<!-- Node6 -->
<g id="Node000006" class="node">
<title>Node6</title>
<g id="a_Node000006"><a xlink:href="../../d0/d4e/class_coluna_arquivo.html#aae317988e21d9072edf5de1543085f14" target="_top" xlink:title="Remove uma tarefa da coluna.">
<polygon fill="white" stroke="#666666" points="148.38,-20 4.88,-20 4.88,0 148.38,0 148.38,-20"/>
<text text-anchor="middle" x="76.62" y="-6.5" font-family="Helvetica,sans-Serif" font-size="10.00">ColunaArquivo::removerTarefa</text>
</a>
</g>
</g>
<!-- Node4&#45;&gt;Node6 -->
<g id="edge5_Node000004_Node000006" class="edge">
<title>Node4&#45;&gt;Node6</title>
<g id="a_edge5_Node000004_Node000006"><a xlink:title=" ">
<path fill="none" stroke="#63b8ff" d="M198.44,-35.28C175.42,-30.46 149.49,-25.04 127.57,-20.45"/>
<polygon fill="#63b8ff" stroke="#63b8ff" points="197.63,-38.89 208.14,-37.52 199.07,-32.04 197.63,-38.89"/>
</a>
</g>
</g>
</g>
</svg>
</svg>

<style type='text/css'>
<![CDATA[
[data-mouse-over-selected='false'] { opacity: 0.7; }
[data-mouse-over-selected='true']  { opacity: 1.0; }
]]>
</style>
<script type="application/ecmascript"><![CDATA[
document.addEventListener('DOMContentLoaded', (event) => {
  highlightEdges();
  highlightAdjacentNodes();
});
]]></script>
</svg>
