<?xml version="1.0" encoding="UTF-8" standalone="no"?>
<!DOCTYPE svg PUBLIC "-//W3C//DTD SVG 1.1//EN"
 "http://www.w3.org/Graphics/SVG/1.1/DTD/svg11.dtd">
<!-- Generated by graphviz version 8.1.0 (20230707.0739)
 -->
<!-- Title: ListaDupla::ordenarPorPrioridade Pages: 1 -->
<svg width="308pt" height="218pt"
 viewBox="0.00 0.00 307.75 218.00" xmlns="http://www.w3.org/2000/svg" xmlns:xlink="http://www.w3.org/1999/xlink">
<g id="graph0" class="graph" transform="scale(1 1) rotate(0) translate(4 214)">
<title>ListaDupla::ordenarPorPrioridade</title>
<!-- Node1 -->
<g id="Node000001" class="node">
<title>Node1</title>
<g id="a_Node000001"><a xlink:title="Ordena a lista de tarefas por prioridade.">
<polygon fill="#999999" stroke="#666666" points="158.5,-115 0,-115 0,-95 158.5,-95 158.5,-115"/>
<text text-anchor="middle" x="79.25" y="-101.5" font-family="Helvetica,sans-Serif" font-size="10.00">ListaDupla::ordenarPorPrioridade</text>
</a>
</g>
</g>
<!-- Node2 -->
<g id="Node000002" class="node">
<title>Node2</title>
<g id="a_Node000002"><a xlink:href="../../d9/d55/class_no.html#a18866d7db046e7987120e93bf1a839d3" target="_top" xlink:title="Obtém o nó anterior.">
<polygon fill="white" stroke="#666666" points="287.75,-210 206.5,-210 206.5,-190 287.75,-190 287.75,-210"/>
<text text-anchor="middle" x="247.12" y="-196.5" font-family="Helvetica,sans-Serif" font-size="10.00">No::getAnterior</text>
</a>
</g>
</g>
<!-- Node1&#45;&gt;Node2 -->
<g id="edge1_Node000001_Node000002" class="edge">
<title>Node1&#45;&gt;Node2</title>
<g id="a_edge1_Node000001_Node000002"><a xlink:title=" ">
<path fill="none" stroke="#63b8ff" d="M93.68,-115.46C114.4,-131.24 155.84,-161.37 194.5,-181 197.61,-182.58 200.88,-184.09 204.2,-185.53"/>
<polygon fill="#63b8ff" stroke="#63b8ff" points="202.65,-189.08 213.23,-189.59 205.28,-182.59 202.65,-189.08"/>
</a>
</g>
</g>
<!-- Node3 -->
<g id="Node000003" class="node">
<title>Node3</title>
<g id="a_Node000003"><a xlink:href="../../da/d23/class_tarefa.html#a7bf9fd90402ab301884f4dcbb36dcec8" target="_top" xlink:title="Obtém a prioridade da tarefa.">
<polygon fill="white" stroke="#666666" points="299.75,-172 194.5,-172 194.5,-152 299.75,-152 299.75,-172"/>
<text text-anchor="middle" x="247.12" y="-158.5" font-family="Helvetica,sans-Serif" font-size="10.00">Tarefa::getPrioridade</text>
</a>
</g>
</g>
<!-- Node1&#45;&gt;Node3 -->
<g id="edge2_Node000001_Node000003" class="edge">
<title>Node1&#45;&gt;Node3</title>
<g id="a_edge2_Node000001_Node000003"><a xlink:title=" ">
<path fill="none" stroke="#63b8ff" d="M110.67,-115.45C137.25,-124.59 176.04,-137.92 205.3,-147.97"/>
<polygon fill="#63b8ff" stroke="#63b8ff" points="204.02,-151.58 214.61,-151.52 206.29,-144.96 204.02,-151.58"/>
</a>
</g>
</g>
<!-- Node4 -->
<g id="Node000004" class="node">
<title>Node4</title>
<g id="a_Node000004"><a xlink:href="../../d9/d55/class_no.html#a42bd9dc9c7b24743c82e89b42a1581a2" target="_top" xlink:title="Obtém o próximo nó.">
<polygon fill="white" stroke="#666666" points="288.88,-134 205.38,-134 205.38,-114 288.88,-114 288.88,-134"/>
<text text-anchor="middle" x="247.12" y="-120.5" font-family="Helvetica,sans-Serif" font-size="10.00">No::getProximo</text>
</a>
</g>
</g>
<!-- Node1&#45;&gt;Node4 -->
<g id="edge3_Node000001_Node000004" class="edge">
<title>Node1&#45;&gt;Node4</title>
<g id="a_edge3_Node000001_Node000004"><a xlink:title=" ">
<path fill="none" stroke="#63b8ff" d="M158.82,-114C171,-115.39 183.31,-116.8 194.69,-118.11"/>
<polygon fill="#63b8ff" stroke="#63b8ff" points="193.95,-121.66 204.28,-119.32 194.75,-114.71 193.95,-121.66"/>
</a>
</g>
</g>
<!-- Node5 -->
<g id="Node000005" class="node">
<title>Node5</title>
<g id="a_Node000005"><a xlink:href="../../d9/d55/class_no.html#a3e8d735fc07c24ecaee4e283ac9a1f36" target="_top" xlink:title="Obtém a tarefa armazenada no nó.">
<polygon fill="white" stroke="#666666" points="284,-96 210.25,-96 210.25,-76 284,-76 284,-96"/>
<text text-anchor="middle" x="247.12" y="-82.5" font-family="Helvetica,sans-Serif" font-size="10.00">No::getTarefa</text>
</a>
</g>
</g>
<!-- Node1&#45;&gt;Node5 -->
<g id="edge4_Node000001_Node000005" class="edge">
<title>Node1&#45;&gt;Node5</title>
<g id="a_edge4_Node000001_Node000005"><a xlink:title=" ">
<path fill="none" stroke="#63b8ff" d="M158.82,-96C172.68,-94.41 186.7,-92.81 199.33,-91.36"/>
<polygon fill="#63b8ff" stroke="#63b8ff" points="199.5,-94.75 209.04,-90.13 198.7,-87.79 199.5,-94.75"/>
</a>
</g>
</g>
<!-- Node6 -->
<g id="Node000006" class="node">
<title>Node6</title>
<g id="a_Node000006"><a xlink:href="../../d9/d55/class_no.html#a337f5ed0c85f3ac6646fd8295f2017a7" target="_top" xlink:title="Define o nó anterior.">
<polygon fill="white" stroke="#666666" points="287.75,-58 206.5,-58 206.5,-38 287.75,-38 287.75,-58"/>
<text text-anchor="middle" x="247.12" y="-44.5" font-family="Helvetica,sans-Serif" font-size="10.00">No::setAnterior</text>
</a>
</g>
</g>
<!-- Node1&#45;&gt;Node6 -->
<g id="edge5_Node000001_Node000006" class="edge">
<title>Node1&#45;&gt;Node6</title>
<g id="a_edge5_Node000001_Node000006"><a xlink:title=" ">
<path fill="none" stroke="#63b8ff" d="M110.67,-94.55C137.25,-85.41 176.04,-72.08 205.3,-62.03"/>
<polygon fill="#63b8ff" stroke="#63b8ff" points="206.29,-65.04 214.61,-58.48 204.02,-58.42 206.29,-65.04"/>
</a>
</g>
</g>
<!-- Node7 -->
<g id="Node000007" class="node">
<title>Node7</title>
<g id="a_Node000007"><a xlink:href="../../d9/d55/class_no.html#a1fd6922d7a6b246aa11251effaceeb7b" target="_top" xlink:title="Define o próximo nó.">
<polygon fill="white" stroke="#666666" points="288.88,-20 205.38,-20 205.38,0 288.88,0 288.88,-20"/>
<text text-anchor="middle" x="247.12" y="-6.5" font-family="Helvetica,sans-Serif" font-size="10.00">No::setProximo</text>
</a>
</g>
</g>
<!-- Node1&#45;&gt;Node7 -->
<g id="edge6_Node000001_Node000007" class="edge">
<title>Node1&#45;&gt;Node7</title>
<g id="a_edge6_Node000001_Node000007"><a xlink:title=" ">
<path fill="none" stroke="#63b8ff" d="M93.68,-94.54C114.4,-78.76 155.84,-48.63 194.5,-29 197.61,-27.42 200.88,-25.91 204.2,-24.47"/>
<polygon fill="#63b8ff" stroke="#63b8ff" points="205.28,-27.41 213.23,-20.41 202.65,-20.92 205.28,-27.41"/>
</a>
</g>
</g>
</g>
</svg>
