<?xml version="1.0" encoding="UTF-8" standalone="no"?>
<!DOCTYPE svg PUBLIC "-//W3C//DTD SVG 1.1//EN"
 "http://www.w3.org/Graphics/SVG/1.1/DTD/svg11.dtd">
<!-- Generated by graphviz version 8.1.0 (20230707.0739)
 -->
<!-- Title: ListaDupla::getTamanho Pages: 1 -->
<svg width="312pt" height="142pt"
 viewBox="0.00 0.00 311.50 142.00" xmlns="http://www.w3.org/2000/svg" xmlns:xlink="http://www.w3.org/1999/xlink">
<g id="graph0" class="graph" transform="scale(1 1) rotate(0) translate(4 138)">
<title>ListaDupla::getTamanho</title>
<!-- Node1 -->
<g id="Node000001" class="node">
<title>Node1</title>
<g id="a_Node000001"><a xlink:title="Obtém o tamanho da lista.">
<polygon fill="#999999" stroke="#666666" points="303.5,-77 182.5,-77 182.5,-57 303.5,-57 303.5,-77"/>
<text text-anchor="middle" x="243" y="-63.5" font-family="Helvetica,sans-Serif" font-size="10.00">ListaDupla::getTamanho</text>
</a>
</g>
</g>
<!-- Node2 -->
<g id="Node000002" class="node">
<title>Node2</title>
<g id="a_Node000002"><a xlink:href="../../de/d1c/class_coluna_nomeada.html#af0ed75048904b4399b9955873f1ba7ba" target="_top" xlink:title="Obtém o tamanho da coluna, ou seja, a quantidade de tarefas nela contidas.">
<polygon fill="white" stroke="#666666" points="146.5,-134 0,-134 0,-114 146.5,-114 146.5,-134"/>
<text text-anchor="middle" x="73.25" y="-120.5" font-family="Helvetica,sans-Serif" font-size="10.00">ColunaNomeada::getTamanho</text>
</a>
</g>
</g>
<!-- Node1&#45;&gt;Node2 -->
<g id="edge1_Node000001_Node000002" class="edge">
<title>Node1&#45;&gt;Node2</title>
<g id="a_edge1_Node000001_Node000002"><a xlink:title=" ">
<path fill="none" stroke="#63b8ff" d="M208.28,-81.58C190.17,-89.12 167.33,-98.15 146.5,-105 137.14,-108.08 126.97,-111.01 117.29,-113.6"/>
<polygon fill="#63b8ff" stroke="#63b8ff" points="209.5,-84.45 217.36,-77.34 206.78,-77.99 209.5,-84.45"/>
</a>
</g>
</g>
<!-- Node3 -->
<g id="Node000003" class="node">
<title>Node3</title>
<g id="a_Node000003"><a xlink:href="../../d0/d4e/class_coluna_arquivo.html#a07705485463aba703ff87ea7d82691c5" target="_top" xlink:title="Obtém o tamanho da coluna, ou seja, a quantidade de tarefas nela contidas.">
<polygon fill="white" stroke="#666666" points="141.62,-96 4.88,-96 4.88,-76 141.62,-76 141.62,-96"/>
<text text-anchor="middle" x="73.25" y="-82.5" font-family="Helvetica,sans-Serif" font-size="10.00">ColunaArquivo::getTamanho</text>
</a>
</g>
</g>
<!-- Node1&#45;&gt;Node3 -->
<g id="edge2_Node000001_Node000003" class="edge">
<title>Node1&#45;&gt;Node3</title>
<g id="a_edge2_Node000001_Node000003"><a xlink:title=" ">
<path fill="none" stroke="#63b8ff" d="M171.48,-74.99C161.71,-76.09 151.68,-77.23 141.96,-78.33"/>
<polygon fill="#63b8ff" stroke="#63b8ff" points="171.84,-78.36 181.39,-73.75 171.05,-71.4 171.84,-78.36"/>
</a>
</g>
</g>
<!-- Node4 -->
<g id="Node000004" class="node">
<title>Node4</title>
<g id="a_Node000004"><a xlink:href="../../de/d1c/class_coluna_nomeada.html#ad0566fe1cc3fef87feeff8e76b74dffd" target="_top" xlink:title="Imprime as informações da coluna.">
<polygon fill="white" stroke="#666666" points="137.12,-58 9.38,-58 9.38,-38 137.12,-38 137.12,-58"/>
<text text-anchor="middle" x="73.25" y="-44.5" font-family="Helvetica,sans-Serif" font-size="10.00">ColunaNomeada::imprimir</text>
</a>
</g>
</g>
<!-- Node1&#45;&gt;Node4 -->
<g id="edge3_Node000001_Node000004" class="edge">
<title>Node1&#45;&gt;Node4</title>
<g id="a_edge3_Node000001_Node000004"><a xlink:title=" ">
<path fill="none" stroke="#63b8ff" d="M171.62,-59.03C160.25,-57.74 148.55,-56.42 137.36,-55.15"/>
<polygon fill="#63b8ff" stroke="#63b8ff" points="171.05,-62.6 181.39,-60.25 171.84,-55.64 171.05,-62.6"/>
</a>
</g>
</g>
<!-- Node5 -->
<g id="Node000005" class="node">
<title>Node5</title>
<g id="a_Node000005"><a xlink:href="../../d0/d4e/class_coluna_arquivo.html#af89c858cfeb225706983f3e91090792f" target="_top" xlink:title="Imprime as informações da coluna.">
<polygon fill="white" stroke="#666666" points="132.25,-20 14.25,-20 14.25,0 132.25,0 132.25,-20"/>
<text text-anchor="middle" x="73.25" y="-6.5" font-family="Helvetica,sans-Serif" font-size="10.00">ColunaArquivo::imprimir</text>
</a>
</g>
</g>
<!-- Node1&#45;&gt;Node5 -->
<g id="edge4_Node000001_Node000005" class="edge">
<title>Node1&#45;&gt;Node5</title>
<g id="a_edge4_Node000001_Node000005"><a xlink:title=" ">
<path fill="none" stroke="#63b8ff" d="M208.28,-52.42C190.17,-44.88 167.33,-35.85 146.5,-29 137.14,-25.92 126.97,-22.99 117.29,-20.4"/>
<polygon fill="#63b8ff" stroke="#63b8ff" points="206.78,-56.01 217.36,-56.66 209.5,-49.55 206.78,-56.01"/>
</a>
</g>
</g>
</g>
</svg>
