<?xml version="1.0" encoding="UTF-8" standalone="no"?>
<!DOCTYPE svg PUBLIC "-//W3C//DTD SVG 1.1//EN"
 "http://www.w3.org/Graphics/SVG/1.1/DTD/svg11.dtd">
<!-- Generated by graphviz version 8.1.0 (20230707.0739)
 -->
<!-- Title: ListaDupla::removerPorIndice Pages: 1 -->
<svg width="436pt" height="237pt"
 viewBox="0.00 0.00 435.50 237.00" xmlns="http://www.w3.org/2000/svg" xmlns:xlink="http://www.w3.org/1999/xlink">

<svg id="main" version="1.1" xmlns="http://www.w3.org/2000/svg" xmlns:xlink="http://www.w3.org/1999/xlink" xml:space="preserve" onload="init(evt)">
<style type="text/css"><![CDATA[
.node, .edge {opacity: 0.7;}
.node.selected, .edge.selected {opacity: 1;}
.edge:hover path { stroke: red; }
.edge:hover polygon { stroke: red; fill: red; }
]]></style>
<script type="application/ecmascript" xlink:href="../../svg.min.js"/>
<svg id="graph" class="graph">
<g id="graph0" class="graph" transform="scale(1 1) rotate(0) translate(4 233)">
<title>ListaDupla::removerPorIndice</title>
<!-- Node1 -->
<g id="Node000001" class="node">
<title>Node1</title>
<g id="a_Node000001"><a xlink:title="Remove a tarefa da lista pelo índice.">
<polygon fill="#999999" stroke="#666666" points="142,-134 0,-134 0,-114 142,-114 142,-134"/>
<text text-anchor="middle" x="71" y="-120.5" font-family="Helvetica,sans-Serif" font-size="10.00">ListaDupla::removerPorIndice</text>
</a>
</g>
</g>
<!-- Node2 -->
<g id="Node000002" class="node">
<title>Node2</title>
<g id="a_Node000002"><a xlink:href="../../d9/d55/class_no.html#a18866d7db046e7987120e93bf1a839d3" target="_top" xlink:title="Obtém o nó anterior.">
<polygon fill="white" stroke="#666666" points="423.38,-229 342.12,-229 342.12,-209 423.38,-209 423.38,-229"/>
<text text-anchor="middle" x="382.75" y="-215.5" font-family="Helvetica,sans-Serif" font-size="10.00">No::getAnterior</text>
</a>
</g>
</g>
<!-- Node1&#45;&gt;Node2 -->
<g id="edge1_Node000001_Node000002" class="edge">
<title>Node1&#45;&gt;Node2</title>
<g id="a_edge1_Node000001_Node000002"><a xlink:title=" ">
<path fill="none" stroke="#63b8ff" d="M89.79,-134.44C110.39,-146.11 145.64,-164.84 178,-176 228.83,-193.52 289.36,-205.2 331.17,-211.91"/>
<polygon fill="#63b8ff" stroke="#63b8ff" points="330.49,-215.5 340.91,-213.59 331.57,-208.58 330.49,-215.5"/>
</a>
</g>
</g>
<!-- Node3 -->
<g id="Node000003" class="node">
<title>Node3</title>
<g id="a_Node000003"><a xlink:href="../../d9/d55/class_no.html#a42bd9dc9c7b24743c82e89b42a1581a2" target="_top" xlink:title="Obtém o próximo nó.">
<polygon fill="white" stroke="#666666" points="424.5,-20 341,-20 341,0 424.5,0 424.5,-20"/>
<text text-anchor="middle" x="382.75" y="-6.5" font-family="Helvetica,sans-Serif" font-size="10.00">No::getProximo</text>
</a>
</g>
</g>
<!-- Node1&#45;&gt;Node3 -->
<g id="edge2_Node000001_Node000003" class="edge">
<title>Node1&#45;&gt;Node3</title>
<g id="a_edge2_Node000001_Node000003"><a xlink:title=" ">
<path fill="none" stroke="#63b8ff" d="M82.03,-113.69C99.68,-96.24 138.18,-61.12 178,-44 226.85,-23.01 287.45,-14.93 329.81,-11.84"/>
<polygon fill="#63b8ff" stroke="#63b8ff" points="329.96,-15.27 339.71,-11.13 329.5,-8.29 329.96,-15.27"/>
</a>
</g>
</g>
<!-- Node4 -->
<g id="Node000004" class="node">
<title>Node4</title>
<g id="a_Node000004"><a xlink:href="../../d9/d55/class_no.html#a3e8d735fc07c24ecaee4e283ac9a1f36" target="_top" xlink:title="Obtém a tarefa armazenada no nó.">
<polygon fill="white" stroke="#666666" points="419.62,-172 345.88,-172 345.88,-152 419.62,-152 419.62,-172"/>
<text text-anchor="middle" x="382.75" y="-158.5" font-family="Helvetica,sans-Serif" font-size="10.00">No::getTarefa</text>
</a>
</g>
</g>
<!-- Node1&#45;&gt;Node4 -->
<g id="edge3_Node000001_Node000004" class="edge">
<title>Node1&#45;&gt;Node4</title>
<g id="a_edge3_Node000001_Node000004"><a xlink:title=" ">
<path fill="none" stroke="#63b8ff" d="M96.3,-134.38C117.45,-142.84 149.14,-154.14 178,-159 231.05,-167.93 292.96,-167.31 334.49,-165.34"/>
<polygon fill="#63b8ff" stroke="#63b8ff" points="334.58,-168.78 344.38,-164.76 334.21,-161.79 334.58,-168.78"/>
</a>
</g>
</g>
<!-- Node5 -->
<g id="Node000005" class="node">
<title>Node5</title>
<g id="a_Node000005"><a xlink:href="../../dd/d91/class_lista_dupla.html#a0ec55e77494913e1041f772fb5abf176" target="_top" xlink:title="Remove a tarefa do fim da lista.">
<polygon fill="white" stroke="#666666" points="299,-134 181,-134 181,-114 299,-114 299,-134"/>
<text text-anchor="middle" x="240" y="-120.5" font-family="Helvetica,sans-Serif" font-size="10.00">ListaDupla::removerFim</text>
</a>
</g>
</g>
<!-- Node1&#45;&gt;Node5 -->
<g id="edge4_Node000001_Node000005" class="edge">
<title>Node1&#45;&gt;Node5</title>
<g id="a_edge4_Node000001_Node000005"><a xlink:title=" ">
<path fill="none" stroke="#63b8ff" d="M142.34,-124C151.4,-124 160.68,-124 169.72,-124"/>
<polygon fill="#63b8ff" stroke="#63b8ff" points="169.61,-127.5 179.61,-124 169.61,-120.5 169.61,-127.5"/>
</a>
</g>
</g>
<!-- Node6 -->
<g id="Node000006" class="node">
<title>Node6</title>
<g id="a_Node000006"><a xlink:href="../../d9/d55/class_no.html#a337f5ed0c85f3ac6646fd8295f2017a7" target="_top" xlink:title="Define o nó anterior.">
<polygon fill="white" stroke="#666666" points="423.38,-134 342.12,-134 342.12,-114 423.38,-114 423.38,-134"/>
<text text-anchor="middle" x="382.75" y="-120.5" font-family="Helvetica,sans-Serif" font-size="10.00">No::setAnterior</text>
</a>
</g>
</g>
<!-- Node1&#45;&gt;Node6 -->
<g id="edge16_Node000001_Node000006" class="edge">
<title>Node1&#45;&gt;Node6</title>
<g id="a_edge16_Node000001_Node000006"><a xlink:title=" ">
<path fill="none" stroke="#63b8ff" d="M120.04,-134.47C138.12,-137.92 158.91,-141.3 178,-143 232.89,-147.88 247.27,-149.43 302,-143 312.92,-141.72 324.51,-139.48 335.37,-136.98"/>
<polygon fill="#63b8ff" stroke="#63b8ff" points="336.05,-140.17 344.94,-134.41 334.4,-133.37 336.05,-140.17"/>
</a>
</g>
</g>
<!-- Node7 -->
<g id="Node000007" class="node">
<title>Node7</title>
<g id="a_Node000007"><a xlink:href="../../d9/d55/class_no.html#a1fd6922d7a6b246aa11251effaceeb7b" target="_top" xlink:title="Define o próximo nó.">
<polygon fill="white" stroke="#666666" points="424.5,-58 341,-58 341,-38 424.5,-38 424.5,-58"/>
<text text-anchor="middle" x="382.75" y="-44.5" font-family="Helvetica,sans-Serif" font-size="10.00">No::setProximo</text>
</a>
</g>
</g>
<!-- Node1&#45;&gt;Node7 -->
<g id="edge17_Node000001_Node000007" class="edge">
<title>Node1&#45;&gt;Node7</title>
<g id="a_edge17_Node000001_Node000007"><a xlink:title=" ">
<path fill="none" stroke="#63b8ff" d="M86.61,-113.67C106.31,-100.32 142.99,-77.57 178,-67 228.11,-51.87 288.03,-47.86 329.87,-47.19"/>
<polygon fill="#63b8ff" stroke="#63b8ff" points="329.67,-50.68 339.63,-47.08 329.6,-43.68 329.67,-50.68"/>
</a>
</g>
</g>
<!-- Node9 -->
<g id="Node000009" class="node">
<title>Node9</title>
<g id="a_Node000009"><a xlink:href="../../dd/d91/class_lista_dupla.html#a6c0c785cb9c4a4a2fbe25beb370bd102" target="_top" xlink:title="Remove a tarefa do início da lista.">
<polygon fill="white" stroke="#666666" points="302,-96 178,-96 178,-76 302,-76 302,-96"/>
<text text-anchor="middle" x="240" y="-82.5" font-family="Helvetica,sans-Serif" font-size="10.00">ListaDupla::removerInicio</text>
</a>
</g>
</g>
<!-- Node1&#45;&gt;Node9 -->
<g id="edge10_Node000001_Node000009" class="edge">
<title>Node1&#45;&gt;Node9</title>
<g id="a_edge10_Node000001_Node000009"><a xlink:title=" ">
<path fill="none" stroke="#63b8ff" d="M118.08,-113.52C137.97,-108.99 161.44,-103.65 182.39,-98.88"/>
<polygon fill="#63b8ff" stroke="#63b8ff" points="183.1,-102.08 192.07,-96.45 181.55,-95.26 183.1,-102.08"/>
</a>
</g>
</g>
<!-- Node5&#45;&gt;Node2 -->
<g id="edge5_Node000005_Node000002" class="edge">
<title>Node5&#45;&gt;Node2</title>
<g id="a_edge5_Node000005_Node000002"><a xlink:title=" ">
<path fill="none" stroke="#63b8ff" d="M256.33,-134.35C280.66,-150.77 328.31,-182.93 357.36,-202.54"/>
<polygon fill="#63b8ff" stroke="#63b8ff" points="355.19,-205.97 365.44,-208.67 359.11,-200.17 355.19,-205.97"/>
</a>
</g>
</g>
<!-- Node5&#45;&gt;Node4 -->
<g id="edge6_Node000005_Node000004" class="edge">
<title>Node5&#45;&gt;Node4</title>
<g id="a_edge6_Node000005_Node000004"><a xlink:title=" ">
<path fill="none" stroke="#63b8ff" d="M279.83,-134.48C296.89,-139.09 317.07,-144.54 334.96,-149.37"/>
<polygon fill="#63b8ff" stroke="#63b8ff" points="333.89,-152.97 344.46,-152.2 335.72,-146.22 333.89,-152.97"/>
</a>
</g>
</g>
<!-- Node5&#45;&gt;Node6 -->
<g id="edge7_Node000005_Node000006" class="edge">
<title>Node5&#45;&gt;Node6</title>
<g id="a_edge7_Node000005_Node000006"><a xlink:title=" ">
<path fill="none" stroke="#63b8ff" d="M299.47,-124C309.9,-124 320.68,-124 330.88,-124"/>
<polygon fill="#63b8ff" stroke="#63b8ff" points="330.66,-127.5 340.66,-124 330.66,-120.5 330.66,-127.5"/>
</a>
</g>
</g>
<!-- Node5&#45;&gt;Node7 -->
<g id="edge8_Node000005_Node000007" class="edge">
<title>Node5&#45;&gt;Node7</title>
<g id="a_edge8_Node000005_Node000007"><a xlink:title=" ">
<path fill="none" stroke="#63b8ff" d="M284.23,-113.59C290.42,-111.24 296.54,-108.4 302,-105 321.75,-92.7 318.95,-80.35 338,-67 339.73,-65.79 341.55,-64.63 343.42,-63.53"/>
<polygon fill="#63b8ff" stroke="#63b8ff" points="344.85,-66.21 352.08,-58.46 341.6,-60 344.85,-66.21"/>
</a>
</g>
</g>
<!-- Node8 -->
<g id="Node000008" class="node">
<title>Node8</title>
<g id="a_Node000008"><a xlink:href="../../dd/d91/class_lista_dupla.html#a66888490f518d19c2d5cb3d3a053b816" target="_top" xlink:title="Verifica se a lista está vazia.">
<polygon fill="white" stroke="#666666" points="427.5,-96 338,-96 338,-76 427.5,-76 427.5,-96"/>
<text text-anchor="middle" x="382.75" y="-82.5" font-family="Helvetica,sans-Serif" font-size="10.00">ListaDupla::vazia</text>
</a>
</g>
</g>
<!-- Node5&#45;&gt;Node8 -->
<g id="edge9_Node000005_Node000008" class="edge">
<title>Node5&#45;&gt;Node8</title>
<g id="a_edge9_Node000005_Node000008"><a xlink:title=" ">
<path fill="none" stroke="#63b8ff" d="M279.83,-113.52C296.14,-109.11 315.3,-103.94 332.57,-99.28"/>
<polygon fill="#63b8ff" stroke="#63b8ff" points="333.3,-102.44 342.04,-96.45 331.48,-95.68 333.3,-102.44"/>
</a>
</g>
</g>
<!-- Node9&#45;&gt;Node3 -->
<g id="edge11_Node000009_Node000003" class="edge">
<title>Node9&#45;&gt;Node3</title>
<g id="a_edge11_Node000009_Node000003"><a xlink:title=" ">
<path fill="none" stroke="#63b8ff" d="M257.14,-75.7C276.12,-63.77 308.75,-43.88 338,-29 340.77,-27.59 343.66,-26.19 346.59,-24.82"/>
<polygon fill="#63b8ff" stroke="#63b8ff" points="347.85,-27.64 355.52,-20.33 344.97,-21.26 347.85,-27.64"/>
</a>
</g>
</g>
<!-- Node9&#45;&gt;Node4 -->
<g id="edge12_Node000009_Node000004" class="edge">
<title>Node9&#45;&gt;Node4</title>
<g id="a_edge12_Node000009_Node000004"><a xlink:title=" ">
<path fill="none" stroke="#63b8ff" d="M284.23,-96.41C290.42,-98.76 296.54,-101.6 302,-105 321.75,-117.3 318.95,-129.65 338,-143 339.73,-144.21 341.55,-145.37 343.42,-146.47"/>
<polygon fill="#63b8ff" stroke="#63b8ff" points="341.6,-150 352.08,-151.54 344.85,-143.79 341.6,-150"/>
</a>
</g>
</g>
<!-- Node9&#45;&gt;Node6 -->
<g id="edge13_Node000009_Node000006" class="edge">
<title>Node9&#45;&gt;Node6</title>
<g id="a_edge13_Node000009_Node000006"><a xlink:title=" ">
<path fill="none" stroke="#63b8ff" d="M279.83,-96.48C296.14,-100.89 315.3,-106.06 332.57,-110.72"/>
<polygon fill="#63b8ff" stroke="#63b8ff" points="331.48,-114.32 342.04,-113.55 333.3,-107.56 331.48,-114.32"/>
</a>
</g>
</g>
<!-- Node9&#45;&gt;Node7 -->
<g id="edge14_Node000009_Node000007" class="edge">
<title>Node9&#45;&gt;Node7</title>
<g id="a_edge14_Node000009_Node000007"><a xlink:title=" ">
<path fill="none" stroke="#63b8ff" d="M279.83,-75.52C296.14,-71.11 315.3,-65.94 332.57,-61.28"/>
<polygon fill="#63b8ff" stroke="#63b8ff" points="333.3,-64.44 342.04,-58.45 331.48,-57.68 333.3,-64.44"/>
</a>
</g>
</g>
<!-- Node9&#45;&gt;Node8 -->
<g id="edge15_Node000009_Node000008" class="edge">
<title>Node9&#45;&gt;Node8</title>
<g id="a_edge15_Node000009_Node000008"><a xlink:title=" ">
<path fill="none" stroke="#63b8ff" d="M302.33,-86C310.47,-86 318.79,-86 326.82,-86"/>
<polygon fill="#63b8ff" stroke="#63b8ff" points="326.55,-89.5 336.55,-86 326.55,-82.5 326.55,-89.5"/>
</a>
</g>
</g>
</g>
</svg>
</svg>

<style type='text/css'>
<![CDATA[
[data-mouse-over-selected='false'] { opacity: 0.7; }
[data-mouse-over-selected='true']  { opacity: 1.0; }
]]>
</style>
<script type="application/ecmascript"><![CDATA[
document.addEventListener('DOMContentLoaded', (event) => {
  highlightEdges();
  highlightAdjacentNodes();
});
]]></script>
</svg>
