<?xml version="1.0" encoding="UTF-8" standalone="no"?>
<!DOCTYPE svg PUBLIC "-//W3C//DTD SVG 1.1//EN"
 "http://www.w3.org/Graphics/SVG/1.1/DTD/svg11.dtd">
<!-- Generated by graphviz version 8.1.0 (20230707.0739)
 -->
<!-- Title: ListaDupla::limpar Pages: 1 -->
<svg width="388pt" height="180pt"
 viewBox="0.00 0.00 387.50 180.00" xmlns="http://www.w3.org/2000/svg" xmlns:xlink="http://www.w3.org/1999/xlink">
<g id="graph0" class="graph" transform="scale(1 1) rotate(0) translate(4 176)">
<title>ListaDupla::limpar</title>
<!-- Node1 -->
<g id="Node000001" class="node">
<title>Node1</title>
<g id="a_Node000001"><a xlink:title="Remove todos os nós da lista e libera a memória.">
<polygon fill="#999999" stroke="#666666" points="94,-58 0,-58 0,-38 94,-38 94,-58"/>
<text text-anchor="middle" x="47" y="-44.5" font-family="Helvetica,sans-Serif" font-size="10.00">ListaDupla::limpar</text>
</a>
</g>
</g>
<!-- Node2 -->
<g id="Node000002" class="node">
<title>Node2</title>
<g id="a_Node000002"><a xlink:href="../../dd/d91/class_lista_dupla.html#a6c0c785cb9c4a4a2fbe25beb370bd102" target="_top" xlink:title="Remove a tarefa do início da lista.">
<polygon fill="white" stroke="#666666" points="254,-86 130,-86 130,-66 254,-66 254,-86"/>
<text text-anchor="middle" x="192" y="-72.5" font-family="Helvetica,sans-Serif" font-size="10.00">ListaDupla::removerInicio</text>
</a>
</g>
</g>
<!-- Node1&#45;&gt;Node2 -->
<g id="edge1_Node000001_Node000002" class="edge">
<title>Node1&#45;&gt;Node2</title>
<g id="a_edge1_Node000001_Node000002"><a xlink:title=" ">
<path fill="none" stroke="#63b8ff" d="M94.43,-57.09C104.76,-59.11 115.9,-61.3 126.81,-63.43"/>
<polygon fill="#63b8ff" stroke="#63b8ff" points="126.12,-67.06 136.6,-65.54 127.46,-60.19 126.12,-67.06"/>
</a>
</g>
</g>
<!-- Node7 -->
<g id="Node000007" class="node">
<title>Node7</title>
<g id="a_Node000007"><a xlink:href="../../dd/d91/class_lista_dupla.html#a66888490f518d19c2d5cb3d3a053b816" target="_top" xlink:title="Verifica se a lista está vazia.">
<polygon fill="white" stroke="#666666" points="379.5,-20 290,-20 290,0 379.5,0 379.5,-20"/>
<text text-anchor="middle" x="334.75" y="-6.5" font-family="Helvetica,sans-Serif" font-size="10.00">ListaDupla::vazia</text>
</a>
</g>
</g>
<!-- Node1&#45;&gt;Node7 -->
<g id="edge7_Node000001_Node000007" class="edge">
<title>Node1&#45;&gt;Node7</title>
<g id="a_edge7_Node000001_Node000007"><a xlink:title=" ">
<path fill="none" stroke="#63b8ff" d="M94.23,-41.85C144.77,-35.13 225.68,-24.37 279.27,-17.25"/>
<polygon fill="#63b8ff" stroke="#63b8ff" points="279.48,-20.61 288.93,-15.83 278.56,-13.68 279.48,-20.61"/>
</a>
</g>
</g>
<!-- Node3 -->
<g id="Node000003" class="node">
<title>Node3</title>
<g id="a_Node000003"><a xlink:href="../../d9/d55/class_no.html#a42bd9dc9c7b24743c82e89b42a1581a2" target="_top" xlink:title="Obtém o próximo nó.">
<polygon fill="white" stroke="#666666" points="376.5,-172 293,-172 293,-152 376.5,-152 376.5,-172"/>
<text text-anchor="middle" x="334.75" y="-158.5" font-family="Helvetica,sans-Serif" font-size="10.00">No::getProximo</text>
</a>
</g>
</g>
<!-- Node2&#45;&gt;Node3 -->
<g id="edge2_Node000002_Node000003" class="edge">
<title>Node2&#45;&gt;Node3</title>
<g id="a_edge2_Node000002_Node000003"><a xlink:title=" ">
<path fill="none" stroke="#63b8ff" d="M206.27,-86.41C224.47,-100.4 258.51,-125.51 290,-143 292.41,-144.34 294.93,-145.65 297.49,-146.92"/>
<polygon fill="#63b8ff" stroke="#63b8ff" points="295.9,-150.5 306.44,-151.56 298.86,-144.16 295.9,-150.5"/>
</a>
</g>
</g>
<!-- Node4 -->
<g id="Node000004" class="node">
<title>Node4</title>
<g id="a_Node000004"><a xlink:href="../../d9/d55/class_no.html#a3e8d735fc07c24ecaee4e283ac9a1f36" target="_top" xlink:title="Obtém a tarefa armazenada no nó.">
<polygon fill="white" stroke="#666666" points="371.62,-134 297.88,-134 297.88,-114 371.62,-114 371.62,-134"/>
<text text-anchor="middle" x="334.75" y="-120.5" font-family="Helvetica,sans-Serif" font-size="10.00">No::getTarefa</text>
</a>
</g>
</g>
<!-- Node2&#45;&gt;Node4 -->
<g id="edge3_Node000002_Node000004" class="edge">
<title>Node2&#45;&gt;Node4</title>
<g id="a_edge3_Node000002_Node000004"><a xlink:title=" ">
<path fill="none" stroke="#63b8ff" d="M223.54,-86.42C243.92,-93.37 270.95,-102.58 293.14,-110.15"/>
<polygon fill="#63b8ff" stroke="#63b8ff" points="291.67,-113.69 302.27,-113.61 293.93,-107.06 291.67,-113.69"/>
</a>
</g>
</g>
<!-- Node5 -->
<g id="Node000005" class="node">
<title>Node5</title>
<g id="a_Node000005"><a xlink:href="../../d9/d55/class_no.html#a337f5ed0c85f3ac6646fd8295f2017a7" target="_top" xlink:title="Define o nó anterior.">
<polygon fill="white" stroke="#666666" points="375.38,-96 294.12,-96 294.12,-76 375.38,-76 375.38,-96"/>
<text text-anchor="middle" x="334.75" y="-82.5" font-family="Helvetica,sans-Serif" font-size="10.00">No::setAnterior</text>
</a>
</g>
</g>
<!-- Node2&#45;&gt;Node5 -->
<g id="edge4_Node000002_Node000005" class="edge">
<title>Node2&#45;&gt;Node5</title>
<g id="a_edge4_Node000002_Node000005"><a xlink:title=" ">
<path fill="none" stroke="#63b8ff" d="M254.33,-80.36C263.81,-81.03 273.51,-81.72 282.73,-82.38"/>
<polygon fill="#63b8ff" stroke="#63b8ff" points="282.47,-85.94 292.69,-83.15 282.97,-78.95 282.47,-85.94"/>
</a>
</g>
</g>
<!-- Node6 -->
<g id="Node000006" class="node">
<title>Node6</title>
<g id="a_Node000006"><a xlink:href="../../d9/d55/class_no.html#a1fd6922d7a6b246aa11251effaceeb7b" target="_top" xlink:title="Define o próximo nó.">
<polygon fill="white" stroke="#666666" points="376.5,-58 293,-58 293,-38 376.5,-38 376.5,-58"/>
<text text-anchor="middle" x="334.75" y="-44.5" font-family="Helvetica,sans-Serif" font-size="10.00">No::setProximo</text>
</a>
</g>
</g>
<!-- Node2&#45;&gt;Node6 -->
<g id="edge5_Node000002_Node000006" class="edge">
<title>Node2&#45;&gt;Node6</title>
<g id="a_edge5_Node000002_Node000006"><a xlink:title=" ">
<path fill="none" stroke="#63b8ff" d="M245.41,-65.57C257.38,-63.19 270.09,-60.66 282.03,-58.29"/>
<polygon fill="#63b8ff" stroke="#63b8ff" points="282.61,-61.54 291.73,-56.16 281.24,-54.68 282.61,-61.54"/>
</a>
</g>
</g>
<!-- Node2&#45;&gt;Node7 -->
<g id="edge6_Node000002_Node000007" class="edge">
<title>Node2&#45;&gt;Node7</title>
<g id="a_edge6_Node000002_Node000007"><a xlink:title=" ">
<path fill="none" stroke="#63b8ff" d="M213.7,-65.66C233.25,-55.97 263.47,-41.18 290,-29 292.99,-27.63 296.1,-26.22 299.23,-24.83"/>
<polygon fill="#63b8ff" stroke="#63b8ff" points="300.4,-27.7 308.14,-20.47 297.58,-21.29 300.4,-27.7"/>
</a>
</g>
</g>
</g>
</svg>
