<?xml version="1.0" encoding="UTF-8" standalone="no"?>
<!DOCTYPE svg PUBLIC "-//W3C//DTD SVG 1.1//EN"
 "http://www.w3.org/Graphics/SVG/1.1/DTD/svg11.dtd">
<!-- Generated by graphviz version 8.1.0 (20230707.0739)
 -->
<!-- Title: ListaDupla::lightDelete Pages: 1 -->
<svg width="303pt" height="66pt"
 viewBox="0.00 0.00 302.50 66.00" xmlns="http://www.w3.org/2000/svg" xmlns:xlink="http://www.w3.org/1999/xlink">
<g id="graph0" class="graph" transform="scale(1 1) rotate(0) translate(4 62)">
<title>ListaDupla::lightDelete</title>
<!-- Node1 -->
<g id="Node000001" class="node">
<title>Node1</title>
<g id="a_Node000001"><a xlink:title="Remove a tarefa da lista, mas mantém o nó na lista sem referência à tarefa.">
<polygon fill="#999999" stroke="#666666" points="294.5,-39 181,-39 181,-19 294.5,-19 294.5,-39"/>
<text text-anchor="middle" x="237.75" y="-25.5" font-family="Helvetica,sans-Serif" font-size="10.00">ListaDupla::lightDelete</text>
</a>
</g>
</g>
<!-- Node2 -->
<g id="Node000002" class="node">
<title>Node2</title>
<g id="a_Node000002"><a xlink:href="../../de/d1c/class_coluna_nomeada.html#ab47ba7b160204e7001f88c06ec25a305" target="_top" xlink:title="Move uma tarefa de uma coluna para outra.">
<polygon fill="white" stroke="#666666" points="145,-58 0,-58 0,-38 145,-38 145,-58"/>
<text text-anchor="middle" x="72.5" y="-44.5" font-family="Helvetica,sans-Serif" font-size="10.00">ColunaNomeada::moverTarefa</text>
</a>
</g>
</g>
<!-- Node1&#45;&gt;Node2 -->
<g id="edge1_Node000001_Node000002" class="edge">
<title>Node1&#45;&gt;Node2</title>
<g id="a_edge1_Node000001_Node000002"><a xlink:title=" ">
<path fill="none" stroke="#63b8ff" d="M169.75,-36.8C161.71,-37.73 153.46,-38.69 145.35,-39.64"/>
<polygon fill="#63b8ff" stroke="#63b8ff" points="170.04,-40.17 179.57,-35.54 169.23,-33.22 170.04,-40.17"/>
</a>
</g>
</g>
<!-- Node3 -->
<g id="Node000003" class="node">
<title>Node3</title>
<g id="a_Node000003"><a xlink:href="../../d0/d4e/class_coluna_arquivo.html#ac4f7235fe2e8bbcdb959f5100d7c1bb7" target="_top" xlink:title="Move uma tarefa de uma coluna para outra.">
<polygon fill="white" stroke="#666666" points="140.12,-20 4.88,-20 4.88,0 140.12,0 140.12,-20"/>
<text text-anchor="middle" x="72.5" y="-6.5" font-family="Helvetica,sans-Serif" font-size="10.00">ColunaArquivo::moverTarefa</text>
</a>
</g>
</g>
<!-- Node1&#45;&gt;Node3 -->
<g id="edge2_Node000001_Node000003" class="edge">
<title>Node1&#45;&gt;Node3</title>
<g id="a_edge2_Node000001_Node000003"><a xlink:title=" ">
<path fill="none" stroke="#63b8ff" d="M169.8,-21.21C160.12,-20.08 150.16,-18.92 140.48,-17.8"/>
<polygon fill="#63b8ff" stroke="#63b8ff" points="169.23,-24.78 179.57,-22.46 170.04,-17.83 169.23,-24.78"/>
</a>
</g>
</g>
</g>
</svg>
