<?xml version="1.0" encoding="UTF-8" standalone="no"?>
<!DOCTYPE svg PUBLIC "-//W3C//DTD SVG 1.1//EN"
 "http://www.w3.org/Graphics/SVG/1.1/DTD/svg11.dtd">
<!-- Generated by graphviz version 8.1.0 (20230707.0739)
 -->
<!-- Title: ListaDupla::inserirPorIndice Pages: 1 -->
<svg width="415pt" height="183pt"
 viewBox="0.00 0.00 414.50 182.59" xmlns="http://www.w3.org/2000/svg" xmlns:xlink="http://www.w3.org/1999/xlink">

<svg id="main" version="1.1" xmlns="http://www.w3.org/2000/svg" xmlns:xlink="http://www.w3.org/1999/xlink" xml:space="preserve" onload="init(evt)">
<style type="text/css"><![CDATA[
.node, .edge {opacity: 0.7;}
.node.selected, .edge.selected {opacity: 1;}
.edge:hover path { stroke: red; }
.edge:hover polygon { stroke: red; fill: red; }
]]></style>
<script type="application/ecmascript" xlink:href="../../svg.min.js"/>
<svg id="graph" class="graph">
<g id="graph0" class="graph" transform="scale(1 1) rotate(0) translate(4 178.59)">
<title>ListaDupla::inserirPorIndice</title>
<!-- Node1 -->
<g id="Node000001" class="node">
<title>Node1</title>
<g id="a_Node000001"><a xlink:title="Insere uma tarefa na lista pelo índice.">
<polygon fill="#999999" stroke="#666666" points="134.5,-96 0,-96 0,-76 134.5,-76 134.5,-96"/>
<text text-anchor="middle" x="67.25" y="-82.5" font-family="Helvetica,sans-Serif" font-size="10.00">ListaDupla::inserirPorIndice</text>
</a>
</g>
</g>
<!-- Node2 -->
<g id="Node000002" class="node">
<title>Node2</title>
<g id="a_Node000002"><a xlink:href="../../d9/d55/class_no.html#a18866d7db046e7987120e93bf1a839d3" target="_top" xlink:title="Obtém o nó anterior.">
<polygon fill="white" stroke="#666666" points="405.38,-172 324.12,-172 324.12,-152 405.38,-152 405.38,-172"/>
<text text-anchor="middle" x="364.75" y="-158.5" font-family="Helvetica,sans-Serif" font-size="10.00">No::getAnterior</text>
</a>
</g>
</g>
<!-- Node1&#45;&gt;Node2 -->
<g id="edge1_Node000001_Node000002" class="edge">
<title>Node1&#45;&gt;Node2</title>
<g id="a_edge1_Node000001_Node000002"><a xlink:title=" ">
<path fill="none" stroke="#63b8ff" d="M77.7,-96.47C94.38,-114.07 131.02,-148.94 170.5,-162 216.94,-177.37 273.16,-175.23 312.96,-170.54"/>
<polygon fill="#63b8ff" stroke="#63b8ff" points="313.25,-173.91 322.73,-169.17 312.37,-166.96 313.25,-173.91"/>
</a>
</g>
</g>
<!-- Node3 -->
<g id="Node000003" class="node">
<title>Node3</title>
<g id="a_Node000003"><a xlink:href="../../d9/d55/class_no.html#a42bd9dc9c7b24743c82e89b42a1581a2" target="_top" xlink:title="Obtém o próximo nó.">
<polygon fill="white" stroke="#666666" points="406.5,-20 323,-20 323,0 406.5,0 406.5,-20"/>
<text text-anchor="middle" x="364.75" y="-6.5" font-family="Helvetica,sans-Serif" font-size="10.00">No::getProximo</text>
</a>
</g>
</g>
<!-- Node1&#45;&gt;Node3 -->
<g id="edge2_Node000001_Node000003" class="edge">
<title>Node1&#45;&gt;Node3</title>
<g id="a_edge2_Node000001_Node000003"><a xlink:title=" ">
<path fill="none" stroke="#63b8ff" d="M86.08,-75.64C105.99,-64.55 139.51,-47.3 170.5,-38 217.15,-24.01 272.3,-16.9 311.72,-13.36"/>
<polygon fill="#63b8ff" stroke="#63b8ff" points="311.98,-16.77 321.65,-12.43 311.39,-9.79 311.98,-16.77"/>
</a>
</g>
</g>
<!-- Node4 -->
<g id="Node000004" class="node">
<title>Node4</title>
<g id="a_Node000004"><a xlink:href="../../dd/d91/class_lista_dupla.html#a997a8daa9fb1ccea46c233558ade8b4b" target="_top" xlink:title="Insere uma tarefa no fim da lista.">
<polygon fill="white" stroke="#666666" points="284,-153 173.5,-153 173.5,-133 284,-133 284,-153"/>
<text text-anchor="middle" x="228.75" y="-139.5" font-family="Helvetica,sans-Serif" font-size="10.00">ListaDupla::inserirFim</text>
</a>
</g>
</g>
<!-- Node1&#45;&gt;Node4 -->
<g id="edge3_Node000001_Node000004" class="edge">
<title>Node1&#45;&gt;Node4</title>
<g id="a_edge3_Node000001_Node000004"><a xlink:title=" ">
<path fill="none" stroke="#63b8ff" d="M97.5,-96.45C122.94,-105.55 160.03,-118.8 188.13,-128.84"/>
<polygon fill="#63b8ff" stroke="#63b8ff" points="186.82,-132.45 197.41,-132.52 189.17,-125.85 186.82,-132.45"/>
</a>
</g>
</g>
<!-- Node5 -->
<g id="Node000005" class="node">
<title>Node5</title>
<g id="a_Node000005"><a xlink:href="../../d9/d55/class_no.html#a337f5ed0c85f3ac6646fd8295f2017a7" target="_top" xlink:title="Define o nó anterior.">
<polygon fill="white" stroke="#666666" points="405.38,-115 324.12,-115 324.12,-95 405.38,-95 405.38,-115"/>
<text text-anchor="middle" x="364.75" y="-101.5" font-family="Helvetica,sans-Serif" font-size="10.00">No::setAnterior</text>
</a>
</g>
</g>
<!-- Node1&#45;&gt;Node5 -->
<g id="edge11_Node000001_Node000005" class="edge">
<title>Node1&#45;&gt;Node5</title>
<g id="a_edge11_Node000001_Node000005"><a xlink:title=" ">
<path fill="none" stroke="#63b8ff" d="M134.93,-90.29C188.9,-93.76 263.76,-98.57 312.95,-101.73"/>
<polygon fill="#63b8ff" stroke="#63b8ff" points="312.45,-105.27 322.65,-102.42 312.9,-98.29 312.45,-105.27"/>
</a>
</g>
</g>
<!-- Node6 -->
<g id="Node000006" class="node">
<title>Node6</title>
<g id="a_Node000006"><a xlink:href="../../d9/d55/class_no.html#a1fd6922d7a6b246aa11251effaceeb7b" target="_top" xlink:title="Define o próximo nó.">
<polygon fill="white" stroke="#666666" points="406.5,-77 323,-77 323,-57 406.5,-57 406.5,-77"/>
<text text-anchor="middle" x="364.75" y="-63.5" font-family="Helvetica,sans-Serif" font-size="10.00">No::setProximo</text>
</a>
</g>
</g>
<!-- Node1&#45;&gt;Node6 -->
<g id="edge12_Node000001_Node000006" class="edge">
<title>Node1&#45;&gt;Node6</title>
<g id="a_edge12_Node000001_Node000006"><a xlink:title=" ">
<path fill="none" stroke="#63b8ff" d="M89.56,-75.53C109.81,-66.2 141.42,-53.23 170.5,-48 221.46,-38.84 235.6,-41.73 287,-48 297.42,-49.27 308.46,-51.48 318.82,-53.95"/>
<polygon fill="#63b8ff" stroke="#63b8ff" points="317.76,-57.54 328.31,-56.59 319.47,-50.75 317.76,-57.54"/>
</a>
</g>
</g>
<!-- Node7 -->
<g id="Node000007" class="node">
<title>Node7</title>
<g id="a_Node000007"><a xlink:href="../../dd/d91/class_lista_dupla.html#af02559c4c5c8265c8db861300cf598d8" target="_top" xlink:title="Insere uma tarefa no início da lista.">
<polygon fill="white" stroke="#666666" points="287,-77 170.5,-77 170.5,-57 287,-57 287,-77"/>
<text text-anchor="middle" x="228.75" y="-63.5" font-family="Helvetica,sans-Serif" font-size="10.00">ListaDupla::inserirInicio</text>
</a>
</g>
</g>
<!-- Node1&#45;&gt;Node7 -->
<g id="edge7_Node000001_Node000007" class="edge">
<title>Node1&#45;&gt;Node7</title>
<g id="a_edge7_Node000001_Node000007"><a xlink:title=" ">
<path fill="none" stroke="#63b8ff" d="M134.97,-78.05C143.16,-77.08 151.54,-76.08 159.75,-75.1"/>
<polygon fill="#63b8ff" stroke="#63b8ff" points="159.9,-78.49 169.41,-73.83 159.07,-71.54 159.9,-78.49"/>
</a>
</g>
</g>
<!-- Node4&#45;&gt;Node2 -->
<g id="edge4_Node000004_Node000002" class="edge">
<title>Node4&#45;&gt;Node2</title>
<g id="a_edge4_Node000004_Node000002"><a xlink:title=" ">
<path fill="none" stroke="#63b8ff" d="M284.25,-150.73C293.73,-152.07 303.56,-153.46 312.93,-154.79"/>
<polygon fill="#63b8ff" stroke="#63b8ff" points="312.29,-158.38 322.68,-156.32 313.27,-151.45 312.29,-158.38"/>
</a>
</g>
</g>
<!-- Node4&#45;&gt;Node5 -->
<g id="edge5_Node000004_Node000005" class="edge">
<title>Node4&#45;&gt;Node5</title>
<g id="a_edge5_Node000004_Node000005"><a xlink:title=" ">
<path fill="none" stroke="#63b8ff" d="M266.72,-132.52C282.1,-128.15 300.14,-123.04 316.46,-118.41"/>
<polygon fill="#63b8ff" stroke="#63b8ff" points="317.23,-121.55 325.9,-115.45 315.32,-114.81 317.23,-121.55"/>
</a>
</g>
</g>
<!-- Node4&#45;&gt;Node6 -->
<g id="edge6_Node000004_Node000006" class="edge">
<title>Node4&#45;&gt;Node6</title>
<g id="a_edge6_Node000004_Node000006"><a xlink:title=" ">
<path fill="none" stroke="#63b8ff" d="M245.6,-132.55C263.9,-120.67 295.08,-100.98 323,-86 325.41,-84.71 327.92,-83.41 330.46,-82.14"/>
<polygon fill="#63b8ff" stroke="#63b8ff" points="331.78,-84.91 339.25,-77.41 328.73,-78.61 331.78,-84.91"/>
</a>
</g>
</g>
<!-- Node7&#45;&gt;Node3 -->
<g id="edge8_Node000007_Node000003" class="edge">
<title>Node7&#45;&gt;Node3</title>
<g id="a_edge8_Node000007_Node000003"><a xlink:title=" ">
<path fill="none" stroke="#63b8ff" d="M254.33,-56.55C275.39,-47.59 305.95,-34.59 329.43,-24.6"/>
<polygon fill="#63b8ff" stroke="#63b8ff" points="330.5,-27.52 338.33,-20.39 327.76,-21.08 330.5,-27.52"/>
</a>
</g>
</g>
<!-- Node7&#45;&gt;Node5 -->
<g id="edge9_Node000007_Node000005" class="edge">
<title>Node7&#45;&gt;Node5</title>
<g id="a_edge9_Node000007_Node000005"><a xlink:title=" ">
<path fill="none" stroke="#63b8ff" d="M266.72,-77.48C282.1,-81.85 300.14,-86.96 316.46,-91.59"/>
<polygon fill="#63b8ff" stroke="#63b8ff" points="315.32,-95.19 325.9,-94.55 317.23,-88.45 315.32,-95.19"/>
</a>
</g>
</g>
<!-- Node7&#45;&gt;Node6 -->
<g id="edge10_Node000007_Node000006" class="edge">
<title>Node7&#45;&gt;Node6</title>
<g id="a_edge10_Node000007_Node000006"><a xlink:title=" ">
<path fill="none" stroke="#63b8ff" d="M287.36,-67C295.55,-67 303.93,-67 312.01,-67"/>
<polygon fill="#63b8ff" stroke="#63b8ff" points="311.77,-70.5 321.77,-67 311.77,-63.5 311.77,-70.5"/>
</a>
</g>
</g>
</g>
</svg>
</svg>

<style type='text/css'>
<![CDATA[
[data-mouse-over-selected='false'] { opacity: 0.7; }
[data-mouse-over-selected='true']  { opacity: 1.0; }
]]>
</style>
<script type="application/ecmascript"><![CDATA[
document.addEventListener('DOMContentLoaded', (event) => {
  highlightEdges();
  highlightAdjacentNodes();
});
]]></script>
</svg>
