<?xml version="1.0" encoding="UTF-8" standalone="no"?>
<!DOCTYPE svg PUBLIC "-//W3C//DTD SVG 1.1//EN"
 "http://www.w3.org/Graphics/SVG/1.1/DTD/svg11.dtd">
<!-- Generated by graphviz version 8.1.0 (20230707.0739)
 -->
<!-- Title: ListaDupla::removerFim Pages: 1 -->
<svg width="252pt" height="180pt"
 viewBox="0.00 0.00 251.50 180.00" xmlns="http://www.w3.org/2000/svg" xmlns:xlink="http://www.w3.org/1999/xlink">
<g id="graph0" class="graph" transform="scale(1 1) rotate(0) translate(4 176)">
<title>ListaDupla::removerFim</title>
<!-- Node1 -->
<g id="Node000001" class="node">
<title>Node1</title>
<g id="a_Node000001"><a xlink:title="Remove a tarefa do fim da lista.">
<polygon fill="#999999" stroke="#666666" points="118,-96 0,-96 0,-76 118,-76 118,-96"/>
<text text-anchor="middle" x="59" y="-82.5" font-family="Helvetica,sans-Serif" font-size="10.00">ListaDupla::removerFim</text>
</a>
</g>
</g>
<!-- Node2 -->
<g id="Node000002" class="node">
<title>Node2</title>
<g id="a_Node000002"><a xlink:href="../../d9/d55/class_no.html#a18866d7db046e7987120e93bf1a839d3" target="_top" xlink:title="Obtém o nó anterior.">
<polygon fill="white" stroke="#666666" points="239.38,-172 158.12,-172 158.12,-152 239.38,-152 239.38,-172"/>
<text text-anchor="middle" x="198.75" y="-158.5" font-family="Helvetica,sans-Serif" font-size="10.00">No::getAnterior</text>
</a>
</g>
</g>
<!-- Node1&#45;&gt;Node2 -->
<g id="edge1_Node000001_Node000002" class="edge">
<title>Node1&#45;&gt;Node2</title>
<g id="a_edge1_Node000001_Node000002"><a xlink:title=" ">
<path fill="none" stroke="#63b8ff" d="M75.59,-96.35C93.94,-108.32 125.52,-128.27 154,-143 156.6,-144.34 159.32,-145.68 162.07,-146.98"/>
<polygon fill="#63b8ff" stroke="#63b8ff" points="160.48,-150.56 171.03,-151.52 163.38,-144.19 160.48,-150.56"/>
</a>
</g>
</g>
<!-- Node3 -->
<g id="Node000003" class="node">
<title>Node3</title>
<g id="a_Node000003"><a xlink:href="../../d9/d55/class_no.html#a3e8d735fc07c24ecaee4e283ac9a1f36" target="_top" xlink:title="Obtém a tarefa armazenada no nó.">
<polygon fill="white" stroke="#666666" points="235.62,-134 161.88,-134 161.88,-114 235.62,-114 235.62,-134"/>
<text text-anchor="middle" x="198.75" y="-120.5" font-family="Helvetica,sans-Serif" font-size="10.00">No::getTarefa</text>
</a>
</g>
</g>
<!-- Node1&#45;&gt;Node3 -->
<g id="edge2_Node000001_Node000003" class="edge">
<title>Node1&#45;&gt;Node3</title>
<g id="a_edge2_Node000001_Node000003"><a xlink:title=" ">
<path fill="none" stroke="#63b8ff" d="M98.01,-96.48C114.49,-101.03 133.95,-106.4 151.29,-111.18"/>
<polygon fill="#63b8ff" stroke="#63b8ff" points="150.19,-114.79 160.76,-114.07 152.06,-108.04 150.19,-114.79"/>
</a>
</g>
</g>
<!-- Node4 -->
<g id="Node000004" class="node">
<title>Node4</title>
<g id="a_Node000004"><a xlink:href="../../d9/d55/class_no.html#a337f5ed0c85f3ac6646fd8295f2017a7" target="_top" xlink:title="Define o nó anterior.">
<polygon fill="white" stroke="#666666" points="239.38,-96 158.12,-96 158.12,-76 239.38,-76 239.38,-96"/>
<text text-anchor="middle" x="198.75" y="-82.5" font-family="Helvetica,sans-Serif" font-size="10.00">No::setAnterior</text>
</a>
</g>
</g>
<!-- Node1&#45;&gt;Node4 -->
<g id="edge3_Node000001_Node000004" class="edge">
<title>Node1&#45;&gt;Node4</title>
<g id="a_edge3_Node000001_Node000004"><a xlink:title=" ">
<path fill="none" stroke="#63b8ff" d="M118.42,-86C128.01,-86 137.88,-86 147.26,-86"/>
<polygon fill="#63b8ff" stroke="#63b8ff" points="147,-89.5 157,-86 147,-82.5 147,-89.5"/>
</a>
</g>
</g>
<!-- Node5 -->
<g id="Node000005" class="node">
<title>Node5</title>
<g id="a_Node000005"><a xlink:href="../../d9/d55/class_no.html#a1fd6922d7a6b246aa11251effaceeb7b" target="_top" xlink:title="Define o próximo nó.">
<polygon fill="white" stroke="#666666" points="240.5,-58 157,-58 157,-38 240.5,-38 240.5,-58"/>
<text text-anchor="middle" x="198.75" y="-44.5" font-family="Helvetica,sans-Serif" font-size="10.00">No::setProximo</text>
</a>
</g>
</g>
<!-- Node1&#45;&gt;Node5 -->
<g id="edge4_Node000001_Node000005" class="edge">
<title>Node1&#45;&gt;Node5</title>
<g id="a_edge4_Node000001_Node000005"><a xlink:title=" ">
<path fill="none" stroke="#63b8ff" d="M98.01,-75.52C113.96,-71.11 132.71,-65.94 149.62,-61.28"/>
<polygon fill="#63b8ff" stroke="#63b8ff" points="150.16,-64.48 158.87,-58.45 148.3,-57.74 150.16,-64.48"/>
</a>
</g>
</g>
<!-- Node6 -->
<g id="Node000006" class="node">
<title>Node6</title>
<g id="a_Node000006"><a xlink:href="../../dd/d91/class_lista_dupla.html#a66888490f518d19c2d5cb3d3a053b816" target="_top" xlink:title="Verifica se a lista está vazia.">
<polygon fill="white" stroke="#666666" points="243.5,-20 154,-20 154,0 243.5,0 243.5,-20"/>
<text text-anchor="middle" x="198.75" y="-6.5" font-family="Helvetica,sans-Serif" font-size="10.00">ListaDupla::vazia</text>
</a>
</g>
</g>
<!-- Node1&#45;&gt;Node6 -->
<g id="edge5_Node000001_Node000006" class="edge">
<title>Node1&#45;&gt;Node6</title>
<g id="a_edge5_Node000001_Node000006"><a xlink:title=" ">
<path fill="none" stroke="#63b8ff" d="M75.59,-75.65C93.94,-63.68 125.52,-43.73 154,-29 156.6,-27.66 159.32,-26.32 162.07,-25.02"/>
<polygon fill="#63b8ff" stroke="#63b8ff" points="163.38,-27.81 171.03,-20.48 160.48,-21.44 163.38,-27.81"/>
</a>
</g>
</g>
</g>
</svg>
