<?xml version="1.0" encoding="UTF-8" standalone="no"?>
<!DOCTYPE svg PUBLIC "-//W3C//DTD SVG 1.1//EN"
 "http://www.w3.org/Graphics/SVG/1.1/DTD/svg11.dtd">
<!-- Generated by graphviz version 8.1.0 (20230707.0739)
 -->
<!-- Title: ListaDupla::obterPorIndice Pages: 1 -->
<svg width="319pt" height="218pt"
 viewBox="0.00 0.00 319.00 218.00" xmlns="http://www.w3.org/2000/svg" xmlns:xlink="http://www.w3.org/1999/xlink">

<svg id="main" version="1.1" xmlns="http://www.w3.org/2000/svg" xmlns:xlink="http://www.w3.org/1999/xlink" xml:space="preserve" onload="init(evt)">
<style type="text/css"><![CDATA[
.node, .edge {opacity: 0.7;}
.node.selected, .edge.selected {opacity: 1;}
.edge:hover path { stroke: red; }
.edge:hover polygon { stroke: red; fill: red; }
]]></style>
<script type="application/ecmascript" xlink:href="../../svg.min.js"/>
<svg id="graph" class="graph">
<g id="graph0" class="graph" transform="scale(1 1) rotate(0) translate(4 214)">
<title>ListaDupla::obterPorIndice</title>
<!-- Node1 -->
<g id="Node000001" class="node">
<title>Node1</title>
<g id="a_Node000001"><a xlink:title="Obtém a tarefa da lista pelo índice.">
<polygon fill="#999999" stroke="#666666" points="311,-115 181,-115 181,-95 311,-95 311,-115"/>
<text text-anchor="middle" x="246" y="-101.5" font-family="Helvetica,sans-Serif" font-size="10.00">ListaDupla::obterPorIndice</text>
</a>
</g>
</g>
<!-- Node2 -->
<g id="Node000002" class="node">
<title>Node2</title>
<g id="a_Node000002"><a xlink:href="../../de/d1c/class_coluna_nomeada.html#ad0566fe1cc3fef87feeff8e76b74dffd" target="_top" xlink:title="Imprime as informações da coluna.">
<polygon fill="white" stroke="#666666" points="136.38,-210 8.62,-210 8.62,-190 136.38,-190 136.38,-210"/>
<text text-anchor="middle" x="72.5" y="-196.5" font-family="Helvetica,sans-Serif" font-size="10.00">ColunaNomeada::imprimir</text>
</a>
</g>
</g>
<!-- Node1&#45;&gt;Node2 -->
<g id="edge1_Node000001_Node000002" class="edge">
<title>Node1&#45;&gt;Node2</title>
<g id="a_edge1_Node000001_Node000002"><a xlink:title=" ">
<path fill="none" stroke="#63b8ff" d="M226.43,-122.72C207.4,-139.96 176.26,-165.72 145,-181 138.08,-184.39 130.47,-187.23 122.88,-189.6"/>
<polygon fill="#63b8ff" stroke="#63b8ff" points="228.3,-125.83 233.27,-116.47 223.55,-120.69 228.3,-125.83"/>
</a>
</g>
</g>
<!-- Node3 -->
<g id="Node000003" class="node">
<title>Node3</title>
<g id="a_Node000003"><a xlink:href="../../d0/d4e/class_coluna_arquivo.html#af89c858cfeb225706983f3e91090792f" target="_top" xlink:title="Imprime as informações da coluna.">
<polygon fill="white" stroke="#666666" points="131.5,-172 13.5,-172 13.5,-152 131.5,-152 131.5,-172"/>
<text text-anchor="middle" x="72.5" y="-158.5" font-family="Helvetica,sans-Serif" font-size="10.00">ColunaArquivo::imprimir</text>
</a>
</g>
</g>
<!-- Node1&#45;&gt;Node3 -->
<g id="edge2_Node000001_Node000003" class="edge">
<title>Node1&#45;&gt;Node3</title>
<g id="a_edge2_Node000001_Node000003"><a xlink:title=" ">
<path fill="none" stroke="#63b8ff" d="M209.77,-119.41C190.75,-126.93 166.78,-135.99 145,-143 135.59,-146.03 125.37,-148.96 115.68,-151.57"/>
<polygon fill="#63b8ff" stroke="#63b8ff" points="210.78,-122.37 218.77,-115.42 208.19,-115.87 210.78,-122.37"/>
</a>
</g>
</g>
<!-- Node4 -->
<g id="Node000004" class="node">
<title>Node4</title>
<g id="a_Node000004"><a xlink:href="../../de/d1c/class_coluna_nomeada.html#ab47ba7b160204e7001f88c06ec25a305" target="_top" xlink:title="Move uma tarefa de uma coluna para outra.">
<polygon fill="white" stroke="#666666" points="145,-134 0,-134 0,-114 145,-114 145,-134"/>
<text text-anchor="middle" x="72.5" y="-120.5" font-family="Helvetica,sans-Serif" font-size="10.00">ColunaNomeada::moverTarefa</text>
</a>
</g>
</g>
<!-- Node1&#45;&gt;Node4 -->
<g id="edge3_Node000001_Node000004" class="edge">
<title>Node1&#45;&gt;Node4</title>
<g id="a_edge3_Node000001_Node000004"><a xlink:title=" ">
<path fill="none" stroke="#63b8ff" d="M169.74,-113.34C161.65,-114.23 153.45,-115.14 145.41,-116.03"/>
<polygon fill="#63b8ff" stroke="#63b8ff" points="170.1,-116.71 179.65,-112.13 169.33,-109.75 170.1,-116.71"/>
</a>
</g>
</g>
<!-- Node5 -->
<g id="Node000005" class="node">
<title>Node5</title>
<g id="a_Node000005"><a xlink:href="../../d0/d4e/class_coluna_arquivo.html#ac4f7235fe2e8bbcdb959f5100d7c1bb7" target="_top" xlink:title="Move uma tarefa de uma coluna para outra.">
<polygon fill="white" stroke="#666666" points="140.12,-96 4.88,-96 4.88,-76 140.12,-76 140.12,-96"/>
<text text-anchor="middle" x="72.5" y="-82.5" font-family="Helvetica,sans-Serif" font-size="10.00">ColunaArquivo::moverTarefa</text>
</a>
</g>
</g>
<!-- Node1&#45;&gt;Node5 -->
<g id="edge4_Node000001_Node000005" class="edge">
<title>Node1&#45;&gt;Node5</title>
<g id="a_edge4_Node000001_Node000005"><a xlink:title=" ">
<path fill="none" stroke="#63b8ff" d="M169.76,-96.66C160.02,-95.59 150.09,-94.49 140.5,-93.42"/>
<polygon fill="#63b8ff" stroke="#63b8ff" points="169.33,-100.25 179.65,-97.87 170.1,-93.29 169.33,-100.25"/>
</a>
</g>
</g>
<!-- Node6 -->
<g id="Node000006" class="node">
<title>Node6</title>
<g id="a_Node000006"><a xlink:href="../../de/d1c/class_coluna_nomeada.html#a3f8cdd94b330161896b219720b7bc8e2" target="_top" xlink:title="Obtém uma tarefa da coluna pelo seu índice.">
<polygon fill="white" stroke="#666666" points="143.12,-58 1.88,-58 1.88,-38 143.12,-38 143.12,-58"/>
<text text-anchor="middle" x="72.5" y="-44.5" font-family="Helvetica,sans-Serif" font-size="10.00">ColunaNomeada::obterTarefa</text>
</a>
</g>
</g>
<!-- Node1&#45;&gt;Node6 -->
<g id="edge5_Node000001_Node000006" class="edge">
<title>Node1&#45;&gt;Node6</title>
<g id="a_edge5_Node000001_Node000006"><a xlink:title=" ">
<path fill="none" stroke="#63b8ff" d="M209.77,-90.59C190.75,-83.07 166.78,-74.01 145,-67 135.59,-63.97 125.37,-61.04 115.68,-58.43"/>
<polygon fill="#63b8ff" stroke="#63b8ff" points="208.19,-94.13 218.77,-94.58 210.78,-87.63 208.19,-94.13"/>
</a>
</g>
</g>
<!-- Node7 -->
<g id="Node000007" class="node">
<title>Node7</title>
<g id="a_Node000007"><a xlink:href="../../d0/d4e/class_coluna_arquivo.html#abb1d729c65cf4680de28dd85fe20c737" target="_top" xlink:title="Obtém uma tarefa da coluna pelo seu índice.">
<polygon fill="white" stroke="#666666" points="138.25,-20 6.75,-20 6.75,0 138.25,0 138.25,-20"/>
<text text-anchor="middle" x="72.5" y="-6.5" font-family="Helvetica,sans-Serif" font-size="10.00">ColunaArquivo::obterTarefa</text>
</a>
</g>
</g>
<!-- Node1&#45;&gt;Node7 -->
<g id="edge6_Node000001_Node000007" class="edge">
<title>Node1&#45;&gt;Node7</title>
<g id="a_edge6_Node000001_Node000007"><a xlink:title=" ">
<path fill="none" stroke="#63b8ff" d="M226.43,-87.28C207.4,-70.04 176.26,-44.28 145,-29 138.08,-25.61 130.47,-22.77 122.88,-20.4"/>
<polygon fill="#63b8ff" stroke="#63b8ff" points="223.55,-89.31 233.27,-93.53 228.3,-84.17 223.55,-89.31"/>
</a>
</g>
</g>
</g>
</svg>
</svg>

<style type='text/css'>
<![CDATA[
[data-mouse-over-selected='false'] { opacity: 0.7; }
[data-mouse-over-selected='true']  { opacity: 1.0; }
]]>
</style>
<script type="application/ecmascript"><![CDATA[
document.addEventListener('DOMContentLoaded', (event) => {
  highlightEdges();
  highlightAdjacentNodes();
});
]]></script>
</svg>
