<?xml version="1.0" encoding="UTF-8" standalone="no"?>
<!DOCTYPE svg PUBLIC "-//W3C//DTD SVG 1.1//EN"
 "http://www.w3.org/Graphics/SVG/1.1/DTD/svg11.dtd">
<!-- Generated by graphviz version 8.1.0 (20230707.0739)
 -->
<!-- Title: ListaDupla::removerFim Pages: 1 -->
<svg width="493pt" height="66pt"
 viewBox="0.00 0.00 493.25 66.00" xmlns="http://www.w3.org/2000/svg" xmlns:xlink="http://www.w3.org/1999/xlink">
<g id="graph0" class="graph" transform="scale(1 1) rotate(0) translate(4 62)">
<title>ListaDupla::removerFim</title>
<!-- Node1 -->
<g id="Node000001" class="node">
<title>Node1</title>
<g id="a_Node000001"><a xlink:title="Remove a tarefa do fim da lista.">
<polygon fill="#999999" stroke="#666666" points="485.25,-39 367.25,-39 367.25,-19 485.25,-19 485.25,-39"/>
<text text-anchor="middle" x="426.25" y="-25.5" font-family="Helvetica,sans-Serif" font-size="10.00">ListaDupla::removerFim</text>
</a>
</g>
</g>
<!-- Node2 -->
<g id="Node000002" class="node">
<title>Node2</title>
<g id="a_Node000002"><a xlink:href="../../dd/d91/class_lista_dupla.html#ab976735e9038a9bd590a764b2a832e45" target="_top" xlink:title="Remove a tarefa da lista pelo índice.">
<polygon fill="white" stroke="#666666" points="331.25,-39 189.25,-39 189.25,-19 331.25,-19 331.25,-39"/>
<text text-anchor="middle" x="260.25" y="-25.5" font-family="Helvetica,sans-Serif" font-size="10.00">ListaDupla::removerPorIndice</text>
</a>
</g>
</g>
<!-- Node1&#45;&gt;Node2 -->
<g id="edge1_Node000001_Node000002" class="edge">
<title>Node1&#45;&gt;Node2</title>
<g id="a_edge1_Node000001_Node000002"><a xlink:title=" ">
<path fill="none" stroke="#63b8ff" d="M356.1,-29C348.03,-29 339.79,-29 331.7,-29"/>
<polygon fill="#63b8ff" stroke="#63b8ff" points="355.97,-32.5 365.97,-29 355.97,-25.5 355.97,-32.5"/>
</a>
</g>
</g>
<!-- Node3 -->
<g id="Node000003" class="node">
<title>Node3</title>
<g id="a_Node000003"><a xlink:href="../../de/d1c/class_coluna_nomeada.html#ad9f5dc15ca20616f353008e5a3aa27e3" target="_top" xlink:title="Remove uma tarefa da coluna.">
<polygon fill="white" stroke="#666666" points="153.25,-58 0,-58 0,-38 153.25,-38 153.25,-58"/>
<text text-anchor="middle" x="76.62" y="-44.5" font-family="Helvetica,sans-Serif" font-size="10.00">ColunaNomeada::removerTarefa</text>
</a>
</g>
</g>
<!-- Node2&#45;&gt;Node3 -->
<g id="edge2_Node000002_Node000003" class="edge">
<title>Node2&#45;&gt;Node3</title>
<g id="a_edge2_Node000002_Node000003"><a xlink:title=" ">
<path fill="none" stroke="#63b8ff" d="M178.09,-37.49C169.9,-38.35 161.61,-39.21 153.48,-40.06"/>
<polygon fill="#63b8ff" stroke="#63b8ff" points="178.19,-40.89 187.77,-36.37 177.46,-33.93 178.19,-40.89"/>
</a>
</g>
</g>
<!-- Node4 -->
<g id="Node000004" class="node">
<title>Node4</title>
<g id="a_Node000004"><a xlink:href="../../d0/d4e/class_coluna_arquivo.html#aae317988e21d9072edf5de1543085f14" target="_top" xlink:title="Remove uma tarefa da coluna.">
<polygon fill="white" stroke="#666666" points="148.38,-20 4.88,-20 4.88,0 148.38,0 148.38,-20"/>
<text text-anchor="middle" x="76.62" y="-6.5" font-family="Helvetica,sans-Serif" font-size="10.00">ColunaArquivo::removerTarefa</text>
</a>
</g>
</g>
<!-- Node2&#45;&gt;Node4 -->
<g id="edge3_Node000002_Node000004" class="edge">
<title>Node2&#45;&gt;Node4</title>
<g id="a_edge3_Node000002_Node000004"><a xlink:title=" ">
<path fill="none" stroke="#63b8ff" d="M177.86,-20.49C168.12,-19.47 158.24,-18.43 148.66,-17.43"/>
<polygon fill="#63b8ff" stroke="#63b8ff" points="177.46,-24.07 187.77,-21.63 178.19,-17.11 177.46,-24.07"/>
</a>
</g>
</g>
</g>
</svg>
