<?xml version="1.0" encoding="UTF-8" standalone="no"?>
<!DOCTYPE svg PUBLIC "-//W3C//DTD SVG 1.1//EN"
 "http://www.w3.org/Graphics/SVG/1.1/DTD/svg11.dtd">
<!-- Generated by graphviz version 8.1.0 (20230707.0739)
 -->
<!-- Title: include/colunas.hpp Pages: 1 -->
<svg width="265pt" height="252pt"
 viewBox="0.00 0.00 264.82 252.00" xmlns="http://www.w3.org/2000/svg" xmlns:xlink="http://www.w3.org/1999/xlink">

<svg id="main" version="1.1" xmlns="http://www.w3.org/2000/svg" xmlns:xlink="http://www.w3.org/1999/xlink" xml:space="preserve" onload="init(evt)">
<style type="text/css"><![CDATA[
.node, .edge {opacity: 0.7;}
.node.selected, .edge.selected {opacity: 1;}
.edge:hover path { stroke: red; }
.edge:hover polygon { stroke: red; fill: red; }
]]></style>
<script type="application/ecmascript" xlink:href="../../svg.min.js"/>
<svg id="graph" class="graph">
<g id="graph0" class="graph" transform="scale(1 1) rotate(0) translate(4 248)">
<title>include/colunas.hpp</title>
<!-- Node1 -->
<g id="Node000001" class="node">
<title>Node1</title>
<g id="a_Node000001"><a xlink:title="Definição das classes Coluna, ColunaNomeada e ColunaArquivo.">
<polygon fill="#999999" stroke="#666666" points="207.03,-244 104.78,-244 104.78,-224 207.03,-224 207.03,-244"/>
<text text-anchor="middle" x="155.91" y="-230.5" font-family="Helvetica,sans-Serif" font-size="10.00">include/colunas.hpp</text>
</a>
</g>
</g>
<!-- Node2 -->
<g id="Node000002" class="node">
<title>Node2</title>
<g id="a_Node000002"><a xlink:title=" ">
<polygon fill="#e0e0e0" stroke="#999999" points="96.66,-20 43.16,-20 43.16,0 96.66,0 96.66,-20"/>
<text text-anchor="middle" x="69.91" y="-6.5" font-family="Helvetica,sans-Serif" font-size="10.00">iostream</text>
</a>
</g>
</g>
<!-- Node1&#45;&gt;Node2 -->
<g id="edge1_Node000001_Node000002" class="edge">
<title>Node1&#45;&gt;Node2</title>
<g id="a_edge1_Node000001_Node000002"><a xlink:title=" ">
<path fill="none" stroke="#63b8ff" d="M104.55,-231.38C72.61,-227.38 33.77,-216.43 12.91,-188 -23.92,-137.8 27.1,-62.78 54.5,-28.83"/>
<polygon fill="#63b8ff" stroke="#63b8ff" points="57.81,-31.32 61.51,-21.39 52.42,-26.85 57.81,-31.32"/>
</a>
</g>
</g>
<!-- Node3 -->
<g id="Node000003" class="node">
<title>Node3</title>
<g id="a_Node000003"><a xlink:title=" ">
<polygon fill="#e0e0e0" stroke="#999999" points="230.91,-20 190.91,-20 190.91,0 230.91,0 230.91,-20"/>
<text text-anchor="middle" x="210.91" y="-6.5" font-family="Helvetica,sans-Serif" font-size="10.00">string</text>
</a>
</g>
</g>
<!-- Node1&#45;&gt;Node3 -->
<g id="edge2_Node000001_Node000003" class="edge">
<title>Node1&#45;&gt;Node3</title>
<g id="a_edge2_Node000001_Node000003"><a xlink:title=" ">
<path fill="none" stroke="#63b8ff" d="M194.02,-223.6C212.49,-216.91 232.98,-205.86 243.91,-188 275.1,-137.01 241.28,-63.44 222.17,-29.47"/>
<polygon fill="#63b8ff" stroke="#63b8ff" points="224.86,-28.14 216.8,-21.27 218.82,-31.67 224.86,-28.14"/>
</a>
</g>
</g>
<!-- Node4 -->
<g id="Node000004" class="node">
<title>Node4</title>
<g id="a_Node000004"><a xlink:title=" ">
<polygon fill="#e0e0e0" stroke="#999999" points="234.66,-188 193.16,-188 193.16,-168 234.66,-168 234.66,-188"/>
<text text-anchor="middle" x="213.91" y="-174.5" font-family="Helvetica,sans-Serif" font-size="10.00">vector</text>
</a>
</g>
</g>
<!-- Node1&#45;&gt;Node4 -->
<g id="edge3_Node000001_Node000004" class="edge">
<title>Node1&#45;&gt;Node4</title>
<g id="a_edge3_Node000001_Node000004"><a xlink:title=" ">
<path fill="none" stroke="#63b8ff" d="M166.01,-223.59C174.25,-215.93 186.08,-204.91 195.92,-195.75"/>
<polygon fill="#63b8ff" stroke="#63b8ff" points="197.99,-198.67 202.92,-189.3 193.22,-193.55 197.99,-198.67"/>
</a>
</g>
</g>
<!-- Node5 -->
<g id="Node000005" class="node">
<title>Node5</title>
<g id="a_Node000005"><a xlink:href="../../d1/d7b/lista_duplamente_encadeada_8hpp.html" target="_top" xlink:title="Define a classe ListaDupla e a classe No para implementar uma lista duplamente encadeada de tarefas d...">
<polygon fill="white" stroke="#666666" points="175.53,-188 22.28,-188 22.28,-168 175.53,-168 175.53,-188"/>
<text text-anchor="middle" x="98.91" y="-174.5" font-family="Helvetica,sans-Serif" font-size="10.00">listaDuplamenteEncadeada.hpp</text>
</a>
</g>
</g>
<!-- Node1&#45;&gt;Node5 -->
<g id="edge4_Node000001_Node000005" class="edge">
<title>Node1&#45;&gt;Node5</title>
<g id="a_edge4_Node000001_Node000005"><a xlink:title=" ">
<path fill="none" stroke="#63b8ff" d="M145.98,-223.59C137.89,-215.93 126.26,-204.91 116.58,-195.75"/>
<polygon fill="#63b8ff" stroke="#63b8ff" points="119.39,-193.63 109.72,-189.3 114.58,-198.72 119.39,-193.63"/>
</a>
</g>
</g>
<!-- Node5&#45;&gt;Node2 -->
<g id="edge5_Node000005_Node000002" class="edge">
<title>Node5&#45;&gt;Node2</title>
<g id="a_edge5_Node000005_Node000002"><a xlink:title=" ">
<path fill="none" stroke="#63b8ff" d="M92.22,-167.53C86.45,-158.77 78.49,-145.16 74.91,-132 65.51,-97.46 66.4,-55.35 68.05,-31.01"/>
<polygon fill="#63b8ff" stroke="#63b8ff" points="71.6,-31.57 68.91,-21.32 64.62,-31.01 71.6,-31.57"/>
</a>
</g>
</g>
<!-- Node6 -->
<g id="Node000006" class="node">
<title>Node6</title>
<g id="a_Node000006"><a xlink:href="../../d1/d1b/tarefa_8hpp.html" target="_top" xlink:title="Definição da classe Tarefa.">
<polygon fill="white" stroke="#666666" points="142.28,-132 83.53,-132 83.53,-112 142.28,-112 142.28,-132"/>
<text text-anchor="middle" x="112.91" y="-118.5" font-family="Helvetica,sans-Serif" font-size="10.00">tarefa.hpp</text>
</a>
</g>
</g>
<!-- Node5&#45;&gt;Node6 -->
<g id="edge6_Node000005_Node000006" class="edge">
<title>Node5&#45;&gt;Node6</title>
<g id="a_edge6_Node000005_Node000006"><a xlink:title=" ">
<path fill="none" stroke="#63b8ff" d="M101.35,-167.59C103.11,-160.78 105.57,-151.32 107.76,-142.86"/>
<polygon fill="#63b8ff" stroke="#63b8ff" points="111.38,-143.86 110.5,-133.3 104.6,-142.1 111.38,-143.86"/>
</a>
</g>
</g>
<!-- Node6&#45;&gt;Node2 -->
<g id="edge8_Node000006_Node000002" class="edge">
<title>Node6&#45;&gt;Node2</title>
<g id="a_edge8_Node000006_Node000002"><a xlink:title=" ">
<path fill="none" stroke="#63b8ff" d="M109.24,-111.62C102.23,-93.68 86.78,-54.17 77.47,-30.35"/>
<polygon fill="#63b8ff" stroke="#63b8ff" points="80.47,-29.39 73.57,-21.35 73.95,-31.94 80.47,-29.39"/>
</a>
</g>
</g>
<!-- Node6&#45;&gt;Node3 -->
<g id="edge7_Node000006_Node000003" class="edge">
<title>Node6&#45;&gt;Node3</title>
<g id="a_edge7_Node000006_Node000003"><a xlink:title=" ">
<path fill="none" stroke="#63b8ff" d="M140.32,-111.55C157.45,-104.32 178.7,-92.72 191.91,-76 202.06,-63.16 206.79,-45.06 208.99,-31.22"/>
<polygon fill="#63b8ff" stroke="#63b8ff" points="212.58,-31.75 210.35,-21.39 205.63,-30.88 212.58,-31.75"/>
</a>
</g>
</g>
<!-- Node7 -->
<g id="Node000007" class="node">
<title>Node7</title>
<g id="a_Node000007"><a xlink:href="../../d9/da4/pessoa_8hpp.html" target="_top" xlink:title="Definição das classes Pessoa e Colaborador.">
<polygon fill="white" stroke="#666666" points="183.03,-76 116.78,-76 116.78,-56 183.03,-56 183.03,-76"/>
<text text-anchor="middle" x="149.91" y="-62.5" font-family="Helvetica,sans-Serif" font-size="10.00">pessoa.hpp</text>
</a>
</g>
</g>
<!-- Node6&#45;&gt;Node7 -->
<g id="edge9_Node000006_Node000007" class="edge">
<title>Node6&#45;&gt;Node7</title>
<g id="a_edge9_Node000006_Node000007"><a xlink:title=" ">
<path fill="none" stroke="#63b8ff" d="M119.35,-111.59C124.34,-104.32 131.4,-94.02 137.47,-85.15"/>
<polygon fill="#63b8ff" stroke="#63b8ff" points="140.77,-87.53 143.54,-77.3 135,-83.57 140.77,-87.53"/>
</a>
</g>
</g>
<!-- Node7&#45;&gt;Node2 -->
<g id="edge10_Node000007_Node000002" class="edge">
<title>Node7&#45;&gt;Node2</title>
<g id="a_edge10_Node000007_Node000002"><a xlink:title=" ">
<path fill="none" stroke="#63b8ff" d="M135.97,-55.59C124.12,-47.59 106.85,-35.93 92.94,-26.54"/>
<polygon fill="#63b8ff" stroke="#63b8ff" points="95.2,-23.17 84.95,-20.48 91.28,-28.98 95.2,-23.17"/>
</a>
</g>
</g>
<!-- Node7&#45;&gt;Node3 -->
<g id="edge11_Node000007_Node000003" class="edge">
<title>Node7&#45;&gt;Node3</title>
<g id="a_edge11_Node000007_Node000003"><a xlink:title=" ">
<path fill="none" stroke="#63b8ff" d="M160.53,-55.59C169.28,-47.85 181.89,-36.69 192.31,-27.47"/>
<polygon fill="#63b8ff" stroke="#63b8ff" points="194.24,-30.55 199.41,-21.3 189.6,-25.31 194.24,-30.55"/>
</a>
</g>
</g>
</g>
</svg>
</svg>

<style type='text/css'>
<![CDATA[
[data-mouse-over-selected='false'] { opacity: 0.7; }
[data-mouse-over-selected='true']  { opacity: 1.0; }
]]>
</style>
<script type="application/ecmascript"><![CDATA[
document.addEventListener('DOMContentLoaded', (event) => {
  highlightEdges();
  highlightAdjacentNodes();
});
]]></script>
</svg>
