<?xml version="1.0" encoding="UTF-8" standalone="no"?>
<!DOCTYPE svg PUBLIC "-//W3C//DTD SVG 1.1//EN"
 "http://www.w3.org/Graphics/SVG/1.1/DTD/svg11.dtd">
<!-- Generated by graphviz version 8.1.0 (20230707.0739)
 -->
<!-- Title: NoSimples Pages: 1 -->
<svg width="215pt" height="788pt"
 viewBox="0.00 0.00 215.00 788.00" xmlns="http://www.w3.org/2000/svg" xmlns:xlink="http://www.w3.org/1999/xlink">
<g id="graph0" class="graph" transform="scale(1 1) rotate(0) translate(4 784)">
<title>NoSimples</title>
<!-- Node1 -->
<g id="Node000001" class="node">
<title>Node1</title>
<g id="a_Node000001"><a xlink:title="Classe que representa um nó de uma lista simplesmente encadeada.">
<polygon fill="#999999" stroke="none" points="145.5,-52 32.5,-52 32.5,0 145.5,0 145.5,-52"/>
<text text-anchor="start" x="65.38" y="-38.5" font-family="Helvetica,sans-Serif" font-size="10.00">NoSimples</text>
<text text-anchor="start" x="87.5" y="-22.5" font-family="Helvetica,sans-Serif" font-size="10.00"> </text>
<text text-anchor="start" x="36.5" y="-6.5" font-family="Helvetica,sans-Serif" font-size="10.00">+</text>
<text text-anchor="start" x="46.5" y="-6.5" font-family="Helvetica,sans-Serif" font-size="10.00">NoSimples(Coluna *c)</text>
<polygon fill="#666666" stroke="#666666" points="32.5,-34 32.5,-34 145.5,-34 145.5,-34 32.5,-34"/>
<polygon fill="#666666" stroke="#666666" points="32.5,-18 32.5,-18 145.5,-18 145.5,-18 32.5,-18"/>
<polygon fill="none" stroke="#666666" points="32.5,0 32.5,-52 145.5,-52 145.5,0 32.5,0"/>
</a>
</g>
</g>
<!-- Node1&#45;&gt;Node1 -->
<g id="edge3_Node000001_Node000001" class="edge">
<title>Node1&#45;&gt;Node1</title>
<g id="a_edge3_Node000001_Node000001"><a xlink:title=" ">
<path fill="none" stroke="#63b8ff" d="M145.2,-34.93C155.92,-33.86 163.5,-30.88 163.5,-26 163.5,-23.41 161.36,-21.35 157.75,-19.83"/>
<polygon fill="none" stroke="#63b8ff" points="157.81,-19.85 151.09,-22.46 146.09,-17.27 152.8,-14.65 157.81,-19.85"/>
</a>
</g>
<text text-anchor="middle" x="185.25" y="-22.5" font-family="Helvetica,sans-Serif" font-size="10.00" fill="grey"> +proximo</text>
</g>
<!-- Node2 -->
<g id="Node000002" class="node">
<title>Node2</title>
<g id="a_Node000002"><a xlink:href="../../d3/d3c/class_coluna.html" target="_top" xlink:title="Classe abstrata que representa uma coluna de um quadro de tarefas.">
<polygon fill="white" stroke="none" points="178,-412 0,-412 0,-100 178,-100 178,-412"/>
<text text-anchor="start" x="74" y="-398.5" font-family="Helvetica,sans-Serif" font-size="10.00">Coluna</text>
<text text-anchor="start" x="87.5" y="-382.5" font-family="Helvetica,sans-Serif" font-size="10.00"> </text>
<text text-anchor="start" x="4" y="-366.5" font-family="Helvetica,sans-Serif" font-size="10.00">+</text>
<text text-anchor="start" x="14" y="-366.5" font-family="Helvetica,sans-Serif" font-size="10.00">virtual ~Coluna()</text>
<text text-anchor="start" x="4" y="-350.5" font-family="Helvetica,sans-Serif" font-size="10.00">+</text>
<text text-anchor="start" x="14" y="-350.5" font-family="Helvetica,sans-Serif" font-size="10.00">virtual void inserirTarefa</text>
<text text-anchor="start" x="14" y="-338.5" font-family="Helvetica,sans-Serif" font-size="10.00">(Tarefa *t)=0</text>
<text text-anchor="start" x="4" y="-322.5" font-family="Helvetica,sans-Serif" font-size="10.00">+</text>
<text text-anchor="start" x="14" y="-322.5" font-family="Helvetica,sans-Serif" font-size="10.00">virtual void removerTarefa</text>
<text text-anchor="start" x="14" y="-310.5" font-family="Helvetica,sans-Serif" font-size="10.00">(int indice)=0</text>
<text text-anchor="start" x="4" y="-294.5" font-family="Helvetica,sans-Serif" font-size="10.00">+</text>
<text text-anchor="start" x="14" y="-294.5" font-family="Helvetica,sans-Serif" font-size="10.00">virtual void imprimir</text>
<text text-anchor="start" x="14" y="-282.5" font-family="Helvetica,sans-Serif" font-size="10.00">() const =0</text>
<text text-anchor="start" x="4" y="-266.5" font-family="Helvetica,sans-Serif" font-size="10.00">+</text>
<text text-anchor="start" x="14" y="-266.5" font-family="Helvetica,sans-Serif" font-size="10.00">virtual void moverTarefa</text>
<text text-anchor="start" x="14" y="-254.5" font-family="Helvetica,sans-Serif" font-size="10.00">(int indice, Coluna *colunaDestino)=0</text>
<text text-anchor="start" x="4" y="-238.5" font-family="Helvetica,sans-Serif" font-size="10.00">+</text>
<text text-anchor="start" x="14" y="-238.5" font-family="Helvetica,sans-Serif" font-size="10.00">virtual Tarefa * obterTarefa</text>
<text text-anchor="start" x="14" y="-226.5" font-family="Helvetica,sans-Serif" font-size="10.00">(int indice)=0</text>
<text text-anchor="start" x="4" y="-210.5" font-family="Helvetica,sans-Serif" font-size="10.00">+</text>
<text text-anchor="start" x="14" y="-210.5" font-family="Helvetica,sans-Serif" font-size="10.00">virtual int getTamanho()=0</text>
<text text-anchor="start" x="4" y="-194.5" font-family="Helvetica,sans-Serif" font-size="10.00">+</text>
<text text-anchor="start" x="14" y="-194.5" font-family="Helvetica,sans-Serif" font-size="10.00">virtual string getNome()=0</text>
<text text-anchor="start" x="4" y="-178.5" font-family="Helvetica,sans-Serif" font-size="10.00">+</text>
<text text-anchor="start" x="14" y="-178.5" font-family="Helvetica,sans-Serif" font-size="10.00">virtual string getDescricao()=0</text>
<text text-anchor="start" x="4" y="-162.5" font-family="Helvetica,sans-Serif" font-size="10.00">+</text>
<text text-anchor="start" x="14" y="-162.5" font-family="Helvetica,sans-Serif" font-size="10.00">virtual void setNome</text>
<text text-anchor="start" x="14" y="-150.5" font-family="Helvetica,sans-Serif" font-size="10.00">(string n)=0</text>
<text text-anchor="start" x="4" y="-134.5" font-family="Helvetica,sans-Serif" font-size="10.00">+</text>
<text text-anchor="start" x="14" y="-134.5" font-family="Helvetica,sans-Serif" font-size="10.00">virtual void setDescricao</text>
<text text-anchor="start" x="14" y="-122.5" font-family="Helvetica,sans-Serif" font-size="10.00">(string d)=0</text>
<text text-anchor="start" x="4" y="-106.5" font-family="Helvetica,sans-Serif" font-size="10.00">+</text>
<text text-anchor="start" x="14" y="-106.5" font-family="Helvetica,sans-Serif" font-size="10.00">virtual void ordenar()=0</text>
<polygon fill="#666666" stroke="#666666" points="0,-394 0,-394 178,-394 178,-394 0,-394"/>
<polygon fill="#666666" stroke="#666666" points="0,-378 0,-378 178,-378 178,-378 0,-378"/>
<polygon fill="none" stroke="#666666" points="0,-100 0,-412 178,-412 178,-100 0,-100"/>
</a>
</g>
</g>
<!-- Node2&#45;&gt;Node1 -->
<g id="edge1_Node000001_Node000002" class="edge">
<title>Node2&#45;&gt;Node1</title>
<g id="a_edge1_Node000001_Node000002"><a xlink:title=" ">
<path fill="none" stroke="#63b8ff" d="M89,-100.08C89,-87.21 89,-75.13 89,-64.65"/>
<polygon fill="none" stroke="#63b8ff" points="89,-64.76 85,-58.76 89,-52.76 93,-58.76 89,-64.76"/>
</a>
</g>
<text text-anchor="middle" x="107.75" y="-72.5" font-family="Helvetica,sans-Serif" font-size="10.00" fill="grey"> +coluna</text>
</g>
<!-- Node3 -->
<g id="Node000003" class="node">
<title>Node3</title>
<g id="a_Node000003"><a xlink:href="../../dd/d91/class_lista_dupla.html" target="_top" xlink:title="Classe que implementa uma lista duplamente encadeada de tarefas de um quadro de tarefas.">
<polygon fill="white" stroke="none" points="156,-780 22,-780 22,-460 156,-460 156,-780"/>
<text text-anchor="start" x="66.12" y="-766.5" font-family="Helvetica,sans-Serif" font-size="10.00">ListaDupla</text>
<text text-anchor="start" x="87.5" y="-750.5" font-family="Helvetica,sans-Serif" font-size="10.00"> </text>
<text text-anchor="start" x="26" y="-734.5" font-family="Helvetica,sans-Serif" font-size="10.00">+</text>
<text text-anchor="start" x="36" y="-734.5" font-family="Helvetica,sans-Serif" font-size="10.00">ListaDupla()</text>
<text text-anchor="start" x="26" y="-718.5" font-family="Helvetica,sans-Serif" font-size="10.00">+</text>
<text text-anchor="start" x="36" y="-718.5" font-family="Helvetica,sans-Serif" font-size="10.00">~ListaDupla()</text>
<text text-anchor="start" x="26" y="-702.5" font-family="Helvetica,sans-Serif" font-size="10.00">+</text>
<text text-anchor="start" x="36" y="-702.5" font-family="Helvetica,sans-Serif" font-size="10.00">int getTamanho() const</text>
<text text-anchor="start" x="26" y="-686.5" font-family="Helvetica,sans-Serif" font-size="10.00">+</text>
<text text-anchor="start" x="36" y="-686.5" font-family="Helvetica,sans-Serif" font-size="10.00">bool vazia() const</text>
<text text-anchor="start" x="26" y="-670.5" font-family="Helvetica,sans-Serif" font-size="10.00">+</text>
<text text-anchor="start" x="36" y="-670.5" font-family="Helvetica,sans-Serif" font-size="10.00">void inserirInicio</text>
<text text-anchor="start" x="36" y="-658.5" font-family="Helvetica,sans-Serif" font-size="10.00">(Tarefa *t)</text>
<text text-anchor="start" x="26" y="-642.5" font-family="Helvetica,sans-Serif" font-size="10.00">+</text>
<text text-anchor="start" x="36" y="-642.5" font-family="Helvetica,sans-Serif" font-size="10.00">void inserirFim(Tarefa *t)</text>
<text text-anchor="start" x="26" y="-626.5" font-family="Helvetica,sans-Serif" font-size="10.00">+</text>
<text text-anchor="start" x="36" y="-626.5" font-family="Helvetica,sans-Serif" font-size="10.00">void inserirPorIndice</text>
<text text-anchor="start" x="36" y="-614.5" font-family="Helvetica,sans-Serif" font-size="10.00">(Tarefa *t, int indice)</text>
<text text-anchor="start" x="26" y="-598.5" font-family="Helvetica,sans-Serif" font-size="10.00">+</text>
<text text-anchor="start" x="36" y="-598.5" font-family="Helvetica,sans-Serif" font-size="10.00">void removerInicio()</text>
<text text-anchor="start" x="26" y="-582.5" font-family="Helvetica,sans-Serif" font-size="10.00">+</text>
<text text-anchor="start" x="36" y="-582.5" font-family="Helvetica,sans-Serif" font-size="10.00">void removerFim()</text>
<text text-anchor="start" x="26" y="-566.5" font-family="Helvetica,sans-Serif" font-size="10.00">+</text>
<text text-anchor="start" x="36" y="-566.5" font-family="Helvetica,sans-Serif" font-size="10.00">void removerPorIndice</text>
<text text-anchor="start" x="36" y="-554.5" font-family="Helvetica,sans-Serif" font-size="10.00">(int indice)</text>
<text text-anchor="start" x="26" y="-538.5" font-family="Helvetica,sans-Serif" font-size="10.00">+</text>
<text text-anchor="start" x="36" y="-538.5" font-family="Helvetica,sans-Serif" font-size="10.00">void lightDelete(int</text>
<text text-anchor="start" x="36" y="-526.5" font-family="Helvetica,sans-Serif" font-size="10.00"> indice)</text>
<text text-anchor="start" x="26" y="-510.5" font-family="Helvetica,sans-Serif" font-size="10.00">+</text>
<text text-anchor="start" x="36" y="-510.5" font-family="Helvetica,sans-Serif" font-size="10.00">void limpar()</text>
<text text-anchor="start" x="26" y="-494.5" font-family="Helvetica,sans-Serif" font-size="10.00">+</text>
<text text-anchor="start" x="36" y="-494.5" font-family="Helvetica,sans-Serif" font-size="10.00">Tarefa * obterPorIndice</text>
<text text-anchor="start" x="36" y="-482.5" font-family="Helvetica,sans-Serif" font-size="10.00">(int indice) const</text>
<text text-anchor="start" x="26" y="-466.5" font-family="Helvetica,sans-Serif" font-size="10.00">+</text>
<text text-anchor="start" x="36" y="-466.5" font-family="Helvetica,sans-Serif" font-size="10.00">void ordenarPorPrioridade()</text>
<polygon fill="#666666" stroke="#666666" points="22,-762 22,-762 156,-762 156,-762 22,-762"/>
<polygon fill="#666666" stroke="#666666" points="22,-746 22,-746 156,-746 156,-746 22,-746"/>
<polygon fill="none" stroke="#666666" points="22,-460 22,-780 156,-780 156,-460 22,-460"/>
</a>
</g>
</g>
<!-- Node3&#45;&gt;Node2 -->
<g id="edge2_Node000002_Node000003" class="edge">
<title>Node3&#45;&gt;Node2</title>
<g id="a_edge2_Node000002_Node000003"><a xlink:title=" ">
<path fill="none" stroke="#63b8ff" d="M89,-460.22C89,-448.43 89,-436.52 89,-424.68"/>
<polygon fill="none" stroke="#63b8ff" points="89,-424.77 85,-418.77 89,-412.77 93,-418.77 89,-424.77"/>
</a>
</g>
<text text-anchor="middle" x="102.12" y="-432.5" font-family="Helvetica,sans-Serif" font-size="10.00" fill="grey"> #lista</text>
</g>
</g>
</svg>
