<?xml version="1.0" encoding="UTF-8" standalone="no"?>
<!DOCTYPE svg PUBLIC "-//W3C//DTD SVG 1.1//EN"
 "http://www.w3.org/Graphics/SVG/1.1/DTD/svg11.dtd">
<!-- Generated by graphviz version 8.1.0 (20230707.0739)
 -->
<!-- Title: NoSimples Pages: 1 -->
<!--zoomable 788 -->

<svg id="main" version="1.1" xmlns="http://www.w3.org/2000/svg" xmlns:xlink="http://www.w3.org/1999/xlink" xml:space="preserve" onload="init(evt)">
<style type="text/css"><![CDATA[
.node, .edge {opacity: 0.7;}
.node.selected, .edge.selected {opacity: 1;}
.edge:hover path { stroke: red; }
.edge:hover polygon { stroke: red; fill: red; }
]]></style>

<defs>
  <circle id="rim" cx="0" cy="0" r="7"/>
  <circle id="rim2" cx="0" cy="0" r="3.5"/>
  <g id="zoomPlus">
    <use xlink:href="#rim" fill="#404040"><set attributeName="fill" to="#808080" begin="zoomplus.mouseover" end="zoomplus.mouseout"/></use>
    <path d="M-4,0h8M0,-4v8" fill="none" stroke="white" stroke-width="1.5" pointer-events="none"/>
  </g>
  <g id="zoomMin">
    <use xlink:href="#rim" fill="#404040"><set attributeName="fill" to="#808080" begin="zoomminus.mouseover" end="zoomminus.mouseout"/></use>
    <path d="M-4,0h8" fill="none" stroke="white" stroke-width="1.5" pointer-events="none"/>
  </g>
  <g id="arrowUp" transform="translate(30 24)">
    <use xlink:href="#rim"/>
    <path pointer-events="none" fill="none" stroke="white" stroke-width="1.5" d="M0,-3.0v7 M-2.5,-0.5L0,-3.0L2.5,-0.5"/>
  </g>
  <g id="arrowRight" transform="rotate(90) translate(36 -43)">
    <use xlink:href="#rim"/>
    <path pointer-events="none" fill="none" stroke="white" stroke-width="1.5" d="M0,-3.0v7 M-2.5,-0.5L0,-3.0L2.5,-0.5"/>
  </g>
  <g id="arrowDown" transform="rotate(180) translate(-30 -48)">
    <use xlink:href="#rim"/>
    <path pointer-events="none" fill="none" stroke="white" stroke-width="1.5" d="M0,-3.0v7 M-2.5,-0.5L0,-3.0L2.5,-0.5"/>
  </g>
  <g id="arrowLeft" transform="rotate(270) translate(-36 17)">
    <use xlink:href="#rim"/>
    <path pointer-events="none" fill="none" stroke="white" stroke-width="1.5" d="M0,-3.0v7 M-2.5,-0.5L0,-3.0L2.5,-0.5"/>
  </g>
  <g id="resetDef">
    <use xlink:href="#rim2" fill="#404040"><set attributeName="fill" to="#808080" begin="reset.mouseover" end="reset.mouseout"/></use>
  </g>
</defs>
<script type="application/ecmascript">
var viewWidth = 215;
var viewHeight = 788;
var sectionId = 'dynsection-0';
</script>
<script type="application/ecmascript" xlink:href="../../svg.min.js"/>
<svg id="graph" class="graph">
<g id="viewport">
<title>NoSimples</title>
<!-- Node1 -->
<g id="Node000001" class="node">
<title>Node1</title>
<g id="a_Node000001"><a xlink:title="Classe que representa um nó de uma lista simplesmente encadeada.">
<polygon fill="#999999" stroke="none" points="145.5,-52 32.5,-52 32.5,0 145.5,0 145.5,-52"/>
<text text-anchor="start" x="65.38" y="-38.5" font-family="Helvetica,sans-Serif" font-size="10.00">NoSimples</text>
<text text-anchor="start" x="87.5" y="-22.5" font-family="Helvetica,sans-Serif" font-size="10.00"> </text>
<text text-anchor="start" x="36.5" y="-6.5" font-family="Helvetica,sans-Serif" font-size="10.00">+</text>
<text text-anchor="start" x="46.5" y="-6.5" font-family="Helvetica,sans-Serif" font-size="10.00">NoSimples(Coluna *c)</text>
<polygon fill="#666666" stroke="#666666" points="32.5,-34 32.5,-34 145.5,-34 145.5,-34 32.5,-34"/>
<polygon fill="#666666" stroke="#666666" points="32.5,-18 32.5,-18 145.5,-18 145.5,-18 32.5,-18"/>
<polygon fill="none" stroke="#666666" points="32.5,0 32.5,-52 145.5,-52 145.5,0 32.5,0"/>
</a>
</g>
</g>
<!-- Node1&#45;&gt;Node1 -->
<g id="edge3_Node000001_Node000001" class="edge">
<title>Node1&#45;&gt;Node1</title>
<g id="a_edge3_Node000001_Node000001"><a xlink:title=" ">
<path fill="none" stroke="#63b8ff" d="M145.2,-34.93C155.92,-33.86 163.5,-30.88 163.5,-26 163.5,-23.41 161.36,-21.35 157.75,-19.83"/>
<polygon fill="none" stroke="#63b8ff" points="157.81,-19.85 151.09,-22.46 146.09,-17.27 152.8,-14.65 157.81,-19.85"/>
</a>
</g>
<text text-anchor="middle" x="185.25" y="-22.5" font-family="Helvetica,sans-Serif" font-size="10.00" fill="grey"> +proximo</text>
</g>
<!-- Node2 -->
<g id="Node000002" class="node">
<title>Node2</title>
<g id="a_Node000002"><a xlink:href="../../d3/d3c/class_coluna.html" target="_top" xlink:title="Classe abstrata que representa uma coluna de um quadro de tarefas.">
<polygon fill="white" stroke="none" points="178,-412 0,-412 0,-100 178,-100 178,-412"/>
<text text-anchor="start" x="74" y="-398.5" font-family="Helvetica,sans-Serif" font-size="10.00">Coluna</text>
<text text-anchor="start" x="87.5" y="-382.5" font-family="Helvetica,sans-Serif" font-size="10.00"> </text>
<text text-anchor="start" x="4" y="-366.5" font-family="Helvetica,sans-Serif" font-size="10.00">+</text>
<text text-anchor="start" x="14" y="-366.5" font-family="Helvetica,sans-Serif" font-size="10.00">virtual ~Coluna()</text>
<text text-anchor="start" x="4" y="-350.5" font-family="Helvetica,sans-Serif" font-size="10.00">+</text>
<text text-anchor="start" x="14" y="-350.5" font-family="Helvetica,sans-Serif" font-size="10.00">virtual void inserirTarefa</text>
<text text-anchor="start" x="14" y="-338.5" font-family="Helvetica,sans-Serif" font-size="10.00">(Tarefa *t)=0</text>
<text text-anchor="start" x="4" y="-322.5" font-family="Helvetica,sans-Serif" font-size="10.00">+</text>
<text text-anchor="start" x="14" y="-322.5" font-family="Helvetica,sans-Serif" font-size="10.00">virtual void removerTarefa</text>
<text text-anchor="start" x="14" y="-310.5" font-family="Helvetica,sans-Serif" font-size="10.00">(int indice)=0</text>
<text text-anchor="start" x="4" y="-294.5" font-family="Helvetica,sans-Serif" font-size="10.00">+</text>
<text text-anchor="start" x="14" y="-294.5" font-family="Helvetica,sans-Serif" font-size="10.00">virtual void imprimir</text>
<text text-anchor="start" x="14" y="-282.5" font-family="Helvetica,sans-Serif" font-size="10.00">() const =0</text>
<text text-anchor="start" x="4" y="-266.5" font-family="Helvetica,sans-Serif" font-size="10.00">+</text>
<text text-anchor="start" x="14" y="-266.5" font-family="Helvetica,sans-Serif" font-size="10.00">virtual void moverTarefa</text>
<text text-anchor="start" x="14" y="-254.5" font-family="Helvetica,sans-Serif" font-size="10.00">(int indice, Coluna *colunaDestino)=0</text>
<text text-anchor="start" x="4" y="-238.5" font-family="Helvetica,sans-Serif" font-size="10.00">+</text>
<text text-anchor="start" x="14" y="-238.5" font-family="Helvetica,sans-Serif" font-size="10.00">virtual Tarefa * obterTarefa</text>
<text text-anchor="start" x="14" y="-226.5" font-family="Helvetica,sans-Serif" font-size="10.00">(int indice)=0</text>
<text text-anchor="start" x="4" y="-210.5" font-family="Helvetica,sans-Serif" font-size="10.00">+</text>
<text text-anchor="start" x="14" y="-210.5" font-family="Helvetica,sans-Serif" font-size="10.00">virtual int getTamanho()=0</text>
<text text-anchor="start" x="4" y="-194.5" font-family="Helvetica,sans-Serif" font-size="10.00">+</text>
<text text-anchor="start" x="14" y="-194.5" font-family="Helvetica,sans-Serif" font-size="10.00">virtual string getNome()=0</text>
<text text-anchor="start" x="4" y="-178.5" font-family="Helvetica,sans-Serif" font-size="10.00">+</text>
<text text-anchor="start" x="14" y="-178.5" font-family="Helvetica,sans-Serif" font-size="10.00">virtual string getDescricao()=0</text>
<text text-anchor="start" x="4" y="-162.5" font-family="Helvetica,sans-Serif" font-size="10.00">+</text>
<text text-anchor="start" x="14" y="-162.5" font-family="Helvetica,sans-Serif" font-size="10.00">virtual void setNome</text>
<text text-anchor="start" x="14" y="-150.5" font-family="Helvetica,sans-Serif" font-size="10.00">(string n)=0</text>
<text text-anchor="start" x="4" y="-134.5" font-family="Helvetica,sans-Serif" font-size="10.00">+</text>
<text text-anchor="start" x="14" y="-134.5" font-family="Helvetica,sans-Serif" font-size="10.00">virtual void setDescricao</text>
<text text-anchor="start" x="14" y="-122.5" font-family="Helvetica,sans-Serif" font-size="10.00">(string d)=0</text>
<text text-anchor="start" x="4" y="-106.5" font-family="Helvetica,sans-Serif" font-size="10.00">+</text>
<text text-anchor="start" x="14" y="-106.5" font-family="Helvetica,sans-Serif" font-size="10.00">virtual void ordenar()=0</text>
<polygon fill="#666666" stroke="#666666" points="0,-394 0,-394 178,-394 178,-394 0,-394"/>
<polygon fill="#666666" stroke="#666666" points="0,-378 0,-378 178,-378 178,-378 0,-378"/>
<polygon fill="none" stroke="#666666" points="0,-100 0,-412 178,-412 178,-100 0,-100"/>
</a>
</g>
</g>
<!-- Node2&#45;&gt;Node1 -->
<g id="edge1_Node000001_Node000002" class="edge">
<title>Node2&#45;&gt;Node1</title>
<g id="a_edge1_Node000001_Node000002"><a xlink:title=" ">
<path fill="none" stroke="#63b8ff" d="M89,-100.08C89,-87.21 89,-75.13 89,-64.65"/>
<polygon fill="none" stroke="#63b8ff" points="89,-64.76 85,-58.76 89,-52.76 93,-58.76 89,-64.76"/>
</a>
</g>
<text text-anchor="middle" x="107.75" y="-72.5" font-family="Helvetica,sans-Serif" font-size="10.00" fill="grey"> +coluna</text>
</g>
<!-- Node3 -->
<g id="Node000003" class="node">
<title>Node3</title>
<g id="a_Node000003"><a xlink:href="../../dd/d91/class_lista_dupla.html" target="_top" xlink:title="Classe que implementa uma lista duplamente encadeada de tarefas de um quadro de tarefas.">
<polygon fill="white" stroke="none" points="156,-780 22,-780 22,-460 156,-460 156,-780"/>
<text text-anchor="start" x="66.12" y="-766.5" font-family="Helvetica,sans-Serif" font-size="10.00">ListaDupla</text>
<text text-anchor="start" x="87.5" y="-750.5" font-family="Helvetica,sans-Serif" font-size="10.00"> </text>
<text text-anchor="start" x="26" y="-734.5" font-family="Helvetica,sans-Serif" font-size="10.00">+</text>
<text text-anchor="start" x="36" y="-734.5" font-family="Helvetica,sans-Serif" font-size="10.00">ListaDupla()</text>
<text text-anchor="start" x="26" y="-718.5" font-family="Helvetica,sans-Serif" font-size="10.00">+</text>
<text text-anchor="start" x="36" y="-718.5" font-family="Helvetica,sans-Serif" font-size="10.00">~ListaDupla()</text>
<text text-anchor="start" x="26" y="-702.5" font-family="Helvetica,sans-Serif" font-size="10.00">+</text>
<text text-anchor="start" x="36" y="-702.5" font-family="Helvetica,sans-Serif" font-size="10.00">int getTamanho() const</text>
<text text-anchor="start" x="26" y="-686.5" font-family="Helvetica,sans-Serif" font-size="10.00">+</text>
<text text-anchor="start" x="36" y="-686.5" font-family="Helvetica,sans-Serif" font-size="10.00">bool vazia() const</text>
<text text-anchor="start" x="26" y="-670.5" font-family="Helvetica,sans-Serif" font-size="10.00">+</text>
<text text-anchor="start" x="36" y="-670.5" font-family="Helvetica,sans-Serif" font-size="10.00">void inserirInicio</text>
<text text-anchor="start" x="36" y="-658.5" font-family="Helvetica,sans-Serif" font-size="10.00">(Tarefa *t)</text>
<text text-anchor="start" x="26" y="-642.5" font-family="Helvetica,sans-Serif" font-size="10.00">+</text>
<text text-anchor="start" x="36" y="-642.5" font-family="Helvetica,sans-Serif" font-size="10.00">void inserirFim(Tarefa *t)</text>
<text text-anchor="start" x="26" y="-626.5" font-family="Helvetica,sans-Serif" font-size="10.00">+</text>
<text text-anchor="start" x="36" y="-626.5" font-family="Helvetica,sans-Serif" font-size="10.00">void inserirPorIndice</text>
<text text-anchor="start" x="36" y="-614.5" font-family="Helvetica,sans-Serif" font-size="10.00">(Tarefa *t, int indice)</text>
<text text-anchor="start" x="26" y="-598.5" font-family="Helvetica,sans-Serif" font-size="10.00">+</text>
<text text-anchor="start" x="36" y="-598.5" font-family="Helvetica,sans-Serif" font-size="10.00">void removerInicio()</text>
<text text-anchor="start" x="26" y="-582.5" font-family="Helvetica,sans-Serif" font-size="10.00">+</text>
<text text-anchor="start" x="36" y="-582.5" font-family="Helvetica,sans-Serif" font-size="10.00">void removerFim()</text>
<text text-anchor="start" x="26" y="-566.5" font-family="Helvetica,sans-Serif" font-size="10.00">+</text>
<text text-anchor="start" x="36" y="-566.5" font-family="Helvetica,sans-Serif" font-size="10.00">void removerPorIndice</text>
<text text-anchor="start" x="36" y="-554.5" font-family="Helvetica,sans-Serif" font-size="10.00">(int indice)</text>
<text text-anchor="start" x="26" y="-538.5" font-family="Helvetica,sans-Serif" font-size="10.00">+</text>
<text text-anchor="start" x="36" y="-538.5" font-family="Helvetica,sans-Serif" font-size="10.00">void lightDelete(int</text>
<text text-anchor="start" x="36" y="-526.5" font-family="Helvetica,sans-Serif" font-size="10.00"> indice)</text>
<text text-anchor="start" x="26" y="-510.5" font-family="Helvetica,sans-Serif" font-size="10.00">+</text>
<text text-anchor="start" x="36" y="-510.5" font-family="Helvetica,sans-Serif" font-size="10.00">void limpar()</text>
<text text-anchor="start" x="26" y="-494.5" font-family="Helvetica,sans-Serif" font-size="10.00">+</text>
<text text-anchor="start" x="36" y="-494.5" font-family="Helvetica,sans-Serif" font-size="10.00">Tarefa * obterPorIndice</text>
<text text-anchor="start" x="36" y="-482.5" font-family="Helvetica,sans-Serif" font-size="10.00">(int indice) const</text>
<text text-anchor="start" x="26" y="-466.5" font-family="Helvetica,sans-Serif" font-size="10.00">+</text>
<text text-anchor="start" x="36" y="-466.5" font-family="Helvetica,sans-Serif" font-size="10.00">void ordenarPorPrioridade()</text>
<polygon fill="#666666" stroke="#666666" points="22,-762 22,-762 156,-762 156,-762 22,-762"/>
<polygon fill="#666666" stroke="#666666" points="22,-746 22,-746 156,-746 156,-746 22,-746"/>
<polygon fill="none" stroke="#666666" points="22,-460 22,-780 156,-780 156,-460 22,-460"/>
</a>
</g>
</g>
<!-- Node3&#45;&gt;Node2 -->
<g id="edge2_Node000002_Node000003" class="edge">
<title>Node3&#45;&gt;Node2</title>
<g id="a_edge2_Node000002_Node000003"><a xlink:title=" ">
<path fill="none" stroke="#63b8ff" d="M89,-460.22C89,-448.43 89,-436.52 89,-424.68"/>
<polygon fill="none" stroke="#63b8ff" points="89,-424.77 85,-418.77 89,-412.77 93,-418.77 89,-424.77"/>
</a>
</g>
<text text-anchor="middle" x="102.12" y="-432.5" font-family="Helvetica,sans-Serif" font-size="10.00" fill="grey"> #lista</text>
</g>
</g>
</svg>

<g id="navigator" transform="translate(0 0)" fill="#404254">
  <rect fill="#f2f5e9" fill-opacity="0.5" stroke="#606060" stroke-width=".5" x="0" y="0" width="60" height="60"/>
  <use id="zoomplus" xlink:href="#zoomPlus" x="17" y="9" onmousedown="handleZoom(evt,'in')"/>
  <use id="zoomminus" xlink:href="#zoomMin" x="42" y="9" onmousedown="handleZoom(evt,'out')"/>
  <use id="reset" xlink:href="#resetDef" x="30" y="36" onmousedown="handleReset()"/>
   <use id="arrowup" xlink:href="#arrowUp" x="0" y="0" onmousedown="handlePan(0,-1)"/>
  <use id="arrowright" xlink:href="#arrowRight" x="0" y="0" onmousedown="handlePan(1,0)"/>
  <use id="arrowdown" xlink:href="#arrowDown" x="0" y="0" onmousedown="handlePan(0,1)"/>
  <use id="arrowleft" xlink:href="#arrowLeft" x="0" y="0" onmousedown="handlePan(-1,0)"/>
</g>
<svg viewBox="0 0 15 15" width="100%" height="30px" preserveAspectRatio="xMaxYMin meet">
 <g id="arrow_out" transform="scale(0.3 0.3)">
  <a xlink:href="class_no_simples__coll__graph_org.svg" target="_base">
   <rect id="button" ry="5" rx="5" y="6" x="6" height="38" width="38"
        fill="#f2f5e9" fill-opacity="0.5" stroke="#606060" stroke-width="1.0"/>
   <path id="arrow"
     d="M 11.500037,31.436501 C 11.940474,20.09759 22.043105,11.32322 32.158766,21.979434 L 37.068811,17.246167 C 37.068811,17.246167 37.088388,32 37.088388,32 L 22.160133,31.978069 C 22.160133,31.978069 26.997745,27.140456 26.997745,27.140456 C 18.528582,18.264221 13.291696,25.230495 11.500037,31.436501 z"
     style="fill:#404040;"/>
  </a>
 </g>
</svg>

<style type='text/css'>
<![CDATA[
[data-mouse-over-selected='false'] { opacity: 0.7; }
[data-mouse-over-selected='true']  { opacity: 1.0; }
]]>
</style>
<script type="application/ecmascript"><![CDATA[
document.addEventListener('DOMContentLoaded', (event) => {
  highlightEdges();
  highlightAdjacentNodes();
});
]]></script>
</svg>
