<?xml version="1.0" encoding="UTF-8" standalone="no"?>
<!DOCTYPE svg PUBLIC "-//W3C//DTD SVG 1.1//EN"
 "http://www.w3.org/Graphics/SVG/1.1/DTD/svg11.dtd">
<!-- Generated by graphviz version 8.1.0 (20230707.0739)
 -->
<!-- Title: Graphical Class Hierarchy Pages: 1 -->
<svg width="177pt" height="66pt"
 viewBox="0.00 0.00 177.25 66.00" xmlns="http://www.w3.org/2000/svg" xmlns:xlink="http://www.w3.org/1999/xlink">
<g id="graph0" class="graph" transform="scale(1 1) rotate(0) translate(4 62)">
<title>Graphical Class Hierarchy</title>
<!-- Node0 -->
<g id="Node000000" class="node">
<title>Node0</title>
<g id="a_Node000000"><a xlink:href="d3/d3c/class_coluna.html" target="_top" xlink:title="Classe abstrata que representa uma coluna de um quadro de tarefas.">
<polygon fill="white" stroke="#666666" points="46,-39 0,-39 0,-19 46,-19 46,-39"/>
<text text-anchor="middle" x="23" y="-25.5" font-family="Helvetica,sans-Serif" font-size="10.00">Coluna</text>
</a>
</g>
</g>
<!-- Node1 -->
<g id="Node000001" class="node">
<title>Node1</title>
<g id="a_Node000001"><a xlink:href="d0/d4e/class_coluna_arquivo.html" target="_top" xlink:title="Classe que representa uma coluna de um quadro de tarefas do tipo &quot;Arquivo&quot;.">
<polygon fill="white" stroke="#666666" points="164.38,-58 86.88,-58 86.88,-38 164.38,-38 164.38,-58"/>
<text text-anchor="middle" x="125.62" y="-44.5" font-family="Helvetica,sans-Serif" font-size="10.00">ColunaArquivo</text>
</a>
</g>
</g>
<!-- Node0&#45;&gt;Node1 -->
<g id="edge1_Node000000_Node000001" class="edge">
<title>Node0&#45;&gt;Node1</title>
<g id="a_edge1_Node000000_Node000001"><a xlink:title=" ">
<path fill="none" stroke="#63b8ff" d="M56.92,-35.22C66.38,-37 76.79,-38.97 86.54,-40.81"/>
<polygon fill="#63b8ff" stroke="#63b8ff" points="57.81,-31.63 47.33,-33.22 56.51,-38.51 57.81,-31.63"/>
</a>
</g>
</g>
<!-- Node2 -->
<g id="Node000002" class="node">
<title>Node2</title>
<g id="a_Node000002"><a xlink:href="de/d1c/class_coluna_nomeada.html" target="_top" xlink:title="Classe que representa uma coluna nomeada de um quadro de tarefas.">
<polygon fill="white" stroke="#666666" points="169.25,-20 82,-20 82,0 169.25,0 169.25,-20"/>
<text text-anchor="middle" x="125.62" y="-6.5" font-family="Helvetica,sans-Serif" font-size="10.00">ColunaNomeada</text>
</a>
</g>
</g>
<!-- Node0&#45;&gt;Node2 -->
<g id="edge2_Node000000_Node000002" class="edge">
<title>Node0&#45;&gt;Node2</title>
<g id="a_edge2_Node000000_Node000002"><a xlink:title=" ">
<path fill="none" stroke="#63b8ff" d="M56.97,-22.77C64.87,-21.28 73.43,-19.67 81.7,-18.1"/>
<polygon fill="#63b8ff" stroke="#63b8ff" points="56.51,-19.49 47.33,-24.78 57.81,-26.37 56.51,-19.49"/>
</a>
</g>
</g>
</g>
</svg>
