<?xml version="1.0" encoding="UTF-8" standalone="no"?>
<!DOCTYPE svg PUBLIC "-//W3C//DTD SVG 1.1//EN"
 "http://www.w3.org/Graphics/SVG/1.1/DTD/svg11.dtd">
<!-- Generated by graphviz version 8.1.0 (20230707.0739)
 -->
<!-- Title: ColunaArquivo::removerTarefa Pages: 1 -->
<!--zoomable 237 -->

<svg id="main" version="1.1" xmlns="http://www.w3.org/2000/svg" xmlns:xlink="http://www.w3.org/1999/xlink" xml:space="preserve" onload="init(evt)">
<style type="text/css"><![CDATA[
.node, .edge {opacity: 0.7;}
.node.selected, .edge.selected {opacity: 1;}
.edge:hover path { stroke: red; }
.edge:hover polygon { stroke: red; fill: red; }
]]></style>

<defs>
  <circle id="rim" cx="0" cy="0" r="7"/>
  <circle id="rim2" cx="0" cy="0" r="3.5"/>
  <g id="zoomPlus">
    <use xlink:href="#rim" fill="#404040"><set attributeName="fill" to="#808080" begin="zoomplus.mouseover" end="zoomplus.mouseout"/></use>
    <path d="M-4,0h8M0,-4v8" fill="none" stroke="white" stroke-width="1.5" pointer-events="none"/>
  </g>
  <g id="zoomMin">
    <use xlink:href="#rim" fill="#404040"><set attributeName="fill" to="#808080" begin="zoomminus.mouseover" end="zoomminus.mouseout"/></use>
    <path d="M-4,0h8" fill="none" stroke="white" stroke-width="1.5" pointer-events="none"/>
  </g>
  <g id="arrowUp" transform="translate(30 24)">
    <use xlink:href="#rim"/>
    <path pointer-events="none" fill="none" stroke="white" stroke-width="1.5" d="M0,-3.0v7 M-2.5,-0.5L0,-3.0L2.5,-0.5"/>
  </g>
  <g id="arrowRight" transform="rotate(90) translate(36 -43)">
    <use xlink:href="#rim"/>
    <path pointer-events="none" fill="none" stroke="white" stroke-width="1.5" d="M0,-3.0v7 M-2.5,-0.5L0,-3.0L2.5,-0.5"/>
  </g>
  <g id="arrowDown" transform="rotate(180) translate(-30 -48)">
    <use xlink:href="#rim"/>
    <path pointer-events="none" fill="none" stroke="white" stroke-width="1.5" d="M0,-3.0v7 M-2.5,-0.5L0,-3.0L2.5,-0.5"/>
  </g>
  <g id="arrowLeft" transform="rotate(270) translate(-36 17)">
    <use xlink:href="#rim"/>
    <path pointer-events="none" fill="none" stroke="white" stroke-width="1.5" d="M0,-3.0v7 M-2.5,-0.5L0,-3.0L2.5,-0.5"/>
  </g>
  <g id="resetDef">
    <use xlink:href="#rim2" fill="#404040"><set attributeName="fill" to="#808080" begin="reset.mouseover" end="reset.mouseout"/></use>
  </g>
</defs>
<script type="application/ecmascript">
var viewWidth = 615;
var viewHeight = 237;
var sectionId = 'dynsection-8';
</script>
<script type="application/ecmascript" xlink:href="../../svg.min.js"/>
<svg id="graph" class="graph">
<g id="viewport">
<title>ColunaArquivo::removerTarefa</title>
<!-- Node1 -->
<g id="Node000001" class="node">
<title>Node1</title>
<g id="a_Node000001"><a xlink:title="Remove uma tarefa da coluna.">
<polygon fill="#999999" stroke="#666666" points="143.5,-134 0,-134 0,-114 143.5,-114 143.5,-134"/>
<text text-anchor="middle" x="71.75" y="-120.5" font-family="Helvetica,sans-Serif" font-size="10.00">ColunaArquivo::removerTarefa</text>
</a>
</g>
</g>
<!-- Node2 -->
<g id="Node000002" class="node">
<title>Node2</title>
<g id="a_Node000002"><a xlink:href="../../dd/d91/class_lista_dupla.html#ab976735e9038a9bd590a764b2a832e45" target="_top" xlink:title="Remove a tarefa da lista pelo índice.">
<polygon fill="white" stroke="#666666" points="321.5,-134 179.5,-134 179.5,-114 321.5,-114 321.5,-134"/>
<text text-anchor="middle" x="250.5" y="-120.5" font-family="Helvetica,sans-Serif" font-size="10.00">ListaDupla::removerPorIndice</text>
</a>
</g>
</g>
<!-- Node1&#45;&gt;Node2 -->
<g id="edge1_Node000001_Node000002" class="edge">
<title>Node1&#45;&gt;Node2</title>
<g id="a_edge1_Node000001_Node000002"><a xlink:title=" ">
<path fill="none" stroke="#63b8ff" d="M143.88,-124C151.86,-124 160.03,-124 168.13,-124"/>
<polygon fill="#63b8ff" stroke="#63b8ff" points="168.09,-127.5 178.09,-124 168.09,-120.5 168.09,-127.5"/>
</a>
</g>
</g>
<!-- Node3 -->
<g id="Node000003" class="node">
<title>Node3</title>
<g id="a_Node000003"><a xlink:href="../../d9/d55/class_no.html#a18866d7db046e7987120e93bf1a839d3" target="_top" xlink:title="Obtém o nó anterior.">
<polygon fill="white" stroke="#666666" points="602.88,-229 521.62,-229 521.62,-209 602.88,-209 602.88,-229"/>
<text text-anchor="middle" x="562.25" y="-215.5" font-family="Helvetica,sans-Serif" font-size="10.00">No::getAnterior</text>
</a>
</g>
</g>
<!-- Node2&#45;&gt;Node3 -->
<g id="edge2_Node000002_Node000003" class="edge">
<title>Node2&#45;&gt;Node3</title>
<g id="a_edge2_Node000002_Node000003"><a xlink:title=" ">
<path fill="none" stroke="#63b8ff" d="M269.29,-134.44C289.89,-146.11 325.14,-164.84 357.5,-176 408.33,-193.52 468.86,-205.2 510.67,-211.91"/>
<polygon fill="#63b8ff" stroke="#63b8ff" points="509.99,-215.5 520.41,-213.59 511.07,-208.58 509.99,-215.5"/>
</a>
</g>
</g>
<!-- Node4 -->
<g id="Node000004" class="node">
<title>Node4</title>
<g id="a_Node000004"><a xlink:href="../../d9/d55/class_no.html#a42bd9dc9c7b24743c82e89b42a1581a2" target="_top" xlink:title="Obtém o próximo nó.">
<polygon fill="white" stroke="#666666" points="604,-20 520.5,-20 520.5,0 604,0 604,-20"/>
<text text-anchor="middle" x="562.25" y="-6.5" font-family="Helvetica,sans-Serif" font-size="10.00">No::getProximo</text>
</a>
</g>
</g>
<!-- Node2&#45;&gt;Node4 -->
<g id="edge3_Node000002_Node000004" class="edge">
<title>Node2&#45;&gt;Node4</title>
<g id="a_edge3_Node000002_Node000004"><a xlink:title=" ">
<path fill="none" stroke="#63b8ff" d="M261.53,-113.69C279.18,-96.24 317.68,-61.12 357.5,-44 406.35,-23.01 466.95,-14.93 509.31,-11.84"/>
<polygon fill="#63b8ff" stroke="#63b8ff" points="509.46,-15.27 519.21,-11.13 509,-8.29 509.46,-15.27"/>
</a>
</g>
</g>
<!-- Node5 -->
<g id="Node000005" class="node">
<title>Node5</title>
<g id="a_Node000005"><a xlink:href="../../d9/d55/class_no.html#a3e8d735fc07c24ecaee4e283ac9a1f36" target="_top" xlink:title="Obtém a tarefa armazenada no nó.">
<polygon fill="white" stroke="#666666" points="599.12,-172 525.38,-172 525.38,-152 599.12,-152 599.12,-172"/>
<text text-anchor="middle" x="562.25" y="-158.5" font-family="Helvetica,sans-Serif" font-size="10.00">No::getTarefa</text>
</a>
</g>
</g>
<!-- Node2&#45;&gt;Node5 -->
<g id="edge4_Node000002_Node000005" class="edge">
<title>Node2&#45;&gt;Node5</title>
<g id="a_edge4_Node000002_Node000005"><a xlink:title=" ">
<path fill="none" stroke="#63b8ff" d="M275.8,-134.38C296.95,-142.84 328.64,-154.14 357.5,-159 410.55,-167.93 472.46,-167.31 513.99,-165.34"/>
<polygon fill="#63b8ff" stroke="#63b8ff" points="514.08,-168.78 523.88,-164.76 513.71,-161.79 514.08,-168.78"/>
</a>
</g>
</g>
<!-- Node6 -->
<g id="Node000006" class="node">
<title>Node6</title>
<g id="a_Node000006"><a xlink:href="../../dd/d91/class_lista_dupla.html#a0ec55e77494913e1041f772fb5abf176" target="_top" xlink:title="Remove a tarefa do fim da lista.">
<polygon fill="white" stroke="#666666" points="478.5,-134 360.5,-134 360.5,-114 478.5,-114 478.5,-134"/>
<text text-anchor="middle" x="419.5" y="-120.5" font-family="Helvetica,sans-Serif" font-size="10.00">ListaDupla::removerFim</text>
</a>
</g>
</g>
<!-- Node2&#45;&gt;Node6 -->
<g id="edge5_Node000002_Node000006" class="edge">
<title>Node2&#45;&gt;Node6</title>
<g id="a_edge5_Node000002_Node000006"><a xlink:title=" ">
<path fill="none" stroke="#63b8ff" d="M321.84,-124C330.9,-124 340.18,-124 349.22,-124"/>
<polygon fill="#63b8ff" stroke="#63b8ff" points="349.11,-127.5 359.11,-124 349.11,-120.5 349.11,-127.5"/>
</a>
</g>
</g>
<!-- Node7 -->
<g id="Node000007" class="node">
<title>Node7</title>
<g id="a_Node000007"><a xlink:href="../../d9/d55/class_no.html#a337f5ed0c85f3ac6646fd8295f2017a7" target="_top" xlink:title="Define o nó anterior.">
<polygon fill="white" stroke="#666666" points="602.88,-134 521.62,-134 521.62,-114 602.88,-114 602.88,-134"/>
<text text-anchor="middle" x="562.25" y="-120.5" font-family="Helvetica,sans-Serif" font-size="10.00">No::setAnterior</text>
</a>
</g>
</g>
<!-- Node2&#45;&gt;Node7 -->
<g id="edge17_Node000002_Node000007" class="edge">
<title>Node2&#45;&gt;Node7</title>
<g id="a_edge17_Node000002_Node000007"><a xlink:title=" ">
<path fill="none" stroke="#63b8ff" d="M299.54,-134.47C317.62,-137.92 338.41,-141.3 357.5,-143 412.39,-147.88 426.77,-149.43 481.5,-143 492.42,-141.72 504.01,-139.48 514.87,-136.98"/>
<polygon fill="#63b8ff" stroke="#63b8ff" points="515.55,-140.17 524.44,-134.41 513.9,-133.37 515.55,-140.17"/>
</a>
</g>
</g>
<!-- Node8 -->
<g id="Node000008" class="node">
<title>Node8</title>
<g id="a_Node000008"><a xlink:href="../../d9/d55/class_no.html#a1fd6922d7a6b246aa11251effaceeb7b" target="_top" xlink:title="Define o próximo nó.">
<polygon fill="white" stroke="#666666" points="604,-58 520.5,-58 520.5,-38 604,-38 604,-58"/>
<text text-anchor="middle" x="562.25" y="-44.5" font-family="Helvetica,sans-Serif" font-size="10.00">No::setProximo</text>
</a>
</g>
</g>
<!-- Node2&#45;&gt;Node8 -->
<g id="edge18_Node000002_Node000008" class="edge">
<title>Node2&#45;&gt;Node8</title>
<g id="a_edge18_Node000002_Node000008"><a xlink:title=" ">
<path fill="none" stroke="#63b8ff" d="M266.11,-113.67C285.81,-100.32 322.49,-77.57 357.5,-67 407.61,-51.87 467.53,-47.86 509.37,-47.19"/>
<polygon fill="#63b8ff" stroke="#63b8ff" points="509.17,-50.68 519.13,-47.08 509.1,-43.68 509.17,-50.68"/>
</a>
</g>
</g>
<!-- Node10 -->
<g id="Node000010" class="node">
<title>Node10</title>
<g id="a_Node000010"><a xlink:href="../../dd/d91/class_lista_dupla.html#a6c0c785cb9c4a4a2fbe25beb370bd102" target="_top" xlink:title="Remove a tarefa do início da lista.">
<polygon fill="white" stroke="#666666" points="481.5,-96 357.5,-96 357.5,-76 481.5,-76 481.5,-96"/>
<text text-anchor="middle" x="419.5" y="-82.5" font-family="Helvetica,sans-Serif" font-size="10.00">ListaDupla::removerInicio</text>
</a>
</g>
</g>
<!-- Node2&#45;&gt;Node10 -->
<g id="edge11_Node000002_Node000010" class="edge">
<title>Node2&#45;&gt;Node10</title>
<g id="a_edge11_Node000002_Node000010"><a xlink:title=" ">
<path fill="none" stroke="#63b8ff" d="M297.58,-113.52C317.47,-108.99 340.94,-103.65 361.89,-98.88"/>
<polygon fill="#63b8ff" stroke="#63b8ff" points="362.6,-102.08 371.57,-96.45 361.05,-95.26 362.6,-102.08"/>
</a>
</g>
</g>
<!-- Node6&#45;&gt;Node3 -->
<g id="edge6_Node000006_Node000003" class="edge">
<title>Node6&#45;&gt;Node3</title>
<g id="a_edge6_Node000006_Node000003"><a xlink:title=" ">
<path fill="none" stroke="#63b8ff" d="M435.83,-134.35C460.16,-150.77 507.81,-182.93 536.86,-202.54"/>
<polygon fill="#63b8ff" stroke="#63b8ff" points="534.69,-205.97 544.94,-208.67 538.61,-200.17 534.69,-205.97"/>
</a>
</g>
</g>
<!-- Node6&#45;&gt;Node5 -->
<g id="edge7_Node000006_Node000005" class="edge">
<title>Node6&#45;&gt;Node5</title>
<g id="a_edge7_Node000006_Node000005"><a xlink:title=" ">
<path fill="none" stroke="#63b8ff" d="M459.33,-134.48C476.39,-139.09 496.57,-144.54 514.46,-149.37"/>
<polygon fill="#63b8ff" stroke="#63b8ff" points="513.39,-152.97 523.96,-152.2 515.22,-146.22 513.39,-152.97"/>
</a>
</g>
</g>
<!-- Node6&#45;&gt;Node7 -->
<g id="edge8_Node000006_Node000007" class="edge">
<title>Node6&#45;&gt;Node7</title>
<g id="a_edge8_Node000006_Node000007"><a xlink:title=" ">
<path fill="none" stroke="#63b8ff" d="M478.97,-124C489.4,-124 500.18,-124 510.38,-124"/>
<polygon fill="#63b8ff" stroke="#63b8ff" points="510.16,-127.5 520.16,-124 510.16,-120.5 510.16,-127.5"/>
</a>
</g>
</g>
<!-- Node6&#45;&gt;Node8 -->
<g id="edge9_Node000006_Node000008" class="edge">
<title>Node6&#45;&gt;Node8</title>
<g id="a_edge9_Node000006_Node000008"><a xlink:title=" ">
<path fill="none" stroke="#63b8ff" d="M463.73,-113.59C469.92,-111.24 476.04,-108.4 481.5,-105 501.25,-92.7 498.45,-80.35 517.5,-67 519.23,-65.79 521.05,-64.63 522.92,-63.53"/>
<polygon fill="#63b8ff" stroke="#63b8ff" points="524.35,-66.21 531.58,-58.46 521.1,-60 524.35,-66.21"/>
</a>
</g>
</g>
<!-- Node9 -->
<g id="Node000009" class="node">
<title>Node9</title>
<g id="a_Node000009"><a xlink:href="../../dd/d91/class_lista_dupla.html#a66888490f518d19c2d5cb3d3a053b816" target="_top" xlink:title="Verifica se a lista está vazia.">
<polygon fill="white" stroke="#666666" points="607,-96 517.5,-96 517.5,-76 607,-76 607,-96"/>
<text text-anchor="middle" x="562.25" y="-82.5" font-family="Helvetica,sans-Serif" font-size="10.00">ListaDupla::vazia</text>
</a>
</g>
</g>
<!-- Node6&#45;&gt;Node9 -->
<g id="edge10_Node000006_Node000009" class="edge">
<title>Node6&#45;&gt;Node9</title>
<g id="a_edge10_Node000006_Node000009"><a xlink:title=" ">
<path fill="none" stroke="#63b8ff" d="M459.33,-113.52C475.64,-109.11 494.8,-103.94 512.07,-99.28"/>
<polygon fill="#63b8ff" stroke="#63b8ff" points="512.8,-102.44 521.54,-96.45 510.98,-95.68 512.8,-102.44"/>
</a>
</g>
</g>
<!-- Node10&#45;&gt;Node4 -->
<g id="edge12_Node000010_Node000004" class="edge">
<title>Node10&#45;&gt;Node4</title>
<g id="a_edge12_Node000010_Node000004"><a xlink:title=" ">
<path fill="none" stroke="#63b8ff" d="M436.64,-75.7C455.62,-63.77 488.25,-43.88 517.5,-29 520.27,-27.59 523.16,-26.19 526.09,-24.82"/>
<polygon fill="#63b8ff" stroke="#63b8ff" points="527.35,-27.64 535.02,-20.33 524.47,-21.26 527.35,-27.64"/>
</a>
</g>
</g>
<!-- Node10&#45;&gt;Node5 -->
<g id="edge13_Node000010_Node000005" class="edge">
<title>Node10&#45;&gt;Node5</title>
<g id="a_edge13_Node000010_Node000005"><a xlink:title=" ">
<path fill="none" stroke="#63b8ff" d="M463.73,-96.41C469.92,-98.76 476.04,-101.6 481.5,-105 501.25,-117.3 498.45,-129.65 517.5,-143 519.23,-144.21 521.05,-145.37 522.92,-146.47"/>
<polygon fill="#63b8ff" stroke="#63b8ff" points="521.1,-150 531.58,-151.54 524.35,-143.79 521.1,-150"/>
</a>
</g>
</g>
<!-- Node10&#45;&gt;Node7 -->
<g id="edge14_Node000010_Node000007" class="edge">
<title>Node10&#45;&gt;Node7</title>
<g id="a_edge14_Node000010_Node000007"><a xlink:title=" ">
<path fill="none" stroke="#63b8ff" d="M459.33,-96.48C475.64,-100.89 494.8,-106.06 512.07,-110.72"/>
<polygon fill="#63b8ff" stroke="#63b8ff" points="510.98,-114.32 521.54,-113.55 512.8,-107.56 510.98,-114.32"/>
</a>
</g>
</g>
<!-- Node10&#45;&gt;Node8 -->
<g id="edge15_Node000010_Node000008" class="edge">
<title>Node10&#45;&gt;Node8</title>
<g id="a_edge15_Node000010_Node000008"><a xlink:title=" ">
<path fill="none" stroke="#63b8ff" d="M459.33,-75.52C475.64,-71.11 494.8,-65.94 512.07,-61.28"/>
<polygon fill="#63b8ff" stroke="#63b8ff" points="512.8,-64.44 521.54,-58.45 510.98,-57.68 512.8,-64.44"/>
</a>
</g>
</g>
<!-- Node10&#45;&gt;Node9 -->
<g id="edge16_Node000010_Node000009" class="edge">
<title>Node10&#45;&gt;Node9</title>
<g id="a_edge16_Node000010_Node000009"><a xlink:title=" ">
<path fill="none" stroke="#63b8ff" d="M481.83,-86C489.97,-86 498.29,-86 506.32,-86"/>
<polygon fill="#63b8ff" stroke="#63b8ff" points="506.05,-89.5 516.05,-86 506.05,-82.5 506.05,-89.5"/>
</a>
</g>
</g>
</g>
</svg>

<g id="navigator" transform="translate(0 0)" fill="#404254">
  <rect fill="#f2f5e9" fill-opacity="0.5" stroke="#606060" stroke-width=".5" x="0" y="0" width="60" height="60"/>
  <use id="zoomplus" xlink:href="#zoomPlus" x="17" y="9" onmousedown="handleZoom(evt,'in')"/>
  <use id="zoomminus" xlink:href="#zoomMin" x="42" y="9" onmousedown="handleZoom(evt,'out')"/>
  <use id="reset" xlink:href="#resetDef" x="30" y="36" onmousedown="handleReset()"/>
   <use id="arrowup" xlink:href="#arrowUp" x="0" y="0" onmousedown="handlePan(0,-1)"/>
  <use id="arrowright" xlink:href="#arrowRight" x="0" y="0" onmousedown="handlePan(1,0)"/>
  <use id="arrowdown" xlink:href="#arrowDown" x="0" y="0" onmousedown="handlePan(0,1)"/>
  <use id="arrowleft" xlink:href="#arrowLeft" x="0" y="0" onmousedown="handlePan(-1,0)"/>
</g>
<svg viewBox="0 0 15 15" width="100%" height="30px" preserveAspectRatio="xMaxYMin meet">
 <g id="arrow_out" transform="scale(0.3 0.3)">
  <a xlink:href="class_coluna_arquivo_aae317988e21d9072edf5de1543085f14_cgraph_org.svg" target="_base">
   <rect id="button" ry="5" rx="5" y="6" x="6" height="38" width="38"
        fill="#f2f5e9" fill-opacity="0.5" stroke="#606060" stroke-width="1.0"/>
   <path id="arrow"
     d="M 11.500037,31.436501 C 11.940474,20.09759 22.043105,11.32322 32.158766,21.979434 L 37.068811,17.246167 C 37.068811,17.246167 37.088388,32 37.088388,32 L 22.160133,31.978069 C 22.160133,31.978069 26.997745,27.140456 26.997745,27.140456 C 18.528582,18.264221 13.291696,25.230495 11.500037,31.436501 z"
     style="fill:#404040;"/>
  </a>
 </g>
</svg>

<style type='text/css'>
<![CDATA[
[data-mouse-over-selected='false'] { opacity: 0.7; }
[data-mouse-over-selected='true']  { opacity: 1.0; }
]]>
</style>
<script type="application/ecmascript"><![CDATA[
document.addEventListener('DOMContentLoaded', (event) => {
  highlightEdges();
  highlightAdjacentNodes();
});
]]></script>
</svg>
