<?xml version="1.0" encoding="UTF-8" standalone="no"?>
<!DOCTYPE svg PUBLIC "-//W3C//DTD SVG 1.1//EN"
 "http://www.w3.org/Graphics/SVG/1.1/DTD/svg11.dtd">
<!-- Generated by graphviz version 8.1.0 (20230707.0739)
 -->
<!-- Title: ColunaArquivo::moverTarefa Pages: 1 -->
<svg width="429pt" height="180pt"
 viewBox="0.00 0.00 428.75 180.00" xmlns="http://www.w3.org/2000/svg" xmlns:xlink="http://www.w3.org/1999/xlink">

<svg id="main" version="1.1" xmlns="http://www.w3.org/2000/svg" xmlns:xlink="http://www.w3.org/1999/xlink" xml:space="preserve" onload="init(evt)">
<style type="text/css"><![CDATA[
.node, .edge {opacity: 0.7;}
.node.selected, .edge.selected {opacity: 1;}
.edge:hover path { stroke: red; }
.edge:hover polygon { stroke: red; fill: red; }
]]></style>
<script type="application/ecmascript" xlink:href="../../svg.min.js"/>
<svg id="graph" class="graph">
<g id="graph0" class="graph" transform="scale(1 1) rotate(0) translate(4 176)">
<title>ColunaArquivo::moverTarefa</title>
<!-- Node1 -->
<g id="Node000001" class="node">
<title>Node1</title>
<g id="a_Node000001"><a xlink:title="Move uma tarefa de uma coluna para outra.">
<polygon fill="#999999" stroke="#666666" points="135.25,-96 0,-96 0,-76 135.25,-76 135.25,-96"/>
<text text-anchor="middle" x="67.62" y="-82.5" font-family="Helvetica,sans-Serif" font-size="10.00">ColunaArquivo::moverTarefa</text>
</a>
</g>
</g>
<!-- Node2 -->
<g id="Node000002" class="node">
<title>Node2</title>
<g id="a_Node000002"><a xlink:href="../../d3/d3c/class_coluna.html#ac09fa33160badb14b7e4a095f15fb551" target="_top" xlink:title="Insere uma tarefa na coluna.">
<polygon fill="white" stroke="#666666" points="288.5,-134 184,-134 184,-114 288.5,-114 288.5,-134"/>
<text text-anchor="middle" x="236.25" y="-120.5" font-family="Helvetica,sans-Serif" font-size="10.00">Coluna::inserirTarefa</text>
</a>
</g>
</g>
<!-- Node1&#45;&gt;Node2 -->
<g id="edge1_Node000001_Node000002" class="edge">
<title>Node1&#45;&gt;Node2</title>
<g id="a_edge1_Node000001_Node000002"><a xlink:title=" ">
<path fill="none" stroke="#63b8ff" d="M114.6,-96.48C134.45,-101.01 157.87,-106.35 178.76,-111.12"/>
<polygon fill="#63b8ff" stroke="#63b8ff" points="177.9,-114.74 188.43,-113.55 179.46,-107.91 177.9,-114.74"/>
</a>
</g>
</g>
<!-- Node3 -->
<g id="Node000003" class="node">
<title>Node3</title>
<g id="a_Node000003"><a xlink:href="../../dd/d91/class_lista_dupla.html#a924380dcc218b78c4de0e0accc80e012" target="_top" xlink:title="Remove a tarefa da lista, mas mantém o nó na lista sem referência à tarefa.">
<polygon fill="white" stroke="#666666" points="293,-96 179.5,-96 179.5,-76 293,-76 293,-96"/>
<text text-anchor="middle" x="236.25" y="-82.5" font-family="Helvetica,sans-Serif" font-size="10.00">ListaDupla::lightDelete</text>
</a>
</g>
</g>
<!-- Node1&#45;&gt;Node3 -->
<g id="edge2_Node000001_Node000003" class="edge">
<title>Node1&#45;&gt;Node3</title>
<g id="a_edge2_Node000001_Node000003"><a xlink:title=" ">
<path fill="none" stroke="#63b8ff" d="M135.44,-86C146.3,-86 157.56,-86 168.42,-86"/>
<polygon fill="#63b8ff" stroke="#63b8ff" points="168.13,-89.5 178.13,-86 168.13,-82.5 168.13,-89.5"/>
</a>
</g>
</g>
<!-- Node8 -->
<g id="Node000008" class="node">
<title>Node8</title>
<g id="a_Node000008"><a xlink:href="../../dd/d91/class_lista_dupla.html#a837ec6a1d28dbddd64b2028372f846c3" target="_top" xlink:title="Obtém a tarefa da lista pelo índice.">
<polygon fill="white" stroke="#666666" points="301.25,-58 171.25,-58 171.25,-38 301.25,-38 301.25,-58"/>
<text text-anchor="middle" x="236.25" y="-44.5" font-family="Helvetica,sans-Serif" font-size="10.00">ListaDupla::obterPorIndice</text>
</a>
</g>
</g>
<!-- Node1&#45;&gt;Node8 -->
<g id="edge7_Node000001_Node000008" class="edge">
<title>Node1&#45;&gt;Node8</title>
<g id="a_edge7_Node000001_Node000008"><a xlink:title=" ">
<path fill="none" stroke="#63b8ff" d="M114.6,-75.52C134.45,-70.99 157.87,-65.65 178.76,-60.88"/>
<polygon fill="#63b8ff" stroke="#63b8ff" points="179.46,-64.09 188.43,-58.45 177.9,-57.26 179.46,-64.09"/>
</a>
</g>
</g>
<!-- Node4 -->
<g id="Node000004" class="node">
<title>Node4</title>
<g id="a_Node000004"><a xlink:href="../../d9/d55/class_no.html#a18866d7db046e7987120e93bf1a839d3" target="_top" xlink:title="Obtém o nó anterior.">
<polygon fill="white" stroke="#666666" points="419.62,-172 338.38,-172 338.38,-152 419.62,-152 419.62,-172"/>
<text text-anchor="middle" x="379" y="-158.5" font-family="Helvetica,sans-Serif" font-size="10.00">No::getAnterior</text>
</a>
</g>
</g>
<!-- Node3&#45;&gt;Node4 -->
<g id="edge3_Node000003_Node000004" class="edge">
<title>Node3&#45;&gt;Node4</title>
<g id="a_edge3_Node000003_Node000004"><a xlink:title=" ">
<path fill="none" stroke="#63b8ff" d="M283.27,-96.45C289.54,-98.79 295.72,-101.6 301.25,-105 321.08,-117.17 318.37,-129.4 337.25,-143 338.91,-144.2 340.66,-145.35 342.46,-146.45"/>
<polygon fill="#63b8ff" stroke="#63b8ff" points="340.29,-149.8 350.75,-151.54 343.66,-143.67 340.29,-149.8"/>
</a>
</g>
</g>
<!-- Node5 -->
<g id="Node000005" class="node">
<title>Node5</title>
<g id="a_Node000005"><a xlink:href="../../d9/d55/class_no.html#a42bd9dc9c7b24743c82e89b42a1581a2" target="_top" xlink:title="Obtém o próximo nó.">
<polygon fill="white" stroke="#666666" points="420.75,-58 337.25,-58 337.25,-38 420.75,-38 420.75,-58"/>
<text text-anchor="middle" x="379" y="-44.5" font-family="Helvetica,sans-Serif" font-size="10.00">No::getProximo</text>
</a>
</g>
</g>
<!-- Node3&#45;&gt;Node5 -->
<g id="edge4_Node000003_Node000005" class="edge">
<title>Node3&#45;&gt;Node5</title>
<g id="a_edge4_Node000003_Node000005"><a xlink:title=" ">
<path fill="none" stroke="#63b8ff" d="M276.08,-75.52C292.39,-71.11 311.55,-65.94 328.82,-61.28"/>
<polygon fill="#63b8ff" stroke="#63b8ff" points="329.55,-64.44 338.29,-58.45 327.73,-57.68 329.55,-64.44"/>
</a>
</g>
</g>
<!-- Node6 -->
<g id="Node000006" class="node">
<title>Node6</title>
<g id="a_Node000006"><a xlink:href="../../d9/d55/class_no.html#a337f5ed0c85f3ac6646fd8295f2017a7" target="_top" xlink:title="Define o nó anterior.">
<polygon fill="white" stroke="#666666" points="419.62,-134 338.38,-134 338.38,-114 419.62,-114 419.62,-134"/>
<text text-anchor="middle" x="379" y="-120.5" font-family="Helvetica,sans-Serif" font-size="10.00">No::setAnterior</text>
</a>
</g>
</g>
<!-- Node3&#45;&gt;Node6 -->
<g id="edge5_Node000003_Node000006" class="edge">
<title>Node3&#45;&gt;Node6</title>
<g id="a_edge5_Node000003_Node000006"><a xlink:title=" ">
<path fill="none" stroke="#63b8ff" d="M276.08,-96.48C292.39,-100.89 311.55,-106.06 328.82,-110.72"/>
<polygon fill="#63b8ff" stroke="#63b8ff" points="327.73,-114.32 338.29,-113.55 329.55,-107.56 327.73,-114.32"/>
</a>
</g>
</g>
<!-- Node7 -->
<g id="Node000007" class="node">
<title>Node7</title>
<g id="a_Node000007"><a xlink:href="../../d9/d55/class_no.html#a1fd6922d7a6b246aa11251effaceeb7b" target="_top" xlink:title="Define o próximo nó.">
<polygon fill="white" stroke="#666666" points="420.75,-96 337.25,-96 337.25,-76 420.75,-76 420.75,-96"/>
<text text-anchor="middle" x="379" y="-82.5" font-family="Helvetica,sans-Serif" font-size="10.00">No::setProximo</text>
</a>
</g>
</g>
<!-- Node3&#45;&gt;Node7 -->
<g id="edge6_Node000003_Node000007" class="edge">
<title>Node3&#45;&gt;Node7</title>
<g id="a_edge6_Node000003_Node000007"><a xlink:title=" ">
<path fill="none" stroke="#63b8ff" d="M293.28,-86C304.09,-86 315.38,-86 326.05,-86"/>
<polygon fill="#63b8ff" stroke="#63b8ff" points="325.91,-89.5 335.91,-86 325.91,-82.5 325.91,-89.5"/>
</a>
</g>
</g>
<!-- Node8&#45;&gt;Node5 -->
<g id="edge8_Node000008_Node000005" class="edge">
<title>Node8&#45;&gt;Node5</title>
<g id="a_edge8_Node000008_Node000005"><a xlink:title=" ">
<path fill="none" stroke="#63b8ff" d="M301.45,-48C309.63,-48 317.92,-48 325.88,-48"/>
<polygon fill="#63b8ff" stroke="#63b8ff" points="325.86,-51.5 335.86,-48 325.86,-44.5 325.86,-51.5"/>
</a>
</g>
</g>
<!-- Node9 -->
<g id="Node000009" class="node">
<title>Node9</title>
<g id="a_Node000009"><a xlink:href="../../d9/d55/class_no.html#a3e8d735fc07c24ecaee4e283ac9a1f36" target="_top" xlink:title="Obtém a tarefa armazenada no nó.">
<polygon fill="white" stroke="#666666" points="415.88,-20 342.12,-20 342.12,0 415.88,0 415.88,-20"/>
<text text-anchor="middle" x="379" y="-6.5" font-family="Helvetica,sans-Serif" font-size="10.00">No::getTarefa</text>
</a>
</g>
</g>
<!-- Node8&#45;&gt;Node9 -->
<g id="edge9_Node000008_Node000009" class="edge">
<title>Node8&#45;&gt;Node9</title>
<g id="a_edge9_Node000008_Node000009"><a xlink:title=" ">
<path fill="none" stroke="#63b8ff" d="M276.08,-37.52C293.14,-32.91 313.32,-27.46 331.21,-22.63"/>
<polygon fill="#63b8ff" stroke="#63b8ff" points="331.97,-25.78 340.71,-19.8 330.14,-19.03 331.97,-25.78"/>
</a>
</g>
</g>
</g>
</svg>
</svg>

<style type='text/css'>
<![CDATA[
[data-mouse-over-selected='false'] { opacity: 0.7; }
[data-mouse-over-selected='true']  { opacity: 1.0; }
]]>
</style>
<script type="application/ecmascript"><![CDATA[
document.addEventListener('DOMContentLoaded', (event) => {
  highlightEdges();
  highlightAdjacentNodes();
});
]]></script>
</svg>
