<?xml version="1.0" encoding="UTF-8" standalone="no"?>
<!DOCTYPE svg PUBLIC "-//W3C//DTD SVG 1.1//EN"
 "http://www.w3.org/Graphics/SVG/1.1/DTD/svg11.dtd">
<!-- Generated by graphviz version 8.1.0 (20230707.0739)
 -->
<!-- Title: ColunaArquivo::ordenar Pages: 1 -->
<svg width="460pt" height="218pt"
 viewBox="0.00 0.00 459.50 218.00" xmlns="http://www.w3.org/2000/svg" xmlns:xlink="http://www.w3.org/1999/xlink">
<g id="graph0" class="graph" transform="scale(1 1) rotate(0) translate(4 214)">
<title>ColunaArquivo::ordenar</title>
<!-- Node1 -->
<g id="Node000001" class="node">
<title>Node1</title>
<g id="a_Node000001"><a xlink:title="Ordena as tarefas da coluna por prioridade.">
<polygon fill="#999999" stroke="#666666" points="115.75,-115 0,-115 0,-95 115.75,-95 115.75,-115"/>
<text text-anchor="middle" x="57.88" y="-101.5" font-family="Helvetica,sans-Serif" font-size="10.00">ColunaArquivo::ordenar</text>
</a>
</g>
</g>
<!-- Node2 -->
<g id="Node000002" class="node">
<title>Node2</title>
<g id="a_Node000002"><a xlink:href="../../dd/d91/class_lista_dupla.html#a0da08b292785498fc7bb358a84bed282" target="_top" xlink:title="Ordena a lista de tarefas por prioridade.">
<polygon fill="white" stroke="#666666" points="310.25,-115 151.75,-115 151.75,-95 310.25,-95 310.25,-115"/>
<text text-anchor="middle" x="231" y="-101.5" font-family="Helvetica,sans-Serif" font-size="10.00">ListaDupla::ordenarPorPrioridade</text>
</a>
</g>
</g>
<!-- Node1&#45;&gt;Node2 -->
<g id="edge1_Node000001_Node000002" class="edge">
<title>Node1&#45;&gt;Node2</title>
<g id="a_edge1_Node000001_Node000002"><a xlink:title=" ">
<path fill="none" stroke="#63b8ff" d="M115.86,-105C123.77,-105 132.04,-105 140.37,-105"/>
<polygon fill="#63b8ff" stroke="#63b8ff" points="140.33,-108.5 150.33,-105 140.33,-101.5 140.33,-108.5"/>
</a>
</g>
</g>
<!-- Node3 -->
<g id="Node000003" class="node">
<title>Node3</title>
<g id="a_Node000003"><a xlink:href="../../d9/d55/class_no.html#a18866d7db046e7987120e93bf1a839d3" target="_top" xlink:title="Obtém o nó anterior.">
<polygon fill="white" stroke="#666666" points="439.5,-210 358.25,-210 358.25,-190 439.5,-190 439.5,-210"/>
<text text-anchor="middle" x="398.88" y="-196.5" font-family="Helvetica,sans-Serif" font-size="10.00">No::getAnterior</text>
</a>
</g>
</g>
<!-- Node2&#45;&gt;Node3 -->
<g id="edge2_Node000002_Node000003" class="edge">
<title>Node2&#45;&gt;Node3</title>
<g id="a_edge2_Node000002_Node000003"><a xlink:title=" ">
<path fill="none" stroke="#63b8ff" d="M245.43,-115.46C266.15,-131.24 307.59,-161.37 346.25,-181 349.36,-182.58 352.63,-184.09 355.95,-185.53"/>
<polygon fill="#63b8ff" stroke="#63b8ff" points="354.4,-189.08 364.98,-189.59 357.03,-182.59 354.4,-189.08"/>
</a>
</g>
</g>
<!-- Node4 -->
<g id="Node000004" class="node">
<title>Node4</title>
<g id="a_Node000004"><a xlink:href="../../da/d23/class_tarefa.html#a7bf9fd90402ab301884f4dcbb36dcec8" target="_top" xlink:title="Obtém a prioridade da tarefa.">
<polygon fill="white" stroke="#666666" points="451.5,-172 346.25,-172 346.25,-152 451.5,-152 451.5,-172"/>
<text text-anchor="middle" x="398.88" y="-158.5" font-family="Helvetica,sans-Serif" font-size="10.00">Tarefa::getPrioridade</text>
</a>
</g>
</g>
<!-- Node2&#45;&gt;Node4 -->
<g id="edge3_Node000002_Node000004" class="edge">
<title>Node2&#45;&gt;Node4</title>
<g id="a_edge3_Node000002_Node000004"><a xlink:title=" ">
<path fill="none" stroke="#63b8ff" d="M262.42,-115.45C289,-124.59 327.79,-137.92 357.05,-147.97"/>
<polygon fill="#63b8ff" stroke="#63b8ff" points="355.77,-151.58 366.36,-151.52 358.04,-144.96 355.77,-151.58"/>
</a>
</g>
</g>
<!-- Node5 -->
<g id="Node000005" class="node">
<title>Node5</title>
<g id="a_Node000005"><a xlink:href="../../d9/d55/class_no.html#a42bd9dc9c7b24743c82e89b42a1581a2" target="_top" xlink:title="Obtém o próximo nó.">
<polygon fill="white" stroke="#666666" points="440.62,-134 357.12,-134 357.12,-114 440.62,-114 440.62,-134"/>
<text text-anchor="middle" x="398.88" y="-120.5" font-family="Helvetica,sans-Serif" font-size="10.00">No::getProximo</text>
</a>
</g>
</g>
<!-- Node2&#45;&gt;Node5 -->
<g id="edge4_Node000002_Node000005" class="edge">
<title>Node2&#45;&gt;Node5</title>
<g id="a_edge4_Node000002_Node000005"><a xlink:title=" ">
<path fill="none" stroke="#63b8ff" d="M310.57,-114C322.75,-115.39 335.06,-116.8 346.44,-118.11"/>
<polygon fill="#63b8ff" stroke="#63b8ff" points="345.7,-121.66 356.03,-119.32 346.5,-114.71 345.7,-121.66"/>
</a>
</g>
</g>
<!-- Node6 -->
<g id="Node000006" class="node">
<title>Node6</title>
<g id="a_Node000006"><a xlink:href="../../d9/d55/class_no.html#a3e8d735fc07c24ecaee4e283ac9a1f36" target="_top" xlink:title="Obtém a tarefa armazenada no nó.">
<polygon fill="white" stroke="#666666" points="435.75,-96 362,-96 362,-76 435.75,-76 435.75,-96"/>
<text text-anchor="middle" x="398.88" y="-82.5" font-family="Helvetica,sans-Serif" font-size="10.00">No::getTarefa</text>
</a>
</g>
</g>
<!-- Node2&#45;&gt;Node6 -->
<g id="edge5_Node000002_Node000006" class="edge">
<title>Node2&#45;&gt;Node6</title>
<g id="a_edge5_Node000002_Node000006"><a xlink:title=" ">
<path fill="none" stroke="#63b8ff" d="M310.57,-96C324.43,-94.41 338.45,-92.81 351.08,-91.36"/>
<polygon fill="#63b8ff" stroke="#63b8ff" points="351.25,-94.75 360.79,-90.13 350.45,-87.79 351.25,-94.75"/>
</a>
</g>
</g>
<!-- Node7 -->
<g id="Node000007" class="node">
<title>Node7</title>
<g id="a_Node000007"><a xlink:href="../../d9/d55/class_no.html#a337f5ed0c85f3ac6646fd8295f2017a7" target="_top" xlink:title="Define o nó anterior.">
<polygon fill="white" stroke="#666666" points="439.5,-58 358.25,-58 358.25,-38 439.5,-38 439.5,-58"/>
<text text-anchor="middle" x="398.88" y="-44.5" font-family="Helvetica,sans-Serif" font-size="10.00">No::setAnterior</text>
</a>
</g>
</g>
<!-- Node2&#45;&gt;Node7 -->
<g id="edge6_Node000002_Node000007" class="edge">
<title>Node2&#45;&gt;Node7</title>
<g id="a_edge6_Node000002_Node000007"><a xlink:title=" ">
<path fill="none" stroke="#63b8ff" d="M262.42,-94.55C289,-85.41 327.79,-72.08 357.05,-62.03"/>
<polygon fill="#63b8ff" stroke="#63b8ff" points="358.04,-65.04 366.36,-58.48 355.77,-58.42 358.04,-65.04"/>
</a>
</g>
</g>
<!-- Node8 -->
<g id="Node000008" class="node">
<title>Node8</title>
<g id="a_Node000008"><a xlink:href="../../d9/d55/class_no.html#a1fd6922d7a6b246aa11251effaceeb7b" target="_top" xlink:title="Define o próximo nó.">
<polygon fill="white" stroke="#666666" points="440.62,-20 357.12,-20 357.12,0 440.62,0 440.62,-20"/>
<text text-anchor="middle" x="398.88" y="-6.5" font-family="Helvetica,sans-Serif" font-size="10.00">No::setProximo</text>
</a>
</g>
</g>
<!-- Node2&#45;&gt;Node8 -->
<g id="edge7_Node000002_Node000008" class="edge">
<title>Node2&#45;&gt;Node8</title>
<g id="a_edge7_Node000002_Node000008"><a xlink:title=" ">
<path fill="none" stroke="#63b8ff" d="M245.43,-94.54C266.15,-78.76 307.59,-48.63 346.25,-29 349.36,-27.42 352.63,-25.91 355.95,-24.47"/>
<polygon fill="#63b8ff" stroke="#63b8ff" points="357.03,-27.41 364.98,-20.41 354.4,-20.92 357.03,-27.41"/>
</a>
</g>
</g>
</g>
</svg>
