<?xml version="1.0" encoding="UTF-8" standalone="no"?>
<!DOCTYPE svg PUBLIC "-//W3C//DTD SVG 1.1//EN"
 "http://www.w3.org/Graphics/SVG/1.1/DTD/svg11.dtd">
<!-- Generated by graphviz version 8.1.0 (20230707.0739)
 -->
<!-- Title: include/colunas.hpp Pages: 1 -->
<svg width="199pt" height="208pt"
 viewBox="0.00 0.00 198.88 208.00" xmlns="http://www.w3.org/2000/svg" xmlns:xlink="http://www.w3.org/1999/xlink">

<svg id="main" version="1.1" xmlns="http://www.w3.org/2000/svg" xmlns:xlink="http://www.w3.org/1999/xlink" xml:space="preserve" onload="init(evt)">
<style type="text/css"><![CDATA[
.node, .edge {opacity: 0.7;}
.node.selected, .edge.selected {opacity: 1;}
.edge:hover path { stroke: red; }
.edge:hover polygon { stroke: red; fill: red; }
]]></style>
<script type="application/ecmascript" xlink:href="../../svg.min.js"/>
<svg id="graph" class="graph">
<g id="graph0" class="graph" transform="scale(1 1) rotate(0) translate(4 204)">
<title>include/colunas.hpp</title>
<!-- Node1 -->
<g id="Node000001" class="node">
<title>Node1</title>
<g id="a_Node000001"><a xlink:title="Definição das classes Coluna, ColunaNomeada e ColunaArquivo.">
<polygon fill="#999999" stroke="#666666" points="130,-200 27.75,-200 27.75,-180 130,-180 130,-200"/>
<text text-anchor="middle" x="78.88" y="-186.5" font-family="Helvetica,sans-Serif" font-size="10.00">include/colunas.hpp</text>
</a>
</g>
</g>
<!-- Node2 -->
<g id="Node000002" class="node">
<title>Node2</title>
<g id="a_Node000002"><a xlink:href="../../db/d5f/lista_simplesmente_encadeada_8hpp.html" target="_top" xlink:title="Define a classe Lista e a classe NoSimples para implementar uma lista simplesmente encadeada de colun...">
<polygon fill="white" stroke="#666666" points="190.88,-144 60.88,-144 60.88,-112 190.88,-112 190.88,-144"/>
<text text-anchor="start" x="68.88" y="-130.5" font-family="Helvetica,sans-Serif" font-size="10.00">include/listaSimplesmente</text>
<text text-anchor="middle" x="125.88" y="-118.5" font-family="Helvetica,sans-Serif" font-size="10.00">Encadeada.hpp</text>
</a>
</g>
</g>
<!-- Node1&#45;&gt;Node2 -->
<g id="edge1_Node000001_Node000002" class="edge">
<title>Node1&#45;&gt;Node2</title>
<g id="a_edge1_Node000001_Node000002"><a xlink:title=" ">
<path fill="none" stroke="#63b8ff" d="M92.9,-171.1C99.62,-162.51 107.59,-152.34 114.01,-144.14"/>
<polygon fill="#63b8ff" stroke="#63b8ff" points="89.63,-168.59 86.22,-178.62 95.14,-172.91 89.63,-168.59"/>
</a>
</g>
</g>
<!-- Node3 -->
<g id="Node000003" class="node">
<title>Node3</title>
<g id="a_Node000003"><a xlink:href="../../de/d9e/quadro_8hpp.html" target="_top" xlink:title="Define a classe Quadro para representar um quadro de tarefas.">
<polygon fill="white" stroke="#666666" points="97.75,-76 0,-76 0,-56 97.75,-56 97.75,-76"/>
<text text-anchor="middle" x="48.88" y="-62.5" font-family="Helvetica,sans-Serif" font-size="10.00">include/quadro.hpp</text>
</a>
</g>
</g>
<!-- Node1&#45;&gt;Node3 -->
<g id="edge5_Node000001_Node000003" class="edge">
<title>Node1&#45;&gt;Node3</title>
<g id="a_edge5_Node000001_Node000003"><a xlink:title=" ">
<path fill="none" stroke="#63b8ff" d="M65.09,-170.79C59.96,-162.96 54.69,-153.45 51.88,-144 44.84,-120.41 46.37,-90.95 47.78,-76.25"/>
<polygon fill="#63b8ff" stroke="#63b8ff" points="62.72,-172.5 71.34,-178.67 68.45,-168.47 62.72,-172.5"/>
</a>
</g>
</g>
<!-- Node2&#45;&gt;Node3 -->
<g id="edge2_Node000002_Node000003" class="edge">
<title>Node2&#45;&gt;Node3</title>
<g id="a_edge2_Node000002_Node000003"><a xlink:title=" ">
<path fill="none" stroke="#63b8ff" d="M97.62,-104.99C84.98,-95.14 70.76,-84.05 60.95,-76.41"/>
<polygon fill="#63b8ff" stroke="#63b8ff" points="95.01,-108.16 105.05,-111.55 99.31,-102.64 95.01,-108.16"/>
</a>
</g>
</g>
<!-- Node4 -->
<g id="Node000004" class="node">
<title>Node4</title>
<g id="a_Node000004"><a xlink:href="../../df/d0a/main_8cpp.html" target="_top" xlink:title="Sistema de Gerenciamento de Tarefas.">
<polygon fill="white" stroke="#666666" points="123,-20 50.75,-20 50.75,0 123,0 123,-20"/>
<text text-anchor="middle" x="86.88" y="-6.5" font-family="Helvetica,sans-Serif" font-size="10.00">src/main.cpp</text>
</a>
</g>
</g>
<!-- Node2&#45;&gt;Node4 -->
<g id="edge4_Node000002_Node000004" class="edge">
<title>Node2&#45;&gt;Node4</title>
<g id="a_edge4_Node000002_Node000004"><a xlink:title=" ">
<path fill="none" stroke="#63b8ff" d="M119.96,-101.03C116.61,-87.46 112.06,-70.66 106.88,-56 102.43,-43.43 95.97,-29.47 91.61,-20.48"/>
<polygon fill="#63b8ff" stroke="#63b8ff" points="116.75,-101.64 122.48,-110.55 123.56,-100.01 116.75,-101.64"/>
</a>
</g>
</g>
<!-- Node3&#45;&gt;Node4 -->
<g id="edge3_Node000003_Node000004" class="edge">
<title>Node3&#45;&gt;Node4</title>
<g id="a_edge3_Node000003_Node000004"><a xlink:title=" ">
<path fill="none" stroke="#63b8ff" d="M61.74,-46.72C67.99,-37.84 75.23,-27.55 80.33,-20.3"/>
<polygon fill="#63b8ff" stroke="#63b8ff" points="58.39,-44.4 55.49,-54.59 64.11,-48.43 58.39,-44.4"/>
</a>
</g>
</g>
</g>
</svg>
</svg>

<style type='text/css'>
<![CDATA[
[data-mouse-over-selected='false'] { opacity: 0.7; }
[data-mouse-over-selected='true']  { opacity: 1.0; }
]]>
</style>
<script type="application/ecmascript"><![CDATA[
document.addEventListener('DOMContentLoaded', (event) => {
  highlightEdges();
  highlightAdjacentNodes();
});
]]></script>
</svg>
