<?xml version="1.0" encoding="UTF-8" standalone="no"?>
<!DOCTYPE svg PUBLIC "-//W3C//DTD SVG 1.1//EN"
 "http://www.w3.org/Graphics/SVG/1.1/DTD/svg11.dtd">
<!-- Generated by graphviz version 8.1.0 (20230707.0739)
 -->
<!-- Title: include/listaSimplesmenteEncadeada.hpp Pages: 1 -->
<svg width="160pt" height="152pt"
 viewBox="0.00 0.00 159.88 152.00" xmlns="http://www.w3.org/2000/svg" xmlns:xlink="http://www.w3.org/1999/xlink">
<g id="graph0" class="graph" transform="scale(1 1) rotate(0) translate(4 148)">
<title>include/listaSimplesmenteEncadeada.hpp</title>
<!-- Node1 -->
<g id="Node000001" class="node">
<title>Node1</title>
<g id="a_Node000001"><a xlink:title="Define a classe Lista e a classe NoSimples para implementar uma lista simplesmente encadeada de colun...">
<polygon fill="#999999" stroke="#666666" points="151.88,-144 21.88,-144 21.88,-112 151.88,-112 151.88,-144"/>
<text text-anchor="start" x="29.88" y="-130.5" font-family="Helvetica,sans-Serif" font-size="10.00">include/listaSimplesmente</text>
<text text-anchor="middle" x="86.88" y="-118.5" font-family="Helvetica,sans-Serif" font-size="10.00">Encadeada.hpp</text>
</a>
</g>
</g>
<!-- Node2 -->
<g id="Node000002" class="node">
<title>Node2</title>
<g id="a_Node000002"><a xlink:href="../../de/d9e/quadro_8hpp.html" target="_top" xlink:title="Define a classe Quadro para representar um quadro de tarefas.">
<polygon fill="white" stroke="#666666" points="97.75,-76 0,-76 0,-56 97.75,-56 97.75,-76"/>
<text text-anchor="middle" x="48.88" y="-62.5" font-family="Helvetica,sans-Serif" font-size="10.00">include/quadro.hpp</text>
</a>
</g>
</g>
<!-- Node1&#45;&gt;Node2 -->
<g id="edge1_Node000001_Node000002" class="edge">
<title>Node1&#45;&gt;Node2</title>
<g id="a_edge1_Node000001_Node000002"><a xlink:title=" ">
<path fill="none" stroke="#63b8ff" d="M71.3,-102.4C65.5,-93.24 59.25,-83.39 54.83,-76.41"/>
<polygon fill="#63b8ff" stroke="#63b8ff" points="68.78,-103.97 77.09,-110.55 74.7,-100.23 68.78,-103.97"/>
</a>
</g>
</g>
<!-- Node3 -->
<g id="Node000003" class="node">
<title>Node3</title>
<g id="a_Node000003"><a xlink:href="../../df/d0a/main_8cpp.html" target="_top" xlink:title="Sistema de Gerenciamento de Tarefas.">
<polygon fill="white" stroke="#666666" points="123,-20 50.75,-20 50.75,0 123,0 123,-20"/>
<text text-anchor="middle" x="86.88" y="-6.5" font-family="Helvetica,sans-Serif" font-size="10.00">src/main.cpp</text>
</a>
</g>
</g>
<!-- Node1&#45;&gt;Node3 -->
<g id="edge3_Node000001_Node000003" class="edge">
<title>Node1&#45;&gt;Node3</title>
<g id="a_edge3_Node000001_Node000003"><a xlink:title=" ">
<path fill="none" stroke="#63b8ff" d="M100.2,-101.67C105.71,-88.21 110.13,-71.32 106.88,-56 104.11,-42.95 97.29,-29.1 92.38,-20.26"/>
<polygon fill="#63b8ff" stroke="#63b8ff" points="96.63,-100.08 95.68,-110.63 103,-102.97 96.63,-100.08"/>
</a>
</g>
</g>
<!-- Node2&#45;&gt;Node3 -->
<g id="edge2_Node000002_Node000003" class="edge">
<title>Node2&#45;&gt;Node3</title>
<g id="a_edge2_Node000002_Node000003"><a xlink:title=" ">
<path fill="none" stroke="#63b8ff" d="M61.74,-46.72C67.99,-37.84 75.23,-27.55 80.33,-20.3"/>
<polygon fill="#63b8ff" stroke="#63b8ff" points="58.39,-44.4 55.49,-54.59 64.11,-48.43 58.39,-44.4"/>
</a>
</g>
</g>
</g>
</svg>
