<?xml version="1.0" encoding="UTF-8" standalone="no"?>
<!DOCTYPE svg PUBLIC "-//W3C//DTD SVG 1.1//EN"
 "http://www.w3.org/Graphics/SVG/1.1/DTD/svg11.dtd">
<!-- Generated by graphviz version 8.1.0 (20230707.0739)
 -->
<!-- Title: Tarefa::getPrioridade Pages: 1 -->
<svg width="469pt" height="104pt"
 viewBox="0.00 0.00 469.25 104.00" xmlns="http://www.w3.org/2000/svg" xmlns:xlink="http://www.w3.org/1999/xlink">

<svg id="main" version="1.1" xmlns="http://www.w3.org/2000/svg" xmlns:xlink="http://www.w3.org/1999/xlink" xml:space="preserve" onload="init(evt)">
<style type="text/css"><![CDATA[
.node, .edge {opacity: 0.7;}
.node.selected, .edge.selected {opacity: 1;}
.edge:hover path { stroke: red; }
.edge:hover polygon { stroke: red; fill: red; }
]]></style>
<script type="application/ecmascript" xlink:href="../../svg.min.js"/>
<svg id="graph" class="graph">
<g id="graph0" class="graph" transform="scale(1 1) rotate(0) translate(4 100)">
<title>Tarefa::getPrioridade</title>
<!-- Node1 -->
<g id="Node000001" class="node">
<title>Node1</title>
<g id="a_Node000001"><a xlink:title="Obtém a prioridade da tarefa.">
<polygon fill="#999999" stroke="#666666" points="461.25,-39 356,-39 356,-19 461.25,-19 461.25,-39"/>
<text text-anchor="middle" x="408.62" y="-25.5" font-family="Helvetica,sans-Serif" font-size="10.00">Tarefa::getPrioridade</text>
</a>
</g>
</g>
<!-- Node2 -->
<g id="Node000002" class="node">
<title>Node2</title>
<g id="a_Node000002"><a xlink:href="../../dd/d91/class_lista_dupla.html#a0da08b292785498fc7bb358a84bed282" target="_top" xlink:title="Ordena a lista de tarefas por prioridade.">
<polygon fill="white" stroke="#666666" points="320,-58 161.5,-58 161.5,-38 320,-38 320,-58"/>
<text text-anchor="middle" x="240.75" y="-44.5" font-family="Helvetica,sans-Serif" font-size="10.00">ListaDupla::ordenarPorPrioridade</text>
</a>
</g>
</g>
<!-- Node1&#45;&gt;Node2 -->
<g id="edge1_Node000001_Node000002" class="edge">
<title>Node1&#45;&gt;Node2</title>
<g id="a_edge1_Node000001_Node000002"><a xlink:title=" ">
<path fill="none" stroke="#63b8ff" d="M344.86,-36.19C336.84,-37.11 328.55,-38.06 320.33,-39"/>
<polygon fill="#63b8ff" stroke="#63b8ff" points="345.06,-39.57 354.6,-34.96 344.26,-32.62 345.06,-39.57"/>
</a>
</g>
</g>
<!-- Node5 -->
<g id="Node000005" class="node">
<title>Node5</title>
<g id="a_Node000005"><a xlink:href="../../df/d0a/main_8cpp.html#a3a0d238b444da51e7f04f65f8d390fd0" target="_top" xlink:title="Salva o quadro KanBan em um arquivo.">
<polygon fill="white" stroke="#666666" points="276.88,-20 204.62,-20 204.62,0 276.88,0 276.88,-20"/>
<text text-anchor="middle" x="240.75" y="-6.5" font-family="Helvetica,sans-Serif" font-size="10.00">salvarQuadro</text>
</a>
</g>
</g>
<!-- Node1&#45;&gt;Node5 -->
<g id="edge4_Node000001_Node000005" class="edge">
<title>Node1&#45;&gt;Node5</title>
<g id="a_edge4_Node000001_Node000005"><a xlink:title=" ">
<path fill="none" stroke="#63b8ff" d="M344.93,-21.82C322.06,-19.2 297.02,-16.33 277.32,-14.07"/>
<polygon fill="#63b8ff" stroke="#63b8ff" points="344.26,-25.38 354.6,-23.04 345.06,-18.43 344.26,-25.38"/>
</a>
</g>
</g>
<!-- Node3 -->
<g id="Node000003" class="node">
<title>Node3</title>
<g id="a_Node000003"><a xlink:href="../../de/d1c/class_coluna_nomeada.html#a73e9583ff304eef0a61d772976dac074" target="_top" xlink:title="Ordena as tarefas da coluna por prioridade.">
<polygon fill="white" stroke="#666666" points="125.5,-96 0,-96 0,-76 125.5,-76 125.5,-96"/>
<text text-anchor="middle" x="62.75" y="-82.5" font-family="Helvetica,sans-Serif" font-size="10.00">ColunaNomeada::ordenar</text>
</a>
</g>
</g>
<!-- Node2&#45;&gt;Node3 -->
<g id="edge2_Node000002_Node000003" class="edge">
<title>Node2&#45;&gt;Node3</title>
<g id="a_edge2_Node000002_Node000003"><a xlink:title=" ">
<path fill="none" stroke="#63b8ff" d="M180.52,-60.79C158.29,-65.59 133.29,-70.99 112.15,-75.55"/>
<polygon fill="#63b8ff" stroke="#63b8ff" points="181.16,-64.02 190.19,-58.48 179.68,-57.17 181.16,-64.02"/>
</a>
</g>
</g>
<!-- Node4 -->
<g id="Node000004" class="node">
<title>Node4</title>
<g id="a_Node000004"><a xlink:href="../../d0/d4e/class_coluna_arquivo.html#af2122dc4d83288ec375515d4d16004a2" target="_top" xlink:title="Ordena as tarefas da coluna por prioridade.">
<polygon fill="white" stroke="#666666" points="120.62,-58 4.88,-58 4.88,-38 120.62,-38 120.62,-58"/>
<text text-anchor="middle" x="62.75" y="-44.5" font-family="Helvetica,sans-Serif" font-size="10.00">ColunaArquivo::ordenar</text>
</a>
</g>
</g>
<!-- Node2&#45;&gt;Node4 -->
<g id="edge3_Node000002_Node000004" class="edge">
<title>Node2&#45;&gt;Node4</title>
<g id="a_edge3_Node000002_Node000004"><a xlink:title=" ">
<path fill="none" stroke="#63b8ff" d="M150.26,-48C140.33,-48 130.43,-48 121.05,-48"/>
<polygon fill="#63b8ff" stroke="#63b8ff" points="150.02,-51.5 160.02,-48 150.02,-44.5 150.02,-51.5"/>
</a>
</g>
</g>
<!-- Node6 -->
<g id="Node000006" class="node">
<title>Node6</title>
<g id="a_Node000006"><a xlink:href="../../df/d0a/main_8cpp.html#ae66f6b31b5ad750f1fe042a706a4e3d4" target="_top" xlink:title=" ">
<polygon fill="white" stroke="#666666" points="81.25,-20 44.25,-20 44.25,0 81.25,0 81.25,-20"/>
<text text-anchor="middle" x="62.75" y="-6.5" font-family="Helvetica,sans-Serif" font-size="10.00">main</text>
</a>
</g>
</g>
<!-- Node5&#45;&gt;Node6 -->
<g id="edge5_Node000005_Node000006" class="edge">
<title>Node5&#45;&gt;Node6</title>
<g id="a_edge5_Node000005_Node000006"><a xlink:title=" ">
<path fill="none" stroke="#63b8ff" d="M193.2,-10C156.57,-10 107.52,-10 81.58,-10"/>
<polygon fill="#63b8ff" stroke="#63b8ff" points="193.13,-13.5 203.13,-10 193.13,-6.5 193.13,-13.5"/>
</a>
</g>
</g>
</g>
</svg>
</svg>

<style type='text/css'>
<![CDATA[
[data-mouse-over-selected='false'] { opacity: 0.7; }
[data-mouse-over-selected='true']  { opacity: 1.0; }
]]>
</style>
<script type="application/ecmascript"><![CDATA[
document.addEventListener('DOMContentLoaded', (event) => {
  highlightEdges();
  highlightAdjacentNodes();
});
]]></script>
</svg>
