<?xml version="1.0" encoding="UTF-8" standalone="no"?>
<!DOCTYPE svg PUBLIC "-//W3C//DTD SVG 1.1//EN"
 "http://www.w3.org/Graphics/SVG/1.1/DTD/svg11.dtd">
<!-- Generated by graphviz version 8.1.0 (20230707.0739)
 -->
<!-- Title: include/tarefa.hpp Pages: 1 -->
<svg width="134pt" height="140pt"
 viewBox="0.00 0.00 133.75 140.00" xmlns="http://www.w3.org/2000/svg" xmlns:xlink="http://www.w3.org/1999/xlink">

<svg id="main" version="1.1" xmlns="http://www.w3.org/2000/svg" xmlns:xlink="http://www.w3.org/1999/xlink" xml:space="preserve" onload="init(evt)">
<style type="text/css"><![CDATA[
.node, .edge {opacity: 0.7;}
.node.selected, .edge.selected {opacity: 1;}
.edge:hover path { stroke: red; }
.edge:hover polygon { stroke: red; fill: red; }
]]></style>
<script type="application/ecmascript" xlink:href="../../svg.min.js"/>
<svg id="graph" class="graph">
<g id="graph0" class="graph" transform="scale(1 1) rotate(0) translate(4 136)">
<title>include/tarefa.hpp</title>
<!-- Node1 -->
<g id="Node000001" class="node">
<title>Node1</title>
<g id="a_Node000001"><a xlink:title="Definição da classe Tarefa.">
<polygon fill="#999999" stroke="#666666" points="99.25,-132 6.75,-132 6.75,-112 99.25,-112 99.25,-132"/>
<text text-anchor="middle" x="53" y="-118.5" font-family="Helvetica,sans-Serif" font-size="10.00">include/tarefa.hpp</text>
</a>
</g>
</g>
<!-- Node2 -->
<g id="Node000002" class="node">
<title>Node2</title>
<g id="a_Node000002"><a xlink:title=" ">
<polygon fill="#e0e0e0" stroke="#999999" points="40,-20 0,-20 0,0 40,0 40,-20"/>
<text text-anchor="middle" x="20" y="-6.5" font-family="Helvetica,sans-Serif" font-size="10.00">string</text>
</a>
</g>
</g>
<!-- Node1&#45;&gt;Node2 -->
<g id="edge1_Node000001_Node000002" class="edge">
<title>Node1&#45;&gt;Node2</title>
<g id="a_edge1_Node000001_Node000002"><a xlink:title=" ">
<path fill="none" stroke="#63b8ff" d="M39.98,-111.59C29.93,-103.46 16.8,-90.71 11,-76 5.25,-61.41 8.29,-43.71 12.32,-30.47"/>
<polygon fill="#63b8ff" stroke="#63b8ff" points="15.93,-31.77 15.93,-21.17 9.32,-29.45 15.93,-31.77"/>
</a>
</g>
</g>
<!-- Node3 -->
<g id="Node000003" class="node">
<title>Node3</title>
<g id="a_Node000003"><a xlink:title=" ">
<polygon fill="#e0e0e0" stroke="#999999" points="125.75,-20 72.25,-20 72.25,0 125.75,0 125.75,-20"/>
<text text-anchor="middle" x="99" y="-6.5" font-family="Helvetica,sans-Serif" font-size="10.00">iostream</text>
</a>
</g>
</g>
<!-- Node1&#45;&gt;Node3 -->
<g id="edge2_Node000001_Node000003" class="edge">
<title>Node1&#45;&gt;Node3</title>
<g id="a_edge2_Node000001_Node000003"><a xlink:title=" ">
<path fill="none" stroke="#63b8ff" d="M65.38,-111.82C75.34,-103.64 88.67,-90.73 95,-76 101.09,-61.85 101.83,-44.34 101.19,-31.06"/>
<polygon fill="#63b8ff" stroke="#63b8ff" points="104.61,-30.97 100.33,-21.28 97.63,-31.52 104.61,-30.97"/>
</a>
</g>
</g>
<!-- Node4 -->
<g id="Node000004" class="node">
<title>Node4</title>
<g id="a_Node000004"><a xlink:href="../../d9/da4/pessoa_8hpp.html" target="_top" xlink:title="Definição das classes Pessoa e Colaborador.">
<polygon fill="white" stroke="#666666" points="86.12,-76 19.88,-76 19.88,-56 86.12,-56 86.12,-76"/>
<text text-anchor="middle" x="53" y="-62.5" font-family="Helvetica,sans-Serif" font-size="10.00">pessoa.hpp</text>
</a>
</g>
</g>
<!-- Node1&#45;&gt;Node4 -->
<g id="edge3_Node000001_Node000004" class="edge">
<title>Node1&#45;&gt;Node4</title>
<g id="a_edge3_Node000001_Node000004"><a xlink:title=" ">
<path fill="none" stroke="#63b8ff" d="M53,-111.59C53,-104.86 53,-95.53 53,-87.15"/>
<polygon fill="#63b8ff" stroke="#63b8ff" points="56.5,-87.3 53,-77.3 49.5,-87.3 56.5,-87.3"/>
</a>
</g>
</g>
<!-- Node4&#45;&gt;Node2 -->
<g id="edge5_Node000004_Node000002" class="edge">
<title>Node4&#45;&gt;Node2</title>
<g id="a_edge5_Node000004_Node000002"><a xlink:title=" ">
<path fill="none" stroke="#63b8ff" d="M47.25,-55.59C42.85,-48.39 36.64,-38.23 31.26,-29.43"/>
<polygon fill="#63b8ff" stroke="#63b8ff" points="33.88,-28.01 25.68,-21.3 27.91,-31.66 33.88,-28.01"/>
</a>
</g>
</g>
<!-- Node4&#45;&gt;Node3 -->
<g id="edge4_Node000004_Node000003" class="edge">
<title>Node4&#45;&gt;Node3</title>
<g id="a_edge4_Node000004_Node000003"><a xlink:title=" ">
<path fill="none" stroke="#63b8ff" d="M61.01,-55.59C67.34,-48.16 76.36,-37.58 84.02,-28.58"/>
<polygon fill="#63b8ff" stroke="#63b8ff" points="87.26,-31.18 91.08,-21.3 81.93,-26.64 87.26,-31.18"/>
</a>
</g>
</g>
</g>
</svg>
</svg>

<style type='text/css'>
<![CDATA[
[data-mouse-over-selected='false'] { opacity: 0.7; }
[data-mouse-over-selected='true']  { opacity: 1.0; }
]]>
</style>
<script type="application/ecmascript"><![CDATA[
document.addEventListener('DOMContentLoaded', (event) => {
  highlightEdges();
  highlightAdjacentNodes();
});
]]></script>
</svg>
