<?xml version="1.0" encoding="UTF-8" standalone="no"?>
<!DOCTYPE svg PUBLIC "-//W3C//DTD SVG 1.1//EN"
 "http://www.w3.org/Graphics/SVG/1.1/DTD/svg11.dtd">
<!-- Generated by graphviz version 8.1.0 (20230707.0739)
 -->
<!-- Title: src/main.cpp Pages: 1 -->
<!--zoomable 420 -->

<svg id="main" version="1.1" xmlns="http://www.w3.org/2000/svg" xmlns:xlink="http://www.w3.org/1999/xlink" xml:space="preserve" onload="init(evt)">
<style type="text/css"><![CDATA[
.node, .edge {opacity: 0.7;}
.node.selected, .edge.selected {opacity: 1;}
.edge:hover path { stroke: red; }
.edge:hover polygon { stroke: red; fill: red; }
]]></style>

<defs>
  <circle id="rim" cx="0" cy="0" r="7"/>
  <circle id="rim2" cx="0" cy="0" r="3.5"/>
  <g id="zoomPlus">
    <use xlink:href="#rim" fill="#404040"><set attributeName="fill" to="#808080" begin="zoomplus.mouseover" end="zoomplus.mouseout"/></use>
    <path d="M-4,0h8M0,-4v8" fill="none" stroke="white" stroke-width="1.5" pointer-events="none"/>
  </g>
  <g id="zoomMin">
    <use xlink:href="#rim" fill="#404040"><set attributeName="fill" to="#808080" begin="zoomminus.mouseover" end="zoomminus.mouseout"/></use>
    <path d="M-4,0h8" fill="none" stroke="white" stroke-width="1.5" pointer-events="none"/>
  </g>
  <g id="arrowUp" transform="translate(30 24)">
    <use xlink:href="#rim"/>
    <path pointer-events="none" fill="none" stroke="white" stroke-width="1.5" d="M0,-3.0v7 M-2.5,-0.5L0,-3.0L2.5,-0.5"/>
  </g>
  <g id="arrowRight" transform="rotate(90) translate(36 -43)">
    <use xlink:href="#rim"/>
    <path pointer-events="none" fill="none" stroke="white" stroke-width="1.5" d="M0,-3.0v7 M-2.5,-0.5L0,-3.0L2.5,-0.5"/>
  </g>
  <g id="arrowDown" transform="rotate(180) translate(-30 -48)">
    <use xlink:href="#rim"/>
    <path pointer-events="none" fill="none" stroke="white" stroke-width="1.5" d="M0,-3.0v7 M-2.5,-0.5L0,-3.0L2.5,-0.5"/>
  </g>
  <g id="arrowLeft" transform="rotate(270) translate(-36 17)">
    <use xlink:href="#rim"/>
    <path pointer-events="none" fill="none" stroke="white" stroke-width="1.5" d="M0,-3.0v7 M-2.5,-0.5L0,-3.0L2.5,-0.5"/>
  </g>
  <g id="resetDef">
    <use xlink:href="#rim2" fill="#404040"><set attributeName="fill" to="#808080" begin="reset.mouseover" end="reset.mouseout"/></use>
  </g>
</defs>
<script type="application/ecmascript">
var viewWidth = 641;
var viewHeight = 420;
var sectionId = 'dynsection-0';
</script>
<script type="application/ecmascript" xlink:href="../../svg.min.js"/>
<svg id="graph" class="graph">
<g id="viewport">
<title>src/main.cpp</title>
<!-- Node1 -->
<g id="Node000001" class="node">
<title>Node1</title>
<g id="a_Node000001"><a xlink:title="Sistema de Gerenciamento de Tarefas.">
<polygon fill="#999999" stroke="#666666" points="455.12,-412 382.88,-412 382.88,-392 455.12,-392 455.12,-412"/>
<text text-anchor="middle" x="419" y="-398.5" font-family="Helvetica,sans-Serif" font-size="10.00">src/main.cpp</text>
</a>
</g>
</g>
<!-- Node2 -->
<g id="Node000002" class="node">
<title>Node2</title>
<g id="a_Node000002"><a xlink:title=" ">
<polygon fill="#e0e0e0" stroke="#999999" points="176.75,-20 123.25,-20 123.25,0 176.75,0 176.75,-20"/>
<text text-anchor="middle" x="150" y="-6.5" font-family="Helvetica,sans-Serif" font-size="10.00">iostream</text>
</a>
</g>
</g>
<!-- Node1&#45;&gt;Node2 -->
<g id="edge1_Node000001_Node000002" class="edge">
<title>Node1&#45;&gt;Node2</title>
<g id="a_edge1_Node000001_Node000002"><a xlink:title=" ">
<path fill="none" stroke="#63b8ff" d="M382.55,-399.23C280.61,-393.29 0,-369.78 0,-291 0,-291 0,-291 0,-121 0,-65.36 67.94,-34.79 112.38,-20.74"/>
<polygon fill="#63b8ff" stroke="#63b8ff" points="113.27,-23.83 121.84,-17.6 111.25,-17.13 113.27,-23.83"/>
</a>
</g>
</g>
<!-- Node3 -->
<g id="Node000003" class="node">
<title>Node3</title>
<g id="a_Node000003"><a xlink:title=" ">
<polygon fill="#e0e0e0" stroke="#999999" points="567.25,-356 522.75,-356 522.75,-336 567.25,-336 567.25,-356"/>
<text text-anchor="middle" x="545" y="-342.5" font-family="Helvetica,sans-Serif" font-size="10.00">cstdlib</text>
</a>
</g>
</g>
<!-- Node1&#45;&gt;Node3 -->
<g id="edge2_Node000001_Node000003" class="edge">
<title>Node1&#45;&gt;Node3</title>
<g id="a_edge2_Node000001_Node000003"><a xlink:title=" ">
<path fill="none" stroke="#63b8ff" d="M440.95,-391.59C460.79,-383.09 490.26,-370.46 512.77,-360.81"/>
<polygon fill="#63b8ff" stroke="#63b8ff" points="514.07,-363.64 521.88,-356.48 511.31,-357.2 514.07,-363.64"/>
</a>
</g>
</g>
<!-- Node4 -->
<g id="Node000004" class="node">
<title>Node4</title>
<g id="a_Node000004"><a xlink:title=" ">
<polygon fill="#e0e0e0" stroke="#999999" points="439,-20 399,-20 399,0 439,0 439,-20"/>
<text text-anchor="middle" x="419" y="-6.5" font-family="Helvetica,sans-Serif" font-size="10.00">string</text>
</a>
</g>
</g>
<!-- Node1&#45;&gt;Node4 -->
<g id="edge3_Node000001_Node000004" class="edge">
<title>Node1&#45;&gt;Node4</title>
<g id="a_edge3_Node000001_Node000004"><a xlink:title=" ">
<path fill="none" stroke="#63b8ff" d="M431.55,-391.63C453.14,-374.33 495,-335.1 495,-291 495,-291 495,-291 495,-121 495,-82.07 462.37,-46.93 439.87,-27.33"/>
<polygon fill="#63b8ff" stroke="#63b8ff" points="442.47,-24.1 432.55,-20.37 437.98,-29.47 442.47,-24.1"/>
</a>
</g>
</g>
<!-- Node5 -->
<g id="Node000005" class="node">
<title>Node5</title>
<g id="a_Node000005"><a xlink:title=" ">
<polygon fill="#e0e0e0" stroke="#999999" points="633.12,-356 584.88,-356 584.88,-336 633.12,-336 633.12,-356"/>
<text text-anchor="middle" x="609" y="-342.5" font-family="Helvetica,sans-Serif" font-size="10.00">fstream</text>
</a>
</g>
</g>
<!-- Node1&#45;&gt;Node5 -->
<g id="edge4_Node000001_Node000005" class="edge">
<title>Node1&#45;&gt;Node5</title>
<g id="a_edge4_Node000001_Node000005"><a xlink:title=" ">
<path fill="none" stroke="#63b8ff" d="M452.1,-391.59C486.3,-381.87 539.47,-366.76 574.27,-356.87"/>
<polygon fill="#63b8ff" stroke="#63b8ff" points="574.77,-360.08 583.43,-353.98 572.86,-353.35 574.77,-360.08"/>
</a>
</g>
</g>
<!-- Node6 -->
<g id="Node000006" class="node">
<title>Node6</title>
<g id="a_Node000006"><a xlink:href="../../de/d9e/quadro_8hpp.html" target="_top" xlink:title="Define a classe Quadro para representar um quadro de tarefas.">
<polygon fill="white" stroke="#666666" points="337.38,-356 230.62,-356 230.62,-336 337.38,-336 337.38,-356"/>
<text text-anchor="middle" x="284" y="-342.5" font-family="Helvetica,sans-Serif" font-size="10.00">../include/quadro.hpp</text>
</a>
</g>
</g>
<!-- Node1&#45;&gt;Node6 -->
<g id="edge5_Node000001_Node000006" class="edge">
<title>Node1&#45;&gt;Node6</title>
<g id="a_edge5_Node000001_Node000006"><a xlink:title=" ">
<path fill="none" stroke="#63b8ff" d="M395.48,-391.59C374.03,-383.01 342.08,-370.23 317.88,-360.55"/>
<polygon fill="#63b8ff" stroke="#63b8ff" points="319.28,-356.94 308.7,-356.48 316.68,-363.44 319.28,-356.94"/>
</a>
</g>
</g>
<!-- Node10 -->
<g id="Node000010" class="node">
<title>Node10</title>
<g id="a_Node000010"><a xlink:href="../../d1/d7b/lista_duplamente_encadeada_8hpp.html" target="_top" xlink:title="Define a classe ListaDupla e a classe No para implementar uma lista duplamente encadeada de tarefas d...">
<polygon fill="white" stroke="#666666" points="390.62,-188 237.38,-188 237.38,-168 390.62,-168 390.62,-188"/>
<text text-anchor="middle" x="314" y="-174.5" font-family="Helvetica,sans-Serif" font-size="10.00">listaDuplamenteEncadeada.hpp</text>
</a>
</g>
</g>
<!-- Node1&#45;&gt;Node10 -->
<g id="edge24_Node000001_Node000010" class="edge">
<title>Node1&#45;&gt;Node10</title>
<g id="a_edge24_Node000001_Node000010"><a xlink:title=" ">
<path fill="none" stroke="#63b8ff" d="M414.62,-391.74C398.85,-358.39 344.7,-243.9 323.05,-198.13"/>
<polygon fill="#63b8ff" stroke="#63b8ff" points="325.84,-196.84 318.4,-189.3 319.51,-199.83 325.84,-196.84"/>
</a>
</g>
</g>
<!-- Node13 -->
<g id="Node000013" class="node">
<title>Node13</title>
<g id="a_Node000013"><a xlink:href="../../db/d5f/lista_simplesmente_encadeada_8hpp.html" target="_top" xlink:title="Define a classe Lista e a classe NoSimples para implementar uma lista simplesmente encadeada de colun...">
<polygon fill="white" stroke="#666666" points="191.88,-300 28.12,-300 28.12,-280 191.88,-280 191.88,-300"/>
<text text-anchor="middle" x="110" y="-286.5" font-family="Helvetica,sans-Serif" font-size="10.00">listaSimplesmenteEncadeada.hpp</text>
</a>
</g>
</g>
<!-- Node1&#45;&gt;Node13 -->
<g id="edge25_Node000001_Node000013" class="edge">
<title>Node1&#45;&gt;Node13</title>
<g id="a_edge25_Node000001_Node000013"><a xlink:title=" ">
<path fill="none" stroke="#63b8ff" d="M382.44,-396.03C342.13,-389.78 275.86,-377.21 222,-356 188.84,-342.94 153.79,-321.13 131.92,-306.41"/>
<polygon fill="#63b8ff" stroke="#63b8ff" points="134.35,-303.15 124.12,-300.39 130.4,-308.93 134.35,-303.15"/>
</a>
</g>
</g>
<!-- Node6&#45;&gt;Node2 -->
<g id="edge6_Node000006_Node000002" class="edge">
<title>Node6&#45;&gt;Node2</title>
<g id="a_edge6_Node000006_Node000002"><a xlink:title=" ">
<path fill="none" stroke="#63b8ff" d="M273.36,-335.54C248.46,-312.79 186.16,-252.09 155,-188 129.16,-134.85 131.93,-114.67 139,-56 140.01,-47.62 142.04,-38.55 144.08,-30.77"/>
<polygon fill="#63b8ff" stroke="#63b8ff" points="147.72,-31.76 147.07,-21.19 140.98,-29.86 147.72,-31.76"/>
</a>
</g>
</g>
<!-- Node6&#45;&gt;Node4 -->
<g id="edge7_Node000006_Node000004" class="edge">
<title>Node6&#45;&gt;Node4</title>
<g id="a_edge7_Node000006_Node000004"><a xlink:title=" ">
<path fill="none" stroke="#63b8ff" d="M307.69,-335.52C355.07,-314.82 457,-260.79 457,-179 457,-179 457,-179 457,-121 457,-87.47 441.03,-51.18 429.8,-29.81"/>
<polygon fill="#63b8ff" stroke="#63b8ff" points="432.48,-28.42 424.61,-21.33 426.34,-31.79 432.48,-28.42"/>
</a>
</g>
</g>
<!-- Node7 -->
<g id="Node000007" class="node">
<title>Node7</title>
<g id="a_Node000007"><a xlink:title=" ">
<polygon fill="#e0e0e0" stroke="#999999" points="277.75,-300 248.25,-300 248.25,-280 277.75,-280 277.75,-300"/>
<text text-anchor="middle" x="263" y="-286.5" font-family="Helvetica,sans-Serif" font-size="10.00">set</text>
</a>
</g>
</g>
<!-- Node6&#45;&gt;Node7 -->
<g id="edge8_Node000006_Node000007" class="edge">
<title>Node6&#45;&gt;Node7</title>
<g id="a_edge8_Node000006_Node000007"><a xlink:title=" ">
<path fill="none" stroke="#63b8ff" d="M280.34,-335.59C277.63,-328.63 273.84,-318.89 270.5,-310.29"/>
<polygon fill="#63b8ff" stroke="#63b8ff" points="273.5,-309.35 266.62,-301.3 266.98,-311.89 273.5,-309.35"/>
</a>
</g>
</g>
<!-- Node8 -->
<g id="Node000008" class="node">
<title>Node8</title>
<g id="a_Node000008"><a xlink:href="../../da/d7b/colunas_8hpp.html" target="_top" xlink:title="Definição das classes Coluna, ColunaNomeada e ColunaArquivo.">
<polygon fill="white" stroke="#666666" points="280.25,-244 211.75,-244 211.75,-224 280.25,-224 280.25,-244"/>
<text text-anchor="middle" x="246" y="-230.5" font-family="Helvetica,sans-Serif" font-size="10.00">colunas.hpp</text>
</a>
</g>
</g>
<!-- Node6&#45;&gt;Node8 -->
<g id="edge9_Node000006_Node000008" class="edge">
<title>Node6&#45;&gt;Node8</title>
<g id="a_edge9_Node000006_Node000008"><a xlink:title=" ">
<path fill="none" stroke="#63b8ff" d="M286.69,-335.8C289.97,-322.85 294.26,-298.75 287,-280 282.81,-269.17 274.66,-259.35 266.73,-251.67"/>
<polygon fill="#63b8ff" stroke="#63b8ff" points="269.5,-249.55 259.72,-245.48 264.83,-254.76 269.5,-249.55"/>
</a>
</g>
</g>
<!-- Node6&#45;&gt;Node13 -->
<g id="edge21_Node000006_Node000013" class="edge">
<title>Node6&#45;&gt;Node13</title>
<g id="a_edge21_Node000006_Node000013"><a xlink:title=" ">
<path fill="none" stroke="#63b8ff" d="M253.69,-335.59C225.17,-326.74 182.26,-313.43 150.76,-303.65"/>
<polygon fill="#63b8ff" stroke="#63b8ff" points="152.13,-300.1 141.54,-300.48 150.06,-306.79 152.13,-300.1"/>
</a>
</g>
</g>
<!-- Node8&#45;&gt;Node2 -->
<g id="edge10_Node000008_Node000002" class="edge">
<title>Node8&#45;&gt;Node2</title>
<g id="a_edge10_Node000008_Node000002"><a xlink:title=" ">
<path fill="none" stroke="#63b8ff" d="M217.12,-223.63C200.23,-216.59 180.11,-205.16 169,-188 137.3,-139.03 142.02,-66.05 146.68,-31.09"/>
<polygon fill="#63b8ff" stroke="#63b8ff" points="150.26,-31.82 148.27,-21.41 143.34,-30.79 150.26,-31.82"/>
</a>
</g>
</g>
<!-- Node8&#45;&gt;Node4 -->
<g id="edge11_Node000008_Node000004" class="edge">
<title>Node8&#45;&gt;Node4</title>
<g id="a_edge11_Node000008_Node000004"><a xlink:title=" ">
<path fill="none" stroke="#63b8ff" d="M280.67,-233.28C316.4,-231.54 370.87,-222.82 400,-188 437.77,-142.85 429.86,-66.91 423.33,-30.98"/>
<polygon fill="#63b8ff" stroke="#63b8ff" points="426.61,-30.56 421.24,-21.44 419.75,-31.93 426.61,-30.56"/>
</a>
</g>
</g>
<!-- Node9 -->
<g id="Node000009" class="node">
<title>Node9</title>
<g id="a_Node000009"><a xlink:title=" ">
<polygon fill="#e0e0e0" stroke="#999999" points="219.75,-188 178.25,-188 178.25,-168 219.75,-168 219.75,-188"/>
<text text-anchor="middle" x="199" y="-174.5" font-family="Helvetica,sans-Serif" font-size="10.00">vector</text>
</a>
</g>
</g>
<!-- Node8&#45;&gt;Node9 -->
<g id="edge12_Node000008_Node000009" class="edge">
<title>Node8&#45;&gt;Node9</title>
<g id="a_edge12_Node000008_Node000009"><a xlink:title=" ">
<path fill="none" stroke="#63b8ff" d="M237.81,-223.59C231.34,-216.16 222.13,-205.58 214.3,-196.58"/>
<polygon fill="#63b8ff" stroke="#63b8ff" points="216.3,-194.54 207.09,-189.3 211.02,-199.14 216.3,-194.54"/>
</a>
</g>
</g>
<!-- Node8&#45;&gt;Node10 -->
<g id="edge13_Node000008_Node000010" class="edge">
<title>Node8&#45;&gt;Node10</title>
<g id="a_edge13_Node000008_Node000010"><a xlink:title=" ">
<path fill="none" stroke="#63b8ff" d="M257.84,-223.59C267.79,-215.7 282.22,-204.24 293.96,-194.92"/>
<polygon fill="#63b8ff" stroke="#63b8ff" points="295.64,-197.26 301.29,-188.3 291.28,-191.78 295.64,-197.26"/>
</a>
</g>
</g>
<!-- Node10&#45;&gt;Node2 -->
<g id="edge14_Node000010_Node000002" class="edge">
<title>Node10&#45;&gt;Node2</title>
<g id="a_edge14_Node000010_Node000002"><a xlink:title=" ">
<path fill="none" stroke="#63b8ff" d="M304.48,-167.58C286.51,-149.78 246.4,-109.93 213,-76 197.08,-59.83 179.08,-41.23 166.41,-28.08"/>
<polygon fill="#63b8ff" stroke="#63b8ff" points="169.38,-26.08 159.93,-21.3 164.34,-30.93 169.38,-26.08"/>
</a>
</g>
</g>
<!-- Node11 -->
<g id="Node000011" class="node">
<title>Node11</title>
<g id="a_Node000011"><a xlink:href="../../d1/d1b/tarefa_8hpp.html" target="_top" xlink:title="Definição da classe Tarefa.">
<polygon fill="white" stroke="#666666" points="343.38,-132 284.62,-132 284.62,-112 343.38,-112 343.38,-132"/>
<text text-anchor="middle" x="314" y="-118.5" font-family="Helvetica,sans-Serif" font-size="10.00">tarefa.hpp</text>
</a>
</g>
</g>
<!-- Node10&#45;&gt;Node11 -->
<g id="edge15_Node000010_Node000011" class="edge">
<title>Node10&#45;&gt;Node11</title>
<g id="a_edge15_Node000010_Node000011"><a xlink:title=" ">
<path fill="none" stroke="#63b8ff" d="M314,-167.59C314,-160.86 314,-151.53 314,-143.15"/>
<polygon fill="#63b8ff" stroke="#63b8ff" points="317.5,-143.3 314,-133.3 310.5,-143.3 317.5,-143.3"/>
</a>
</g>
</g>
<!-- Node11&#45;&gt;Node2 -->
<g id="edge17_Node000011_Node000002" class="edge">
<title>Node11&#45;&gt;Node2</title>
<g id="a_edge17_Node000011_Node000002"><a xlink:title=" ">
<path fill="none" stroke="#63b8ff" d="M300.02,-111.62C271.7,-92.63 207.32,-49.45 172.83,-26.31"/>
<polygon fill="#63b8ff" stroke="#63b8ff" points="175.2,-23.02 164.95,-20.35 171.3,-28.83 175.2,-23.02"/>
</a>
</g>
</g>
<!-- Node11&#45;&gt;Node4 -->
<g id="edge16_Node000011_Node000004" class="edge">
<title>Node11&#45;&gt;Node4</title>
<g id="a_edge16_Node000011_Node000004"><a xlink:title=" ">
<path fill="none" stroke="#63b8ff" d="M322.95,-111.62C340.62,-93.11 380.2,-51.65 402.65,-28.13"/>
<polygon fill="#63b8ff" stroke="#63b8ff" points="404.7,-31.01 409.07,-21.35 399.63,-26.17 404.7,-31.01"/>
</a>
</g>
</g>
<!-- Node12 -->
<g id="Node000012" class="node">
<title>Node12</title>
<g id="a_Node000012"><a xlink:href="../../d9/da4/pessoa_8hpp.html" target="_top" xlink:title="Definição das classes Pessoa e Colaborador.">
<polygon fill="white" stroke="#666666" points="347.12,-76 280.88,-76 280.88,-56 347.12,-56 347.12,-76"/>
<text text-anchor="middle" x="314" y="-62.5" font-family="Helvetica,sans-Serif" font-size="10.00">pessoa.hpp</text>
</a>
</g>
</g>
<!-- Node11&#45;&gt;Node12 -->
<g id="edge18_Node000011_Node000012" class="edge">
<title>Node11&#45;&gt;Node12</title>
<g id="a_edge18_Node000011_Node000012"><a xlink:title=" ">
<path fill="none" stroke="#63b8ff" d="M314,-111.59C314,-104.86 314,-95.53 314,-87.15"/>
<polygon fill="#63b8ff" stroke="#63b8ff" points="317.5,-87.3 314,-77.3 310.5,-87.3 317.5,-87.3"/>
</a>
</g>
</g>
<!-- Node12&#45;&gt;Node2 -->
<g id="edge19_Node000012_Node000002" class="edge">
<title>Node12&#45;&gt;Node2</title>
<g id="a_edge19_Node000012_Node000002"><a xlink:title=" ">
<path fill="none" stroke="#63b8ff" d="M285.43,-55.59C258.3,-46.66 217.33,-33.17 187.57,-23.37"/>
<polygon fill="#63b8ff" stroke="#63b8ff" points="188.74,-19.74 178.15,-19.94 186.55,-26.39 188.74,-19.74"/>
</a>
</g>
</g>
<!-- Node12&#45;&gt;Node4 -->
<g id="edge20_Node000012_Node000004" class="edge">
<title>Node12&#45;&gt;Node4</title>
<g id="a_edge20_Node000012_Node000004"><a xlink:title=" ">
<path fill="none" stroke="#63b8ff" d="M332.29,-55.59C348.45,-47.28 372.27,-35.03 390.86,-25.47"/>
<polygon fill="#63b8ff" stroke="#63b8ff" points="392.28,-28.17 399.57,-20.48 389.07,-21.94 392.28,-28.17"/>
</a>
</g>
</g>
<!-- Node13&#45;&gt;Node2 -->
<g id="edge22_Node000013_Node000002" class="edge">
<title>Node13&#45;&gt;Node2</title>
<g id="a_edge22_Node000013_Node000002"><a xlink:title=" ">
<path fill="none" stroke="#63b8ff" d="M104.69,-279.63C94.67,-261.05 74,-217.98 74,-179 74,-179 74,-179 74,-121 74,-90.2 80.47,-81.32 98,-56 105.8,-44.73 117.07,-34.51 127.12,-26.67"/>
<polygon fill="#63b8ff" stroke="#63b8ff" points="128.93,-28.95 134.88,-20.18 124.76,-23.33 128.93,-28.95"/>
</a>
</g>
</g>
<!-- Node13&#45;&gt;Node8 -->
<g id="edge23_Node000013_Node000008" class="edge">
<title>Node13&#45;&gt;Node8</title>
<g id="a_edge23_Node000013_Node000008"><a xlink:title=" ">
<path fill="none" stroke="#63b8ff" d="M133.69,-279.59C155.4,-270.97 187.78,-258.12 212.2,-248.42"/>
<polygon fill="#63b8ff" stroke="#63b8ff" points="213.12,-251.42 221.13,-244.48 210.54,-244.92 213.12,-251.42"/>
</a>
</g>
</g>
</g>
</svg>

<g id="navigator" transform="translate(0 0)" fill="#404254">
  <rect fill="#f2f5e9" fill-opacity="0.5" stroke="#606060" stroke-width=".5" x="0" y="0" width="60" height="60"/>
  <use id="zoomplus" xlink:href="#zoomPlus" x="17" y="9" onmousedown="handleZoom(evt,'in')"/>
  <use id="zoomminus" xlink:href="#zoomMin" x="42" y="9" onmousedown="handleZoom(evt,'out')"/>
  <use id="reset" xlink:href="#resetDef" x="30" y="36" onmousedown="handleReset()"/>
   <use id="arrowup" xlink:href="#arrowUp" x="0" y="0" onmousedown="handlePan(0,-1)"/>
  <use id="arrowright" xlink:href="#arrowRight" x="0" y="0" onmousedown="handlePan(1,0)"/>
  <use id="arrowdown" xlink:href="#arrowDown" x="0" y="0" onmousedown="handlePan(0,1)"/>
  <use id="arrowleft" xlink:href="#arrowLeft" x="0" y="0" onmousedown="handlePan(-1,0)"/>
</g>
<svg viewBox="0 0 15 15" width="100%" height="30px" preserveAspectRatio="xMaxYMin meet">
 <g id="arrow_out" transform="scale(0.3 0.3)">
  <a xlink:href="main_8cpp__incl_org.svg" target="_base">
   <rect id="button" ry="5" rx="5" y="6" x="6" height="38" width="38"
        fill="#f2f5e9" fill-opacity="0.5" stroke="#606060" stroke-width="1.0"/>
   <path id="arrow"
     d="M 11.500037,31.436501 C 11.940474,20.09759 22.043105,11.32322 32.158766,21.979434 L 37.068811,17.246167 C 37.068811,17.246167 37.088388,32 37.088388,32 L 22.160133,31.978069 C 22.160133,31.978069 26.997745,27.140456 26.997745,27.140456 C 18.528582,18.264221 13.291696,25.230495 11.500037,31.436501 z"
     style="fill:#404040;"/>
  </a>
 </g>
</svg>

<style type='text/css'>
<![CDATA[
[data-mouse-over-selected='false'] { opacity: 0.7; }
[data-mouse-over-selected='true']  { opacity: 1.0; }
]]>
</style>
<script type="application/ecmascript"><![CDATA[
document.addEventListener('DOMContentLoaded', (event) => {
  highlightEdges();
  highlightAdjacentNodes();
});
]]></script>
</svg>
