<?xml version="1.0" encoding="UTF-8" standalone="no"?>
<!DOCTYPE svg PUBLIC "-//W3C//DTD SVG 1.1//EN"
 "http://www.w3.org/Graphics/SVG/1.1/DTD/svg11.dtd">
<!-- Generated by graphviz version 8.1.0 (20230707.0739)
 -->
<!-- Title: include/quadro.hpp Pages: 1 -->
<svg width="391pt" height="364pt"
 viewBox="0.00 0.00 391.00 364.00" xmlns="http://www.w3.org/2000/svg" xmlns:xlink="http://www.w3.org/1999/xlink">

<svg id="main" version="1.1" xmlns="http://www.w3.org/2000/svg" xmlns:xlink="http://www.w3.org/1999/xlink" xml:space="preserve" onload="init(evt)">
<style type="text/css"><![CDATA[
.node, .edge {opacity: 0.7;}
.node.selected, .edge.selected {opacity: 1;}
.edge:hover path { stroke: red; }
.edge:hover polygon { stroke: red; fill: red; }
]]></style>
<script type="application/ecmascript" xlink:href="../../svg.min.js"/>
<svg id="graph" class="graph">
<g id="graph0" class="graph" transform="scale(1 1) rotate(0) translate(4 360)">
<title>include/quadro.hpp</title>
<!-- Node1 -->
<g id="Node000001" class="node">
<title>Node1</title>
<g id="a_Node000001"><a xlink:title="Define a classe Quadro para representar um quadro de tarefas.">
<polygon fill="#999999" stroke="#666666" points="162.88,-356 65.12,-356 65.12,-336 162.88,-336 162.88,-356"/>
<text text-anchor="middle" x="114" y="-342.5" font-family="Helvetica,sans-Serif" font-size="10.00">include/quadro.hpp</text>
</a>
</g>
</g>
<!-- Node2 -->
<g id="Node000002" class="node">
<title>Node2</title>
<g id="a_Node000002"><a xlink:title=" ">
<polygon fill="#e0e0e0" stroke="#999999" points="281.75,-20 228.25,-20 228.25,0 281.75,0 281.75,-20"/>
<text text-anchor="middle" x="255" y="-6.5" font-family="Helvetica,sans-Serif" font-size="10.00">iostream</text>
</a>
</g>
</g>
<!-- Node1&#45;&gt;Node2 -->
<g id="edge1_Node000001_Node000002" class="edge">
<title>Node1&#45;&gt;Node2</title>
<g id="a_edge1_Node000001_Node000002"><a xlink:title=" ">
<path fill="none" stroke="#63b8ff" d="M108.39,-335.67C97.82,-317.16 76,-274.2 76,-235 76,-235 76,-235 76,-121 76,-55.28 164.68,-27.58 217.2,-16.94"/>
<polygon fill="#63b8ff" stroke="#63b8ff" points="217.64,-20.22 226.81,-14.92 216.34,-13.35 217.64,-20.22"/>
</a>
</g>
</g>
<!-- Node3 -->
<g id="Node000003" class="node">
<title>Node3</title>
<g id="a_Node000003"><a xlink:title=" ">
<polygon fill="#e0e0e0" stroke="#999999" points="96,-20 56,-20 56,0 96,0 96,-20"/>
<text text-anchor="middle" x="76" y="-6.5" font-family="Helvetica,sans-Serif" font-size="10.00">string</text>
</a>
</g>
</g>
<!-- Node1&#45;&gt;Node3 -->
<g id="edge2_Node000001_Node000003" class="edge">
<title>Node1&#45;&gt;Node3</title>
<g id="a_edge2_Node000001_Node000003"><a xlink:title=" ">
<path fill="none" stroke="#63b8ff" d="M91.48,-335.55C58.25,-319.91 0,-285.33 0,-235 0,-235 0,-235 0,-121 0,-82.07 32.63,-46.93 55.13,-27.33"/>
<polygon fill="#63b8ff" stroke="#63b8ff" points="57.02,-29.47 62.45,-20.37 52.53,-24.1 57.02,-29.47"/>
</a>
</g>
</g>
<!-- Node4 -->
<g id="Node000004" class="node">
<title>Node4</title>
<g id="a_Node000004"><a xlink:title=" ">
<polygon fill="#e0e0e0" stroke="#999999" points="353.75,-300 324.25,-300 324.25,-280 353.75,-280 353.75,-300"/>
<text text-anchor="middle" x="339" y="-286.5" font-family="Helvetica,sans-Serif" font-size="10.00">set</text>
</a>
</g>
</g>
<!-- Node1&#45;&gt;Node4 -->
<g id="edge3_Node000001_Node000004" class="edge">
<title>Node1&#45;&gt;Node4</title>
<g id="a_edge3_Node000001_Node000004"><a xlink:title=" ">
<path fill="none" stroke="#63b8ff" d="M163.23,-335.96C201.82,-328.43 257,-316.69 313.34,-300.17"/>
<polygon fill="#63b8ff" stroke="#63b8ff" points="314.29,-303.25 322.87,-297.03 312.29,-296.54 314.29,-303.25"/>
</a>
</g>
</g>
<!-- Node5 -->
<g id="Node000005" class="node">
<title>Node5</title>
<g id="a_Node000005"><a xlink:href="../../da/d7b/colunas_8hpp.html" target="_top" xlink:title="Definição das classes Coluna, ColunaNomeada e ColunaArquivo.">
<polygon fill="white" stroke="#666666" points="236.25,-244 167.75,-244 167.75,-224 236.25,-224 236.25,-244"/>
<text text-anchor="middle" x="202" y="-230.5" font-family="Helvetica,sans-Serif" font-size="10.00">colunas.hpp</text>
</a>
</g>
</g>
<!-- Node1&#45;&gt;Node5 -->
<g id="edge4_Node000001_Node000005" class="edge">
<title>Node1&#45;&gt;Node5</title>
<g id="a_edge4_Node000001_Node000005"><a xlink:title=" ">
<path fill="none" stroke="#63b8ff" d="M114.69,-335.71C116.12,-322.22 120.38,-296.99 133,-280 142.51,-267.19 156.84,-257 169.97,-249.58"/>
<polygon fill="#63b8ff" stroke="#63b8ff" points="171.48,-252.21 178.69,-244.44 168.21,-246.02 171.48,-252.21"/>
</a>
</g>
</g>
<!-- Node10 -->
<g id="Node000010" class="node">
<title>Node10</title>
<g id="a_Node000010"><a xlink:href="../../db/d5f/lista_simplesmente_encadeada_8hpp.html" target="_top" xlink:title="Define a classe Lista e a classe NoSimples para implementar uma lista simplesmente encadeada de colun...">
<polygon fill="white" stroke="#666666" points="305.88,-300 142.12,-300 142.12,-280 305.88,-280 305.88,-300"/>
<text text-anchor="middle" x="224" y="-286.5" font-family="Helvetica,sans-Serif" font-size="10.00">listaSimplesmenteEncadeada.hpp</text>
</a>
</g>
</g>
<!-- Node1&#45;&gt;Node10 -->
<g id="edge16_Node000001_Node000010" class="edge">
<title>Node1&#45;&gt;Node10</title>
<g id="a_edge16_Node000001_Node000010"><a xlink:title=" ">
<path fill="none" stroke="#63b8ff" d="M133.16,-335.59C150.25,-327.21 175.51,-314.8 195.06,-305.21"/>
<polygon fill="#63b8ff" stroke="#63b8ff" points="196.26,-308.03 203.69,-300.48 193.17,-301.74 196.26,-308.03"/>
</a>
</g>
</g>
<!-- Node5&#45;&gt;Node2 -->
<g id="edge5_Node000005_Node000002" class="edge">
<title>Node5&#45;&gt;Node2</title>
<g id="a_edge5_Node000005_Node000002"><a xlink:title=" ">
<path fill="none" stroke="#63b8ff" d="M236.59,-230.91C265.79,-227.09 305.95,-216.6 326,-188 362.81,-135.49 303.27,-61.11 272.11,-28.02"/>
<polygon fill="#63b8ff" stroke="#63b8ff" points="275,-25.93 265.53,-21.18 269.97,-30.8 275,-25.93"/>
</a>
</g>
</g>
<!-- Node5&#45;&gt;Node3 -->
<g id="edge6_Node000005_Node000003" class="edge">
<title>Node5&#45;&gt;Node3</title>
<g id="a_edge6_Node000005_Node000003"><a xlink:title=" ">
<path fill="none" stroke="#63b8ff" d="M167.33,-226.54C143.83,-220.44 113.74,-208.96 95,-188 54.69,-142.92 52.91,-115.79 62,-56 63.29,-47.52 65.87,-38.44 68.47,-30.68"/>
<polygon fill="#63b8ff" stroke="#63b8ff" points="72.05,-32.05 72.14,-21.46 65.46,-29.69 72.05,-32.05"/>
</a>
</g>
</g>
<!-- Node6 -->
<g id="Node000006" class="node">
<title>Node6</title>
<g id="a_Node000006"><a xlink:title=" ">
<polygon fill="#e0e0e0" stroke="#999999" points="316.75,-188 275.25,-188 275.25,-168 316.75,-168 316.75,-188"/>
<text text-anchor="middle" x="296" y="-174.5" font-family="Helvetica,sans-Serif" font-size="10.00">vector</text>
</a>
</g>
</g>
<!-- Node5&#45;&gt;Node6 -->
<g id="edge7_Node000005_Node000006" class="edge">
<title>Node5&#45;&gt;Node6</title>
<g id="a_edge7_Node000005_Node000006"><a xlink:title=" ">
<path fill="none" stroke="#63b8ff" d="M218.37,-223.59C232.71,-215.36 253.77,-203.26 270.35,-193.74"/>
<polygon fill="#63b8ff" stroke="#63b8ff" points="271.57,-196.5 278.5,-188.48 268.08,-190.43 271.57,-196.5"/>
</a>
</g>
</g>
<!-- Node7 -->
<g id="Node000007" class="node">
<title>Node7</title>
<g id="a_Node000007"><a xlink:href="../../d1/d7b/lista_duplamente_encadeada_8hpp.html" target="_top" xlink:title="Define a classe ListaDupla e a classe No para implementar uma lista duplamente encadeada de tarefas d...">
<polygon fill="white" stroke="#666666" points="257.62,-188 104.38,-188 104.38,-168 257.62,-168 257.62,-188"/>
<text text-anchor="middle" x="181" y="-174.5" font-family="Helvetica,sans-Serif" font-size="10.00">listaDuplamenteEncadeada.hpp</text>
</a>
</g>
</g>
<!-- Node5&#45;&gt;Node7 -->
<g id="edge8_Node000005_Node000007" class="edge">
<title>Node5&#45;&gt;Node7</title>
<g id="a_edge8_Node000005_Node000007"><a xlink:title=" ">
<path fill="none" stroke="#63b8ff" d="M198.34,-223.59C195.63,-216.63 191.84,-206.89 188.5,-198.29"/>
<polygon fill="#63b8ff" stroke="#63b8ff" points="191.5,-197.35 184.62,-189.3 184.98,-199.89 191.5,-197.35"/>
</a>
</g>
</g>
<!-- Node7&#45;&gt;Node2 -->
<g id="edge9_Node000007_Node000002" class="edge">
<title>Node7&#45;&gt;Node2</title>
<g id="a_edge9_Node000007_Node000002"><a xlink:title=" ">
<path fill="none" stroke="#63b8ff" d="M189.65,-167.57C197.32,-158.84 208.46,-145.24 216,-132 234.77,-99.04 245.92,-55.79 251.22,-30.93"/>
<polygon fill="#63b8ff" stroke="#63b8ff" points="254.81,-31.83 253.35,-21.33 247.95,-30.44 254.81,-31.83"/>
</a>
</g>
</g>
<!-- Node8 -->
<g id="Node000008" class="node">
<title>Node8</title>
<g id="a_Node000008"><a xlink:href="../../d1/d1b/tarefa_8hpp.html" target="_top" xlink:title="Definição da classe Tarefa.">
<polygon fill="white" stroke="#666666" points="207.38,-132 148.62,-132 148.62,-112 207.38,-112 207.38,-132"/>
<text text-anchor="middle" x="178" y="-118.5" font-family="Helvetica,sans-Serif" font-size="10.00">tarefa.hpp</text>
</a>
</g>
</g>
<!-- Node7&#45;&gt;Node8 -->
<g id="edge10_Node000007_Node000008" class="edge">
<title>Node7&#45;&gt;Node8</title>
<g id="a_edge10_Node000007_Node000008"><a xlink:title=" ">
<path fill="none" stroke="#63b8ff" d="M180.48,-167.59C180.1,-160.86 179.59,-151.53 179.12,-143.15"/>
<polygon fill="#63b8ff" stroke="#63b8ff" points="182.57,-143.09 178.52,-133.3 175.58,-143.48 182.57,-143.09"/>
</a>
</g>
</g>
<!-- Node8&#45;&gt;Node2 -->
<g id="edge12_Node000008_Node000002" class="edge">
<title>Node8&#45;&gt;Node2</title>
<g id="a_edge12_Node000008_Node000002"><a xlink:title=" ">
<path fill="none" stroke="#63b8ff" d="M186.9,-111.77C195.18,-102.95 207.61,-89.11 217,-76 227.69,-61.07 238.09,-42.96 245.3,-29.65"/>
<polygon fill="#63b8ff" stroke="#63b8ff" points="248.74,-31.63 250.34,-21.16 242.56,-28.35 248.74,-31.63"/>
</a>
</g>
</g>
<!-- Node8&#45;&gt;Node3 -->
<g id="edge11_Node000008_Node000003" class="edge">
<title>Node8&#45;&gt;Node3</title>
<g id="a_edge11_Node000008_Node000003"><a xlink:title=" ">
<path fill="none" stroke="#63b8ff" d="M168.16,-111.52C158.91,-102.54 144.78,-88.58 133,-76 118.33,-60.33 102.26,-41.89 90.94,-28.66"/>
<polygon fill="#63b8ff" stroke="#63b8ff" points="93.08,-26.77 83.93,-21.43 87.75,-31.31 93.08,-26.77"/>
</a>
</g>
</g>
<!-- Node9 -->
<g id="Node000009" class="node">
<title>Node9</title>
<g id="a_Node000009"><a xlink:href="../../d9/da4/pessoa_8hpp.html" target="_top" xlink:title="Definição das classes Pessoa e Colaborador.">
<polygon fill="white" stroke="#666666" points="208.12,-76 141.88,-76 141.88,-56 208.12,-56 208.12,-76"/>
<text text-anchor="middle" x="175" y="-62.5" font-family="Helvetica,sans-Serif" font-size="10.00">pessoa.hpp</text>
</a>
</g>
</g>
<!-- Node8&#45;&gt;Node9 -->
<g id="edge13_Node000008_Node000009" class="edge">
<title>Node8&#45;&gt;Node9</title>
<g id="a_edge13_Node000008_Node000009"><a xlink:title=" ">
<path fill="none" stroke="#63b8ff" d="M177.48,-111.59C177.1,-104.86 176.59,-95.53 176.12,-87.15"/>
<polygon fill="#63b8ff" stroke="#63b8ff" points="179.57,-87.09 175.52,-77.3 172.58,-87.48 179.57,-87.09"/>
</a>
</g>
</g>
<!-- Node9&#45;&gt;Node2 -->
<g id="edge14_Node000009_Node000002" class="edge">
<title>Node9&#45;&gt;Node2</title>
<g id="a_edge14_Node000009_Node000002"><a xlink:title=" ">
<path fill="none" stroke="#63b8ff" d="M188.93,-55.59C200.79,-47.59 218.06,-35.93 231.97,-26.54"/>
<polygon fill="#63b8ff" stroke="#63b8ff" points="233.63,-28.98 239.96,-20.48 229.71,-23.17 233.63,-28.98"/>
</a>
</g>
</g>
<!-- Node9&#45;&gt;Node3 -->
<g id="edge15_Node000009_Node000003" class="edge">
<title>Node9&#45;&gt;Node3</title>
<g id="a_edge15_Node000009_Node000003"><a xlink:title=" ">
<path fill="none" stroke="#63b8ff" d="M157.76,-55.59C142.66,-47.36 120.47,-35.26 103.02,-25.74"/>
<polygon fill="#63b8ff" stroke="#63b8ff" points="104.83,-22.2 94.38,-20.48 101.48,-28.34 104.83,-22.2"/>
</a>
</g>
</g>
<!-- Node10&#45;&gt;Node2 -->
<g id="edge17_Node000010_Node000002" class="edge">
<title>Node10&#45;&gt;Node2</title>
<g id="a_edge17_Node000010_Node000002"><a xlink:title=" ">
<path fill="none" stroke="#63b8ff" d="M265.36,-279.54C312.47,-266.02 383,-236.23 383,-179 383,-179 383,-179 383,-121 383,-72.59 329.68,-40.84 291.86,-24.42"/>
<polygon fill="#63b8ff" stroke="#63b8ff" points="293.72,-20.99 283.15,-20.38 291.04,-27.45 293.72,-20.99"/>
</a>
</g>
</g>
<!-- Node10&#45;&gt;Node5 -->
<g id="edge18_Node000010_Node000005" class="edge">
<title>Node10&#45;&gt;Node5</title>
<g id="a_edge18_Node000010_Node000005"><a xlink:title=" ">
<path fill="none" stroke="#63b8ff" d="M220.17,-279.59C217.33,-272.63 213.36,-262.89 209.86,-254.29"/>
<polygon fill="#63b8ff" stroke="#63b8ff" points="212.8,-253.24 205.79,-245.3 206.32,-255.88 212.8,-253.24"/>
</a>
</g>
</g>
</g>
</svg>
</svg>

<style type='text/css'>
<![CDATA[
[data-mouse-over-selected='false'] { opacity: 0.7; }
[data-mouse-over-selected='true']  { opacity: 1.0; }
]]>
</style>
<script type="application/ecmascript"><![CDATA[
document.addEventListener('DOMContentLoaded', (event) => {
  highlightEdges();
  highlightAdjacentNodes();
});
]]></script>
</svg>
