<?xml version="1.0" encoding="UTF-8" standalone="no"?>
<!DOCTYPE svg PUBLIC "-//W3C//DTD SVG 1.1//EN"
 "http://www.w3.org/Graphics/SVG/1.1/DTD/svg11.dtd">
<!-- Generated by graphviz version 8.1.0 (20230707.0739)
 -->
<!-- Title: Coluna Pages: 1 -->
<!--zoomable 700 -->

<svg id="main" version="1.1" xmlns="http://www.w3.org/2000/svg" xmlns:xlink="http://www.w3.org/1999/xlink" xml:space="preserve" onload="init(evt)">
<style type="text/css"><![CDATA[
.node, .edge {opacity: 0.7;}
.node.selected, .edge.selected {opacity: 1;}
.edge:hover path { stroke: red; }
.edge:hover polygon { stroke: red; fill: red; }
]]></style>

<defs>
  <circle id="rim" cx="0" cy="0" r="7"/>
  <circle id="rim2" cx="0" cy="0" r="3.5"/>
  <g id="zoomPlus">
    <use xlink:href="#rim" fill="#404040"><set attributeName="fill" to="#808080" begin="zoomplus.mouseover" end="zoomplus.mouseout"/></use>
    <path d="M-4,0h8M0,-4v8" fill="none" stroke="white" stroke-width="1.5" pointer-events="none"/>
  </g>
  <g id="zoomMin">
    <use xlink:href="#rim" fill="#404040"><set attributeName="fill" to="#808080" begin="zoomminus.mouseover" end="zoomminus.mouseout"/></use>
    <path d="M-4,0h8" fill="none" stroke="white" stroke-width="1.5" pointer-events="none"/>
  </g>
  <g id="arrowUp" transform="translate(30 24)">
    <use xlink:href="#rim"/>
    <path pointer-events="none" fill="none" stroke="white" stroke-width="1.5" d="M0,-3.0v7 M-2.5,-0.5L0,-3.0L2.5,-0.5"/>
  </g>
  <g id="arrowRight" transform="rotate(90) translate(36 -43)">
    <use xlink:href="#rim"/>
    <path pointer-events="none" fill="none" stroke="white" stroke-width="1.5" d="M0,-3.0v7 M-2.5,-0.5L0,-3.0L2.5,-0.5"/>
  </g>
  <g id="arrowDown" transform="rotate(180) translate(-30 -48)">
    <use xlink:href="#rim"/>
    <path pointer-events="none" fill="none" stroke="white" stroke-width="1.5" d="M0,-3.0v7 M-2.5,-0.5L0,-3.0L2.5,-0.5"/>
  </g>
  <g id="arrowLeft" transform="rotate(270) translate(-36 17)">
    <use xlink:href="#rim"/>
    <path pointer-events="none" fill="none" stroke="white" stroke-width="1.5" d="M0,-3.0v7 M-2.5,-0.5L0,-3.0L2.5,-0.5"/>
  </g>
  <g id="resetDef">
    <use xlink:href="#rim2" fill="#404040"><set attributeName="fill" to="#808080" begin="reset.mouseover" end="reset.mouseout"/></use>
  </g>
</defs>
<script type="application/ecmascript">
var viewWidth = 332;
var viewHeight = 700;
var sectionId = 'dynsection-0';
</script>
<script type="application/ecmascript" xlink:href="../../svg.min.js"/>
<svg id="graph" class="graph">
<g id="viewport">
<title>Coluna</title>
<!-- Node1 -->
<g id="Node000001" class="node">
<title>Node1</title>
<g id="a_Node000001"><a xlink:title="Classe abstrata que representa uma coluna de um quadro de tarefas.">
<polygon fill="#999999" stroke="none" points="250.5,-692 72.5,-692 72.5,-380 250.5,-380 250.5,-692"/>
<text text-anchor="start" x="146.5" y="-678.5" font-family="Helvetica,sans-Serif" font-size="10.00">Coluna</text>
<text text-anchor="start" x="76.88" y="-662.5" font-family="Helvetica,sans-Serif" font-size="10.00">#</text>
<text text-anchor="start" x="86.5" y="-662.5" font-family="Helvetica,sans-Serif" font-size="10.00">ListaDupla lista</text>
<text text-anchor="start" x="76.5" y="-646.5" font-family="Helvetica,sans-Serif" font-size="10.00">+</text>
<text text-anchor="start" x="86.5" y="-646.5" font-family="Helvetica,sans-Serif" font-size="10.00">virtual ~Coluna()</text>
<text text-anchor="start" x="76.5" y="-630.5" font-family="Helvetica,sans-Serif" font-size="10.00">+</text>
<text text-anchor="start" x="86.5" y="-630.5" font-family="Helvetica,sans-Serif" font-size="10.00">virtual void inserirTarefa</text>
<text text-anchor="start" x="86.5" y="-618.5" font-family="Helvetica,sans-Serif" font-size="10.00">(Tarefa *t)=0</text>
<text text-anchor="start" x="76.5" y="-602.5" font-family="Helvetica,sans-Serif" font-size="10.00">+</text>
<text text-anchor="start" x="86.5" y="-602.5" font-family="Helvetica,sans-Serif" font-size="10.00">virtual void removerTarefa</text>
<text text-anchor="start" x="86.5" y="-590.5" font-family="Helvetica,sans-Serif" font-size="10.00">(int indice)=0</text>
<text text-anchor="start" x="76.5" y="-574.5" font-family="Helvetica,sans-Serif" font-size="10.00">+</text>
<text text-anchor="start" x="86.5" y="-574.5" font-family="Helvetica,sans-Serif" font-size="10.00">virtual void imprimir</text>
<text text-anchor="start" x="86.5" y="-562.5" font-family="Helvetica,sans-Serif" font-size="10.00">() const =0</text>
<text text-anchor="start" x="76.5" y="-546.5" font-family="Helvetica,sans-Serif" font-size="10.00">+</text>
<text text-anchor="start" x="86.5" y="-546.5" font-family="Helvetica,sans-Serif" font-size="10.00">virtual void moverTarefa</text>
<text text-anchor="start" x="86.5" y="-534.5" font-family="Helvetica,sans-Serif" font-size="10.00">(int indice, Coluna *colunaDestino)=0</text>
<text text-anchor="start" x="76.5" y="-518.5" font-family="Helvetica,sans-Serif" font-size="10.00">+</text>
<text text-anchor="start" x="86.5" y="-518.5" font-family="Helvetica,sans-Serif" font-size="10.00">virtual Tarefa * obterTarefa</text>
<text text-anchor="start" x="86.5" y="-506.5" font-family="Helvetica,sans-Serif" font-size="10.00">(int indice)=0</text>
<text text-anchor="start" x="76.5" y="-490.5" font-family="Helvetica,sans-Serif" font-size="10.00">+</text>
<text text-anchor="start" x="86.5" y="-490.5" font-family="Helvetica,sans-Serif" font-size="10.00">virtual int getTamanho()=0</text>
<text text-anchor="start" x="76.5" y="-474.5" font-family="Helvetica,sans-Serif" font-size="10.00">+</text>
<text text-anchor="start" x="86.5" y="-474.5" font-family="Helvetica,sans-Serif" font-size="10.00">virtual string getNome()=0</text>
<text text-anchor="start" x="76.5" y="-458.5" font-family="Helvetica,sans-Serif" font-size="10.00">+</text>
<text text-anchor="start" x="86.5" y="-458.5" font-family="Helvetica,sans-Serif" font-size="10.00">virtual string getDescricao()=0</text>
<text text-anchor="start" x="76.5" y="-442.5" font-family="Helvetica,sans-Serif" font-size="10.00">+</text>
<text text-anchor="start" x="86.5" y="-442.5" font-family="Helvetica,sans-Serif" font-size="10.00">virtual void setNome</text>
<text text-anchor="start" x="86.5" y="-430.5" font-family="Helvetica,sans-Serif" font-size="10.00">(string n)=0</text>
<text text-anchor="start" x="76.5" y="-414.5" font-family="Helvetica,sans-Serif" font-size="10.00">+</text>
<text text-anchor="start" x="86.5" y="-414.5" font-family="Helvetica,sans-Serif" font-size="10.00">virtual void setDescricao</text>
<text text-anchor="start" x="86.5" y="-402.5" font-family="Helvetica,sans-Serif" font-size="10.00">(string d)=0</text>
<text text-anchor="start" x="76.5" y="-386.5" font-family="Helvetica,sans-Serif" font-size="10.00">+</text>
<text text-anchor="start" x="86.5" y="-386.5" font-family="Helvetica,sans-Serif" font-size="10.00">virtual void ordenar()=0</text>
<polygon fill="#666666" stroke="#666666" points="72.5,-674 72.5,-674 250.5,-674 250.5,-674 72.5,-674"/>
<polygon fill="#666666" stroke="#666666" points="72.5,-658 72.5,-658 84.5,-658 84.5,-658 72.5,-658"/>
<polygon fill="#666666" stroke="#666666" points="84.5,-658 84.5,-658 250.5,-658 250.5,-658 84.5,-658"/>
<polygon fill="none" stroke="#666666" points="72.5,-380 72.5,-692 250.5,-692 250.5,-380 72.5,-380"/>
</a>
</g>
</g>
<!-- Node2 -->
<g id="Node000002" class="node">
<title>Node2</title>
<g id="a_Node000002"><a xlink:href="../../d0/d4e/class_coluna_arquivo.html" target="_top" xlink:title="Classe que representa uma coluna de um quadro de tarefas do tipo &quot;Arquivo&quot;.">
<polygon fill="white" stroke="none" points="153,-344 0,-344 0,0 153,0 153,-344"/>
<text text-anchor="start" x="45.75" y="-330.5" font-family="Helvetica,sans-Serif" font-size="10.00">ColunaArquivo</text>
<text text-anchor="start" x="75" y="-314.5" font-family="Helvetica,sans-Serif" font-size="10.00"> </text>
<text text-anchor="start" x="4" y="-298.5" font-family="Helvetica,sans-Serif" font-size="10.00">+</text>
<text text-anchor="start" x="14" y="-298.5" font-family="Helvetica,sans-Serif" font-size="10.00">ColunaArquivo()</text>
<text text-anchor="start" x="4" y="-282.5" font-family="Helvetica,sans-Serif" font-size="10.00">+</text>
<text text-anchor="start" x="14" y="-282.5" font-family="Helvetica,sans-Serif" font-size="10.00">ColunaArquivo(string</text>
<text text-anchor="start" x="14" y="-270.5" font-family="Helvetica,sans-Serif" font-size="10.00"> n, string d)</text>
<text text-anchor="start" x="4" y="-254.5" font-family="Helvetica,sans-Serif" font-size="10.00">+</text>
<text text-anchor="start" x="14" y="-254.5" font-family="Helvetica,sans-Serif" font-size="10.00">~ColunaArquivo()</text>
<text text-anchor="start" x="4" y="-238.5" font-family="Helvetica,sans-Serif" font-size="10.00">+</text>
<text text-anchor="start" x="14" y="-238.5" font-family="Helvetica,sans-Serif" font-size="10.00">void inserirTarefa</text>
<text text-anchor="start" x="14" y="-226.5" font-family="Helvetica,sans-Serif" font-size="10.00">(Tarefa *t) override</text>
<text text-anchor="start" x="4" y="-210.5" font-family="Helvetica,sans-Serif" font-size="10.00">+</text>
<text text-anchor="start" x="14" y="-210.5" font-family="Helvetica,sans-Serif" font-size="10.00">void removerTarefa</text>
<text text-anchor="start" x="14" y="-198.5" font-family="Helvetica,sans-Serif" font-size="10.00">(int indice) override</text>
<text text-anchor="start" x="4" y="-182.5" font-family="Helvetica,sans-Serif" font-size="10.00">+</text>
<text text-anchor="start" x="14" y="-182.5" font-family="Helvetica,sans-Serif" font-size="10.00">Tarefa * obterTarefa</text>
<text text-anchor="start" x="14" y="-170.5" font-family="Helvetica,sans-Serif" font-size="10.00">(int indice) override</text>
<text text-anchor="start" x="4" y="-154.5" font-family="Helvetica,sans-Serif" font-size="10.00">+</text>
<text text-anchor="start" x="14" y="-154.5" font-family="Helvetica,sans-Serif" font-size="10.00">void moverTarefa(int</text>
<text text-anchor="start" x="14" y="-142.5" font-family="Helvetica,sans-Serif" font-size="10.00"> indice, Coluna *colunaDestino)</text>
<text text-anchor="start" x="14" y="-130.5" font-family="Helvetica,sans-Serif" font-size="10.00"> override</text>
<text text-anchor="start" x="4" y="-114.5" font-family="Helvetica,sans-Serif" font-size="10.00">+</text>
<text text-anchor="start" x="14" y="-114.5" font-family="Helvetica,sans-Serif" font-size="10.00">string getNome() override</text>
<text text-anchor="start" x="4" y="-98.5" font-family="Helvetica,sans-Serif" font-size="10.00">+</text>
<text text-anchor="start" x="14" y="-98.5" font-family="Helvetica,sans-Serif" font-size="10.00">string getDescricao()</text>
<text text-anchor="start" x="4" y="-82.5" font-family="Helvetica,sans-Serif" font-size="10.00">+</text>
<text text-anchor="start" x="14" y="-82.5" font-family="Helvetica,sans-Serif" font-size="10.00">void setNome(string n)</text>
<text text-anchor="start" x="4" y="-66.5" font-family="Helvetica,sans-Serif" font-size="10.00">+</text>
<text text-anchor="start" x="14" y="-66.5" font-family="Helvetica,sans-Serif" font-size="10.00">void setDescricao(string d)</text>
<text text-anchor="start" x="4" y="-50.5" font-family="Helvetica,sans-Serif" font-size="10.00">+</text>
<text text-anchor="start" x="14" y="-50.5" font-family="Helvetica,sans-Serif" font-size="10.00">int getTamanho()</text>
<text text-anchor="start" x="4" y="-34.5" font-family="Helvetica,sans-Serif" font-size="10.00">+</text>
<text text-anchor="start" x="14" y="-34.5" font-family="Helvetica,sans-Serif" font-size="10.00">void imprimir() const</text>
<text text-anchor="start" x="14" y="-22.5" font-family="Helvetica,sans-Serif" font-size="10.00"> override</text>
<text text-anchor="start" x="4" y="-6.5" font-family="Helvetica,sans-Serif" font-size="10.00">+</text>
<text text-anchor="start" x="14" y="-6.5" font-family="Helvetica,sans-Serif" font-size="10.00">void ordenar()</text>
<polygon fill="#666666" stroke="#666666" points="0,-326 0,-326 153,-326 153,-326 0,-326"/>
<polygon fill="#666666" stroke="#666666" points="0,-310 0,-310 153,-310 153,-310 0,-310"/>
<polygon fill="none" stroke="#666666" points="0,0 0,-344 153,-344 153,0 0,0"/>
</a>
</g>
</g>
<!-- Node1&#45;&gt;Node2 -->
<g id="edge1_Node000001_Node000002" class="edge">
<title>Node1&#45;&gt;Node2</title>
<g id="a_edge1_Node000001_Node000002"><a xlink:title=" ">
<path fill="none" stroke="#63b8ff" d="M122.69,-369.72C120.68,-361.14 118.65,-352.51 116.63,-343.91"/>
<polygon fill="none" stroke="#63b8ff" points="119.45,-370.23 125.14,-379.17 126.27,-368.63 119.45,-370.23"/>
</a>
</g>
</g>
<!-- Node3 -->
<g id="Node000003" class="node">
<title>Node3</title>
<g id="a_Node000003"><a xlink:href="../../de/d1c/class_coluna_nomeada.html" target="_top" xlink:title="Classe que representa uma coluna nomeada de um quadro de tarefas.">
<polygon fill="white" stroke="none" points="324,-328 171,-328 171,-16 324,-16 324,-328"/>
<text text-anchor="start" x="211.88" y="-314.5" font-family="Helvetica,sans-Serif" font-size="10.00">ColunaNomeada</text>
<text text-anchor="start" x="246" y="-298.5" font-family="Helvetica,sans-Serif" font-size="10.00"> </text>
<text text-anchor="start" x="175" y="-282.5" font-family="Helvetica,sans-Serif" font-size="10.00">+</text>
<text text-anchor="start" x="185" y="-282.5" font-family="Helvetica,sans-Serif" font-size="10.00">ColunaNomeada(string</text>
<text text-anchor="start" x="185" y="-270.5" font-family="Helvetica,sans-Serif" font-size="10.00"> n, string d)</text>
<text text-anchor="start" x="175" y="-254.5" font-family="Helvetica,sans-Serif" font-size="10.00">+</text>
<text text-anchor="start" x="185" y="-254.5" font-family="Helvetica,sans-Serif" font-size="10.00">void inserirTarefa</text>
<text text-anchor="start" x="185" y="-242.5" font-family="Helvetica,sans-Serif" font-size="10.00">(Tarefa *t) override</text>
<text text-anchor="start" x="175" y="-226.5" font-family="Helvetica,sans-Serif" font-size="10.00">+</text>
<text text-anchor="start" x="185" y="-226.5" font-family="Helvetica,sans-Serif" font-size="10.00">void removerTarefa</text>
<text text-anchor="start" x="185" y="-214.5" font-family="Helvetica,sans-Serif" font-size="10.00">(int indice) override</text>
<text text-anchor="start" x="175" y="-198.5" font-family="Helvetica,sans-Serif" font-size="10.00">+</text>
<text text-anchor="start" x="185" y="-198.5" font-family="Helvetica,sans-Serif" font-size="10.00">Tarefa * obterTarefa</text>
<text text-anchor="start" x="185" y="-186.5" font-family="Helvetica,sans-Serif" font-size="10.00">(int indice) override</text>
<text text-anchor="start" x="175" y="-170.5" font-family="Helvetica,sans-Serif" font-size="10.00">+</text>
<text text-anchor="start" x="185" y="-170.5" font-family="Helvetica,sans-Serif" font-size="10.00">void moverTarefa(int</text>
<text text-anchor="start" x="185" y="-158.5" font-family="Helvetica,sans-Serif" font-size="10.00"> indice, Coluna *colunaDestino)</text>
<text text-anchor="start" x="185" y="-146.5" font-family="Helvetica,sans-Serif" font-size="10.00"> override</text>
<text text-anchor="start" x="175" y="-130.5" font-family="Helvetica,sans-Serif" font-size="10.00">+</text>
<text text-anchor="start" x="185" y="-130.5" font-family="Helvetica,sans-Serif" font-size="10.00">void imprimir() const</text>
<text text-anchor="start" x="185" y="-118.5" font-family="Helvetica,sans-Serif" font-size="10.00"> override</text>
<text text-anchor="start" x="175" y="-102.5" font-family="Helvetica,sans-Serif" font-size="10.00">+</text>
<text text-anchor="start" x="185" y="-102.5" font-family="Helvetica,sans-Serif" font-size="10.00">void ordenar()</text>
<text text-anchor="start" x="175" y="-86.5" font-family="Helvetica,sans-Serif" font-size="10.00">+</text>
<text text-anchor="start" x="185" y="-86.5" font-family="Helvetica,sans-Serif" font-size="10.00">string getNome() override</text>
<text text-anchor="start" x="175" y="-70.5" font-family="Helvetica,sans-Serif" font-size="10.00">+</text>
<text text-anchor="start" x="185" y="-70.5" font-family="Helvetica,sans-Serif" font-size="10.00">string getDescricao()</text>
<text text-anchor="start" x="175" y="-54.5" font-family="Helvetica,sans-Serif" font-size="10.00">+</text>
<text text-anchor="start" x="185" y="-54.5" font-family="Helvetica,sans-Serif" font-size="10.00">void setNome(string n)</text>
<text text-anchor="start" x="175" y="-38.5" font-family="Helvetica,sans-Serif" font-size="10.00">+</text>
<text text-anchor="start" x="185" y="-38.5" font-family="Helvetica,sans-Serif" font-size="10.00">void setDescricao(string d)</text>
<text text-anchor="start" x="175" y="-22.5" font-family="Helvetica,sans-Serif" font-size="10.00">+</text>
<text text-anchor="start" x="185" y="-22.5" font-family="Helvetica,sans-Serif" font-size="10.00">int getTamanho()</text>
<polygon fill="#666666" stroke="#666666" points="171,-310 171,-310 324,-310 324,-310 171,-310"/>
<polygon fill="#666666" stroke="#666666" points="171,-294 171,-294 324,-294 324,-294 171,-294"/>
<polygon fill="none" stroke="#666666" points="171,-16 171,-328 324,-328 324,-16 171,-16"/>
</a>
</g>
</g>
<!-- Node1&#45;&gt;Node3 -->
<g id="edge2_Node000001_Node000003" class="edge">
<title>Node1&#45;&gt;Node3</title>
<g id="a_edge2_Node000001_Node000003"><a xlink:title=" ">
<path fill="none" stroke="#63b8ff" d="M200.79,-369.6C204.09,-355.74 207.41,-341.76 210.68,-327.99"/>
<polygon fill="none" stroke="#63b8ff" points="197.19,-368.63 198.28,-379.17 204,-370.25 197.19,-368.63"/>
</a>
</g>
</g>
</g>
</svg>

<g id="navigator" transform="translate(0 0)" fill="#404254">
  <rect fill="#f2f5e9" fill-opacity="0.5" stroke="#606060" stroke-width=".5" x="0" y="0" width="60" height="60"/>
  <use id="zoomplus" xlink:href="#zoomPlus" x="17" y="9" onmousedown="handleZoom(evt,'in')"/>
  <use id="zoomminus" xlink:href="#zoomMin" x="42" y="9" onmousedown="handleZoom(evt,'out')"/>
  <use id="reset" xlink:href="#resetDef" x="30" y="36" onmousedown="handleReset()"/>
   <use id="arrowup" xlink:href="#arrowUp" x="0" y="0" onmousedown="handlePan(0,-1)"/>
  <use id="arrowright" xlink:href="#arrowRight" x="0" y="0" onmousedown="handlePan(1,0)"/>
  <use id="arrowdown" xlink:href="#arrowDown" x="0" y="0" onmousedown="handlePan(0,1)"/>
  <use id="arrowleft" xlink:href="#arrowLeft" x="0" y="0" onmousedown="handlePan(-1,0)"/>
</g>
<svg viewBox="0 0 15 15" width="100%" height="30px" preserveAspectRatio="xMaxYMin meet">
 <g id="arrow_out" transform="scale(0.3 0.3)">
  <a xlink:href="class_coluna__inherit__graph_org.svg" target="_base">
   <rect id="button" ry="5" rx="5" y="6" x="6" height="38" width="38"
        fill="#f2f5e9" fill-opacity="0.5" stroke="#606060" stroke-width="1.0"/>
   <path id="arrow"
     d="M 11.500037,31.436501 C 11.940474,20.09759 22.043105,11.32322 32.158766,21.979434 L 37.068811,17.246167 C 37.068811,17.246167 37.088388,32 37.088388,32 L 22.160133,31.978069 C 22.160133,31.978069 26.997745,27.140456 26.997745,27.140456 C 18.528582,18.264221 13.291696,25.230495 11.500037,31.436501 z"
     style="fill:#404040;"/>
  </a>
 </g>
</svg>

<style type='text/css'>
<![CDATA[
[data-mouse-over-selected='false'] { opacity: 0.7; }
[data-mouse-over-selected='true']  { opacity: 1.0; }
]]>
</style>
<script type="application/ecmascript"><![CDATA[
document.addEventListener('DOMContentLoaded', (event) => {
  highlightEdges();
  highlightAdjacentNodes();
});
]]></script>
</svg>
