<?xml version="1.0" encoding="UTF-8" standalone="no"?>
<!DOCTYPE svg PUBLIC "-//W3C//DTD SVG 1.1//EN"
 "http://www.w3.org/Graphics/SVG/1.1/DTD/svg11.dtd">
<!-- Generated by graphviz version 8.1.0 (20230707.0739)
 -->
<!-- Title: editarTarefa Pages: 1 -->
<svg width="540pt" height="446pt"
 viewBox="0.00 0.00 540.00 446.00" xmlns="http://www.w3.org/2000/svg" xmlns:xlink="http://www.w3.org/1999/xlink">
<g id="graph0" class="graph" transform="scale(1 1) rotate(0) translate(4 442)">
<title>editarTarefa</title>
<!-- Node1 -->
<g id="Node000001" class="node">
<title>Node1</title>
<g id="a_Node000001"><a xlink:title="Edita uma tarefa existente no quadro KanBan.">
<polygon fill="#999999" stroke="#666666" points="66.25,-229 0,-229 0,-209 66.25,-209 66.25,-229"/>
<text text-anchor="middle" x="33.12" y="-215.5" font-family="Helvetica,sans-Serif" font-size="10.00">editarTarefa</text>
</a>
</g>
</g>
<!-- Node2 -->
<g id="Node000002" class="node">
<title>Node2</title>
<g id="a_Node000002"><a xlink:href="../../df/d0a/main_8cpp.html#a2faf12c27b7e1711848f39f038c45f70" target="_top" xlink:title="Realiza uma busca binária em uma equipe de colaboradores pelo ID.">
<polygon fill="white" stroke="#666666" points="196.62,-438 124.38,-438 124.38,-418 196.62,-418 196.62,-438"/>
<text text-anchor="middle" x="160.5" y="-424.5" font-family="Helvetica,sans-Serif" font-size="10.00">buscaBinaria</text>
</a>
</g>
</g>
<!-- Node1&#45;&gt;Node2 -->
<g id="edge1_Node000001_Node000002" class="edge">
<title>Node1&#45;&gt;Node2</title>
<g id="a_edge1_Node000001_Node000002"><a xlink:title=" ">
<path fill="none" stroke="#63b8ff" d="M34.76,-229.31C37.26,-260.86 49.1,-357.1 102.25,-409 105.72,-412.38 109.8,-415.17 114.16,-417.45"/>
<polygon fill="#63b8ff" stroke="#63b8ff" points="112.46,-420.96 123.03,-421.71 115.23,-414.53 112.46,-420.96"/>
</a>
</g>
</g>
<!-- Node3 -->
<g id="Node000003" class="node">
<title>Node3</title>
<g id="a_Node000003"><a xlink:href="../../df/d0a/main_8cpp.html#a20bbd4d45e3f01305dd709f5a9cc9952" target="_top" xlink:title="Limpa o buffer do console.">
<polygon fill="white" stroke="#666666" points="191.38,-400 129.62,-400 129.62,-380 191.38,-380 191.38,-400"/>
<text text-anchor="middle" x="160.5" y="-386.5" font-family="Helvetica,sans-Serif" font-size="10.00">clearBuffer</text>
</a>
</g>
</g>
<!-- Node1&#45;&gt;Node3 -->
<g id="edge2_Node000001_Node000003" class="edge">
<title>Node1&#45;&gt;Node3</title>
<g id="a_edge2_Node000001_Node000003"><a xlink:title=" ">
<path fill="none" stroke="#63b8ff" d="M35.78,-229.16C40.71,-256.25 57.84,-330.86 102.25,-371 107.08,-375.36 112.93,-378.73 119.04,-381.32"/>
<polygon fill="#63b8ff" stroke="#63b8ff" points="117.81,-384.95 128.4,-385 120.15,-378.36 117.81,-384.95"/>
</a>
</g>
</g>
<!-- Node4 -->
<g id="Node000004" class="node">
<title>Node4</title>
<g id="a_Node000004"><a xlink:href="../../d1/d13/class_quadro.html#a1cc0b576c7787cc7c82019a3fd424822" target="_top" xlink:title="Obtém a equipe de colaboradores do quadro.">
<polygon fill="white" stroke="#666666" points="209,-362 112,-362 112,-342 209,-342 209,-362"/>
<text text-anchor="middle" x="160.5" y="-348.5" font-family="Helvetica,sans-Serif" font-size="10.00">Quadro::getEquipe</text>
</a>
</g>
</g>
<!-- Node1&#45;&gt;Node4 -->
<g id="edge3_Node000001_Node000004" class="edge">
<title>Node1&#45;&gt;Node4</title>
<g id="a_edge3_Node000001_Node000004"><a xlink:title=" ">
<path fill="none" stroke="#63b8ff" d="M38.11,-229.49C46.7,-250.83 68.93,-299.67 102.25,-328 106.2,-331.36 110.68,-334.3 115.37,-336.87"/>
<polygon fill="#63b8ff" stroke="#63b8ff" points="113.62,-340.39 124.14,-341.61 116.68,-334.1 113.62,-340.39"/>
</a>
</g>
</g>
<!-- Node5 -->
<g id="Node000005" class="node">
<title>Node5</title>
<g id="a_Node000005"><a xlink:href="../../d1/d13/class_quadro.html#aad88cee2be59e368c4c09166a7777fb9" target="_top" xlink:title="Obtém o número de colunas do quadro.">
<polygon fill="white" stroke="#666666" points="390.75,-324 254.75,-324 254.75,-304 390.75,-304 390.75,-324"/>
<text text-anchor="middle" x="322.75" y="-310.5" font-family="Helvetica,sans-Serif" font-size="10.00">Quadro::getNumeroColunas</text>
</a>
</g>
</g>
<!-- Node1&#45;&gt;Node5 -->
<g id="edge4_Node000001_Node000005" class="edge">
<title>Node1&#45;&gt;Node5</title>
<g id="a_edge4_Node000001_Node000005"><a xlink:title=" ">
<path fill="none" stroke="#63b8ff" d="M39.84,-229.36C49.92,-246.47 72.61,-280.2 102.25,-295 145.63,-316.66 199.86,-321.53 243.57,-320.93"/>
<polygon fill="#63b8ff" stroke="#63b8ff" points="243.53,-324.4 253.44,-320.66 243.36,-317.41 243.53,-324.4"/>
</a>
</g>
</g>
<!-- Node7 -->
<g id="Node000007" class="node">
<title>Node7</title>
<g id="a_Node000007"><a xlink:href="../../d3/d3c/class_coluna.html#a98df8d945c71c2cdc352d610325fea02" target="_top" xlink:title="Obtém o tamanho da coluna, ou seja, a quantidade de tarefas nela contidas.">
<polygon fill="white" stroke="#666666" points="213.12,-286 107.88,-286 107.88,-266 213.12,-266 213.12,-286"/>
<text text-anchor="middle" x="160.5" y="-272.5" font-family="Helvetica,sans-Serif" font-size="10.00">Coluna::getTamanho</text>
</a>
</g>
</g>
<!-- Node1&#45;&gt;Node7 -->
<g id="edge6_Node000001_Node000007" class="edge">
<title>Node1&#45;&gt;Node7</title>
<g id="a_edge6_Node000001_Node000007"><a xlink:title=" ">
<path fill="none" stroke="#63b8ff" d="M50.75,-229.44C64.27,-237.64 84.03,-248.98 102.25,-257 106.13,-258.71 110.21,-260.35 114.34,-261.9"/>
<polygon fill="#63b8ff" stroke="#63b8ff" points="113,-265.5 123.59,-265.58 115.36,-258.91 113,-265.5"/>
</a>
</g>
</g>
<!-- Node8 -->
<g id="Node000008" class="node">
<title>Node8</title>
<g id="a_Node000008"><a xlink:href="../../d1/d13/class_quadro.html#a1d27dcd2c84b1742c7ebd4cb0f82a704" target="_top" xlink:title="Imprime as informações do quadro.">
<polygon fill="white" stroke="#666666" points="204.5,-248 116.5,-248 116.5,-228 204.5,-228 204.5,-248"/>
<text text-anchor="middle" x="160.5" y="-234.5" font-family="Helvetica,sans-Serif" font-size="10.00">Quadro::imprimir</text>
</a>
</g>
</g>
<!-- Node1&#45;&gt;Node8 -->
<g id="edge7_Node000001_Node000008" class="edge">
<title>Node1&#45;&gt;Node8</title>
<g id="a_edge7_Node000001_Node000008"><a xlink:title=" ">
<path fill="none" stroke="#63b8ff" d="M66.74,-223.94C78.53,-225.73 92.18,-227.8 105.32,-229.79"/>
<polygon fill="#63b8ff" stroke="#63b8ff" points="104.78,-233.4 115.19,-231.44 105.83,-226.48 104.78,-233.4"/>
</a>
</g>
</g>
<!-- Node11 -->
<g id="Node000011" class="node">
<title>Node11</title>
<g id="a_Node000011"><a xlink:href="../../d1/d13/class_quadro.html#acdcb5194cb4b20e50f6211df473b59f2" target="_top" xlink:title="Obtém uma coluna do quadro pelo índice.">
<polygon fill="white" stroke="#666666" points="375.38,-210 270.12,-210 270.12,-190 375.38,-190 375.38,-210"/>
<text text-anchor="middle" x="322.75" y="-196.5" font-family="Helvetica,sans-Serif" font-size="10.00">Quadro::obterColuna</text>
</a>
</g>
</g>
<!-- Node1&#45;&gt;Node11 -->
<g id="edge13_Node000001_Node000011" class="edge">
<title>Node1&#45;&gt;Node11</title>
<g id="a_edge13_Node000001_Node000011"><a xlink:title=" ">
<path fill="none" stroke="#63b8ff" d="M66.56,-216.86C113.1,-213.78 199.74,-208.06 259.04,-204.14"/>
<polygon fill="#63b8ff" stroke="#63b8ff" points="259.03,-207.58 268.78,-203.43 258.57,-200.6 259.03,-207.58"/>
</a>
</g>
</g>
<!-- Node13 -->
<g id="Node000013" class="node">
<title>Node13</title>
<g id="a_Node000013"><a xlink:href="../../d3/d3c/class_coluna.html#a1b697b50e065b83454e023c4ab24c4ef" target="_top" xlink:title="Obtém uma tarefa da coluna pelo seu índice.">
<polygon fill="white" stroke="#666666" points="210.5,-172 110.5,-172 110.5,-152 210.5,-152 210.5,-172"/>
<text text-anchor="middle" x="160.5" y="-158.5" font-family="Helvetica,sans-Serif" font-size="10.00">Coluna::obterTarefa</text>
</a>
</g>
</g>
<!-- Node1&#45;&gt;Node13 -->
<g id="edge14_Node000001_Node000013" class="edge">
<title>Node1&#45;&gt;Node13</title>
<g id="a_edge14_Node000001_Node000013"><a xlink:title=" ">
<path fill="none" stroke="#63b8ff" d="M54.86,-208.6C68.29,-201.95 86.2,-193.25 102.25,-186 109.11,-182.9 116.5,-179.71 123.6,-176.7"/>
<polygon fill="#63b8ff" stroke="#63b8ff" points="124.85,-179.55 132.72,-172.46 122.15,-173.09 124.85,-179.55"/>
</a>
</g>
</g>
<!-- Node14 -->
<g id="Node000014" class="node">
<title>Node14</title>
<g id="a_Node000014"><a xlink:href="../../da/d23/class_tarefa.html#a940984f91c30d56dcdc2e9815e2b3cc7" target="_top" xlink:title="Define a descrição da tarefa.">
<polygon fill="white" stroke="#666666" points="213.12,-134 107.88,-134 107.88,-114 213.12,-114 213.12,-134"/>
<text text-anchor="middle" x="160.5" y="-120.5" font-family="Helvetica,sans-Serif" font-size="10.00">Tarefa::setDescricao</text>
</a>
</g>
</g>
<!-- Node1&#45;&gt;Node14 -->
<g id="edge15_Node000001_Node000014" class="edge">
<title>Node1&#45;&gt;Node14</title>
<g id="a_edge15_Node000001_Node000014"><a xlink:title=" ">
<path fill="none" stroke="#63b8ff" d="M40.79,-208.59C51.72,-192.32 74.98,-160.87 102.25,-143 104.51,-141.52 106.9,-140.14 109.36,-138.87"/>
<polygon fill="#63b8ff" stroke="#63b8ff" points="110.49,-141.74 118.15,-134.42 107.6,-135.37 110.49,-141.74"/>
</a>
</g>
</g>
<!-- Node15 -->
<g id="Node000015" class="node">
<title>Node15</title>
<g id="a_Node000015"><a xlink:href="../../da/d23/class_tarefa.html#ab063c2349c20692e1aa021b829720847" target="_top" xlink:title="Define a prioridade da tarefa.">
<polygon fill="white" stroke="#666666" points="213.12,-96 107.88,-96 107.88,-76 213.12,-76 213.12,-96"/>
<text text-anchor="middle" x="160.5" y="-82.5" font-family="Helvetica,sans-Serif" font-size="10.00">Tarefa::setPrioridade</text>
</a>
</g>
</g>
<!-- Node1&#45;&gt;Node15 -->
<g id="edge16_Node000001_Node000015" class="edge">
<title>Node1&#45;&gt;Node15</title>
<g id="a_edge16_Node000001_Node000015"><a xlink:title=" ">
<path fill="none" stroke="#63b8ff" d="M37.43,-208.83C45.15,-186.67 66.47,-133.72 102.25,-105 103.71,-103.83 105.25,-102.73 106.84,-101.69"/>
<polygon fill="#63b8ff" stroke="#63b8ff" points="108.34,-104.32 115.47,-96.47 105.01,-98.16 108.34,-104.32"/>
</a>
</g>
</g>
<!-- Node16 -->
<g id="Node000016" class="node">
<title>Node16</title>
<g id="a_Node000016"><a xlink:href="../../da/d23/class_tarefa.html#a21b76d5cedc9cd577a99065bc84b4884" target="_top" xlink:title="Define o responsável pela tarefa.">
<polygon fill="white" stroke="#666666" points="218.75,-58 102.25,-58 102.25,-38 218.75,-38 218.75,-58"/>
<text text-anchor="middle" x="160.5" y="-44.5" font-family="Helvetica,sans-Serif" font-size="10.00">Tarefa::setResponsavel</text>
</a>
</g>
</g>
<!-- Node1&#45;&gt;Node16 -->
<g id="edge17_Node000001_Node000016" class="edge">
<title>Node1&#45;&gt;Node16</title>
<g id="a_edge17_Node000001_Node000016"><a xlink:title=" ">
<path fill="none" stroke="#63b8ff" d="M35.78,-208.84C40.71,-181.75 57.84,-107.14 102.25,-67 103.44,-65.92 104.69,-64.91 105.99,-63.95"/>
<polygon fill="#63b8ff" stroke="#63b8ff" points="107.43,-66.57 114.21,-58.43 103.83,-60.57 107.43,-66.57"/>
</a>
</g>
</g>
<!-- Node17 -->
<g id="Node000017" class="node">
<title>Node17</title>
<g id="a_Node000017"><a xlink:href="../../da/d23/class_tarefa.html#a79e7e9660e18cd200ba67e18f370df5f" target="_top" xlink:title="Define o título da tarefa.">
<polygon fill="white" stroke="#666666" points="203,-20 118,-20 118,0 203,0 203,-20"/>
<text text-anchor="middle" x="160.5" y="-6.5" font-family="Helvetica,sans-Serif" font-size="10.00">Tarefa::setTitulo</text>
</a>
</g>
</g>
<!-- Node1&#45;&gt;Node17 -->
<g id="edge18_Node000001_Node000017" class="edge">
<title>Node1&#45;&gt;Node17</title>
<g id="a_edge18_Node000001_Node000017"><a xlink:title=" ">
<path fill="none" stroke="#63b8ff" d="M34.76,-208.69C37.26,-177.14 49.1,-80.9 102.25,-29 104.02,-27.28 105.94,-25.71 107.98,-24.28"/>
<polygon fill="#63b8ff" stroke="#63b8ff" points="109.54,-26.86 116.53,-18.9 106.1,-20.76 109.54,-26.86"/>
</a>
</g>
</g>
<!-- Node6 -->
<g id="Node000006" class="node">
<title>Node6</title>
<g id="a_Node000006"><a xlink:href="../../db/dba/class_lista.html#a5cd63f61264afc88d0a6c290f7cb7320" target="_top" xlink:title="Obtém o tamanho da lista.">
<polygon fill="white" stroke="#666666" points="527.5,-324 431.25,-324 431.25,-304 527.5,-304 527.5,-324"/>
<text text-anchor="middle" x="479.38" y="-310.5" font-family="Helvetica,sans-Serif" font-size="10.00">Lista::getTamanho</text>
</a>
</g>
</g>
<!-- Node5&#45;&gt;Node6 -->
<g id="edge5_Node000005_Node000006" class="edge">
<title>Node5&#45;&gt;Node6</title>
<g id="a_edge5_Node000005_Node000006"><a xlink:title=" ">
<path fill="none" stroke="#63b8ff" d="M391.12,-314C400.83,-314 410.75,-314 420.26,-314"/>
<polygon fill="#63b8ff" stroke="#63b8ff" points="420.2,-317.5 430.2,-314 420.2,-310.5 420.2,-317.5"/>
</a>
</g>
</g>
<!-- Node8&#45;&gt;Node5 -->
<g id="edge9_Node000008_Node000005" class="edge">
<title>Node8&#45;&gt;Node5</title>
<g id="a_edge9_Node000008_Node000005"><a xlink:title=" ">
<path fill="none" stroke="#63b8ff" d="M201.47,-248.43C207.49,-250.79 213.45,-253.63 218.75,-257 238.38,-269.48 234.85,-282.95 254.75,-295 257.42,-296.61 260.23,-298.1 263.12,-299.46"/>
<polygon fill="#63b8ff" stroke="#63b8ff" points="261.64,-303.04 272.22,-303.62 264.31,-296.57 261.64,-303.04"/>
</a>
</g>
</g>
<!-- Node9 -->
<g id="Node000009" class="node">
<title>Node9</title>
<g id="a_Node000009"><a xlink:href="../../d3/d3c/class_coluna.html#a25ecf45ce1e1c7a03b9c92d4a5da0544" target="_top" xlink:title="Obtém o nome da coluna.">
<polygon fill="white" stroke="#666666" points="368.25,-286 277.25,-286 277.25,-266 368.25,-266 368.25,-286"/>
<text text-anchor="middle" x="322.75" y="-272.5" font-family="Helvetica,sans-Serif" font-size="10.00">Coluna::getNome</text>
</a>
</g>
</g>
<!-- Node8&#45;&gt;Node9 -->
<g id="edge8_Node000008_Node000009" class="edge">
<title>Node8&#45;&gt;Node9</title>
<g id="a_edge8_Node000008_Node000009"><a xlink:title=" ">
<path fill="none" stroke="#63b8ff" d="M204.87,-248.28C223.96,-252.81 246.61,-258.18 266.86,-262.98"/>
<polygon fill="#63b8ff" stroke="#63b8ff" points="265.97,-266.61 276.51,-265.51 267.59,-259.8 265.97,-266.61"/>
</a>
</g>
</g>
<!-- Node10 -->
<g id="Node000010" class="node">
<title>Node10</title>
<g id="a_Node000010"><a xlink:href="../../d3/d3c/class_coluna.html#a48875a7414e5f4d15bfed749bb0a5586" target="_top" xlink:title="Imprime as informações da coluna.">
<polygon fill="white" stroke="#666666" points="366,-248 279.5,-248 279.5,-228 366,-228 366,-248"/>
<text text-anchor="middle" x="322.75" y="-234.5" font-family="Helvetica,sans-Serif" font-size="10.00">Coluna::imprimir</text>
</a>
</g>
</g>
<!-- Node8&#45;&gt;Node10 -->
<g id="edge10_Node000008_Node000010" class="edge">
<title>Node8&#45;&gt;Node10</title>
<g id="a_edge10_Node000008_Node000010"><a xlink:title=" ">
<path fill="none" stroke="#63b8ff" d="M204.87,-238C224.43,-238 247.73,-238 268.36,-238"/>
<polygon fill="#63b8ff" stroke="#63b8ff" points="268.18,-241.5 278.18,-238 268.18,-234.5 268.18,-241.5"/>
</a>
</g>
</g>
<!-- Node8&#45;&gt;Node11 -->
<g id="edge11_Node000008_Node000011" class="edge">
<title>Node8&#45;&gt;Node11</title>
<g id="a_edge11_Node000008_Node000011"><a xlink:title=" ">
<path fill="none" stroke="#63b8ff" d="M204.87,-227.72C223.96,-223.19 246.61,-217.82 266.86,-213.02"/>
<polygon fill="#63b8ff" stroke="#63b8ff" points="267.59,-216.2 276.51,-210.49 265.97,-209.39 267.59,-216.2"/>
</a>
</g>
</g>
<!-- Node12 -->
<g id="Node000012" class="node">
<title>Node12</title>
<g id="a_Node000012"><a xlink:href="../../db/dba/class_lista.html#adb2dfb16eaf99f99fc1b39bf847af9bd" target="_top" xlink:title="Obtém a coluna da lista pelo índice.">
<polygon fill="white" stroke="#666666" points="532,-210 426.75,-210 426.75,-190 532,-190 532,-210"/>
<text text-anchor="middle" x="479.38" y="-196.5" font-family="Helvetica,sans-Serif" font-size="10.00">Lista::obterPorIndice</text>
</a>
</g>
</g>
<!-- Node11&#45;&gt;Node12 -->
<g id="edge12_Node000011_Node000012" class="edge">
<title>Node11&#45;&gt;Node12</title>
<g id="a_edge12_Node000011_Node000012"><a xlink:title=" ">
<path fill="none" stroke="#63b8ff" d="M375.67,-200C388.42,-200 402.2,-200 415.41,-200"/>
<polygon fill="#63b8ff" stroke="#63b8ff" points="415.33,-203.5 425.33,-200 415.33,-196.5 415.33,-203.5"/>
</a>
</g>
</g>
</g>
</svg>
