<?xml version="1.0" encoding="UTF-8" standalone="no"?>
<!DOCTYPE svg PUBLIC "-//W3C//DTD SVG 1.1//EN"
 "http://www.w3.org/Graphics/SVG/1.1/DTD/svg11.dtd">
<!-- Generated by graphviz version 8.1.0 (20230707.0739)
 -->
<!-- Title: ordenarColuna Pages: 1 -->
<!--zoomable 180 -->

<svg id="main" version="1.1" xmlns="http://www.w3.org/2000/svg" xmlns:xlink="http://www.w3.org/1999/xlink" xml:space="preserve" onload="init(evt)">
<style type="text/css"><![CDATA[
.node, .edge {opacity: 0.7;}
.node.selected, .edge.selected {opacity: 1;}
.edge:hover path { stroke: red; }
.edge:hover polygon { stroke: red; fill: red; }
]]></style>

<defs>
  <circle id="rim" cx="0" cy="0" r="7"/>
  <circle id="rim2" cx="0" cy="0" r="3.5"/>
  <g id="zoomPlus">
    <use xlink:href="#rim" fill="#404040"><set attributeName="fill" to="#808080" begin="zoomplus.mouseover" end="zoomplus.mouseout"/></use>
    <path d="M-4,0h8M0,-4v8" fill="none" stroke="white" stroke-width="1.5" pointer-events="none"/>
  </g>
  <g id="zoomMin">
    <use xlink:href="#rim" fill="#404040"><set attributeName="fill" to="#808080" begin="zoomminus.mouseover" end="zoomminus.mouseout"/></use>
    <path d="M-4,0h8" fill="none" stroke="white" stroke-width="1.5" pointer-events="none"/>
  </g>
  <g id="arrowUp" transform="translate(30 24)">
    <use xlink:href="#rim"/>
    <path pointer-events="none" fill="none" stroke="white" stroke-width="1.5" d="M0,-3.0v7 M-2.5,-0.5L0,-3.0L2.5,-0.5"/>
  </g>
  <g id="arrowRight" transform="rotate(90) translate(36 -43)">
    <use xlink:href="#rim"/>
    <path pointer-events="none" fill="none" stroke="white" stroke-width="1.5" d="M0,-3.0v7 M-2.5,-0.5L0,-3.0L2.5,-0.5"/>
  </g>
  <g id="arrowDown" transform="rotate(180) translate(-30 -48)">
    <use xlink:href="#rim"/>
    <path pointer-events="none" fill="none" stroke="white" stroke-width="1.5" d="M0,-3.0v7 M-2.5,-0.5L0,-3.0L2.5,-0.5"/>
  </g>
  <g id="arrowLeft" transform="rotate(270) translate(-36 17)">
    <use xlink:href="#rim"/>
    <path pointer-events="none" fill="none" stroke="white" stroke-width="1.5" d="M0,-3.0v7 M-2.5,-0.5L0,-3.0L2.5,-0.5"/>
  </g>
  <g id="resetDef">
    <use xlink:href="#rim2" fill="#404040"><set attributeName="fill" to="#808080" begin="reset.mouseover" end="reset.mouseout"/></use>
  </g>
</defs>
<script type="application/ecmascript">
var viewWidth = 524;
var viewHeight = 180;
var sectionId = 'dynsection-29';
</script>
<script type="application/ecmascript" xlink:href="../../svg.min.js"/>
<svg id="graph" class="graph">
<g id="viewport">
<title>ordenarColuna</title>
<!-- Node1 -->
<g id="Node000001" class="node">
<title>Node1</title>
<g id="a_Node000001"><a xlink:title="Ordena as tarefas por prioridade usando o algoritmo Bubble Sort.">
<polygon fill="#999999" stroke="#666666" points="78.25,-96 0,-96 0,-76 78.25,-76 78.25,-96"/>
<text text-anchor="middle" x="39.12" y="-82.5" font-family="Helvetica,sans-Serif" font-size="10.00">ordenarColuna</text>
</a>
</g>
</g>
<!-- Node2 -->
<g id="Node000002" class="node">
<title>Node2</title>
<g id="a_Node000002"><a xlink:href="../../df/d0a/main_8cpp.html#a20bbd4d45e3f01305dd709f5a9cc9952" target="_top" xlink:title="Limpa o buffer do console.">
<polygon fill="white" stroke="#666666" points="189.12,-172 127.38,-172 127.38,-152 189.12,-152 189.12,-172"/>
<text text-anchor="middle" x="158.25" y="-158.5" font-family="Helvetica,sans-Serif" font-size="10.00">clearBuffer</text>
</a>
</g>
</g>
<!-- Node1&#45;&gt;Node2 -->
<g id="edge1_Node000001_Node000002" class="edge">
<title>Node1&#45;&gt;Node2</title>
<g id="a_edge1_Node000001_Node000002"><a xlink:title=" ">
<path fill="none" stroke="#63b8ff" d="M54.04,-96.41C68.73,-107.24 92.68,-124.46 114.25,-138 118.72,-140.81 123.54,-143.65 128.27,-146.36"/>
<polygon fill="#63b8ff" stroke="#63b8ff" points="126.3,-149.83 136.74,-151.66 129.72,-143.72 126.3,-149.83"/>
</a>
</g>
</g>
<!-- Node3 -->
<g id="Node000003" class="node">
<title>Node3</title>
<g id="a_Node000003"><a xlink:href="../../d1/d13/class_quadro.html#aad88cee2be59e368c4c09166a7777fb9" target="_top" xlink:title="Obtém o número de colunas do quadro.">
<polygon fill="white" stroke="#666666" points="374.25,-153 238.25,-153 238.25,-133 374.25,-133 374.25,-153"/>
<text text-anchor="middle" x="306.25" y="-139.5" font-family="Helvetica,sans-Serif" font-size="10.00">Quadro::getNumeroColunas</text>
</a>
</g>
</g>
<!-- Node1&#45;&gt;Node3 -->
<g id="edge2_Node000001_Node000003" class="edge">
<title>Node1&#45;&gt;Node3</title>
<g id="a_edge2_Node000001_Node000003"><a xlink:title=" ">
<path fill="none" stroke="#63b8ff" d="M78.5,-96.26C89.97,-99.21 102.59,-102.35 114.25,-105 155.06,-114.28 201.06,-123.47 237.69,-130.49"/>
<polygon fill="#63b8ff" stroke="#63b8ff" points="236.77,-134.07 247.25,-132.5 238.08,-127.19 236.77,-134.07"/>
</a>
</g>
</g>
<!-- Node5 -->
<g id="Node000005" class="node">
<title>Node5</title>
<g id="a_Node000005"><a xlink:href="../../d1/d13/class_quadro.html#a1d27dcd2c84b1742c7ebd4cb0f82a704" target="_top" xlink:title="Imprime as informações do quadro.">
<polygon fill="white" stroke="#666666" points="202.25,-96 114.25,-96 114.25,-76 202.25,-76 202.25,-96"/>
<text text-anchor="middle" x="158.25" y="-82.5" font-family="Helvetica,sans-Serif" font-size="10.00">Quadro::imprimir</text>
</a>
</g>
</g>
<!-- Node1&#45;&gt;Node5 -->
<g id="edge4_Node000001_Node000005" class="edge">
<title>Node1&#45;&gt;Node5</title>
<g id="a_edge4_Node000001_Node000005"><a xlink:title=" ">
<path fill="none" stroke="#63b8ff" d="M78.48,-86C86.36,-86 94.81,-86 103.13,-86"/>
<polygon fill="#63b8ff" stroke="#63b8ff" points="102.94,-89.5 112.94,-86 102.94,-82.5 102.94,-89.5"/>
</a>
</g>
</g>
<!-- Node8 -->
<g id="Node000008" class="node">
<title>Node8</title>
<g id="a_Node000008"><a xlink:href="../../d1/d13/class_quadro.html#acdcb5194cb4b20e50f6211df473b59f2" target="_top" xlink:title="Obtém uma coluna do quadro pelo índice.">
<polygon fill="white" stroke="#666666" points="358.88,-39 253.62,-39 253.62,-19 358.88,-19 358.88,-39"/>
<text text-anchor="middle" x="306.25" y="-25.5" font-family="Helvetica,sans-Serif" font-size="10.00">Quadro::obterColuna</text>
</a>
</g>
</g>
<!-- Node1&#45;&gt;Node8 -->
<g id="edge10_Node000001_Node000008" class="edge">
<title>Node1&#45;&gt;Node8</title>
<g id="a_edge10_Node000001_Node000008"><a xlink:title=" ">
<path fill="none" stroke="#63b8ff" d="M78.5,-75.74C89.97,-72.79 102.59,-69.65 114.25,-67 156.86,-57.31 205.13,-47.72 242.48,-40.6"/>
<polygon fill="#63b8ff" stroke="#63b8ff" points="243.03,-43.86 252.21,-38.56 241.73,-36.99 243.03,-43.86"/>
</a>
</g>
</g>
<!-- Node10 -->
<g id="Node000010" class="node">
<title>Node10</title>
<g id="a_Node000010"><a xlink:href="../../d3/d3c/class_coluna.html#a072f1cae205d24c75bbf6e240e66c025" target="_top" xlink:title="Ordena as tarefas da coluna por prioridade.">
<polygon fill="white" stroke="#666666" points="200.38,-20 116.12,-20 116.12,0 200.38,0 200.38,-20"/>
<text text-anchor="middle" x="158.25" y="-6.5" font-family="Helvetica,sans-Serif" font-size="10.00">Coluna::ordenar</text>
</a>
</g>
</g>
<!-- Node1&#45;&gt;Node10 -->
<g id="edge11_Node000001_Node000010" class="edge">
<title>Node1&#45;&gt;Node10</title>
<g id="a_edge11_Node000001_Node000010"><a xlink:title=" ">
<path fill="none" stroke="#63b8ff" d="M54.04,-75.59C68.73,-64.76 92.68,-47.54 114.25,-34 118.72,-31.19 123.54,-28.35 128.27,-25.64"/>
<polygon fill="#63b8ff" stroke="#63b8ff" points="129.72,-28.28 136.74,-20.34 126.3,-22.17 129.72,-28.28"/>
</a>
</g>
</g>
<!-- Node4 -->
<g id="Node000004" class="node">
<title>Node4</title>
<g id="a_Node000004"><a xlink:href="../../db/dba/class_lista.html#a5cd63f61264afc88d0a6c290f7cb7320" target="_top" xlink:title="Obtém o tamanho da lista.">
<polygon fill="white" stroke="#666666" points="511,-153 414.75,-153 414.75,-133 511,-133 511,-153"/>
<text text-anchor="middle" x="462.88" y="-139.5" font-family="Helvetica,sans-Serif" font-size="10.00">Lista::getTamanho</text>
</a>
</g>
</g>
<!-- Node3&#45;&gt;Node4 -->
<g id="edge3_Node000003_Node000004" class="edge">
<title>Node3&#45;&gt;Node4</title>
<g id="a_edge3_Node000003_Node000004"><a xlink:title=" ">
<path fill="none" stroke="#63b8ff" d="M374.62,-143C384.33,-143 394.25,-143 403.76,-143"/>
<polygon fill="#63b8ff" stroke="#63b8ff" points="403.7,-146.5 413.7,-143 403.7,-139.5 403.7,-146.5"/>
</a>
</g>
</g>
<!-- Node5&#45;&gt;Node3 -->
<g id="edge6_Node000005_Node000003" class="edge">
<title>Node5&#45;&gt;Node3</title>
<g id="a_edge6_Node000005_Node000003"><a xlink:title=" ">
<path fill="none" stroke="#63b8ff" d="M178.64,-96.49C194.39,-104.72 217.33,-116.07 238.25,-124 243.28,-125.91 248.58,-127.72 253.92,-129.43"/>
<polygon fill="#63b8ff" stroke="#63b8ff" points="252.55,-132.97 263.14,-132.55 254.6,-126.28 252.55,-132.97"/>
</a>
</g>
</g>
<!-- Node6 -->
<g id="Node000006" class="node">
<title>Node6</title>
<g id="a_Node000006"><a xlink:href="../../d3/d3c/class_coluna.html#a25ecf45ce1e1c7a03b9c92d4a5da0544" target="_top" xlink:title="Obtém o nome da coluna.">
<polygon fill="white" stroke="#666666" points="351.75,-115 260.75,-115 260.75,-95 351.75,-95 351.75,-115"/>
<text text-anchor="middle" x="306.25" y="-101.5" font-family="Helvetica,sans-Serif" font-size="10.00">Coluna::getNome</text>
</a>
</g>
</g>
<!-- Node5&#45;&gt;Node6 -->
<g id="edge5_Node000005_Node000006" class="edge">
<title>Node5&#45;&gt;Node6</title>
<g id="a_edge5_Node000005_Node000006"><a xlink:title=" ">
<path fill="none" stroke="#63b8ff" d="M202.66,-91.65C217.48,-93.58 234.26,-95.76 249.89,-97.8"/>
<polygon fill="#63b8ff" stroke="#63b8ff" points="249.12,-101.36 259.49,-99.18 250.02,-94.41 249.12,-101.36"/>
</a>
</g>
</g>
<!-- Node7 -->
<g id="Node000007" class="node">
<title>Node7</title>
<g id="a_Node000007"><a xlink:href="../../d3/d3c/class_coluna.html#a48875a7414e5f4d15bfed749bb0a5586" target="_top" xlink:title="Imprime as informações da coluna.">
<polygon fill="white" stroke="#666666" points="349.5,-77 263,-77 263,-57 349.5,-57 349.5,-77"/>
<text text-anchor="middle" x="306.25" y="-63.5" font-family="Helvetica,sans-Serif" font-size="10.00">Coluna::imprimir</text>
</a>
</g>
</g>
<!-- Node5&#45;&gt;Node7 -->
<g id="edge7_Node000005_Node000007" class="edge">
<title>Node5&#45;&gt;Node7</title>
<g id="a_edge7_Node000005_Node000007"><a xlink:title=" ">
<path fill="none" stroke="#63b8ff" d="M202.66,-80.35C218.03,-78.35 235.5,-76.08 251.61,-73.98"/>
<polygon fill="#63b8ff" stroke="#63b8ff" points="252.05,-77.32 261.51,-72.56 251.14,-70.38 252.05,-77.32"/>
</a>
</g>
</g>
<!-- Node5&#45;&gt;Node8 -->
<g id="edge8_Node000005_Node000008" class="edge">
<title>Node5&#45;&gt;Node8</title>
<g id="a_edge8_Node000005_Node000008"><a xlink:title=" ">
<path fill="none" stroke="#63b8ff" d="M178.64,-75.51C194.39,-67.28 217.33,-55.93 238.25,-48 243.28,-46.09 248.58,-44.28 253.92,-42.57"/>
<polygon fill="#63b8ff" stroke="#63b8ff" points="254.6,-45.72 263.14,-39.45 252.55,-39.03 254.6,-45.72"/>
</a>
</g>
</g>
<!-- Node9 -->
<g id="Node000009" class="node">
<title>Node9</title>
<g id="a_Node000009"><a xlink:href="../../db/dba/class_lista.html#adb2dfb16eaf99f99fc1b39bf847af9bd" target="_top" xlink:title="Obtém a coluna da lista pelo índice.">
<polygon fill="white" stroke="#666666" points="515.5,-39 410.25,-39 410.25,-19 515.5,-19 515.5,-39"/>
<text text-anchor="middle" x="462.88" y="-25.5" font-family="Helvetica,sans-Serif" font-size="10.00">Lista::obterPorIndice</text>
</a>
</g>
</g>
<!-- Node8&#45;&gt;Node9 -->
<g id="edge9_Node000008_Node000009" class="edge">
<title>Node8&#45;&gt;Node9</title>
<g id="a_edge9_Node000008_Node000009"><a xlink:title=" ">
<path fill="none" stroke="#63b8ff" d="M359.17,-29C371.92,-29 385.7,-29 398.91,-29"/>
<polygon fill="#63b8ff" stroke="#63b8ff" points="398.83,-32.5 408.83,-29 398.83,-25.5 398.83,-32.5"/>
</a>
</g>
</g>
</g>
</svg>

<g id="navigator" transform="translate(0 0)" fill="#404254">
  <rect fill="#f2f5e9" fill-opacity="0.5" stroke="#606060" stroke-width=".5" x="0" y="0" width="60" height="60"/>
  <use id="zoomplus" xlink:href="#zoomPlus" x="17" y="9" onmousedown="handleZoom(evt,'in')"/>
  <use id="zoomminus" xlink:href="#zoomMin" x="42" y="9" onmousedown="handleZoom(evt,'out')"/>
  <use id="reset" xlink:href="#resetDef" x="30" y="36" onmousedown="handleReset()"/>
   <use id="arrowup" xlink:href="#arrowUp" x="0" y="0" onmousedown="handlePan(0,-1)"/>
  <use id="arrowright" xlink:href="#arrowRight" x="0" y="0" onmousedown="handlePan(1,0)"/>
  <use id="arrowdown" xlink:href="#arrowDown" x="0" y="0" onmousedown="handlePan(0,1)"/>
  <use id="arrowleft" xlink:href="#arrowLeft" x="0" y="0" onmousedown="handlePan(-1,0)"/>
</g>
<svg viewBox="0 0 15 15" width="100%" height="30px" preserveAspectRatio="xMaxYMin meet">
 <g id="arrow_out" transform="scale(0.3 0.3)">
  <a xlink:href="main_8cpp_ac91dd762f55fe21f3a2226d59abff942_cgraph_org.svg" target="_base">
   <rect id="button" ry="5" rx="5" y="6" x="6" height="38" width="38"
        fill="#f2f5e9" fill-opacity="0.5" stroke="#606060" stroke-width="1.0"/>
   <path id="arrow"
     d="M 11.500037,31.436501 C 11.940474,20.09759 22.043105,11.32322 32.158766,21.979434 L 37.068811,17.246167 C 37.068811,17.246167 37.088388,32 37.088388,32 L 22.160133,31.978069 C 22.160133,31.978069 26.997745,27.140456 26.997745,27.140456 C 18.528582,18.264221 13.291696,25.230495 11.500037,31.436501 z"
     style="fill:#404040;"/>
  </a>
 </g>
</svg>

<style type='text/css'>
<![CDATA[
[data-mouse-over-selected='false'] { opacity: 0.7; }
[data-mouse-over-selected='true']  { opacity: 1.0; }
]]>
</style>
<script type="application/ecmascript"><![CDATA[
document.addEventListener('DOMContentLoaded', (event) => {
  highlightEdges();
  highlightAdjacentNodes();
});
]]></script>
</svg>
