<?xml version="1.0" encoding="UTF-8" standalone="no"?>
<!DOCTYPE svg PUBLIC "-//W3C//DTD SVG 1.1//EN"
 "http://www.w3.org/Graphics/SVG/1.1/DTD/svg11.dtd">
<!-- Generated by graphviz version 8.1.0 (20230707.0739)
 -->
<!-- Title: adicionarTarefa Pages: 1 -->
<svg width="555pt" height="370pt"
 viewBox="0.00 0.00 555.00 370.00" xmlns="http://www.w3.org/2000/svg" xmlns:xlink="http://www.w3.org/1999/xlink">
<g id="graph0" class="graph" transform="scale(1 1) rotate(0) translate(4 366)">
<title>adicionarTarefa</title>
<!-- Node1 -->
<g id="Node000001" class="node">
<title>Node1</title>
<g id="a_Node000001"><a xlink:title="Adiciona uma nova tarefa a uma coluna no quadro KanBan.">
<polygon fill="#999999" stroke="#666666" points="81.25,-191 0,-191 0,-171 81.25,-171 81.25,-191"/>
<text text-anchor="middle" x="40.62" y="-177.5" font-family="Helvetica,sans-Serif" font-size="10.00">adicionarTarefa</text>
</a>
</g>
</g>
<!-- Node2 -->
<g id="Node000002" class="node">
<title>Node2</title>
<g id="a_Node000002"><a xlink:href="../../df/d0a/main_8cpp.html#a2faf12c27b7e1711848f39f038c45f70" target="_top" xlink:title="Realiza uma busca binária em uma equipe de colaboradores pelo ID.">
<polygon fill="white" stroke="#666666" points="211.62,-362 139.38,-362 139.38,-342 211.62,-342 211.62,-362"/>
<text text-anchor="middle" x="175.5" y="-348.5" font-family="Helvetica,sans-Serif" font-size="10.00">buscaBinaria</text>
</a>
</g>
</g>
<!-- Node1&#45;&gt;Node2 -->
<g id="edge1_Node000001_Node000002" class="edge">
<title>Node1&#45;&gt;Node2</title>
<g id="a_edge1_Node000001_Node000002"><a xlink:title=" ">
<path fill="none" stroke="#63b8ff" d="M44.29,-191.42C51.54,-217.82 74.05,-288.06 117.25,-328 120.82,-331.3 124.91,-334.18 129.22,-336.69"/>
<polygon fill="#63b8ff" stroke="#63b8ff" points="127.41,-340.2 137.91,-341.6 130.57,-333.96 127.41,-340.2"/>
</a>
</g>
</g>
<!-- Node3 -->
<g id="Node000003" class="node">
<title>Node3</title>
<g id="a_Node000003"><a xlink:href="../../df/d0a/main_8cpp.html#aed504424b48ab1ef3ce656ba1d439ae0" target="_top" xlink:title="Cria e cadastra um novo colaborador no quadro KanBan.">
<polygon fill="white" stroke="#666666" points="229.62,-286 121.38,-286 121.38,-266 229.62,-266 229.62,-286"/>
<text text-anchor="middle" x="175.5" y="-272.5" font-family="Helvetica,sans-Serif" font-size="10.00">cadastrarColaborador</text>
</a>
</g>
</g>
<!-- Node1&#45;&gt;Node3 -->
<g id="edge2_Node000001_Node000003" class="edge">
<title>Node1&#45;&gt;Node3</title>
<g id="a_edge2_Node000001_Node000003"><a xlink:title=" ">
<path fill="none" stroke="#63b8ff" d="M49.3,-191.38C61.8,-207.6 88.13,-238.98 117.25,-257 119.71,-258.52 122.31,-259.94 124.98,-261.25"/>
<polygon fill="#63b8ff" stroke="#63b8ff" points="123.34,-264.79 133.91,-265.57 126.14,-258.37 123.34,-264.79"/>
</a>
</g>
</g>
<!-- Node4 -->
<g id="Node000004" class="node">
<title>Node4</title>
<g id="a_Node000004"><a xlink:href="../../df/d0a/main_8cpp.html#a20bbd4d45e3f01305dd709f5a9cc9952" target="_top" xlink:title="Limpa o buffer do console.">
<polygon fill="white" stroke="#666666" points="368.62,-324 306.88,-324 306.88,-304 368.62,-304 368.62,-324"/>
<text text-anchor="middle" x="337.75" y="-310.5" font-family="Helvetica,sans-Serif" font-size="10.00">clearBuffer</text>
</a>
</g>
</g>
<!-- Node1&#45;&gt;Node4 -->
<g id="edge5_Node000001_Node000004" class="edge">
<title>Node1&#45;&gt;Node4</title>
<g id="a_edge5_Node000001_Node000004"><a xlink:title=" ">
<path fill="none" stroke="#63b8ff" d="M45.03,-191.5C53.22,-214.81 76.4,-270.75 117.25,-295 172.25,-327.65 249.05,-325.75 295.7,-320.51"/>
<polygon fill="#63b8ff" stroke="#63b8ff" points="296.1,-323.86 305.6,-319.16 295.24,-316.92 296.1,-323.86"/>
</a>
</g>
</g>
<!-- Node6 -->
<g id="Node000006" class="node">
<title>Node6</title>
<g id="a_Node000006"><a xlink:href="../../d1/d13/class_quadro.html#a1cc0b576c7787cc7c82019a3fd424822" target="_top" xlink:title="Obtém a equipe de colaboradores do quadro.">
<polygon fill="white" stroke="#666666" points="224,-248 127,-248 127,-228 224,-228 224,-248"/>
<text text-anchor="middle" x="175.5" y="-234.5" font-family="Helvetica,sans-Serif" font-size="10.00">Quadro::getEquipe</text>
</a>
</g>
</g>
<!-- Node1&#45;&gt;Node6 -->
<g id="edge6_Node000001_Node000006" class="edge">
<title>Node1&#45;&gt;Node6</title>
<g id="a_edge6_Node000001_Node000006"><a xlink:title=" ">
<path fill="none" stroke="#63b8ff" d="M65.43,-191.49C80.3,-198.02 99.86,-206.56 117.25,-214 124.39,-217.05 132.04,-220.29 139.36,-223.36"/>
<polygon fill="#63b8ff" stroke="#63b8ff" points="137.81,-226.93 148.39,-227.56 140.52,-220.47 137.81,-226.93"/>
</a>
</g>
</g>
<!-- Node7 -->
<g id="Node000007" class="node">
<title>Node7</title>
<g id="a_Node000007"><a xlink:href="../../d1/d13/class_quadro.html#aad88cee2be59e368c4c09166a7777fb9" target="_top" xlink:title="Obtém o número de colunas do quadro.">
<polygon fill="white" stroke="#666666" points="405.75,-229 269.75,-229 269.75,-209 405.75,-209 405.75,-229"/>
<text text-anchor="middle" x="337.75" y="-215.5" font-family="Helvetica,sans-Serif" font-size="10.00">Quadro::getNumeroColunas</text>
</a>
</g>
</g>
<!-- Node1&#45;&gt;Node7 -->
<g id="edge7_Node000001_Node000007" class="edge">
<title>Node1&#45;&gt;Node7</title>
<g id="a_edge7_Node000001_Node000007"><a xlink:title=" ">
<path fill="none" stroke="#63b8ff" d="M81.73,-186.16C126.97,-191.99 201.62,-201.6 258.5,-208.92"/>
<polygon fill="#63b8ff" stroke="#63b8ff" points="257.89,-212.5 268.26,-210.31 258.79,-205.56 257.89,-212.5"/>
</a>
</g>
</g>
<!-- Node9 -->
<g id="Node000009" class="node">
<title>Node9</title>
<g id="a_Node000009"><a xlink:href="../../d1/d13/class_quadro.html#a1d27dcd2c84b1742c7ebd4cb0f82a704" target="_top" xlink:title="Imprime as informações do quadro.">
<polygon fill="white" stroke="#666666" points="219.5,-172 131.5,-172 131.5,-152 219.5,-152 219.5,-172"/>
<text text-anchor="middle" x="175.5" y="-158.5" font-family="Helvetica,sans-Serif" font-size="10.00">Quadro::imprimir</text>
</a>
</g>
</g>
<!-- Node1&#45;&gt;Node9 -->
<g id="edge9_Node000001_Node000009" class="edge">
<title>Node1&#45;&gt;Node9</title>
<g id="a_edge9_Node000001_Node000009"><a xlink:title=" ">
<path fill="none" stroke="#63b8ff" d="M81.49,-175.3C93.79,-173.54 107.55,-171.57 120.64,-169.7"/>
<polygon fill="#63b8ff" stroke="#63b8ff" points="121.02,-173.04 130.42,-168.16 120.02,-166.11 121.02,-173.04"/>
</a>
</g>
</g>
<!-- Node12 -->
<g id="Node000012" class="node">
<title>Node12</title>
<g id="a_Node000012"><a xlink:href="../../d1/d13/class_quadro.html#acdcb5194cb4b20e50f6211df473b59f2" target="_top" xlink:title="Obtém uma coluna do quadro pelo índice.">
<polygon fill="white" stroke="#666666" points="390.38,-115 285.12,-115 285.12,-95 390.38,-95 390.38,-115"/>
<text text-anchor="middle" x="337.75" y="-101.5" font-family="Helvetica,sans-Serif" font-size="10.00">Quadro::obterColuna</text>
</a>
</g>
</g>
<!-- Node1&#45;&gt;Node12 -->
<g id="edge16_Node000001_Node000012" class="edge">
<title>Node1&#45;&gt;Node12</title>
<g id="a_edge16_Node000001_Node000012"><a xlink:title=" ">
<path fill="none" stroke="#63b8ff" d="M58.72,-170.57C73.65,-161.92 96.18,-149.95 117.25,-143 168.66,-126.05 229.46,-116.27 274.02,-110.9"/>
<polygon fill="#63b8ff" stroke="#63b8ff" points="274.17,-114.29 283.7,-109.65 273.36,-107.33 274.17,-114.29"/>
</a>
</g>
</g>
<!-- Node14 -->
<g id="Node000014" class="node">
<title>Node14</title>
<g id="a_Node000014"><a xlink:href="../../d3/d3c/class_coluna.html#ac09fa33160badb14b7e4a095f15fb551" target="_top" xlink:title="Insere uma tarefa na coluna.">
<polygon fill="white" stroke="#666666" points="227.75,-96 123.25,-96 123.25,-76 227.75,-76 227.75,-96"/>
<text text-anchor="middle" x="175.5" y="-82.5" font-family="Helvetica,sans-Serif" font-size="10.00">Coluna::inserirTarefa</text>
</a>
</g>
</g>
<!-- Node1&#45;&gt;Node14 -->
<g id="edge15_Node000001_Node000014" class="edge">
<title>Node1&#45;&gt;Node14</title>
<g id="a_edge15_Node000001_Node000014"><a xlink:title=" ">
<path fill="none" stroke="#63b8ff" d="M50.47,-170.61C63.71,-155.58 90.05,-127.64 117.25,-110 122.52,-106.58 128.36,-103.47 134.24,-100.72"/>
<polygon fill="#63b8ff" stroke="#63b8ff" points="135.31,-103.63 143.06,-96.41 132.5,-97.22 135.31,-103.63"/>
</a>
</g>
</g>
<!-- Node15 -->
<g id="Node000015" class="node">
<title>Node15</title>
<g id="a_Node000015"><a xlink:href="../../da/d23/class_tarefa.html#ab063c2349c20692e1aa021b829720847" target="_top" xlink:title="Define a prioridade da tarefa.">
<polygon fill="white" stroke="#666666" points="228.12,-58 122.88,-58 122.88,-38 228.12,-38 228.12,-58"/>
<text text-anchor="middle" x="175.5" y="-44.5" font-family="Helvetica,sans-Serif" font-size="10.00">Tarefa::setPrioridade</text>
</a>
</g>
</g>
<!-- Node1&#45;&gt;Node15 -->
<g id="edge17_Node000001_Node000015" class="edge">
<title>Node1&#45;&gt;Node15</title>
<g id="a_edge17_Node000001_Node000015"><a xlink:title=" ">
<path fill="none" stroke="#63b8ff" d="M45.62,-170.83C54.83,-148.67 79.7,-95.71 117.25,-67 118.93,-65.71 120.71,-64.51 122.55,-63.39"/>
<polygon fill="#63b8ff" stroke="#63b8ff" points="123.93,-66.1 131.21,-58.4 120.72,-59.88 123.93,-66.1"/>
</a>
</g>
</g>
<!-- Node16 -->
<g id="Node000016" class="node">
<title>Node16</title>
<g id="a_Node000016"><a xlink:href="../../da/d23/class_tarefa.html#a21b76d5cedc9cd577a99065bc84b4884" target="_top" xlink:title="Define o responsável pela tarefa.">
<polygon fill="white" stroke="#666666" points="233.75,-20 117.25,-20 117.25,0 233.75,0 233.75,-20"/>
<text text-anchor="middle" x="175.5" y="-6.5" font-family="Helvetica,sans-Serif" font-size="10.00">Tarefa::setResponsavel</text>
</a>
</g>
</g>
<!-- Node1&#45;&gt;Node16 -->
<g id="edge18_Node000001_Node000016" class="edge">
<title>Node1&#45;&gt;Node16</title>
<g id="a_edge18_Node000001_Node000016"><a xlink:title=" ">
<path fill="none" stroke="#63b8ff" d="M43.81,-170.82C50.17,-143.69 71.17,-68.99 117.25,-29 118.49,-27.93 119.78,-26.92 121.13,-25.96"/>
<polygon fill="#63b8ff" stroke="#63b8ff" points="122.74,-28.49 129.63,-20.44 119.23,-22.44 122.74,-28.49"/>
</a>
</g>
</g>
<!-- Node3&#45;&gt;Node4 -->
<g id="edge3_Node000003_Node000004" class="edge">
<title>Node3&#45;&gt;Node4</title>
<g id="a_edge3_Node000003_Node000004"><a xlink:title=" ">
<path fill="none" stroke="#63b8ff" d="M220.71,-286.48C244.39,-292.1 273.33,-298.96 296.39,-304.43"/>
<polygon fill="#63b8ff" stroke="#63b8ff" points="295.32,-308.01 305.86,-306.91 296.94,-301.2 295.32,-308.01"/>
</a>
</g>
</g>
<!-- Node5 -->
<g id="Node000005" class="node">
<title>Node5</title>
<g id="a_Node000005"><a xlink:href="../../d1/d13/class_quadro.html#ae11cee4915eee6bf9b192ac8680fadf6" target="_top" xlink:title="Insere um colaborador na equipe do quadro.">
<polygon fill="white" stroke="#666666" points="403.5,-286 272,-286 272,-266 403.5,-266 403.5,-286"/>
<text text-anchor="middle" x="337.75" y="-272.5" font-family="Helvetica,sans-Serif" font-size="10.00">Quadro::inserirColaborador</text>
</a>
</g>
</g>
<!-- Node3&#45;&gt;Node5 -->
<g id="edge4_Node000003_Node000005" class="edge">
<title>Node3&#45;&gt;Node5</title>
<g id="a_edge4_Node000003_Node000005"><a xlink:title=" ">
<path fill="none" stroke="#63b8ff" d="M229.86,-276C239.79,-276 250.35,-276 260.81,-276"/>
<polygon fill="#63b8ff" stroke="#63b8ff" points="260.64,-279.5 270.64,-276 260.64,-272.5 260.64,-279.5"/>
</a>
</g>
</g>
<!-- Node8 -->
<g id="Node000008" class="node">
<title>Node8</title>
<g id="a_Node000008"><a xlink:href="../../db/dba/class_lista.html#a5cd63f61264afc88d0a6c290f7cb7320" target="_top" xlink:title="Obtém o tamanho da lista.">
<polygon fill="white" stroke="#666666" points="542.5,-229 446.25,-229 446.25,-209 542.5,-209 542.5,-229"/>
<text text-anchor="middle" x="494.38" y="-215.5" font-family="Helvetica,sans-Serif" font-size="10.00">Lista::getTamanho</text>
</a>
</g>
</g>
<!-- Node7&#45;&gt;Node8 -->
<g id="edge8_Node000007_Node000008" class="edge">
<title>Node7&#45;&gt;Node8</title>
<g id="a_edge8_Node000007_Node000008"><a xlink:title=" ">
<path fill="none" stroke="#63b8ff" d="M406.12,-219C415.83,-219 425.75,-219 435.26,-219"/>
<polygon fill="#63b8ff" stroke="#63b8ff" points="435.2,-222.5 445.2,-219 435.2,-215.5 435.2,-222.5"/>
</a>
</g>
</g>
<!-- Node9&#45;&gt;Node7 -->
<g id="edge11_Node000009_Node000007" class="edge">
<title>Node9&#45;&gt;Node7</title>
<g id="a_edge11_Node000009_Node000007"><a xlink:title=" ">
<path fill="none" stroke="#63b8ff" d="M201.29,-172.47C224.23,-182.08 256.69,-195.5 269.75,-200 275.25,-201.89 281.05,-203.75 286.85,-205.51"/>
<polygon fill="#63b8ff" stroke="#63b8ff" points="285.62,-209.09 296.2,-208.57 287.6,-202.38 285.62,-209.09"/>
</a>
</g>
</g>
<!-- Node10 -->
<g id="Node000010" class="node">
<title>Node10</title>
<g id="a_Node000010"><a xlink:href="../../d3/d3c/class_coluna.html#a25ecf45ce1e1c7a03b9c92d4a5da0544" target="_top" xlink:title="Obtém o nome da coluna.">
<polygon fill="white" stroke="#666666" points="383.25,-191 292.25,-191 292.25,-171 383.25,-171 383.25,-191"/>
<text text-anchor="middle" x="337.75" y="-177.5" font-family="Helvetica,sans-Serif" font-size="10.00">Coluna::getNome</text>
</a>
</g>
</g>
<!-- Node9&#45;&gt;Node10 -->
<g id="edge10_Node000009_Node000010" class="edge">
<title>Node9&#45;&gt;Node10</title>
<g id="a_edge10_Node000009_Node000010"><a xlink:title=" ">
<path fill="none" stroke="#63b8ff" d="M219.87,-167.14C238.71,-169.38 261.03,-172.02 281.08,-174.4"/>
<polygon fill="#63b8ff" stroke="#63b8ff" points="280.61,-177.99 290.95,-175.69 281.43,-171.04 280.61,-177.99"/>
</a>
</g>
</g>
<!-- Node11 -->
<g id="Node000011" class="node">
<title>Node11</title>
<g id="a_Node000011"><a xlink:href="../../d3/d3c/class_coluna.html#a48875a7414e5f4d15bfed749bb0a5586" target="_top" xlink:title="Imprime as informações da coluna.">
<polygon fill="white" stroke="#666666" points="381,-153 294.5,-153 294.5,-133 381,-133 381,-153"/>
<text text-anchor="middle" x="337.75" y="-139.5" font-family="Helvetica,sans-Serif" font-size="10.00">Coluna::imprimir</text>
</a>
</g>
</g>
<!-- Node9&#45;&gt;Node11 -->
<g id="edge12_Node000009_Node000011" class="edge">
<title>Node9&#45;&gt;Node11</title>
<g id="a_edge12_Node000009_Node000011"><a xlink:title=" ">
<path fill="none" stroke="#63b8ff" d="M219.87,-156.86C239.43,-154.54 262.73,-151.78 283.36,-149.33"/>
<polygon fill="#63b8ff" stroke="#63b8ff" points="283.66,-152.7 293.18,-148.05 282.84,-145.75 283.66,-152.7"/>
</a>
</g>
</g>
<!-- Node9&#45;&gt;Node12 -->
<g id="edge13_Node000009_Node000012" class="edge">
<title>Node9&#45;&gt;Node12</title>
<g id="a_edge13_Node000009_Node000012"><a xlink:title=" ">
<path fill="none" stroke="#63b8ff" d="M201.29,-151.53C224.23,-141.92 256.69,-128.5 269.75,-124 275.25,-122.11 281.05,-120.25 286.85,-118.49"/>
<polygon fill="#63b8ff" stroke="#63b8ff" points="287.6,-121.62 296.2,-115.43 285.62,-114.91 287.6,-121.62"/>
</a>
</g>
</g>
<!-- Node13 -->
<g id="Node000013" class="node">
<title>Node13</title>
<g id="a_Node000013"><a xlink:href="../../db/dba/class_lista.html#adb2dfb16eaf99f99fc1b39bf847af9bd" target="_top" xlink:title="Obtém a coluna da lista pelo índice.">
<polygon fill="white" stroke="#666666" points="547,-115 441.75,-115 441.75,-95 547,-95 547,-115"/>
<text text-anchor="middle" x="494.38" y="-101.5" font-family="Helvetica,sans-Serif" font-size="10.00">Lista::obterPorIndice</text>
</a>
</g>
</g>
<!-- Node12&#45;&gt;Node13 -->
<g id="edge14_Node000012_Node000013" class="edge">
<title>Node12&#45;&gt;Node13</title>
<g id="a_edge14_Node000012_Node000013"><a xlink:title=" ">
<path fill="none" stroke="#63b8ff" d="M390.67,-105C403.42,-105 417.2,-105 430.41,-105"/>
<polygon fill="#63b8ff" stroke="#63b8ff" points="430.33,-108.5 440.33,-105 430.33,-101.5 430.33,-108.5"/>
</a>
</g>
</g>
</g>
</svg>
