<?xml version="1.0" encoding="UTF-8" standalone="no"?>
<!DOCTYPE svg PUBLIC "-//W3C//DTD SVG 1.1//EN"
 "http://www.w3.org/Graphics/SVG/1.1/DTD/svg11.dtd">
<!-- Generated by graphviz version 8.1.0 (20230707.0739)
 -->
<!-- Title: carregarQuadro Pages: 1 -->
<svg width="386pt" height="180pt"
 viewBox="0.00 0.00 386.00 180.00" xmlns="http://www.w3.org/2000/svg" xmlns:xlink="http://www.w3.org/1999/xlink">

<svg id="main" version="1.1" xmlns="http://www.w3.org/2000/svg" xmlns:xlink="http://www.w3.org/1999/xlink" xml:space="preserve" onload="init(evt)">
<style type="text/css"><![CDATA[
.node, .edge {opacity: 0.7;}
.node.selected, .edge.selected {opacity: 1;}
.edge:hover path { stroke: red; }
.edge:hover polygon { stroke: red; fill: red; }
]]></style>
<script type="application/ecmascript" xlink:href="../../svg.min.js"/>
<svg id="graph" class="graph">
<g id="graph0" class="graph" transform="scale(1 1) rotate(0) translate(4 176)">
<title>carregarQuadro</title>
<!-- Node1 -->
<g id="Node000001" class="node">
<title>Node1</title>
<g id="a_Node000001"><a xlink:title="Carrega um quadro KanBan a partir de um arquivo.">
<polygon fill="#999999" stroke="#666666" points="82.75,-96 0,-96 0,-76 82.75,-76 82.75,-96"/>
<text text-anchor="middle" x="41.38" y="-82.5" font-family="Helvetica,sans-Serif" font-size="10.00">carregarQuadro</text>
</a>
</g>
</g>
<!-- Node2 -->
<g id="Node000002" class="node">
<title>Node2</title>
<g id="a_Node000002"><a xlink:href="../../d1/d13/class_quadro.html#ae21d17fb833175bd68b00970c772fcd3" target="_top" xlink:title="Adiciona uma coluna ao quadro.">
<polygon fill="white" stroke="#666666" points="245.75,-172 123.25,-172 123.25,-152 245.75,-152 245.75,-172"/>
<text text-anchor="middle" x="184.5" y="-158.5" font-family="Helvetica,sans-Serif" font-size="10.00">Quadro::adicionarColuna</text>
</a>
</g>
</g>
<!-- Node1&#45;&gt;Node2 -->
<g id="edge1_Node000001_Node000002" class="edge">
<title>Node1&#45;&gt;Node2</title>
<g id="a_edge1_Node000001_Node000002"><a xlink:title=" ">
<path fill="none" stroke="#63b8ff" d="M53.42,-96.28C67.57,-108.92 93.29,-130.28 118.75,-143 122.26,-144.75 125.95,-146.37 129.73,-147.86"/>
<polygon fill="#63b8ff" stroke="#63b8ff" points="128.25,-151.41 138.84,-151.51 130.62,-144.82 128.25,-151.41"/>
</a>
</g>
</g>
<!-- Node4 -->
<g id="Node000004" class="node">
<title>Node4</title>
<g id="a_Node000004"><a xlink:href="../../df/d0a/main_8cpp.html#a2faf12c27b7e1711848f39f038c45f70" target="_top" xlink:title="Realiza uma busca binária em uma equipe de colaboradores pelo ID.">
<polygon fill="white" stroke="#666666" points="220.62,-134 148.38,-134 148.38,-114 220.62,-114 220.62,-134"/>
<text text-anchor="middle" x="184.5" y="-120.5" font-family="Helvetica,sans-Serif" font-size="10.00">buscaBinaria</text>
</a>
</g>
</g>
<!-- Node1&#45;&gt;Node4 -->
<g id="edge3_Node000001_Node000004" class="edge">
<title>Node1&#45;&gt;Node4</title>
<g id="a_edge3_Node000001_Node000004"><a xlink:title=" ">
<path fill="none" stroke="#63b8ff" d="M81.31,-96.48C98.77,-101.19 119.49,-106.76 137.69,-111.66"/>
<polygon fill="#63b8ff" stroke="#63b8ff" points="136.5,-115.24 147.07,-114.46 138.32,-108.48 136.5,-115.24"/>
</a>
</g>
</g>
<!-- Node5 -->
<g id="Node000005" class="node">
<title>Node5</title>
<g id="a_Node000005"><a xlink:href="../../d1/d13/class_quadro.html#a1cc0b576c7787cc7c82019a3fd424822" target="_top" xlink:title="Obtém a equipe de colaboradores do quadro.">
<polygon fill="white" stroke="#666666" points="233,-96 136,-96 136,-76 233,-76 233,-96"/>
<text text-anchor="middle" x="184.5" y="-82.5" font-family="Helvetica,sans-Serif" font-size="10.00">Quadro::getEquipe</text>
</a>
</g>
</g>
<!-- Node1&#45;&gt;Node5 -->
<g id="edge4_Node000001_Node000005" class="edge">
<title>Node1&#45;&gt;Node5</title>
<g id="a_edge4_Node000001_Node000005"><a xlink:title=" ">
<path fill="none" stroke="#63b8ff" d="M83.19,-86C96.11,-86 110.64,-86 124.56,-86"/>
<polygon fill="#63b8ff" stroke="#63b8ff" points="124.54,-89.5 134.54,-86 124.54,-82.5 124.54,-89.5"/>
</a>
</g>
</g>
<!-- Node6 -->
<g id="Node000006" class="node">
<title>Node6</title>
<g id="a_Node000006"><a xlink:href="../../d1/d13/class_quadro.html#ae11cee4915eee6bf9b192ac8680fadf6" target="_top" xlink:title="Insere um colaborador na equipe do quadro.">
<polygon fill="white" stroke="#666666" points="250.25,-58 118.75,-58 118.75,-38 250.25,-38 250.25,-58"/>
<text text-anchor="middle" x="184.5" y="-44.5" font-family="Helvetica,sans-Serif" font-size="10.00">Quadro::inserirColaborador</text>
</a>
</g>
</g>
<!-- Node1&#45;&gt;Node6 -->
<g id="edge5_Node000001_Node000006" class="edge">
<title>Node1&#45;&gt;Node6</title>
<g id="a_edge5_Node000001_Node000006"><a xlink:title=" ">
<path fill="none" stroke="#63b8ff" d="M81.31,-75.52C97.66,-71.11 116.87,-65.94 134.19,-61.28"/>
<polygon fill="#63b8ff" stroke="#63b8ff" points="134.94,-64.43 143.69,-58.45 133.12,-57.67 134.94,-64.43"/>
</a>
</g>
</g>
<!-- Node7 -->
<g id="Node000007" class="node">
<title>Node7</title>
<g id="a_Node000007"><a xlink:href="../../d3/d3c/class_coluna.html#ac09fa33160badb14b7e4a095f15fb551" target="_top" xlink:title="Insere uma tarefa na coluna.">
<polygon fill="white" stroke="#666666" points="236.75,-20 132.25,-20 132.25,0 236.75,0 236.75,-20"/>
<text text-anchor="middle" x="184.5" y="-6.5" font-family="Helvetica,sans-Serif" font-size="10.00">Coluna::inserirTarefa</text>
</a>
</g>
</g>
<!-- Node1&#45;&gt;Node7 -->
<g id="edge6_Node000001_Node000007" class="edge">
<title>Node1&#45;&gt;Node7</title>
<g id="a_edge6_Node000001_Node000007"><a xlink:title=" ">
<path fill="none" stroke="#63b8ff" d="M53.42,-75.72C67.57,-63.08 93.29,-41.72 118.75,-29 122.26,-27.25 125.95,-25.63 129.73,-24.14"/>
<polygon fill="#63b8ff" stroke="#63b8ff" points="130.62,-27.18 138.84,-20.49 128.25,-20.59 130.62,-27.18"/>
</a>
</g>
</g>
<!-- Node3 -->
<g id="Node000003" class="node">
<title>Node3</title>
<g id="a_Node000003"><a xlink:href="../../db/dba/class_lista.html#af51fdf08cb850b001a83e43b0a19beab" target="_top" xlink:title="Insere uma coluna no início da lista.">
<polygon fill="white" stroke="#666666" points="378,-172 286.25,-172 286.25,-152 378,-152 378,-172"/>
<text text-anchor="middle" x="332.12" y="-158.5" font-family="Helvetica,sans-Serif" font-size="10.00">Lista::inserirInicio</text>
</a>
</g>
</g>
<!-- Node2&#45;&gt;Node3 -->
<g id="edge2_Node000002_Node000003" class="edge">
<title>Node2&#45;&gt;Node3</title>
<g id="a_edge2_Node000002_Node000003"><a xlink:title=" ">
<path fill="none" stroke="#63b8ff" d="M245.99,-162C255.65,-162 265.61,-162 275.16,-162"/>
<polygon fill="#63b8ff" stroke="#63b8ff" points="275.14,-165.5 285.14,-162 275.14,-158.5 275.14,-165.5"/>
</a>
</g>
</g>
</g>
</svg>
</svg>

<style type='text/css'>
<![CDATA[
[data-mouse-over-selected='false'] { opacity: 0.7; }
[data-mouse-over-selected='true']  { opacity: 1.0; }
]]>
</style>
<script type="application/ecmascript"><![CDATA[
document.addEventListener('DOMContentLoaded', (event) => {
  highlightEdges();
  highlightAdjacentNodes();
});
]]></script>
</svg>
