<?xml version="1.0" encoding="UTF-8" standalone="no"?>
<!DOCTYPE svg PUBLIC "-//W3C//DTD SVG 1.1//EN"
 "http://www.w3.org/Graphics/SVG/1.1/DTD/svg11.dtd">
<!-- Generated by graphviz version 8.1.0 (20230707.0739)
 -->
<!-- Title: buscarColaborador Pages: 1 -->
<svg width="238pt" height="66pt"
 viewBox="0.00 0.00 238.00 66.00" xmlns="http://www.w3.org/2000/svg" xmlns:xlink="http://www.w3.org/1999/xlink">
<g id="graph0" class="graph" transform="scale(1 1) rotate(0) translate(4 62)">
<title>buscarColaborador</title>
<!-- Node1 -->
<g id="Node000001" class="node">
<title>Node1</title>
<g id="a_Node000001"><a xlink:title="Busca um colaborador pelo ID no quadro KanBan e exibe suas informações.">
<polygon fill="#999999" stroke="#666666" points="97,-39 0,-39 0,-19 97,-19 97,-39"/>
<text text-anchor="middle" x="48.5" y="-25.5" font-family="Helvetica,sans-Serif" font-size="10.00">buscarColaborador</text>
</a>
</g>
</g>
<!-- Node2 -->
<g id="Node000002" class="node">
<title>Node2</title>
<g id="a_Node000002"><a xlink:href="../../df/d0a/main_8cpp.html#a2faf12c27b7e1711848f39f038c45f70" target="_top" xlink:title="Realiza uma busca binária em uma equipe de colaboradores pelo ID.">
<polygon fill="white" stroke="#666666" points="217.62,-58 145.38,-58 145.38,-38 217.62,-38 217.62,-58"/>
<text text-anchor="middle" x="181.5" y="-44.5" font-family="Helvetica,sans-Serif" font-size="10.00">buscaBinaria</text>
</a>
</g>
</g>
<!-- Node1&#45;&gt;Node2 -->
<g id="edge1_Node000001_Node000002" class="edge">
<title>Node1&#45;&gt;Node2</title>
<g id="a_edge1_Node000001_Node000002"><a xlink:title=" ">
<path fill="none" stroke="#63b8ff" d="M97.16,-35.91C109.26,-37.67 122.24,-39.55 134.27,-41.29"/>
<polygon fill="#63b8ff" stroke="#63b8ff" points="133.59,-44.88 143.99,-42.85 134.6,-37.95 133.59,-44.88"/>
</a>
</g>
</g>
<!-- Node3 -->
<g id="Node000003" class="node">
<title>Node3</title>
<g id="a_Node000003"><a xlink:href="../../d1/d13/class_quadro.html#a1cc0b576c7787cc7c82019a3fd424822" target="_top" xlink:title="Obtém a equipe de colaboradores do quadro.">
<polygon fill="white" stroke="#666666" points="230,-20 133,-20 133,0 230,0 230,-20"/>
<text text-anchor="middle" x="181.5" y="-6.5" font-family="Helvetica,sans-Serif" font-size="10.00">Quadro::getEquipe</text>
</a>
</g>
</g>
<!-- Node1&#45;&gt;Node3 -->
<g id="edge2_Node000001_Node000003" class="edge">
<title>Node1&#45;&gt;Node3</title>
<g id="a_edge2_Node000001_Node000003"><a xlink:title=" ">
<path fill="none" stroke="#63b8ff" d="M97.16,-22.09C105.2,-20.92 113.63,-19.7 121.9,-18.5"/>
<polygon fill="#63b8ff" stroke="#63b8ff" points="122.26,-21.84 131.65,-16.94 121.25,-14.91 122.26,-21.84"/>
</a>
</g>
</g>
</g>
</svg>
