<?xml version="1.0" encoding="UTF-8" standalone="no"?>
<!DOCTYPE svg PUBLIC "-//W3C//DTD SVG 1.1//EN"
 "http://www.w3.org/Graphics/SVG/1.1/DTD/svg11.dtd">
<!-- Generated by graphviz version 8.1.0 (20230707.0739)
 -->
<!-- Title: clearBuffer Pages: 1 -->
<!--zoomable 488 -->

<svg id="main" version="1.1" xmlns="http://www.w3.org/2000/svg" xmlns:xlink="http://www.w3.org/1999/xlink" xml:space="preserve" onload="init(evt)">
<style type="text/css"><![CDATA[
.node, .edge {opacity: 0.7;}
.node.selected, .edge.selected {opacity: 1;}
.edge:hover path { stroke: red; }
.edge:hover polygon { stroke: red; fill: red; }
]]></style>

<defs>
  <circle id="rim" cx="0" cy="0" r="7"/>
  <circle id="rim2" cx="0" cy="0" r="3.5"/>
  <g id="zoomPlus">
    <use xlink:href="#rim" fill="#404040"><set attributeName="fill" to="#808080" begin="zoomplus.mouseover" end="zoomplus.mouseout"/></use>
    <path d="M-4,0h8M0,-4v8" fill="none" stroke="white" stroke-width="1.5" pointer-events="none"/>
  </g>
  <g id="zoomMin">
    <use xlink:href="#rim" fill="#404040"><set attributeName="fill" to="#808080" begin="zoomminus.mouseover" end="zoomminus.mouseout"/></use>
    <path d="M-4,0h8" fill="none" stroke="white" stroke-width="1.5" pointer-events="none"/>
  </g>
  <g id="arrowUp" transform="translate(30 24)">
    <use xlink:href="#rim"/>
    <path pointer-events="none" fill="none" stroke="white" stroke-width="1.5" d="M0,-3.0v7 M-2.5,-0.5L0,-3.0L2.5,-0.5"/>
  </g>
  <g id="arrowRight" transform="rotate(90) translate(36 -43)">
    <use xlink:href="#rim"/>
    <path pointer-events="none" fill="none" stroke="white" stroke-width="1.5" d="M0,-3.0v7 M-2.5,-0.5L0,-3.0L2.5,-0.5"/>
  </g>
  <g id="arrowDown" transform="rotate(180) translate(-30 -48)">
    <use xlink:href="#rim"/>
    <path pointer-events="none" fill="none" stroke="white" stroke-width="1.5" d="M0,-3.0v7 M-2.5,-0.5L0,-3.0L2.5,-0.5"/>
  </g>
  <g id="arrowLeft" transform="rotate(270) translate(-36 17)">
    <use xlink:href="#rim"/>
    <path pointer-events="none" fill="none" stroke="white" stroke-width="1.5" d="M0,-3.0v7 M-2.5,-0.5L0,-3.0L2.5,-0.5"/>
  </g>
  <g id="resetDef">
    <use xlink:href="#rim2" fill="#404040"><set attributeName="fill" to="#808080" begin="reset.mouseover" end="reset.mouseout"/></use>
  </g>
</defs>
<script type="application/ecmascript">
var viewWidth = 440;
var viewHeight = 488;
var sectionId = 'dynsection-12';
</script>
<script type="application/ecmascript" xlink:href="../../svg.min.js"/>
<svg id="graph" class="graph">
<g id="viewport">
<title>clearBuffer</title>
<!-- Node1 -->
<g id="Node000001" class="node">
<title>Node1</title>
<g id="a_Node000001"><a xlink:title="Limpa o buffer do console.">
<polygon fill="#999999" stroke="#666666" points="431.5,-251.77 369.75,-251.77 369.75,-231.77 431.5,-231.77 431.5,-251.77"/>
<text text-anchor="middle" x="400.62" y="-238.27" font-family="Helvetica,sans-Serif" font-size="10.00">clearBuffer</text>
</a>
</g>
</g>
<!-- Node2 -->
<g id="Node000002" class="node">
<title>Node2</title>
<g id="a_Node000002"><a xlink:href="../../df/d0a/main_8cpp.html#adeb70abb0e6d3cf5e724363a38ce80ca" target="_top" xlink:title="Adiciona uma nova coluna do tipo &quot;arquivo&quot; ao quadro KanBan.">
<polygon fill="white" stroke="#666666" points="189.5,-479.77 73,-479.77 73,-459.77 189.5,-459.77 189.5,-479.77"/>
<text text-anchor="middle" x="131.25" y="-466.27" font-family="Helvetica,sans-Serif" font-size="10.00">adicionarColunaArquivo</text>
</a>
</g>
</g>
<!-- Node1&#45;&gt;Node2 -->
<g id="edge1_Node000001_Node000002" class="edge">
<title>Node1&#45;&gt;Node2</title>
<g id="a_edge1_Node000001_Node000002"><a xlink:title=" ">
<path fill="none" stroke="#63b8ff" d="M399.74,-262.7C398.74,-304.77 389.99,-399.5 333.75,-445.77 294.03,-478.45 234.08,-481.66 189.89,-478.39"/>
<polygon fill="#63b8ff" stroke="#63b8ff" points="403.25,-262.91 399.85,-252.88 396.25,-262.84 403.25,-262.91"/>
</a>
</g>
</g>
<!-- Node3 -->
<g id="Node000003" class="node">
<title>Node3</title>
<g id="a_Node000003"><a xlink:href="../../df/d0a/main_8cpp.html#ae66f6b31b5ad750f1fe042a706a4e3d4" target="_top" xlink:title=" ">
<polygon fill="white" stroke="#666666" points="37,-251.77 0,-251.77 0,-231.77 37,-231.77 37,-251.77"/>
<text text-anchor="middle" x="18.5" y="-238.27" font-family="Helvetica,sans-Serif" font-size="10.00">main</text>
</a>
</g>
</g>
<!-- Node1&#45;&gt;Node3 -->
<g id="edge16_Node000001_Node000003" class="edge">
<title>Node1&#45;&gt;Node3</title>
<g id="a_edge16_Node000001_Node000003"><a xlink:title=" ">
<path fill="none" stroke="#63b8ff" d="M397.94,-262.4C393.82,-297.76 379.93,-369.39 333.75,-402.77 286.75,-436.74 119.73,-447.11 73,-412.77 20.11,-373.9 18.06,-282.94 18.98,-252.16"/>
<polygon fill="#63b8ff" stroke="#63b8ff" points="401.47,-263.2 398.99,-252.9 394.51,-262.5 401.47,-263.2"/>
</a>
</g>
</g>
<!-- Node4 -->
<g id="Node000004" class="node">
<title>Node4</title>
<g id="a_Node000004"><a xlink:href="../../df/d0a/main_8cpp.html#a0d931717ab3053bc49784e26575b01d6" target="_top" xlink:title="Adiciona uma nova tarefa a uma coluna no quadro KanBan.">
<polygon fill="white" stroke="#666666" points="171.88,-403.77 90.62,-403.77 90.62,-383.77 171.88,-383.77 171.88,-403.77"/>
<text text-anchor="middle" x="131.25" y="-390.27" font-family="Helvetica,sans-Serif" font-size="10.00">adicionarTarefa</text>
</a>
</g>
</g>
<!-- Node1&#45;&gt;Node4 -->
<g id="edge3_Node000001_Node000004" class="edge">
<title>Node1&#45;&gt;Node4</title>
<g id="a_edge3_Node000001_Node000004"><a xlink:title=" ">
<path fill="none" stroke="#63b8ff" d="M395.87,-262.53C389.19,-292.81 372.17,-348.34 333.75,-374.77 285.84,-407.72 215.66,-406.01 172.03,-400.68"/>
<polygon fill="#63b8ff" stroke="#63b8ff" points="399.46,-263.43 398.01,-252.94 392.6,-262.05 399.46,-263.43"/>
</a>
</g>
</g>
<!-- Node5 -->
<g id="Node000005" class="node">
<title>Node5</title>
<g id="a_Node000005"><a xlink:href="../../df/d0a/main_8cpp.html#aed504424b48ab1ef3ce656ba1d439ae0" target="_top" xlink:title="Cria e cadastra um novo colaborador no quadro KanBan.">
<polygon fill="white" stroke="#666666" points="333.75,-365.77 225.5,-365.77 225.5,-345.77 333.75,-345.77 333.75,-365.77"/>
<text text-anchor="middle" x="279.62" y="-352.27" font-family="Helvetica,sans-Serif" font-size="10.00">cadastrarColaborador</text>
</a>
</g>
</g>
<!-- Node1&#45;&gt;Node5 -->
<g id="edge5_Node000001_Node000005" class="edge">
<title>Node1&#45;&gt;Node5</title>
<g id="a_edge5_Node000001_Node000005"><a xlink:title=" ">
<path fill="none" stroke="#63b8ff" d="M389.16,-261.62C377.79,-281.57 357.97,-312.12 333.75,-331.77 326.99,-337.25 318.78,-341.76 310.85,-345.33"/>
<polygon fill="#63b8ff" stroke="#63b8ff" points="392.69,-263.46 394.44,-253.01 386.56,-260.08 392.69,-263.46"/>
</a>
</g>
</g>
<!-- Node6 -->
<g id="Node000006" class="node">
<title>Node6</title>
<g id="a_Node000006"><a xlink:href="../../df/d0a/main_8cpp.html#a48e1cbf9de98941d548837997b582870" target="_top" xlink:title="Cria e adiciona uma nova coluna ao quadro KanBan.">
<polygon fill="white" stroke="#666666" points="163.62,-327.77 98.88,-327.77 98.88,-307.77 163.62,-307.77 163.62,-327.77"/>
<text text-anchor="middle" x="131.25" y="-314.27" font-family="Helvetica,sans-Serif" font-size="10.00">criarColuna</text>
</a>
</g>
</g>
<!-- Node1&#45;&gt;Node6 -->
<g id="edge8_Node000001_Node000006" class="edge">
<title>Node1&#45;&gt;Node6</title>
<g id="a_edge8_Node000001_Node000006"><a xlink:title=" ">
<path fill="none" stroke="#63b8ff" d="M376.71,-258.06C364.48,-266.04 348.88,-275.11 333.75,-280.77 276.12,-302.34 204.36,-311.65 163.89,-315.42"/>
<polygon fill="#63b8ff" stroke="#63b8ff" points="378.38,-260.49 384.71,-251.99 374.47,-254.68 378.38,-260.49"/>
</a>
</g>
</g>
<!-- Node7 -->
<g id="Node000007" class="node">
<title>Node7</title>
<g id="a_Node000007"><a xlink:href="../../df/d0a/main_8cpp.html#a3efe6ab2635ad7386bcff5f15661a081" target="_top" xlink:title="Cria um novo quadro KanBan.">
<polygon fill="white" stroke="#666666" points="164.38,-289.77 98.12,-289.77 98.12,-269.77 164.38,-269.77 164.38,-289.77"/>
<text text-anchor="middle" x="131.25" y="-276.27" font-family="Helvetica,sans-Serif" font-size="10.00">criarQuadro</text>
</a>
</g>
</g>
<!-- Node1&#45;&gt;Node7 -->
<g id="edge10_Node000001_Node000007" class="edge">
<title>Node1&#45;&gt;Node7</title>
<g id="a_edge10_Node000001_Node000007"><a xlink:title=" ">
<path fill="none" stroke="#63b8ff" d="M358.88,-254.8C350.63,-257.08 341.96,-259.21 333.75,-260.77 274.72,-271.96 204.64,-276.68 164.62,-278.58"/>
<polygon fill="#63b8ff" stroke="#63b8ff" points="359.77,-257.9 368.41,-251.77 357.83,-251.18 359.77,-257.9"/>
</a>
</g>
</g>
<!-- Node8 -->
<g id="Node000008" class="node">
<title>Node8</title>
<g id="a_Node000008"><a xlink:href="../../df/d0a/main_8cpp.html#a512a56ef22516c5454d0f925b16adcd6" target="_top" xlink:title="Edita uma coluna existente no quadro KanBan.">
<polygon fill="white" stroke="#666666" points="314.62,-251.77 244.62,-251.77 244.62,-231.77 314.62,-231.77 314.62,-251.77"/>
<text text-anchor="middle" x="279.62" y="-238.27" font-family="Helvetica,sans-Serif" font-size="10.00">editarColuna</text>
</a>
</g>
</g>
<!-- Node1&#45;&gt;Node8 -->
<g id="edge12_Node000001_Node000008" class="edge">
<title>Node1&#45;&gt;Node8</title>
<g id="a_edge12_Node000001_Node000008"><a xlink:title=" ">
<path fill="none" stroke="#63b8ff" d="M358.37,-241.77C344.26,-241.77 328.63,-241.77 315.11,-241.77"/>
<polygon fill="#63b8ff" stroke="#63b8ff" points="358.29,-245.27 368.29,-241.77 358.29,-238.27 358.29,-245.27"/>
</a>
</g>
</g>
<!-- Node9 -->
<g id="Node000009" class="node">
<title>Node9</title>
<g id="a_Node000009"><a xlink:href="../../df/d0a/main_8cpp.html#ac8773e0e3b3c75454e680ff43c6fcd7f" target="_top" xlink:title="Edita uma tarefa existente no quadro KanBan.">
<polygon fill="white" stroke="#666666" points="312.75,-213.77 246.5,-213.77 246.5,-193.77 312.75,-193.77 312.75,-213.77"/>
<text text-anchor="middle" x="279.62" y="-200.27" font-family="Helvetica,sans-Serif" font-size="10.00">editarTarefa</text>
</a>
</g>
</g>
<!-- Node1&#45;&gt;Node9 -->
<g id="edge14_Node000001_Node000009" class="edge">
<title>Node1&#45;&gt;Node9</title>
<g id="a_edge14_Node000001_Node000009"><a xlink:title=" ">
<path fill="none" stroke="#63b8ff" d="M359.2,-228.86C344.14,-224.05 327.24,-218.66 312.99,-214.11"/>
<polygon fill="#63b8ff" stroke="#63b8ff" points="357.7,-232.37 368.29,-232.08 359.83,-225.71 357.7,-232.37"/>
</a>
</g>
</g>
<!-- Node10 -->
<g id="Node000010" class="node">
<title>Node10</title>
<g id="a_Node000010"><a xlink:href="../../df/d0a/main_8cpp.html#a23877ef139dcc4300c8f74067c517d27" target="_top" xlink:title="Move uma coluna de uma posição para outra no quadro KanBan.">
<polygon fill="white" stroke="#666666" points="315.38,-175.77 243.88,-175.77 243.88,-155.77 315.38,-155.77 315.38,-175.77"/>
<text text-anchor="middle" x="279.62" y="-162.27" font-family="Helvetica,sans-Serif" font-size="10.00">moverColuna</text>
</a>
</g>
</g>
<!-- Node1&#45;&gt;Node10 -->
<g id="edge17_Node000001_Node000010" class="edge">
<title>Node1&#45;&gt;Node10</title>
<g id="a_edge17_Node000001_Node000010"><a xlink:title=" ">
<path fill="none" stroke="#63b8ff" d="M382.86,-224.13C370.3,-211.74 352.18,-195.53 333.75,-184.77 328.17,-181.51 321.93,-178.67 315.75,-176.25"/>
<polygon fill="#63b8ff" stroke="#63b8ff" points="379.74,-225.96 389.26,-230.62 384.72,-221.05 379.74,-225.96"/>
</a>
</g>
</g>
<!-- Node11 -->
<g id="Node000011" class="node">
<title>Node11</title>
<g id="a_Node000011"><a xlink:href="../../df/d0a/main_8cpp.html#a2eddfb0aac0ba265acd5268ce3d8e919" target="_top" xlink:title="Move uma tarefa de uma coluna para outra no quadro KanBan.">
<polygon fill="white" stroke="#666666" points="316.12,-137.77 243.12,-137.77 243.12,-117.77 316.12,-117.77 316.12,-137.77"/>
<text text-anchor="middle" x="279.62" y="-124.27" font-family="Helvetica,sans-Serif" font-size="10.00">moverTarefas</text>
</a>
</g>
</g>
<!-- Node1&#45;&gt;Node11 -->
<g id="edge19_Node000001_Node000011" class="edge">
<title>Node1&#45;&gt;Node11</title>
<g id="a_edge19_Node000001_Node000011"><a xlink:title=" ">
<path fill="none" stroke="#63b8ff" d="M390.39,-221.64C379.62,-200.25 359.91,-166.82 333.75,-146.77 328.62,-142.84 322.6,-139.67 316.5,-137.13"/>
<polygon fill="#63b8ff" stroke="#63b8ff" points="387.56,-222.84 395.07,-230.32 393.87,-219.8 387.56,-222.84"/>
</a>
</g>
</g>
<!-- Node12 -->
<g id="Node000012" class="node">
<title>Node12</title>
<g id="a_Node000012"><a xlink:href="../../df/d0a/main_8cpp.html#ac91dd762f55fe21f3a2226d59abff942" target="_top" xlink:title="Ordena as tarefas por prioridade usando o algoritmo Bubble Sort.">
<polygon fill="white" stroke="#666666" points="170.38,-99.77 92.12,-99.77 92.12,-79.77 170.38,-79.77 170.38,-99.77"/>
<text text-anchor="middle" x="131.25" y="-86.27" font-family="Helvetica,sans-Serif" font-size="10.00">ordenarColuna</text>
</a>
</g>
</g>
<!-- Node1&#45;&gt;Node12 -->
<g id="edge21_Node000001_Node000012" class="edge">
<title>Node1&#45;&gt;Node12</title>
<g id="a_edge21_Node000001_Node000012"><a xlink:title=" ">
<path fill="none" stroke="#63b8ff" d="M395.87,-221.01C389.19,-190.73 372.17,-135.2 333.75,-108.77 285.4,-75.52 214.38,-77.56 170.85,-83.01"/>
<polygon fill="#63b8ff" stroke="#63b8ff" points="392.6,-221.49 398.01,-230.6 399.46,-220.11 392.6,-221.49"/>
</a>
</g>
</g>
<!-- Node13 -->
<g id="Node000013" class="node">
<title>Node13</title>
<g id="a_Node000013"><a xlink:href="../../df/d0a/main_8cpp.html#aaa15a96063fb4377e5ac1d46a68321c0" target="_top" xlink:title="Remove uma coluna do quadro KanBan.">
<polygon fill="white" stroke="#666666" points="171.12,-61.77 91.38,-61.77 91.38,-41.77 171.12,-41.77 171.12,-61.77"/>
<text text-anchor="middle" x="131.25" y="-48.27" font-family="Helvetica,sans-Serif" font-size="10.00">removerColuna</text>
</a>
</g>
</g>
<!-- Node1&#45;&gt;Node13 -->
<g id="edge23_Node000001_Node000013" class="edge">
<title>Node1&#45;&gt;Node13</title>
<g id="a_edge23_Node000001_Node000013"><a xlink:title=" ">
<path fill="none" stroke="#63b8ff" d="M397.97,-220.77C393.92,-184.7 380.11,-111.44 333.75,-75.77 287.12,-39.89 215.58,-40.61 171.47,-45.45"/>
<polygon fill="#63b8ff" stroke="#63b8ff" points="394.56,-220.85 399.01,-230.46 401.53,-220.17 394.56,-220.85"/>
</a>
</g>
</g>
<!-- Node14 -->
<g id="Node000014" class="node">
<title>Node14</title>
<g id="a_Node000014"><a xlink:href="../../df/d0a/main_8cpp.html#aee02b44e62983f07d64c57db154c0467" target="_top" xlink:title="Remove uma tarefa de uma coluna no quadro KanBan.">
<polygon fill="white" stroke="#666666" points="317.62,-23.77 241.62,-23.77 241.62,-3.77 317.62,-3.77 317.62,-23.77"/>
<text text-anchor="middle" x="279.62" y="-10.27" font-family="Helvetica,sans-Serif" font-size="10.00">removerTarefa</text>
</a>
</g>
</g>
<!-- Node1&#45;&gt;Node14 -->
<g id="edge25_Node000001_Node000014" class="edge">
<title>Node1&#45;&gt;Node14</title>
<g id="a_edge25_Node000001_Node000014"><a xlink:title=" ">
<path fill="none" stroke="#63b8ff" d="M398.32,-220.54C394.76,-180.11 381.63,-91.33 333.75,-37.77 328.62,-32.04 321.86,-27.59 314.88,-24.18"/>
<polygon fill="#63b8ff" stroke="#63b8ff" points="394.9,-220.73 399.15,-230.44 401.88,-220.2 394.9,-220.73"/>
</a>
</g>
</g>
<!-- Node2&#45;&gt;Node3 -->
<g id="edge2_Node000002_Node000003" class="edge">
<title>Node2&#45;&gt;Node3</title>
<g id="a_edge2_Node000002_Node000003"><a xlink:title=" ">
<path fill="none" stroke="#63b8ff" d="M82.18,-453.87C78.79,-451.52 75.67,-448.84 73,-445.77 21.86,-386.89 18.78,-284.77 19.19,-252.12"/>
<polygon fill="#63b8ff" stroke="#63b8ff" points="80.22,-457.36 90.63,-459.34 83.72,-451.3 80.22,-457.36"/>
</a>
</g>
</g>
<!-- Node4&#45;&gt;Node3 -->
<g id="edge4_Node000004_Node000003" class="edge">
<title>Node4&#45;&gt;Node3</title>
<g id="a_edge4_Node000004_Node000003"><a xlink:title=" ">
<path fill="none" stroke="#63b8ff" d="M83.88,-378.24C79.92,-375.8 76.21,-372.99 73,-369.77 38.79,-335.52 25.32,-276.15 21.11,-252.21"/>
<polygon fill="#63b8ff" stroke="#63b8ff" points="81.96,-381.72 92.43,-383.32 85.24,-375.54 81.96,-381.72"/>
</a>
</g>
</g>
<!-- Node5&#45;&gt;Node3 -->
<g id="edge7_Node000005_Node000003" class="edge">
<title>Node5&#45;&gt;Node3</title>
<g id="a_edge7_Node000005_Node000003"><a xlink:title=" ">
<path fill="none" stroke="#63b8ff" d="M214.56,-364.52C171.26,-367.11 114.6,-363.73 73,-336.77 42.03,-316.7 27.2,-272.08 21.89,-251.96"/>
<polygon fill="#63b8ff" stroke="#63b8ff" points="214.55,-367.95 224.27,-363.74 214.04,-360.97 214.55,-367.95"/>
</a>
</g>
</g>
<!-- Node5&#45;&gt;Node4 -->
<g id="edge6_Node000005_Node000004" class="edge">
<title>Node5&#45;&gt;Node4</title>
<g id="a_edge6_Node000005_Node000004"><a xlink:title=" ">
<path fill="none" stroke="#63b8ff" d="M227.81,-368.96C209.62,-373.68 189.39,-378.94 172.25,-383.39"/>
<polygon fill="#63b8ff" stroke="#63b8ff" points="228.44,-372.15 237.24,-366.25 226.68,-365.38 228.44,-372.15"/>
</a>
</g>
</g>
<!-- Node6&#45;&gt;Node3 -->
<g id="edge9_Node000006_Node000003" class="edge">
<title>Node6&#45;&gt;Node3</title>
<g id="a_edge9_Node000006_Node000003"><a xlink:title=" ">
<path fill="none" stroke="#63b8ff" d="M88.17,-306.52C82.87,-304.33 77.68,-301.76 73,-298.77 53.33,-286.2 35.94,-264.79 26.65,-252.09"/>
<polygon fill="#63b8ff" stroke="#63b8ff" points="86.79,-310.1 97.38,-310.28 89.21,-303.54 86.79,-310.1"/>
</a>
</g>
</g>
<!-- Node7&#45;&gt;Node3 -->
<g id="edge11_Node000007_Node000003" class="edge">
<title>Node7&#45;&gt;Node3</title>
<g id="a_edge11_Node000007_Node000003"><a xlink:title=" ">
<path fill="none" stroke="#63b8ff" d="M89.42,-265.76C71.42,-259.59 51.23,-252.66 37.18,-247.84"/>
<polygon fill="#63b8ff" stroke="#63b8ff" points="88.1,-269.35 98.69,-269.29 90.37,-262.73 88.1,-269.35"/>
</a>
</g>
</g>
<!-- Node8&#45;&gt;Node3 -->
<g id="edge13_Node000008_Node000003" class="edge">
<title>Node8&#45;&gt;Node3</title>
<g id="a_edge13_Node000008_Node000003"><a xlink:title=" ">
<path fill="none" stroke="#63b8ff" d="M233.51,-241.77C175.42,-241.77 77.19,-241.77 37.22,-241.77"/>
<polygon fill="#63b8ff" stroke="#63b8ff" points="233.22,-245.27 243.22,-241.77 233.22,-238.27 233.22,-245.27"/>
</a>
</g>
</g>
<!-- Node9&#45;&gt;Node3 -->
<g id="edge15_Node000009_Node000003" class="edge">
<title>Node9&#45;&gt;Node3</title>
<g id="a_edge15_Node000009_Node000003"><a xlink:title=" ">
<path fill="none" stroke="#63b8ff" d="M235.44,-210.1C177.61,-218.58 77.6,-233.25 37.2,-239.17"/>
<polygon fill="#63b8ff" stroke="#63b8ff" points="235.68,-213.46 245.07,-208.54 234.67,-206.53 235.68,-213.46"/>
</a>
</g>
</g>
<!-- Node10&#45;&gt;Node3 -->
<g id="edge18_Node000010_Node000003" class="edge">
<title>Node10&#45;&gt;Node3</title>
<g id="a_edge18_Node000010_Node000003"><a xlink:title=" ">
<path fill="none" stroke="#63b8ff" d="M232.77,-172.57C190.4,-179.71 126.15,-192.72 73,-212.77 59.95,-217.69 46.14,-225.25 35.81,-231.41"/>
<polygon fill="#63b8ff" stroke="#63b8ff" points="233.28,-175.87 242.58,-170.8 232.15,-168.96 233.28,-175.87"/>
</a>
</g>
</g>
<!-- Node11&#45;&gt;Node3 -->
<g id="edge20_Node000011_Node000003" class="edge">
<title>Node11&#45;&gt;Node3</title>
<g id="a_edge20_Node000011_Node000003"><a xlink:title=" ">
<path fill="none" stroke="#63b8ff" d="M231.95,-130.41C188.01,-134.77 121.83,-146.29 73,-176.77 50.68,-190.7 33.3,-217.18 24.95,-231.67"/>
<polygon fill="#63b8ff" stroke="#63b8ff" points="232.25,-133.81 241.9,-129.43 231.63,-126.84 232.25,-133.81"/>
</a>
</g>
</g>
<!-- Node12&#45;&gt;Node3 -->
<g id="edge22_Node000012_Node000003" class="edge">
<title>Node12&#45;&gt;Node3</title>
<g id="a_edge22_Node000012_Node000003"><a xlink:title=" ">
<path fill="none" stroke="#63b8ff" d="M83.88,-105.3C79.92,-107.75 76.21,-110.55 73,-113.77 38.79,-148.02 25.32,-207.4 21.11,-231.33"/>
<polygon fill="#63b8ff" stroke="#63b8ff" points="85.24,-108 92.43,-100.22 81.96,-101.82 85.24,-108"/>
</a>
</g>
</g>
<!-- Node13&#45;&gt;Node3 -->
<g id="edge24_Node000013_Node000003" class="edge">
<title>Node13&#45;&gt;Node3</title>
<g id="a_edge24_Node000013_Node000003"><a xlink:title=" ">
<path fill="none" stroke="#63b8ff" d="M81.39,-64.12C78.34,-66.03 75.5,-68.23 73,-70.77 27.43,-117.14 20.61,-201.77 19.64,-231.28"/>
<polygon fill="#63b8ff" stroke="#63b8ff" points="82.7,-66.88 90.05,-59.24 79.55,-60.63 82.7,-66.88"/>
</a>
</g>
</g>
<!-- Node14&#45;&gt;Node3 -->
<g id="edge26_Node000014_Node000003" class="edge">
<title>Node14&#45;&gt;Node3</title>
<g id="a_edge26_Node000014_Node000003"><a xlink:title=" ">
<path fill="none" stroke="#63b8ff" d="M230.91,-3.93C184.99,2.6 116.31,4.17 73,-32.77 41.87,-59.32 24.9,-192.8 20.6,-231.34"/>
<polygon fill="#63b8ff" stroke="#63b8ff" points="230.08,-7.49 240.5,-5.57 231.15,-0.58 230.08,-7.49"/>
</a>
</g>
</g>
</g>
</svg>

<g id="navigator" transform="translate(0 0)" fill="#404254">
  <rect fill="#f2f5e9" fill-opacity="0.5" stroke="#606060" stroke-width=".5" x="0" y="0" width="60" height="60"/>
  <use id="zoomplus" xlink:href="#zoomPlus" x="17" y="9" onmousedown="handleZoom(evt,'in')"/>
  <use id="zoomminus" xlink:href="#zoomMin" x="42" y="9" onmousedown="handleZoom(evt,'out')"/>
  <use id="reset" xlink:href="#resetDef" x="30" y="36" onmousedown="handleReset()"/>
   <use id="arrowup" xlink:href="#arrowUp" x="0" y="0" onmousedown="handlePan(0,-1)"/>
  <use id="arrowright" xlink:href="#arrowRight" x="0" y="0" onmousedown="handlePan(1,0)"/>
  <use id="arrowdown" xlink:href="#arrowDown" x="0" y="0" onmousedown="handlePan(0,1)"/>
  <use id="arrowleft" xlink:href="#arrowLeft" x="0" y="0" onmousedown="handlePan(-1,0)"/>
</g>
<svg viewBox="0 0 15 15" width="100%" height="30px" preserveAspectRatio="xMaxYMin meet">
 <g id="arrow_out" transform="scale(0.3 0.3)">
  <a xlink:href="main_8cpp_a20bbd4d45e3f01305dd709f5a9cc9952_icgraph_org.svg" target="_base">
   <rect id="button" ry="5" rx="5" y="6" x="6" height="38" width="38"
        fill="#f2f5e9" fill-opacity="0.5" stroke="#606060" stroke-width="1.0"/>
   <path id="arrow"
     d="M 11.500037,31.436501 C 11.940474,20.09759 22.043105,11.32322 32.158766,21.979434 L 37.068811,17.246167 C 37.068811,17.246167 37.088388,32 37.088388,32 L 22.160133,31.978069 C 22.160133,31.978069 26.997745,27.140456 26.997745,27.140456 C 18.528582,18.264221 13.291696,25.230495 11.500037,31.436501 z"
     style="fill:#404040;"/>
  </a>
 </g>
</svg>

<style type='text/css'>
<![CDATA[
[data-mouse-over-selected='false'] { opacity: 0.7; }
[data-mouse-over-selected='true']  { opacity: 1.0; }
]]>
</style>
<script type="application/ecmascript"><![CDATA[
document.addEventListener('DOMContentLoaded', (event) => {
  highlightEdges();
  highlightAdjacentNodes();
});
]]></script>
</svg>
