<?xml version="1.0" encoding="UTF-8" standalone="no"?>
<!DOCTYPE svg PUBLIC "-//W3C//DTD SVG 1.1//EN"
 "http://www.w3.org/Graphics/SVG/1.1/DTD/svg11.dtd">
<!-- Generated by graphviz version 8.1.0 (20230707.0739)
 -->
<!-- Title: moverTarefas Pages: 1 -->
<svg width="536pt" height="256pt"
 viewBox="0.00 0.00 535.50 256.00" xmlns="http://www.w3.org/2000/svg" xmlns:xlink="http://www.w3.org/1999/xlink">
<g id="graph0" class="graph" transform="scale(1 1) rotate(0) translate(4 252)">
<title>moverTarefas</title>
<!-- Node1 -->
<g id="Node000001" class="node">
<title>Node1</title>
<g id="a_Node000001"><a xlink:title="Move uma tarefa de uma coluna para outra no quadro KanBan.">
<polygon fill="#999999" stroke="#666666" points="73,-134 0,-134 0,-114 73,-114 73,-134"/>
<text text-anchor="middle" x="36.5" y="-120.5" font-family="Helvetica,sans-Serif" font-size="10.00">moverTarefas</text>
</a>
</g>
</g>
<!-- Node2 -->
<g id="Node000002" class="node">
<title>Node2</title>
<g id="a_Node000002"><a xlink:href="../../df/d0a/main_8cpp.html#a20bbd4d45e3f01305dd709f5a9cc9952" target="_top" xlink:title="Limpa o buffer do console.">
<polygon fill="white" stroke="#666666" points="192.5,-248 130.75,-248 130.75,-228 192.5,-228 192.5,-248"/>
<text text-anchor="middle" x="161.62" y="-234.5" font-family="Helvetica,sans-Serif" font-size="10.00">clearBuffer</text>
</a>
</g>
</g>
<!-- Node1&#45;&gt;Node2 -->
<g id="edge1_Node000001_Node000002" class="edge">
<title>Node1&#45;&gt;Node2</title>
<g id="a_edge1_Node000001_Node000002"><a xlink:title=" ">
<path fill="none" stroke="#63b8ff" d="M43.54,-134.47C54.52,-152.73 79.37,-190.66 109,-214 113.06,-217.2 117.61,-220.09 122.28,-222.66"/>
<polygon fill="#63b8ff" stroke="#63b8ff" points="120.43,-226.15 130.93,-227.51 123.57,-219.9 120.43,-226.15"/>
</a>
</g>
</g>
<!-- Node3 -->
<g id="Node000003" class="node">
<title>Node3</title>
<g id="a_Node000003"><a xlink:href="../../d1/d13/class_quadro.html#aad88cee2be59e368c4c09166a7777fb9" target="_top" xlink:title="Obtém o número de colunas do quadro.">
<polygon fill="white" stroke="#666666" points="386.25,-210 250.25,-210 250.25,-190 386.25,-190 386.25,-210"/>
<text text-anchor="middle" x="318.25" y="-196.5" font-family="Helvetica,sans-Serif" font-size="10.00">Quadro::getNumeroColunas</text>
</a>
</g>
</g>
<!-- Node1&#45;&gt;Node3 -->
<g id="edge2_Node000001_Node000003" class="edge">
<title>Node1&#45;&gt;Node3</title>
<g id="a_edge2_Node000001_Node000003"><a xlink:title=" ">
<path fill="none" stroke="#63b8ff" d="M46.49,-134.17C59,-147.55 83.07,-170.58 109,-181 149.89,-197.43 198.82,-202.55 238.97,-203.39"/>
<polygon fill="#63b8ff" stroke="#63b8ff" points="238.74,-206.9 248.78,-203.52 238.82,-199.9 238.74,-206.9"/>
</a>
</g>
</g>
<!-- Node5 -->
<g id="Node000005" class="node">
<title>Node5</title>
<g id="a_Node000005"><a xlink:href="../../d3/d3c/class_coluna.html#a98df8d945c71c2cdc352d610325fea02" target="_top" xlink:title="Obtém o tamanho da coluna, ou seja, a quantidade de tarefas nela contidas.">
<polygon fill="white" stroke="#666666" points="214.25,-172 109,-172 109,-152 214.25,-152 214.25,-172"/>
<text text-anchor="middle" x="161.62" y="-158.5" font-family="Helvetica,sans-Serif" font-size="10.00">Coluna::getTamanho</text>
</a>
</g>
</g>
<!-- Node1&#45;&gt;Node5 -->
<g id="edge4_Node000001_Node000005" class="edge">
<title>Node1&#45;&gt;Node5</title>
<g id="a_edge4_Node000001_Node000005"><a xlink:title=" ">
<path fill="none" stroke="#63b8ff" d="M71.47,-134.48C85.33,-138.76 101.55,-143.77 116.32,-148.33"/>
<polygon fill="#63b8ff" stroke="#63b8ff" points="115.18,-151.95 125.77,-151.55 117.24,-145.26 115.18,-151.95"/>
</a>
</g>
</g>
<!-- Node6 -->
<g id="Node000006" class="node">
<title>Node6</title>
<g id="a_Node000006"><a xlink:href="../../d1/d13/class_quadro.html#a1d27dcd2c84b1742c7ebd4cb0f82a704" target="_top" xlink:title="Imprime as informações do quadro.">
<polygon fill="white" stroke="#666666" points="205.62,-134 117.62,-134 117.62,-114 205.62,-114 205.62,-134"/>
<text text-anchor="middle" x="161.62" y="-120.5" font-family="Helvetica,sans-Serif" font-size="10.00">Quadro::imprimir</text>
</a>
</g>
</g>
<!-- Node1&#45;&gt;Node6 -->
<g id="edge5_Node000001_Node000006" class="edge">
<title>Node1&#45;&gt;Node6</title>
<g id="a_edge5_Node000001_Node000006"><a xlink:title=" ">
<path fill="none" stroke="#63b8ff" d="M73.44,-124C83.88,-124 95.51,-124 106.79,-124"/>
<polygon fill="#63b8ff" stroke="#63b8ff" points="106.44,-127.5 116.44,-124 106.44,-120.5 106.44,-127.5"/>
</a>
</g>
</g>
<!-- Node9 -->
<g id="Node000009" class="node">
<title>Node9</title>
<g id="a_Node000009"><a xlink:href="../../d1/d13/class_quadro.html#acdcb5194cb4b20e50f6211df473b59f2" target="_top" xlink:title="Obtém uma coluna do quadro pelo índice.">
<polygon fill="white" stroke="#666666" points="370.88,-96 265.62,-96 265.62,-76 370.88,-76 370.88,-96"/>
<text text-anchor="middle" x="318.25" y="-82.5" font-family="Helvetica,sans-Serif" font-size="10.00">Quadro::obterColuna</text>
</a>
</g>
</g>
<!-- Node1&#45;&gt;Node9 -->
<g id="edge12_Node000001_Node000009" class="edge">
<title>Node1&#45;&gt;Node9</title>
<g id="a_edge12_Node000001_Node000009"><a xlink:title=" ">
<path fill="none" stroke="#63b8ff" d="M72.15,-113.53C83.77,-110.36 96.86,-107.15 109,-105 157.4,-96.42 212.86,-91.6 254.37,-88.97"/>
<polygon fill="#63b8ff" stroke="#63b8ff" points="254.38,-92.41 264.15,-88.31 253.96,-85.43 254.38,-92.41"/>
</a>
</g>
</g>
<!-- Node11 -->
<g id="Node000011" class="node">
<title>Node11</title>
<g id="a_Node000011"><a xlink:href="../../d3/d3c/class_coluna.html#afc72b9e6d07bb8c8bf926e6c96ed5e4f" target="_top" xlink:title="Move uma tarefa de uma coluna para outra.">
<polygon fill="white" stroke="#666666" points="213.5,-58 109.75,-58 109.75,-38 213.5,-38 213.5,-58"/>
<text text-anchor="middle" x="161.62" y="-44.5" font-family="Helvetica,sans-Serif" font-size="10.00">Coluna::moverTarefa</text>
</a>
</g>
</g>
<!-- Node1&#45;&gt;Node11 -->
<g id="edge11_Node000001_Node000011" class="edge">
<title>Node1&#45;&gt;Node11</title>
<g id="a_edge11_Node000001_Node000011"><a xlink:title=" ">
<path fill="none" stroke="#63b8ff" d="M50.16,-113.63C64.06,-102.52 87.31,-84.77 109,-72 114.4,-68.82 120.3,-65.74 126.11,-62.91"/>
<polygon fill="#63b8ff" stroke="#63b8ff" points="127.14,-65.83 134.71,-58.41 124.17,-59.49 127.14,-65.83"/>
</a>
</g>
</g>
<!-- Node12 -->
<g id="Node000012" class="node">
<title>Node12</title>
<g id="a_Node000012"><a xlink:href="../../d3/d3c/class_coluna.html#a1b697b50e065b83454e023c4ab24c4ef" target="_top" xlink:title="Obtém uma tarefa da coluna pelo seu índice.">
<polygon fill="white" stroke="#666666" points="211.62,-20 111.62,-20 111.62,0 211.62,0 211.62,-20"/>
<text text-anchor="middle" x="161.62" y="-6.5" font-family="Helvetica,sans-Serif" font-size="10.00">Coluna::obterTarefa</text>
</a>
</g>
</g>
<!-- Node1&#45;&gt;Node12 -->
<g id="edge13_Node000001_Node000012" class="edge">
<title>Node1&#45;&gt;Node12</title>
<g id="a_edge13_Node000001_Node000012"><a xlink:title=" ">
<path fill="none" stroke="#63b8ff" d="M42.71,-113.59C52.88,-94.26 77.19,-52.64 109,-29 110.7,-27.74 112.48,-26.56 114.34,-25.44"/>
<polygon fill="#63b8ff" stroke="#63b8ff" points="115.71,-28.16 123,-20.47 112.5,-21.93 115.71,-28.16"/>
</a>
</g>
</g>
<!-- Node4 -->
<g id="Node000004" class="node">
<title>Node4</title>
<g id="a_Node000004"><a xlink:href="../../db/dba/class_lista.html#a5cd63f61264afc88d0a6c290f7cb7320" target="_top" xlink:title="Obtém o tamanho da lista.">
<polygon fill="white" stroke="#666666" points="523,-210 426.75,-210 426.75,-190 523,-190 523,-210"/>
<text text-anchor="middle" x="474.88" y="-196.5" font-family="Helvetica,sans-Serif" font-size="10.00">Lista::getTamanho</text>
</a>
</g>
</g>
<!-- Node3&#45;&gt;Node4 -->
<g id="edge3_Node000003_Node000004" class="edge">
<title>Node3&#45;&gt;Node4</title>
<g id="a_edge3_Node000003_Node000004"><a xlink:title=" ">
<path fill="none" stroke="#63b8ff" d="M386.62,-200C396.33,-200 406.25,-200 415.76,-200"/>
<polygon fill="#63b8ff" stroke="#63b8ff" points="415.7,-203.5 425.7,-200 415.7,-196.5 415.7,-203.5"/>
</a>
</g>
</g>
<!-- Node6&#45;&gt;Node3 -->
<g id="edge7_Node000006_Node000003" class="edge">
<title>Node6&#45;&gt;Node3</title>
<g id="a_edge7_Node000006_Node000003"><a xlink:title=" ">
<path fill="none" stroke="#63b8ff" d="M197.84,-134.47C203.55,-136.86 209.23,-139.69 214.25,-143 233.68,-155.8 230.35,-168.95 250.25,-181 252.92,-182.61 255.73,-184.1 258.62,-185.46"/>
<polygon fill="#63b8ff" stroke="#63b8ff" points="257.14,-189.04 267.72,-189.62 259.81,-182.57 257.14,-189.04"/>
</a>
</g>
</g>
<!-- Node7 -->
<g id="Node000007" class="node">
<title>Node7</title>
<g id="a_Node000007"><a xlink:href="../../d3/d3c/class_coluna.html#a25ecf45ce1e1c7a03b9c92d4a5da0544" target="_top" xlink:title="Obtém o nome da coluna.">
<polygon fill="white" stroke="#666666" points="363.75,-172 272.75,-172 272.75,-152 363.75,-152 363.75,-172"/>
<text text-anchor="middle" x="318.25" y="-158.5" font-family="Helvetica,sans-Serif" font-size="10.00">Coluna::getNome</text>
</a>
</g>
</g>
<!-- Node6&#45;&gt;Node7 -->
<g id="edge6_Node000006_Node000007" class="edge">
<title>Node6&#45;&gt;Node7</title>
<g id="a_edge6_Node000006_Node000007"><a xlink:title=" ">
<path fill="none" stroke="#63b8ff" d="M205.29,-134.48C223.54,-138.97 245.04,-144.25 264.3,-148.99"/>
<polygon fill="#63b8ff" stroke="#63b8ff" points="263.18,-152.56 273.73,-151.55 264.85,-145.76 263.18,-152.56"/>
</a>
</g>
</g>
<!-- Node8 -->
<g id="Node000008" class="node">
<title>Node8</title>
<g id="a_Node000008"><a xlink:href="../../d3/d3c/class_coluna.html#a48875a7414e5f4d15bfed749bb0a5586" target="_top" xlink:title="Imprime as informações da coluna.">
<polygon fill="white" stroke="#666666" points="361.5,-134 275,-134 275,-114 361.5,-114 361.5,-134"/>
<text text-anchor="middle" x="318.25" y="-120.5" font-family="Helvetica,sans-Serif" font-size="10.00">Coluna::imprimir</text>
</a>
</g>
</g>
<!-- Node6&#45;&gt;Node8 -->
<g id="edge8_Node000006_Node000008" class="edge">
<title>Node6&#45;&gt;Node8</title>
<g id="a_edge8_Node000006_Node000008"><a xlink:title=" ">
<path fill="none" stroke="#63b8ff" d="M206.11,-124C224.03,-124 244.97,-124 263.81,-124"/>
<polygon fill="#63b8ff" stroke="#63b8ff" points="263.63,-127.5 273.63,-124 263.63,-120.5 263.63,-127.5"/>
</a>
</g>
</g>
<!-- Node6&#45;&gt;Node9 -->
<g id="edge9_Node000006_Node000009" class="edge">
<title>Node6&#45;&gt;Node9</title>
<g id="a_edge9_Node000006_Node000009"><a xlink:title=" ">
<path fill="none" stroke="#63b8ff" d="M205.29,-113.52C223.54,-109.03 245.04,-103.75 264.3,-99.01"/>
<polygon fill="#63b8ff" stroke="#63b8ff" points="264.85,-102.24 273.73,-96.45 263.18,-95.44 264.85,-102.24"/>
</a>
</g>
</g>
<!-- Node10 -->
<g id="Node000010" class="node">
<title>Node10</title>
<g id="a_Node000010"><a xlink:href="../../db/dba/class_lista.html#adb2dfb16eaf99f99fc1b39bf847af9bd" target="_top" xlink:title="Obtém a coluna da lista pelo índice.">
<polygon fill="white" stroke="#666666" points="527.5,-96 422.25,-96 422.25,-76 527.5,-76 527.5,-96"/>
<text text-anchor="middle" x="474.88" y="-82.5" font-family="Helvetica,sans-Serif" font-size="10.00">Lista::obterPorIndice</text>
</a>
</g>
</g>
<!-- Node9&#45;&gt;Node10 -->
<g id="edge10_Node000009_Node000010" class="edge">
<title>Node9&#45;&gt;Node10</title>
<g id="a_edge10_Node000009_Node000010"><a xlink:title=" ">
<path fill="none" stroke="#63b8ff" d="M371.17,-86C383.92,-86 397.7,-86 410.91,-86"/>
<polygon fill="#63b8ff" stroke="#63b8ff" points="410.83,-89.5 420.83,-86 410.83,-82.5 410.83,-89.5"/>
</a>
</g>
</g>
</g>
</svg>
