<?xml version="1.0" encoding="UTF-8" standalone="no"?>
<!DOCTYPE svg PUBLIC "-//W3C//DTD SVG 1.1//EN"
 "http://www.w3.org/Graphics/SVG/1.1/DTD/svg11.dtd">
<!-- Generated by graphviz version 8.1.0 (20230707.0739)
 -->
<!-- Title: buscaBinaria Pages: 1 -->
<svg width="286pt" height="142pt"
 viewBox="0.00 0.00 286.25 142.00" xmlns="http://www.w3.org/2000/svg" xmlns:xlink="http://www.w3.org/1999/xlink">

<svg id="main" version="1.1" xmlns="http://www.w3.org/2000/svg" xmlns:xlink="http://www.w3.org/1999/xlink" xml:space="preserve" onload="init(evt)">
<style type="text/css"><![CDATA[
.node, .edge {opacity: 0.7;}
.node.selected, .edge.selected {opacity: 1;}
.edge:hover path { stroke: red; }
.edge:hover polygon { stroke: red; fill: red; }
]]></style>
<script type="application/ecmascript" xlink:href="../../svg.min.js"/>
<svg id="graph" class="graph">
<g id="graph0" class="graph" transform="scale(1 1) rotate(0) translate(4 138)">
<title>buscaBinaria</title>
<!-- Node1 -->
<g id="Node000001" class="node">
<title>Node1</title>
<g id="a_Node000001"><a xlink:title="Realiza uma busca binária em uma equipe de colaboradores pelo ID.">
<polygon fill="#999999" stroke="#666666" points="278.25,-77 206,-77 206,-57 278.25,-57 278.25,-77"/>
<text text-anchor="middle" x="242.12" y="-63.5" font-family="Helvetica,sans-Serif" font-size="10.00">buscaBinaria</text>
</a>
</g>
</g>
<!-- Node2 -->
<g id="Node000002" class="node">
<title>Node2</title>
<g id="a_Node000002"><a xlink:href="../../df/d0a/main_8cpp.html#a0d931717ab3053bc49784e26575b01d6" target="_top" xlink:title="Adiciona uma nova tarefa a uma coluna no quadro KanBan.">
<polygon fill="white" stroke="#666666" points="162.12,-134 80.88,-134 80.88,-114 162.12,-114 162.12,-134"/>
<text text-anchor="middle" x="121.5" y="-120.5" font-family="Helvetica,sans-Serif" font-size="10.00">adicionarTarefa</text>
</a>
</g>
</g>
<!-- Node1&#45;&gt;Node2 -->
<g id="edge1_Node000001_Node000002" class="edge">
<title>Node1&#45;&gt;Node2</title>
<g id="a_edge1_Node000001_Node000002"><a xlink:title=" ">
<path fill="none" stroke="#63b8ff" d="M213.63,-82.6C200.58,-89.77 184.67,-98.17 170,-105 163.64,-107.96 156.68,-110.9 150.1,-113.56"/>
<polygon fill="#63b8ff" stroke="#63b8ff" points="214.94,-85.32 221.99,-77.41 211.54,-79.2 214.94,-85.32"/>
</a>
</g>
</g>
<!-- Node4 -->
<g id="Node000004" class="node">
<title>Node4</title>
<g id="a_Node000004"><a xlink:href="../../df/d0a/main_8cpp.html#a437489a63da65aff2f992d1273edacaa" target="_top" xlink:title="Busca um colaborador pelo ID no quadro KanBan e exibe suas informações.">
<polygon fill="white" stroke="#666666" points="170,-96 73,-96 73,-76 170,-76 170,-96"/>
<text text-anchor="middle" x="121.5" y="-82.5" font-family="Helvetica,sans-Serif" font-size="10.00">buscarColaborador</text>
</a>
</g>
</g>
<!-- Node1&#45;&gt;Node4 -->
<g id="edge3_Node000001_Node000004" class="edge">
<title>Node1&#45;&gt;Node4</title>
<g id="a_edge3_Node000001_Node000004"><a xlink:title=" ">
<path fill="none" stroke="#63b8ff" d="M194.84,-74.41C186.81,-75.7 178.43,-77.04 170.36,-78.33"/>
<polygon fill="#63b8ff" stroke="#63b8ff" points="195.21,-77.74 204.53,-72.7 194.11,-70.83 195.21,-77.74"/>
</a>
</g>
</g>
<!-- Node5 -->
<g id="Node000005" class="node">
<title>Node5</title>
<g id="a_Node000005"><a xlink:href="../../df/d0a/main_8cpp.html#ac19c0f76269ed6195cad2776a32e04f1" target="_top" xlink:title="Carrega um quadro KanBan a partir de um arquivo.">
<polygon fill="white" stroke="#666666" points="162.88,-58 80.12,-58 80.12,-38 162.88,-38 162.88,-58"/>
<text text-anchor="middle" x="121.5" y="-44.5" font-family="Helvetica,sans-Serif" font-size="10.00">carregarQuadro</text>
</a>
</g>
</g>
<!-- Node1&#45;&gt;Node5 -->
<g id="edge5_Node000001_Node000005" class="edge">
<title>Node1&#45;&gt;Node5</title>
<g id="a_edge5_Node000001_Node000005"><a xlink:title=" ">
<path fill="none" stroke="#63b8ff" d="M194.86,-59.59C184.37,-57.91 173.3,-56.14 163.06,-54.5"/>
<polygon fill="#63b8ff" stroke="#63b8ff" points="194.11,-63.17 204.53,-61.3 195.21,-56.26 194.11,-63.17"/>
</a>
</g>
</g>
<!-- Node6 -->
<g id="Node000006" class="node">
<title>Node6</title>
<g id="a_Node000006"><a xlink:href="../../df/d0a/main_8cpp.html#ac8773e0e3b3c75454e680ff43c6fcd7f" target="_top" xlink:title="Edita uma tarefa existente no quadro KanBan.">
<polygon fill="white" stroke="#666666" points="154.62,-20 88.38,-20 88.38,0 154.62,0 154.62,-20"/>
<text text-anchor="middle" x="121.5" y="-6.5" font-family="Helvetica,sans-Serif" font-size="10.00">editarTarefa</text>
</a>
</g>
</g>
<!-- Node1&#45;&gt;Node6 -->
<g id="edge7_Node000001_Node000006" class="edge">
<title>Node1&#45;&gt;Node6</title>
<g id="a_edge7_Node000001_Node000006"><a xlink:title=" ">
<path fill="none" stroke="#63b8ff" d="M213.63,-51.4C200.58,-44.23 184.67,-35.83 170,-29 163.64,-26.04 156.68,-23.1 150.1,-20.44"/>
<polygon fill="#63b8ff" stroke="#63b8ff" points="211.54,-54.8 221.99,-56.59 214.94,-48.68 211.54,-54.8"/>
</a>
</g>
</g>
<!-- Node3 -->
<g id="Node000003" class="node">
<title>Node3</title>
<g id="a_Node000003"><a xlink:href="../../df/d0a/main_8cpp.html#ae66f6b31b5ad750f1fe042a706a4e3d4" target="_top" xlink:title=" ">
<polygon fill="white" stroke="#666666" points="37,-77 0,-77 0,-57 37,-57 37,-77"/>
<text text-anchor="middle" x="18.5" y="-63.5" font-family="Helvetica,sans-Serif" font-size="10.00">main</text>
</a>
</g>
</g>
<!-- Node2&#45;&gt;Node3 -->
<g id="edge2_Node000002_Node000003" class="edge">
<title>Node2&#45;&gt;Node3</title>
<g id="a_edge2_Node000002_Node000003"><a xlink:title=" ">
<path fill="none" stroke="#63b8ff" d="M81.33,-109.2C78.47,-107.86 75.67,-106.45 73,-105 58.2,-96.93 42.63,-85.49 32.13,-77.27"/>
<polygon fill="#63b8ff" stroke="#63b8ff" points="79.55,-112.68 90.11,-113.51 82.37,-106.28 79.55,-112.68"/>
</a>
</g>
</g>
<!-- Node4&#45;&gt;Node3 -->
<g id="edge4_Node000004_Node000003" class="edge">
<title>Node4&#45;&gt;Node3</title>
<g id="a_edge4_Node000004_Node000003"><a xlink:title=" ">
<path fill="none" stroke="#63b8ff" d="M62.01,-75C53.01,-73.3 44.36,-71.68 37.24,-70.34"/>
<polygon fill="#63b8ff" stroke="#63b8ff" points="61.19,-78.59 71.66,-77 62.48,-71.71 61.19,-78.59"/>
</a>
</g>
</g>
<!-- Node5&#45;&gt;Node3 -->
<g id="edge6_Node000005_Node000003" class="edge">
<title>Node5&#45;&gt;Node3</title>
<g id="a_edge6_Node000005_Node000003"><a xlink:title=" ">
<path fill="none" stroke="#63b8ff" d="M68.92,-57.7C57.62,-59.83 46.39,-61.94 37.49,-63.62"/>
<polygon fill="#63b8ff" stroke="#63b8ff" points="69.53,-60.96 78.71,-55.67 68.24,-54.08 69.53,-60.96"/>
</a>
</g>
</g>
<!-- Node6&#45;&gt;Node3 -->
<g id="edge8_Node000006_Node000003" class="edge">
<title>Node6&#45;&gt;Node3</title>
<g id="a_edge8_Node000006_Node000003"><a xlink:title=" ">
<path fill="none" stroke="#63b8ff" d="M81.33,-24.8C78.47,-26.14 75.67,-27.55 73,-29 58.2,-37.07 42.63,-48.51 32.13,-56.73"/>
<polygon fill="#63b8ff" stroke="#63b8ff" points="82.37,-27.72 90.11,-20.49 79.55,-21.32 82.37,-27.72"/>
</a>
</g>
</g>
</g>
</svg>
</svg>

<style type='text/css'>
<![CDATA[
[data-mouse-over-selected='false'] { opacity: 0.7; }
[data-mouse-over-selected='true']  { opacity: 1.0; }
]]>
</style>
<script type="application/ecmascript"><![CDATA[
document.addEventListener('DOMContentLoaded', (event) => {
  highlightEdges();
  highlightAdjacentNodes();
});
]]></script>
</svg>
