<?xml version="1.0" encoding="UTF-8" standalone="no"?>
<!DOCTYPE svg PUBLIC "-//W3C//DTD SVG 1.1//EN"
 "http://www.w3.org/Graphics/SVG/1.1/DTD/svg11.dtd">
<!-- Generated by graphviz version 8.1.0 (20230707.0739)
 -->
<!-- Title: criarColuna Pages: 1 -->
<svg width="359pt" height="66pt"
 viewBox="0.00 0.00 359.00 66.00" xmlns="http://www.w3.org/2000/svg" xmlns:xlink="http://www.w3.org/1999/xlink">
<g id="graph0" class="graph" transform="scale(1 1) rotate(0) translate(4 62)">
<title>criarColuna</title>
<!-- Node1 -->
<g id="Node000001" class="node">
<title>Node1</title>
<g id="a_Node000001"><a xlink:title="Cria e adiciona uma nova coluna ao quadro KanBan.">
<polygon fill="#999999" stroke="#666666" points="64.75,-39 0,-39 0,-19 64.75,-19 64.75,-39"/>
<text text-anchor="middle" x="32.38" y="-25.5" font-family="Helvetica,sans-Serif" font-size="10.00">criarColuna</text>
</a>
</g>
</g>
<!-- Node2 -->
<g id="Node000002" class="node">
<title>Node2</title>
<g id="a_Node000002"><a xlink:href="../../d1/d13/class_quadro.html#ae21d17fb833175bd68b00970c772fcd3" target="_top" xlink:title="Adiciona uma coluna ao quadro.">
<polygon fill="white" stroke="#666666" points="223.25,-58 100.75,-58 100.75,-38 223.25,-38 223.25,-58"/>
<text text-anchor="middle" x="162" y="-44.5" font-family="Helvetica,sans-Serif" font-size="10.00">Quadro::adicionarColuna</text>
</a>
</g>
</g>
<!-- Node1&#45;&gt;Node2 -->
<g id="edge1_Node000001_Node000002" class="edge">
<title>Node1&#45;&gt;Node2</title>
<g id="a_edge1_Node000001_Node000002"><a xlink:title=" ">
<path fill="none" stroke="#63b8ff" d="M64.92,-33.7C72.58,-34.84 81.09,-36.1 89.78,-37.4"/>
<polygon fill="#63b8ff" stroke="#63b8ff" points="89.02,-40.97 99.43,-38.98 90.05,-34.05 89.02,-40.97"/>
</a>
</g>
</g>
<!-- Node4 -->
<g id="Node000004" class="node">
<title>Node4</title>
<g id="a_Node000004"><a xlink:href="../../df/d0a/main_8cpp.html#a20bbd4d45e3f01305dd709f5a9cc9952" target="_top" xlink:title="Limpa o buffer do console.">
<polygon fill="white" stroke="#666666" points="192.88,-20 131.12,-20 131.12,0 192.88,0 192.88,-20"/>
<text text-anchor="middle" x="162" y="-6.5" font-family="Helvetica,sans-Serif" font-size="10.00">clearBuffer</text>
</a>
</g>
</g>
<!-- Node1&#45;&gt;Node4 -->
<g id="edge3_Node000001_Node000004" class="edge">
<title>Node1&#45;&gt;Node4</title>
<g id="a_edge3_Node000001_Node000004"><a xlink:title=" ">
<path fill="none" stroke="#63b8ff" d="M64.92,-24.3C81.55,-21.83 102.14,-18.76 119.99,-16.1"/>
<polygon fill="#63b8ff" stroke="#63b8ff" points="120.32,-19.45 129.69,-14.51 119.29,-12.52 120.32,-19.45"/>
</a>
</g>
</g>
<!-- Node3 -->
<g id="Node000003" class="node">
<title>Node3</title>
<g id="a_Node000003"><a xlink:href="../../db/dba/class_lista.html#af51fdf08cb850b001a83e43b0a19beab" target="_top" xlink:title="Insere uma coluna no início da lista.">
<polygon fill="white" stroke="#666666" points="351,-58 259.25,-58 259.25,-38 351,-38 351,-58"/>
<text text-anchor="middle" x="305.12" y="-44.5" font-family="Helvetica,sans-Serif" font-size="10.00">Lista::inserirInicio</text>
</a>
</g>
</g>
<!-- Node2&#45;&gt;Node3 -->
<g id="edge2_Node000002_Node000003" class="edge">
<title>Node2&#45;&gt;Node3</title>
<g id="a_edge2_Node000002_Node000003"><a xlink:title=" ">
<path fill="none" stroke="#63b8ff" d="M223.67,-48C231.78,-48 240.08,-48 248.11,-48"/>
<polygon fill="#63b8ff" stroke="#63b8ff" points="247.85,-51.5 257.85,-48 247.85,-44.5 247.85,-51.5"/>
</a>
</g>
</g>
</g>
</svg>
