<?xml version="1.0" encoding="UTF-8" standalone="no"?>
<!DOCTYPE svg PUBLIC "-//W3C//DTD SVG 1.1//EN"
 "http://www.w3.org/Graphics/SVG/1.1/DTD/svg11.dtd">
<!-- Generated by graphviz version 8.1.0 (20230707.0739)
 -->
<!-- Title: editarColuna Pages: 1 -->
<svg width="536pt" height="218pt"
 viewBox="0.00 0.00 536.25 218.00" xmlns="http://www.w3.org/2000/svg" xmlns:xlink="http://www.w3.org/1999/xlink">
<g id="graph0" class="graph" transform="scale(1 1) rotate(0) translate(4 214)">
<title>editarColuna</title>
<!-- Node1 -->
<g id="Node000001" class="node">
<title>Node1</title>
<g id="a_Node000001"><a xlink:title="Edita uma coluna existente no quadro KanBan.">
<polygon fill="#999999" stroke="#666666" points="70,-115 0,-115 0,-95 70,-95 70,-115"/>
<text text-anchor="middle" x="35" y="-101.5" font-family="Helvetica,sans-Serif" font-size="10.00">editarColuna</text>
</a>
</g>
</g>
<!-- Node2 -->
<g id="Node000002" class="node">
<title>Node2</title>
<g id="a_Node000002"><a xlink:href="../../df/d0a/main_8cpp.html#a20bbd4d45e3f01305dd709f5a9cc9952" target="_top" xlink:title="Limpa o buffer do console.">
<polygon fill="white" stroke="#666666" points="191.38,-210 129.62,-210 129.62,-190 191.38,-190 191.38,-210"/>
<text text-anchor="middle" x="160.5" y="-196.5" font-family="Helvetica,sans-Serif" font-size="10.00">clearBuffer</text>
</a>
</g>
</g>
<!-- Node1&#45;&gt;Node2 -->
<g id="edge1_Node000001_Node000002" class="edge">
<title>Node1&#45;&gt;Node2</title>
<g id="a_edge1_Node000001_Node000002"><a xlink:title=" ">
<path fill="none" stroke="#63b8ff" d="M44.08,-115.36C56.2,-130.34 80.41,-158.23 106,-176 110.76,-179.3 116.04,-182.32 121.38,-185.02"/>
<polygon fill="#63b8ff" stroke="#63b8ff" points="119.42,-188.44 129.96,-189.53 122.4,-182.1 119.42,-188.44"/>
</a>
</g>
</g>
<!-- Node3 -->
<g id="Node000003" class="node">
<title>Node3</title>
<g id="a_Node000003"><a xlink:href="../../d1/d13/class_quadro.html#aad88cee2be59e368c4c09166a7777fb9" target="_top" xlink:title="Obtém o número de colunas do quadro.">
<polygon fill="white" stroke="#666666" points="387,-191 251,-191 251,-171 387,-171 387,-191"/>
<text text-anchor="middle" x="319" y="-177.5" font-family="Helvetica,sans-Serif" font-size="10.00">Quadro::getNumeroColunas</text>
</a>
</g>
</g>
<!-- Node1&#45;&gt;Node3 -->
<g id="edge2_Node000001_Node000003" class="edge">
<title>Node1&#45;&gt;Node3</title>
<g id="a_edge2_Node000001_Node000003"><a xlink:title=" ">
<path fill="none" stroke="#63b8ff" d="M51.72,-115.45C65.48,-124.11 86.3,-136.09 106,-143 149.08,-158.11 199.29,-167.45 240.03,-173.09"/>
<polygon fill="#63b8ff" stroke="#63b8ff" points="239.33,-176.66 249.71,-174.51 240.26,-169.72 239.33,-176.66"/>
</a>
</g>
</g>
<!-- Node5 -->
<g id="Node000005" class="node">
<title>Node5</title>
<g id="a_Node000005"><a xlink:href="../../d1/d13/class_quadro.html#a1d27dcd2c84b1742c7ebd4cb0f82a704" target="_top" xlink:title="Imprime as informações do quadro.">
<polygon fill="white" stroke="#666666" points="204.5,-134 116.5,-134 116.5,-114 204.5,-114 204.5,-134"/>
<text text-anchor="middle" x="160.5" y="-120.5" font-family="Helvetica,sans-Serif" font-size="10.00">Quadro::imprimir</text>
</a>
</g>
</g>
<!-- Node1&#45;&gt;Node5 -->
<g id="edge4_Node000001_Node000005" class="edge">
<title>Node1&#45;&gt;Node5</title>
<g id="a_edge4_Node000001_Node000005"><a xlink:title=" ">
<path fill="none" stroke="#63b8ff" d="M70.4,-110.29C81.22,-111.96 93.44,-113.84 105.29,-115.66"/>
<polygon fill="#63b8ff" stroke="#63b8ff" points="104.6,-119.25 115.02,-117.31 105.66,-112.33 104.6,-119.25"/>
</a>
</g>
</g>
<!-- Node8 -->
<g id="Node000008" class="node">
<title>Node8</title>
<g id="a_Node000008"><a xlink:href="../../d1/d13/class_quadro.html#acdcb5194cb4b20e50f6211df473b59f2" target="_top" xlink:title="Obtém uma coluna do quadro pelo índice.">
<polygon fill="white" stroke="#666666" points="371.62,-77 266.38,-77 266.38,-57 371.62,-57 371.62,-77"/>
<text text-anchor="middle" x="319" y="-63.5" font-family="Helvetica,sans-Serif" font-size="10.00">Quadro::obterColuna</text>
</a>
</g>
</g>
<!-- Node1&#45;&gt;Node8 -->
<g id="edge10_Node000001_Node000008" class="edge">
<title>Node1&#45;&gt;Node8</title>
<g id="a_edge10_Node000001_Node000008"><a xlink:title=" ">
<path fill="none" stroke="#63b8ff" d="M70.3,-100.38C116.15,-94.2 198.25,-83.14 255.3,-75.45"/>
<polygon fill="#63b8ff" stroke="#63b8ff" points="255.56,-78.81 265.01,-74.01 254.63,-71.87 255.56,-78.81"/>
</a>
</g>
</g>
<!-- Node10 -->
<g id="Node000010" class="node">
<title>Node10</title>
<g id="a_Node000010"><a xlink:href="../../d3/d3c/class_coluna.html#a38913a9091206a4672e2ab608d8a7804" target="_top" xlink:title="Define a descrição da coluna.">
<polygon fill="white" stroke="#666666" points="215,-58 106,-58 106,-38 215,-38 215,-58"/>
<text text-anchor="middle" x="160.5" y="-44.5" font-family="Helvetica,sans-Serif" font-size="10.00">Coluna::setDescricao</text>
</a>
</g>
</g>
<!-- Node1&#45;&gt;Node10 -->
<g id="edge11_Node000001_Node000010" class="edge">
<title>Node1&#45;&gt;Node10</title>
<g id="a_edge11_Node000001_Node000010"><a xlink:title=" ">
<path fill="none" stroke="#63b8ff" d="M57.71,-94.64C71.51,-88.08 89.77,-79.47 106,-72 112.59,-68.97 119.65,-65.77 126.41,-62.73"/>
<polygon fill="#63b8ff" stroke="#63b8ff" points="127.33,-65.7 135.02,-58.42 124.46,-59.32 127.33,-65.7"/>
</a>
</g>
</g>
<!-- Node11 -->
<g id="Node000011" class="node">
<title>Node11</title>
<g id="a_Node000011"><a xlink:href="../../d3/d3c/class_coluna.html#a8b576e2bbe66a544614667ca355d6545" target="_top" xlink:title="Define o nome da coluna.">
<polygon fill="white" stroke="#666666" points="206,-20 115,-20 115,0 206,0 206,-20"/>
<text text-anchor="middle" x="160.5" y="-6.5" font-family="Helvetica,sans-Serif" font-size="10.00">Coluna::setNome</text>
</a>
</g>
</g>
<!-- Node1&#45;&gt;Node11 -->
<g id="edge12_Node000001_Node000011" class="edge">
<title>Node1&#45;&gt;Node11</title>
<g id="a_edge12_Node000001_Node000011"><a xlink:title=" ">
<path fill="none" stroke="#63b8ff" d="M42.96,-94.66C54.35,-78.5 78.46,-47.19 106,-29 108.15,-27.58 110.42,-26.25 112.76,-25.01"/>
<polygon fill="#63b8ff" stroke="#63b8ff" points="114.09,-27.79 121.68,-20.39 111.14,-21.44 114.09,-27.79"/>
</a>
</g>
</g>
<!-- Node4 -->
<g id="Node000004" class="node">
<title>Node4</title>
<g id="a_Node000004"><a xlink:href="../../db/dba/class_lista.html#a5cd63f61264afc88d0a6c290f7cb7320" target="_top" xlink:title="Obtém o tamanho da lista.">
<polygon fill="white" stroke="#666666" points="523.75,-191 427.5,-191 427.5,-171 523.75,-171 523.75,-191"/>
<text text-anchor="middle" x="475.62" y="-177.5" font-family="Helvetica,sans-Serif" font-size="10.00">Lista::getTamanho</text>
</a>
</g>
</g>
<!-- Node3&#45;&gt;Node4 -->
<g id="edge3_Node000003_Node000004" class="edge">
<title>Node3&#45;&gt;Node4</title>
<g id="a_edge3_Node000003_Node000004"><a xlink:title=" ">
<path fill="none" stroke="#63b8ff" d="M387.37,-181C397.08,-181 407,-181 416.51,-181"/>
<polygon fill="#63b8ff" stroke="#63b8ff" points="416.45,-184.5 426.45,-181 416.45,-177.5 416.45,-184.5"/>
</a>
</g>
</g>
<!-- Node5&#45;&gt;Node3 -->
<g id="edge6_Node000005_Node000003" class="edge">
<title>Node5&#45;&gt;Node3</title>
<g id="a_edge6_Node000005_Node000003"><a xlink:title=" ">
<path fill="none" stroke="#63b8ff" d="M184,-134.48C201.91,-142.6 227.76,-153.81 251,-162 256.42,-163.91 262.13,-165.76 267.84,-167.52"/>
<polygon fill="#63b8ff" stroke="#63b8ff" points="266.48,-171.06 277.06,-170.56 268.48,-164.35 266.48,-171.06"/>
</a>
</g>
</g>
<!-- Node6 -->
<g id="Node000006" class="node">
<title>Node6</title>
<g id="a_Node000006"><a xlink:href="../../d3/d3c/class_coluna.html#a25ecf45ce1e1c7a03b9c92d4a5da0544" target="_top" xlink:title="Obtém o nome da coluna.">
<polygon fill="white" stroke="#666666" points="364.5,-153 273.5,-153 273.5,-133 364.5,-133 364.5,-153"/>
<text text-anchor="middle" x="319" y="-139.5" font-family="Helvetica,sans-Serif" font-size="10.00">Coluna::getNome</text>
</a>
</g>
</g>
<!-- Node5&#45;&gt;Node6 -->
<g id="edge5_Node000005_Node000006" class="edge">
<title>Node5&#45;&gt;Node6</title>
<g id="a_edge5_Node000005_Node000006"><a xlink:title=" ">
<path fill="none" stroke="#63b8ff" d="M204.68,-129.24C222.45,-131.4 243.27,-133.93 262.18,-136.22"/>
<polygon fill="#63b8ff" stroke="#63b8ff" points="261.7,-139.81 272.05,-137.54 262.55,-132.86 261.7,-139.81"/>
</a>
</g>
</g>
<!-- Node7 -->
<g id="Node000007" class="node">
<title>Node7</title>
<g id="a_Node000007"><a xlink:href="../../d3/d3c/class_coluna.html#a48875a7414e5f4d15bfed749bb0a5586" target="_top" xlink:title="Imprime as informações da coluna.">
<polygon fill="white" stroke="#666666" points="362.25,-115 275.75,-115 275.75,-95 362.25,-95 362.25,-115"/>
<text text-anchor="middle" x="319" y="-101.5" font-family="Helvetica,sans-Serif" font-size="10.00">Coluna::imprimir</text>
</a>
</g>
</g>
<!-- Node5&#45;&gt;Node7 -->
<g id="edge7_Node000005_Node000007" class="edge">
<title>Node5&#45;&gt;Node7</title>
<g id="a_edge7_Node000005_Node000007"><a xlink:title=" ">
<path fill="none" stroke="#63b8ff" d="M204.68,-118.76C223.22,-116.51 245.07,-113.85 264.61,-111.48"/>
<polygon fill="#63b8ff" stroke="#63b8ff" points="265,-114.84 274.5,-110.16 264.15,-107.89 265,-114.84"/>
</a>
</g>
</g>
<!-- Node5&#45;&gt;Node8 -->
<g id="edge8_Node000005_Node000008" class="edge">
<title>Node5&#45;&gt;Node8</title>
<g id="a_edge8_Node000005_Node000008"><a xlink:title=" ">
<path fill="none" stroke="#63b8ff" d="M184,-113.52C201.91,-105.4 227.76,-94.19 251,-86 256.42,-84.09 262.13,-82.24 267.84,-80.48"/>
<polygon fill="#63b8ff" stroke="#63b8ff" points="268.48,-83.65 277.06,-77.44 266.48,-76.94 268.48,-83.65"/>
</a>
</g>
</g>
<!-- Node9 -->
<g id="Node000009" class="node">
<title>Node9</title>
<g id="a_Node000009"><a xlink:href="../../db/dba/class_lista.html#adb2dfb16eaf99f99fc1b39bf847af9bd" target="_top" xlink:title="Obtém a coluna da lista pelo índice.">
<polygon fill="white" stroke="#666666" points="528.25,-77 423,-77 423,-57 528.25,-57 528.25,-77"/>
<text text-anchor="middle" x="475.62" y="-63.5" font-family="Helvetica,sans-Serif" font-size="10.00">Lista::obterPorIndice</text>
</a>
</g>
</g>
<!-- Node8&#45;&gt;Node9 -->
<g id="edge9_Node000008_Node000009" class="edge">
<title>Node8&#45;&gt;Node9</title>
<g id="a_edge9_Node000008_Node000009"><a xlink:title=" ">
<path fill="none" stroke="#63b8ff" d="M371.92,-67C384.67,-67 398.45,-67 411.66,-67"/>
<polygon fill="#63b8ff" stroke="#63b8ff" points="411.58,-70.5 421.58,-67 411.58,-63.5 411.58,-70.5"/>
</a>
</g>
</g>
</g>
</svg>
