<?xml version="1.0" encoding="UTF-8" standalone="no"?>
<!DOCTYPE svg PUBLIC "-//W3C//DTD SVG 1.1//EN"
 "http://www.w3.org/Graphics/SVG/1.1/DTD/svg11.dtd">
<!-- Generated by graphviz version 8.1.0 (20230707.0739)
 -->
<!-- Title: salvarQuadro Pages: 1 -->
<svg width="394pt" height="522pt"
 viewBox="0.00 0.00 393.50 522.00" xmlns="http://www.w3.org/2000/svg" xmlns:xlink="http://www.w3.org/1999/xlink">
<g id="graph0" class="graph" transform="scale(1 1) rotate(0) translate(4 518)">
<title>salvarQuadro</title>
<!-- Node1 -->
<g id="Node000001" class="node">
<title>Node1</title>
<g id="a_Node000001"><a xlink:title="Salva o quadro KanBan em um arquivo.">
<polygon fill="#999999" stroke="#666666" points="72.25,-267 0,-267 0,-247 72.25,-247 72.25,-267"/>
<text text-anchor="middle" x="36.12" y="-253.5" font-family="Helvetica,sans-Serif" font-size="10.00">salvarQuadro</text>
</a>
</g>
</g>
<!-- Node2 -->
<g id="Node000002" class="node">
<title>Node2</title>
<g id="a_Node000002"><a xlink:href="../../da/d23/class_tarefa.html#ae2d353e0cd6fa0eb8d4d70eb36b49a10" target="_top" xlink:title="Obtém a descrição da tarefa.">
<polygon fill="white" stroke="#666666" points="228.88,-514 123.62,-514 123.62,-494 228.88,-494 228.88,-514"/>
<text text-anchor="middle" x="176.25" y="-500.5" font-family="Helvetica,sans-Serif" font-size="10.00">Tarefa::getDescricao</text>
</a>
</g>
</g>
<!-- Node1&#45;&gt;Node2 -->
<g id="edge1_Node000001_Node000002" class="edge">
<title>Node1&#45;&gt;Node2</title>
<g id="a_edge1_Node000001_Node000002"><a xlink:title=" ">
<path fill="none" stroke="#63b8ff" d="M37.09,-267.38C37.57,-303.15 44.1,-422.5 108.25,-485 110.01,-486.71 111.91,-488.28 113.92,-489.7"/>
<polygon fill="#63b8ff" stroke="#63b8ff" points="111.91,-493.15 122.33,-495.09 115.39,-487.08 111.91,-493.15"/>
</a>
</g>
</g>
<!-- Node3 -->
<g id="Node000003" class="node">
<title>Node3</title>
<g id="a_Node000003"><a xlink:href="../../d1/d13/class_quadro.html#a7a8e238c28a7fb111f555a8508041824" target="_top" xlink:title="Obtém a descrição do quadro.">
<polygon fill="white" stroke="#666666" points="231.5,-476 121,-476 121,-456 231.5,-456 231.5,-476"/>
<text text-anchor="middle" x="176.25" y="-462.5" font-family="Helvetica,sans-Serif" font-size="10.00">Quadro::getDescricao</text>
</a>
</g>
</g>
<!-- Node1&#45;&gt;Node3 -->
<g id="edge2_Node000001_Node000003" class="edge">
<title>Node1&#45;&gt;Node3</title>
<g id="a_edge2_Node000001_Node000003"><a xlink:title=" ">
<path fill="none" stroke="#63b8ff" d="M37.84,-267.43C40.6,-299.31 53.33,-396.41 108.25,-447 109.42,-448.08 110.64,-449.09 111.91,-450.05"/>
<polygon fill="#63b8ff" stroke="#63b8ff" points="109.55,-453.32 119.9,-455.58 113.22,-447.36 109.55,-453.32"/>
</a>
</g>
</g>
<!-- Node4 -->
<g id="Node000004" class="node">
<title>Node4</title>
<g id="a_Node000004"><a xlink:href="../../d3/d3c/class_coluna.html#a2a359c5e42f66995c0529b2f2184d33f" target="_top" xlink:title="Obtém a descrição da coluna.">
<polygon fill="white" stroke="#666666" points="230.75,-438 121.75,-438 121.75,-418 230.75,-418 230.75,-438"/>
<text text-anchor="middle" x="176.25" y="-424.5" font-family="Helvetica,sans-Serif" font-size="10.00">Coluna::getDescricao</text>
</a>
</g>
</g>
<!-- Node1&#45;&gt;Node4 -->
<g id="edge3_Node000001_Node000004" class="edge">
<title>Node1&#45;&gt;Node4</title>
<g id="a_edge3_Node000001_Node000004"><a xlink:title=" ">
<path fill="none" stroke="#63b8ff" d="M38.9,-267.28C44.16,-294.66 62.31,-369.93 108.25,-409 109.64,-410.18 111.11,-411.3 112.62,-412.34"/>
<polygon fill="#63b8ff" stroke="#63b8ff" points="110.42,-415.68 120.85,-417.58 113.88,-409.6 110.42,-415.68"/>
</a>
</g>
</g>
<!-- Node5 -->
<g id="Node000005" class="node">
<title>Node5</title>
<g id="a_Node000005"><a xlink:href="../../d1/d13/class_quadro.html#a1cc0b576c7787cc7c82019a3fd424822" target="_top" xlink:title="Obtém a equipe de colaboradores do quadro.">
<polygon fill="white" stroke="#666666" points="224.75,-400 127.75,-400 127.75,-380 224.75,-380 224.75,-400"/>
<text text-anchor="middle" x="176.25" y="-386.5" font-family="Helvetica,sans-Serif" font-size="10.00">Quadro::getEquipe</text>
</a>
</g>
</g>
<!-- Node1&#45;&gt;Node5 -->
<g id="edge4_Node000001_Node000005" class="edge">
<title>Node1&#45;&gt;Node5</title>
<g id="a_edge4_Node000001_Node000005"><a xlink:title=" ">
<path fill="none" stroke="#63b8ff" d="M40.61,-267.29C48.75,-289.69 71.14,-343.1 108.25,-371 111.1,-373.14 114.18,-375.04 117.41,-376.73"/>
<polygon fill="#63b8ff" stroke="#63b8ff" points="115.86,-380.32 126.42,-381.18 118.7,-373.92 115.86,-380.32"/>
</a>
</g>
</g>
<!-- Node6 -->
<g id="Node000006" class="node">
<title>Node6</title>
<g id="a_Node000006"><a xlink:href="../../dc/dd3/class_colaborador.html#ad5284a3ae726d3cc39f160005b30c66d" target="_top" xlink:title="Obtém o ID único do colaborador.">
<polygon fill="white" stroke="#666666" points="224.38,-362 128.12,-362 128.12,-342 224.38,-342 224.38,-362"/>
<text text-anchor="middle" x="176.25" y="-348.5" font-family="Helvetica,sans-Serif" font-size="10.00">Colaborador::getID</text>
</a>
</g>
</g>
<!-- Node1&#45;&gt;Node6 -->
<g id="edge5_Node000001_Node000006" class="edge">
<title>Node1&#45;&gt;Node6</title>
<g id="a_edge5_Node000001_Node000006"><a xlink:title=" ">
<path fill="none" stroke="#63b8ff" d="M43.92,-267.28C55.27,-283.66 79.7,-315.6 108.25,-333 111.24,-334.82 114.42,-336.48 117.7,-337.98"/>
<polygon fill="#63b8ff" stroke="#63b8ff" points="116.17,-341.54 126.75,-342.03 118.79,-335.05 116.17,-341.54"/>
</a>
</g>
</g>
<!-- Node7 -->
<g id="Node000007" class="node">
<title>Node7</title>
<g id="a_Node000007"><a xlink:href="../../d1/d13/class_quadro.html#ae87472bb79c7073b7d6747d930d41a23" target="_top" xlink:title="Obtém o nome do quadro.">
<polygon fill="white" stroke="#666666" points="222.5,-324 130,-324 130,-304 222.5,-304 222.5,-324"/>
<text text-anchor="middle" x="176.25" y="-310.5" font-family="Helvetica,sans-Serif" font-size="10.00">Quadro::getNome</text>
</a>
</g>
</g>
<!-- Node1&#45;&gt;Node7 -->
<g id="edge6_Node000001_Node000007" class="edge">
<title>Node1&#45;&gt;Node7</title>
<g id="a_edge6_Node000001_Node000007"><a xlink:title=" ">
<path fill="none" stroke="#63b8ff" d="M54.16,-267.44C68.27,-275.76 89.04,-287.25 108.25,-295 112.91,-296.88 117.82,-298.65 122.78,-300.3"/>
<polygon fill="#63b8ff" stroke="#63b8ff" points="121.38,-303.84 131.97,-303.5 123.48,-297.16 121.38,-303.84"/>
</a>
</g>
</g>
<!-- Node8 -->
<g id="Node000008" class="node">
<title>Node8</title>
<g id="a_Node000008"><a xlink:href="../../d3/d3c/class_coluna.html#a25ecf45ce1e1c7a03b9c92d4a5da0544" target="_top" xlink:title="Obtém o nome da coluna.">
<polygon fill="white" stroke="#666666" points="221.75,-286 130.75,-286 130.75,-266 221.75,-266 221.75,-286"/>
<text text-anchor="middle" x="176.25" y="-272.5" font-family="Helvetica,sans-Serif" font-size="10.00">Coluna::getNome</text>
</a>
</g>
</g>
<!-- Node1&#45;&gt;Node8 -->
<g id="edge7_Node000001_Node000008" class="edge">
<title>Node1&#45;&gt;Node8</title>
<g id="a_edge7_Node000001_Node000008"><a xlink:title=" ">
<path fill="none" stroke="#63b8ff" d="M72.7,-261.89C86.98,-263.86 103.79,-266.17 119.63,-268.35"/>
<polygon fill="#63b8ff" stroke="#63b8ff" points="119,-271.93 129.39,-269.83 119.96,-265 119,-271.93"/>
</a>
</g>
</g>
<!-- Node9 -->
<g id="Node000009" class="node">
<title>Node9</title>
<g id="a_Node000009"><a xlink:href="../../d1/d13/class_quadro.html#aad88cee2be59e368c4c09166a7777fb9" target="_top" xlink:title="Obtém o número de colunas do quadro.">
<polygon fill="white" stroke="#666666" points="244.25,-248 108.25,-248 108.25,-228 244.25,-228 244.25,-248"/>
<text text-anchor="middle" x="176.25" y="-234.5" font-family="Helvetica,sans-Serif" font-size="10.00">Quadro::getNumeroColunas</text>
</a>
</g>
</g>
<!-- Node1&#45;&gt;Node9 -->
<g id="edge8_Node000001_Node000009" class="edge">
<title>Node1&#45;&gt;Node9</title>
<g id="a_edge8_Node000001_Node000009"><a xlink:title=" ">
<path fill="none" stroke="#63b8ff" d="M72.7,-252.11C80.28,-251.06 88.58,-249.92 97.07,-248.75"/>
<polygon fill="#63b8ff" stroke="#63b8ff" points="97.45,-252.1 106.88,-247.27 96.49,-245.16 97.45,-252.1"/>
</a>
</g>
</g>
<!-- Node11 -->
<g id="Node000011" class="node">
<title>Node11</title>
<g id="a_Node000011"><a xlink:href="../../da/d23/class_tarefa.html#a7bf9fd90402ab301884f4dcbb36dcec8" target="_top" xlink:title="Obtém a prioridade da tarefa.">
<polygon fill="white" stroke="#666666" points="228.88,-210 123.62,-210 123.62,-190 228.88,-190 228.88,-210"/>
<text text-anchor="middle" x="176.25" y="-196.5" font-family="Helvetica,sans-Serif" font-size="10.00">Tarefa::getPrioridade</text>
</a>
</g>
</g>
<!-- Node1&#45;&gt;Node11 -->
<g id="edge10_Node000001_Node000011" class="edge">
<title>Node1&#45;&gt;Node11</title>
<g id="a_edge10_Node000001_Node000011"><a xlink:title=" ">
<path fill="none" stroke="#63b8ff" d="M54.16,-246.56C68.27,-238.24 89.04,-226.75 108.25,-219 112.91,-217.12 117.82,-215.35 122.78,-213.7"/>
<polygon fill="#63b8ff" stroke="#63b8ff" points="123.48,-216.84 131.97,-210.5 121.38,-210.16 123.48,-216.84"/>
</a>
</g>
</g>
<!-- Node12 -->
<g id="Node000012" class="node">
<title>Node12</title>
<g id="a_Node000012"><a xlink:href="../../da/d23/class_tarefa.html#a5a24414bd9d3ee8186112415cb7a9bcd" target="_top" xlink:title="Obtém o responsável pela tarefa.">
<polygon fill="white" stroke="#666666" points="234.5,-172 118,-172 118,-152 234.5,-152 234.5,-172"/>
<text text-anchor="middle" x="176.25" y="-158.5" font-family="Helvetica,sans-Serif" font-size="10.00">Tarefa::getResponsavel</text>
</a>
</g>
</g>
<!-- Node1&#45;&gt;Node12 -->
<g id="edge11_Node000001_Node000012" class="edge">
<title>Node1&#45;&gt;Node12</title>
<g id="a_edge11_Node000001_Node000012"><a xlink:title=" ">
<path fill="none" stroke="#63b8ff" d="M43.92,-246.72C55.27,-230.34 79.7,-198.4 108.25,-181 110.86,-179.41 113.61,-177.94 116.45,-176.6"/>
<polygon fill="#63b8ff" stroke="#63b8ff" points="117.47,-179.55 125.35,-172.47 114.77,-173.09 117.47,-179.55"/>
</a>
</g>
</g>
<!-- Node13 -->
<g id="Node000013" class="node">
<title>Node13</title>
<g id="a_Node000013"><a xlink:href="../../d3/d3c/class_coluna.html#a98df8d945c71c2cdc352d610325fea02" target="_top" xlink:title="Obtém o tamanho da coluna, ou seja, a quantidade de tarefas nela contidas.">
<polygon fill="white" stroke="#666666" points="228.88,-134 123.62,-134 123.62,-114 228.88,-114 228.88,-134"/>
<text text-anchor="middle" x="176.25" y="-120.5" font-family="Helvetica,sans-Serif" font-size="10.00">Coluna::getTamanho</text>
</a>
</g>
</g>
<!-- Node1&#45;&gt;Node13 -->
<g id="edge12_Node000001_Node000013" class="edge">
<title>Node1&#45;&gt;Node13</title>
<g id="a_edge12_Node000001_Node000013"><a xlink:title=" ">
<path fill="none" stroke="#63b8ff" d="M40.61,-246.71C48.75,-224.31 71.14,-170.9 108.25,-143 109.95,-141.72 111.74,-140.53 113.59,-139.41"/>
<polygon fill="#63b8ff" stroke="#63b8ff" points="114.95,-142.14 122.28,-134.49 111.78,-135.9 114.95,-142.14"/>
</a>
</g>
</g>
<!-- Node14 -->
<g id="Node000014" class="node">
<title>Node14</title>
<g id="a_Node000014"><a xlink:href="../../da/d23/class_tarefa.html#acafe89fa135d5af459beff157c292faa" target="_top" xlink:title="Obtém o título da tarefa.">
<polygon fill="white" stroke="#666666" points="218.75,-96 133.75,-96 133.75,-76 218.75,-76 218.75,-96"/>
<text text-anchor="middle" x="176.25" y="-82.5" font-family="Helvetica,sans-Serif" font-size="10.00">Tarefa::getTitulo</text>
</a>
</g>
</g>
<!-- Node1&#45;&gt;Node14 -->
<g id="edge13_Node000001_Node000014" class="edge">
<title>Node1&#45;&gt;Node14</title>
<g id="a_edge13_Node000001_Node000014"><a xlink:title=" ">
<path fill="none" stroke="#63b8ff" d="M38.9,-246.72C44.16,-219.34 62.31,-144.07 108.25,-105 112.74,-101.18 117.95,-98.13 123.44,-95.69"/>
<polygon fill="#63b8ff" stroke="#63b8ff" points="124.39,-98.7 132.54,-91.92 121.95,-92.14 124.39,-98.7"/>
</a>
</g>
</g>
<!-- Node15 -->
<g id="Node000015" class="node">
<title>Node15</title>
<g id="a_Node000015"><a xlink:href="../../d1/d13/class_quadro.html#acdcb5194cb4b20e50f6211df473b59f2" target="_top" xlink:title="Obtém uma coluna do quadro pelo índice.">
<polygon fill="white" stroke="#666666" points="228.88,-58 123.62,-58 123.62,-38 228.88,-38 228.88,-58"/>
<text text-anchor="middle" x="176.25" y="-44.5" font-family="Helvetica,sans-Serif" font-size="10.00">Quadro::obterColuna</text>
</a>
</g>
</g>
<!-- Node1&#45;&gt;Node15 -->
<g id="edge14_Node000001_Node000015" class="edge">
<title>Node1&#45;&gt;Node15</title>
<g id="a_edge14_Node000001_Node000015"><a xlink:title=" ">
<path fill="none" stroke="#63b8ff" d="M37.84,-246.57C40.6,-214.69 53.33,-117.59 108.25,-67 110.02,-65.37 111.92,-63.88 113.92,-62.51"/>
<polygon fill="#63b8ff" stroke="#63b8ff" points="115.2,-65.24 122.22,-57.3 111.79,-59.14 115.2,-65.24"/>
</a>
</g>
</g>
<!-- Node17 -->
<g id="Node000017" class="node">
<title>Node17</title>
<g id="a_Node000017"><a xlink:href="../../d3/d3c/class_coluna.html#a1b697b50e065b83454e023c4ab24c4ef" target="_top" xlink:title="Obtém uma tarefa da coluna pelo seu índice.">
<polygon fill="white" stroke="#666666" points="226.25,-20 126.25,-20 126.25,0 226.25,0 226.25,-20"/>
<text text-anchor="middle" x="176.25" y="-6.5" font-family="Helvetica,sans-Serif" font-size="10.00">Coluna::obterTarefa</text>
</a>
</g>
</g>
<!-- Node1&#45;&gt;Node17 -->
<g id="edge16_Node000001_Node000017" class="edge">
<title>Node1&#45;&gt;Node17</title>
<g id="a_edge16_Node000001_Node000017"><a xlink:title=" ">
<path fill="none" stroke="#63b8ff" d="M37.09,-246.62C37.57,-210.85 44.1,-91.5 108.25,-29 110.68,-26.63 113.39,-24.55 116.28,-22.73"/>
<polygon fill="#63b8ff" stroke="#63b8ff" points="117.72,-25.41 125.02,-17.73 114.53,-19.18 117.72,-25.41"/>
</a>
</g>
</g>
<!-- Node10 -->
<g id="Node000010" class="node">
<title>Node10</title>
<g id="a_Node000010"><a xlink:href="../../db/dba/class_lista.html#a5cd63f61264afc88d0a6c290f7cb7320" target="_top" xlink:title="Obtém o tamanho da lista.">
<polygon fill="white" stroke="#666666" points="381,-248 284.75,-248 284.75,-228 381,-228 381,-248"/>
<text text-anchor="middle" x="332.88" y="-234.5" font-family="Helvetica,sans-Serif" font-size="10.00">Lista::getTamanho</text>
</a>
</g>
</g>
<!-- Node9&#45;&gt;Node10 -->
<g id="edge9_Node000009_Node000010" class="edge">
<title>Node9&#45;&gt;Node10</title>
<g id="a_edge9_Node000009_Node000010"><a xlink:title=" ">
<path fill="none" stroke="#63b8ff" d="M244.62,-238C254.33,-238 264.25,-238 273.76,-238"/>
<polygon fill="#63b8ff" stroke="#63b8ff" points="273.7,-241.5 283.7,-238 273.7,-234.5 273.7,-241.5"/>
</a>
</g>
</g>
<!-- Node16 -->
<g id="Node000016" class="node">
<title>Node16</title>
<g id="a_Node000016"><a xlink:href="../../db/dba/class_lista.html#adb2dfb16eaf99f99fc1b39bf847af9bd" target="_top" xlink:title="Obtém a coluna da lista pelo índice.">
<polygon fill="white" stroke="#666666" points="385.5,-58 280.25,-58 280.25,-38 385.5,-38 385.5,-58"/>
<text text-anchor="middle" x="332.88" y="-44.5" font-family="Helvetica,sans-Serif" font-size="10.00">Lista::obterPorIndice</text>
</a>
</g>
</g>
<!-- Node15&#45;&gt;Node16 -->
<g id="edge15_Node000015_Node000016" class="edge">
<title>Node15&#45;&gt;Node16</title>
<g id="a_edge15_Node000015_Node000016"><a xlink:title=" ">
<path fill="none" stroke="#63b8ff" d="M229.17,-48C241.92,-48 255.7,-48 268.91,-48"/>
<polygon fill="#63b8ff" stroke="#63b8ff" points="268.83,-51.5 278.83,-48 268.83,-44.5 268.83,-51.5"/>
</a>
</g>
</g>
</g>
</svg>
