<?xml version="1.0" encoding="UTF-8" standalone="no"?>
<!DOCTYPE svg PUBLIC "-//W3C//DTD SVG 1.1//EN"
 "http://www.w3.org/Graphics/SVG/1.1/DTD/svg11.dtd">
<!-- Generated by graphviz version 8.1.0 (20230707.0739)
 -->
<!-- Title: moverColuna Pages: 1 -->
<svg width="538pt" height="199pt"
 viewBox="0.00 0.00 537.75 199.00" xmlns="http://www.w3.org/2000/svg" xmlns:xlink="http://www.w3.org/1999/xlink">
<g id="graph0" class="graph" transform="scale(1 1) rotate(0) translate(4 195)">
<title>moverColuna</title>
<!-- Node1 -->
<g id="Node000001" class="node">
<title>Node1</title>
<g id="a_Node000001"><a xlink:title="Move uma coluna de uma posição para outra no quadro KanBan.">
<polygon fill="#999999" stroke="#666666" points="71.5,-134 0,-134 0,-114 71.5,-114 71.5,-134"/>
<text text-anchor="middle" x="35.75" y="-120.5" font-family="Helvetica,sans-Serif" font-size="10.00">moverColuna</text>
</a>
</g>
</g>
<!-- Node2 -->
<g id="Node000002" class="node">
<title>Node2</title>
<g id="a_Node000002"><a xlink:href="../../df/d0a/main_8cpp.html#a20bbd4d45e3f01305dd709f5a9cc9952" target="_top" xlink:title="Limpa o buffer do console.">
<polygon fill="white" stroke="#666666" points="192.88,-191 131.12,-191 131.12,-171 192.88,-171 192.88,-191"/>
<text text-anchor="middle" x="162" y="-177.5" font-family="Helvetica,sans-Serif" font-size="10.00">clearBuffer</text>
</a>
</g>
</g>
<!-- Node1&#45;&gt;Node2 -->
<g id="edge1_Node000001_Node000002" class="edge">
<title>Node1&#45;&gt;Node2</title>
<g id="a_edge1_Node000001_Node000002"><a xlink:title=" ">
<path fill="none" stroke="#63b8ff" d="M59.02,-134.49C72.93,-141.02 91.23,-149.56 107.5,-157 114.09,-160.02 121.16,-163.21 127.92,-166.25"/>
<polygon fill="#63b8ff" stroke="#63b8ff" points="125.97,-169.66 136.53,-170.56 128.84,-163.28 125.97,-169.66"/>
</a>
</g>
</g>
<!-- Node3 -->
<g id="Node000003" class="node">
<title>Node3</title>
<g id="a_Node000003"><a xlink:href="../../d1/d13/class_quadro.html#aad88cee2be59e368c4c09166a7777fb9" target="_top" xlink:title="Obtém o número de colunas do quadro.">
<polygon fill="white" stroke="#666666" points="388.5,-172 252.5,-172 252.5,-152 388.5,-152 388.5,-172"/>
<text text-anchor="middle" x="320.5" y="-158.5" font-family="Helvetica,sans-Serif" font-size="10.00">Quadro::getNumeroColunas</text>
</a>
</g>
</g>
<!-- Node1&#45;&gt;Node3 -->
<g id="edge2_Node000001_Node000003" class="edge">
<title>Node1&#45;&gt;Node3</title>
<g id="a_edge2_Node000001_Node000003"><a xlink:title=" ">
<path fill="none" stroke="#63b8ff" d="M71.99,-128.74C114.11,-134.4 185.86,-144.04 241.29,-151.49"/>
<polygon fill="#63b8ff" stroke="#63b8ff" points="240.77,-155.08 251.15,-152.95 241.7,-148.15 240.77,-155.08"/>
</a>
</g>
</g>
<!-- Node5 -->
<g id="Node000005" class="node">
<title>Node5</title>
<g id="a_Node000005"><a xlink:href="../../d1/d13/class_quadro.html#a1d27dcd2c84b1742c7ebd4cb0f82a704" target="_top" xlink:title="Imprime as informações do quadro.">
<polygon fill="white" stroke="#666666" points="206,-115 118,-115 118,-95 206,-95 206,-115"/>
<text text-anchor="middle" x="162" y="-101.5" font-family="Helvetica,sans-Serif" font-size="10.00">Quadro::imprimir</text>
</a>
</g>
</g>
<!-- Node1&#45;&gt;Node5 -->
<g id="edge4_Node000001_Node000005" class="edge">
<title>Node1&#45;&gt;Node5</title>
<g id="a_edge4_Node000001_Node000005"><a xlink:title=" ">
<path fill="none" stroke="#63b8ff" d="M71.69,-118.66C82.68,-116.98 95.09,-115.08 107.08,-113.25"/>
<polygon fill="#63b8ff" stroke="#63b8ff" points="107.56,-116.56 116.92,-111.59 106.51,-109.64 107.56,-116.56"/>
</a>
</g>
</g>
<!-- Node10 -->
<g id="Node000010" class="node">
<title>Node10</title>
<g id="a_Node000010"><a xlink:href="../../d1/d13/class_quadro.html#ab9b6209542640bb5a3e0fb84cf62d6eb" target="_top" xlink:title="Move uma coluna do quadro para uma nova posição.">
<polygon fill="white" stroke="#666666" points="216.5,-58 107.5,-58 107.5,-38 216.5,-38 216.5,-58"/>
<text text-anchor="middle" x="162" y="-44.5" font-family="Helvetica,sans-Serif" font-size="10.00">Quadro::moverColuna</text>
</a>
</g>
</g>
<!-- Node1&#45;&gt;Node10 -->
<g id="edge10_Node000001_Node000010" class="edge">
<title>Node1&#45;&gt;Node10</title>
<g id="a_edge10_Node000001_Node000010"><a xlink:title=" ">
<path fill="none" stroke="#63b8ff" d="M53.77,-113.59C74.68,-100.8 110.39,-78.96 134.81,-64.02"/>
<polygon fill="#63b8ff" stroke="#63b8ff" points="136.49,-66.49 143.19,-58.28 132.83,-60.51 136.49,-66.49"/>
</a>
</g>
</g>
<!-- Node4 -->
<g id="Node000004" class="node">
<title>Node4</title>
<g id="a_Node000004"><a xlink:href="../../db/dba/class_lista.html#a5cd63f61264afc88d0a6c290f7cb7320" target="_top" xlink:title="Obtém o tamanho da lista.">
<polygon fill="white" stroke="#666666" points="525.25,-172 429,-172 429,-152 525.25,-152 525.25,-172"/>
<text text-anchor="middle" x="477.12" y="-158.5" font-family="Helvetica,sans-Serif" font-size="10.00">Lista::getTamanho</text>
</a>
</g>
</g>
<!-- Node3&#45;&gt;Node4 -->
<g id="edge3_Node000003_Node000004" class="edge">
<title>Node3&#45;&gt;Node4</title>
<g id="a_edge3_Node000003_Node000004"><a xlink:title=" ">
<path fill="none" stroke="#63b8ff" d="M388.87,-162C398.58,-162 408.5,-162 418.01,-162"/>
<polygon fill="#63b8ff" stroke="#63b8ff" points="417.95,-165.5 427.95,-162 417.95,-158.5 417.95,-165.5"/>
</a>
</g>
</g>
<!-- Node5&#45;&gt;Node3 -->
<g id="edge6_Node000005_Node000003" class="edge">
<title>Node5&#45;&gt;Node3</title>
<g id="a_edge6_Node000005_Node000003"><a xlink:title=" ">
<path fill="none" stroke="#63b8ff" d="M185.5,-115.48C203.41,-123.6 229.26,-134.81 252.5,-143 257.92,-144.91 263.63,-146.76 269.34,-148.52"/>
<polygon fill="#63b8ff" stroke="#63b8ff" points="267.98,-152.06 278.56,-151.56 269.98,-145.35 267.98,-152.06"/>
</a>
</g>
</g>
<!-- Node6 -->
<g id="Node000006" class="node">
<title>Node6</title>
<g id="a_Node000006"><a xlink:href="../../d3/d3c/class_coluna.html#a25ecf45ce1e1c7a03b9c92d4a5da0544" target="_top" xlink:title="Obtém o nome da coluna.">
<polygon fill="white" stroke="#666666" points="366,-134 275,-134 275,-114 366,-114 366,-134"/>
<text text-anchor="middle" x="320.5" y="-120.5" font-family="Helvetica,sans-Serif" font-size="10.00">Coluna::getNome</text>
</a>
</g>
</g>
<!-- Node5&#45;&gt;Node6 -->
<g id="edge5_Node000005_Node000006" class="edge">
<title>Node5&#45;&gt;Node6</title>
<g id="a_edge5_Node000005_Node000006"><a xlink:title=" ">
<path fill="none" stroke="#63b8ff" d="M206.18,-110.24C223.95,-112.4 244.77,-114.93 263.68,-117.22"/>
<polygon fill="#63b8ff" stroke="#63b8ff" points="263.2,-120.81 273.55,-118.54 264.05,-113.86 263.2,-120.81"/>
</a>
</g>
</g>
<!-- Node7 -->
<g id="Node000007" class="node">
<title>Node7</title>
<g id="a_Node000007"><a xlink:href="../../d3/d3c/class_coluna.html#a48875a7414e5f4d15bfed749bb0a5586" target="_top" xlink:title="Imprime as informações da coluna.">
<polygon fill="white" stroke="#666666" points="363.75,-96 277.25,-96 277.25,-76 363.75,-76 363.75,-96"/>
<text text-anchor="middle" x="320.5" y="-82.5" font-family="Helvetica,sans-Serif" font-size="10.00">Coluna::imprimir</text>
</a>
</g>
</g>
<!-- Node5&#45;&gt;Node7 -->
<g id="edge7_Node000005_Node000007" class="edge">
<title>Node5&#45;&gt;Node7</title>
<g id="a_edge7_Node000005_Node000007"><a xlink:title=" ">
<path fill="none" stroke="#63b8ff" d="M206.18,-99.76C224.72,-97.51 246.57,-94.85 266.11,-92.48"/>
<polygon fill="#63b8ff" stroke="#63b8ff" points="266.5,-95.84 276,-91.16 265.65,-88.89 266.5,-95.84"/>
</a>
</g>
</g>
<!-- Node8 -->
<g id="Node000008" class="node">
<title>Node8</title>
<g id="a_Node000008"><a xlink:href="../../d1/d13/class_quadro.html#acdcb5194cb4b20e50f6211df473b59f2" target="_top" xlink:title="Obtém uma coluna do quadro pelo índice.">
<polygon fill="white" stroke="#666666" points="373.12,-58 267.88,-58 267.88,-38 373.12,-38 373.12,-58"/>
<text text-anchor="middle" x="320.5" y="-44.5" font-family="Helvetica,sans-Serif" font-size="10.00">Quadro::obterColuna</text>
</a>
</g>
</g>
<!-- Node5&#45;&gt;Node8 -->
<g id="edge8_Node000005_Node000008" class="edge">
<title>Node5&#45;&gt;Node8</title>
<g id="a_edge8_Node000005_Node000008"><a xlink:title=" ">
<path fill="none" stroke="#63b8ff" d="M185.5,-94.52C203.41,-86.4 229.26,-75.19 252.5,-67 257.92,-65.09 263.63,-63.24 269.34,-61.48"/>
<polygon fill="#63b8ff" stroke="#63b8ff" points="269.98,-64.65 278.56,-58.44 267.98,-57.94 269.98,-64.65"/>
</a>
</g>
</g>
<!-- Node9 -->
<g id="Node000009" class="node">
<title>Node9</title>
<g id="a_Node000009"><a xlink:href="../../db/dba/class_lista.html#adb2dfb16eaf99f99fc1b39bf847af9bd" target="_top" xlink:title="Obtém a coluna da lista pelo índice.">
<polygon fill="white" stroke="#666666" points="529.75,-58 424.5,-58 424.5,-38 529.75,-38 529.75,-58"/>
<text text-anchor="middle" x="477.12" y="-44.5" font-family="Helvetica,sans-Serif" font-size="10.00">Lista::obterPorIndice</text>
</a>
</g>
</g>
<!-- Node8&#45;&gt;Node9 -->
<g id="edge9_Node000008_Node000009" class="edge">
<title>Node8&#45;&gt;Node9</title>
<g id="a_edge9_Node000008_Node000009"><a xlink:title=" ">
<path fill="none" stroke="#63b8ff" d="M373.42,-48C386.17,-48 399.95,-48 413.16,-48"/>
<polygon fill="#63b8ff" stroke="#63b8ff" points="413.08,-51.5 423.08,-48 413.08,-44.5 413.08,-51.5"/>
</a>
</g>
</g>
<!-- Node11 -->
<g id="Node000011" class="node">
<title>Node11</title>
<g id="a_Node000011"><a xlink:href="../../db/dba/class_lista.html#abc103d958cb4184693b59547ebf7cf9c" target="_top" xlink:title="Move uma coluna da lista de uma posição para outra.">
<polygon fill="white" stroke="#666666" points="369.75,-20 271.25,-20 271.25,0 369.75,0 369.75,-20"/>
<text text-anchor="middle" x="320.5" y="-6.5" font-family="Helvetica,sans-Serif" font-size="10.00">Lista::moverColuna</text>
</a>
</g>
</g>
<!-- Node10&#45;&gt;Node11 -->
<g id="edge11_Node000010_Node000011" class="edge">
<title>Node10&#45;&gt;Node11</title>
<g id="a_edge11_Node000010_Node000011"><a xlink:title=" ">
<path fill="none" stroke="#63b8ff" d="M206.18,-37.52C224.65,-33.03 246.41,-27.75 265.9,-23.01"/>
<polygon fill="#63b8ff" stroke="#63b8ff" points="266.57,-26.21 275.46,-20.45 264.92,-19.41 266.57,-26.21"/>
</a>
</g>
</g>
</g>
</svg>
