<?xml version="1.0" encoding="UTF-8" standalone="no"?>
<!DOCTYPE svg PUBLIC "-//W3C//DTD SVG 1.1//EN"
 "http://www.w3.org/Graphics/SVG/1.1/DTD/svg11.dtd">
<!-- Generated by graphviz version 8.1.0 (20230707.0739)
 -->
<!-- Title: Pessoa Pages: 1 -->
<svg width="135pt" height="396pt"
 viewBox="0.00 0.00 135.00 396.00" xmlns="http://www.w3.org/2000/svg" xmlns:xlink="http://www.w3.org/1999/xlink">
<g id="graph0" class="graph" transform="scale(1 1) rotate(0) translate(4 392)">
<title>Pessoa</title>
<!-- Node1 -->
<g id="Node000001" class="node">
<title>Node1</title>
<g id="a_Node000001"><a xlink:title="Classe base que representa uma Pessoa.">
<polygon fill="#999999" stroke="none" points="127,-388 0,-388 0,-224 127,-224 127,-388"/>
<text text-anchor="start" x="47" y="-374.5" font-family="Helvetica,sans-Serif" font-size="10.00">Pessoa</text>
<text text-anchor="start" x="4.38" y="-358.5" font-family="Helvetica,sans-Serif" font-size="10.00">#</text>
<text text-anchor="start" x="14" y="-358.5" font-family="Helvetica,sans-Serif" font-size="10.00">string nome</text>
<text text-anchor="start" x="4.38" y="-342.5" font-family="Helvetica,sans-Serif" font-size="10.00">#</text>
<text text-anchor="start" x="14" y="-342.5" font-family="Helvetica,sans-Serif" font-size="10.00">string contato</text>
<text text-anchor="start" x="4" y="-326.5" font-family="Helvetica,sans-Serif" font-size="10.00">+</text>
<text text-anchor="start" x="14" y="-326.5" font-family="Helvetica,sans-Serif" font-size="10.00">Pessoa()</text>
<text text-anchor="start" x="4" y="-310.5" font-family="Helvetica,sans-Serif" font-size="10.00">+</text>
<text text-anchor="start" x="14" y="-310.5" font-family="Helvetica,sans-Serif" font-size="10.00">Pessoa(string n, string c)</text>
<text text-anchor="start" x="4" y="-294.5" font-family="Helvetica,sans-Serif" font-size="10.00">+</text>
<text text-anchor="start" x="14" y="-294.5" font-family="Helvetica,sans-Serif" font-size="10.00">~Pessoa()</text>
<text text-anchor="start" x="4" y="-278.5" font-family="Helvetica,sans-Serif" font-size="10.00">+</text>
<text text-anchor="start" x="14" y="-278.5" font-family="Helvetica,sans-Serif" font-size="10.00">void setNome(string n)</text>
<text text-anchor="start" x="4" y="-262.5" font-family="Helvetica,sans-Serif" font-size="10.00">+</text>
<text text-anchor="start" x="14" y="-262.5" font-family="Helvetica,sans-Serif" font-size="10.00">void setContato(string c)</text>
<text text-anchor="start" x="4" y="-246.5" font-family="Helvetica,sans-Serif" font-size="10.00">+</text>
<text text-anchor="start" x="14" y="-246.5" font-family="Helvetica,sans-Serif" font-size="10.00">string getNome()</text>
<text text-anchor="start" x="4" y="-230.5" font-family="Helvetica,sans-Serif" font-size="10.00">+</text>
<text text-anchor="start" x="14" y="-230.5" font-family="Helvetica,sans-Serif" font-size="10.00">string getContato()</text>
<polygon fill="#666666" stroke="#666666" points="0,-370 0,-370 127,-370 127,-370 0,-370"/>
<polygon fill="#666666" stroke="#666666" points="0,-338 0,-338 12,-338 12,-338 0,-338"/>
<polygon fill="#666666" stroke="#666666" points="12,-338 12,-338 127,-338 127,-338 12,-338"/>
<polygon fill="none" stroke="#666666" points="0,-224 0,-388 127,-388 127,-224 0,-224"/>
</a>
</g>
</g>
<!-- Node2 -->
<g id="Node000002" class="node">
<title>Node2</title>
<g id="a_Node000002"><a xlink:href="../../dc/dd3/class_colaborador.html" target="_top" xlink:title="Classe que representa um Colaborador, derivada da classe Pessoa.">
<polygon fill="white" stroke="none" points="126.5,-188 0.5,-188 0.5,0 126.5,0 126.5,-188"/>
<text text-anchor="start" x="37.62" y="-174.5" font-family="Helvetica,sans-Serif" font-size="10.00">Colaborador</text>
<text text-anchor="start" x="62" y="-158.5" font-family="Helvetica,sans-Serif" font-size="10.00"> </text>
<text text-anchor="start" x="4.5" y="-142.5" font-family="Helvetica,sans-Serif" font-size="10.00">+</text>
<text text-anchor="start" x="14.5" y="-142.5" font-family="Helvetica,sans-Serif" font-size="10.00">Colaborador()</text>
<text text-anchor="start" x="4.5" y="-126.5" font-family="Helvetica,sans-Serif" font-size="10.00">+</text>
<text text-anchor="start" x="14.5" y="-126.5" font-family="Helvetica,sans-Serif" font-size="10.00">Colaborador(string</text>
<text text-anchor="start" x="14.5" y="-114.5" font-family="Helvetica,sans-Serif" font-size="10.00"> n, string c, string f)</text>
<text text-anchor="start" x="4.5" y="-98.5" font-family="Helvetica,sans-Serif" font-size="10.00">+</text>
<text text-anchor="start" x="14.5" y="-98.5" font-family="Helvetica,sans-Serif" font-size="10.00">~Colaborador()</text>
<text text-anchor="start" x="4.5" y="-82.5" font-family="Helvetica,sans-Serif" font-size="10.00">+</text>
<text text-anchor="start" x="14.5" y="-82.5" font-family="Helvetica,sans-Serif" font-size="10.00">void setFuncao(string f)</text>
<text text-anchor="start" x="4.5" y="-66.5" font-family="Helvetica,sans-Serif" font-size="10.00">+</text>
<text text-anchor="start" x="14.5" y="-66.5" font-family="Helvetica,sans-Serif" font-size="10.00">void setTarefasAtribuidas</text>
<text text-anchor="start" x="14.5" y="-54.5" font-family="Helvetica,sans-Serif" font-size="10.00">(int t)</text>
<text text-anchor="start" x="4.5" y="-38.5" font-family="Helvetica,sans-Serif" font-size="10.00">+</text>
<text text-anchor="start" x="14.5" y="-38.5" font-family="Helvetica,sans-Serif" font-size="10.00">string getFuncao()</text>
<text text-anchor="start" x="4.5" y="-22.5" font-family="Helvetica,sans-Serif" font-size="10.00">+</text>
<text text-anchor="start" x="14.5" y="-22.5" font-family="Helvetica,sans-Serif" font-size="10.00">int getTarefasAtribuidas()</text>
<text text-anchor="start" x="4.5" y="-6.5" font-family="Helvetica,sans-Serif" font-size="10.00">+</text>
<text text-anchor="start" x="14.5" y="-6.5" font-family="Helvetica,sans-Serif" font-size="10.00">int getID()</text>
<polygon fill="#666666" stroke="#666666" points="0.5,-170 0.5,-170 126.5,-170 126.5,-170 0.5,-170"/>
<polygon fill="#666666" stroke="#666666" points="0.5,-154 0.5,-154 126.5,-154 126.5,-154 0.5,-154"/>
<polygon fill="none" stroke="#666666" points="0.5,0 0.5,-188 126.5,-188 126.5,0 0.5,0"/>
</a>
</g>
</g>
<!-- Node1&#45;&gt;Node2 -->
<g id="edge1_Node000001_Node000002" class="edge">
<title>Node1&#45;&gt;Node2</title>
<g id="a_edge1_Node000001_Node000002"><a xlink:title=" ">
<path fill="none" stroke="#63b8ff" d="M63.5,-213.13C63.5,-204.71 63.5,-196.18 63.5,-187.75"/>
<polygon fill="none" stroke="#63b8ff" points="60,-213.11 63.5,-223.11 67,-213.11 60,-213.11"/>
</a>
</g>
</g>
</g>
</svg>
