<?xml version="1.0" encoding="UTF-8" standalone="no"?>
<!DOCTYPE svg PUBLIC "-//W3C//DTD SVG 1.1//EN"
 "http://www.w3.org/Graphics/SVG/1.1/DTD/svg11.dtd">
<!-- Generated by graphviz version 8.1.0 (20230707.0739)
 -->
<!-- Title: Coluna::getNome Pages: 1 -->
<svg width="413pt" height="354pt"
 viewBox="0.00 0.00 413.25 353.60" xmlns="http://www.w3.org/2000/svg" xmlns:xlink="http://www.w3.org/1999/xlink">
<g id="graph0" class="graph" transform="scale(1 1) rotate(0) translate(4 349.6)">
<title>Coluna::getNome</title>
<!-- Node1 -->
<g id="Node000001" class="node">
<title>Node1</title>
<g id="a_Node000001"><a xlink:title="Obtém o nome da coluna.">
<polygon fill="#999999" stroke="#666666" points="405.25,-98.6 314.25,-98.6 314.25,-78.6 405.25,-78.6 405.25,-98.6"/>
<text text-anchor="middle" x="359.75" y="-85.1" font-family="Helvetica,sans-Serif" font-size="10.00">Coluna::getNome</text>
</a>
</g>
</g>
<!-- Node2 -->
<g id="Node000002" class="node">
<title>Node2</title>
<g id="a_Node000002"><a xlink:href="../../d1/d13/class_quadro.html#a1d27dcd2c84b1742c7ebd4cb0f82a704" target="_top" xlink:title="Imprime as informações do quadro.">
<polygon fill="white" stroke="#666666" points="278.25,-174.6 190.25,-174.6 190.25,-154.6 278.25,-154.6 278.25,-174.6"/>
<text text-anchor="middle" x="234.25" y="-161.1" font-family="Helvetica,sans-Serif" font-size="10.00">Quadro::imprimir</text>
</a>
</g>
</g>
<!-- Node1&#45;&gt;Node2 -->
<g id="edge1_Node000001_Node000002" class="edge">
<title>Node1&#45;&gt;Node2</title>
<g id="a_edge1_Node000001_Node000002"><a xlink:title=" ">
<path fill="none" stroke="#63b8ff" d="M332.48,-104.77C308.13,-119.75 272.65,-141.59 251.96,-154.32"/>
<polygon fill="#63b8ff" stroke="#63b8ff" points="334.15,-107.23 340.84,-99.01 330.49,-101.27 334.15,-107.23"/>
</a>
</g>
</g>
<!-- Node12 -->
<g id="Node000012" class="node">
<title>Node12</title>
<g id="a_Node000012"><a xlink:href="../../df/d0a/main_8cpp.html#a3a0d238b444da51e7f04f65f8d390fd0" target="_top" xlink:title="Salva o quadro KanBan em um arquivo.">
<polygon fill="white" stroke="#666666" points="270.38,-79.6 198.12,-79.6 198.12,-59.6 270.38,-59.6 270.38,-79.6"/>
<text text-anchor="middle" x="234.25" y="-66.1" font-family="Helvetica,sans-Serif" font-size="10.00">salvarQuadro</text>
</a>
</g>
</g>
<!-- Node1&#45;&gt;Node12 -->
<g id="edge19_Node000001_Node000012" class="edge">
<title>Node1&#45;&gt;Node12</title>
<g id="a_edge19_Node000001_Node000012"><a xlink:title=" ">
<path fill="none" stroke="#63b8ff" d="M302.97,-80.02C291.99,-78.33 280.75,-76.6 270.67,-75.05"/>
<polygon fill="#63b8ff" stroke="#63b8ff" points="302.4,-83.63 312.81,-81.69 303.46,-76.71 302.4,-83.63"/>
</a>
</g>
</g>
<!-- Node3 -->
<g id="Node000003" class="node">
<title>Node3</title>
<g id="a_Node000003"><a xlink:href="../../df/d0a/main_8cpp.html#a0d931717ab3053bc49784e26575b01d6" target="_top" xlink:title="Adiciona uma nova tarefa a uma coluna no quadro KanBan.">
<polygon fill="white" stroke="#666666" points="154.25,-345.6 73,-345.6 73,-325.6 154.25,-325.6 154.25,-345.6"/>
<text text-anchor="middle" x="113.62" y="-332.1" font-family="Helvetica,sans-Serif" font-size="10.00">adicionarTarefa</text>
</a>
</g>
</g>
<!-- Node2&#45;&gt;Node3 -->
<g id="edge2_Node000002_Node000003" class="edge">
<title>Node2&#45;&gt;Node3</title>
<g id="a_edge2_Node000002_Node000003"><a xlink:title=" ">
<path fill="none" stroke="#63b8ff" d="M226.16,-185.32C214.87,-215.91 190.34,-273.6 154.25,-311.6 149.15,-316.96 142.6,-321.57 136.3,-325.28"/>
<polygon fill="#63b8ff" stroke="#63b8ff" points="229.77,-186.62 229.83,-176.03 223.18,-184.27 229.77,-186.62"/>
</a>
</g>
</g>
<!-- Node4 -->
<g id="Node000004" class="node">
<title>Node4</title>
<g id="a_Node000004"><a xlink:href="../../df/d0a/main_8cpp.html#ae66f6b31b5ad750f1fe042a706a4e3d4" target="_top" xlink:title=" ">
<polygon fill="white" stroke="#666666" points="37,-174.6 0,-174.6 0,-154.6 37,-154.6 37,-174.6"/>
<text text-anchor="middle" x="18.5" y="-161.1" font-family="Helvetica,sans-Serif" font-size="10.00">main</text>
</a>
</g>
</g>
<!-- Node2&#45;&gt;Node4 -->
<g id="edge8_Node000002_Node000004" class="edge">
<title>Node2&#45;&gt;Node4</title>
<g id="a_edge8_Node000002_Node000004"><a xlink:title=" ">
<path fill="none" stroke="#63b8ff" d="M226.05,-184.98C215.23,-212.08 191.93,-258.87 154.25,-278.6 122.26,-295.35 103.48,-297.96 73,-278.6 35.91,-255.03 24.08,-198.2 20.71,-174.86"/>
<polygon fill="#63b8ff" stroke="#63b8ff" points="229.55,-186.61 229.81,-176.02 223,-184.13 229.55,-186.61"/>
</a>
</g>
</g>
<!-- Node5 -->
<g id="Node000005" class="node">
<title>Node5</title>
<g id="a_Node000005"><a xlink:href="../../df/d0a/main_8cpp.html#a512a56ef22516c5454d0f925b16adcd6" target="_top" xlink:title="Edita uma coluna existente no quadro KanBan.">
<polygon fill="white" stroke="#666666" points="148.62,-269.6 78.62,-269.6 78.62,-249.6 148.62,-249.6 148.62,-269.6"/>
<text text-anchor="middle" x="113.62" y="-256.1" font-family="Helvetica,sans-Serif" font-size="10.00">editarColuna</text>
</a>
</g>
</g>
<!-- Node2&#45;&gt;Node5 -->
<g id="edge4_Node000002_Node000005" class="edge">
<title>Node2&#45;&gt;Node5</title>
<g id="a_edge4_Node000002_Node000005"><a xlink:title=" ">
<path fill="none" stroke="#63b8ff" d="M217.38,-182.91C202.33,-199.47 178.48,-223.79 154.25,-240.6 149.74,-243.73 144.63,-246.6 139.62,-249.12"/>
<polygon fill="#63b8ff" stroke="#63b8ff" points="219.36,-185.82 223.4,-176.03 214.13,-181.17 219.36,-185.82"/>
</a>
</g>
</g>
<!-- Node6 -->
<g id="Node000006" class="node">
<title>Node6</title>
<g id="a_Node000006"><a xlink:href="../../df/d0a/main_8cpp.html#ac8773e0e3b3c75454e680ff43c6fcd7f" target="_top" xlink:title="Edita uma tarefa existente no quadro KanBan.">
<polygon fill="white" stroke="#666666" points="146.75,-231.6 80.5,-231.6 80.5,-211.6 146.75,-211.6 146.75,-231.6"/>
<text text-anchor="middle" x="113.62" y="-218.1" font-family="Helvetica,sans-Serif" font-size="10.00">editarTarefa</text>
</a>
</g>
</g>
<!-- Node2&#45;&gt;Node6 -->
<g id="edge6_Node000002_Node000006" class="edge">
<title>Node2&#45;&gt;Node6</title>
<g id="a_edge6_Node000002_Node000006"><a xlink:title=" ">
<path fill="none" stroke="#63b8ff" d="M201.95,-179.67C187.44,-186.65 169.97,-195.05 154.25,-202.6 148.47,-205.37 142.22,-208.37 136.43,-211.15"/>
<polygon fill="#63b8ff" stroke="#63b8ff" points="202.96,-182.58 210.46,-175.09 199.93,-176.27 202.96,-182.58"/>
</a>
</g>
</g>
<!-- Node7 -->
<g id="Node000007" class="node">
<title>Node7</title>
<g id="a_Node000007"><a xlink:href="../../df/d0a/main_8cpp.html#a23877ef139dcc4300c8f74067c517d27" target="_top" xlink:title="Move uma coluna de uma posição para outra no quadro KanBan.">
<polygon fill="white" stroke="#666666" points="149.38,-193.6 77.88,-193.6 77.88,-173.6 149.38,-173.6 149.38,-193.6"/>
<text text-anchor="middle" x="113.62" y="-180.1" font-family="Helvetica,sans-Serif" font-size="10.00">moverColuna</text>
</a>
</g>
</g>
<!-- Node2&#45;&gt;Node7 -->
<g id="edge9_Node000002_Node000007" class="edge">
<title>Node2&#45;&gt;Node7</title>
<g id="a_edge9_Node000002_Node000007"><a xlink:title=" ">
<path fill="none" stroke="#63b8ff" d="M179.03,-173.28C169.03,-174.89 158.83,-176.52 149.58,-178"/>
<polygon fill="#63b8ff" stroke="#63b8ff" points="179.43,-176.6 188.75,-171.57 178.32,-169.69 179.43,-176.6"/>
</a>
</g>
</g>
<!-- Node8 -->
<g id="Node000008" class="node">
<title>Node8</title>
<g id="a_Node000008"><a xlink:href="../../df/d0a/main_8cpp.html#a2eddfb0aac0ba265acd5268ce3d8e919" target="_top" xlink:title="Move uma tarefa de uma coluna para outra no quadro KanBan.">
<polygon fill="white" stroke="#666666" points="150.12,-155.6 77.12,-155.6 77.12,-135.6 150.12,-135.6 150.12,-155.6"/>
<text text-anchor="middle" x="113.62" y="-142.1" font-family="Helvetica,sans-Serif" font-size="10.00">moverTarefas</text>
</a>
</g>
</g>
<!-- Node2&#45;&gt;Node8 -->
<g id="edge11_Node000002_Node000008" class="edge">
<title>Node2&#45;&gt;Node8</title>
<g id="a_edge11_Node000002_Node000008"><a xlink:title=" ">
<path fill="none" stroke="#63b8ff" d="M178.93,-155.9C169.23,-154.35 159.35,-152.76 150.34,-151.32"/>
<polygon fill="#63b8ff" stroke="#63b8ff" points="178.32,-159.51 188.75,-157.63 179.43,-152.6 178.32,-159.51"/>
</a>
</g>
</g>
<!-- Node9 -->
<g id="Node000009" class="node">
<title>Node9</title>
<g id="a_Node000009"><a xlink:href="../../df/d0a/main_8cpp.html#ac91dd762f55fe21f3a2226d59abff942" target="_top" xlink:title="Ordena as tarefas por prioridade usando o algoritmo Bubble Sort.">
<polygon fill="white" stroke="#666666" points="152.75,-117.6 74.5,-117.6 74.5,-97.6 152.75,-97.6 152.75,-117.6"/>
<text text-anchor="middle" x="113.62" y="-104.1" font-family="Helvetica,sans-Serif" font-size="10.00">ordenarColuna</text>
</a>
</g>
</g>
<!-- Node2&#45;&gt;Node9 -->
<g id="edge13_Node000002_Node000009" class="edge">
<title>Node2&#45;&gt;Node9</title>
<g id="a_edge13_Node000002_Node000009"><a xlink:title=" ">
<path fill="none" stroke="#63b8ff" d="M201.95,-149.53C187.44,-142.55 169.97,-134.15 154.25,-126.6 148.47,-123.83 142.22,-120.83 136.43,-118.05"/>
<polygon fill="#63b8ff" stroke="#63b8ff" points="199.93,-152.93 210.46,-154.11 202.96,-146.62 199.93,-152.93"/>
</a>
</g>
</g>
<!-- Node10 -->
<g id="Node000010" class="node">
<title>Node10</title>
<g id="a_Node000010"><a xlink:href="../../df/d0a/main_8cpp.html#aaa15a96063fb4377e5ac1d46a68321c0" target="_top" xlink:title="Remove uma coluna do quadro KanBan.">
<polygon fill="white" stroke="#666666" points="153.5,-79.6 73.75,-79.6 73.75,-59.6 153.5,-59.6 153.5,-79.6"/>
<text text-anchor="middle" x="113.62" y="-66.1" font-family="Helvetica,sans-Serif" font-size="10.00">removerColuna</text>
</a>
</g>
</g>
<!-- Node2&#45;&gt;Node10 -->
<g id="edge15_Node000002_Node000010" class="edge">
<title>Node2&#45;&gt;Node10</title>
<g id="a_edge15_Node000002_Node000010"><a xlink:title=" ">
<path fill="none" stroke="#63b8ff" d="M217.38,-146.29C202.33,-129.73 178.48,-105.41 154.25,-88.6 149.74,-85.47 144.63,-82.6 139.62,-80.08"/>
<polygon fill="#63b8ff" stroke="#63b8ff" points="214.13,-148.03 223.4,-153.17 219.36,-143.38 214.13,-148.03"/>
</a>
</g>
</g>
<!-- Node11 -->
<g id="Node000011" class="node">
<title>Node11</title>
<g id="a_Node000011"><a xlink:href="../../df/d0a/main_8cpp.html#aee02b44e62983f07d64c57db154c0467" target="_top" xlink:title="Remove uma tarefa de uma coluna no quadro KanBan.">
<polygon fill="white" stroke="#666666" points="151.62,-41.6 75.62,-41.6 75.62,-21.6 151.62,-21.6 151.62,-41.6"/>
<text text-anchor="middle" x="113.62" y="-28.1" font-family="Helvetica,sans-Serif" font-size="10.00">removerTarefa</text>
</a>
</g>
</g>
<!-- Node2&#45;&gt;Node11 -->
<g id="edge17_Node000002_Node000011" class="edge">
<title>Node2&#45;&gt;Node11</title>
<g id="a_edge17_Node000002_Node000011"><a xlink:title=" ">
<path fill="none" stroke="#63b8ff" d="M223.41,-144.34C210.48,-119.5 185.7,-77.41 154.25,-50.6 150.42,-47.33 145.93,-44.49 141.37,-42.06"/>
<polygon fill="#63b8ff" stroke="#63b8ff" points="220.72,-145.78 228.35,-153.13 226.97,-142.62 220.72,-145.78"/>
</a>
</g>
</g>
<!-- Node3&#45;&gt;Node4 -->
<g id="edge3_Node000003_Node000004" class="edge">
<title>Node3&#45;&gt;Node4</title>
<g id="a_edge3_Node000003_Node000004"><a xlink:title=" ">
<path fill="none" stroke="#63b8ff" d="M80.73,-319.11C77.89,-316.84 75.25,-314.33 73,-311.6 37.84,-268.79 24.74,-200.86 20.87,-175.03"/>
<polygon fill="#63b8ff" stroke="#63b8ff" points="78.41,-322.45 88.63,-325.22 82.37,-316.68 78.41,-322.45"/>
</a>
</g>
</g>
<!-- Node5&#45;&gt;Node4 -->
<g id="edge5_Node000005_Node000004" class="edge">
<title>Node5&#45;&gt;Node4</title>
<g id="a_edge5_Node000005_Node000004"><a xlink:title=" ">
<path fill="none" stroke="#63b8ff" d="M76.78,-243.53C75.47,-242.59 74.2,-241.62 73,-240.6 50.46,-221.53 32.81,-190.89 24.57,-174.96"/>
<polygon fill="#63b8ff" stroke="#63b8ff" points="74.54,-246.87 84.9,-249.11 78.2,-240.9 74.54,-246.87"/>
</a>
</g>
</g>
<!-- Node6&#45;&gt;Node4 -->
<g id="edge7_Node000006_Node000004" class="edge">
<title>Node6&#45;&gt;Node4</title>
<g id="a_edge7_Node000006_Node000004"><a xlink:title=" ">
<path fill="none" stroke="#63b8ff" d="M79.47,-206.23C77.26,-205.04 75.08,-203.83 73,-202.6 58.67,-194.16 43.28,-182.98 32.71,-174.94"/>
<polygon fill="#63b8ff" stroke="#63b8ff" points="77.73,-209.78 88.23,-211.2 80.91,-203.54 77.73,-209.78"/>
</a>
</g>
</g>
<!-- Node7&#45;&gt;Node4 -->
<g id="edge10_Node000007_Node000004" class="edge">
<title>Node7&#45;&gt;Node4</title>
<g id="a_edge10_Node000007_Node000004"><a xlink:title=" ">
<path fill="none" stroke="#63b8ff" d="M66.96,-174.28C56.4,-172.13 45.78,-169.96 37.27,-168.23"/>
<polygon fill="#63b8ff" stroke="#63b8ff" points="65.92,-177.85 76.42,-176.42 67.32,-170.99 65.92,-177.85"/>
</a>
</g>
</g>
<!-- Node8&#45;&gt;Node4 -->
<g id="edge12_Node000008_Node000004" class="edge">
<title>Node8&#45;&gt;Node4</title>
<g id="a_edge12_Node000008_Node000004"><a xlink:title=" ">
<path fill="none" stroke="#63b8ff" d="M66.24,-155.06C55.94,-157.17 45.63,-159.27 37.32,-160.96"/>
<polygon fill="#63b8ff" stroke="#63b8ff" points="66.79,-158.32 75.89,-152.89 65.39,-151.46 66.79,-158.32"/>
</a>
</g>
</g>
<!-- Node9&#45;&gt;Node4 -->
<g id="edge14_Node000009_Node000004" class="edge">
<title>Node9&#45;&gt;Node4</title>
<g id="a_edge14_Node000009_Node000004"><a xlink:title=" ">
<path fill="none" stroke="#63b8ff" d="M79.47,-122.97C77.26,-124.16 75.08,-125.37 73,-126.6 58.67,-135.04 43.28,-146.21 32.71,-154.26"/>
<polygon fill="#63b8ff" stroke="#63b8ff" points="80.91,-125.66 88.23,-118 77.73,-119.42 80.91,-125.66"/>
</a>
</g>
</g>
<!-- Node10&#45;&gt;Node4 -->
<g id="edge16_Node000010_Node000004" class="edge">
<title>Node10&#45;&gt;Node4</title>
<g id="a_edge16_Node000010_Node000004"><a xlink:title=" ">
<path fill="none" stroke="#63b8ff" d="M76.78,-85.67C75.47,-86.61 74.2,-87.58 73,-88.6 50.46,-107.67 32.81,-138.31 24.57,-154.24"/>
<polygon fill="#63b8ff" stroke="#63b8ff" points="78.2,-88.29 84.9,-80.09 74.54,-82.33 78.2,-88.29"/>
</a>
</g>
</g>
<!-- Node11&#45;&gt;Node4 -->
<g id="edge18_Node000011_Node000004" class="edge">
<title>Node11&#45;&gt;Node4</title>
<g id="a_edge18_Node000011_Node000004"><a xlink:title=" ">
<path fill="none" stroke="#63b8ff" d="M75.62,-48.18C74.71,-48.95 73.83,-49.76 73,-50.6 42.52,-81.34 27.18,-132.72 21.8,-154.43"/>
<polygon fill="#63b8ff" stroke="#63b8ff" points="77.33,-50.56 83.59,-42.01 73.36,-44.79 77.33,-50.56"/>
</a>
</g>
</g>
<!-- Node12&#45;&gt;Node4 -->
<g id="edge20_Node000012_Node000004" class="edge">
<title>Node12&#45;&gt;Node4</title>
<g id="a_edge20_Node000012_Node000004"><a xlink:title=" ">
<path fill="none" stroke="#63b8ff" d="M215.89,-52.05C200.99,-38.34 178.2,-20.34 154.25,-12.6 119.89,-1.5 102.47,8.27 73,-12.6 25.51,-46.23 19.87,-125.55 19.43,-154.12"/>
<polygon fill="#63b8ff" stroke="#63b8ff" points="213.05,-54.14 222.7,-58.53 217.89,-49.08 213.05,-54.14"/>
</a>
</g>
</g>
</g>
</svg>
