<?xml version="1.0" encoding="UTF-8" standalone="no"?>
<!DOCTYPE svg PUBLIC "-//W3C//DTD SVG 1.1//EN"
 "http://www.w3.org/Graphics/SVG/1.1/DTD/svg11.dtd">
<!-- Generated by graphviz version 8.1.0 (20230707.0739)
 -->
<!-- Title: Coluna::getTamanho Pages: 1 -->
<svg width="298pt" height="142pt"
 viewBox="0.00 0.00 298.25 142.00" xmlns="http://www.w3.org/2000/svg" xmlns:xlink="http://www.w3.org/1999/xlink">

<svg id="main" version="1.1" xmlns="http://www.w3.org/2000/svg" xmlns:xlink="http://www.w3.org/1999/xlink" xml:space="preserve" onload="init(evt)">
<style type="text/css"><![CDATA[
.node, .edge {opacity: 0.7;}
.node.selected, .edge.selected {opacity: 1;}
.edge:hover path { stroke: red; }
.edge:hover polygon { stroke: red; fill: red; }
]]></style>
<script type="application/ecmascript" xlink:href="../../svg.min.js"/>
<svg id="graph" class="graph">
<g id="graph0" class="graph" transform="scale(1 1) rotate(0) translate(4 138)">
<title>Coluna::getTamanho</title>
<!-- Node1 -->
<g id="Node000001" class="node">
<title>Node1</title>
<g id="a_Node000001"><a xlink:title="Obtém o tamanho da coluna, ou seja, a quantidade de tarefas nela contidas.">
<polygon fill="#999999" stroke="#666666" points="290.25,-77 185,-77 185,-57 290.25,-57 290.25,-77"/>
<text text-anchor="middle" x="237.62" y="-63.5" font-family="Helvetica,sans-Serif" font-size="10.00">Coluna::getTamanho</text>
</a>
</g>
</g>
<!-- Node2 -->
<g id="Node000002" class="node">
<title>Node2</title>
<g id="a_Node000002"><a xlink:href="../../df/d0a/main_8cpp.html#ac8773e0e3b3c75454e680ff43c6fcd7f" target="_top" xlink:title="Edita uma tarefa existente no quadro KanBan.">
<polygon fill="white" stroke="#666666" points="144.12,-134 77.88,-134 77.88,-114 144.12,-114 144.12,-134"/>
<text text-anchor="middle" x="111" y="-120.5" font-family="Helvetica,sans-Serif" font-size="10.00">editarTarefa</text>
</a>
</g>
</g>
<!-- Node1&#45;&gt;Node2 -->
<g id="edge1_Node000001_Node000002" class="edge">
<title>Node1&#45;&gt;Node2</title>
<g id="a_edge1_Node000001_Node000002"><a xlink:title=" ">
<path fill="none" stroke="#63b8ff" d="M203.95,-81.94C182.17,-91.91 154.08,-104.75 134.71,-113.61"/>
<polygon fill="#63b8ff" stroke="#63b8ff" points="205.13,-84.8 212.77,-77.45 202.22,-78.43 205.13,-84.8"/>
</a>
</g>
</g>
<!-- Node4 -->
<g id="Node000004" class="node">
<title>Node4</title>
<g id="a_Node000004"><a xlink:href="../../df/d0a/main_8cpp.html#a2eddfb0aac0ba265acd5268ce3d8e919" target="_top" xlink:title="Move uma tarefa de uma coluna para outra no quadro KanBan.">
<polygon fill="white" stroke="#666666" points="147.5,-96 74.5,-96 74.5,-76 147.5,-76 147.5,-96"/>
<text text-anchor="middle" x="111" y="-82.5" font-family="Helvetica,sans-Serif" font-size="10.00">moverTarefas</text>
</a>
</g>
</g>
<!-- Node1&#45;&gt;Node4 -->
<g id="edge3_Node000001_Node000004" class="edge">
<title>Node1&#45;&gt;Node4</title>
<g id="a_edge3_Node000001_Node000004"><a xlink:title=" ">
<path fill="none" stroke="#63b8ff" d="M174.27,-76.51C165.21,-77.89 156.16,-79.27 147.87,-80.53"/>
<polygon fill="#63b8ff" stroke="#63b8ff" points="174.5,-79.86 183.86,-74.89 173.44,-72.94 174.5,-79.86"/>
</a>
</g>
</g>
<!-- Node5 -->
<g id="Node000005" class="node">
<title>Node5</title>
<g id="a_Node000005"><a xlink:href="../../df/d0a/main_8cpp.html#aee02b44e62983f07d64c57db154c0467" target="_top" xlink:title="Remove uma tarefa de uma coluna no quadro KanBan.">
<polygon fill="white" stroke="#666666" points="149,-58 73,-58 73,-38 149,-38 149,-58"/>
<text text-anchor="middle" x="111" y="-44.5" font-family="Helvetica,sans-Serif" font-size="10.00">removerTarefa</text>
</a>
</g>
</g>
<!-- Node1&#45;&gt;Node5 -->
<g id="edge5_Node000001_Node000005" class="edge">
<title>Node1&#45;&gt;Node5</title>
<g id="a_edge5_Node000001_Node000005"><a xlink:title=" ">
<path fill="none" stroke="#63b8ff" d="M174.16,-57.48C165.68,-56.18 157.21,-54.89 149.36,-53.7"/>
<polygon fill="#63b8ff" stroke="#63b8ff" points="173.44,-61.06 183.86,-59.11 174.5,-54.14 173.44,-61.06"/>
</a>
</g>
</g>
<!-- Node6 -->
<g id="Node000006" class="node">
<title>Node6</title>
<g id="a_Node000006"><a xlink:href="../../df/d0a/main_8cpp.html#a3a0d238b444da51e7f04f65f8d390fd0" target="_top" xlink:title="Salva o quadro KanBan em um arquivo.">
<polygon fill="white" stroke="#666666" points="147.12,-20 74.88,-20 74.88,0 147.12,0 147.12,-20"/>
<text text-anchor="middle" x="111" y="-6.5" font-family="Helvetica,sans-Serif" font-size="10.00">salvarQuadro</text>
</a>
</g>
</g>
<!-- Node1&#45;&gt;Node6 -->
<g id="edge7_Node000001_Node000006" class="edge">
<title>Node1&#45;&gt;Node6</title>
<g id="a_edge7_Node000001_Node000006"><a xlink:title=" ">
<path fill="none" stroke="#63b8ff" d="M203.95,-52.06C182.17,-42.09 154.08,-29.25 134.71,-20.39"/>
<polygon fill="#63b8ff" stroke="#63b8ff" points="202.22,-55.57 212.77,-56.55 205.13,-49.2 202.22,-55.57"/>
</a>
</g>
</g>
<!-- Node3 -->
<g id="Node000003" class="node">
<title>Node3</title>
<g id="a_Node000003"><a xlink:href="../../df/d0a/main_8cpp.html#ae66f6b31b5ad750f1fe042a706a4e3d4" target="_top" xlink:title=" ">
<polygon fill="white" stroke="#666666" points="37,-77 0,-77 0,-57 37,-57 37,-77"/>
<text text-anchor="middle" x="18.5" y="-63.5" font-family="Helvetica,sans-Serif" font-size="10.00">main</text>
</a>
</g>
</g>
<!-- Node2&#45;&gt;Node3 -->
<g id="edge2_Node000002_Node000003" class="edge">
<title>Node2&#45;&gt;Node3</title>
<g id="a_edge2_Node000002_Node000003"><a xlink:title=" ">
<path fill="none" stroke="#63b8ff" d="M79.22,-108.63C77.1,-107.43 75.01,-106.22 73,-105 58.78,-96.36 43.38,-85.22 32.77,-77.23"/>
<polygon fill="#63b8ff" stroke="#63b8ff" points="77.12,-112.01 87.58,-113.66 80.43,-105.84 77.12,-112.01"/>
</a>
</g>
</g>
<!-- Node4&#45;&gt;Node3 -->
<g id="edge4_Node000004_Node000003" class="edge">
<title>Node4&#45;&gt;Node3</title>
<g id="a_edge4_Node000004_Node000003"><a xlink:title=" ">
<path fill="none" stroke="#63b8ff" d="M63.71,-76.28C54.34,-74.31 45.02,-72.36 37.38,-70.75"/>
<polygon fill="#63b8ff" stroke="#63b8ff" points="62.73,-79.86 73.23,-78.49 64.16,-73.01 62.73,-79.86"/>
</a>
</g>
</g>
<!-- Node5&#45;&gt;Node3 -->
<g id="edge6_Node000005_Node000003" class="edge">
<title>Node5&#45;&gt;Node3</title>
<g id="a_edge6_Node000005_Node000003"><a xlink:title=" ">
<path fill="none" stroke="#63b8ff" d="M61.92,-58.09C53.09,-59.95 44.4,-61.77 37.21,-63.28"/>
<polygon fill="#63b8ff" stroke="#63b8ff" points="62.6,-61.32 71.67,-55.84 61.16,-54.47 62.6,-61.32"/>
</a>
</g>
</g>
<!-- Node6&#45;&gt;Node3 -->
<g id="edge8_Node000006_Node000003" class="edge">
<title>Node6&#45;&gt;Node3</title>
<g id="a_edge8_Node000006_Node000003"><a xlink:title=" ">
<path fill="none" stroke="#63b8ff" d="M79.22,-25.37C77.1,-26.57 75.01,-27.78 73,-29 58.78,-37.64 43.38,-48.78 32.77,-56.77"/>
<polygon fill="#63b8ff" stroke="#63b8ff" points="80.43,-28.16 87.58,-20.34 77.12,-21.99 80.43,-28.16"/>
</a>
</g>
</g>
</g>
</svg>
</svg>

<style type='text/css'>
<![CDATA[
[data-mouse-over-selected='false'] { opacity: 0.7; }
[data-mouse-over-selected='true']  { opacity: 1.0; }
]]>
</style>
<script type="application/ecmascript"><![CDATA[
document.addEventListener('DOMContentLoaded', (event) => {
  highlightEdges();
  highlightAdjacentNodes();
});
]]></script>
</svg>
