<?xml version="1.0" encoding="UTF-8" standalone="no"?>
<!DOCTYPE svg PUBLIC "-//W3C//DTD SVG 1.1//EN"
 "http://www.w3.org/Graphics/SVG/1.1/DTD/svg11.dtd">
<!-- Generated by graphviz version 8.1.0 (20230707.0739)
 -->
<!-- Title: Coluna::inserirTarefa Pages: 1 -->
<svg width="367pt" height="142pt"
 viewBox="0.00 0.00 366.50 142.00" xmlns="http://www.w3.org/2000/svg" xmlns:xlink="http://www.w3.org/1999/xlink">
<g id="graph0" class="graph" transform="scale(1 1) rotate(0) translate(4 138)">
<title>Coluna::inserirTarefa</title>
<!-- Node1 -->
<g id="Node000001" class="node">
<title>Node1</title>
<g id="a_Node000001"><a xlink:title="Insere uma tarefa na coluna.">
<polygon fill="#999999" stroke="#666666" points="358.5,-77 254,-77 254,-57 358.5,-57 358.5,-77"/>
<text text-anchor="middle" x="306.25" y="-63.5" font-family="Helvetica,sans-Serif" font-size="10.00">Coluna::inserirTarefa</text>
</a>
</g>
</g>
<!-- Node2 -->
<g id="Node000002" class="node">
<title>Node2</title>
<g id="a_Node000002"><a xlink:href="../../df/d0a/main_8cpp.html#a0d931717ab3053bc49784e26575b01d6" target="_top" xlink:title="Adiciona uma nova tarefa a uma coluna no quadro KanBan.">
<polygon fill="white" stroke="#666666" points="186.12,-134 104.88,-134 104.88,-114 186.12,-114 186.12,-134"/>
<text text-anchor="middle" x="145.5" y="-120.5" font-family="Helvetica,sans-Serif" font-size="10.00">adicionarTarefa</text>
</a>
</g>
</g>
<!-- Node1&#45;&gt;Node2 -->
<g id="edge1_Node000001_Node000002" class="edge">
<title>Node1&#45;&gt;Node2</title>
<g id="a_edge1_Node000001_Node000002"><a xlink:title=" ">
<path fill="none" stroke="#63b8ff" d="M274.1,-81.93C257.65,-89.47 236.99,-98.38 218,-105 207.93,-108.51 196.88,-111.74 186.53,-114.5"/>
<polygon fill="#63b8ff" stroke="#63b8ff" points="275.15,-84.84 282.74,-77.45 272.2,-78.49 275.15,-84.84"/>
</a>
</g>
</g>
<!-- Node4 -->
<g id="Node000004" class="node">
<title>Node4</title>
<g id="a_Node000004"><a xlink:href="../../df/d0a/main_8cpp.html#ac19c0f76269ed6195cad2776a32e04f1" target="_top" xlink:title="Carrega um quadro KanBan a partir de um arquivo.">
<polygon fill="white" stroke="#666666" points="186.88,-96 104.12,-96 104.12,-76 186.88,-76 186.88,-96"/>
<text text-anchor="middle" x="145.5" y="-82.5" font-family="Helvetica,sans-Serif" font-size="10.00">carregarQuadro</text>
</a>
</g>
</g>
<!-- Node1&#45;&gt;Node4 -->
<g id="edge3_Node000001_Node000004" class="edge">
<title>Node1&#45;&gt;Node4</title>
<g id="a_edge3_Node000001_Node000004"><a xlink:title=" ">
<path fill="none" stroke="#63b8ff" d="M242.88,-74.46C224.18,-76.7 204.16,-79.1 187.24,-81.12"/>
<polygon fill="#63b8ff" stroke="#63b8ff" points="243.2,-77.83 252.71,-73.17 242.36,-70.88 243.2,-77.83"/>
</a>
</g>
</g>
<!-- Node5 -->
<g id="Node000005" class="node">
<title>Node5</title>
<g id="a_Node000005"><a xlink:href="../../de/d1c/class_coluna_nomeada.html#ab47ba7b160204e7001f88c06ec25a305" target="_top" xlink:title="Move uma tarefa de uma coluna para outra.">
<polygon fill="white" stroke="#666666" points="218,-58 73,-58 73,-38 218,-38 218,-58"/>
<text text-anchor="middle" x="145.5" y="-44.5" font-family="Helvetica,sans-Serif" font-size="10.00">ColunaNomeada::moverTarefa</text>
</a>
</g>
</g>
<!-- Node1&#45;&gt;Node5 -->
<g id="edge5_Node000001_Node000005" class="edge">
<title>Node1&#45;&gt;Node5</title>
<g id="a_edge5_Node000001_Node000005"><a xlink:title=" ">
<path fill="none" stroke="#63b8ff" d="M242.88,-59.54C234.8,-58.57 226.48,-57.57 218.26,-56.59"/>
<polygon fill="#63b8ff" stroke="#63b8ff" points="242.36,-63.12 252.71,-60.83 243.2,-56.17 242.36,-63.12"/>
</a>
</g>
</g>
<!-- Node6 -->
<g id="Node000006" class="node">
<title>Node6</title>
<g id="a_Node000006"><a xlink:href="../../d0/d4e/class_coluna_arquivo.html#ac4f7235fe2e8bbcdb959f5100d7c1bb7" target="_top" xlink:title="Move uma tarefa de uma coluna para outra.">
<polygon fill="white" stroke="#666666" points="213.12,-20 77.88,-20 77.88,0 213.12,0 213.12,-20"/>
<text text-anchor="middle" x="145.5" y="-6.5" font-family="Helvetica,sans-Serif" font-size="10.00">ColunaArquivo::moverTarefa</text>
</a>
</g>
</g>
<!-- Node1&#45;&gt;Node6 -->
<g id="edge6_Node000001_Node000006" class="edge">
<title>Node1&#45;&gt;Node6</title>
<g id="a_edge6_Node000001_Node000006"><a xlink:title=" ">
<path fill="none" stroke="#63b8ff" d="M274.1,-52.07C257.65,-44.53 236.99,-35.62 218,-29 209.02,-25.87 199.26,-22.97 189.92,-20.41"/>
<polygon fill="#63b8ff" stroke="#63b8ff" points="272.2,-55.51 282.74,-56.55 275.15,-49.16 272.2,-55.51"/>
</a>
</g>
</g>
<!-- Node3 -->
<g id="Node000003" class="node">
<title>Node3</title>
<g id="a_Node000003"><a xlink:href="../../df/d0a/main_8cpp.html#ae66f6b31b5ad750f1fe042a706a4e3d4" target="_top" xlink:title=" ">
<polygon fill="white" stroke="#666666" points="37,-115 0,-115 0,-95 37,-95 37,-115"/>
<text text-anchor="middle" x="18.5" y="-101.5" font-family="Helvetica,sans-Serif" font-size="10.00">main</text>
</a>
</g>
</g>
<!-- Node2&#45;&gt;Node3 -->
<g id="edge2_Node000002_Node000003" class="edge">
<title>Node2&#45;&gt;Node3</title>
<g id="a_edge2_Node000002_Node000003"><a xlink:title=" ">
<path fill="none" stroke="#63b8ff" d="M93.74,-116.28C73.79,-113.25 52.17,-109.97 37.44,-107.73"/>
<polygon fill="#63b8ff" stroke="#63b8ff" points="93.19,-119.89 103.61,-117.94 94.25,-112.97 93.19,-119.89"/>
</a>
</g>
</g>
<!-- Node4&#45;&gt;Node3 -->
<g id="edge4_Node000004_Node000003" class="edge">
<title>Node4&#45;&gt;Node3</title>
<g id="a_edge4_Node000004_Node000003"><a xlink:title=" ">
<path fill="none" stroke="#63b8ff" d="M93.09,-93.81C73.22,-96.83 51.81,-100.09 37.24,-102.3"/>
<polygon fill="#63b8ff" stroke="#63b8ff" points="93.56,-97.13 102.92,-92.17 92.5,-90.21 93.56,-97.13"/>
</a>
</g>
</g>
</g>
</svg>
