<?xml version="1.0" encoding="UTF-8" standalone="no"?>
<!DOCTYPE svg PUBLIC "-//W3C//DTD SVG 1.1//EN"
 "http://www.w3.org/Graphics/SVG/1.1/DTD/svg11.dtd">
<!-- Generated by graphviz version 8.1.0 (20230707.0739)
 -->
<!-- Title: Coluna::obterTarefa Pages: 1 -->
<svg width="290pt" height="104pt"
 viewBox="0.00 0.00 290.00 104.00" xmlns="http://www.w3.org/2000/svg" xmlns:xlink="http://www.w3.org/1999/xlink">
<g id="graph0" class="graph" transform="scale(1 1) rotate(0) translate(4 100)">
<title>Coluna::obterTarefa</title>
<!-- Node1 -->
<g id="Node000001" class="node">
<title>Node1</title>
<g id="a_Node000001"><a xlink:title="Obtém uma tarefa da coluna pelo seu índice.">
<polygon fill="#999999" stroke="#666666" points="282,-58 182,-58 182,-38 282,-38 282,-58"/>
<text text-anchor="middle" x="232" y="-44.5" font-family="Helvetica,sans-Serif" font-size="10.00">Coluna::obterTarefa</text>
</a>
</g>
</g>
<!-- Node2 -->
<g id="Node000002" class="node">
<title>Node2</title>
<g id="a_Node000002"><a xlink:href="../../df/d0a/main_8cpp.html#ac8773e0e3b3c75454e680ff43c6fcd7f" target="_top" xlink:title="Edita uma tarefa existente no quadro KanBan.">
<polygon fill="white" stroke="#666666" points="142.62,-96 76.38,-96 76.38,-76 142.62,-76 142.62,-96"/>
<text text-anchor="middle" x="109.5" y="-82.5" font-family="Helvetica,sans-Serif" font-size="10.00">editarTarefa</text>
</a>
</g>
</g>
<!-- Node1&#45;&gt;Node2 -->
<g id="edge1_Node000001_Node000002" class="edge">
<title>Node1&#45;&gt;Node2</title>
<g id="a_edge1_Node000001_Node000002"><a xlink:title=" ">
<path fill="none" stroke="#63b8ff" d="M187.35,-61.77C172.63,-66.41 156.48,-71.5 142.81,-75.81"/>
<polygon fill="#63b8ff" stroke="#63b8ff" points="188.27,-64.83 196.75,-58.48 186.16,-58.15 188.27,-64.83"/>
</a>
</g>
</g>
<!-- Node4 -->
<g id="Node000004" class="node">
<title>Node4</title>
<g id="a_Node000004"><a xlink:href="../../df/d0a/main_8cpp.html#a2eddfb0aac0ba265acd5268ce3d8e919" target="_top" xlink:title="Move uma tarefa de uma coluna para outra no quadro KanBan.">
<polygon fill="white" stroke="#666666" points="146,-58 73,-58 73,-38 146,-38 146,-58"/>
<text text-anchor="middle" x="109.5" y="-44.5" font-family="Helvetica,sans-Serif" font-size="10.00">moverTarefas</text>
</a>
</g>
</g>
<!-- Node1&#45;&gt;Node4 -->
<g id="edge3_Node000001_Node000004" class="edge">
<title>Node1&#45;&gt;Node4</title>
<g id="a_edge3_Node000001_Node000004"><a xlink:title=" ">
<path fill="none" stroke="#63b8ff" d="M170.72,-48C162.37,-48 154.03,-48 146.32,-48"/>
<polygon fill="#63b8ff" stroke="#63b8ff" points="170.64,-51.5 180.64,-48 170.64,-44.5 170.64,-51.5"/>
</a>
</g>
</g>
<!-- Node5 -->
<g id="Node000005" class="node">
<title>Node5</title>
<g id="a_Node000005"><a xlink:href="../../df/d0a/main_8cpp.html#a3a0d238b444da51e7f04f65f8d390fd0" target="_top" xlink:title="Salva o quadro KanBan em um arquivo.">
<polygon fill="white" stroke="#666666" points="145.62,-20 73.38,-20 73.38,0 145.62,0 145.62,-20"/>
<text text-anchor="middle" x="109.5" y="-6.5" font-family="Helvetica,sans-Serif" font-size="10.00">salvarQuadro</text>
</a>
</g>
</g>
<!-- Node1&#45;&gt;Node5 -->
<g id="edge5_Node000001_Node000005" class="edge">
<title>Node1&#45;&gt;Node5</title>
<g id="a_edge5_Node000001_Node000005"><a xlink:title=" ">
<path fill="none" stroke="#63b8ff" d="M187.52,-34.29C173.06,-29.73 157.19,-24.72 143.64,-20.45"/>
<polygon fill="#63b8ff" stroke="#63b8ff" points="186.16,-37.85 196.75,-37.52 188.27,-31.17 186.16,-37.85"/>
</a>
</g>
</g>
<!-- Node3 -->
<g id="Node000003" class="node">
<title>Node3</title>
<g id="a_Node000003"><a xlink:href="../../df/d0a/main_8cpp.html#ae66f6b31b5ad750f1fe042a706a4e3d4" target="_top" xlink:title=" ">
<polygon fill="white" stroke="#666666" points="37,-58 0,-58 0,-38 37,-38 37,-58"/>
<text text-anchor="middle" x="18.5" y="-44.5" font-family="Helvetica,sans-Serif" font-size="10.00">main</text>
</a>
</g>
</g>
<!-- Node2&#45;&gt;Node3 -->
<g id="edge2_Node000002_Node000003" class="edge">
<title>Node2&#45;&gt;Node3</title>
<g id="a_edge2_Node000002_Node000003"><a xlink:title=" ">
<path fill="none" stroke="#63b8ff" d="M74.38,-71.43C61.74,-66.03 47.91,-60.13 37.3,-55.6"/>
<polygon fill="#63b8ff" stroke="#63b8ff" points="72.61,-74.91 83.18,-75.62 75.36,-68.47 72.61,-74.91"/>
</a>
</g>
</g>
<!-- Node4&#45;&gt;Node3 -->
<g id="edge4_Node000004_Node000003" class="edge">
<title>Node4&#45;&gt;Node3</title>
<g id="a_edge4_Node000004_Node000003"><a xlink:title=" ">
<path fill="none" stroke="#63b8ff" d="M61.59,-48C52.91,-48 44.35,-48 37.24,-48"/>
<polygon fill="#63b8ff" stroke="#63b8ff" points="61.56,-51.5 71.56,-48 61.56,-44.5 61.56,-51.5"/>
</a>
</g>
</g>
<!-- Node5&#45;&gt;Node3 -->
<g id="edge6_Node000005_Node000003" class="edge">
<title>Node5&#45;&gt;Node3</title>
<g id="a_edge6_Node000005_Node000003"><a xlink:title=" ">
<path fill="none" stroke="#63b8ff" d="M74.38,-24.57C61.74,-29.97 47.91,-35.87 37.3,-40.4"/>
<polygon fill="#63b8ff" stroke="#63b8ff" points="75.36,-27.53 83.18,-20.38 72.61,-21.09 75.36,-27.53"/>
</a>
</g>
</g>
</g>
</svg>
