<?xml version="1.0" encoding="UTF-8" standalone="no"?>
<!DOCTYPE svg PUBLIC "-//W3C//DTD SVG 1.1//EN"
 "http://www.w3.org/Graphics/SVG/1.1/DTD/svg11.dtd">
<!-- Generated by graphviz version 8.1.0 (20230707.0739)
 -->
<!-- Title: include/listaSimplesmenteEncadeada.hpp Pages: 1 -->
<svg width="352pt" height="320pt"
 viewBox="0.00 0.00 351.75 320.00" xmlns="http://www.w3.org/2000/svg" xmlns:xlink="http://www.w3.org/1999/xlink">

<svg id="main" version="1.1" xmlns="http://www.w3.org/2000/svg" xmlns:xlink="http://www.w3.org/1999/xlink" xml:space="preserve" onload="init(evt)">
<style type="text/css"><![CDATA[
.node, .edge {opacity: 0.7;}
.node.selected, .edge.selected {opacity: 1;}
.edge:hover path { stroke: red; }
.edge:hover polygon { stroke: red; fill: red; }
]]></style>
<script type="application/ecmascript" xlink:href="../../svg.min.js"/>
<svg id="graph" class="graph">
<g id="graph0" class="graph" transform="scale(1 1) rotate(0) translate(4 316)">
<title>include/listaSimplesmenteEncadeada.hpp</title>
<!-- Node1 -->
<g id="Node000001" class="node">
<title>Node1</title>
<g id="a_Node000001"><a xlink:title="Define a classe Lista e a classe NoSimples para implementar uma lista simplesmente encadeada de colun...">
<polygon fill="#999999" stroke="#666666" points="136,-312 6,-312 6,-280 136,-280 136,-312"/>
<text text-anchor="start" x="14" y="-298.5" font-family="Helvetica,sans-Serif" font-size="10.00">include/listaSimplesmente</text>
<text text-anchor="middle" x="71" y="-286.5" font-family="Helvetica,sans-Serif" font-size="10.00">Encadeada.hpp</text>
</a>
</g>
</g>
<!-- Node2 -->
<g id="Node000002" class="node">
<title>Node2</title>
<g id="a_Node000002"><a xlink:title=" ">
<polygon fill="#e0e0e0" stroke="#999999" points="102.75,-20 49.25,-20 49.25,0 102.75,0 102.75,-20"/>
<text text-anchor="middle" x="76" y="-6.5" font-family="Helvetica,sans-Serif" font-size="10.00">iostream</text>
</a>
</g>
</g>
<!-- Node1&#45;&gt;Node2 -->
<g id="edge1_Node000001_Node000002" class="edge">
<title>Node1&#45;&gt;Node2</title>
<g id="a_edge1_Node000001_Node000002"><a xlink:title=" ">
<path fill="none" stroke="#63b8ff" d="M53.81,-279.57C32.8,-258.91 0,-220.08 0,-179 0,-179 0,-179 0,-121 0,-82.07 32.63,-46.93 55.13,-27.33"/>
<polygon fill="#63b8ff" stroke="#63b8ff" points="57.02,-29.47 62.45,-20.37 52.53,-24.1 57.02,-29.47"/>
</a>
</g>
</g>
<!-- Node3 -->
<g id="Node000003" class="node">
<title>Node3</title>
<g id="a_Node000003"><a xlink:href="../../da/d7b/colunas_8hpp.html" target="_top" xlink:title="Definição das classes Coluna, ColunaNomeada e ColunaArquivo.">
<polygon fill="white" stroke="#666666" points="190.25,-244 121.75,-244 121.75,-224 190.25,-224 190.25,-244"/>
<text text-anchor="middle" x="156" y="-230.5" font-family="Helvetica,sans-Serif" font-size="10.00">colunas.hpp</text>
</a>
</g>
</g>
<!-- Node1&#45;&gt;Node3 -->
<g id="edge2_Node000001_Node000003" class="edge">
<title>Node1&#45;&gt;Node3</title>
<g id="a_edge2_Node000001_Node000003"><a xlink:title=" ">
<path fill="none" stroke="#63b8ff" d="M92.89,-279.55C105.43,-270.69 121.14,-259.61 133.74,-250.71"/>
<polygon fill="#63b8ff" stroke="#63b8ff" points="135.52,-253.03 141.67,-244.41 131.48,-247.32 135.52,-253.03"/>
</a>
</g>
</g>
<!-- Node3&#45;&gt;Node2 -->
<g id="edge3_Node000003_Node000002" class="edge">
<title>Node3&#45;&gt;Node2</title>
<g id="a_edge3_Node000003_Node000002"><a xlink:title=" ">
<path fill="none" stroke="#63b8ff" d="M121.38,-224.34C102.67,-217.7 81.17,-206.45 70,-188 39.82,-138.14 57.62,-65.06 68.9,-30.5"/>
<polygon fill="#63b8ff" stroke="#63b8ff" points="72.45,-31.93 72.39,-21.34 65.83,-29.66 72.45,-31.93"/>
</a>
</g>
</g>
<!-- Node4 -->
<g id="Node000004" class="node">
<title>Node4</title>
<g id="a_Node000004"><a xlink:title=" ">
<polygon fill="#e0e0e0" stroke="#999999" points="256,-20 216,-20 216,0 256,0 256,-20"/>
<text text-anchor="middle" x="236" y="-6.5" font-family="Helvetica,sans-Serif" font-size="10.00">string</text>
</a>
</g>
</g>
<!-- Node3&#45;&gt;Node4 -->
<g id="edge4_Node000003_Node000004" class="edge">
<title>Node3&#45;&gt;Node4</title>
<g id="a_edge4_Node000003_Node000004"><a xlink:title=" ">
<path fill="none" stroke="#63b8ff" d="M190.62,-224.34C209.33,-217.7 230.83,-206.45 242,-188 272.18,-138.14 254.38,-65.06 243.1,-30.5"/>
<polygon fill="#63b8ff" stroke="#63b8ff" points="246.17,-29.66 239.61,-21.34 239.55,-31.93 246.17,-29.66"/>
</a>
</g>
</g>
<!-- Node5 -->
<g id="Node000005" class="node">
<title>Node5</title>
<g id="a_Node000005"><a xlink:title=" ">
<polygon fill="#e0e0e0" stroke="#999999" points="343.75,-188 302.25,-188 302.25,-168 343.75,-168 343.75,-188"/>
<text text-anchor="middle" x="323" y="-174.5" font-family="Helvetica,sans-Serif" font-size="10.00">vector</text>
</a>
</g>
</g>
<!-- Node3&#45;&gt;Node5 -->
<g id="edge5_Node000003_Node000005" class="edge">
<title>Node3&#45;&gt;Node5</title>
<g id="a_edge5_Node000003_Node000005"><a xlink:title=" ">
<path fill="none" stroke="#63b8ff" d="M185.09,-223.59C215.02,-213.92 261.46,-198.9 292.05,-189.01"/>
<polygon fill="#63b8ff" stroke="#63b8ff" points="292.72,-192.15 301.16,-185.74 290.56,-185.49 292.72,-192.15"/>
</a>
</g>
</g>
<!-- Node6 -->
<g id="Node000006" class="node">
<title>Node6</title>
<g id="a_Node000006"><a xlink:href="../../d1/d7b/lista_duplamente_encadeada_8hpp.html" target="_top" xlink:title="Define a classe ListaDupla e a classe No para implementar uma lista duplamente encadeada de tarefas d...">
<polygon fill="white" stroke="#666666" points="232.62,-188 79.38,-188 79.38,-168 232.62,-168 232.62,-188"/>
<text text-anchor="middle" x="156" y="-174.5" font-family="Helvetica,sans-Serif" font-size="10.00">listaDuplamenteEncadeada.hpp</text>
</a>
</g>
</g>
<!-- Node3&#45;&gt;Node6 -->
<g id="edge6_Node000003_Node000006" class="edge">
<title>Node3&#45;&gt;Node6</title>
<g id="a_edge6_Node000003_Node000006"><a xlink:title=" ">
<path fill="none" stroke="#63b8ff" d="M156,-223.59C156,-216.86 156,-207.53 156,-199.15"/>
<polygon fill="#63b8ff" stroke="#63b8ff" points="159.5,-199.3 156,-189.3 152.5,-199.3 159.5,-199.3"/>
</a>
</g>
</g>
<!-- Node6&#45;&gt;Node2 -->
<g id="edge7_Node000006_Node000002" class="edge">
<title>Node6&#45;&gt;Node2</title>
<g id="a_edge7_Node000006_Node000002"><a xlink:title=" ">
<path fill="none" stroke="#63b8ff" d="M149.28,-167.63C143.06,-158.73 133.77,-144.82 127,-132 108.72,-97.37 92.01,-54.73 82.99,-30.42"/>
<polygon fill="#63b8ff" stroke="#63b8ff" points="86.03,-29.55 79.31,-21.36 79.46,-31.95 86.03,-29.55"/>
</a>
</g>
</g>
<!-- Node7 -->
<g id="Node000007" class="node">
<title>Node7</title>
<g id="a_Node000007"><a xlink:href="../../d1/d1b/tarefa_8hpp.html" target="_top" xlink:title="Definição da classe Tarefa.">
<polygon fill="white" stroke="#666666" points="194.38,-132 135.62,-132 135.62,-112 194.38,-112 194.38,-132"/>
<text text-anchor="middle" x="165" y="-118.5" font-family="Helvetica,sans-Serif" font-size="10.00">tarefa.hpp</text>
</a>
</g>
</g>
<!-- Node6&#45;&gt;Node7 -->
<g id="edge8_Node000006_Node000007" class="edge">
<title>Node6&#45;&gt;Node7</title>
<g id="a_edge8_Node000006_Node000007"><a xlink:title=" ">
<path fill="none" stroke="#63b8ff" d="M157.57,-167.59C158.7,-160.78 160.28,-151.32 161.69,-142.86"/>
<polygon fill="#63b8ff" stroke="#63b8ff" points="165.26,-143.74 163.45,-133.3 158.35,-142.59 165.26,-143.74"/>
</a>
</g>
</g>
<!-- Node7&#45;&gt;Node2 -->
<g id="edge10_Node000007_Node000002" class="edge">
<title>Node7&#45;&gt;Node2</title>
<g id="a_edge10_Node000007_Node000002"><a xlink:title=" ">
<path fill="none" stroke="#63b8ff" d="M157.41,-111.62C142.57,-93.27 109.47,-52.37 90.36,-28.75"/>
<polygon fill="#63b8ff" stroke="#63b8ff" points="92.58,-26.93 83.57,-21.35 87.14,-31.33 92.58,-26.93"/>
</a>
</g>
</g>
<!-- Node7&#45;&gt;Node4 -->
<g id="edge9_Node000007_Node000004" class="edge">
<title>Node7&#45;&gt;Node4</title>
<g id="a_edge9_Node000007_Node000004"><a xlink:title=" ">
<path fill="none" stroke="#63b8ff" d="M179.86,-111.67C191.56,-103.58 207.45,-90.87 217,-76 225.85,-62.23 230.69,-44.21 233.27,-30.64"/>
<polygon fill="#63b8ff" stroke="#63b8ff" points="236.84,-31.51 234.99,-21.08 229.93,-30.38 236.84,-31.51"/>
</a>
</g>
</g>
<!-- Node8 -->
<g id="Node000008" class="node">
<title>Node8</title>
<g id="a_Node000008"><a xlink:href="../../d9/da4/pessoa_8hpp.html" target="_top" xlink:title="Definição das classes Pessoa e Colaborador.">
<polygon fill="white" stroke="#666666" points="208.12,-76 141.88,-76 141.88,-56 208.12,-56 208.12,-76"/>
<text text-anchor="middle" x="175" y="-62.5" font-family="Helvetica,sans-Serif" font-size="10.00">pessoa.hpp</text>
</a>
</g>
</g>
<!-- Node7&#45;&gt;Node8 -->
<g id="edge11_Node000007_Node000008" class="edge">
<title>Node7&#45;&gt;Node8</title>
<g id="a_edge11_Node000007_Node000008"><a xlink:title=" ">
<path fill="none" stroke="#63b8ff" d="M166.74,-111.59C168,-104.78 169.76,-95.32 171.32,-86.86"/>
<polygon fill="#63b8ff" stroke="#63b8ff" points="174.9,-87.77 173.28,-77.3 168.02,-86.49 174.9,-87.77"/>
</a>
</g>
</g>
<!-- Node8&#45;&gt;Node2 -->
<g id="edge12_Node000008_Node000002" class="edge">
<title>Node8&#45;&gt;Node2</title>
<g id="a_edge12_Node000008_Node000002"><a xlink:title=" ">
<path fill="none" stroke="#63b8ff" d="M157.76,-55.59C142.66,-47.36 120.47,-35.26 103.02,-25.74"/>
<polygon fill="#63b8ff" stroke="#63b8ff" points="104.83,-22.2 94.38,-20.48 101.48,-28.34 104.83,-22.2"/>
</a>
</g>
</g>
<!-- Node8&#45;&gt;Node4 -->
<g id="edge13_Node000008_Node000004" class="edge">
<title>Node8&#45;&gt;Node4</title>
<g id="a_edge13_Node000008_Node000004"><a xlink:title=" ">
<path fill="none" stroke="#63b8ff" d="M185.63,-55.59C194.37,-47.85 206.98,-36.69 217.4,-27.47"/>
<polygon fill="#63b8ff" stroke="#63b8ff" points="219.33,-30.55 224.5,-21.3 214.69,-25.31 219.33,-30.55"/>
</a>
</g>
</g>
</g>
</svg>
</svg>

<style type='text/css'>
<![CDATA[
[data-mouse-over-selected='false'] { opacity: 0.7; }
[data-mouse-over-selected='true']  { opacity: 1.0; }
]]>
</style>
<script type="application/ecmascript"><![CDATA[
document.addEventListener('DOMContentLoaded', (event) => {
  highlightEdges();
  highlightAdjacentNodes();
});
]]></script>
</svg>
