<?xml version="1.0" encoding="UTF-8" standalone="no"?>
<!DOCTYPE svg PUBLIC "-//W3C//DTD SVG 1.1//EN"
 "http://www.w3.org/Graphics/SVG/1.1/DTD/svg11.dtd">
<!-- Generated by graphviz version 8.1.0 (20230707.0739)
 -->
<!-- Title: Pessoa Pages: 1 -->
<svg width="135pt" height="268pt"
 viewBox="0.00 0.00 135.00 268.00" xmlns="http://www.w3.org/2000/svg" xmlns:xlink="http://www.w3.org/1999/xlink">
<g id="graph0" class="graph" transform="scale(1 1) rotate(0) translate(4 264)">
<title>Pessoa</title>
<!-- Node1 -->
<g id="Node000001" class="node">
<title>Node1</title>
<g id="a_Node000001"><a xlink:title="Classe base que representa uma Pessoa.">
<polygon fill="#999999" stroke="none" points="127,-148 0,-148 0,0 127,0 127,-148"/>
<text text-anchor="start" x="47" y="-134.5" font-family="Helvetica,sans-Serif" font-size="10.00">Pessoa</text>
<text text-anchor="start" x="62" y="-118.5" font-family="Helvetica,sans-Serif" font-size="10.00"> </text>
<text text-anchor="start" x="4" y="-102.5" font-family="Helvetica,sans-Serif" font-size="10.00">+</text>
<text text-anchor="start" x="14" y="-102.5" font-family="Helvetica,sans-Serif" font-size="10.00">Pessoa()</text>
<text text-anchor="start" x="4" y="-86.5" font-family="Helvetica,sans-Serif" font-size="10.00">+</text>
<text text-anchor="start" x="14" y="-86.5" font-family="Helvetica,sans-Serif" font-size="10.00">Pessoa(string n, string c)</text>
<text text-anchor="start" x="4" y="-70.5" font-family="Helvetica,sans-Serif" font-size="10.00">+</text>
<text text-anchor="start" x="14" y="-70.5" font-family="Helvetica,sans-Serif" font-size="10.00">~Pessoa()</text>
<text text-anchor="start" x="4" y="-54.5" font-family="Helvetica,sans-Serif" font-size="10.00">+</text>
<text text-anchor="start" x="14" y="-54.5" font-family="Helvetica,sans-Serif" font-size="10.00">void setNome(string n)</text>
<text text-anchor="start" x="4" y="-38.5" font-family="Helvetica,sans-Serif" font-size="10.00">+</text>
<text text-anchor="start" x="14" y="-38.5" font-family="Helvetica,sans-Serif" font-size="10.00">void setContato(string c)</text>
<text text-anchor="start" x="4" y="-22.5" font-family="Helvetica,sans-Serif" font-size="10.00">+</text>
<text text-anchor="start" x="14" y="-22.5" font-family="Helvetica,sans-Serif" font-size="10.00">string getNome()</text>
<text text-anchor="start" x="4" y="-6.5" font-family="Helvetica,sans-Serif" font-size="10.00">+</text>
<text text-anchor="start" x="14" y="-6.5" font-family="Helvetica,sans-Serif" font-size="10.00">string getContato()</text>
<polygon fill="#666666" stroke="#666666" points="0,-130 0,-130 127,-130 127,-130 0,-130"/>
<polygon fill="#666666" stroke="#666666" points="0,-114 0,-114 127,-114 127,-114 0,-114"/>
<polygon fill="none" stroke="#666666" points="0,0 0,-148 127,-148 127,0 0,0"/>
</a>
</g>
</g>
<!-- Node2 -->
<g id="Node000002" class="node">
<title>Node2</title>
<g id="a_Node000002"><a xlink:title=" ">
<polygon fill="white" stroke="none" points="80.5,-260 46.5,-260 46.5,-208 80.5,-208 80.5,-260"/>
<text text-anchor="start" x="51.5" y="-246.5" font-family="Helvetica,sans-Serif" font-size="10.00">string</text>
<text text-anchor="start" x="62" y="-230.5" font-family="Helvetica,sans-Serif" font-size="10.00"> </text>
<text text-anchor="start" x="62" y="-214.5" font-family="Helvetica,sans-Serif" font-size="10.00"> </text>
<polygon fill="#666666" stroke="#666666" points="46.5,-242 46.5,-242 80.5,-242 80.5,-242 46.5,-242"/>
<polygon fill="#666666" stroke="#666666" points="46.5,-226 46.5,-226 80.5,-226 80.5,-226 46.5,-226"/>
<polygon fill="none" stroke="#666666" points="46.5,-208 46.5,-260 80.5,-260 80.5,-208 46.5,-208"/>
</a>
</g>
</g>
<!-- Node2&#45;&gt;Node1 -->
<g id="edge1_Node000001_Node000002" class="edge">
<title>Node2&#45;&gt;Node1</title>
<g id="a_edge1_Node000001_Node000002"><a xlink:title=" ">
<path fill="none" stroke="#63b8ff" d="M63.5,-208.31C63.5,-195.25 63.5,-178.34 63.5,-160.98"/>
<polygon fill="none" stroke="#63b8ff" points="63.5,-160.89 59.5,-154.89 63.5,-148.89 67.5,-154.89 63.5,-160.89"/>
</a>
</g>
<text text-anchor="middle" x="83.75" y="-180.5" font-family="Helvetica,sans-Serif" font-size="10.00" fill="grey"> #contato</text>
<text text-anchor="middle" x="83.75" y="-168.5" font-family="Helvetica,sans-Serif" font-size="10.00" fill="grey">#nome</text>
</g>
</g>
</svg>
